<svg xmlns="http://www.w3.org/2000/svg" width="64" height="64"><defs><linearGradient id="a" x1="8.466" x2="8.466" y1="12.7" y2="2.381" gradientUnits="userSpaceOnUse"><stop offset="0"/><stop offset="1" stop-opacity="0"/></linearGradient><linearGradient id="b" x1="8.467" x2="8.467" y1="3.969" y2="4.498" gradientUnits="userSpaceOnUse"><stop offset="0" stop-color="#fff"/><stop offset="1" stop-color="#c9d0d3"/></linearGradient><linearGradient id="c" x1="8.467" x2="8.467" y1="4.498" y2="14.552" gradientUnits="userSpaceOnUse"><stop offset="0" stop-color="#fff"/><stop offset="1"/></linearGradient></defs><g transform="scale(3.7796)"><path fill="#006efd" d="M1.945 2.381H4.91c.75 0 .904.084 1.27.63.297.441.84.429 1.756.429h7.05a1.146 1.146 0 0 1 1.152 1.152v6.956a1.15 1.15 0 0 1-1.152 1.152H1.944a1.15 1.15 0 0 1-1.15-1.152V3.533a1.15 1.15 0 0 1 1.15-1.152z"/><path fill="url(#a)" d="M1.945 2.381H4.91c.75 0 .904.084 1.27.63.297.441.84.429 1.756.429h7.05a1.146 1.146 0 0 1 1.152 1.152v6.956a1.15 1.15 0 0 1-1.152 1.152H1.944a1.15 1.15 0 0 1-1.15-1.152V3.533a1.15 1.15 0 0 1 1.15-1.152z" style="fill:url(#a)"/><rect width="14.287" height="10.054" x="1.323" y="3.969" fill="url(#b)" rx=".529" ry=".529" style="fill:url(#b)"/><rect width="15.346" height="10.054" x=".794" y="4.498" fill="#006efd" rx="1.058" ry="1.058"/><path d="M.794 13.365v.128c0 .586.472 1.058 1.058 1.058h13.229c.586 0 1.058-.472 1.058-1.058v-.128c0 .586-.472 1.058-1.058 1.058H1.852a1.056 1.056 0 0 1-1.058-1.058" opacity=".1"/><path fill="#fff" d="M.794 5.684v-.128c0-.586.472-1.058 1.058-1.058h13.229c.586 0 1.058.472 1.058 1.058v.128c0-.586-.472-1.058-1.058-1.058H1.852c-.586 0-1.058.472-1.058 1.058" opacity=".2"/><rect width="15.346" height="10.054" x=".794" y="4.498" fill="url(#c)" opacity=".15" rx="1.058" ry="1.058" style="fill:url(#c)"/></g><path d="M32.429 25a10 10 0 0 0-10 10h-2.857l4.286 5.714L28.143 35h-2.857a7.143 7.143 0 0 1 7.143-7.143A7.143 7.143 0 0 1 39.572 35a7.143 7.143 0 0 1-7.143 7.143V45a10 10 0 0 0 10-10 10 10 0 0 0-10-10M31 30v6.097l4.605 3.069.791-1.189-3.967-2.645V30z" class="ColorScheme-Text" opacity=".15"/></svg>