<svg xmlns="http://www.w3.org/2000/svg" width="64" height="64"><defs><linearGradient id="a" x1="8.466" x2="8.466" y1="12.7" y2="2.381" gradientUnits="userSpaceOnUse"><stop offset="0"/><stop offset="1" stop-opacity="0"/></linearGradient><linearGradient id="b" x1="8.467" x2="8.467" y1="3.969" y2="4.498" gradientUnits="userSpaceOnUse"><stop offset="0" stop-color="#fff"/><stop offset="1" stop-color="#c9d0d3"/></linearGradient><linearGradient id="c" x1="8.467" x2="8.467" y1="4.498" y2="14.552" gradientUnits="userSpaceOnUse"><stop offset="0" stop-color="#fff"/><stop offset="1"/></linearGradient></defs><g transform="scale(3.7796)"><path fill="#006efd" d="M1.945 2.381H4.91c.75 0 .904.084 1.27.63.297.441.84.429 1.756.429h7.05a1.146 1.146 0 0 1 1.152 1.152v6.956a1.15 1.15 0 0 1-1.152 1.152H1.944a1.15 1.15 0 0 1-1.15-1.152V3.533a1.15 1.15 0 0 1 1.15-1.152z"/><path fill="url(#a)" d="M1.945 2.381H4.91c.75 0 .904.084 1.27.63.297.441.84.429 1.756.429h7.05a1.146 1.146 0 0 1 1.152 1.152v6.956a1.15 1.15 0 0 1-1.152 1.152H1.944a1.15 1.15 0 0 1-1.15-1.152V3.533a1.15 1.15 0 0 1 1.15-1.152z" style="fill:url(#a)"/><rect width="14.287" height="10.054" x="1.323" y="3.969" fill="url(#b)" rx=".529" ry=".529" style="fill:url(#b)"/><rect width="15.346" height="10.054" x=".794" y="4.498" fill="#006efd" rx="1.058" ry="1.058"/><path d="M.794 13.365v.128c0 .586.472 1.058 1.058 1.058h13.229c.586 0 1.058-.472 1.058-1.058v-.128c0 .586-.472 1.058-1.058 1.058H1.852a1.056 1.056 0 0 1-1.058-1.058" opacity=".1"/><path fill="#fff" d="M.794 5.684v-.128c0-.586.472-1.058 1.058-1.058h13.229c.586 0 1.058.472 1.058 1.058v.128c0-.586-.472-1.058-1.058-1.058H1.852c-.586 0-1.058.472-1.058 1.058" opacity=".2"/><rect width="15.346" height="10.054" x=".794" y="4.498" fill="url(#c)" opacity=".15" rx="1.058" ry="1.058" style="fill:url(#c)"/></g><path d="M29.909 24.234a1.534 1.534 0 0 0-1.287 2.3l1.568 2.715-5.013 8.684h-3.913a1.534 1.534 0 1 0 0 3.068h13.95c.674-1.254-.195-3.068-1.734-3.068h-4.762l6.58-11.399a1.533 1.533 0 1 0-2.656-1.533s-.34 1.179-.682 1.18c-.34 0-.682-1.18-.682-1.18a1.53 1.53 0 0 0-1.37-.767zm4.319 5.873c-.907.75-1.824 2.976-.542 5.198l5.673 9.826a1.534 1.534 0 0 0 2.656-1.534L40.517 41h2.22a1.534 1.534 0 1 0 0-3.068h-3.992zm-9.976 11.378c-.465.02-.9.26-1.143.68l-1.103 1.91c-.387.671-.129 1.54.58 1.95.708.408 1.59.197 1.976-.473l1.104-1.911c.387-.67.128-1.54-.58-1.948a1.53 1.53 0 0 0-.834-.208" opacity=".15"/></svg>