<svg width="16" height="16" version="1.1" xmlns="http://www.w3.org/2000/svg">
 <g fill="#363636" stroke-linecap="round" stroke-linejoin="round">
  <circle cx="4" cy="7" r="1"/>
  <circle cx="7" cy="7" r="1"/>
  <circle cx="10" cy="7" r="1"/>
  <circle cx="13" cy="7" r="1"/>
  <circle cx="4.0005" cy="10" r="1"/>
  <circle cx="7.0005" cy="10" r="1"/>
  <circle cx="10" cy="10" r="1"/>
  <circle cx="13" cy="10" r="1"/>
  <circle cx="4" cy="13" r="1"/>
  <circle cx="7" cy="13" r="1"/>
  <circle cx="10" cy="13" r="1"/>
  <circle cx="13" cy="13" r="1"/>
  <path d="m4 0c-1.662 0-3 1.338-3 3v10c0 1.662 1.338 3 3 3h9c1.662 0 3-1.338 3-3v-10c0-1.662-1.338-3-3-3h-9zm0 1h9c1.108 0 2 0.892 2 2v10c0 1.108-0.892 2-2 2h-9c-1.108 0-2-0.892-2-2v-10c0-1.108 0.892-2 2-2z"/>
  <rect x="1" y="4" width="15" height="1" rx="0" ry="0" stroke-width="1.0742"/>
 </g>
</svg>
