<svg width="16" height="16" version="1.1" xmlns="http://www.w3.org/2000/svg">
 <g fill="#363636" stroke-linecap="round" stroke-linejoin="round">
  <path d="m3 0v1h7v-1h-7zm0 2c-1.108 0-2 0.892-2 2v4c0 1.108 0.892 2 2 2v1c0 0.554 0.446 1 1 1h1.1699c-0.10978-0.31252-0.16992-0.64904-0.16992-1h-1v-5h1c0-0.35096 0.06014-0.68748 0.16992-1h-1.1699c-0.554 0-1 0.446-1 1v3c-0.55399 0-1-0.44601-1-1v-4c0-0.55399 0.44601-1 1-1h5 2 1.7344c-0.34482-0.59866-0.99116-1-1.7344-1h-7z"/>
  <path d="m8 4c-1.108 0-2 0.892-2 2v5c0 1.108 0.892 2 2 2h6c1.108 0 2-0.892 2-2v-5c0-1.108-0.892-2-2-2zm0 1h6c0.554 0 1 0.446 1 1v5c0 0.554-0.446 1-1 1h-6c-0.554 0-1-0.446-1-1v-5c0-0.554 0.446-1 1-1z"/>
  <path d="m9 14c-0.554 0-1 0.446-1 1h1 4 1c0-0.554-0.446-1-1-1h-4z"/>
  <rect x="9" y="12" width="1" height="3" stroke-width="1.0656"/>
  <rect x="12" y="12" width="1" height="3"/>
 </g>
</svg>
