<svg width="16px" height="16px" version="1.1" viewBox="0 0 16 16" xmlns="http://www.w3.org/2000/svg">
 <path d="m8.7949-8.9999e-8c-0.4394 0-0.79492 0.3556-0.79492 0.79492v5.2422c0 0.81729 0.92688 1.2893 1.5879 0.80859l1.7246-1.2539c1.2327-0.8965 1.5618-2.5942 0.75391-3.8867-0.66309-1.0609-1.827-1.7051-3.0781-1.7051zm0.20508 1.002c0.90277 0.00452 1.7403 0.46698 2.2187 1.2324 0.53457 0.85527 0.32136 1.9558-0.49414 2.5488l-1.7246 1.2539zm-4.418 0.33008c-1.2503 0.04378-2.3901 0.7271-3.0156 1.8105l-0.097657 0.16797c-0.21967 0.38048-0.08946 0.8682 0.29102 1.0879l4.5391 2.6191c0.7077 0.4086 1.5799-0.158 1.4941-0.9707l-0.22266-2.1191c-0.1601-1.5158-1.4651-2.649-2.9883-2.5957zm0.035159 1c1.0081-0.035298 1.853 0.69813 1.959 1.7012l0.22266 2.1191-4.3594-2.5176c0.45463-0.78046 1.2733-1.2711 2.1777-1.3027zm9.998 1.959c-0.12823 0.00333-0.2561 0.038774-0.375 0.10742l-4.5391 2.6191c-0.7078 0.4087-0.65305 1.4491 0.09375 1.7812l1.9473 0.86523c1.3927 0.6193 3.0268 0.054754 3.7422-1.291 0.5873-1.1047 0.563-2.4341-0.0625-3.5176l-0.095706-0.16602c-0.15105-0.26158-0.42883-0.40577-0.71094-0.39844zm-0.05469 1.0781c0.44668 0.78395 0.46448 1.7386 0.04102 2.5352-0.47357 0.89083-1.5319 1.2553-2.4531 0.8457l-1.9473-0.86523v-0.00195zm-11.373 0.71875c-1.0807-0.039756-2.1353 0.52972-2.6719 1.5391-0.58725 1.1047-0.56303 2.4341 0.062498 3.5176l0.095703 0.16602c0.21967 0.3805 0.70544 0.51061 1.0859 0.29102l4.5391-2.6191c0.7078-0.4087 0.65305-1.4491-0.09375-1.7813l-1.9473-0.86523c-0.34817-0.15483-0.71008-0.23479-1.0703-0.24805zm-0.037111 1c0.23715 0.00873 0.47127 0.059874 0.70117 0.16211l1.9473 0.86523v0.00195l-4.3574 2.5137c-0.44758-0.78432-0.4667-1.7361-0.042966-2.5332 0.3548-0.66746 1.0457-1.0357 1.752-1.0098zm6.0059 1.7598c-0.53997 0.025162-1.0136 0.49587-0.94922 1.1055l0.22266 2.1191c0.16 1.5157 1.465 2.649 2.9883 2.5957 1.2503-0.0438 2.39-0.72898 3.0156-1.8125l0.09766-0.16602c0.2197-0.3805 0.08948-0.8682-0.29102-1.0879l-4.5391-2.6191c-0.17695-0.10215-0.36493-0.14315-0.54492-0.13477zm-2.2168 0.11523c-0.17988 0.010559-0.3621 0.071234-0.52734 0.19141l-1.7246 1.2539c-1.2326 0.8965-1.5618 2.5942-0.75391 3.8867 0.66306 1.0609 1.827 1.7051 3.0781 1.7051h0.19336c0.4393 0 0.79492-0.35563 0.79492-0.79492v-5.2422c0-0.61297-0.52089-1.0317-1.0605-1zm2.2617 0.88477 4.3594 2.5156c-0.45499 0.78105-1.2742 1.273-2.1777 1.3047-1.0082 0.0353-1.8531-0.69827-1.959-1.7012h0.00195zm-2.2012 0.11523v5.0352c-0.90277-0.004504-1.7404-0.46896-2.2188-1.2344-0.53456-0.85524-0.32131-1.9538 0.49414-2.5469z" fill="#363636" stroke-width=".71491"/>
 <g transform="matrix(.88239 0 0 .88239 .094881 1.7452)">
  <g transform="matrix(.9333 0 0 .9333 17.119 3.3378)" fill="#bebebe" fill-opacity=".44314"></g>
 </g>
</svg>
