<svg width="16px" height="16px" version="1.1" viewBox="0 0 16 16" xmlns="http://www.w3.org/2000/svg">
 <g fill="#363636" stroke-linecap="round" stroke-linejoin="round">
  <path d="m2 2v11h12v-11zm1 1h10v9h-10z"/>
  <rect x="1" y="3" width="2" height="1"/>
  <rect x="1" y="5" width="2" height="1"/>
  <rect x="1" y="7" width="2" height="1"/>
  <rect x="1" y="9" width="2" height="1"/>
  <rect x="1" y="11" width="2" height="1"/>
  <rect x="13" y="3" width="2" height="1"/>
  <rect x="13" y="5" width="2" height="1"/>
  <rect x="13" y="7" width="2" height="1"/>
  <rect x="13" y="9" width="2" height="1"/>
  <rect x="13" y="11" width="2" height="1"/>
  <rect transform="rotate(-90)" x="-3" y="3" width="2" height="1"/>
  <rect transform="rotate(-90)" x="-3" y="5" width="2" height="1"/>
  <rect transform="rotate(-90)" x="-3" y="7" width="2" height="1"/>
  <rect transform="rotate(-90)" x="-3" y="9" width="2" height="1"/>
  <rect transform="rotate(-90)" x="-3" y="11" width="2" height="1"/>
  <rect transform="rotate(-90)" x="-14" y="3" width="2" height="1"/>
  <rect transform="rotate(-90)" x="-14" y="5" width="2" height="1"/>
  <rect transform="rotate(-90)" x="-14" y="7" width="2" height="1"/>
  <rect transform="rotate(-90)" x="-14" y="9" width="2" height="1"/>
  <rect transform="rotate(-90)" x="-14" y="11" width="2" height="1"/>
  <path d="m4 4v1h2v-1h-2zm3 0v1h2v-1h-2zm3 0v1h2v-1h-2zm-6 2v1h2v-1h-2zm3 0v1h2v-1h-2zm3 0v1h2v-1h-2zm-6 2v1h2v-1h-2zm3 0v1h2v-1h-2zm3 0v1h2v-1h-2zm-6 2v1h2v-1h-2zm3 0v1h2v-1h-2zm3 0v1h2v-1h-2z" stroke-width="1.4142"/>
 </g>
</svg>
