<svg width="16px" height="16px" version="1.1" viewBox="0 0 16 16" xmlns="http://www.w3.org/2000/svg">
 <path d="m5 0c-1.662 0-3 1.338-3 3v10c0 1.662 1.338 3 3 3h4v-1h-4c-1.108 0-2-0.892-2-2v-10c0-1.108 0.892-2 2-2h4.5859l3.4141 3.416v3.584c0.34991 0 0.68665 0.061593 1 0.17383v-4.1738l-4-4h-1.0703zm0 6c-1 0-1 1-1 1v1.0078h2v-2zm4.9961 0v2h2l0.003906-1s0-1-1-1zm-2.9961 0.0078125v2h2v-2zm-3 2.9961v1.9961h6c0-0.76344 0.29078-1.4642 0.76758-1.9961zm0 3v0.99609s0 1 1 1l1 0.0039v-2zm3 0v2h2v-2z" fill="#363636" opacity=".35"/>
 <path d="m13 9c-1.0977 0-2 0.90234-2 2v1h-1v4h6v-4h-1v-1c0-1.0977-0.90234-2-2-2zm0 1c0.5625 0 1 0.4375 1 1v1h-2v-1c0-0.5625 0.4375-1 1-1zm-2 3h4v2h-4v-2z" fill="#363636" stop-color="#000000"/>
</svg>
