<svg width="16px" height="16px" version="1.1" viewBox="0 0 16 16" xmlns="http://www.w3.org/2000/svg">
 <path d="m5 0c-1.662 0-3 1.338-3 3v10c0 1.662 1.338 3 3 3h6c1.662 0 3-1.338 3-3v-7.584-1.416l-4-4h-1.0703-3.9297zm0 1h4.5859l3.4141 3.416v8.584c0 1.108-0.892 2-2 2h-3-3c-1.108 0-2-0.892-2-2v-10c0-1.108 0.892-2 2-2zm-0.99414 5.9297c-0.0037495 0.04075-0.0058594 0.07025-0.0058594 0.070312 0-0.023768 0.0054369-0.046613 0.0058594-0.070312zm-0.0058594 0.070312v1.0078h2v-0.0078125h-1a1.0001 1.0001 0 0 1-1-1zm7.998-0.054688c0.005018 0.35264-0.037012 0.70682-0.12695 1.0547h0.125l0.003906-1s9.74e-4 -0.019617-0.001953-0.054688zm-7.998 2.0586v1.9961h2v-1.9961h-2zm4 0v0.81641a1.0001 1.0001 0 0 1 0.42188-0.81641h-0.42188zm3.4492 0c-0.35724 0.57494-0.87423 1.0123-1.4492 1.3535v0.64258 0.003906 0.99609 1 0.99609l1 0.003906s1 0 1-1v-1-0.99609-0.003906-1-0.99609h-0.55078zm-7.4492 3v0.99609s0 1 1 1l1 0.003906v-1.0039-0.99609h-2z" fill="#363636" opacity=".35"/>
 <path d="m8.1523 4.0078c-0.4375-0.023437-0.88281 0.046876-1.3008 0.22266-1.1172 0.46094-1.8516 1.5586-1.8516 2.7695h2c0-0.40625 0.24219-0.76953 0.61719-0.92188 0.375-0.15625 0.80078-0.074219 1.0898 0.21484 0.28906 0.28906 0.37109 0.71484 0.21484 1.0898s-0.51562 0.61719-0.92188 0.61719c-0.55078 0-1 0.44922-1 1v2h2v-1.1797c0.78516-0.28125 1.4414-0.875 1.7695-1.6719 0.46484-1.1172 0.20703-2.4141-0.64844-3.2695-0.53516-0.53516-1.2422-0.83594-1.9688-0.87109zm-0.15234 7.9922c-0.55078 0-1 0.44922-1 1s0.44922 1 1 1 1-0.44922 1-1-0.44922-1-1-1z" fill="#363636"/>
</svg>
