<svg width="16px" height="16px" version="1.1" viewBox="0 0 16 16" xmlns="http://www.w3.org/2000/svg">
 <g fill="#363636">
  <path d="m9.8594 4.998c-1.4405 0.049185-2.4911 2.002-3.8594 2.002-1.2951 0-2.5219-0.84077-2.7168-0.98047l-0.2832 1.9805s0 3 5 3 5-3 5-3l-0.31055-2.1738c-0.51418-0.27078-1.5947-0.76824-2.6895-0.82617-0.047302-0.0025031-0.094158-0.0035397-0.14062-0.0019531z" opacity=".35" stroke-linecap="round" stroke-width="4"/>
  <g>
   <path d="m3.1328 0-1.1328 7.9297v0.070312s0.022525 1.1387 0.85742 2.1406c0.8349 1.0019 2.4426 1.8594 5.1426 1.8594s4.3077-0.8575 5.1426-1.8594c0.8349-1.0019 0.85742-2.1406 0.85742-2.1406v-0.070312l-1.1328-7.9297h-9.7344zm0.86719 1h8l1 7s0 3-5 3-5-3-5-3l1-7z" stop-color="#000000" stroke-linecap="round"/>
   <path d="m9.8418 4.498c-0.94164 0.032152-1.6379 0.63629-2.252 1.1309-0.61403 0.49457-1.1436 0.87109-1.5898 0.87109-1.0787 0-2.266-0.77224-2.4258-0.88672a0.5 0.5 0 0 0-0.69727 0.11523 0.5 0.5 0 0 0 0.11523 0.69727c0.23013 0.16491 1.4963 1.0742 3.0078 1.0742 0.92201 0 1.6033-0.59964 2.2168-1.0938 0.61346-0.49411 1.1613-0.89117 1.6602-0.9082 0.027587-9.42e-4 0.058526-1.42e-5 0.095703 0.0019531 0.96127 0.050868 2.0023 0.51567 2.4844 0.76953a0.5 0.5 0 0 0 0.67578-0.21094 0.5 0.5 0 0 0-0.21094-0.67578c-0.54631-0.28769-1.6663-0.81782-2.8945-0.88281-0.057428-0.0030389-0.1202-0.0041844-0.18555-0.0019531z" stop-color="#000000" stroke-linecap="round" stroke-linejoin="round"/>
   <rect x="7.5" y="11" width="1" height="5"/>
   <rect x="4" y="15" width="8" height="1"/>
  </g>
 </g>
</svg>
