<svg width="16px" height="16px" version="1.1" viewBox="0 0 16 16" xmlns="http://www.w3.org/2000/svg">
 <g fill="#363636" stroke-linecap="round" stroke-linejoin="round">
  <path d="m2 1v10h1v-10h-1zm0 11v3h1v-3h-1z"/>
  <path d="m13 1v10h1v-10h-1zm0 11v3h1v-3h-1z"/>
  <path d="m7.5 1v3h1v-3h-1zm0 4v10h1v-10h-1z"/>
  <g stroke-width=".75">
   <path d="m2.5 10a1.5 1.5 0 0 0-1.5 1.5 1.5 1.5 0 0 0 1.5 1.5 1.5 1.5 0 0 0 1.5-1.5 1.5 1.5 0 0 0-1.5-1.5zm0 1a0.5 0.5 0 0 1 0.5 0.5 0.5 0.5 0 0 1-0.5 0.5 0.5 0.5 0 0 1-0.5-0.5 0.5 0.5 0 0 1 0.5-0.5z"/>
   <path d="M 8,3 A 1.5,1.5 0 0 0 6.5,4.5 1.5,1.5 0 0 0 8,6 1.5,1.5 0 0 0 9.5,4.5 1.5,1.5 0 0 0 8,3 Z M 8,4 A 0.5,0.5 0 0 1 8.5,4.5 0.5,0.5 0 0 1 8,5 0.5,0.5 0 0 1 7.5,4.5 0.5,0.5 0 0 1 8,4 Z"/>
   <path d="m13.5 10a1.5 1.5 0 0 0-1.5 1.5 1.5 1.5 0 0 0 1.5 1.5 1.5 1.5 0 0 0 1.5-1.5 1.5 1.5 0 0 0-1.5-1.5zm0 1a0.5 0.5 0 0 1 0.5 0.5 0.5 0.5 0 0 1-0.5 0.5 0.5 0.5 0 0 1-0.5-0.5 0.5 0.5 0 0 1 0.5-0.5z"/>
  </g>
 </g>
</svg>
