<svg width="16px" height="16px" version="1.1" viewBox="0 0 16 16" xmlns="http://www.w3.org/2000/svg">
 <g fill="#363636">
  <path d="m8 6a2 2 0 0 0-2 2 2 2 0 0 0 2 2 2 2 0 0 0 2-2 2 2 0 0 0-2-2zm0 1a1 1 0 0 1 1 1 1 1 0 0 1-1 1 1 1 0 0 1-1-1 1 1 0 0 1 1-1z" style="font-variation-settings:'wght' 700"/>
  <g stroke-linecap="round" stroke-width="3.055">
   <rect transform="matrix(-.86603 .5 .5 .86603 0 0)" x="-6.4282" y="4.866" width="7" height=".99999" rx="0" ry="0"/>
   <rect transform="matrix(.86603 .5 -.5 .86603 0 0)" x="7.4282" y="-3.134" width="7" height=".99999" rx="0" ry="0"/>
   <rect transform="matrix(.86603 -.5 -.5 -.86603 0 0)" x="-.57153" y="-16.99" width="7" height=".99999" rx="0" ry="0"/>
   <rect transform="matrix(-.86603 -.5 .5 -.86603 0 0)" x="-14.428" y="-8.9901" width="7" height=".99999" rx="0" ry="0"/>
  </g>
 </g>
</svg>
