<svg width="16px" height="16px" version="1.1" viewBox="0 0 16 16" xmlns="http://www.w3.org/2000/svg">
  <defs>
    <style id="current-color-scheme" type="text/css">
        .ColorScheme-Text {
            color:#363636;
        }</style>
  </defs>
 <path d="m4 0c-1.108 0-2 0.892-2 2v12c0 1.108 0.892 2 2 2h8c1.108 0 2-0.892 2-2v-12c0-1.108-0.892-2-2-2h-8zm0 1h8c0.554 0 1 0.446 1 1v12c0 0.554-0.446 1-1 1h-8c-0.554 0-1-0.446-1-1v-12c0-0.554 0.446-1 1-1z" class="ColorScheme-Text" fill="currentColor"/>
 <rect x="5" y="13" width="6" height="1" rx=".5" ry=".5" class="ColorScheme-Text" fill="currentColor"/>
</svg>
