<svg width="16px" height="16px" version="1.1" viewBox="0 0 16 16" xmlns="http://www.w3.org/2000/svg">
 <path d="m8.0156 0.015625c-0.85156 0-1.6992 0.32812-2.3516 0.97656l-4.6719 4.6719c-1.3008 1.3008-1.3008 3.4023 0 4.7031l4.6719 4.6719c1.3008 1.3008 3.4023 1.3008 4.6992 0l4.6758-4.6719c1.3008-1.3008 1.3008-3.4023 0-4.7031l-4.6758-4.6719c-0.64844-0.64844-1.4961-0.97656-2.3477-0.97656zm-0.015625 0.98438c0.59468 0 1.181 0.22394 1.6406 0.68359l4.6758 4.6738c0.91998 0.91998 0.91998 2.3652 0 3.2852l-4.6758 4.6738c-0.91546 0.91829-2.3632 0.91998-3.2832 0l-4.6738-4.6719c-0.91998-0.91998-0.91998-2.3691 0-3.2891l4.6699-4.6699c0.46479-0.462 1.0518-0.68555 1.6465-0.68555z" fill="#363636"/>
 <path class="ColorScheme-Text" d="m10.611 1.2402c-0.033001 0.0014256-0.069412 0.0086597-0.10742 0.021484-0.36559 0.12329-0.27939 0.43546-0.22266 1.2559a6.9121 6.8773 0 0 0-0.70898 0.29297c-0.56773-0.68407-0.76145-0.92346-1.0352-0.72656-0.30876 0.22213-0.14432 0.4984 0.14453 1.2422a6.9121 6.8773 0 0 0-0.61719 0.47266c-0.71545-0.52763-0.96155-0.7098-1.1797-0.45312-0.24763 0.29127-0.015601 0.51431 0.44922 1.1758a6.9121 6.8773 0 0 0-0.46484 0.60156c-0.74985-0.27814-1.0277-0.44003-1.2461-0.12891-0.19323 0.27516 0.046131 0.46702 0.73633 1.0215a6.9121 6.8773 0 0 0-0.29688 0.71289c-0.7889-0.07457-1.097-0.15818-1.2266 0.19727-0.11408 0.31278 0.16369 0.43952 0.95703 0.78906a6.9121 6.8773 0 0 0-0.097656 0.75391c-0.77777 0.15025-1.099 0.15573-1.123 0.5332-0.020826 0.32783 0.27909 0.37338 1.1133 0.48242a6.9121 6.8773 0 0 0 0.10938 0.80273c-0.71466 0.31243-1.0207 0.39277-0.96094 0.76367 0.05321 0.33031 0.35857 0.30159 1.2324 0.2207a6.9121 6.8773 0 0 0 0.30859 0.74219c-0.60932 0.47117-0.88632 0.62557-0.73828 0.96875 0.13308 0.30851 0.42484 0.20444 1.2598-0.089844a6.9121 6.8773 0 0 0 0.45117 0.58398c-0.45954 0.67322-0.68985 0.90041-0.4375 1.1895 0.22011 0.25216 0.46416 0.066049 1.1621-0.46289a6.9121 6.8773 0 0 0 0.61914 0.47461c-0.27971 0.77686-0.44941 1.057-0.13086 1.2754 0.0067024 0.004597 0.012926 0.009577 0.019531 0.013672 0.15197-0.026214 0.30335-0.063823 0.45117-0.11133 0.14045-0.13395 0.31323-0.35161 0.55469-0.65625l-0.13672-0.080078a6.9121 6.8773 0 0 0 0.54102 0.24219c0.13028-0.096906 0.25491-0.20377 0.37305-0.32227l0.60938-0.60742c-0.071462-0.075593-0.13317-0.16297-0.17773-0.26172-0.10057-0.24588-0.17043-0.51977-0.050781-0.77148 0.37086-0.78425 1.0062-1.7686 1.4863-2.5586 0.0808-0.13294 0.2122-0.22873 0.27734-0.24219 0.2885-0.14773 0.70411-0.11344 0.95117-0.32226 0.44346-0.30445 0.38058-0.57232 0.8125-0.63672 0.4407-0.010189 0.88609-0.014881 1.3281-0.013672 0.21058-0.37989 0.34027-0.79313 0.39062-1.2129-0.55642-8.818e-4 -1.1277-0.016093-1.627-0.021484-0.15582-0.0017-0.30286-0.064211-0.34766-0.11328-0.27434-0.17249-0.45968-0.54656-0.76562-0.65234-0.48844-0.22576-0.6874-0.03694-0.96289-0.375-0.50749-0.81224-0.99654-1.6459-1.4473-2.4746-0.32656-0.56714-0.11326-1.1375 0.37891-1.4434 0.19257-0.14903 0.60148-0.20914 1.0605-0.2168 0.068988-0.0011531 0.13823-0.0011335 0.20898 0l-0.91992-0.91797a6.9121 6.8773 0 0 0-0.29102 0.050781c-0.10389-0.25013-0.18722-0.44978-0.26172-0.60352-2.82e-4 -5.819e-4 2.82e-4 -0.0013725 0-0.0019531l-0.4043-0.40234zm-1.7422 3.623c0.039842-0.0012299 0.08053 0.0017681 0.12109 0.0058594 0.26373 0.036046 0.53467 0.11059 0.69336 0.33984 0.49534 0.71256 1.0309 1.7567 1.4766 2.5664 0.075 0.13628 0.093136 0.29636 0.072266 0.35938-0.01602 0.32314-0.25112 0.6665-0.19336 0.98438 0.042551 0.53538 0.30458 0.61415 0.14453 1.0195-0.46031 0.83976-0.95048 1.6762-1.4531 2.4746-0.33503 0.5622-0.93465 0.65271-1.4434 0.375-0.59911-0.25136-1.4061-2.1354-1.459-2.6465-0.28925-1.3085-0.24435-2.6949 0.71875-4.3945 0.17936-0.31653 0.37693-0.58313 0.58789-0.77148 0.19564-0.17056 0.45544-0.30378 0.73438-0.3125zm3.7031 3.5645a0.57136 0.57144 0 0 1 0.57031 0.57227 0.57136 0.57144 0 0 1-0.57031 0.57227 0.57136 0.57144 0 0 1-0.57227-0.57227 0.57136 0.57144 0 0 1 0.57227-0.57227z" fill="#363636"/>
</svg>
