<svg width="16" height="16" version="1.1" xmlns="http://www.w3.org/2000/svg">
 <g fill="#363636">
  <path d="m12 5.5-4.5 2.5 4.5 2.5v-5zm-1 1.7012v1.5977l-1.4395-0.79883 1.4395-0.79883z"/>
  <path d="m2 3c-1.108 0-2 0.892-2 2v6c0 1.108 0.892 2 2 2h2v-1h-2c-0.554 0-1-0.446-1-1v-6c0-0.554 0.446-1 1-1h2v-1h-2zm10 0v1h2c0.554 0 1 0.446 1 1v6c0 0.554-0.446 1-1 1h-2v1h2c1.108 0 2-0.892 2-2v-6c0-1.108-0.892-2-2-2h-2z"/>
  <path d="m5 6a2 2 0 0 0-2 2 2 2 0 0 0 2 2 2 2 0 0 0 2-2 2 2 0 0 0-2-2zm0 1a1 1 0 0 1 1 1 1 1 0 0 1-1 1 1 1 0 0 1-1-1 1 1 0 0 1 1-1z"/>
 </g>
</svg>
