<svg width="64" height="64" version="1.1" viewBox="0 0 16.933 16.933" xmlns="http://www.w3.org/2000/svg">
 <defs>
  <filter id="filter9" x="-.0065174" y="-.075603" width="1.013" height="1.1512" color-interpolation-filters="sRGB">
   <feGaussianBlur stdDeviation="0.041672346"/>
  </filter>
  <filter id="filter11" x="-.0069629" y="-.043386" width="1.0139" height="1.0868" color-interpolation-filters="sRGB">
   <feGaussianBlur stdDeviation="0.044522292"/>
  </filter>
  <filter id="filter12" x="-.03226" y="-.045842" width="1.0645" height="1.0917" color-interpolation-filters="sRGB">
   <feGaussianBlur stdDeviation="0.13691812"/>
  </filter>
  <linearGradient id="a" x1="8.466" x2="8.466" y1="12.7" y2="2.381" gradientUnits="userSpaceOnUse">
   <stop offset="0"/>
   <stop stop-opacity="0" offset="1"/>
  </linearGradient>
  <linearGradient id="c" x1="8.467" x2="8.467" y1="4.498" y2="14.552" gradientUnits="userSpaceOnUse">
   <stop stop-color="#fff" offset="0"/>
   <stop offset="1"/>
  </linearGradient>
 </defs>
 <g id="folder">
  <path d="m1.945 2.381h2.965c0.75 0 0.904 0.084 1.27 0.63 0.297 0.441 0.84 0.429 1.756 0.429h7.05a1.146 1.146 0 0 1 1.152 1.152v6.956a1.15 1.15 0 0 1-1.152 1.152h-13.042a1.15 1.15 0 0 1-1.15-1.152v-8.015a1.15 1.15 0 0 1 1.15-1.152z" fill="#686868"/>
  <path d="m1.945 2.381h2.965c0.75 0 0.904 0.084 1.27 0.63 0.297 0.441 0.84 0.429 1.756 0.429h7.05a1.146 1.146 0 0 1 1.152 1.152v6.956a1.15 1.15 0 0 1-1.152 1.152h-13.042a1.15 1.15 0 0 1-1.15-1.152v-8.015a1.15 1.15 0 0 1 1.15-1.152z" fill="url(#a)"/>
  <rect x="1.3229" y="3.9687" width="14.287" height="10.054" rx=".52916" ry=".52916" fill="none" filter="url(#filter12)" opacity=".1" stroke="#000000" stroke-width=".26458"/>
  <rect x="1.3229" y="3.9687" width="14.287" height="10.054" rx=".52916" ry=".52916" fill="#ffffff" stroke-width=".9649"/>
  <rect x=".794" y="4.498" width="15.346" height="10.054" rx="1.058" ry="1.058" fill="#686868"/>
  <rect x=".793" y="4.498" width="15.346" height="10.054" rx="1.058" ry="1.058" fill="url(#c)" opacity=".15"/>
  <path d="m1.852 4.4978c-0.5863 0-1.0583 0.47201-1.0583 1.0583v0.26458c0-0.5863 0.47201-1.0583 1.0583-1.0583h13.229c0.5863 0 1.0583 0.47201 1.0583 1.0583v-0.26458c0-0.5863-0.47201-1.0583-1.0583-1.0583z" fill="#ffffff" filter="url(#filter9)" opacity=".15"/>
  <path transform="matrix(1,0,0,-1,0,19.05)" d="m1.852 4.4978c-0.5863 0-1.0583 0.47201-1.0583 1.0583v0.26458c0-0.5863 0.47201-1.0583 1.0583-1.0583h13.229c0.5863 0 1.0583 0.47201 1.0583 1.0583v-0.26458c0-0.5863-0.47201-1.0583-1.0583-1.0583z" fill="#000000" filter="url(#filter9)" opacity=".1"/>
  <path d="m1.944 2.3812c-0.6363-6e-4 -1.1519 0.51554-1.1508 1.1518v0.26044c0.001104-0.63442 0.51587-1.1483 1.1508-1.1477h2.9672c0.75 0 0.90392 0.083623 1.2707 0.62992 0.2962 0.44122 0.83942 0.42839 1.7554 0.42839h7.0501c0.63356-0.00333 1.1486 0.50792 1.1518 1.14v-0.25269c0.0033-0.63761-0.51424-1.1552-1.1518-1.1518h-7.0501c-0.91599 0-1.4592 0.012831-1.7554-0.42839-0.36678-0.5463-0.5207-0.62992-1.2707-0.62992h-2.9672z" fill="#ffffff" filter="url(#filter11)" opacity=".25"/>
 </g>
 <path d="M10.726 6.197h-.027l-3.455.591c-.074.013-.135.06-.135.135v3.99c-.055.32-.6.192-.978.22-.454.06-.67.582-.56.966.088.285.361.5.757.539.415.044 1.12-.068 1.2-.966l.003.003v-3.51l2.875-.492v2.645c-.065.306-.602.181-.975.209-.455.06-.671.582-.561.966.089.285.362.5.758.539.408.043 1.094-.065 1.193-.92l.008-.007v-.307l.005-4.464c0-.066-.047-.13-.108-.136z" opacity=".15"/>
 <path d="m10.699 6.1969-3.455 0.59117c-0.074 0.013-0.13487 0.059873-0.13487 0.13487v0.15296c0-0.075 0.060873-0.12187 0.13487-0.13487l3.455-0.59117h0.026871v0.0010335c0.058437 0.0057479 0.10427 0.064667 0.108 0.12764v-0.14469c0-0.066-0.047002-0.12991-0.108-0.13591v-0.0010335h-0.026871zm-0.293 4.1211c-0.065 0.306-0.60211 0.18077-0.97511 0.20877-0.40441 0.053329-0.61978 0.47205-0.58548 0.83404 0.029198-0.31822 0.23721-0.63516 0.58548-0.68108 0.373-0.028 0.91011 0.097231 0.97511-0.20877v-0.15296zm-3.2969 0.59478c-0.055 0.32-0.60022 0.19214-0.97822 0.22014-0.4035 0.053327-0.61873 0.47155-0.58445 0.83352 0.029177-0.3182 0.23696-0.63464 0.58445-0.68056 0.378-0.028 0.92322 0.099862 0.97822-0.22014v-0.15296z" fill="#000000" opacity=".15"/>
 <path d="m10.406 7.6728-2.8747 0.49247v0.15348l2.8747-0.49195v-0.15399zm0.42322 3.4323-0.008268 0.006717c-0.099 0.855-0.78467 0.96334-1.1927 0.92034-0.396-0.039-0.66908-0.25398-0.75808-0.53898-0.012202-0.042596-0.020506-0.087116-0.024804-0.13229-0.0089936 0.097618-0.0010252 0.1956 0.024804 0.28576 0.089 0.285 0.36208 0.49998 0.75808 0.53898 0.408 0.043 1.0937-0.064823 1.1927-0.91982l0.008268-0.007234v-0.15348zm-3.301 0.56688c-0.08 0.898-0.7849 1.0103-1.1999 0.96633-0.396-0.039-0.66904-0.25449-0.75704-0.53949-0.012208-0.042616-0.020506-0.086578-0.024804-0.13177-0.0089897 0.097638-0.0010307 0.19558 0.024804 0.28576 0.088 0.285 0.36104 0.49997 0.75704 0.53897 0.415 0.044 1.1199-0.06833 1.1999-0.96633l0.0031005 0.003101v-0.15348l-0.0031005-0.003101z" fill="#ffffff" opacity=".2"/>
</svg>
