<svg xmlns="http://www.w3.org/2000/svg" width="64" height="64"><defs><linearGradient id="a" x1="8.466" x2="8.466" y1="12.7" y2="2.381" gradientUnits="userSpaceOnUse"><stop offset="0"/><stop offset="1" stop-opacity="0"/></linearGradient><linearGradient id="b" x1="8.467" x2="8.467" y1="3.969" y2="4.498" gradientUnits="userSpaceOnUse"><stop offset="0" stop-color="#fff"/><stop offset="1" stop-color="#c9d0d3"/></linearGradient><linearGradient id="c" x1="8.467" x2="8.467" y1="4.498" y2="14.552" gradientUnits="userSpaceOnUse"><stop offset="0" stop-color="#fff"/><stop offset="1"/></linearGradient></defs><g transform="scale(3.7796)"><path fill="#686868" d="M1.945 2.381H4.91c.75 0 .904.084 1.27.63.297.441.84.429 1.756.429h7.05a1.146 1.146 0 0 1 1.152 1.152v6.956a1.15 1.15 0 0 1-1.152 1.152H1.944a1.15 1.15 0 0 1-1.15-1.152V3.533a1.15 1.15 0 0 1 1.15-1.152z"/><path fill="url(#a)" d="M1.945 2.381H4.91c.75 0 .904.084 1.27.63.297.441.84.429 1.756.429h7.05a1.146 1.146 0 0 1 1.152 1.152v6.956a1.15 1.15 0 0 1-1.152 1.152H1.944a1.15 1.15 0 0 1-1.15-1.152V3.533a1.15 1.15 0 0 1 1.15-1.152z" style="fill:url(#a)"/><rect width="14.287" height="10.054" x="1.323" y="3.969" fill="url(#b)" rx=".529" ry=".529" style="fill:url(#b)"/><rect width="15.346" height="10.054" x=".794" y="4.498" fill="#686868" rx="1.058" ry="1.058"/><path d="M.794 13.365v.128c0 .586.472 1.058 1.058 1.058h13.229c.586 0 1.058-.472 1.058-1.058v-.128c0 .586-.472 1.058-1.058 1.058H1.852a1.056 1.056 0 0 1-1.058-1.058" opacity=".1"/><path fill="#fff" d="M.794 5.684v-.128c0-.586.472-1.058 1.058-1.058h13.229c.586 0 1.058.472 1.058 1.058v.128c0-.586-.472-1.058-1.058-1.058H1.852c-.586 0-1.058.472-1.058 1.058" opacity=".2"/><rect width="15.346" height="10.054" x=".794" y="4.498" fill="url(#c)" opacity=".15" rx="1.058" ry="1.058" style="fill:url(#c)"/></g><path d="M31.923 26a2.52 2.52 0 0 0-2.441 2.536 2.54 2.54 0 0 0 1.319 2.222l-3.244 2.89-.25.214-.253-.214-3.243-2.889a2.54 2.54 0 0 0 1.319-2.222A2.52 2.52 0 0 0 22.677 26h-.142a2.52 2.52 0 0 0-2.442 2.536 2.54 2.54 0 0 0 1.319 2.222l-3.244 2.89-.151 2.07 2.575-1.914-.272 3.114-2.656 9.079h1.969l2.971-7.637.014-.001 2.972 7.638h1.97v-.001h1.461l2.972-7.637h.014l2.972 7.638h3.43l2.972-7.636h.014L44.367 46h1.97l-2.657-9.08-.272-3.114 2.575 1.916-.151-2.072-3.244-2.889a2.54 2.54 0 0 0 1.319-2.222 2.52 2.52 0 0 0-2.453-2.536h-.142a2.52 2.52 0 0 0-2.442 2.536 2.54 2.54 0 0 0 1.32 2.222l-3.244 2.89v-.001l-.251.214-.252-.214-3.243-2.889a2.54 2.54 0 0 0 1.318-2.222 2.52 2.52 0 0 0-2.453-2.536zm-1.943 7.804-.271 3.114-2.404 8.213-2.402-8.212-.272-3.114 2.575 1.915.1.063.1-.064zm4.04 0 2.574 1.915.1.064.1-.065v.001l2.574-1.915-.27 3.114-2.404 8.212-2.403-8.212z" opacity=".15"/></svg>