<svg width="64" height="64" version="1.1" viewBox="0 0 16.933 16.933" xmlns="http://www.w3.org/2000/svg">
 <defs>
  <filter id="filter9" x="-.0065174" y="-.075603" width="1.013" height="1.1512" color-interpolation-filters="sRGB">
   <feGaussianBlur stdDeviation="0.041672346"/>
  </filter>
  <filter id="filter11" x="-.0069629" y="-.043386" width="1.0139" height="1.0868" color-interpolation-filters="sRGB">
   <feGaussianBlur stdDeviation="0.044522292"/>
  </filter>
  <filter id="filter12" x="-.03226" y="-.045842" width="1.0645" height="1.0917" color-interpolation-filters="sRGB">
   <feGaussianBlur stdDeviation="0.13691812"/>
  </filter>
  <linearGradient id="a" x1="8.466" x2="8.466" y1="12.7" y2="2.381" gradientUnits="userSpaceOnUse">
   <stop offset="0"/>
   <stop stop-opacity="0" offset="1"/>
  </linearGradient>
  <linearGradient id="c" x1="8.467" x2="8.467" y1="4.498" y2="14.552" gradientUnits="userSpaceOnUse">
   <stop stop-color="#fff" offset="0"/>
   <stop offset="1"/>
  </linearGradient>
 </defs>
 <g id="folder">
  <path d="m1.945 2.381h2.965c0.75 0 0.904 0.084 1.27 0.63 0.297 0.441 0.84 0.429 1.756 0.429h7.05a1.146 1.146 0 0 1 1.152 1.152v6.956a1.15 1.15 0 0 1-1.152 1.152h-13.042a1.15 1.15 0 0 1-1.15-1.152v-8.015a1.15 1.15 0 0 1 1.15-1.152z" fill="#686868"/>
  <path d="m1.945 2.381h2.965c0.75 0 0.904 0.084 1.27 0.63 0.297 0.441 0.84 0.429 1.756 0.429h7.05a1.146 1.146 0 0 1 1.152 1.152v6.956a1.15 1.15 0 0 1-1.152 1.152h-13.042a1.15 1.15 0 0 1-1.15-1.152v-8.015a1.15 1.15 0 0 1 1.15-1.152z" fill="url(#a)"/>
  <rect x="1.3229" y="3.9687" width="14.287" height="10.054" rx=".52916" ry=".52916" fill="none" filter="url(#filter12)" opacity=".1" stroke="#000000" stroke-width=".26458"/>
  <rect x="1.3229" y="3.9687" width="14.287" height="10.054" rx=".52916" ry=".52916" fill="#ffffff" stroke-width=".9649"/>
  <rect x=".794" y="4.498" width="15.346" height="10.054" rx="1.058" ry="1.058" fill="#686868"/>
  <rect x=".793" y="4.498" width="15.346" height="10.054" rx="1.058" ry="1.058" fill="url(#c)" opacity=".15"/>
  <path d="m1.852 4.4978c-0.5863 0-1.0583 0.47201-1.0583 1.0583v0.26458c0-0.5863 0.47201-1.0583 1.0583-1.0583h13.229c0.5863 0 1.0583 0.47201 1.0583 1.0583v-0.26458c0-0.5863-0.47201-1.0583-1.0583-1.0583z" fill="#ffffff" filter="url(#filter9)" opacity=".15"/>
  <path transform="matrix(1,0,0,-1,0,19.05)" d="m1.852 4.4978c-0.5863 0-1.0583 0.47201-1.0583 1.0583v0.26458c0-0.5863 0.47201-1.0583 1.0583-1.0583h13.229c0.5863 0 1.0583 0.47201 1.0583 1.0583v-0.26458c0-0.5863-0.47201-1.0583-1.0583-1.0583z" fill="#000000" filter="url(#filter9)" opacity=".1"/>
  <path d="m1.944 2.3812c-0.6363-6e-4 -1.1519 0.51554-1.1508 1.1518v0.26044c0.001104-0.63442 0.51587-1.1483 1.1508-1.1477h2.9672c0.75 0 0.90392 0.083623 1.2707 0.62992 0.2962 0.44122 0.83942 0.42839 1.7554 0.42839h7.0501c0.63356-0.00333 1.1486 0.50792 1.1518 1.14v-0.25269c0.0033-0.63761-0.51424-1.1552-1.1518-1.1518h-7.0501c-0.91599 0-1.4592 0.012831-1.7554-0.42839-0.36678-0.5463-0.5207-0.62992-1.2707-0.62992h-2.9672z" fill="#ffffff" filter="url(#filter11)" opacity=".25"/>
 </g>
 <path d="m8.4653 12.434c1.5951 0 2.9118-1.3166 2.9118-2.909 0-1.5923-1.3194-2.909-2.9146-2.909-1.5923 0-2.9061 1.3166-2.9061 2.909 0 1.5923 1.3166 2.909 2.9089 2.909zm0-0.57956c-1.2913 0-2.3238-1.0381-2.3238-2.3294 0-1.2913 1.0325-2.3266 2.321-2.3266 1.2913 0 2.3294 1.0353 2.3322 2.3266 0.0028 1.2913-1.0381 2.3294-2.3294 2.3294zm-1.4179-1.9749h1.4151c0.12941 0 0.22787-0.09846 0.22787-0.22506v-1.8399c0-0.1266-0.09846-0.22507-0.22787-0.22507-0.12378 0-0.22224 0.098467-0.22224 0.22507v1.6148h-1.1928c-0.1266 0-0.22506 0.09846-0.22506 0.22506 0 0.1266 0.098467 0.22506 0.22506 0.22506z" fill="#000000" opacity=".15" stroke-width=".32009"/>
 <path d="m8.4624 6.616c-1.5923 0-2.9062 1.3165-2.9062 2.9088 0 0.022706 5.011e-4 0.045104 0.0010335 0.067695 0.036765-1.5616 1.3356-2.8406 2.9052-2.8406 1.5724 0 2.8771 1.2795 2.914 2.8411 5.33e-4 -0.022614 5.16e-4 -0.045482 5.16e-4 -0.068212 0-1.5923-1.3194-2.9088-2.9145-2.9088zm0 0.97305c-0.12378 0-0.2222 0.098706-0.2222 0.2253v0.13591c0-0.1266 0.098425-0.2253 0.2222-0.2253 0.12941 0 0.22789 0.098706 0.22789 0.2253v-0.13591c0-0.1266-0.098476-0.2253-0.22789-0.2253zm-1.4149 1.8402c-0.1266 0-0.2253 0.098192-0.2253 0.22479 0 0.023812 0.0038357 0.046858 0.010335 0.068212 0.028054-0.09217 0.11219-0.15709 0.21497-0.15709h1.1927v-0.13591h-1.1927zm-0.90484 0.16381c-6.362e-4 0.022578-0.0010335 0.044954-0.0010335 0.067695 0 1.2913 1.0325 2.3295 2.3238 2.3295 1.2913 0 2.3323-1.0382 2.3295-2.3295-4.6e-5 -0.021032-4.42e-4 -0.042152-0.001033-0.063044-0.035752 1.2572-1.0616 2.2567-2.3285 2.2567-1.2686 0-2.2873-1.0017-2.3228-2.2613z" fill="#000000" opacity=".15" stroke-width=".32009"/>
 <path d="m8.4624 7.1984c-1.2885 0-2.3207 1.0351-2.3207 2.3264 0 0.022756 3.965e-4 0.045618 0.0010335 0.068212 0.035511-1.2594 1.0539-2.2587 2.3197-2.2587 1.2703 0 2.2958 1.0015 2.3316 2.2634 6.91e-4 -0.024279 0.001086-0.048396 0.001033-0.072862-0.002818-1.2913-1.0413-2.3264-2.3326-2.3264zm-2.9052 2.3946c-5.331e-4 0.022629-0.0010335 0.04495-0.0010335 0.067695 0 1.5923 1.317 2.9093 2.9093 2.9093 1.5951 0 2.9114-1.317 2.9114-2.9093 0-0.02272 1.8e-5 -0.04509-5.16e-4 -0.067695-0.036867 1.5616-1.3385 2.8406-2.9109 2.8406-1.5696 0-2.8715-1.279-2.9083-2.8406zm3.1331 0.060977c0 0.1266-0.098476 0.2253-0.22789 0.2253h-1.4149c-0.10277 0-0.1869-0.064946-0.21497-0.15709-0.0065079 0.021366-0.010335 0.044383-0.010335 0.068212 0 0.1266 0.09871 0.22479 0.2253 0.22479h1.4149c0.12941 0 0.22789-0.098192 0.22789-0.22479v-0.13642z" fill="#ffffff" opacity=".2" stroke-width=".32009"/>
</svg>
