<svg xmlns="http://www.w3.org/2000/svg" width="64" height="64"><defs><linearGradient id="a" x1="8.466" x2="8.466" y1="12.7" y2="2.381" gradientUnits="userSpaceOnUse"><stop offset="0"/><stop offset="1" stop-opacity="0"/></linearGradient><linearGradient id="b" x1="8.467" x2="8.467" y1="3.969" y2="4.498" gradientUnits="userSpaceOnUse"><stop offset="0" stop-color="#fff"/><stop offset="1" stop-color="#c9d0d3"/></linearGradient><linearGradient id="c" x1="8.467" x2="8.467" y1="4.498" y2="14.552" gradientUnits="userSpaceOnUse"><stop offset="0" stop-color="#fff"/><stop offset="1"/></linearGradient></defs><g transform="scale(3.7796)"><path fill="#686868" d="M1.945 2.381H4.91c.75 0 .904.084 1.27.63.297.441.84.429 1.756.429h7.05a1.146 1.146 0 0 1 1.152 1.152v6.956a1.15 1.15 0 0 1-1.152 1.152H1.944a1.15 1.15 0 0 1-1.15-1.152V3.533a1.15 1.15 0 0 1 1.15-1.152z"/><path fill="url(#a)" d="M1.945 2.381H4.91c.75 0 .904.084 1.27.63.297.441.84.429 1.756.429h7.05a1.146 1.146 0 0 1 1.152 1.152v6.956a1.15 1.15 0 0 1-1.152 1.152H1.944a1.15 1.15 0 0 1-1.15-1.152V3.533a1.15 1.15 0 0 1 1.15-1.152z" style="fill:url(#a)"/><rect width="14.287" height="10.054" x="1.323" y="3.969" fill="url(#b)" rx=".529" ry=".529" style="fill:url(#b)"/><rect width="15.346" height="10.054" x=".794" y="4.498" fill="#686868" rx="1.058" ry="1.058"/><path d="M.794 13.365v.128c0 .586.472 1.058 1.058 1.058h13.229c.586 0 1.058-.472 1.058-1.058v-.128c0 .586-.472 1.058-1.058 1.058H1.852a1.056 1.056 0 0 1-1.058-1.058" opacity=".1"/><path fill="#fff" d="M.794 5.684v-.128c0-.586.472-1.058 1.058-1.058h13.229c.586 0 1.058.472 1.058 1.058v.128c0-.586-.472-1.058-1.058-1.058H1.852c-.586 0-1.058.472-1.058 1.058" opacity=".2"/><rect width="15.346" height="10.054" x=".794" y="4.498" fill="url(#c)" opacity=".15" rx="1.058" ry="1.058" style="fill:url(#c)"/></g><path fill-rule="evenodd" d="m29.247 36.412-.804.804v-1.597zm12.282-6.277h.06a.56.56 0 0 1 .427.201c2.509 2.6 3.837 8.244 3.55 12.021a7.6 7.6 0 0 1-.627 2.657c-.385.793-.941 1.313-1.685 1.45-.948.175-2.132-.325-3.556-1.77q-.276-.28-.57-.568a16.5 16.5 0 0 1-1.954-2.172H26.83a16 16 0 0 1-1.96 2.179q-.29.285-.565.56c-1.423 1.45-2.608 1.95-3.556 1.772-.744-.131-1.302-.66-1.687-1.444a7.6 7.6 0 0 1-.626-2.657c-.293-3.802 1.047-9.479 3.593-12.058a.55.55 0 0 1 .394-.166h.062c1.57-2.161 5.093-2.183 6.663 0h1.751c-.135-3.313.784-4.143 2.141-4.236a7 7 0 0 1 1.55.144c1.03.17 2.17.359 2.978-.443a.55.55 0 0 1 .784 0 .554.554 0 0 1 0 .784c-1.211 1.209-2.657.972-3.941.757a6 6 0 0 0-1.304-.13c-.733.048-1.22.664-1.108 3.126h2.859c1.565-2.168 5.093-2.174 6.662 0zm-14.454 3.491v1.475h1.475c1.67 0 1.67 2.524 0 2.524h-1.475V39.1c0 1.67-2.524 1.67-2.524 0v-1.473h-1.475c-1.67 0-1.67-2.524 0-2.524h1.475v-1.476c0-1.67 2.524-1.67 2.524 0m11.531-1.284a1.165 1.165 0 1 1-1.647 0 1.163 1.163 0 0 1 1.647 0m0 5.08a1.165 1.165 0 1 1-1.647 0 1.163 1.163 0 0 1 1.647 0m2.794-2.658a1.165 1.165 0 1 1-1.647 0 1.167 1.167 0 0 1 1.647 0m-5.59 0a1.165 1.165 0 1 1-1.648 0 1.163 1.163 0 0 1 1.648 0m-9.964-1.744.803.803h-1.598l.804-.803zm-3.377 3.392.8.804V35.62l-.804.804zm3.386 3.383.803-.804h-1.607z" class="cls-1" opacity=".15"/></svg>