<svg width="64" height="64" version="1.1" viewBox="0 0 16.933 16.933" xmlns="http://www.w3.org/2000/svg">
 <defs>
  <linearGradient id="linearGradient21" x1="8.4665" x2="8.4665" y1="2.3812" y2="5.6843" gradientUnits="userSpaceOnUse">
   <stop stop-color="#7cc1ea" offset="0"/>
   <stop stop-color="#56a1d3" offset="1"/>
  </linearGradient>
  <filter id="filter12-4" x="-.03226" y="-.045842" width="1.0645" height="1.0917" color-interpolation-filters="sRGB">
   <feGaussianBlur stdDeviation="0.13691812"/>
  </filter>
  <linearGradient id="b" x1="445.28" x2="445.28" y1="179.28" y2="200.07" gradientTransform="matrix(.38956 0 0 .38184 -165.78 -63.432)" gradientUnits="userSpaceOnUse">
   <stop stop-color="#88ccf2" offset="0"/>
   <stop stop-color="#67b1de" offset="1"/>
  </linearGradient>
  <filter id="filter9-7" x="-.0065174" y="-.075603" width="1.013" height="1.1512" color-interpolation-filters="sRGB">
   <feGaussianBlur stdDeviation="0.041672346"/>
  </filter>
  <filter id="filter11-4" x="-.0069629" y="-.043386" width="1.0139" height="1.0868" color-interpolation-filters="sRGB">
   <feGaussianBlur stdDeviation="0.044522292"/>
  </filter>
 </defs>
 <g id="folder">
  <path d="m1.9447 2.3812h2.9665c0.75 0 0.90372 0.0837 1.2705 0.63 0.2962 0.44122 0.83961 0.42831 1.7556 0.42831h7.0499c0.63761-0.00335 1.1553 0.51439 1.152 1.152v6.9562c0.0011 0.63669-0.51531 1.1531-1.152 1.152h-13.043c-0.6363 5.54e-4 -1.1521-0.5157-1.151-1.152v-8.0145c-0.001107-0.6363 0.5147-1.1526 1.151-1.152z" fill="url(#linearGradient21)"/>
  <rect x="1.3229" y="3.9687" width="14.287" height="10.054" rx=".52916" ry=".52916" fill="none" filter="url(#filter12-4)" opacity=".1" stroke="#000000" stroke-width=".26458"/>
  <rect x="1.3229" y="3.9687" width="14.287" height="10.054" rx=".52916" ry=".52916" fill="#ffffff" stroke-width=".9649"/>
  <rect x=".79373" y="4.4978" width="15.346" height="10.054" rx="1.0583" ry="1.0583" fill="url(#b)"/>
  <path d="m1.852 4.4978c-0.5863 0-1.0583 0.47201-1.0583 1.0583v0.26458c0-0.5863 0.47201-1.0583 1.0583-1.0583h13.229c0.5863 0 1.0583 0.47201 1.0583 1.0583v-0.26458c0-0.5863-0.47201-1.0583-1.0583-1.0583z" fill="#ffffff" filter="url(#filter9-7)" opacity=".15"/>
  <path transform="matrix(1,0,0,-1,0,19.05)" d="m1.852 4.4978c-0.5863 0-1.0583 0.47201-1.0583 1.0583v0.26458c0-0.5863 0.47201-1.0583 1.0583-1.0583h13.229c0.5863 0 1.0583 0.47201 1.0583 1.0583v-0.26458c0-0.5863-0.47201-1.0583-1.0583-1.0583z" fill="#000000" filter="url(#filter9-7)" opacity=".1"/>
  <path d="m1.944 2.3812c-0.6363-6e-4 -1.1519 0.51554-1.1508 1.1518v0.26044c0.001104-0.63442 0.51587-1.1483 1.1508-1.1477h2.9672c0.75 0 0.90392 0.083623 1.2707 0.62992 0.2962 0.44122 0.83942 0.42839 1.7554 0.42839h7.0501c0.63356-0.00333 1.1486 0.50792 1.1518 1.14v-0.25269c0.0033-0.63761-0.51424-1.1552-1.1518-1.1518h-7.0501c-0.91599 0-1.4592 0.012831-1.7554-0.42839-0.36678-0.5463-0.5207-0.62992-1.2707-0.62992h-2.9672z" fill="#ffffff" filter="url(#filter11-4)" opacity=".25"/>
 </g>
 <path d="M8.934 6.036a.415.415 0 0 0-.411.205l-2.91 5.041a.415.415 0 1 0 .72.416l2.91-5.041a.416.416 0 0 0-.31-.621zm-.26 5.454a.207.207 0 1 0 0 .416h2.495a.207.207 0 1 0 0-.416z" opacity=".15" style="paint-order:markers stroke fill"/>
 <path d="m8.8799 6.0326a0.415 0.415 0 0 0-0.35708 0.20825l-2.9098 5.0409a0.41577 0.41577 0 0 0-0.049608 0.27853 0.41577 0.41577 0 0 1 0.049608-0.14107l2.9098-5.0409a0.415 0.415 0 0 1 0.4103-0.20515h0.0010335a0.416 0.416 0 0 1 0.35811 0.34209 0.416 0.416 0 0 0-0.35811-0.47903h-0.0010335a0.415 0.415 0 0 0-0.053226-0.0036172zm-0.20567 5.4574a0.208 0.208 0 0 0-0.19688 0.27646 0.208 0.208 0 0 1 0.19688-0.13952h2.4949a0.208 0.208 0 0 1 0.19637 0.13952 0.208 0.208 0 0 0-0.19637-0.27646h-2.4949z" fill="#000000" opacity=".15" style="paint-order:markers stroke fill"/>
 <path d="m9.2923 6.5152a0.416 0.416 0 0 1-0.049092 0.14159l-2.9104 5.0409a0.41577 0.41577 0 0 1-0.76945-0.13797 0.41577 0.41577 0 0 0 0.76945 0.27543l2.9104-5.0415a0.416 0.416 0 0 0 0.049092-0.27853zm-0.81492 5.2513a0.208 0.208 0 0 0 0.19688 0.27646h2.4949a0.208 0.208 0 0 0 0.19637-0.27646 0.208 0.208 0 0 1-0.19637 0.13952h-2.4949a0.208 0.208 0 0 1-0.19688-0.13952z" fill="#ffffff" opacity=".2" style="paint-order:markers stroke fill"/>
</svg>
