<svg width="64" height="64" version="1.1" viewBox="0 0 16.933 16.933" xmlns="http://www.w3.org/2000/svg">
 <defs>
  <linearGradient id="linearGradient21" x1="8.4665" x2="8.4665" y1="2.3812" y2="5.6843" gradientUnits="userSpaceOnUse">
   <stop stop-color="#7cc1ea" offset="0"/>
   <stop stop-color="#56a1d3" offset="1"/>
  </linearGradient>
  <filter id="filter12" x="-.03226" y="-.045842" width="1.0645" height="1.0917" color-interpolation-filters="sRGB">
   <feGaussianBlur stdDeviation="0.13691812"/>
  </filter>
  <linearGradient id="b-1" x1="445.28" x2="445.28" y1="179.28" y2="200.07" gradientTransform="matrix(.38956 0 0 .38184 -165.78 -63.432)" gradientUnits="userSpaceOnUse">
   <stop stop-color="#88ccf2" offset="0"/>
   <stop stop-color="#67b1de" offset="1"/>
  </linearGradient>
  <filter id="filter9" x="-.0065174" y="-.075603" width="1.013" height="1.1512" color-interpolation-filters="sRGB">
   <feGaussianBlur stdDeviation="0.041672346"/>
  </filter>
  <filter id="filter11" x="-.0069629" y="-.043386" width="1.0139" height="1.0868" color-interpolation-filters="sRGB">
   <feGaussianBlur stdDeviation="0.044522292"/>
  </filter>
 </defs>
 <g id="folder">
  <path d="m1.9447 2.3812h2.9665c0.75 0 0.90372 0.0837 1.2705 0.63 0.2962 0.44122 0.83961 0.42831 1.7556 0.42831h7.0499c0.63761-0.00335 1.1553 0.51439 1.152 1.152v6.9562c0.0011 0.63669-0.51531 1.1531-1.152 1.152h-13.043c-0.6363 5.54e-4 -1.1521-0.5157-1.151-1.152v-8.0145c-0.001107-0.6363 0.5147-1.1526 1.151-1.152z" fill="url(#linearGradient21)"/>
  <rect x="1.3229" y="3.9687" width="14.287" height="10.054" rx=".52916" ry=".52916" fill="none" filter="url(#filter12)" opacity=".1" stroke="#000000" stroke-width=".26458"/>
  <rect x="1.3229" y="3.9687" width="14.287" height="10.054" rx=".52916" ry=".52916" fill="#ffffff" stroke-width=".9649"/>
  <rect x=".79373" y="4.4978" width="15.346" height="10.054" rx="1.0583" ry="1.0583" fill="url(#b-1)"/>
  <path d="m1.852 4.4978c-0.5863 0-1.0583 0.47201-1.0583 1.0583v0.26458c0-0.5863 0.47201-1.0583 1.0583-1.0583h13.229c0.5863 0 1.0583 0.47201 1.0583 1.0583v-0.26458c0-0.5863-0.47201-1.0583-1.0583-1.0583z" fill="#ffffff" filter="url(#filter9)" opacity=".15"/>
  <path transform="matrix(1 0 0 -1 0 19.05)" d="m1.852 4.4978c-0.5863 0-1.0583 0.47201-1.0583 1.0583v0.26458c0-0.5863 0.47201-1.0583 1.0583-1.0583h13.229c0.5863 0 1.0583 0.47201 1.0583 1.0583v-0.26458c0-0.5863-0.47201-1.0583-1.0583-1.0583z" fill="#000000" filter="url(#filter9)" opacity=".1"/>
  <path d="m1.944 2.3812c-0.6363-6e-4 -1.1519 0.51554-1.1508 1.1518v0.26044c0.001104-0.63442 0.51587-1.1483 1.1508-1.1477h2.9672c0.75 0 0.90392 0.083623 1.2707 0.62992 0.2962 0.44122 0.83942 0.42839 1.7554 0.42839h7.0501c0.63356-0.00333 1.1486 0.50792 1.1518 1.14v-0.25269c0.0033-0.63761-0.51424-1.1552-1.1518-1.1518h-7.0501c-0.91599 0-1.4592 0.012831-1.7554-0.42839-0.36678-0.5463-0.5207-0.62992-1.2707-0.62992h-2.9667z" fill="#ffffff" filter="url(#filter11)" opacity=".25"/>
 </g>
 <path d="M6.526 5.82a.968.968 0 0 0-.97.97v4.851c0 .538.433.97.97.97h3.88c.538 0 .971-.432.971-.97V8.246L8.952 5.821zm0 .486h1.94V7.76c0 .537.433.97.97.97h1.456v2.91a.484.484 0 0 1-.485.486h-3.88a.484.484 0 0 1-.486-.486v-4.85c0-.269.216-.485.485-.485zm2.426.2 1.739 1.74H9.437a.484.484 0 0 1-.485-.485z" fill="#000000" opacity=".15"/>
 <path d="m6.5261 5.8202a0.968 0.968 0 0 0-0.96995 0.96995v0.13332a0.968 0.968 0 0 1 0.96995-0.96633l2.4262 0.0010336 2.4246 2.4251v-0.13746l-2.4246-2.4246-2.4262-0.0010335zm2.4262 1.943v0.13539a0.484 0.484 0 0 0 0.48472 0.48472h1.2542l-0.13746-0.13746h-1.1167a0.484 0.484 0 0 1-0.48472-0.48265zm-2.9114 3.8808v0.13332a0.484 0.484 0 0 0 0.48627 0.48626h3.8798a0.484 0.484 0 0 0 0.48523-0.48626v-0.13332a0.484 0.484 0 0 1-0.48523 0.48213h-3.8798a0.484 0.484 0 0 1-0.48627-0.48213z" fill="#000000" opacity=".15"/>
 <path d="m6.5261 6.3049c-0.269 0-0.48523 0.21623-0.48523 0.48523v0.13694c0-0.269 0.21623-0.48472 0.48523-0.48472v0.0010335h1.9399v-0.13746h-1.9399v-0.0010335zm2.4262 0.20102v0.13746l1.6014 1.6025h0.13746l-1.7389-1.7399zm-0.48627 1.2542v0.13694c0 0.537 0.43295 0.96995 0.96995 0.96995h1.4562v-0.13694h-1.4562c-0.537 0-0.96995-0.43295-0.96995-0.96995zm-2.9098 3.8808v0.13746c0 0.538 0.43295 0.96995 0.96995 0.96995h3.8798c0.538 0 0.97098-0.43195 0.97098-0.96995v-0.13746c0 0.538-0.43298 0.96995-0.97098 0.96995h-3.8798c-0.537 0-0.96995-0.43195-0.96995-0.96995z" fill="#ffffff" opacity=".2"/>
</svg>
