<svg width="64" height="64" version="1.1" viewBox="0 0 16.933 16.933" xmlns="http://www.w3.org/2000/svg">
 <defs>
  <linearGradient id="linearGradient21" x1="8.4665" x2="8.4665" y1="2.3812" y2="5.6843" gradientUnits="userSpaceOnUse">
   <stop stop-color="#7cc1ea" offset="0"/>
   <stop stop-color="#56a1d3" offset="1"/>
  </linearGradient>
  <filter id="filter12" x="-.03226" y="-.045842" width="1.0645" height="1.0917" color-interpolation-filters="sRGB">
   <feGaussianBlur stdDeviation="0.13691812"/>
  </filter>
  <linearGradient id="b-8" x1="445.28" x2="445.28" y1="179.28" y2="200.07" gradientTransform="matrix(.38956 0 0 .38184 -165.78 -63.432)" gradientUnits="userSpaceOnUse">
   <stop stop-color="#88ccf2" offset="0"/>
   <stop stop-color="#67b1de" offset="1"/>
  </linearGradient>
  <filter id="filter9" x="-.0065172" y="-.075602" width="1.013" height="1.1512" color-interpolation-filters="sRGB">
   <feGaussianBlur stdDeviation="0.041672346"/>
  </filter>
  <filter id="filter11" x="-.0069629" y="-.043386" width="1.0139" height="1.0868" color-interpolation-filters="sRGB">
   <feGaussianBlur stdDeviation="0.044522292"/>
  </filter>
 </defs>
 <g id="folder">
  <path d="m1.9447 2.3812h2.9665c0.75 0 0.90372 0.0837 1.2705 0.63 0.2962 0.44122 0.83961 0.42831 1.7556 0.42831h7.0499c0.63761-0.00335 1.1553 0.51439 1.152 1.152v6.9562c0.0011 0.63669-0.51531 1.1531-1.152 1.152h-13.043c-0.6363 5.54e-4 -1.1521-0.5157-1.151-1.152v-8.0145c-0.001107-0.6363 0.5147-1.1526 1.151-1.152z" fill="url(#linearGradient21)"/>
  <rect x="1.3229" y="3.9687" width="14.287" height="10.054" rx=".52916" ry=".52916" fill="none" filter="url(#filter12)" opacity=".1" stroke="#000000" stroke-width=".26458"/>
  <rect x="1.3229" y="3.9687" width="14.287" height="10.054" rx=".52916" ry=".52916" fill="#ffffff" stroke-width=".9649"/>
  <rect x=".79373" y="4.4978" width="15.346" height="10.054" rx="1.0583" ry="1.0583" fill="url(#b-8)"/>
  <path d="m1.852 4.4978c-0.5863 0-1.0583 0.47201-1.0583 1.0583v0.26458c0-0.5863 0.47201-1.0583 1.0583-1.0583h13.229c0.5863 0 1.0583 0.47201 1.0583 1.0583v-0.26458c0-0.5863-0.47201-1.0583-1.0583-1.0583z" fill="#ffffff" filter="url(#filter9)" opacity=".15"/>
  <path transform="matrix(1 0 0 -1 0 19.05)" d="m1.852 4.4978c-0.5863 0-1.0583 0.47201-1.0583 1.0583v0.26458c0-0.5863 0.47201-1.0583 1.0583-1.0583h13.229c0.5863 0 1.0583 0.47201 1.0583 1.0583v-0.26458c0-0.5863-0.47201-1.0583-1.0583-1.0583z" fill="#000000" filter="url(#filter9)" opacity=".1"/>
  <path d="m1.944 2.3812c-0.6363-6e-4 -1.1519 0.51554-1.1508 1.1518v0.26044c0.001104-0.63442 0.51587-1.1483 1.1508-1.1477h2.9672c0.75 0 0.90392 0.083623 1.2707 0.62992 0.2962 0.44122 0.83942 0.42839 1.7554 0.42839h7.0501c0.63356-0.00333 1.1486 0.50792 1.1518 1.14v-0.25269c0.0033-0.63761-0.51424-1.1552-1.1518-1.1518h-7.0501c-0.91599 0-1.4592 0.012831-1.7554-0.42839-0.36678-0.5463-0.5207-0.62992-1.2707-0.62992h-2.9667z" fill="#ffffff" filter="url(#filter11)" opacity=".25"/>
 </g>
 <g transform="matrix(1.0001 0 0 1.0001 -.0015627 .018855)">
  <path d="m5.78 6.33c-0.496 0-0.895 0.399-0.895 0.895v4.03c0 0.496 0.399 0.895 0.895 0.895h5.373c0.496 0 0.896-0.4 0.896-0.895v-4.03c0-0.496-0.4-0.895-0.896-0.895zm0 0.447h5.373c0.248 0 0.448 0.2 0.448 0.448v4.03l-2.239-2.239-1.558 1.791-1.128-0.895-1.344 1.343v-4.03c0-0.248 0.2-0.448 0.448-0.448zm1.12 0.896a0.672 0.672 0 1 0 0 1.343 0.672 0.672 0 0 0 0-1.343z" fill="#000000" opacity=".15"/>
  <path d="m5.7799 6.3302c-0.496 0-0.89502 0.39902-0.89502 0.89502v0.14728c0-0.496 0.39902-0.89502 0.89502-0.89502h5.3732c0.496 0 0.89605 0.39902 0.89605 0.89502v-0.14728c0-0.496-0.40005-0.89502-0.89605-0.89502zm1.1203 1.3425a0.672 0.672 0 0 0-0.69245 0.74568 0.672 0.672 0 0 1 0.69245-0.59788 0.672 0.672 0 0 1 0.64078 0.59788 0.672 0.672 0 0 0-0.64078-0.74568zm2.4618 1.343-1.558 1.7911-1.1281-0.89502-1.3441 1.343v0.14779l1.3441-1.343 1.1281 0.89502 1.558-1.7911 2.2391 2.2391v-0.14779z" fill="#000000" opacity=".15"/>
  <path d="m5.7802 6.7772c-0.248 0-0.44797 0.19997-0.44797 0.44797v0.14726c0-0.248 0.19997-0.44797 0.44797-0.44797h5.3725c0.248 0 0.44797 0.19997 0.44797 0.44797v-0.14726c0-0.248-0.19997-0.44797-0.44797-0.44797h-5.3725zm0.4273 1.641a0.672 0.672 0 0 0 0.69236 0.74558 0.672 0.672 0 0 0 0.64121-0.74558 0.672 0.672 0 0 1-0.64121 0.59781 0.672 0.672 0 0 1-0.69236-0.59781zm-1.3227 2.8366v0.14777c0 0.496 0.39942 0.89491 0.89542 0.89491h5.3725c0.496 0 0.89646-0.39991 0.89646-0.89491v-0.14777c0 0.495-0.40046 0.89542-0.89646 0.89542h-5.3725c-0.496 0-0.89542-0.39942-0.89542-0.89542z" fill="#ffffff" opacity=".2"/>
 </g>
</svg>
