<svg width="64" height="64" version="1.1" viewBox="0 0 16.933 16.933" xmlns="http://www.w3.org/2000/svg">
 <defs>
  <linearGradient id="linearGradient21" x1="8.4665" x2="8.4665" y1="2.3812" y2="5.6843" gradientUnits="userSpaceOnUse">
   <stop stop-color="#7cc1ea" offset="0"/>
   <stop stop-color="#56a1d3" offset="1"/>
  </linearGradient>
  <filter id="filter12" x="-.03226" y="-.045842" width="1.0645" height="1.0917" color-interpolation-filters="sRGB">
   <feGaussianBlur stdDeviation="0.13691812"/>
  </filter>
  <linearGradient id="b-7" x1="445.28" x2="445.28" y1="179.28" y2="200.07" gradientTransform="matrix(.38956 0 0 .38184 -165.78 -63.432)" gradientUnits="userSpaceOnUse">
   <stop stop-color="#88ccf2" offset="0"/>
   <stop stop-color="#67b1de" offset="1"/>
  </linearGradient>
  <filter id="filter9" x="-.0065174" y="-.075603" width="1.013" height="1.1512" color-interpolation-filters="sRGB">
   <feGaussianBlur stdDeviation="0.041672346"/>
  </filter>
  <filter id="filter11" x="-.0069629" y="-.043386" width="1.0139" height="1.0868" color-interpolation-filters="sRGB">
   <feGaussianBlur stdDeviation="0.044522292"/>
  </filter>
 </defs>
 <g id="folder">
  <path d="m1.9447 2.3812h2.9665c0.75 0 0.90372 0.0837 1.2705 0.63 0.2962 0.44122 0.83961 0.42831 1.7556 0.42831h7.0499c0.63761-0.00335 1.1553 0.51439 1.152 1.152v6.9562c0.0011 0.63669-0.51531 1.1531-1.152 1.152h-13.043c-0.6363 5.54e-4 -1.1521-0.5157-1.151-1.152v-8.0145c-0.001107-0.6363 0.5147-1.1526 1.151-1.152z" fill="url(#linearGradient21)"/>
  <rect x="1.3229" y="3.9687" width="14.287" height="10.054" rx=".52916" ry=".52916" fill="none" filter="url(#filter12)" opacity=".1" stroke="#000000" stroke-width=".26458"/>
  <rect x="1.3229" y="3.9687" width="14.287" height="10.054" rx=".52916" ry=".52916" fill="#ffffff" stroke-width=".9649"/>
  <rect x=".79373" y="4.4978" width="15.346" height="10.054" rx="1.0583" ry="1.0583" fill="url(#b-7)"/>
  <path d="m1.852 4.4978c-0.5863 0-1.0583 0.47201-1.0583 1.0583v0.26458c0-0.5863 0.47201-1.0583 1.0583-1.0583h13.229c0.5863 0 1.0583 0.47201 1.0583 1.0583v-0.26458c0-0.5863-0.47201-1.0583-1.0583-1.0583z" fill="#ffffff" filter="url(#filter9)" opacity=".15"/>
  <path transform="matrix(1,0,0,-1,0,19.05)" d="m1.852 4.4978c-0.5863 0-1.0583 0.47201-1.0583 1.0583v0.26458c0-0.5863 0.47201-1.0583 1.0583-1.0583h13.229c0.5863 0 1.0583 0.47201 1.0583 1.0583v-0.26458c0-0.5863-0.47201-1.0583-1.0583-1.0583z" fill="#000000" filter="url(#filter9)" opacity=".1"/>
  <path d="m1.944 2.3812c-0.6363-6e-4 -1.1519 0.51554-1.1508 1.1518v0.26044c0.001104-0.63442 0.51587-1.1483 1.1508-1.1477h2.9672c0.75 0 0.90392 0.083623 1.2707 0.62992 0.2962 0.44122 0.83942 0.42839 1.7554 0.42839h7.0501c0.63356-0.00333 1.1486 0.50792 1.1518 1.14v-0.25269c0.0033-0.63761-0.51424-1.1552-1.1518-1.1518h-7.0501c-0.91599 0-1.4592 0.012831-1.7554-0.42839-0.36678-0.5463-0.5207-0.62992-1.2707-0.62992h-2.9672z" fill="#ffffff" filter="url(#filter11)" opacity=".25"/>
 </g>
 <path d="m8.4652 12.7c1.741 0 3.178-1.437 3.178-3.1749 0-1.7379-1.4401-3.1749-3.1811-3.1749-1.7379 0-3.1719 1.437-3.1719 3.1749 0 1.7379 1.437 3.1749 3.1749 3.1749zm-0.81062-3.8013c-0.015337-0.11669-0.067566-0.22107-0.14739-0.3009 0.26101-0.6571 0.67245-1.2497 1.2067-1.7379 0.033783 0.00308 0.070641 0.00922 0.10746 0.01228-0.37766 0.66017-0.60488 1.394-0.66322 2.1555-0.17195-0.030709-0.34083-0.073715-0.50357-0.12898zm-1.4002-0.86895c0.42066-0.61411 1.087-1.0501 1.8515-1.1576-0.42681 0.46672-0.76457 1.001-0.9918 1.5813-0.089038 0.0061486-0.16887 0.033783-0.23642 0.076754-0.22415-0.14125-0.43295-0.31011-0.62332-0.50048zm3.1934 0.018425c-0.0030546-0.32241 0.036862-0.64482 0.12591-0.95494 0.56802 0.26407 1.0348 0.72158 1.305 1.2866-0.29783 0.22722-0.62944 0.39918-0.9795 0.5189-0.092128-0.11054-0.22722-0.18114-0.37769-0.18422-0.046047-0.218-0.070604-0.43911-0.07368-0.66631zm-0.42066 0c0.00305 0.28555 0.036851 0.56804 0.10131 0.83827-0.046047 0.052195-0.082898 0.11669-0.10131 0.18422-0.079829 0.00615-0.15658 0.00922-0.23641 0.00922-0.070641 0-0.14432 0-0.21496-0.00615 0.04912-0.65404 0.2303-1.2866 0.53427-1.8546-0.058342 0.26714-0.085975 0.54655-0.082898 0.82905zm-3.2363 1.4769c0-0.3961 0.085973-0.77072 0.24564-1.1115 0.18731 0.17807 0.39303 0.33776 0.61104 0.47286-0.00308 0.024561-0.00614 0.046045-0.00614 0.070605 0 0.16581 0.079833 0.31627 0.20573 0.4084-0.058347 0.29783-0.089053 0.60488-0.092122 0.91193-0.34083-0.16581-0.66323-0.37766-0.96107-0.62944-0.00308-0.039932-0.00308-0.082903-0.00308-0.12284zm5.352 0c0 0.24256-0.03378 0.47901-0.0952 0.70315-0.17195 0.09213-0.34698 0.17195-0.52505 0.23949-0.27634-0.25486-0.50356-0.54961-0.67859-0.87507 0.07983-0.073715 0.13817-0.17195 0.15966-0.28557 0.36847-0.11976 0.71545-0.29171 1.0348-0.51586 0.06757 0.23337 0.10442 0.47901 0.10442 0.73386zm-3.9671 0.93653c-0.00922-0.34083 0.018411-0.67859 0.079828-1.0072 0.10439-0.021487 0.19959-0.076754 0.27023-0.15351 0.19955 0.064491 0.40529 0.11669 0.61718 0.15047 0.00303 0.37766 0.046045 0.7492 0.12587 1.1115-0.052194 0.04297-0.095201 0.0952-0.12587 0.15354-0.32857-0.049156-0.65403-0.13513-0.96723-0.25486zm1.6151-0.96109c0.09824 0 0.19651-0.00308 0.29475-0.012293 0.076756 0.11976 0.20266 0.20266 0.34698 0.22722 0.16888 0.32853 0.3838 0.62947 0.64174 0.89659-0.33161 0.08905-0.67244 0.14125-1.0133 0.15662-0.064491-0.16277-0.20881-0.28249-0.38077-0.31013-0.070606-0.3132-0.11054-0.63562-0.11361-0.96416 0.073715 0.00615 0.15047 0.00615 0.22418 0.00615zm-2.8955 0.75842c0.27328 0.19344 0.56805 0.35617 0.86896 0.49127 0.018422 0.31935 0.067552 0.63562 0.15045 0.94575-0.48514-0.34698-0.85054-0.85362-1.0194-1.437zm2.57 1.9437c-0.35617 0-0.69701-0.07372-1.0102-0.20266-0.13202-0.34698-0.218-0.7093-0.25486-1.0808 0.29786 0.10135 0.60492 0.17503 0.91197 0.21804 0.070605 0.18729 0.24563 0.31931 0.45441 0.32854 0.10135 0.23948 0.22418 0.47286 0.36539 0.69393-0.15043 0.02763-0.30705 0.043-0.46671 0.043zm0.49434-0.89356c0.033783-0.03375 0.061417-0.07676 0.082938-0.11972 0.47286-0.01845 0.93956-0.09828 1.394-0.24567 0.06449 0.05223 0.12895 0.09828 0.19344 0.14432-0.31627 0.43603-0.75842 0.7738-1.2712 0.95801-0.15658-0.23337-0.2886-0.47901-0.39918-0.73694z" fill="#000000" opacity=".15" stroke-width=".34936"/>
 <path d="m8.4624 6.3499c-1.7379 0-3.1724 1.437-3.1724 3.1749 0 0.023726 5.008e-4 0.047185 0.0010335 0.070795 0.03845-1.7059 1.4572-3.1036 3.1713-3.1036 1.7172 0 3.1415 1.3983 3.1801 3.1041 5.34e-4 -0.023636 5.17e-4 -0.047561 5.17e-4 -0.071312 0-1.7379-1.4396-3.1749-3.1806-3.1749zm0.28525 0.65576c-0.33351 0.62499-0.53518 1.311-0.58962 2.0215-0.17195-0.030709-0.34059-0.073403-0.50332-0.12867-0.012609-0.095934-0.050166-0.18382-0.10748-0.25631-0.013674 0.03225-0.026852 0.064578-0.03979 0.09715 0.079828 0.079828 0.13194 0.18458 0.14727 0.30127 0.16273 0.055269 0.33136 0.097963 0.50332 0.12867 0.058343-0.7615 0.28586-1.4952 0.66351-2.1554-0.024908-0.00207-0.049917-0.0052799-0.073896-0.0082681zm-0.64181 0.0082681c-0.049219 0.0069181-0.097876 0.015203-0.14624 0.024804-0.35809 0.42573-0.64482 0.90206-0.84541 1.4144-0.089038 0.0061486-0.16912 0.034025-0.23667 0.076996-0.20096-0.12663-0.3892-0.27571-0.56326-0.44234-0.020402 0.027513-0.04057 0.055431-0.059944 0.083714 0.19037 0.19038 0.39905 0.35949 0.62321 0.50073 0.067548-0.042971 0.14764-0.070848 0.23667-0.076996 0.22722-0.58033 0.56484-1.1145 0.99165-1.5813zm1.0041 0.34674c-0.013824 0.025833-0.027509 0.051934-0.040824 0.07803-0.030368 0.19901-0.044099 0.40341-0.041857 0.60925 1.033e-4 0.0096784 3.427e-4 0.019267 5.167e-4 0.028938 0.0044446-0.24389 0.031618-0.48478 0.082164-0.71622zm0.33847 0.72036c-7.513e-4 0.036224-8.601e-4 0.072794-5.168e-4 0.10904 0.0030763 0.2272 0.027332 0.4481 0.073379 0.6661 0.15047 0.0030743 0.28562 0.073944 0.37775 0.18448 0.35006-0.11973 0.68194-0.2916 0.97977-0.51882-0.016638-0.034791-0.034085-0.069395-0.052192-0.10335-0.2842 0.20803-0.59781 0.36728-0.92757 0.48006-0.092128-0.11054-0.22728-0.18141-0.37775-0.18448-0.043789-0.20731-0.067933-0.41752-0.072862-0.63302zm-0.34468 0.83559c-0.034404 0.045927-0.0615 0.09906-0.07648 0.15399-0.079829 0.00615-0.15684 0.0087848-0.23667 0.0087848-0.066427 0-0.1353-5.38e-5 -0.20205-0.0051675-0.0049082 0.046895-0.009379 0.093939-0.012919 0.14107 0.07064 0.00615 0.14433 0.006201 0.21497 0.006201 0.079828 0 0.15684-0.0026348 0.23667-0.0087848 0.018415-0.067531 0.055237-0.13229 0.10128-0.18448-0.0088251-0.036996-0.017129-0.074187-0.024804-0.11162zm-2.4577 0.1111c2.321e-4 0.0016668 7.853e-4 0.0029886 0.0010335 0.0046508 1.768e-4 -0.0013963 3.393e-4 -0.0027185 5.168e-4 -0.004134-4.174e-4 -2.587e-4 -0.0011329-2.579e-4 -0.0015503-5.168e-4zm0.17828 0.46198c-0.023658 0.14015-0.026112 0.28417-0.037723 0.42684 0.01508-0.13756 0.034082-0.27463 0.06046-0.40927-0.0077384-0.0056628-0.015355-0.011476-0.022737-0.01757zm4.3175 0.10593c-0.005895 0.21777-0.038621 0.43023-0.094049 0.63251-0.17195 0.09213-0.34695 0.17172-0.52502 0.23926-0.2508-0.23131-0.4613-0.4953-0.62889-0.78547-0.015445 0.018697-0.03239 0.036332-0.050125 0.052709 0.17503 0.32546 0.40268 0.62001 0.67902 0.87486 0.17807-0.067532 0.35307-0.14713 0.52502-0.23926 0.06142-0.22415 0.095083-0.46074 0.095083-0.7033 0-0.023842-3.94e-4 -0.047634-0.001034-0.071312zm-5.3505 0.0067178c-5.074e-4 0.02143-5.168e-4 0.043035-5.168e-4 0.064594 0 0.039932 2.05e-5 0.083056 0.0031005 0.12299 0.29784 0.25178 0.62034 0.4636 0.96116 0.62941 0.0012725-0.12728 0.010417-0.25422 0.021187-0.38085-0.0045702 0.080012-0.020385 0.15856-0.021187 0.23874-0.34083-0.16581-0.66332-0.37762-0.96116-0.62941-0.0011387-0.014764-0.0021314-0.030187-0.0025837-0.045474zm2.7755 0.034106c0.0030744 0.32854 0.042563 0.65055 0.11317 0.96375 0.17195 0.027635 0.31636 0.14729 0.38085 0.31005 0.34084-0.015372 0.68175-0.067526 1.0134-0.15658-0.036325-0.037619-0.071841-0.075776-0.10645-0.11472-0.29791 0.07253-0.60242 0.11546-0.9069 0.12919-0.064491-0.16277-0.20889-0.28242-0.38085-0.31005-0.060378-0.26783-0.097902-0.54227-0.10955-0.82164-0.0012134-9.78e-5 -0.0024055 1.011e-4 -0.0036173 0zm-2.6716 0.76428c0.16888 0.58339 0.53441 1.0901 1.0196 1.4371-0.015383-0.057547-0.029813-0.11516-0.042891-0.17311-0.41277-0.30772-0.73433-0.73281-0.91569-1.2216-0.020384-0.013935-0.040821-0.028107-0.060977-0.042374zm1.2795 0.0031c-9.912e-4 0.066347-7.688e-4 0.13284 0.0010335 0.19947 0.3132 0.11972 0.63879 0.2056 0.96736 0.25476 0.030672-0.058343 0.073377-0.11051 0.12557-0.15348-0.0087962-0.039923-0.016906-0.079743-0.024804-0.11989-0.040992 0.038366-0.07515 0.082528-0.10077 0.13126-0.32857-0.049156-0.65416-0.13504-0.96736-0.25476-5.178e-4 -0.019142-7.476e-4 -0.038238-0.0010335-0.05736zm0.025321 0.65731c0.036857 0.37154 0.12325 0.73355 0.25528 1.0805 0.3132 0.12894 0.65357 0.20257 1.0097 0.20257 0.15966 0 0.31671-0.01526 0.46715-0.04289-0.027133-0.042479-0.053826-0.085329-0.07958-0.12867-0.12587 0.019194-0.25578 0.029455-0.38757 0.029455-0.35617 0-0.69654-0.073625-1.0097-0.20257-0.11444-0.30077-0.19446-0.61291-0.23771-0.93274-0.0057813-0.001944-0.011795-0.00372-0.01757-0.005684zm3.3605 0.11834c-0.31011 0.39155-0.72533 0.69504-1.2015 0.86608-0.13766-0.20518-0.25682-0.41972-0.35863-0.64388-0.012486 0.017642-0.02596 0.034242-0.040824 0.049091 0.11057 0.25793 0.24287 0.50352 0.39945 0.73689 0.51279-0.18422 0.95494-0.52203 1.2712-0.95806-0.023251-0.0166-0.046515-0.033233-0.069762-0.050125z" fill="#000000" opacity=".15" stroke-width=".34936"/>
 <path d="m8.714 6.8594c-0.53427 0.48822-0.94561 1.0807-1.2066 1.7378 0.014178 0.014178 0.027405 0.029299 0.03979 0.044958 0.26218-0.6184 0.65901-1.1767 1.1668-1.6407 0.010958 9.99e-4 0.02209 0.0021838 0.033589 0.0036173 0.023898-0.044781 0.048647-0.089186 0.073896-0.13332-0.036821-0.00306-0.073702-0.0093221-0.10748-0.012402zm-0.60822 0.012402c-0.76457 0.10747-1.4309 0.54342-1.8515 1.1575 0.019669 0.019669 0.039885 0.03919 0.059944 0.058393 0.39409-0.53152 0.97688-0.91636 1.6453-1.049 0.047495-0.056461 0.09627-0.11227 0.14624-0.16691zm1.4681 0.22117c-0.089048 0.31012-0.12914 0.63256-0.12609 0.95496 1.505e-4 0.011114 2.635e-4 0.021987 5.168e-4 0.033072 0.0059257-0.28606 0.046525-0.57063 0.12557-0.84593 0.53309 0.24783 0.97668 0.66584 1.2526 1.1834 0.017465-0.012784 0.034951-0.025603 0.052192-0.038757-0.27019-0.56499-0.73678-1.0227-1.3048-1.2867zm-0.46405 0.12609c-0.30398 0.56805-0.4852 1.2001-0.53432 1.8541 0.0042081 3.663e-4 0.0086905 7.095e-4 0.012919 0.0010335 0.060089-0.57432 0.22268-1.1291 0.4811-1.6355 0.011301-0.074023 0.024494-0.14722 0.040307-0.21962zm-0.082164 0.85781c-6.841e-4 0.037586-9.276e-4 0.074935-5.167e-4 0.11265v5.167e-4c0.0026329 0.2465 0.028072 0.49053 0.07648 0.72656 0.0078816-0.01052 0.016224-0.020763 0.024804-0.030488-0.062284-0.2611-0.095812-0.53355-0.10077-0.80924zm-2.9915 0.33641c-0.15967 0.3408-0.24546 0.71543-0.24546 1.1115 0 0.025143-2.521e-4 0.051478 5.168e-4 0.077513 0.008802-0.37233 0.09395-0.72466 0.24494-1.0469 0.18694 0.17772 0.39223 0.33687 0.60977 0.4718-0.0032069-0.023101-0.0046508-0.046414-0.0046508-0.070279 0-0.02456 0.0031211-0.046234 0.0062011-0.070795-0.21801-0.1351-0.42401-0.29476-0.61132-0.47283zm5.0022 0.37775c-0.31931 0.22415-0.66659 0.39596-1.0351 0.51572-0.021487 0.11361-0.079847 0.21205-0.15968 0.28577 0.016154 0.030038 0.033084 0.05989 0.050125 0.089398 0.05411-0.065478 0.092832-0.14465 0.10955-0.23306 0.36847-0.11976 0.71574-0.29209 1.0351-0.51624 0.061257 0.21157 0.097156 0.43354 0.10335 0.663 6.36e-4 -0.023511 0.001034-0.047162 0.001034-0.070795-1e-6 -0.25486-0.036815-0.50042-0.10438-0.73379zm-4.3914 0.24132c-0.0028862 0.022792-0.0056843 0.043033-0.0056843 0.066144 0 0.15563 0.070194 0.29814 0.18293 0.39118 0.0070224-0.041591 0.014654-0.083276 0.022737-0.12454-0.10644-0.077888-0.1798-0.19749-0.19998-0.33279zm0.87848 0.2682c-0.07064 0.076754-0.16587 0.13199-0.27026 0.15348-0.057962 0.31009-0.085412 0.62848-0.080614 0.94979 0.0040746-0.27308 0.031197-0.54332 0.080614-0.80769 0.10439-0.021487 0.19962-0.076722 0.27026-0.15348 0.19955 0.064491 0.40563 0.11659 0.61752 0.15038 0.0026965 0.3361 0.036969 0.66743 0.10077 0.99165 0.0080796-0.007561 0.016213-0.015147 0.024804-0.02222-0.079828-0.36232-0.12254-0.73388-0.12557-1.1115-0.21189-0.033783-0.41797-0.085884-0.61752-0.15038zm1.5601 0.18758c-0.09824 0.009213-0.19683 0.011885-0.29507 0.011885-0.073715 0-0.15004 4.657e-4 -0.22375-0.0056843 4.448e-4 0.047534 0.0016481 0.094839 0.0036173 0.14211 0.072602 0.0058523 0.14763 0.0056843 0.22014 0.0056843 0.09824 0 0.19683-0.0031891 0.29507-0.012402 0.076756 0.11976 0.20242 0.20281 0.34674 0.22737 0.14513 0.28232 0.32415 0.54423 0.53536 0.78185 0.035523-0.008649 0.071126-0.017901 0.10645-0.027388-0.25793-0.26712-0.47293-0.56804-0.64181-0.89657-0.14432-0.02456-0.26999-0.1071-0.34674-0.22686zm-3.7945 0.10748c-5.314e-4 0.023606-0.0010335 0.047591-0.0010335 0.071312 0 1.7379 1.437 3.1749 3.1749 3.1749 1.741 0 3.178-1.437 3.178-3.1749 0-0.023696 1.6e-5 -0.047731-5.17e-4 -0.071312-0.038485 1.7059-1.4603 3.1041-3.1775 3.1041-1.7142 0-3.1355-1.3982-3.1739-3.1041zm1.496 0.31987c-0.0045349 0.041321-0.007853 0.082537-0.011369 0.12402 0.0023669-0.041585 0.0079838-0.082548 0.011369-0.12402zm-0.89192 0.34312c0.018032 0.062293 0.038557 0.12352 0.060977 0.18396 0.256 0.17502 0.52945 0.32391 0.8082 0.44906 0.015008 0.26016 0.050059 0.51864 0.10748 0.77306 0.014105 0.010515 0.028575 0.020767 0.042891 0.031006-0.082903-0.31013-0.13195-0.62631-0.15038-0.94566-0.30091-0.1351-0.5959-0.29799-0.86918-0.49143zm1.3048 0.66041c0.0049028 0.049423 0.010936 0.09871 0.01757 0.14779 0.29244 0.098333 0.59339 0.1697 0.8945 0.21187 0.070605 0.18729 0.24597 0.31943 0.45474 0.32866 0.081899 0.19353 0.17745 0.38305 0.28577 0.56533 0.026592-0.004056 0.053348-0.008618 0.07958-0.013436-0.14121-0.22107-0.264-0.45452-0.36535-0.694-0.20878-0.009224-0.38414-0.14085-0.45474-0.32814-0.30705-0.043006-0.61421-0.11672-0.91207-0.21807zm3.2364 0.024288c-0.45445 0.14739-0.92083 0.22752-1.3937 0.24598-0.021521 0.042964-0.049414 0.08562-0.083197 0.11937 0.013344 0.031127 0.026849 0.062246 0.040824 0.093016 0.015913-0.022475 0.030309-0.04671 0.042374-0.070796 0.47286-0.01845 0.93924-0.098069 1.3937-0.24546 0.041267 0.033422 0.082762 0.064071 0.12402 0.094049 0.023847-0.030112 0.047178-0.060847 0.069762-0.091982-0.064485-0.046041-0.12929-0.091944-0.19378-0.14417z" fill="#ffffff" opacity=".2" stroke-width=".34936"/>
</svg>
