<?xml version="1.0" encoding="UTF-8" standalone="no"?>
<svg
   width="64"
   height="64"
   viewBox="0 0 16.933 16.933"
   version="1.1"
   id="svg18"
   sodipodi:docname="folder-music.svg"
   inkscape:version="1.4.2 (ebf0e940d0, 2025-05-08)"
   xmlns:inkscape="http://www.inkscape.org/namespaces/inkscape"
   xmlns:sodipodi="http://sodipodi.sourceforge.net/DTD/sodipodi-0.dtd"
   xmlns:xlink="http://www.w3.org/1999/xlink"
   xmlns="http://www.w3.org/2000/svg"
   xmlns:svg="http://www.w3.org/2000/svg">
  <sodipodi:namedview
     id="namedview18"
     pagecolor="#ffffff"
     bordercolor="#000000"
     borderopacity="0.25"
     inkscape:showpageshadow="2"
     inkscape:pageopacity="0.0"
     inkscape:pagecheckerboard="0"
     inkscape:deskcolor="#d1d1d1"
     inkscape:zoom="19"
     inkscape:cx="36.421053"
     inkscape:cy="30.263158"
     inkscape:window-width="1920"
     inkscape:window-height="1007"
     inkscape:window-x="0"
     inkscape:window-y="0"
     inkscape:window-maximized="1"
     inkscape:current-layer="svg18" />
  <defs
     id="defs13">
    <linearGradient
       id="a"
       x1="6.879"
       x2="6.879"
       y1="285.36"
       y2="283.77"
       gradientTransform="translate(0 -280.06) scale(.99998)"
       gradientUnits="userSpaceOnUse">
      <stop
         offset="0"
         id="stop1" />
      <stop
         stop-opacity="0"
         offset="1"
         id="stop2" />
    </linearGradient>
    <linearGradient
       id="b"
       x1="445.28"
       x2="445.28"
       y1="179.28"
       y2="200.07"
       gradientTransform="matrix(.38956 0 0 .38184 -165.52 -63.44)"
       gradientUnits="userSpaceOnUse">
      <stop
         stop-color="#60c0f0"
         offset="0"
         id="stop3" />
      <stop
         stop-color="#83d4fb"
         offset="1"
         id="stop4" />
    </linearGradient>
    <linearGradient
       id="c"
       x1="8.467"
       x2="8.467"
       y1="293.3"
       y2="292.77"
       gradientTransform="translate(0 -280.07)"
       gradientUnits="userSpaceOnUse">
      <stop
         stop-color="#008ea2"
         stop-opacity=".25"
         offset="0"
         id="stop5" />
      <stop
         stop-color="#fff"
         stop-opacity=".15"
         offset="1"
         id="stop6" />
    </linearGradient>
    <linearGradient
       id="d"
       x1="8.467"
       x2="8.467"
       y1="294.62"
       y2="293.56"
       gradientTransform="translate(0 -280.06) scale(.99998)"
       gradientUnits="userSpaceOnUse">
      <stop
         stop-color="#008ea2"
         stop-opacity=".251"
         offset="0"
         id="stop7" />
      <stop
         stop-color="#008ea2"
         stop-opacity=".15"
         offset=".757"
         id="stop8" />
      <stop
         stop-color="#fff"
         stop-opacity=".15"
         offset="1"
         id="stop9" />
    </linearGradient>
    <linearGradient
       id="e"
       x1="1.058"
       x2="15.875"
       y1="289.59"
       y2="289.59"
       gradientTransform="translate(0 -280.07)"
       gradientUnits="userSpaceOnUse">
      <stop
         stop-color="#46a2d7"
         stop-opacity=".5"
         offset="0"
         id="stop10" />
      <stop
         stop-color="#46a2d7"
         stop-opacity="0"
         offset=".108"
         id="stop11" />
      <stop
         stop-color="#46a2d7"
         stop-opacity=".096"
         offset=".894"
         id="stop12" />
      <stop
         stop-color="#46a2d7"
         stop-opacity=".5"
         offset="1"
         id="stop13" />
    </linearGradient>
    <linearGradient
       inkscape:collect="always"
       xlink:href="#linearGradient20"
       id="linearGradient21"
       x1="8.4665079"
       y1="2.3812032"
       x2="8.4665079"
       y2="5.6842961"
       gradientUnits="userSpaceOnUse" />
    <linearGradient
       id="linearGradient20"
       inkscape:collect="always">
      <stop
         style="stop-color:#7cc1ea;stop-opacity:1;"
         offset="0"
         id="stop20" />
      <stop
         style="stop-color:#56a1d3;stop-opacity:1;"
         offset="1"
         id="stop21" />
    </linearGradient>
    <linearGradient
       inkscape:collect="always"
       xlink:href="#linearGradient22"
       id="linearGradient23"
       x1="8.4665003"
       y1="3.968672"
       x2="8.4665003"
       y2="4.497797"
       gradientUnits="userSpaceOnUse" />
    <linearGradient
       id="linearGradient22"
       inkscape:collect="always">
      <stop
         style="stop-color:#ffffff;stop-opacity:1;"
         offset="0"
         id="stop22" />
      <stop
         style="stop-color:#c9d0d3;stop-opacity:1;"
         offset="1"
         id="stop23" />
    </linearGradient>
    <linearGradient
       id="b-0"
       x1="445.28"
       x2="445.28"
       y1="179.28"
       y2="200.07001"
       gradientTransform="matrix(0.38956,0,0,0.38184,-165.78426,-63.432203)"
       gradientUnits="userSpaceOnUse">
      <stop
         stop-color="#60c0f0"
         offset="0"
         id="stop1-9"
         style="stop-color:#88ccf2;stop-opacity:1;" />
      <stop
         stop-color="#83d4fb"
         offset="1"
         id="stop2-3"
         style="stop-color:#67b1de;stop-opacity:1;" />
    </linearGradient>
  </defs>
  <g
     id="folder">
    <path
       d="m 1.9447361,2.3812036 h 2.9665407 c 0.75,0 0.9037206,0.0837 1.2704593,0.63 0.296199,0.4412228 0.8396079,0.4283121 1.7556079,0.4283121 h 7.049922 c 0.637613,-0.00335 1.155347,0.5143867 1.152,1.152 V 11.54775 c 0.0011,0.636691 -0.515309,1.153108 -1.152,1.152 H 1.9447361 c -0.6362999,5.54e-4 -1.15210681,-0.515701 -1.15099996,-1.152 V 3.5332036 c -0.001107,-0.6362992 0.51470006,-1.1525542 1.15099996,-1.152 z"
       fill="#46a2d7"
       id="path13"
       style="fill:url(#linearGradient21)" />
    <rect
       x="1.3228903"
       y="3.968672"
       width="14.28722"
       height="10.054"
       rx="0.52915668"
       ry="0.52915668"
       fill="url(#b)"
       id="rect18"
       style="fill:url(#linearGradient23);stroke-width:0.964901" />
    <rect
       x="0.79373437"
       y="4.497797"
       width="15.345531"
       height="10.054"
       rx="1.0583115"
       ry="1.0583115"
       fill="url(#b)"
       id="rect14"
       style="fill:url(#b-0)" />
    <path
       id="rect19"
       d="m 0.79373437,13.365329 v 0.128155 c 0,0.586305 0.47200793,1.058313 1.05831253,1.058313 H 15.080953 c 0.586305,0 1.058313,-0.472008 1.058313,-1.058313 v -0.128155 c 0,0.586305 -0.472008,1.058313 -1.058313,1.058313 H 1.8520469 c -0.5863046,0 -1.05831253,-0.472008 -1.05831253,-1.058313 z"
       style="opacity:0.1;fill:#000000" />
    <path
       id="path20"
       d="m 0.79373437,5.6842963 v -0.128155 c 0,-0.586305 0.47200793,-1.058313 1.05831253,-1.058313 H 15.080953 c 0.586305,0 1.058313,0.472008 1.058313,1.058313 v 0.128155 c 0,-0.586305 -0.472008,-1.058313 -1.058313,-1.058313 H 1.8520469 c -0.5863046,0 -1.05831253,0.472008 -1.05831253,1.058313 z"
       style="opacity:0.2;fill:#ffffff" />
  </g>
  <path
     d="M10.726 6.197h-.027l-3.455.591c-.074.013-.135.06-.135.135v3.99c-.055.32-.6.192-.978.22-.454.06-.67.582-.56.966.088.285.361.5.757.539.415.044 1.12-.068 1.2-.966l.003.003v-3.51l2.875-.492v2.645c-.065.306-.602.181-.975.209-.455.06-.671.582-.561.966.089.285.362.5.758.539.408.043 1.094-.065 1.193-.92l.008-.007v-.307l.005-4.464c0-.066-.047-.13-.108-.136z"
     opacity=".15"
     id="path18" />
</svg>
