<svg width="64" height="64" version="1.1" viewBox="0 0 16.933 16.933" xmlns="http://www.w3.org/2000/svg">
 <defs>
  <linearGradient id="linearGradient21" x1="8.4665" x2="8.4665" y1="2.3812" y2="5.6843" gradientUnits="userSpaceOnUse">
   <stop stop-color="#7cc1ea" offset="0"/>
   <stop stop-color="#56a1d3" offset="1"/>
  </linearGradient>
  <filter id="filter12" x="-.03226" y="-.045842" width="1.0645" height="1.0917" color-interpolation-filters="sRGB">
   <feGaussianBlur stdDeviation="0.13691812"/>
  </filter>
  <linearGradient id="b-7" x1="445.28" x2="445.28" y1="179.28" y2="200.07" gradientTransform="matrix(.38956 0 0 .38184 -165.78 -63.432)" gradientUnits="userSpaceOnUse">
   <stop stop-color="#88ccf2" offset="0"/>
   <stop stop-color="#67b1de" offset="1"/>
  </linearGradient>
  <filter id="filter9" x="-.0065174" y="-.075603" width="1.013" height="1.1512" color-interpolation-filters="sRGB">
   <feGaussianBlur stdDeviation="0.041672346"/>
  </filter>
  <filter id="filter11" x="-.0069629" y="-.043386" width="1.0139" height="1.0868" color-interpolation-filters="sRGB">
   <feGaussianBlur stdDeviation="0.044522292"/>
  </filter>
 </defs>
 <g id="folder">
  <path d="m1.9447 2.3812h2.9665c0.75 0 0.90372 0.0837 1.2705 0.63 0.2962 0.44122 0.83961 0.42831 1.7556 0.42831h7.0499c0.63761-0.00335 1.1553 0.51439 1.152 1.152v6.9562c0.0011 0.63669-0.51531 1.1531-1.152 1.152h-13.043c-0.6363 5.54e-4 -1.1521-0.5157-1.151-1.152v-8.0145c-0.001107-0.6363 0.5147-1.1526 1.151-1.152z" fill="url(#linearGradient21)"/>
  <rect x="1.3229" y="3.9687" width="14.287" height="10.054" rx=".52916" ry=".52916" fill="none" filter="url(#filter12)" opacity=".1" stroke="#000000" stroke-width=".26458"/>
  <rect x="1.3229" y="3.9687" width="14.287" height="10.054" rx=".52916" ry=".52916" fill="#ffffff" stroke-width=".9649"/>
  <rect x=".79373" y="4.4978" width="15.346" height="10.054" rx="1.0583" ry="1.0583" fill="url(#b-7)"/>
  <path d="m1.852 4.4978c-0.5863 0-1.0583 0.47201-1.0583 1.0583v0.26458c0-0.5863 0.47201-1.0583 1.0583-1.0583h13.229c0.5863 0 1.0583 0.47201 1.0583 1.0583v-0.26458c0-0.5863-0.47201-1.0583-1.0583-1.0583z" fill="#ffffff" filter="url(#filter9)" opacity=".15"/>
  <path transform="matrix(1,0,0,-1,0,19.05)" d="m1.852 4.4978c-0.5863 0-1.0583 0.47201-1.0583 1.0583v0.26458c0-0.5863 0.47201-1.0583 1.0583-1.0583h13.229c0.5863 0 1.0583 0.47201 1.0583 1.0583v-0.26458c0-0.5863-0.47201-1.0583-1.0583-1.0583z" fill="#000000" filter="url(#filter9)" opacity=".1"/>
  <path d="m1.944 2.3812c-0.6363-6e-4 -1.1519 0.51554-1.1508 1.1518v0.26044c0.001104-0.63442 0.51587-1.1483 1.1508-1.1477h2.9672c0.75 0 0.90392 0.083623 1.2707 0.62992 0.2962 0.44122 0.83942 0.42839 1.7554 0.42839h7.0501c0.63356-0.00333 1.1486 0.50792 1.1518 1.14v-0.25269c0.0033-0.63761-0.51424-1.1552-1.1518-1.1518h-7.0501c-0.91599 0-1.4592 0.012831-1.7554-0.42839-0.36678-0.5463-0.5207-0.62992-1.2707-0.62992h-2.9672z" fill="#ffffff" filter="url(#filter11)" opacity=".25"/>
 </g>
 <path class="ColorScheme-Text" d="m8.467 6.098-.811 2.104-2.249.118 1.748 1.423-.577 2.176 1.889-1.224 1.89 1.224-.578-2.176 1.747-1.423-2.248-.118z" opacity=".15"/>
 <path class="ColorScheme-Text" d="m8.467 6.0982-0.81079 2.1037-2.2494 0.11782 0.16174 0.13177 2.0877-0.11007 0.81079-2.1037 0.81079 2.1037 2.0867 0.11007 0.16174-0.13177-2.2484-0.11782-0.81079-2.1037zm-1.3425 3.7599-0.54673 2.0608 0.044958-0.028938 0.53226-2.0071-0.030488-0.024804zm2.6851 0-0.030488 0.024804 0.53277 2.0071 0.044958 0.028938-0.54724-2.0608z" fill="#000000" opacity=".15"/>
 <path class="ColorScheme-Text" d="m5.5835 8.4634-0.17673 0.0093015 1.7146 1.3958 0.033589-0.12557-1.5714-1.2795zm5.7665 0-1.5709 1.2795 0.033589 0.12557 1.7136-1.3958-0.17621-0.0093015zm-2.883 2.2313-1.8402 1.1927-0.049092 0.18448 1.8893-1.2242 1.8898 1.2242-0.049092-0.18448-1.8407-1.1927z" fill="#ffffff" opacity=".2"/>
</svg>
