<svg width="64" height="64" version="1.1" viewBox="0 0 16.933 16.933" xmlns="http://www.w3.org/2000/svg">
 <defs>
  <filter id="filter9" x="-.0065174" y="-.075603" width="1.013" height="1.1512" color-interpolation-filters="sRGB">
   <feGaussianBlur stdDeviation="0.041672346"/>
  </filter>
  <filter id="filter11" x="-.0069629" y="-.043386" width="1.0139" height="1.0868" color-interpolation-filters="sRGB">
   <feGaussianBlur stdDeviation="0.044522292"/>
  </filter>
  <filter id="filter12" x="-.03226" y="-.045842" width="1.0645" height="1.0917" color-interpolation-filters="sRGB">
   <feGaussianBlur stdDeviation="0.13691812"/>
  </filter>
  <linearGradient id="a" x1="8.466" x2="8.466" y1="12.7" y2="2.381" gradientUnits="userSpaceOnUse">
   <stop offset="0"/>
   <stop stop-opacity="0" offset="1"/>
  </linearGradient>
  <linearGradient id="c" x1="8.467" x2="8.467" y1="4.498" y2="14.552" gradientUnits="userSpaceOnUse">
   <stop stop-color="#fff" offset="0"/>
   <stop offset="1"/>
  </linearGradient>
 </defs>
 <g id="folder">
  <path d="m1.945 2.381h2.965c0.75 0 0.904 0.084 1.27 0.63 0.297 0.441 0.84 0.429 1.756 0.429h7.05a1.146 1.146 0 0 1 1.152 1.152v6.956a1.15 1.15 0 0 1-1.152 1.152h-13.042a1.15 1.15 0 0 1-1.15-1.152v-8.015a1.15 1.15 0 0 1 1.15-1.152z" fill="#27d83d"/>
  <path d="m1.945 2.381h2.965c0.75 0 0.904 0.084 1.27 0.63 0.297 0.441 0.84 0.429 1.756 0.429h7.05a1.146 1.146 0 0 1 1.152 1.152v6.956a1.15 1.15 0 0 1-1.152 1.152h-13.042a1.15 1.15 0 0 1-1.15-1.152v-8.015a1.15 1.15 0 0 1 1.15-1.152z" fill="url(#a)"/>
  <rect x="1.3229" y="3.9687" width="14.287" height="10.054" rx=".52916" ry=".52916" fill="none" filter="url(#filter12)" opacity=".1" stroke="#000000" stroke-width=".26458"/>
  <rect x="1.3229" y="3.9687" width="14.287" height="10.054" rx=".52916" ry=".52916" fill="#ffffff" stroke-width=".9649"/>
  <rect x=".794" y="4.498" width="15.346" height="10.054" rx="1.058" ry="1.058" fill="#27d83d"/>
  <rect x=".793" y="4.498" width="15.346" height="10.054" rx="1.058" ry="1.058" fill="url(#c)" opacity=".15"/>
  <path d="m1.852 4.4978c-0.5863 0-1.0583 0.47201-1.0583 1.0583v0.26458c0-0.5863 0.47201-1.0583 1.0583-1.0583h13.229c0.5863 0 1.0583 0.47201 1.0583 1.0583v-0.26458c0-0.5863-0.47201-1.0583-1.0583-1.0583z" fill="#ffffff" filter="url(#filter9)" opacity=".15"/>
  <path transform="matrix(1,0,0,-1,0,19.05)" d="m1.852 4.4978c-0.5863 0-1.0583 0.47201-1.0583 1.0583v0.26458c0-0.5863 0.47201-1.0583 1.0583-1.0583h13.229c0.5863 0 1.0583 0.47201 1.0583 1.0583v-0.26458c0-0.5863-0.47201-1.0583-1.0583-1.0583z" fill="#000000" filter="url(#filter9)" opacity=".1"/>
  <path d="m1.944 2.3812c-0.6363-6e-4 -1.1519 0.51554-1.1508 1.1518v0.26044c0.001104-0.63442 0.51587-1.1483 1.1508-1.1477h2.9672c0.75 0 0.90392 0.083623 1.2707 0.62992 0.2962 0.44122 0.83942 0.42839 1.7554 0.42839h7.0501c0.63356-0.00333 1.1486 0.50792 1.1518 1.14v-0.25269c0.0033-0.63761-0.51424-1.1552-1.1518-1.1518h-7.0501c-0.91599 0-1.4592 0.012831-1.7554-0.42839-0.36678-0.5463-0.5207-0.62992-1.2707-0.62992h-2.9672z" fill="#ffffff" filter="url(#filter11)" opacity=".25"/>
 </g>
 <path d="m9.062 6.881c-0.79091-0.0073396-1.5141 0.44536-1.853 1.16-0.64277-0.49898-1.5798-0.054468-1.6 0.759-1.426 0.53727-1.1917 2.6226 0.318 2.83l0.12297 0.014h4.957v-3e-3c1.6345-0.10841 1.7009-2.4876 0.075-2.687 3e-3 -0.043 4e-3 -0.085 4e-3 -0.128 0-1.074-0.906-1.945-2.024-1.945z" color="#4d4d4d" opacity=".15"/>
 <path d="m9.0618 6.8811a2.03 2.03 0 0 0-1.8526 1.1601 0.992 0.992 0 0 0-1.6004 0.7586 1.469 1.469 0 0 0-0.94669 1.4634 1.469 1.469 0 0 1 0.94669-1.3281 0.992 0.992 0 0 1 1.6004-0.75911 2.03 2.03 0 0 1 1.8526-1.1601c1.0956 0 1.9878 0.83676 2.0231 1.881 7.81e-4 -0.02351 0.001034-0.047012 0.001034-0.070795 0-1.074-0.90613-1.9451-2.0241-1.9451zm2.0241 2.0732c7e-6 0.0022064 0 0.0045097 0 0.0067178 0 0.043-0.001134 0.085155-0.004134 0.12816a1.35 1.35 0 0 1 1.1818 1.2583 1.35 1.35 0 0 0-1.1777-1.3932z" fill="#000000" opacity=".15"/>
 <path d="m11.084 8.9073c-6.11e-4 0.0155-0.001491 0.030838-0.002584 0.046508 0.001151 1.412e-4 0.002467 3.733e-4 0.003617 5.167e-4 -1.12e-4 -0.015756-5.33e-4 -0.03136-0.001033-0.047025zm-6.4253 1.3239c-0.034817 0.70096 0.41109 1.4233 1.2676 1.541l0.11059 0.013953h4.9691v-0.003101c0.86326-0.057256 1.2892-0.74799 1.2593-1.4164-0.032106 0.62099-0.45666 1.2211-1.2588 1.2743v0.0031h-4.9567l-0.12299-0.013952c-0.7987-0.10972-1.2403-0.7452-1.2681-1.3989z" fill="#ffffff" opacity=".2"/>
</svg>
