<svg width="64" height="64" version="1.1" viewBox="0 0 16.933 16.933" xmlns="http://www.w3.org/2000/svg">
 <defs>
  <filter id="filter9" x="-.0065174" y="-.075603" width="1.013" height="1.1512" color-interpolation-filters="sRGB">
   <feGaussianBlur stdDeviation="0.041672346"/>
  </filter>
  <filter id="filter11" x="-.0069629" y="-.043386" width="1.0139" height="1.0868" color-interpolation-filters="sRGB">
   <feGaussianBlur stdDeviation="0.044522292"/>
  </filter>
  <filter id="filter12" x="-.03226" y="-.045842" width="1.0645" height="1.0917" color-interpolation-filters="sRGB">
   <feGaussianBlur stdDeviation="0.13691812"/>
  </filter>
  <linearGradient id="a" x1="8.466" x2="8.466" y1="12.7" y2="2.381" gradientUnits="userSpaceOnUse">
   <stop offset="0"/>
   <stop stop-opacity="0" offset="1"/>
  </linearGradient>
  <linearGradient id="c" x1="8.467" x2="8.467" y1="4.498" y2="14.552" gradientUnits="userSpaceOnUse">
   <stop stop-color="#fff" offset="0"/>
   <stop offset="1"/>
  </linearGradient>
 </defs>
 <g id="folder">
  <path d="m1.945 2.381h2.965c0.75 0 0.904 0.084 1.27 0.63 0.297 0.441 0.84 0.429 1.756 0.429h7.05a1.146 1.146 0 0 1 1.152 1.152v6.956a1.15 1.15 0 0 1-1.152 1.152h-13.042a1.15 1.15 0 0 1-1.15-1.152v-8.015a1.15 1.15 0 0 1 1.15-1.152z" fill="#686868"/>
  <path d="m1.945 2.381h2.965c0.75 0 0.904 0.084 1.27 0.63 0.297 0.441 0.84 0.429 1.756 0.429h7.05a1.146 1.146 0 0 1 1.152 1.152v6.956a1.15 1.15 0 0 1-1.152 1.152h-13.042a1.15 1.15 0 0 1-1.15-1.152v-8.015a1.15 1.15 0 0 1 1.15-1.152z" fill="url(#a)"/>
  <rect x="1.3229" y="3.9687" width="14.287" height="10.054" rx=".52916" ry=".52916" fill="none" filter="url(#filter12)" opacity=".1" stroke="#000000" stroke-width=".26458"/>
  <rect x="1.3229" y="3.9687" width="14.287" height="10.054" rx=".52916" ry=".52916" fill="#ffffff" stroke-width=".9649"/>
  <rect x=".794" y="4.498" width="15.346" height="10.054" rx="1.058" ry="1.058" fill="#686868"/>
  <rect x=".793" y="4.498" width="15.346" height="10.054" rx="1.058" ry="1.058" fill="url(#c)" opacity=".15"/>
  <path d="m1.852 4.4978c-0.5863 0-1.0583 0.47201-1.0583 1.0583v0.26458c0-0.5863 0.47201-1.0583 1.0583-1.0583h13.229c0.5863 0 1.0583 0.47201 1.0583 1.0583v-0.26458c0-0.5863-0.47201-1.0583-1.0583-1.0583z" fill="#ffffff" filter="url(#filter9)" opacity=".15"/>
  <path transform="matrix(1,0,0,-1,0,19.05)" d="m1.852 4.4978c-0.5863 0-1.0583 0.47201-1.0583 1.0583v0.26458c0-0.5863 0.47201-1.0583 1.0583-1.0583h13.229c0.5863 0 1.0583 0.47201 1.0583 1.0583v-0.26458c0-0.5863-0.47201-1.0583-1.0583-1.0583z" fill="#000000" filter="url(#filter9)" opacity=".1"/>
  <path d="m1.944 2.3812c-0.6363-6e-4 -1.1519 0.51554-1.1508 1.1518v0.26044c0.001104-0.63442 0.51587-1.1483 1.1508-1.1477h2.9672c0.75 0 0.90392 0.083623 1.2707 0.62992 0.2962 0.44122 0.83942 0.42839 1.7554 0.42839h7.0501c0.63356-0.00333 1.1486 0.50792 1.1518 1.14v-0.25269c0.0033-0.63761-0.51424-1.1552-1.1518-1.1518h-7.0501c-0.91599 0-1.4592 0.012831-1.7554-0.42839-0.36678-0.5463-0.5207-0.62992-1.2707-0.62992h-2.9672z" fill="#ffffff" filter="url(#filter11)" opacity=".25"/>
 </g>
 <path d="m5.7799 6.3499c-0.496 0-0.89502 0.40002-0.89502 0.89502v4.0302c0 0.496 0.39902 0.89605 0.89502 0.89605h5.3732c0.496 0 0.89502-0.40005 0.89502-0.89605v-4.0302c0-0.496-0.39902-0.89502-0.89502-0.89502h-5.3732zm0 0.44803h5.3732c0.248 0 0.44803 0.19999 0.44803 0.44699v0.16329h-6.2693v-0.16329c0-0.248 0.20003-0.44699 0.44803-0.44699zm-0.44803 1.0072h6.2693v3.47c0 0.248-0.20003 0.44803-0.44803 0.44803h-5.3732a0.447 0.447 0 0 1-0.44803-0.44803v-3.47zm0.89605 2.575a0.44751 0.44751 0 1 0 0 0.89502h4.4772a0.44751 0.44751 0 1 0 0-0.89502h-4.4772z" fill="#000000" opacity=".15"/>
 <path d="m5.7799 6.3499c-0.496 0-0.89502 0.40002-0.89502 0.89502v0.12557c0-0.495 0.39902-0.89502 0.89502-0.89502h5.3732c0.496 0 0.89502 0.39902 0.89502 0.89502v-0.12557c0-0.496-0.39902-0.89502-0.89502-0.89502h-5.3732zm-0.44803 1.0583v0.12557h6.2693v-0.12557h-6.2693zm0.89605 2.9719a0.44751 0.44751 0 0 0-0.44234 0.51004 0.44751 0.44751 0 0 1 0.44234-0.38446h4.4772a0.44751 0.44751 0 0 1 0.44234 0.38446 0.44751 0.44751 0 0 0-0.44234-0.51004h-4.4772zm5.3732 0.89502c0 0.248-0.20003 0.44803-0.44803 0.44803h-5.3732a0.447 0.447 0 0 1-0.44803-0.44596v0.1235a0.447 0.447 0 0 0 0.44803 0.44803h5.3732c0.248 0 0.44803-0.20003 0.44803-0.44803v-0.12557z" fill="#000000" opacity=".15"/>
 <path d="m5.7799 6.7979c-0.248 0-0.44803 0.19899-0.44803 0.44699v0.12557c0-0.248 0.20003-0.44699 0.44803-0.44699h5.3732c0.248 0 0.44803 0.19999 0.44803 0.44699v-0.12557c0-0.247-0.20003-0.44699-0.44803-0.44699h-5.3732zm-0.44803 1.0072v0.12557h6.2693v-0.12557h-6.2693zm0.45371 3.085a0.44751 0.44751 0 0 0 0.44234 0.51055h4.4772a0.44751 0.44751 0 0 0 0.44234-0.51055 0.44751 0.44751 0 0 1-0.44234 0.38498h-4.4772a0.44751 0.44751 0 0 1-0.44234-0.38498zm-0.9007 0.38498v0.12557c0 0.496 0.39902 0.89605 0.89502 0.89605h5.3732c0.496 0 0.89502-0.40005 0.89502-0.89605v-0.12557c0 0.496-0.39902 0.89605-0.89502 0.89605h-5.3732c-0.496 0-0.89502-0.40005-0.89502-0.89605z" fill="#ffffff" opacity=".2"/>
</svg>
