<svg width="64" height="64" version="1.1" viewBox="0 0 16.933 16.933" xmlns="http://www.w3.org/2000/svg">
 <defs>
  <filter id="filter9" x="-.0065174" y="-.075603" width="1.013" height="1.1512" color-interpolation-filters="sRGB">
   <feGaussianBlur stdDeviation="0.041672346"/>
  </filter>
  <filter id="filter11" x="-.0069629" y="-.043386" width="1.0139" height="1.0868" color-interpolation-filters="sRGB">
   <feGaussianBlur stdDeviation="0.044522292"/>
  </filter>
  <filter id="filter12" x="-.03226" y="-.045842" width="1.0645" height="1.0917" color-interpolation-filters="sRGB">
   <feGaussianBlur stdDeviation="0.13691812"/>
  </filter>
  <linearGradient id="a" x1="8.466" x2="8.466" y1="12.7" y2="2.381" gradientUnits="userSpaceOnUse">
   <stop offset="0"/>
   <stop stop-opacity="0" offset="1"/>
  </linearGradient>
  <linearGradient id="c" x1="8.467" x2="8.467" y1="4.498" y2="14.552" gradientUnits="userSpaceOnUse">
   <stop stop-color="#fff" offset="0"/>
   <stop offset="1"/>
  </linearGradient>
 </defs>
 <g id="folder">
  <path d="m1.945 2.381h2.965c0.75 0 0.904 0.084 1.27 0.63 0.297 0.441 0.84 0.429 1.756 0.429h7.05a1.146 1.146 0 0 1 1.152 1.152v6.956a1.15 1.15 0 0 1-1.152 1.152h-13.042a1.15 1.15 0 0 1-1.15-1.152v-8.015a1.15 1.15 0 0 1 1.15-1.152z" fill="#ff8b1d"/>
  <path d="m1.945 2.381h2.965c0.75 0 0.904 0.084 1.27 0.63 0.297 0.441 0.84 0.429 1.756 0.429h7.05a1.146 1.146 0 0 1 1.152 1.152v6.956a1.15 1.15 0 0 1-1.152 1.152h-13.042a1.15 1.15 0 0 1-1.15-1.152v-8.015a1.15 1.15 0 0 1 1.15-1.152z" fill="url(#a)"/>
  <rect x="1.3229" y="3.9687" width="14.287" height="10.054" rx=".52916" ry=".52916" fill="none" filter="url(#filter12)" opacity=".1" stroke="#000000" stroke-width=".26458"/>
  <rect x="1.3229" y="3.9687" width="14.287" height="10.054" rx=".52916" ry=".52916" fill="#ffffff" stroke-width=".9649"/>
  <rect x=".794" y="4.498" width="15.346" height="10.054" rx="1.058" ry="1.058" fill="#ff8b1d"/>
  <rect x=".793" y="4.498" width="15.346" height="10.054" rx="1.058" ry="1.058" fill="url(#c)" opacity=".15"/>
  <path d="m1.852 4.4978c-0.5863 0-1.0583 0.47201-1.0583 1.0583v0.26458c0-0.5863 0.47201-1.0583 1.0583-1.0583h13.229c0.5863 0 1.0583 0.47201 1.0583 1.0583v-0.26458c0-0.5863-0.47201-1.0583-1.0583-1.0583z" fill="#ffffff" filter="url(#filter9)" opacity=".15"/>
  <path transform="matrix(1,0,0,-1,0,19.05)" d="m1.852 4.4978c-0.5863 0-1.0583 0.47201-1.0583 1.0583v0.26458c0-0.5863 0.47201-1.0583 1.0583-1.0583h13.229c0.5863 0 1.0583 0.47201 1.0583 1.0583v-0.26458c0-0.5863-0.47201-1.0583-1.0583-1.0583z" fill="#000000" filter="url(#filter9)" opacity=".1"/>
  <path d="m1.944 2.3812c-0.6363-6e-4 -1.1519 0.51554-1.1508 1.1518v0.26044c0.001104-0.63442 0.51587-1.1483 1.1508-1.1477h2.9672c0.75 0 0.90392 0.083623 1.2707 0.62992 0.2962 0.44122 0.83942 0.42839 1.7554 0.42839h7.0501c0.63356-0.00333 1.1486 0.50792 1.1518 1.14v-0.25269c0.0033-0.63761-0.51424-1.1552-1.1518-1.1518h-7.0501c-0.91599 0-1.4592 0.012831-1.7554-0.42839-0.36678-0.5463-0.5207-0.62992-1.2707-0.62992h-2.9672z" fill="#ffffff" filter="url(#filter11)" opacity=".25"/>
 </g>
 <path d="m4.2702 11.034c0 0.69869 0.45814 1.1368 1.1196 1.1368 0.37797 0 0.71871-0.16322 0.97642-0.45816l0.50968-0.59271c0.071586-0.08591 0.14603-0.12312 0.2348-0.12312h2.7116c0.08878 0 0.16322 0.03721 0.2348 0.12311l0.5097 0.59271c0.2577 0.29494 0.59844 0.45816 0.97643 0.45816 0.66142 0 1.1196-0.43809 1.1196-1.1368 0-0.30064-0.06588-0.64138-0.17752-1.0194-0.17756-0.5927-0.48393-1.3916-0.776-2.0072-0.2491-0.52114-0.38368-0.77598-1.0136-0.91915-0.55264-0.12599-1.3086-0.20903-2.2277-0.20903s-1.6779 0.08304-2.2306 0.20903c-0.62708 0.14317-0.76453 0.39801-1.0136 0.91915-0.29206 0.61562-0.59845 1.4145-0.77598 2.0072-0.11167 0.37798-0.17753 0.71873-0.17753 1.0194zm0.53832-0.0058c0-0.17466 0.040086-0.38368 0.12885-0.68719 0.19185-0.66139 0.524-1.5147 0.81034-2.1446 0.13744-0.30066 0.21762-0.4696 0.5555-0.54977 0.52687-0.12313 1.2627-0.20616 2.1647-0.20616 0.89912 0 1.6378 0.083038 2.1647 0.20616 0.33788 0.080174 0.41235 0.24912 0.55264 0.54977 0.29207 0.62996 0.61278 1.4832 0.81321 2.1447 0.08878 0.30351 0.12598 0.51253 0.12598 0.68719 0 0.36938-0.2577 0.59561-0.59558 0.59561-0.20616 0-0.40945-0.10882-0.57268-0.2978l-0.57554-0.65285c-0.14032-0.16322-0.25483-0.24053-0.5011-0.24053h-2.8233c-0.24912 0-0.36365 0.0773-0.50396 0.24053l-0.57268 0.65285c-0.16321 0.18899-0.36938 0.2978-0.57268 0.2978-0.34074 0-0.59845-0.22623-0.59845-0.59561zm1.32-2.0616c0 0.16035 0.10022 0.26057 0.26057 0.26057h0.48105v0.46673c0 0.16035 0.097356 0.26343 0.25484 0.26343 0.15461 0 0.25199-0.10308 0.25199-0.26343v-0.46673h0.45239c0.17469 0 0.28064-0.10021 0.28064-0.26057 0-0.15462-0.10595-0.25483-0.28064-0.25483h-0.45239v-0.46387c0-0.16035-0.097378-0.26343-0.25199-0.26343-0.15749 0-0.25484 0.10308-0.25484 0.26343v0.46387h-0.48105c-0.16035 0-0.26057 0.10021-0.26057 0.25483zm4.1262-0.02577c0.24053 0 0.42379-0.18326 0.42379-0.42379 0-0.24052-0.18326-0.42663-0.42379-0.42663-0.2348 0-0.42379 0.18612-0.42379 0.42663 0 0.24053 0.18899 0.42379 0.42379 0.42379zm-0.85044 0.85901c0.24053 0 0.42379-0.18326 0.42379-0.42092 0-0.2405-0.18326-0.42662-0.42379-0.42662-0.23766 0-0.42379 0.18612-0.42379 0.42662 0 0.23766 0.18612 0.42092 0.42379 0.42092z" fill="#000000" opacity=".15" stroke-width=".32579"/>
 <path d="m8.4681 6.879c-0.91915 0-1.6782 0.082781-2.2308 0.20877-0.62708 0.14317-0.76424 0.39817-1.0134 0.91931-0.29206 0.61562-0.59863 1.4144-0.77616 2.0071-0.11167 0.37798-0.17776 0.71892-0.17776 1.0196 0 0.021274 7.08e-4 0.042257 0.0015503 0.063044 0.0096207-0.28238 0.073518-0.59859 0.17621-0.94618 0.17753-0.59271 0.4841-1.3915 0.77616-2.0071 0.24912-0.52114 0.38627-0.77613 1.0134-0.91931 0.55264-0.12599 1.3117-0.20877 2.2308-0.20877s1.6751 0.082782 2.2277 0.20877c0.62995 0.14317 0.76426 0.39817 1.0134 0.91931 0.29207 0.61562 0.59861 1.4144 0.77616 2.0071 0.10266 0.34759 0.16659 0.6638 0.17621 0.94618 8.43e-4 -0.020788 0.00155-0.041768 0.00155-0.063044 0-0.30064-0.066121-0.64157-0.17776-1.0196-0.17756-0.5927-0.48409-1.3915-0.77616-2.0071-0.2491-0.52114-0.38341-0.77613-1.0134-0.91931-0.55264-0.12599-1.3086-0.20877-2.2277-0.20877zm-1.343 1.1053c-0.15749 0-0.25476 0.1032-0.25476 0.26354v0.13642c0-0.16035 0.097272-0.26354 0.25476-0.26354 0.15461 0 0.25218 0.1032 0.25218 0.26354v-0.13642c0-0.16035-0.097565-0.26354-0.25218-0.26354zm3.1295 0.10593c-0.2348 0-0.42374 0.18581-0.42374 0.42632 0 0.023296 0.001752 0.046104 0.0051675 0.068212 0.03185-0.20659 0.20651-0.35811 0.41857-0.35811 0.21724 0 0.3881 0.15152 0.41909 0.35811 0.003324-0.022107 0.005168-0.044916 0.005168-0.068212 0-0.24052-0.18372-0.42632-0.42426-0.42632zm-3.8653 0.62114c-0.16035 0-0.26044 0.10014-0.26044 0.25476 0 0.024568 0.0021573 0.048162 0.0067178 0.069762 0.025207-0.1159 0.11794-0.1881 0.25373-0.1881h0.4811v-0.13642h-0.4811zm0.98803 0v0.13642h0.45216c0.14793 0 0.24661 0.072195 0.27336 0.1881 0.0048399-0.0216 0.0072345-0.045194 0.0072345-0.069762 0-0.15462-0.10591-0.25476-0.2806-0.25476h-0.45216zm2.0272 0.24081c-0.23766 0-0.42374 0.18582-0.42374 0.42632 0 0.023151 0.0017598 0.046212 0.0051675 0.068212 0.031576-0.20638 0.20406-0.35811 0.41857-0.35811 0.2171 0 0.38743 0.15173 0.41857 0.35811 0.0033613-0.021999 0.0051676-0.045061 0.0051676-0.068212 0-0.2405-0.18321-0.42632-0.42374-0.42632zm-2.3481 1.48c-0.24912 0-0.36353 0.077576-0.50384 0.24081l-0.57256 0.65266c-0.16321 0.18899-0.36978 0.29817-0.57308 0.29817-0.32168 0-0.56911-0.20201-0.59582-0.53536-0.0016009 0.026015-0.0025837 0.051465-0.0025837 0.075962 0 0.36938 0.25766 0.59582 0.5984 0.59582 0.2033 0 0.40987-0.10918 0.57308-0.29817l0.57256-0.65266c0.1403-0.16323 0.25472-0.24081 0.50384-0.24081h2.8235c0.24627 0 0.36042 0.077587 0.50073 0.24081l0.57566 0.65266c0.16322 0.18899 0.3664 0.29817 0.57256 0.29817 0.33788 0 0.59582-0.22644 0.59582-0.59582 0-0.02486-0.001035-0.05057-0.002584-0.076996-0.026246 0.334-0.27391 0.53639-0.59323 0.53639-0.20616 0-0.40934-0.10918-0.57256-0.29817l-0.57566-0.65266c-0.14032-0.16322-0.25447-0.24081-0.50073-0.24081h-2.8235z" fill="#000000" opacity=".15" stroke-width=".32579"/>
 <path d="m8.4681 7.4402c-0.90198 0-1.6378 0.083059-2.1647 0.20618-0.33788 0.080174-0.41807 0.24917-0.55551 0.54983-0.28634 0.62996-0.61843 1.4831-0.81027 2.1445-0.088768 0.30351-0.12919 0.51263-0.12919 0.68728 0 0.020633 0.0010061 0.040736 0.0025837 0.060461 0.0097995-0.15949 0.050268-0.35031 0.1266-0.61132 0.19185-0.66139 0.52393-1.5151 0.81027-2.145 0.13744-0.30066 0.21763-0.46914 0.55551-0.54931 0.52687-0.12313 1.2627-0.20618 2.1647-0.20618 0.89912 0 1.6378 0.083059 2.1647 0.20618 0.33788 0.080174 0.41213 0.24865 0.55241 0.54931 0.29207 0.62996 0.61294 1.4836 0.81337 2.145 0.076164 0.26038 0.11418 0.45103 0.1235 0.61029 0.00152-0.019379 0.002584-0.039173 0.002584-0.059427 0-0.17466-0.037308-0.38378-0.12609-0.68728-0.20043-0.66145-0.5213-1.5146-0.81337-2.1445-0.14028-0.30066-0.21453-0.46965-0.55241-0.54983-0.52687-0.12313-1.2656-0.20618-2.1647-0.20618zm1.3678 1.1446c-0.0034041 0.022119-0.0051675 0.044957-0.0051675 0.068212 0 0.24053 0.18894 0.42374 0.42374 0.42374 0.24053 0 0.42426-0.18321 0.42426-0.42374 0-0.023255-0.001856-0.046093-0.005168-0.068212-0.030947 0.20621-0.20181 0.35604-0.41909 0.35604-0.2121 0-0.38677-0.14984-0.41857-0.35604zm-3.7005 0.45061c-0.0045447 0.020938-0.0067178 0.043531-0.0067178 0.067178 0 0.16035 0.10009 0.26044 0.26044 0.26044h0.4811v-0.13591h-0.4811c-0.13583 0-0.22855-0.072262-0.25373-0.19172zm1.9673 0c-0.026713 0.11945-0.12539 0.19172-0.27336 0.19172h-0.45216v0.13591h0.45216c0.17469 0 0.2806-0.10009 0.2806-0.26044 0-0.023647-0.0024115-0.04624-0.0072345-0.067178zm0.88313 0.41082c-0.0033963 0.022237-0.0051675 0.045341-0.0051675 0.068728 0 0.23766 0.18607 0.42064 0.42374 0.42064 0.24053 0 0.42374-0.18297 0.42374-0.42064 0-0.023387-0.0018175-0.046491-0.0051676-0.068728-0.0311 0.2039-0.20143 0.35346-0.41857 0.35346-0.21455 0-0.38704-0.14956-0.41857-0.35346zm-2.1156 0.24753v0.13591c0 0.16035 0.097273 0.26354 0.25476 0.26354 0.15461 0 0.25218-0.10319 0.25218-0.26354v-0.13591c0 0.16036-0.097566 0.26354-0.25218 0.26354-0.15749 0-0.25476-0.10319-0.25476-0.26354zm0.24029 1.3027c-0.088765 0-0.16302 0.037078-0.23461 0.12299l-0.50952 0.59272c-0.25771 0.29494-0.5987 0.45836-0.97667 0.45836-0.64134 0-1.0915-0.41188-1.1183-1.0738-8.385e-4 0.02465-0.0015503 0.049244-0.0015503 0.073379 0 0.69869 0.45836 1.1363 1.1198 1.1363 0.37797 0 0.71896-0.16291 0.97667-0.45784l0.50952-0.59272c0.071586-0.08591 0.14584-0.12299 0.23461-0.12299h2.7119c0.08878 0 0.16303 0.037086 0.23461 0.12299l0.50952 0.59272c0.2577 0.29494 0.59868 0.45784 0.97666 0.45784 0.66142 0 1.1198-0.43765 1.1198-1.1363 0-0.024134-7.11e-4 -0.048731-0.00155-0.073379-0.026781 0.66193-0.47694 1.0738-1.1183 1.0738-0.37798 0-0.71896-0.16342-0.97666-0.45836l-0.50952-0.59272c-0.071577-0.085902-0.14583-0.12299-0.23461-0.12299h-2.7119z" fill="#ffffff" opacity=".2" stroke-width=".32579"/>
</svg>
