<svg width="64" height="64" version="1.1" viewBox="0 0 16.933 16.933" xmlns="http://www.w3.org/2000/svg">
 <defs>
  <filter id="filter9" x="-.0065174" y="-.075603" width="1.013" height="1.1512" color-interpolation-filters="sRGB">
   <feGaussianBlur stdDeviation="0.041672346"/>
  </filter>
  <filter id="filter11" x="-.0069629" y="-.043386" width="1.0139" height="1.0868" color-interpolation-filters="sRGB">
   <feGaussianBlur stdDeviation="0.044522292"/>
  </filter>
  <filter id="filter12" x="-.03226" y="-.045842" width="1.0645" height="1.0917" color-interpolation-filters="sRGB">
   <feGaussianBlur stdDeviation="0.13691812"/>
  </filter>
  <linearGradient id="a" x1="8.466" x2="8.466" y1="12.7" y2="2.381" gradientUnits="userSpaceOnUse">
   <stop offset="0"/>
   <stop stop-opacity="0" offset="1"/>
  </linearGradient>
  <linearGradient id="c" x1="8.467" x2="8.467" y1="4.498" y2="14.552" gradientUnits="userSpaceOnUse">
   <stop stop-color="#fff" offset="0"/>
   <stop offset="1"/>
  </linearGradient>
 </defs>
 <g id="folder">
  <path d="m1.945 2.381h2.965c0.75 0 0.904 0.084 1.27 0.63 0.297 0.441 0.84 0.429 1.756 0.429h7.05a1.146 1.146 0 0 1 1.152 1.152v6.956a1.15 1.15 0 0 1-1.152 1.152h-13.042a1.15 1.15 0 0 1-1.15-1.152v-8.015a1.15 1.15 0 0 1 1.15-1.152z" fill="#aa5adc"/>
  <path d="m1.945 2.381h2.965c0.75 0 0.904 0.084 1.27 0.63 0.297 0.441 0.84 0.429 1.756 0.429h7.05a1.146 1.146 0 0 1 1.152 1.152v6.956a1.15 1.15 0 0 1-1.152 1.152h-13.042a1.15 1.15 0 0 1-1.15-1.152v-8.015a1.15 1.15 0 0 1 1.15-1.152z" fill="url(#a)"/>
  <rect x="1.3229" y="3.9687" width="14.287" height="10.054" rx=".52916" ry=".52916" fill="none" filter="url(#filter12)" opacity=".1" stroke="#000000" stroke-width=".26458"/>
  <rect x="1.3229" y="3.9687" width="14.287" height="10.054" rx=".52916" ry=".52916" fill="#ffffff" stroke-width=".9649"/>
  <rect x=".794" y="4.498" width="15.346" height="10.054" rx="1.058" ry="1.058" fill="#aa5adc"/>
  <rect x=".793" y="4.498" width="15.346" height="10.054" rx="1.058" ry="1.058" fill="url(#c)" opacity=".15"/>
  <path d="m1.852 4.4978c-0.5863 0-1.0583 0.47201-1.0583 1.0583v0.26458c0-0.5863 0.47201-1.0583 1.0583-1.0583h13.229c0.5863 0 1.0583 0.47201 1.0583 1.0583v-0.26458c0-0.5863-0.47201-1.0583-1.0583-1.0583z" fill="#ffffff" filter="url(#filter9)" opacity=".15"/>
  <path transform="matrix(1,0,0,-1,0,19.05)" d="m1.852 4.4978c-0.5863 0-1.0583 0.47201-1.0583 1.0583v0.26458c0-0.5863 0.47201-1.0583 1.0583-1.0583h13.229c0.5863 0 1.0583 0.47201 1.0583 1.0583v-0.26458c0-0.5863-0.47201-1.0583-1.0583-1.0583z" fill="#000000" filter="url(#filter9)" opacity=".1"/>
  <path d="m1.944 2.3812c-0.6363-6e-4 -1.1519 0.51554-1.1508 1.1518v0.26044c0.001104-0.63442 0.51587-1.1483 1.1508-1.1477h2.9672c0.75 0 0.90392 0.083623 1.2707 0.62992 0.2962 0.44122 0.83942 0.42839 1.7554 0.42839h7.0501c0.63356-0.00333 1.1486 0.50792 1.1518 1.14v-0.25269c0.0033-0.63761-0.51424-1.1552-1.1518-1.1518h-7.0501c-0.91599 0-1.4592 0.012831-1.7554-0.42839-0.36678-0.5463-0.5207-0.62992-1.2707-0.62992h-2.9672z" fill="#ffffff" filter="url(#filter11)" opacity=".25"/>
 </g>
 <path d="m8.4665 6.2718c-0.20289 0-0.40573 0.077588-0.5612 0.23306l-2.6194 2.6189c-0.31094 0.31094-0.31094 0.81197 0 1.1229l2.6194 2.6189c0.31094 0.31094 0.81146 0.31094 1.1224 0l2.6194-2.6189c0.31094-0.31094 0.31094-0.81197 0-1.1229l-2.6194-2.6189c-0.15547-0.15547-0.3583-0.23306-0.5612-0.23306zm0 0.52967c0.067631 0 0.13524 0.025691 0.18706 0.077513l2.6194 2.6194c0.10364 0.10364 0.10364 0.27048 0 0.37413l-2.6194 2.6189c-0.10365 0.10365-0.27048 0.10364-0.37413 0l-2.6194-2.6189c-0.10364-0.10365-0.10365-0.27048 0-0.37413l2.6194-2.6194c0.051823-0.051822 0.11943-0.077513 0.18706-0.077513zm0.12867 0.87125c-0.20655 0-0.36948 0.16757-0.36948 0.37568 0 0.19879 0.16293 0.37 0.36948 0.37 0.20657 0 0.37413-0.1712 0.37413-0.37 0-0.20811-0.16756-0.37568-0.37413-0.37568zm-0.19585 0.8821c-0.18015 0-0.31027 0.097889-0.478 0.26096l-0.25476 0.25321c-0.086971 0.085419-0.11522 0.15533-0.12299 0.26406l-0.032556 0.39428c-0.00777 0.10715 0.053053 0.17723 0.14934 0.18345 0.091631 0.0062 0.15966-0.048384 0.17053-0.16329l0.035656-0.43149 0.15089-0.13384c0.027954-0.024845 0.068203-0.010923 0.065111 0.031005l-0.027905 0.3886c-0.013978 0.18793 0.068572 0.32431 0.16174 0.44079l0.33227 0.41805c0.032602 0.04038 0.037177 0.055755 0.052709 0.085265l0.35398 0.71932c0.041932 0.08386 0.10427 0.11162 0.1695 0.11162 0.088529 0 0.16743-0.065436 0.16743-0.17415 0-0.04038-0.010826-0.07743-0.032556-0.12092l-0.33227-0.67385c-0.02951-0.06057-0.0635-0.11516-0.094566-0.15864l-0.2036-0.28887 0.012402-0.038756c0.055909-0.1786 0.07801-0.28754 0.090432-0.45836l0.034106-0.47955c0.017087-0.23606-0.11995-0.42891-0.3669-0.42891zm0.50642 0.37103-0.029455 0.42736 0.11627 0.11627c0.055909 0.05591 0.10887 0.073379 0.20515 0.073379h0.37568c0.10871 0 0.17725-0.063911 0.17725-0.16019 0-0.096287-0.070085-0.16019-0.1788-0.16019h-0.39273l-0.27336-0.29662zm-0.82474 1.1792-0.083714 0.38963-0.47386 0.56223c-0.043485 0.04971-0.072862 0.092906-0.072862 0.15503 0 0.09631 0.073203 0.16484 0.16795 0.16484 0.054358 0 0.10226-0.024711 0.13642-0.065111l0.50022-0.59478c0.051262-0.06211 0.057311-0.07791 0.079063-0.13849 0.012423-0.04038 0.023226-0.078989 0.032556-0.11627l-0.28576-0.35708z" fill="#000000" opacity=".15"/>
 <path d="m8.4665 6.2718c-0.20289 0-0.40573 0.077588-0.5612 0.23306l-2.6194 2.6189c-0.17362 0.17362-0.25023 0.40653-0.22996 0.63251 0.016036-0.17871 0.092644-0.35309 0.22996-0.4904l2.6194-2.6189c0.15547-0.15547 0.3583-0.23306 0.5612-0.23306s0.40573 0.077588 0.5612 0.23306l2.6194 2.6189c0.13731 0.13731 0.21392 0.31169 0.22996 0.4904 0.020277-0.22598-0.056331-0.45888-0.22996-0.63251l-2.6194-2.6189c-0.15547-0.15547-0.3583-0.23306-0.5612-0.23306zm0.12867 1.4009c-0.20655 0-0.36948 0.16757-0.36948 0.37568 0 0.023686 0.0022934 0.047102 0.0067178 0.069762 0.032708-0.17322 0.18082-0.30333 0.36276-0.30333 0.18196 0 0.33385 0.13012 0.36741 0.30333 0.00454-0.02266 0.0067178-0.046075 0.0067178-0.069762 0-0.20811-0.16756-0.37568-0.37413-0.37568zm-0.19585 0.8821c-0.18015 0-0.31027 0.097889-0.478 0.26096l-0.25476 0.25321c-0.086971 0.085419-0.11522 0.15533-0.12299 0.26406l-0.032556 0.39428c-0.0018751 0.025858 3.56e-5 0.049632 0.0056843 0.070795l0.026871-0.32297c0.00777-0.10873 0.036016-0.17864 0.12299-0.26406l0.25476-0.25321c0.16773-0.16307 0.29785-0.26096 0.478-0.26096 0.20929 0 0.33982 0.13858 0.36431 0.32452l0.0025838-0.037723c0.017087-0.23606-0.11995-0.42891-0.3669-0.42891zm0.50642 0.37103-0.029455 0.42736 0.0093016 0.0093016 0.020153-0.29455 0.27336 0.29662h0.39273c0.079146 0 0.13775 0.033819 0.16381 0.089398 0.0097502-0.020905 0.014986-0.044871 0.014986-0.071312 0-0.096287-0.070085-0.16019-0.1788-0.16019h-0.39273l-0.27336-0.29662zm-0.83094 0.39893-0.020154 0.27698c-0.0027849 0.037443-0.0016155 0.07285 0.0025838 0.10645l0.025321-0.35294c9.607e-4 -0.013028-0.0020122-0.023191-0.0077513-0.030488zm-2.483 0.43149c-0.024809 0.088861-0.0019382 0.18823 0.068212 0.25838l2.6194 2.6189c0.10364 0.10364 0.27048 0.10365 0.37413 0l2.6194-2.6189c0.070149-0.070149 0.09302-0.16952 0.068211-0.25838-0.011845 0.04243-0.034716 0.082774-0.068211 0.11627l-2.6194 2.6189c-0.10365 0.10365-0.27048 0.10364-0.37413 0l-2.6194-2.6189c-0.033496-0.033496-0.056366-0.07384-0.068212-0.11627zm3.068 0.24753c-0.0056407 0.019149-0.011564 0.039107-0.018086 0.059943l-0.012402 0.038757 0.2036 0.28886c0.031066 0.04348 0.065056 0.098074 0.094566 0.15864l0.33227 0.67385c0.0084071 0.016826 0.015006 0.032595 0.020153 0.048058 0.0078492-0.020514 0.012402-0.04364 0.012402-0.069245 0-0.04038-0.010826-0.07743-0.032556-0.12092l-0.33227-0.67385c-0.02951-0.06057-0.0635-0.11516-0.094566-0.15864l-0.17311-0.24546zm-0.57876 0.10128-0.083714 0.38963-0.47386 0.56223c-0.043485 0.04971-0.072862 0.092906-0.072862 0.15503 0 0.025902 0.005401 0.049704 0.014986 0.070795 0.01278-0.028993 0.032959-0.05523 0.057876-0.083714l0.47386-0.56223 0.083714-0.38963 0.25631 0.32039c0.011054-0.036496 0.020957-0.071461 0.029455-0.10542l-0.28576-0.35708z" fill="#000000" opacity=".15"/>
 <path d="m8.4665 6.8015c-0.067631 0-0.13524 0.025691-0.18706 0.077513l-2.6194 2.6194c-0.070153 0.070152-0.093024 0.169-0.068212 0.25786 0.011846-0.042426 0.034718-0.08226 0.068212-0.11575l2.6194-2.6194c0.051823-0.051822 0.11943-0.077513 0.18706-0.077513 0.067631 0 0.13524 0.025691 0.18706 0.077513l2.6194 2.6194c0.033493 0.033493 0.056365 0.073327 0.068211 0.11575 0.024813-0.088863 0.001941-0.18771-0.068211-0.25786l-2.6194-2.6194c-0.051822-0.051822-0.11943-0.077513-0.18706-0.077513zm-0.23409 1.3167c-0.0044256 0.023434-0.0067178 0.047546-0.0067178 0.072346 0 0.19879 0.16293 0.37 0.36948 0.37 0.20657 0 0.37413-0.1712 0.37413-0.37 0-0.024799-0.0021765-0.048912-0.0067178-0.072346-0.033568 0.16752-0.18546 0.30023-0.36741 0.30023-0.18194 0-0.33005-0.13272-0.36276-0.30023zm0.53122 0.9038-0.031522 0.44131c-0.012422 0.17082-0.034523 0.27976-0.090432 0.45836l-0.012402 0.038756 0.030488 0.043408c0.042705-0.14498 0.061373-0.24753 0.072346-0.39842l0.034106-0.47955c0.0025929-0.035821 0.0017666-0.07056-0.0025838-0.10387zm-0.71829 0.14779c-0.0094392 5.208e-4 -0.019169 0.004638-0.027905 0.012402l-0.15089 0.13384-0.035656 0.43149c-0.01087 0.11491-0.078898 0.16949-0.17053 0.16329-0.072873-0.0047075-0.12577-0.045887-0.14366-0.11214l-0.0056843 0.070795c-0.00777 0.10715 0.053053 0.17723 0.14934 0.18345 0.091631 0.0062 0.15966-0.04838 0.17053-0.16329l0.035656-0.43149 0.15089-0.13384c0.019149-0.017019 0.044556-0.015904 0.05736 0l0.0077513-0.1111c0.0021257-0.028826-0.01644-0.044553-0.037206-0.043407zm0.84024 0.19275-0.0093016 0.13281 0.11627 0.11627c0.055909 0.05591 0.10887 0.073379 0.20515 0.073379h0.37568c0.10871 0 0.17725-0.063911 0.17725-0.16019 0-0.026191-0.005248-0.05003-0.014986-0.070795-0.025756 0.055213-0.083409 0.088882-0.16226 0.088882h-0.37568c-0.09628 0-0.14924-0.017469-0.20515-0.073379l-0.10697-0.10697zm-0.82836 0.34623-0.0025838 0.035139c-0.013978 0.18793 0.068572 0.32431 0.16174 0.44079l0.33227 0.41805c0.032602 0.04038 0.037177 0.055754 0.052709 0.085264l0.35398 0.71932c0.041932 0.08386 0.10427 0.11162 0.1695 0.11162 0.088529 0 0.16743-0.06544 0.16743-0.17415 0-0.024761-0.004243-0.048353-0.012402-0.072863-0.025477 0.066576-0.087352 0.1049-0.15503 0.1049-0.06523 0-0.12756-0.027759-0.1695-0.11162l-0.35398-0.71932c-0.015532-0.02951-0.020107-0.044885-0.052709-0.085265l-0.33227-0.41805c-0.074515-0.093156-0.14218-0.19902-0.15916-0.33382zm-3.0013 0.047541c-0.02028 0.22598 0.056329 0.45888 0.22996 0.63251l2.6194 2.6189c0.31094 0.31094 0.81146 0.31094 1.1224 0l2.6194-2.6189c0.17363-0.17363 0.25024-0.40653 0.22996-0.63251-0.016037 0.17871-0.092646 0.35309-0.22996 0.4904l-2.6194 2.6189c-0.31094 0.31094-0.81145 0.31094-1.1224 0l-2.6194-2.6189c-0.13731-0.13731-0.21392-0.31169-0.22996-0.4904zm3.2814 0.8113c-0.0010804 0.003567-0.0019946 0.007257-0.0031006 0.010852-0.021752 0.06058-0.027801 0.07638-0.079063 0.13849l-0.50022 0.59478c-0.03416 0.0404-0.082065 0.065111-0.13642 0.065111-0.069258 0-0.1269-0.036724-0.15296-0.094049-0.0095259 0.021608-0.014986 0.044786-0.014986 0.071312 0 0.09631 0.073203 0.16484 0.16795 0.16484 0.054358 0 0.10226-0.024711 0.13642-0.065111l0.50022-0.59478c0.051262-0.06211 0.057311-0.07791 0.079063-0.13849 0.012423-0.04038 0.023226-0.078991 0.032556-0.11627l-0.029455-0.03669z" fill="#ffffff" opacity=".2"/>
</svg>
