<svg width="64" height="64" version="1.1" viewBox="0 0 16.933 16.933" xmlns="http://www.w3.org/2000/svg">
 <defs>
  <filter id="filter9" x="-.0065174" y="-.075603" width="1.013" height="1.1512" color-interpolation-filters="sRGB">
   <feGaussianBlur stdDeviation="0.041672346"/>
  </filter>
  <filter id="filter11" x="-.0069629" y="-.043386" width="1.0139" height="1.0868" color-interpolation-filters="sRGB">
   <feGaussianBlur stdDeviation="0.044522292"/>
  </filter>
  <filter id="filter12" x="-.03226" y="-.045842" width="1.0645" height="1.0917" color-interpolation-filters="sRGB">
   <feGaussianBlur stdDeviation="0.13691812"/>
  </filter>
  <linearGradient id="a" x1="8.466" x2="8.466" y1="12.7" y2="2.381" gradientUnits="userSpaceOnUse">
   <stop offset="0"/>
   <stop stop-opacity="0" offset="1"/>
  </linearGradient>
  <linearGradient id="c" x1="8.467" x2="8.467" y1="4.498" y2="14.552" gradientUnits="userSpaceOnUse">
   <stop stop-color="#fff" offset="0"/>
   <stop offset="1"/>
  </linearGradient>
 </defs>
 <g id="folder">
  <path d="m1.945 2.381h2.965c0.75 0 0.904 0.084 1.27 0.63 0.297 0.441 0.84 0.429 1.756 0.429h7.05a1.146 1.146 0 0 1 1.152 1.152v6.956a1.15 1.15 0 0 1-1.152 1.152h-13.042a1.15 1.15 0 0 1-1.15-1.152v-8.015a1.15 1.15 0 0 1 1.15-1.152z" fill="#aa5adc"/>
  <path d="m1.945 2.381h2.965c0.75 0 0.904 0.084 1.27 0.63 0.297 0.441 0.84 0.429 1.756 0.429h7.05a1.146 1.146 0 0 1 1.152 1.152v6.956a1.15 1.15 0 0 1-1.152 1.152h-13.042a1.15 1.15 0 0 1-1.15-1.152v-8.015a1.15 1.15 0 0 1 1.15-1.152z" fill="url(#a)"/>
  <rect x="1.3229" y="3.9687" width="14.287" height="10.054" rx=".52916" ry=".52916" fill="none" filter="url(#filter12)" opacity=".1" stroke="#000000" stroke-width=".26458"/>
  <rect x="1.3229" y="3.9687" width="14.287" height="10.054" rx=".52916" ry=".52916" fill="#ffffff" stroke-width=".9649"/>
  <rect x=".794" y="4.498" width="15.346" height="10.054" rx="1.058" ry="1.058" fill="#aa5adc"/>
  <rect x=".793" y="4.498" width="15.346" height="10.054" rx="1.058" ry="1.058" fill="url(#c)" opacity=".15"/>
  <path d="m1.852 4.4978c-0.5863 0-1.0583 0.47201-1.0583 1.0583v0.26458c0-0.5863 0.47201-1.0583 1.0583-1.0583h13.229c0.5863 0 1.0583 0.47201 1.0583 1.0583v-0.26458c0-0.5863-0.47201-1.0583-1.0583-1.0583z" fill="#ffffff" filter="url(#filter9)" opacity=".15"/>
  <path transform="matrix(1,0,0,-1,0,19.05)" d="m1.852 4.4978c-0.5863 0-1.0583 0.47201-1.0583 1.0583v0.26458c0-0.5863 0.47201-1.0583 1.0583-1.0583h13.229c0.5863 0 1.0583 0.47201 1.0583 1.0583v-0.26458c0-0.5863-0.47201-1.0583-1.0583-1.0583z" fill="#000000" filter="url(#filter9)" opacity=".1"/>
  <path d="m1.944 2.3812c-0.6363-6e-4 -1.1519 0.51554-1.1508 1.1518v0.26044c0.001104-0.63442 0.51587-1.1483 1.1508-1.1477h2.9672c0.75 0 0.90392 0.083623 1.2707 0.62992 0.2962 0.44122 0.83942 0.42839 1.7554 0.42839h7.0501c0.63356-0.00333 1.1486 0.50792 1.1518 1.14v-0.25269c0.0033-0.63761-0.51424-1.1552-1.1518-1.1518h-7.0501c-0.91599 0-1.4592 0.012831-1.7554-0.42839-0.36678-0.5463-0.5207-0.62992-1.2707-0.62992h-2.9672z" fill="#ffffff" filter="url(#filter11)" opacity=".25"/>
 </g>
 <path d="m8.4665 6.3499a3.1749 3.1749 0 0 0-3.1749 3.1749 3.1749 3.1749 0 0 0 3.1749 3.1749 3.1749 3.1749 0 0 0 3.1749-3.1749 3.1749 3.1749 0 0 0-3.1749-3.1749zm0 0.52916a2.6458 2.6458 0 0 1 2.6458 2.6458 2.6458 2.6458 0 0 1-2.6458 2.6458 2.6458 2.6458 0 0 1-2.6458-2.6458 2.6458 2.6458 0 0 1 2.6458-2.6458zm0 1.05c-0.14602 0-0.26406 0.11807-0.26406 0.26509v2.0071l-0.4842-0.48368c-0.2498-0.24936-0.62393 0.12425-0.37413 0.37361l0.93532 0.93636c5e-3 5e-3 0.012053 0.006851 0.017053 0.010851l0.0098183 0.007235c0.018002 0.01401 0.03694 0.02979 0.059944 0.03979h0.0010335c0.09872 0.03926 0.21159 0.016634 0.28732-0.057876l0.93481-0.93636c0.24936-0.24981-0.12425-0.62341-0.37361-0.37361l-0.4842 0.48265v-2.006c0-0.14602-0.11807-0.26406-0.26509-0.26406v-0.0010335z" fill="#000000" opacity=".15"/>
 <path d="m8.4665 6.3499a3.1749 3.1749 0 0 0-3.1749 3.1749 3.1749 3.1749 0 0 0 0.0046508 0.067178 3.1749 3.1749 0 0 1 3.1703-3.1078 3.1749 3.1749 0 0 1 3.1703 3.1078 3.1749 3.1749 0 0 0 0.00465-0.067178 3.1749 3.1749 0 0 0-3.1749-3.1749zm0 1.5792c-0.14602 0-0.26406 0.11807-0.26406 0.26509v0.13436c0-0.14702 0.11804-0.26509 0.26406-0.26509v0.0010335c0.14702 0 0.26509 0.11804 0.26509 0.26406v-0.13436c0-0.14602-0.11807-0.26406-0.26509-0.26406v-0.0010335zm-2.6411 1.6629a2.6458 2.6458 0 0 0-0.0046508 0.067178 2.6458 2.6458 0 0 0 2.6458 2.6458 2.6458 2.6458 0 0 0 2.6458-2.6458 2.6458 2.6458 0 0 0-0.004651-0.067178 2.6458 2.6458 0 0 1-2.6411 2.5786 2.6458 2.6458 0 0 1-2.6411-2.5786zm3.5806 0.042891c-0.063606-0.00133-0.13055 0.022962-0.19017 0.082681l-0.4842 0.48265v0.13436l0.4842-0.48265c0.16978-0.17008 0.39734-0.051151 0.44648 0.12092 0.04844-0.16504-0.09376-0.33456-0.25631-0.33796zm-1.8779 5.168e-4c-0.16281 0.0035439-0.30539 0.17311-0.25683 0.33796 0.049239-0.17191 0.27695-0.29118 0.44699-0.12144l0.4842 0.48368v-0.13436l-0.4842-0.48368c-0.05972-0.059614-0.12646-0.083551-0.19017-0.082164z" fill="#000000" opacity=".15"/>
 <path d="m8.4665 6.879a2.6458 2.6458 0 0 0-2.6458 2.6458 2.6458 2.6458 0 0 0 0.0046508 0.067178 2.6458 2.6458 0 0 1 2.6411-2.5786 2.6458 2.6458 0 0 1 2.6411 2.5786 2.6458 2.6458 0 0 0 0.004651-0.067178 2.6458 2.6458 0 0 0-2.6458-2.6458zm-3.1703 2.713a3.1749 3.1749 0 0 0-0.0046508 0.067178 3.1749 3.1749 0 0 0 3.1749 3.1749 3.1749 3.1749 0 0 0 3.1749-3.1749 3.1749 3.1749 0 0 0-0.00465-0.067178 3.1749 3.1749 0 0 1-3.1703 3.1078 3.1749 3.1749 0 0 1-3.1703-3.1078zm1.975 0.38085c-0.023071 0.080614-0.0068741 0.1731 0.072862 0.25269l0.93532 0.93636c5e-3 5e-3 0.012053 0.006901 0.017053 0.010851l0.0098183 0.007235c0.018002 0.01401 0.036942 0.02979 0.059944 0.03979h0.0010335c0.09872 0.03926 0.21159 0.016634 0.28732-0.057876l0.93481-0.93636c0.079561-0.079705 0.095869-0.17205 0.072862-0.25269-0.011888 0.040537-0.035444 0.080851-0.072862 0.11834l-0.93481 0.93636c-0.075727 0.07451-0.1886 0.097136-0.28732 0.057876h-0.0010335c-0.023003-0.01-0.041942-0.02578-0.059944-0.03979l-0.0098183-0.007235c-5e-3 -4e-3 -0.012053-0.005851-0.017053-0.010851l-0.93532-0.93636c-0.03748-0.037414-0.060947-0.077852-0.072862-0.11834z" fill="#ffffff" opacity=".2"/>
</svg>
