<svg width="64" height="64" version="1.1" viewBox="0 0 16.933 16.933" xmlns="http://www.w3.org/2000/svg">
 <defs>
  <filter id="filter9" x="-.0065174" y="-.075603" width="1.013" height="1.1512" color-interpolation-filters="sRGB">
   <feGaussianBlur stdDeviation="0.041672346"/>
  </filter>
  <filter id="filter11" x="-.0069629" y="-.043386" width="1.0139" height="1.0868" color-interpolation-filters="sRGB">
   <feGaussianBlur stdDeviation="0.044522292"/>
  </filter>
  <filter id="filter12" x="-.03226" y="-.045842" width="1.0645" height="1.0917" color-interpolation-filters="sRGB">
   <feGaussianBlur stdDeviation="0.13691812"/>
  </filter>
  <linearGradient id="a" x1="8.466" x2="8.466" y1="12.7" y2="2.381" gradientUnits="userSpaceOnUse">
   <stop offset="0"/>
   <stop stop-opacity="0" offset="1"/>
  </linearGradient>
  <linearGradient id="c" x1="8.467" x2="8.467" y1="4.498" y2="14.552" gradientUnits="userSpaceOnUse">
   <stop stop-color="#fff" offset="0"/>
   <stop offset="1"/>
  </linearGradient>
 </defs>
 <g id="folder">
  <path d="m1.945 2.381h2.965c0.75 0 0.904 0.084 1.27 0.63 0.297 0.441 0.84 0.429 1.756 0.429h7.05a1.146 1.146 0 0 1 1.152 1.152v6.956a1.15 1.15 0 0 1-1.152 1.152h-13.042a1.15 1.15 0 0 1-1.15-1.152v-8.015a1.15 1.15 0 0 1 1.15-1.152z" fill="#fe342c"/>
  <path d="m1.945 2.381h2.965c0.75 0 0.904 0.084 1.27 0.63 0.297 0.441 0.84 0.429 1.756 0.429h7.05a1.146 1.146 0 0 1 1.152 1.152v6.956a1.15 1.15 0 0 1-1.152 1.152h-13.042a1.15 1.15 0 0 1-1.15-1.152v-8.015a1.15 1.15 0 0 1 1.15-1.152z" fill="url(#a)"/>
  <rect x="1.3229" y="3.9687" width="14.287" height="10.054" rx=".52916" ry=".52916" fill="none" filter="url(#filter12)" opacity=".1" stroke="#000000" stroke-width=".26458"/>
  <rect x="1.3229" y="3.9687" width="14.287" height="10.054" rx=".52916" ry=".52916" fill="#ffffff" stroke-width=".9649"/>
  <rect x=".794" y="4.498" width="15.346" height="10.054" rx="1.058" ry="1.058" fill="#fe342c"/>
  <rect x=".793" y="4.498" width="15.346" height="10.054" rx="1.058" ry="1.058" fill="url(#c)" opacity=".15"/>
  <path d="m1.852 4.4978c-0.5863 0-1.0583 0.47201-1.0583 1.0583v0.26458c0-0.5863 0.47201-1.0583 1.0583-1.0583h13.229c0.5863 0 1.0583 0.47201 1.0583 1.0583v-0.26458c0-0.5863-0.47201-1.0583-1.0583-1.0583z" fill="#ffffff" filter="url(#filter9)" opacity=".15"/>
  <path transform="matrix(1,0,0,-1,0,19.05)" d="m1.852 4.4978c-0.5863 0-1.0583 0.47201-1.0583 1.0583v0.26458c0-0.5863 0.47201-1.0583 1.0583-1.0583h13.229c0.5863 0 1.0583 0.47201 1.0583 1.0583v-0.26458c0-0.5863-0.47201-1.0583-1.0583-1.0583z" fill="#000000" filter="url(#filter9)" opacity=".1"/>
  <path d="m1.944 2.3812c-0.6363-6e-4 -1.1519 0.51554-1.1508 1.1518v0.26044c0.001104-0.63442 0.51587-1.1483 1.1508-1.1477h2.9672c0.75 0 0.90392 0.083623 1.2707 0.62992 0.2962 0.44122 0.83942 0.42839 1.7554 0.42839h7.0501c0.63356-0.00333 1.1486 0.50792 1.1518 1.14v-0.25269c0.0033-0.63761-0.51424-1.1552-1.1518-1.1518h-7.0501c-0.91599 0-1.4592 0.012831-1.7554-0.42839-0.36678-0.5463-0.5207-0.62992-1.2707-0.62992h-2.9672z" fill="#ffffff" filter="url(#filter11)" opacity=".25"/>
 </g>
 <path d="M7.913 6.607a.406.406 0 0 0-.34.609l.415.718L6.66 10.23H5.626a.406.406 0 1 0 0 .812h3.691c.178-.332-.051-.812-.459-.812h-1.26L9.34 7.215a.406.406 0 1 0-.702-.405s-.09.312-.18.312-.181-.312-.181-.312a.406.406 0 0 0-.363-.203zM9.056 8.16c-.24.198-.483.787-.143 1.375l1.5 2.6a.406.406 0 0 0 .704-.406l-.397-.687h.588a.406.406 0 1 0 0-.812H10.25l-1.195-2.07zm-2.64 3.01a.364.364 0 0 0-.302.18l-.292.506a.38.38 0 0 0 .154.515.38.38 0 0 0 .523-.125l.292-.505a.38.38 0 0 0-.154-.516.405.405 0 0 0-.22-.055z" opacity=".15"/>
 <path d="m8.9931 6.585a0.406 0.406 0 0 0-0.35501 0.22479s-0.08983 0.31212-0.17983 0.31212-0.18138-0.31212-0.18138-0.31212a0.406 0.406 0 0 0-0.36276-0.20257h-0.0010335a0.406 0.406 0 0 0-0.38808 0.47335 0.406 0.406 0 0 1 0.38808-0.33382h0.0010335a0.406 0.406 0 0 1 0.36276 0.20257s0.091381 0.31212 0.18138 0.31212 0.17983-0.31212 0.17983-0.31212a0.406 0.406 0 0 1 0.76273 0.11472 0.406 0.406 0 0 0-0.40772-0.47903zm-1.0454 1.419-1.2878 2.2262h-1.034a0.406 0.406 0 0 0-0.39893 0.47593 0.406 0.406 0 0 1 0.39893-0.33641h1.034l1.3281-2.2959-0.040307-0.069762zm1.1074 0.15606v5.167e-4c2.256e-4 -1.868e-4 8.078e-4 -3.305e-4 0.0010335-5.167e-4h-0.0010335zm0 5.167e-4c-0.16484 0.1365-0.3307 0.45704-0.30799 0.83507 0.018985-0.3162 0.16386-0.5762 0.30799-0.69555v-5.168e-4h0.0010335c-2.257e-4 1.862e-4 -8.079e-4 3.299e-4 -0.0010335 5.168e-4l1.1947 2.0696h1.0583a0.406 0.406 0 0 1 0.39893 0.33641 0.406 0.406 0 0 0-0.39893-0.47593h-1.0583l-1.1947-2.0696zm-1.3766 2.0696-0.080614 0.13952h1.2604c0.28642 0 0.48461 0.23662 0.51572 0.49247 0.037757-0.30199-0.17745-0.63199-0.51572-0.63199h-1.1797zm-1.342 0.95134a0.364 0.364 0 0 0-0.2222 0.16846l-0.29248 0.5059a0.38 0.38 0 0 0-0.03824 0.25063 0.38 0.38 0 0 1 0.03824-0.1111l0.29248-0.5059a0.364 0.364 0 0 1 0.30178-0.17983h0.0010335a0.405 0.405 0 0 1 0.22014 0.054776 0.38 0.38 0 0 1 0.19275 0.26561 0.38 0.38 0 0 0-0.19275-0.40514 0.405 0.405 0 0 0-0.10748-0.043408h-0.19327zm4.3836 0 0.39687 0.68677a0.40634 0.40634 0 0 1 0.047541 0.13487 0.40634 0.40634 0 0 0-0.047541-0.2744l-0.31625-0.54724h-0.080613z" fill="#000000" opacity=".15"/>
 <path d="m9.4008 7.064a0.406 0.406 0 0 1-0.060977 0.15089l-1.742 3.0153h0.080614l1.6614-2.8752a0.406 0.406 0 0 0 0.060977-0.29093zm-1.8758 0.016536a0.406 0.406 0 0 0 0.048058 0.27491l0.37465 0.64853 0.040307-0.069762-0.41495-0.71829a0.406 0.406 0 0 1-0.048058-0.13539zm1.2221 1.9156c-0.012615 0.20986 0.03036 0.44413 0.16588 0.6785l1.5001 2.5998a0.40634 0.40634 0 0 0 0.75136-0.2713 0.40634 0.40634 0 0 1-0.75136 0.13177l-1.5001-2.5998c-0.10614-0.18356-0.15554-0.36714-0.16588-0.53897zm-3.5201 1.7099a0.406 0.406 0 0 0 0.39893 0.47541h0.71002a0.364 0.364 0 0 1 0.080097-0.011368h0.0010335a0.405 0.405 0 0 1 0.11369 0.011368h2.7863c0.053055-0.098956 0.070066-0.21073 0.056843-0.31935-0.0077892 0.062225-0.026435 0.12311-0.056843 0.17983h-3.6912a0.406 0.406 0 0 1-0.39893-0.33589zm6.4801 0a0.406 0.406 0 0 1-0.39893 0.33589h-0.58807l0.080613 0.13952h0.50745a0.406 0.406 0 0 0 0.39893-0.47541zm-4.8771 0.92396a0.38 0.38 0 0 1-0.038757 0.1111l-0.29197 0.50487a0.38 0.38 0 0 1-0.52347 0.12505 0.38 0.38 0 0 1-0.19223-0.26458 0.38 0.38 0 0 0 0.19223 0.4041 0.38 0.38 0 0 0 0.52347-0.12506l0.29197-0.50487a0.38 0.38 0 0 0 0.038757-0.25063z" fill="#ffffff" opacity=".2"/>
</svg>
