<svg width="64" height="64" version="1.1" viewBox="0 0 16.933 16.933" xmlns="http://www.w3.org/2000/svg">
 <defs>
  <filter id="filter9" x="-.0065174" y="-.075603" width="1.013" height="1.1512" color-interpolation-filters="sRGB">
   <feGaussianBlur stdDeviation="0.041672346"/>
  </filter>
  <filter id="filter11" x="-.0069629" y="-.043386" width="1.0139" height="1.0868" color-interpolation-filters="sRGB">
   <feGaussianBlur stdDeviation="0.044522292"/>
  </filter>
  <filter id="filter12" x="-.03226" y="-.045842" width="1.0645" height="1.0917" color-interpolation-filters="sRGB">
   <feGaussianBlur stdDeviation="0.13691812"/>
  </filter>
  <linearGradient id="a" x1="8.466" x2="8.466" y1="12.7" y2="2.381" gradientUnits="userSpaceOnUse">
   <stop offset="0"/>
   <stop stop-opacity="0" offset="1"/>
  </linearGradient>
  <linearGradient id="c" x1="8.467" x2="8.467" y1="4.498" y2="14.552" gradientUnits="userSpaceOnUse">
   <stop stop-color="#fff" offset="0"/>
   <stop offset="1"/>
  </linearGradient>
 </defs>
 <g id="folder">
  <path d="m1.945 2.381h2.965c0.75 0 0.904 0.084 1.27 0.63 0.297 0.441 0.84 0.429 1.756 0.429h7.05a1.146 1.146 0 0 1 1.152 1.152v6.956a1.15 1.15 0 0 1-1.152 1.152h-13.042a1.15 1.15 0 0 1-1.15-1.152v-8.015a1.15 1.15 0 0 1 1.15-1.152z" fill="#fe342c"/>
  <path d="m1.945 2.381h2.965c0.75 0 0.904 0.084 1.27 0.63 0.297 0.441 0.84 0.429 1.756 0.429h7.05a1.146 1.146 0 0 1 1.152 1.152v6.956a1.15 1.15 0 0 1-1.152 1.152h-13.042a1.15 1.15 0 0 1-1.15-1.152v-8.015a1.15 1.15 0 0 1 1.15-1.152z" fill="url(#a)"/>
  <rect x="1.3229" y="3.9687" width="14.287" height="10.054" rx=".52916" ry=".52916" fill="none" filter="url(#filter12)" opacity=".1" stroke="#000000" stroke-width=".26458"/>
  <rect x="1.3229" y="3.9687" width="14.287" height="10.054" rx=".52916" ry=".52916" fill="#ffffff" stroke-width=".9649"/>
  <rect x=".794" y="4.498" width="15.346" height="10.054" rx="1.058" ry="1.058" fill="#fe342c"/>
  <rect x=".793" y="4.498" width="15.346" height="10.054" rx="1.058" ry="1.058" fill="url(#c)" opacity=".15"/>
  <path d="m1.852 4.4978c-0.5863 0-1.0583 0.47201-1.0583 1.0583v0.26458c0-0.5863 0.47201-1.0583 1.0583-1.0583h13.229c0.5863 0 1.0583 0.47201 1.0583 1.0583v-0.26458c0-0.5863-0.47201-1.0583-1.0583-1.0583z" fill="#ffffff" filter="url(#filter9)" opacity=".15"/>
  <path transform="matrix(1,0,0,-1,0,19.05)" d="m1.852 4.4978c-0.5863 0-1.0583 0.47201-1.0583 1.0583v0.26458c0-0.5863 0.47201-1.0583 1.0583-1.0583h13.229c0.5863 0 1.0583 0.47201 1.0583 1.0583v-0.26458c0-0.5863-0.47201-1.0583-1.0583-1.0583z" fill="#000000" filter="url(#filter9)" opacity=".1"/>
  <path d="m1.944 2.3812c-0.6363-6e-4 -1.1519 0.51554-1.1508 1.1518v0.26044c0.001104-0.63442 0.51587-1.1483 1.1508-1.1477h2.9672c0.75 0 0.90392 0.083623 1.2707 0.62992 0.2962 0.44122 0.83942 0.42839 1.7554 0.42839h7.0501c0.63356-0.00333 1.1486 0.50792 1.1518 1.14v-0.25269c0.0033-0.63761-0.51424-1.1552-1.1518-1.1518h-7.0501c-0.91599 0-1.4592 0.012831-1.7554-0.42839-0.36678-0.5463-0.5207-0.62992-1.2707-0.62992h-2.9672z" fill="#ffffff" filter="url(#filter11)" opacity=".25"/>
 </g>
 <path d="M5.78 6.35c-.496 0-.895.4-.895.895v4.03c0 .496.399.896.895.896h5.373c.496 0 .896-.4.896-.896v-4.03c0-.496-.4-.895-.896-.895zm0 .448h.448v.447h-.896c0-.248.2-.447.448-.447zm.895 0h3.582v2.238H6.675zm4.03 0h.448c.248 0 .448.2.448.447h-.896zm-5.373.895h.896v.448h-.896zm5.373 0h.896v.448h-.896zm-5.373.896h.896v.447h-.896zm5.373 0h.896v.447h-.896zm-5.373.895h.896v.448h-.896zm1.343 0h3.582v2.239H6.675zm4.03 0h.896v.448h-.896zm-5.373.896h.896v.447h-.896zm5.373 0h.896v.447h-.896zm-5.373.895h.896v.448H5.78a.447.447 0 0 1-.448-.448zm5.373 0h.896c0 .248-.2.448-.448.448h-.448z" fill="#000000" opacity=".15"/>
 <path d="m5.7799 6.3499c-0.496 0-0.89502 0.40002-0.89502 0.89502v0.12609c0-0.495 0.39902-0.89502 0.89502-0.89502h5.3732c0.496 0 0.89605 0.39902 0.89605 0.89502v-0.12609c0-0.496-0.40005-0.89502-0.89605-0.89502h-5.3732zm-0.42994 0.89502c-0.011607 0.039866-0.018086 0.082351-0.018086 0.12609h0.89605v-0.12609h-0.87797zm5.3551 0v0.12609h0.89605c0-0.043691-0.006412-0.086185-0.018087-0.12609h-0.87796zm-5.3732 0.89605v0.12609h0.89605v-0.12609h-0.89605zm5.3732 0v0.12609h0.89605v-0.12609h-0.89605zm-5.3732 0.89502v0.12609h0.89605v-0.12609h-0.89605zm1.343 0v0.12609h3.5821v-0.12609h-3.5821zm4.0302 0v0.12609h0.89605v-0.12609h-0.89605zm-5.3732 0.89605v0.12557h0.89605v-0.12557h-0.89605zm5.3732 0v0.12557h0.89605v-0.12557h-0.89605zm-5.3732 0.89502v0.12557h0.89605v-0.12557h-0.89605zm5.3732 0v0.12557h0.89605v-0.12557h-0.89605zm-5.3732 0.5736a0.447 0.447 0 0 0 0.44803 0.44803h0.44803v-0.12557h-0.44803a0.447 0.447 0 0 1-0.42994-0.32246h-0.018086zm6.2512 0c-0.054181 0.18647-0.22565 0.32246-0.42994 0.32246h-0.44803v0.12557h0.44803c0.248 0 0.44803-0.20003 0.44803-0.44803h-0.018087zm-4.9081 0.32246v0.12557h3.5821v-0.12557h-3.5821z" fill="#000000" opacity=".15"/>
 <path d="m5.7799 6.7979c-0.248 0-0.44803 0.19899-0.44803 0.44699h0.018086c0.054157-0.18627 0.22562-0.32142 0.42994-0.32142h0.44803v-0.12557h-0.44803zm0.89502 0v0.12557h3.5821v-0.12557h-3.5821zm4.0302 0v0.12557h0.44803c0.20419 0 0.37567 0.13566 0.42994 0.32142h0.018087c0-0.247-0.20003-0.44699-0.44803-0.44699h-0.44803zm-5.3732 0.89502v0.12557h0.89605v-0.12557h-0.89605zm5.3732 0v0.12557h0.89605v-0.12557h-0.89605zm-5.3732 0.89605v0.12557h0.89605v-0.12557h-0.89605zm5.3732 0v0.12557h0.89605v-0.12557h-0.89605zm-5.3732 0.89502v0.12557h0.89605v-0.12557h-0.89605zm1.343 0v0.12557h3.5821v-0.12557h-3.5821zm4.0302 0v0.12557h0.89605v-0.12557h-0.89605zm-5.3732 0.89605v0.12557h0.89605v-0.12557h-0.89605zm5.3732 0v0.12557h0.89605v-0.12557h-0.89605zm-5.8202 0.89502v0.12557c0 0.496 0.39902 0.89605 0.89502 0.89605h5.3732c0.496 0 0.89605-0.40005 0.89605-0.89605v-0.12557c0 0.496-0.40005 0.89605-0.89605 0.89605h-5.3732c-0.496 0-0.89502-0.40005-0.89502-0.89605zm0.44699 0a0.447 0.447 0 0 0 0.018086 0.12557h0.87797v-0.12557h-0.89605zm5.3732 0v0.12557h0.87796c0.011562-0.039846 0.018087-0.081923 0.018087-0.12557h-0.89605z" fill="#ffffff" opacity=".2"/>
</svg>
