<svg width="64" height="64" version="1.1" xmlns="http://www.w3.org/2000/svg" xmlns:xlink="http://www.w3.org/1999/xlink">
 <defs>
  <linearGradient id="linearGradient14" x1="31" x2="31" y1="9" y2="48" gradientUnits="userSpaceOnUse">
   <stop stop-color="#000000" stop-opacity=".6902" offset="0"/>
   <stop stop-color="#000000" stop-opacity=".16" offset="1"/>
  </linearGradient>
  <filter id="filter14" x="-.10899" y="-.1071" width="1.218" height="1.2142" color-interpolation-filters="sRGB">
   <feGaussianBlur stdDeviation="1.681316"/>
  </filter>
  <filter id="filter17" x="-.007125" y="-.038" width="1.0142" height="1.076" color-interpolation-filters="sRGB">
   <feGaussianBlur stdDeviation="0.1425"/>
  </filter>
  <linearGradient id="linearGradient2" x1="55.237" x2="8.5526" y1="10.5" y2="10.5" gradientUnits="userSpaceOnUse">
   <stop stop-color="#acacac" stop-opacity=".61961" offset="0"/>
   <stop stop-color="#737373" stop-opacity=".62" offset=".1"/>
   <stop stop-color="#737373" stop-opacity=".61961" offset=".9"/>
   <stop stop-color="#acacac" stop-opacity=".61961" offset="1"/>
  </linearGradient>
  <filter id="filter6" x="-.075737" y="-.074277" width="1.1515" height="1.1486" color-interpolation-filters="sRGB">
   <feGaussianBlur stdDeviation="1.3969033"/>
  </filter>
 </defs>
 <path d="m8.0078 10c-0.043906 0.32331-0.047607 0.65777-0.0078125 1l5 43c0.31994 2.7515 3.23 5 6 5h26c2.77 0 5.6801-2.2485 6-5l5-43c0.03979-0.34223 0.03609-0.67669-0.0078-1h-0.0332c0.026894 0.16412 0.041 0.33094 0.041 0.5 0 2.493-3.0024 4.5-6.7324 4.5h-34.535c-3.7301 0-6.7324-2.007-6.7324-4.5 0-0.16906 0.014106-0.33588 0.041016-0.5z" fill="#b8b8b8" fill-opacity=".63137" stroke-linecap="round" stroke-linejoin="round"/>
 <rect x="8" y="6" width="48" height="9" rx="6.733" ry="4.5" fill="url(#linearGradient2)" fill-opacity=".61961" stroke-linecap="round" stroke-linejoin="round" stroke-width=".98974"/>
 <path d="m9.8998 11.932c-0.040444 0.29782-0.043853 0.6059-0.0072 0.92114l4.6057 39.609c0.29471 2.5345 2.9753 4.6057 5.5269 4.6057h23.95c2.5516 0 5.2322-2.0712 5.5269-4.6057l4.6057-39.609c0.03665-0.31525 0.03324-0.62333-0.0072-0.92114h-0.03058c0.02477 0.15117 0.03777 0.30484 0.03777 0.46057 0 2.2964-2.7656 4.1451-6.2015 4.1451h-31.812c-3.4359 0-6.2015-1.8487-6.2015-4.1451 0-0.15573 0.012994-0.3094 0.037781-0.46057z" fill="#ffffff" fill-opacity=".63137" filter="url(#filter6)" stroke-linecap="round" stroke-linejoin="round" stroke-width=".92114"/>
 <path transform="matrix(1.1056 0 0 1 -2.2567 0)" d="m12.473 14.742 3.4043 33.697c0.25464 2.1899 2.5707 3.9805 4.7754 3.9805h20.695c2.2047 0 4.5207-1.7905 4.7754-3.9805l3.373-33.441c-0.075762 0.00167-0.15212 0.001953-0.22852 0.001953h-34.535c-0.79349 0-1.554-0.09081-2.2598-0.25781z" fill="url(#linearGradient14)" fill-opacity=".6902" filter="url(#filter14)" stroke-linecap="round" stroke-linejoin="round" stroke-width=".79592" style="mix-blend-mode:normal"/>
 <path d="m14.732 6c-3.7301 0-6.7324 2.007-6.7324 4.5s3.0024 4.5 6.7324 4.5h34.535c3.7301 0 6.7324-2.007 6.7324-4.5s-3.0024-4.5-6.7324-4.5zm0 1h34.535c1.6857 0 3.1882 0.46425 4.209 1.1465 1.0208 0.68224 1.5234 1.5085 1.5234 2.3535 0 0.84499-0.50266 1.6713-1.5234 2.3535-1.0208 0.68224-2.5233 1.1465-4.209 1.1465h-34.535c-1.6857 0-3.1882-0.46425-4.209-1.1465-1.0208-0.68224-1.5234-1.5085-1.5234-2.3535 0-0.84499 0.50266-1.6713 1.5234-2.3535 1.0208-0.68224 2.5233-1.1465 4.209-1.1465z" fill="#ececec" fill-opacity=".97255" filter="url(#filter17)" stop-color="#000000" stroke-linecap="round" stroke-linejoin="round"/>
</svg>
