<svg width="64" height="64" version="1.1" viewBox="0 0 16.933 16.933" xmlns="http://www.w3.org/2000/svg">
 <defs>
  <linearGradient id="linearGradient21" x1="8.4665" x2="8.4665" y1="2.3812" y2="5.6843" gradientUnits="userSpaceOnUse">
   <stop stop-color="#7cc1ea" offset="0"/>
   <stop stop-color="#56a1d3" offset="1"/>
  </linearGradient>
  <filter id="filter12" x="-.03226" y="-.045842" width="1.0645" height="1.0917" color-interpolation-filters="sRGB">
   <feGaussianBlur stdDeviation="0.13691812"/>
  </filter>
  <linearGradient id="b-0" x1="445.28" x2="445.28" y1="179.28" y2="200.07" gradientTransform="matrix(.38956 0 0 .38184 -165.78 -63.432)" gradientUnits="userSpaceOnUse">
   <stop stop-color="#88ccf2" offset="0"/>
   <stop stop-color="#67b1de" offset="1"/>
  </linearGradient>
  <filter id="filter9" x="-.0065172" y="-.075602" width="1.013" height="1.1512" color-interpolation-filters="sRGB">
   <feGaussianBlur stdDeviation="0.041672346"/>
  </filter>
  <filter id="filter11" x="-.0069629" y="-.043386" width="1.0139" height="1.0868" color-interpolation-filters="sRGB">
   <feGaussianBlur stdDeviation="0.044522292"/>
  </filter>
 </defs>
 <g id="folder">
  <path d="m1.9447 2.3812h2.9665c0.75 0 0.90372 0.0837 1.2705 0.63 0.2962 0.44122 0.83961 0.42831 1.7556 0.42831h7.0499c0.63761-0.00335 1.1553 0.51439 1.152 1.152v6.9562c0.0011 0.63669-0.51531 1.1531-1.152 1.152h-13.043c-0.6363 5.54e-4 -1.1521-0.5157-1.151-1.152v-8.0145c-0.001107-0.6363 0.5147-1.1526 1.151-1.152z" fill="url(#linearGradient21)"/>
  <rect x="1.3229" y="3.9687" width="14.287" height="10.054" rx=".52916" ry=".52916" fill="none" filter="url(#filter12)" opacity=".1" stroke="#000000" stroke-width=".26458"/>
  <rect x="1.3229" y="3.9687" width="14.287" height="10.054" rx=".52916" ry=".52916" fill="#ffffff" stroke-width=".9649"/>
  <rect x=".79373" y="4.4978" width="15.346" height="10.054" rx="1.0583" ry="1.0583" fill="url(#b-0)"/>
  <path d="m1.852 4.4978c-0.5863 0-1.0583 0.47201-1.0583 1.0583v0.26458c0-0.5863 0.47201-1.0583 1.0583-1.0583h13.229c0.5863 0 1.0583 0.47201 1.0583 1.0583v-0.26458c0-0.5863-0.47201-1.0583-1.0583-1.0583z" fill="#ffffff" filter="url(#filter9)" opacity=".15"/>
  <path transform="matrix(1 0 0 -1 0 19.05)" d="m1.852 4.4978c-0.5863 0-1.0583 0.47201-1.0583 1.0583v0.26458c0-0.5863 0.47201-1.0583 1.0583-1.0583h13.229c0.5863 0 1.0583 0.47201 1.0583 1.0583v-0.26458c0-0.5863-0.47201-1.0583-1.0583-1.0583z" fill="#000000" filter="url(#filter9)" opacity=".1"/>
  <path d="m1.944 2.3812c-0.6363-6e-4 -1.1519 0.51554-1.1508 1.1518v0.26044c0.001104-0.63442 0.51587-1.1483 1.1508-1.1477h2.9672c0.75 0 0.90392 0.083623 1.2707 0.62992 0.2962 0.44122 0.83942 0.42839 1.7554 0.42839h7.0501c0.63356-0.00333 1.1486 0.50792 1.1518 1.14v-0.25269c0.0033-0.63761-0.51424-1.1552-1.1518-1.1518h-7.0501c-0.91599 0-1.4592 0.012831-1.7554-0.42839-0.36678-0.5463-0.5207-0.62992-1.2707-0.62992h-2.9667z" fill="#ffffff" filter="url(#filter11)" opacity=".25"/>
 </g>
 <path d="M8.467 5.837a.21.21 0 0 0-.15.062L5.323 8.894a.211.211 0 1 0 .3.3l.303-.304v2.45c0 .47.378.847.847.847h3.388c.469 0 .847-.378.847-.847V8.89l.303.304a.211.211 0 1 0 .3-.3L8.617 5.9a.21.21 0 0 0-.15-.062zm0 .512 2.117 2.117v2.874a.423.423 0 0 1-.423.423h-.847v-1.27c0-.47-.378-.847-.847-.847s-.847.378-.847.847v1.27h-.847a.423.423 0 0 1-.424-.423V8.467z" fill="#000000" opacity=".15"/>
 <path d="m8.467 5.8373a0.21 0.21 0 0 0-0.14986 0.061494l-2.9941 2.9951a0.21213 0.21213 0 0 0-0.050125 0.21962 0.21213 0.21213 0 0 1 0.050125-0.080097l2.9941-2.9951a0.21 0.21 0 0 1 0.14986-0.06201v0.0010336a0.21 0.21 0 0 1 0.14986 0.06201l2.9941 2.9941a0.21213 0.21213 0 0 1 0.050125 0.080097 0.21213 0.21213 0 0 0-0.050125-0.21962l-2.9941-2.9941a0.21 0.21 0 0 0-0.14986-0.06201v-5.167e-4zm0 3.809c-0.469 0-0.84696 0.37796-0.84696 0.84696v0.13901c0-0.469 0.37796-0.84696 0.84696-0.84696s0.84696 0.37696 0.84696 0.84696v-0.13901c0-0.47-0.37796-0.84696-0.84696-0.84696zm-2.1182 1.6939v0.13901a0.423 0.423 0 0 0 0.42426 0.42322h0.84696v-0.13952h-0.84696a0.423 0.423 0 0 1-0.42426-0.4227zm4.2353 0a0.423 0.423 0 0 1-0.42322 0.4227h-0.84696v0.13952h0.84696a0.423 0.423 0 0 0 0.42322-0.42322v-0.13901z" fill="#000000" opacity=".15"/>
 <path d="m8.467 6.3488-2.1182 2.1182v0.13952l2.1182-2.1182 2.1171 2.1171v-0.13952l-2.1171-2.1171zm-2.5409 2.5414-0.30333 0.30385a0.21213 0.21213 0 0 1-0.34984-0.080614 0.21213 0.21213 0 0 0 0.34984 0.22014l0.30333-0.30437v-0.13901zm5.0818 0v0.13901l0.30334 0.30437a0.21213 0.21213 0 0 0 0.34984-0.22014 0.21213 0.21213 0 0 1-0.34984 0.080614l-0.30334-0.30385zm-5.0818 2.4499v0.13901c0 0.47 0.37796 0.84748 0.84696 0.84748h3.3878c0.469 0 0.84696-0.37848 0.84696-0.84748v-0.13901c0 0.469-0.37796 0.84696-0.84696 0.84696h-3.3878c-0.469 0-0.84696-0.37696-0.84696-0.84696z" fill="#ffffff" opacity=".2"/>
</svg>
