<svg width="64" height="64" version="1.1" xmlns="http://www.w3.org/2000/svg" xmlns:xlink="http://www.w3.org/1999/xlink">
 <defs>
  <linearGradient id="linearGradient14" x1="31" x2="31" y1="9" y2="48" gradientUnits="userSpaceOnUse">
   <stop stop-color="#ffffff" stop-opacity=".6902" offset="0"/>
   <stop stop-color="#ffffff" stop-opacity=".1" offset="1"/>
  </linearGradient>
  <filter id="filter14" x="-.11267" y="-.12543" width="1.2253" height="1.2509" color-interpolation-filters="sRGB">
   <feGaussianBlur stdDeviation="1.7380814"/>
  </filter>
  <filter id="filter16" x="-.048472" y="-.047537" width="1.0969" height="1.0951" color-interpolation-filters="sRGB">
   <feGaussianBlur stdDeviation="0.97055253"/>
  </filter>
  <filter id="filter17" x="-.007125" y="-.038" width="1.0142" height="1.076" color-interpolation-filters="sRGB">
   <feGaussianBlur stdDeviation="0.1425"/>
  </filter>
 </defs>
 <path d="m8.0078 10c-0.043906 0.32331-0.047607 0.65777-0.0078125 1l5 43c0.31994 2.7515 3.23 5 6 5h26c2.77 0 5.6801-2.2485 6-5l5-43c0.039795-0.34223 0.036093-0.67669-0.007812-1h-0.033204c0.02691 0.16412 0.041016 0.33094 0.041016 0.5 0 2.493-3.0024 4.5-6.7324 4.5h-34.535c-3.7301 0-6.7324-2.007-6.7324-4.5 0-0.16906 0.014106-0.33588 0.041016-0.5h-0.033203z" fill="#343434" fill-opacity=".6902" stroke-linecap="round" stroke-linejoin="round"/>
 <rect x="8" y="6" width="48" height="9" rx="6.733" ry="4.5" fill="#454545" fill-opacity=".61961" stroke-linecap="round" stroke-linejoin="round" stroke-width=".98974"/>
 <path d="m14.732 6c-3.7301 0-6.7324 2.007-6.7324 4.5s3.0024 4.5 6.7324 4.5h34.535c3.7301 0 6.7324-2.007 6.7324-4.5s-3.0024-4.5-6.7324-4.5h-34.535zm0 1h34.535c1.6857 0 3.1882 0.46425 4.209 1.1465 1.0208 0.68224 1.5234 1.5085 1.5234 2.3535 0 0.84499-0.50266 1.6713-1.5234 2.3535-1.0208 0.68224-2.5233 1.1465-4.209 1.1465h-34.535c-1.6857 0-3.1882-0.46425-4.209-1.1465-1.0208-0.68224-1.5234-1.5085-1.5234-2.3535 0-0.84499 0.50266-1.6713 1.5234-2.3535 1.0208-0.68224 2.5233-1.1465 4.209-1.1465z" fill="#b3b3b3" fill-opacity=".97647" filter="url(#filter17)" stop-color="#000000" stroke-linecap="round" stroke-linejoin="round"/>
 <path d="m12.473 14.742 3.4043 29.277c0.25464 2.1899 2.5707 3.9805 4.7754 3.9805h20.695c2.2047 0 4.5207-1.7905 4.7754-3.9805l3.373-29.021c-0.075762 0.00167-0.15212 0.001953-0.22852 0.001953h-34.535c-0.79349 0-1.554-0.090807-2.2598-0.25781z" fill="url(#linearGradient14)" fill-opacity=".6902" filter="url(#filter14)" opacity=".22" stroke-linecap="round" stroke-linejoin="round" stroke-width=".79592"/>
 <path d="m8.0078 8.8828c-0.043906 0.32331-0.04761 0.65777-0.0078125 1l5 43c0.31994 2.7515 3.23 5 6 5h26c2.77 0 5.6801-2.2485 6-5l5-43c0.03979-0.34223 0.036077-0.67669-0.007812-1h-0.033204c0.02691 0.16412 0.041016 0.33094 0.041016 0.5 0 0.58696-0.16558 1.1469-0.46875 1.6602v0.001953l-4.5312 38.961c-0.31994 2.7515-3.23 5-6 5h-26c-2.77 0-5.6801-2.2485-6-5l-4.5312-38.961c-2.742e-4 -4.64e-4 2.74e-4 -0.001489 0-0.001953-0.30316-0.51322-0.46875-1.0732-0.46875-1.6602 0-0.16906 0.014106-0.33588 0.041016-0.5h-0.033203z" fill="#ffffff" filter="url(#filter16)" opacity=".15" stroke-linecap="round" stroke-linejoin="round"/>
</svg>
