<svg xmlns="http://www.w3.org/2000/svg" width="64" height="64"><defs><linearGradient id="a" x1="8.466" x2="8.466" y1="12.7" y2="2.381" gradientUnits="userSpaceOnUse"><stop offset="0"/><stop offset="1" stop-opacity="0"/></linearGradient><linearGradient id="b" x1="8.467" x2="8.467" y1="3.969" y2="4.498" gradientUnits="userSpaceOnUse"><stop offset="0" stop-color="#fff"/><stop offset="1" stop-color="#c9d0d3"/></linearGradient><linearGradient id="c" x1="8.467" x2="8.467" y1="4.498" y2="14.552" gradientUnits="userSpaceOnUse"><stop offset="0" stop-color="#fff"/><stop offset="1"/></linearGradient></defs><g transform="scale(3.7796)"><path fill="#27d83d" d="M1.945 2.381H4.91c.75 0 .904.084 1.27.63.297.441.84.429 1.756.429h7.05a1.146 1.146 0 0 1 1.152 1.152v6.956a1.15 1.15 0 0 1-1.152 1.152H1.944a1.15 1.15 0 0 1-1.15-1.152V3.533a1.15 1.15 0 0 1 1.15-1.152z"/><path fill="url(#a)" d="M1.945 2.381H4.91c.75 0 .904.084 1.27.63.297.441.84.429 1.756.429h7.05a1.146 1.146 0 0 1 1.152 1.152v6.956a1.15 1.15 0 0 1-1.152 1.152H1.944a1.15 1.15 0 0 1-1.15-1.152V3.533a1.15 1.15 0 0 1 1.15-1.152z" style="fill:url(#a)"/><rect width="14.287" height="10.054" x="1.323" y="3.969" fill="url(#b)" rx=".529" ry=".529" style="fill:url(#b)"/><rect width="15.346" height="10.054" x=".794" y="4.498" fill="#27d83d" rx="1.058" ry="1.058"/><path d="M.794 13.365v.128c0 .586.472 1.058 1.058 1.058h13.229c.586 0 1.058-.472 1.058-1.058v-.128c0 .586-.472 1.058-1.058 1.058H1.852a1.056 1.056 0 0 1-1.058-1.058" opacity=".1"/><path fill="#fff" d="M.794 5.684v-.128c0-.586.472-1.058 1.058-1.058h13.229c.586 0 1.058.472 1.058 1.058v.128c0-.586-.472-1.058-1.058-1.058H1.852c-.586 0-1.058.472-1.058 1.058" opacity=".2"/><rect width="15.346" height="10.054" x=".794" y="4.498" fill="url(#c)" opacity=".15" rx="1.058" ry="1.058" style="fill:url(#c)"/></g><path d="M41.208 23.422h-.101l-13.061 2.234c-.278.048-.509.226-.509.508v15.08c-.206 1.21-2.266.727-3.695.832-1.719.23-2.535 2.2-2.12 3.651.336 1.08 1.367 1.888 2.865 2.037 1.568.169 4.232-.253 4.532-3.648l.013.01v-13.27L40 29v10c-.248 1.154-2.275.683-3.687.787-1.718.23-2.535 2.2-2.12 3.651.336 1.08 1.368 1.888 2.866 2.038 1.54.165 4.134-.245 4.51-3.477l.027-.028v-.187c0-.01.002-.01.002-.017h-.002l.002-.955.017-16.873c0-.246-.177-.487-.407-.512z" opacity=".15"/></svg>