<svg xmlns="http://www.w3.org/2000/svg" width="64" height="64" viewBox="0 0 16.933 16.933"><defs><linearGradient id="a" x1="8.466" x2="8.466" y1="12.7" y2="2.381" gradientUnits="userSpaceOnUse"><stop offset="0"/><stop offset="1" stop-opacity="0"/></linearGradient><linearGradient id="b" x1="8.467" x2="8.467" y1="3.969" y2="4.498" gradientUnits="userSpaceOnUse"><stop offset="0" stop-color="#fff"/><stop offset="1" stop-color="#c9d0d3"/></linearGradient><linearGradient id="c" x1="8.467" x2="8.467" y1="4.498" y2="14.552" gradientUnits="userSpaceOnUse"><stop offset="0" stop-color="#fff"/><stop offset="1"/></linearGradient></defs><path fill="#ff8b1d" d="M1.945 2.381H4.91c.75 0 .904.084 1.27.63.297.441.84.429 1.756.429h7.05a1.146 1.146 0 0 1 1.152 1.152v6.956a1.15 1.15 0 0 1-1.152 1.152H1.944a1.15 1.15 0 0 1-1.15-1.152V3.533a1.15 1.15 0 0 1 1.15-1.152z"/><path fill="url(#a)" d="M1.945 2.381H4.91c.75 0 .904.084 1.27.63.297.441.84.429 1.756.429h7.05a1.146 1.146 0 0 1 1.152 1.152v6.956a1.15 1.15 0 0 1-1.152 1.152H1.944a1.15 1.15 0 0 1-1.15-1.152V3.533a1.15 1.15 0 0 1 1.15-1.152z" style="fill:url(#a)"/><rect width="14.287" height="10.054" x="1.323" y="3.969" fill="url(#b)" rx=".529" ry=".529" style="fill:url(#b)"/><rect width="15.346" height="10.054" x=".794" y="4.498" fill="#ff8b1d" rx="1.058" ry="1.058"/><path d="M.794 13.365v.128c0 .586.472 1.058 1.058 1.058h13.229c.586 0 1.058-.472 1.058-1.058v-.128c0 .586-.472 1.058-1.058 1.058H1.852a1.056 1.056 0 0 1-1.058-1.058" opacity=".1"/><path fill="#fff" d="M.794 5.684v-.128c0-.586.472-1.058 1.058-1.058h13.229c.586 0 1.058.472 1.058 1.058v.128c0-.586-.472-1.058-1.058-1.058H1.852c-.586 0-1.058.472-1.058 1.058" opacity=".2"/><rect width="15.346" height="10.054" x=".794" y="4.498" fill="url(#c)" opacity=".15" rx="1.058" ry="1.058" style="fill:url(#c)"/><path d="M5.78 6.35c-.496 0-.895.4-.895.895v4.03c0 .496.399.896.895.896h5.373c.496 0 .896-.4.896-.896v-4.03c0-.496-.4-.895-.896-.895zm0 .448h5.373c.248 0 .448.2.448.447v4.03c0 .248-.2.448-.448.448H5.78a.447.447 0 0 1-.448-.448v-4.03c0-.248.2-.447.448-.447m.448 3.582a.447.447 0 1 0 0 .895h4.477a.447.447 0 1 0 0-.895z" opacity=".15"/></svg>