<svg width="64" height="64" version="1.1" viewBox="0 0 16.933 16.933" xmlns="http://www.w3.org/2000/svg">
 <defs>
  <filter id="filter9" x="-.0065174" y="-.075603" width="1.013" height="1.1512" color-interpolation-filters="sRGB">
   <feGaussianBlur stdDeviation="0.041672346"/>
  </filter>
  <filter id="filter11" x="-.0069629" y="-.043386" width="1.0139" height="1.0868" color-interpolation-filters="sRGB">
   <feGaussianBlur stdDeviation="0.044522292"/>
  </filter>
  <filter id="filter12" x="-.03226" y="-.045842" width="1.0645" height="1.0917" color-interpolation-filters="sRGB">
   <feGaussianBlur stdDeviation="0.13691812"/>
  </filter>
  <linearGradient id="a" x1="8.466" x2="8.466" y1="12.7" y2="2.381" gradientUnits="userSpaceOnUse">
   <stop offset="0"/>
   <stop stop-opacity="0" offset="1"/>
  </linearGradient>
  <linearGradient id="c" x1="8.467" x2="8.467" y1="4.498" y2="14.552" gradientUnits="userSpaceOnUse">
   <stop stop-color="#fff" offset="0"/>
   <stop offset="1"/>
  </linearGradient>
 </defs>
 <g id="folder">
  <path d="m1.945 2.381h2.965c0.75 0 0.904 0.084 1.27 0.63 0.297 0.441 0.84 0.429 1.756 0.429h7.05a1.146 1.146 0 0 1 1.152 1.152v6.956a1.15 1.15 0 0 1-1.152 1.152h-13.042a1.15 1.15 0 0 1-1.15-1.152v-8.015a1.15 1.15 0 0 1 1.15-1.152z" fill="#fe342c"/>
  <path d="m1.945 2.381h2.965c0.75 0 0.904 0.084 1.27 0.63 0.297 0.441 0.84 0.429 1.756 0.429h7.05a1.146 1.146 0 0 1 1.152 1.152v6.956a1.15 1.15 0 0 1-1.152 1.152h-13.042a1.15 1.15 0 0 1-1.15-1.152v-8.015a1.15 1.15 0 0 1 1.15-1.152z" fill="url(#a)"/>
  <rect x="1.3229" y="3.9687" width="14.287" height="10.054" rx=".52916" ry=".52916" fill="none" filter="url(#filter12)" opacity=".1" stroke="#000000" stroke-width=".26458"/>
  <rect x="1.3229" y="3.9687" width="14.287" height="10.054" rx=".52916" ry=".52916" fill="#ffffff" stroke-width=".9649"/>
  <rect x=".794" y="4.498" width="15.346" height="10.054" rx="1.058" ry="1.058" fill="#fe342c"/>
  <rect x=".793" y="4.498" width="15.346" height="10.054" rx="1.058" ry="1.058" fill="url(#c)" opacity=".15"/>
  <path d="m1.852 4.4978c-0.5863 0-1.0583 0.47201-1.0583 1.0583v0.26458c0-0.5863 0.47201-1.0583 1.0583-1.0583h13.229c0.5863 0 1.0583 0.47201 1.0583 1.0583v-0.26458c0-0.5863-0.47201-1.0583-1.0583-1.0583z" fill="#ffffff" filter="url(#filter9)" opacity=".15"/>
  <path transform="matrix(1,0,0,-1,0,19.05)" d="m1.852 4.4978c-0.5863 0-1.0583 0.47201-1.0583 1.0583v0.26458c0-0.5863 0.47201-1.0583 1.0583-1.0583h13.229c0.5863 0 1.0583 0.47201 1.0583 1.0583v-0.26458c0-0.5863-0.47201-1.0583-1.0583-1.0583z" fill="#000000" filter="url(#filter9)" opacity=".1"/>
  <path d="m1.944 2.3812c-0.6363-6e-4 -1.1519 0.51554-1.1508 1.1518v0.26044c0.001104-0.63442 0.51587-1.1483 1.1508-1.1477h2.9672c0.75 0 0.90392 0.083623 1.2707 0.62992 0.2962 0.44122 0.83942 0.42839 1.7554 0.42839h7.0501c0.63356-0.00333 1.1486 0.50792 1.1518 1.14v-0.25269c0.0033-0.63761-0.51424-1.1552-1.1518-1.1518h-7.0501c-0.91599 0-1.4592 0.012831-1.7554-0.42839-0.36678-0.5463-0.5207-0.62992-1.2707-0.62992h-2.9672z" fill="#ffffff" filter="url(#filter11)" opacity=".25"/>
 </g>
 <path d="m9.1797 6.3711a0.26458 0.26458 0 0 0-0.31641 0.19727l-1.2754 5.418a0.26458 0.26458 0 0 0 0.19727 0.31836 0.26458 0.26458 0 0 0 0.31836-0.19727l1.2734-5.418a0.26458 0.26458 0 0 0-0.19727-0.31836zm-2.0371 0.83008a0.26458 0.26458 0 0 0-0.37109 0.046875l-1.5137 1.9453a0.2646 0.2646 0 0 0-0.00391 0.31836l1.498 2.0234a0.26458 0.26458 0 0 0 0.36914 0.05469 0.26458 0.26458 0 0 0 0.054687-0.37109l-1.3769-1.8594 1.3906-1.7871a0.26458 0.26458 0 0 0-0.046875-0.37109zm2.6504 0.00586a0.26458 0.26458 0 0 0-0.046875 0.37109l1.3906 1.7871-1.3789 1.8594a0.26458 0.26458 0 0 0 0.054687 0.37109 0.26458 0.26458 0 0 0 0.36914-0.05469l1.498-2.0234a0.2646 0.2646 0 0 0-2e-3 -0.31836l-1.5136-1.9453a0.26458 0.26458 0 0 0-0.37109-0.046875z" opacity=".15" stop-color="#000000" stroke-linecap="round" stroke-linejoin="round"/>
 <path d="m9.1114 6.3649a0.26458 0.26458 0 0 0-0.24804 0.2036l-1.2753 5.4177a0.26458 0.26458 0 0 0 0.0041341 0.13694l1.2712-5.4006a0.26458 0.26458 0 0 1 0.31625-0.19688 0.26458 0.26458 0 0 1 0.19327 0.18138l0.004134-0.01757a0.26458 0.26458 0 0 0-0.1974-0.31832 0.26458 0.26458 0 0 0-0.068212-0.006201zm-2.1295 0.78082a0.26458 0.26458 0 0 0-0.21032 0.10232l-1.5136 1.9456a0.2646 0.2646 0 0 0-0.043407 0.23822 0.2646 0.2646 0 0 1 0.043407-0.084231l1.5136-1.9451a0.26458 0.26458 0 0 1 0.37103-0.047025 0.26458 0.26458 0 0 1 0.090432 0.13229 0.26458 0.26458 0 0 0-0.090432-0.2868 0.26458 0.26458 0 0 0-0.16071-0.055293zm2.9719 0.0056843a0.26458 0.26458 0 0 0-0.16071 0.055809 0.26458 0.26458 0 0 0-0.090432 0.28628 0.26458 0.26458 0 0 1 0.090432-0.13229 0.26458 0.26458 0 0 1 0.37103 0.047025l1.5136 1.9451a0.2646 0.2646 0 0 1 0.042374 0.083714 0.2646 0.2646 0 0 0-0.042374-0.23771l-1.5136-1.9456a0.26458 0.26458 0 0 0-0.21032-0.10232zm-4.0963 2.2872-0.058393 0.074929 1.3766 1.8598a0.26458 0.26458 0 0 1 0.040824 0.081647 0.26458 0.26458 0 0 0-0.040824-0.23616l-1.3182-1.7802zm5.2203 0.0056843-1.3198 1.7802a0.26458 0.26458 0 0 0-0.040824 0.23616 0.26458 0.26458 0 0 1 0.040824-0.081648l1.3787-1.8593-0.05891-0.075446z" opacity=".15" stop-color="#000000" stroke-linecap="round" stroke-linejoin="round"/>
 <path d="m9.3729 6.707-1.2691 5.4006a0.26458 0.26458 0 0 1-0.31884 0.19688 0.26458 0.26458 0 0 1-0.19327-0.18138l-0.0036173 0.016537a0.26458 0.26458 0 0 0 0.19688 0.31832 0.26458 0.26458 0 0 0 0.31884-0.1974l1.2733-5.4177a0.26458 0.26458 0 0 0-0.004134-0.13591zm-2.1399 0.7803a0.26458 0.26458 0 0 1-0.043407 0.085264l-1.3906 1.7869 0.058393 0.078547 1.3322-1.7125a0.26458 0.26458 0 0 0 0.043407-0.23822zm2.4696 0.0056843a0.26458 0.26458 0 0 0 0.043407 0.23874l1.3322 1.712 0.058394-0.078547-1.3906-1.7869a0.26458 0.26458 0 0 1-0.043407-0.085264zm-4.4885 1.9383a0.2646 0.2646 0 0 0 0.03979 0.23357l1.4981 2.0236a0.26458 0.26458 0 0 0 0.36896 0.054776 0.26458 0.26458 0 0 0 0.0956-0.28887 0.26458 0.26458 0 0 1-0.0956 0.13539 0.26458 0.26458 0 0 1-0.36896-0.054776l-1.4981-2.0231a0.2646 0.2646 0 0 1-0.03979-0.080614zm6.5059 0.0051675a0.2646 0.2646 0 0 1-0.040307 0.08113l-1.4981 2.0236a0.26458 0.26458 0 0 1-0.36896 0.054259 0.26458 0.26458 0 0 1-0.0956-0.13539 0.26458 0.26458 0 0 0 0.0956 0.28886 0.26458 0.26458 0 0 0 0.36896-0.054776l1.4981-2.0231a0.2646 0.2646 0 0 0 0.040307-0.23461z" fill="#ffffff" opacity=".2" stop-color="#000000" stroke-linecap="round" stroke-linejoin="round"/>
</svg>
