<svg xmlns="http://www.w3.org/2000/svg" width="64" height="64"><defs><linearGradient id="a" x1="8.466" x2="8.466" y1="12.7" y2="2.381" gradientUnits="userSpaceOnUse"><stop offset="0"/><stop offset="1" stop-opacity="0"/></linearGradient><linearGradient id="b" x1="8.467" x2="8.467" y1="3.969" y2="4.498" gradientUnits="userSpaceOnUse"><stop offset="0" stop-color="#fff"/><stop offset="1" stop-color="#c9d0d3"/></linearGradient><linearGradient id="c" x1="8.467" x2="8.467" y1="4.498" y2="14.552" gradientUnits="userSpaceOnUse"><stop offset="0" stop-color="#fff"/><stop offset="1"/></linearGradient></defs><g transform="scale(3.7796)"><path fill="#5a6885" d="M1.945 2.381H4.91c.75 0 .904.084 1.27.63.297.441.84.429 1.756.429h7.05a1.146 1.146 0 0 1 1.152 1.152v6.956a1.15 1.15 0 0 1-1.152 1.152H1.944a1.15 1.15 0 0 1-1.15-1.152V3.533a1.15 1.15 0 0 1 1.15-1.152z"/><path fill="url(#a)" d="M1.945 2.381H4.91c.75 0 .904.084 1.27.63.297.441.84.429 1.756.429h7.05a1.146 1.146 0 0 1 1.152 1.152v6.956a1.15 1.15 0 0 1-1.152 1.152H1.944a1.15 1.15 0 0 1-1.15-1.152V3.533a1.15 1.15 0 0 1 1.15-1.152z" style="fill:url(#a)"/><rect width="14.287" height="10.054" x="1.323" y="3.969" fill="url(#b)" rx=".529" ry=".529" style="fill:url(#b)"/><rect width="15.346" height="10.054" x=".794" y="4.498" fill="#5a6885" rx="1.058" ry="1.058"/><path d="M.794 13.365v.128c0 .586.472 1.058 1.058 1.058h13.229c.586 0 1.058-.472 1.058-1.058v-.128c0 .586-.472 1.058-1.058 1.058H1.852a1.056 1.056 0 0 1-1.058-1.058" opacity=".1"/><path fill="#fff" d="M.794 5.684v-.128c0-.586.472-1.058 1.058-1.058h13.229c.586 0 1.058.472 1.058 1.058v.128c0-.586-.472-1.058-1.058-1.058H1.852c-.586 0-1.058.472-1.058 1.058" opacity=".2"/><rect width="15.346" height="10.054" x=".794" y="4.498" fill="url(#c)" opacity=".15" rx="1.058" ry="1.058" style="fill:url(#c)"/></g><path d="M21.846 24a3.377 3.377 0 0 0-3.385 3.385v15.23A3.377 3.377 0 0 0 21.846 46h20.308a3.377 3.377 0 0 0 3.385-3.384V27.385A3.377 3.377 0 0 0 42.154 24zm0 1.692h1.692v1.693h-3.384c0-.938.754-1.693 1.692-1.693m3.385 0h13.538v8.462H25.23zm15.23 0h1.693c.937 0 1.692.755 1.692 1.693h-3.384zm-20.307 3.385h3.384v1.692h-3.384zm20.308 0h3.384v1.692h-3.384zM20.154 32.46h3.384v1.693h-3.384zm20.308 0h3.384v1.693h-3.384zm-20.308 3.385h3.384v1.692h-3.384zm5.076 0h13.54v8.462H25.23zm15.231 0h3.385v1.692h-3.384zM20.154 39.23h3.384v1.692h-3.384zm20.308 0h3.384v1.692h-3.384zm-20.309 3.384h3.385v1.693h-1.692a1.69 1.69 0 0 1-1.692-1.693m20.309 0h3.384c0 .938-.755 1.693-1.692 1.693H40.46z" opacity=".15" style="color:#363636"/></svg>