<svg width="64" height="64" version="1.1" viewBox="0 0 16.933 16.933" xmlns="http://www.w3.org/2000/svg" xmlns:xlink="http://www.w3.org/1999/xlink">
 <defs>
  <filter id="l" x="-.19937" y="-.32307" width="1.3987" height="1.6461" color-interpolation-filters="sRGB">
   <feGaussianBlur stdDeviation="1.061"/>
  </filter>
  <filter id="k" x="-.0098173" y="-.015908" width="1.0196" height="1.0318" color-interpolation-filters="sRGB">
   <feGaussianBlur stdDeviation=".03"/>
  </filter>
  <filter id="i" x="-.053806" y="-.087162" width="1.1076" height="1.1743" color-interpolation-filters="sRGB">
   <feGaussianBlur stdDeviation=".086"/>
  </filter>
  <filter id="j" x="-.049644" y="-.080436" width="1.0993" height="1.1609" color-interpolation-filters="sRGB">
   <feGaussianBlur stdDeviation=".762"/>
  </filter>
  <filter id="n" x="-.19929" y="-.32286" width="1.3986" height="1.6457" color-interpolation-filters="sRGB">
   <feGaussianBlur stdDeviation=".512"/>
  </filter>
  <filter id="h" x="-.049822" y="-.080715" width="1.0996" height="1.1614" color-interpolation-filters="sRGB">
   <feGaussianBlur stdDeviation=".128"/>
  </filter>
  <filter id="m" x="-.19467" y="-.31541" width="1.3893" height="1.6308" color-interpolation-filters="sRGB">
   <feGaussianBlur stdDeviation="2.988"/>
  </filter>
  <filter id="f" x="-.10958" y="-.12979" width="1.2192" height="1.2596" color-interpolation-filters="sRGB">
   <feGaussianBlur stdDeviation=".152"/>
  </filter>
  <filter id="g" x="-.18951" y="-.24271" width="1.379" height="1.4854" color-interpolation-filters="sRGB">
   <feGaussianBlur stdDeviation=".152"/>
  </filter>
  <linearGradient id="b" x1="9.969" x2="9.969" y1="295.76" y2="281.49" gradientTransform="translate(-.102 -283.55)scale(1.012)" gradientUnits="userSpaceOnUse">
   <stop stop-color="#666" offset="0"/>
   <stop stop-color="#9f9f9f" offset="1"/>
  </linearGradient>
  <linearGradient id="c" x1="5.033" x2="5.033" y1="294.19" y2="282.62" gradientTransform="translate(0 -280.07)" gradientUnits="userSpaceOnUse">
   <stop stop-color="#333" offset="0"/>
   <stop stop-color="#666" offset="1"/>
  </linearGradient>
  <linearGradient id="d" x1="8.467" x2="8.467" y1="283.24" y2="293.82" gradientTransform="translate(0 -280.07)" gradientUnits="userSpaceOnUse">
   <stop offset="0"/>
   <stop stop-color="#121212" offset="1"/>
  </linearGradient>
  <radialGradient id="e" cx="-136.99" cy="198.65" r="38.5" gradientTransform="matrix(.0982 0 0 .08247 21.918 -7.92)" gradientUnits="userSpaceOnUse">
   <stop stop-color="#2561db" stop-opacity=".941" offset="0"/>
   <stop stop-color="#0d0d0d" offset="1"/>
  </radialGradient>
  <linearGradient id="linearGradient22" x1="32" x2="32" y1="4.0003" y2="60" gradientTransform="matrix(.26458 0 0 .26458 -25.063 0)" gradientUnits="userSpaceOnUse">
   <stop stop-color="#d5d5d5" offset="0"/>
   <stop stop-color="#a4a4a4" offset="1"/>
  </linearGradient>
  <filter id="filter8" x="-.012" y="-.012" width="1.024" height="1.024" color-interpolation-filters="sRGB">
   <feGaussianBlur stdDeviation="0.074081873"/>
  </filter>
  <linearGradient id="linearGradient7-9" x1="2.5981" x2="10.583" y1="2.8356" y2="11.312" gradientUnits="userSpaceOnUse" xlink:href="#linearGradient6-3"/>
  <linearGradient id="linearGradient6-3">
   <stop stop-color="#ffffff" offset="0"/>
   <stop stop-color="#ffffff" stop-opacity="0" offset="1"/>
  </linearGradient>
  <linearGradient id="linearGradient8" x1="15.081" x2="12.7" y1="14.816" y2="12.171" gradientUnits="userSpaceOnUse" xlink:href="#linearGradient6-3"/>
 </defs>
 <path d="m5.3604 1.0584c-1.5298 0-2.5777 0.45621-3.2599 1.1998-0.67867 0.73981-1.0421 1.8001-1.0421 3.0006v6.4155c0 1.2006 0.36337 2.2609 1.0421 3.0006 0.68219 0.74354 1.7301 1.1998 3.2599 1.1998h6.2306c1.5298 0 2.5777-0.45621 3.2599-1.1998 0.67867-0.73981 1.024-1.7026 1.024-3.0006v-6.1745c0-1.5703-0.34528-2.5019-1.024-3.2416-0.68219-0.74354-1.7301-1.1998-3.2599-1.1998h-4.8457z" fill="url(#linearGradient22)"/>
 <g transform="translate(-4.1782e-5 9.2422e-5)" filter="url(#filter8)" opacity=".75">
  <path d="m5.3603 1.0583c-1.5298 0-2.5775 0.45637-3.2597 1.1999-0.67868 0.73981-1.0423 1.8002-1.0423 3.0008v6.415c0 1.2006 0.36361 2.2609 1.0423 3.0008 0.68219 0.74355 1.7299 1.1999 3.2597 1.1999h6.2305c1.5298 0 2.5775-0.45637 3.2597-1.1999 0.67868-0.73981 1.0242-1.7027 1.0242-3.0008v-6.1742c0-1.5703-0.34552-2.5018-1.0242-3.2416-0.68219-0.74355-1.7299-1.1999-3.2597-1.1999h-4.8456zm-0.00103 0.26406h6.2326c1.4772 0 2.437 0.43133 3.0644 1.1152 0.63411 0.69126 0.95341 1.5307 0.95341 3.0623v6.1742c0 1.2512-0.32181 2.1335-0.95341 2.822-0.6274 0.68381-1.5871 1.1136-3.0644 1.1136h-6.2326c-1.4772 0-2.437-0.42978-3.0644-1.1136-0.62537-0.68172-0.97253-1.6747-0.97253-2.822v-6.4145c0-1.1472 0.34717-2.1403 0.97253-2.822 0.6274-0.68381 1.5871-1.1152 3.0644-1.1152z" fill="url(#linearGradient7-9)"/>
  <path d="m5.3603 1.0583c-1.5298 0-2.5775 0.45637-3.2597 1.1999-0.67868 0.73981-1.0423 1.8002-1.0423 3.0008v6.415c0 1.2006 0.36361 2.2609 1.0423 3.0008 0.68219 0.74355 1.7299 1.1999 3.2597 1.1999h6.2305c1.5298 0 2.5775-0.45637 3.2597-1.1999 0.67868-0.73981 1.0242-1.7027 1.0242-3.0008v-6.1742c0-1.5703-0.34552-2.5018-1.0242-3.2416-0.68219-0.74355-1.7299-1.1999-3.2597-1.1999h-4.8456zm-0.00103 0.26406h6.2326c1.4772 0 2.437 0.43133 3.0644 1.1152 0.63411 0.69126 0.95341 1.5307 0.95341 3.0623v6.1742c0 1.2512-0.32181 2.1335-0.95341 2.822-0.6274 0.68381-1.5871 1.1136-3.0644 1.1136h-6.2326c-1.4772 0-2.437-0.42978-3.0644-1.1136-0.62537-0.68172-0.97253-1.6747-0.97253-2.822v-6.4145c0-1.1472 0.34717-2.1403 0.97253-2.822 0.6274-0.68381 1.5871-1.1152 3.0644-1.1152z" fill="url(#linearGradient8)" stroke-width="1.0001"/>
 </g>
 <g transform="translate(2.561 2.566)scale(.69746)" stroke-width="1.434">
  <circle cx="8.467" cy="8.46" r="7.966" fill="url(#b)"/>
  <circle cx="8.467" cy="8.46" r="6.35" fill="url(#c)"/>
  <circle cx="8.467" cy="8.46" r="5.292" fill="url(#d)"/>
  <circle cx="8.467" cy="8.46" r="4.116" fill="url(#e)" stroke="#0d224d" stroke-linecap="round" stroke-linejoin="round" stroke-width=".336"/>
  <path d="m4.945 6.47 1.464.81s.458-.477.772-.686c.348-.23 1.105-.416 1.093-.36l-.241-1.762S6.412 4.31 4.945 6.47" fill="#4678cc" filter="url(#f)" opacity=".8"/>
  <path d="m4.788 6.73 1.565.695s-.089.202-.123.421c-.032.2.004.387.004.387l-1.806-.019s.072-1.036.36-1.484" fill="#4678cc" filter="url(#g)" opacity=".8"/>
  <g transform="translate(0 -280.07)" fill="#fff">
   <ellipse transform="matrix(.15683 -.13591 .13591 .15683 36.278 248.68)" cx="-228.33" cy="44.944" rx="3.083" ry="1.903" fill-opacity=".3" filter="url(#h)"/>
   <ellipse transform="matrix(.10291 -.08918 .08918 .10291 26.112 262.03)" cx="-228.1" cy="51.166" rx="1.918" ry="1.184" fill-opacity=".3" filter="url(#i)"/>
   <ellipse transform="matrix(.11873 -.07942 .07942 .11873 27.406 259.75)" cx="-222.03" cy="111.72" rx="18.419" ry="11.368" filter="url(#j)" opacity=".2"/>
   <ellipse transform="matrix(.10291 -.08918 .08918 .10291 26.764 261.46)" cx="-235.29" cy="75.046" rx="3.667" ry="2.263" fill-opacity=".3" filter="url(#k)"/>
   <ellipse transform="matrix(.12523 -.10853 .10853 .12523 29.918 254.7)" cx="-234.21" cy="88.759" rx="6.386" ry="3.941" filter="url(#l)"/>
  </g>
  <g transform="translate(0 -280.07)">
   <ellipse transform="matrix(.14046 -.08281 .08281 .14046 31.651 256.02)" cx="-222.03" cy="111.72" rx="18.419" ry="11.368" fill="#4397ee" filter="url(#m)" opacity=".45"/>
   <ellipse transform="rotate(-40.914 369.07 103.988)scale(.10761)" cx="-228.33" cy="44.944" rx="3.083" ry="1.903" fill="#fff" fill-opacity=".854" filter="url(#n)"/>
   <ellipse transform="rotate(-40.912 374.32 107.86)scale(.09151)" cx="-228.1" cy="51.166" rx="1.918" ry="1.184" fill="#fff" fill-opacity=".3" filter="url(#i)"/>
  </g>
 </g>
</svg>
