<svg width="64" height="64" version="1.1" viewBox="0 0 16.933 16.933" xmlns="http://www.w3.org/2000/svg">
 <defs>
  <filter id="filter9" x="-.012" y="-.012" width="1.024" height="1.024" color-interpolation-filters="sRGB">
   <feGaussianBlur stdDeviation="0.074082"/>
  </filter>
  <linearGradient id="linearGradient3" x1="8.4665" x2="8.4665" y1="1.0583" y2="15.875" gradientUnits="userSpaceOnUse">
   <stop stop-color="#ffffff" offset="0"/>
   <stop stop-color="#eeeeee" offset=".74588"/>
   <stop stop-color="#d0d0d0" offset="1"/>
  </linearGradient>
 </defs>
 <path d="m5.3603 1.0584c-1.5298 0-2.5777 0.45621-3.2599 1.1998-0.67868 0.73981-1.0421 1.8001-1.0421 3.0007v6.4154c0 1.2006 0.36337 2.2609 1.0421 3.0007 0.68219 0.74355 1.7301 1.1998 3.2599 1.1998h6.2306c1.5298 0 2.5777-0.45622 3.2599-1.1998 0.67868-0.73981 1.024-1.7026 1.024-3.0007v-6.1745c0-1.5703-0.34527-2.5019-1.024-3.2417-0.68219-0.74355-1.7301-1.1998-3.2599-1.1998h-4.8457z" fill="url(#linearGradient3)"/>
 <path d="m1.0929 4.6301c-0.0097728 0.087218-0.017622 0.17544-0.023254 0.26458h14.786c-0.006025-0.090553-0.013345-0.17871-0.022221-0.26458h-14.74zm-0.034622 3.7041v0.26458h14.816v-0.26458h-14.816zm0.011369 3.7041c0.0056282 0.08914 0.013486 0.17736 0.023254 0.26458h14.752c0.008453-0.086502 0.015343-0.17468 0.020153-0.26458h-14.796z" fill="#c0c0c0"/>
 <path transform="rotate(90)" d="m1.0733-4.8947c0.0059093 0.090046 0.013392 0.17823 0.022737 0.26458h14.741c0.009346-0.08635 0.016828-0.17453 0.022738-0.26458h-14.786z" fill="#fc676b"/>
 <path d="m5.3603 1.0583c-1.5298 0-2.5775 0.45637-3.2597 1.1999-0.67868 0.73981-1.0423 1.8002-1.0423 3.0008v6.415c0 1.2006 0.36361 2.2609 1.0423 3.0008 0.68219 0.74355 1.7299 1.1999 3.2597 1.1999h6.2305c1.5298 0 2.5775-0.45637 3.2597-1.1999 0.67868-0.73981 1.0242-1.7027 1.0242-3.0008v-6.1742c0-1.5703-0.34552-2.5018-1.0242-3.2416-0.68219-0.74355-1.7299-1.1999-3.2597-1.1999h-4.8456zm-0.00103 0.26406h6.2326c1.4772 0 2.437 0.43133 3.0644 1.1152 0.63411 0.69126 0.95341 1.5307 0.95341 3.0623v6.1742c0 1.2512-0.32181 2.1335-0.95341 2.822-0.6274 0.68381-1.5871 1.1136-3.0644 1.1136h-6.2326c-1.4772 0-2.437-0.42978-3.0644-1.1136-0.62537-0.68172-0.97253-1.6747-0.97253-2.822v-6.4145c0-1.1472 0.34717-2.1403 0.97253-2.822 0.6274-0.68381 1.5871-1.1152 3.0644-1.1152z" fill="#ffffff" filter="url(#filter9)" style="mix-blend-mode:overlay"/>
</svg>
