<svg width="64" height="64" version="1.1" viewBox="0 0 16.933 16.933" xmlns="http://www.w3.org/2000/svg" xmlns:xlink="http://www.w3.org/1999/xlink">
 <defs>
  <linearGradient id="linearGradient3" x1="8.4665" x2="8.4665" y1="1.0583" y2="15.875" gradientUnits="userSpaceOnUse">
   <stop stop-color="#ffffff" offset="0"/>
   <stop stop-color="#ececec" offset="1"/>
  </linearGradient>
  <filter id="filter9" x="-.012" y="-.012" width="1.024" height="1.024" color-interpolation-filters="sRGB">
   <feGaussianBlur stdDeviation="0.074082"/>
  </filter>
 </defs>
 <path d="m5.3603 1.0584c-1.5298 0-2.5777 0.45621-3.2599 1.1998-0.67868 0.73981-1.0421 1.8001-1.0421 3.0007v6.4154c0 1.2006 0.36337 2.2609 1.0421 3.0007 0.68219 0.74355 1.7301 1.1998 3.2599 1.1998h6.2306c1.5298 0 2.5777-0.45622 3.2599-1.1998 0.67868-0.73981 1.024-1.7026 1.024-3.0007v-6.1745c0-1.5703-0.34527-2.5019-1.024-3.2417-0.68219-0.74355-1.7301-1.1998-3.2599-1.1998h-4.8457z" fill="url(#linearGradient3)"/>
 <path d="m5.3603 1.0583c-1.5298 0-2.5775 0.45637-3.2597 1.1999-0.67868 0.73981-1.0423 1.8002-1.0423 3.0008v6.415c0 1.2006 0.36361 2.2609 1.0423 3.0008 0.68219 0.74355 1.7299 1.1999 3.2597 1.1999h6.2305c1.5298 0 2.5775-0.45637 3.2597-1.1999 0.67868-0.73981 1.0242-1.7027 1.0242-3.0008v-6.1742c0-1.5703-0.34552-2.5018-1.0242-3.2416-0.68219-0.74355-1.7299-1.1999-3.2597-1.1999h-4.8456zm-0.00103 0.26406h6.2326c1.4772 0 2.437 0.43133 3.0644 1.1152 0.63411 0.69126 0.95341 1.5307 0.95341 3.0623v6.1742c0 1.2512-0.32181 2.1335-0.95341 2.822-0.6274 0.68381-1.5871 1.1136-3.0644 1.1136h-6.2326c-1.4772 0-2.437-0.42978-3.0644-1.1136-0.62537-0.68172-0.97253-1.6747-0.97253-2.822v-6.4145c0-1.1472 0.34717-2.1403 0.97253-2.822 0.6274-0.68381 1.5871-1.1152 3.0644-1.1152z" fill="#ffffff" filter="url(#filter9)"/>
 <path d="m5.065 3.704c-0.754 0-1.36 0.607-1.36 1.36v1.361h0.68v-1.36c0-0.377 0.303-0.68 0.68-0.68h1.36v-0.68zm5.442 0v0.68h1.361c0.377 0 0.68 0.304 0.68 0.68v1.361h0.68v-1.36c0-0.754-0.606-1.36-1.36-1.36zm-6.803 6.803v1.361c0 0.754 0.607 1.36 1.36 1.36h1.361v-0.68h-1.36c-0.37555 0-0.68-0.30445-0.68-0.68v-1.36zm8.845 0v1.361c0 0.377-0.304 0.68-0.68 0.68h-1.361v0.68h1.36c0.754 0 1.361-0.606 1.361-1.36v-1.36z" fill="#666666"/>
 <path d="m7.635 5.8207-0.83146 0.79373h-0.41599c-0.46067 0-0.83146 0.37079-0.83146 0.83146v2.8349c0 0.46067 0.37079 0.83146 0.83146 0.83146h4.1578c0.46067 0 0.83146-0.37079 0.83146-0.83146v-2.8349c0-0.46067-0.37079-0.83146-0.83146-0.83146h-0.41599l-0.83146-0.79373h-1.6629zm0.83146 1.3229a1.5875 1.5875 0 0 1 1.5875 1.5875 1.5875 1.5875 0 0 1-1.5875 1.5875 1.5875 1.5875 0 0 1-1.5875-1.5875 1.5875 1.5875 0 0 1 1.5875-1.5875zm0 0.52916a1.0583 1.0583 0 0 0-1.0583 1.0583 1.0583 1.0583 0 0 0 1.0583 1.0583 1.0583 1.0583 0 0 0 1.0583-1.0583 1.0583 1.0583 0 0 0-1.0583-1.0583z" fill="#666666" style="paint-order:stroke fill markers"/>
</svg>
