<svg xmlns="http://www.w3.org/2000/svg" width="64" height="64" viewBox="0 0 16.933 16.933"><defs><linearGradient id="a" x1="8.466" x2="8.466" y1="1.058" y2="15.875" gradientUnits="userSpaceOnUse"><stop offset="0" stop-color="#fff"/><stop offset="1" stop-color="#ececec"/></linearGradient><filter id="b" width="1.024" height="1.024" x="-.012" y="-.012" color-interpolation-filters="sRGB"><feGaussianBlur stdDeviation=".074"/></filter></defs><path fill="url(#a)" d="M5.36 1.058c-1.53 0-2.577.457-3.26 1.2-.678.74-1.042 1.8-1.042 3v6.416c0 1.2.364 2.261 1.042 3.001.683.744 1.73 1.2 3.26 1.2h6.23c1.53 0 2.579-.456 3.26-1.2.68-.74 1.025-1.703 1.025-3V5.5c0-1.57-.345-2.502-1.024-3.242-.682-.743-1.73-1.2-3.26-1.2H6.745z"/><path fill="#fff" d="M5.36 1.058c-1.53 0-2.577.457-3.26 1.2-.678.74-1.042 1.8-1.042 3.001v6.415c0 1.2.364 2.26 1.043 3 .682.744 1.73 1.2 3.26 1.2h6.23c1.53 0 2.577-.456 3.26-1.2.678-.739 1.024-1.702 1.024-3V5.5c0-1.57-.346-2.502-1.024-3.242-.683-.743-1.73-1.2-3.26-1.2H6.745zm0 .264h6.232c1.477 0 2.437.432 3.064 1.116.634.69.954 1.53.954 3.062v6.174c0 1.251-.322 2.134-.954 2.822-.627.684-1.587 1.114-3.064 1.114H5.359c-1.477 0-2.437-.43-3.064-1.114-.625-.682-.973-1.675-.973-2.822V5.26c0-1.148.348-2.14.973-2.822.627-.684 1.587-1.116 3.064-1.116" filter="url(#b)"/><path fill="#666" d="M5.065 3.704c-.754 0-1.36.607-1.36 1.36v1.361h.68v-1.36c0-.377.303-.68.68-.68h1.36v-.68zm5.442 0v.68h1.361c.377 0 .68.304.68.68v1.361h.68v-1.36c0-.754-.606-1.36-1.36-1.36zm-6.803 6.803v1.361c0 .754.607 1.36 1.36 1.36h1.361v-.68h-1.36a.68.68 0 0 1-.68-.68v-1.36zm8.845 0v1.361c0 .377-.304.68-.68.68h-1.361v.68h1.36c.754 0 1.361-.606 1.361-1.36v-1.36z"/><path fill="#666" d="m7.635 5.82-.831.794h-.416a.83.83 0 0 0-.832.832v2.835c0 .46.37.831.832.831h4.157a.83.83 0 0 0 .832-.831V7.446a.83.83 0 0 0-.832-.832h-.416l-.831-.793zm.831 1.324a1.59 1.59 0 0 1 1.588 1.587 1.59 1.59 0 0 1-1.588 1.588A1.59 1.59 0 0 1 6.88 8.73a1.59 1.59 0 0 1 1.587-1.587m0 .529A1.06 1.06 0 0 0 7.408 8.73 1.06 1.06 0 0 0 8.466 9.79a1.06 1.06 0 0 0 1.059-1.058 1.06 1.06 0 0 0-1.059-1.058" style="paint-order:stroke fill markers"/></svg>