<svg width="64" height="64" version="1.1" xmlns="http://www.w3.org/2000/svg">
 <defs>
  <filter id="filter8" x="-.012" y="-.012" width="1.024" height="1.024" color-interpolation-filters="sRGB">
   <feGaussianBlur stdDeviation="0.074081873"/>
  </filter>
  <linearGradient id="linearGradient7" x1="4.0753" x2="10.583" y1="1.4532" y2="11.312" gradientUnits="userSpaceOnUse">
   <stop stop-color="#ffffff" offset="0"/>
   <stop stop-color="#ffffff" stop-opacity=".45" offset=".31203"/>
   <stop stop-color="#ffffff" stop-opacity="0" offset="1"/>
  </linearGradient>
  <linearGradient id="linearGradient8" x1="15.081" x2="12.7" y1="14.816" y2="12.171" gradientUnits="userSpaceOnUse">
   <stop stop-color="#ffffff" offset="0"/>
   <stop stop-color="#ffffff" stop-opacity="0" offset="1"/>
  </linearGradient>
  <linearGradient id="linearGradient3" x1="8.4665" x2="8.4665" y1="1.0583" y2="15.875" gradientTransform="scale(3.7796)" gradientUnits="userSpaceOnUse">
   <stop stop-color="#a555d0" offset="0"/>
   <stop stop-color="#7632ae" offset="1"/>
  </linearGradient>
  <linearGradient id="linearGradient11" x1="18.402" x2="52" y1="15.334" y2="50" gradientUnits="userSpaceOnUse">
   <stop stop-color="#ffffff" offset="0"/>
   <stop stop-color="#ffffff" stop-opacity=".25" offset="1"/>
  </linearGradient>
  <linearGradient id="linearGradient13" x1="23.337" x2="44.5" y1="21.196" y2="42" gradientUnits="userSpaceOnUse">
   <stop stop-color="#ffffff" offset="0"/>
   <stop stop-color="#ffffff" stop-opacity=".25" offset="1"/>
  </linearGradient>
  <linearGradient id="linearGradient15" x1="32" x2="32" y1="24" y2="34" gradientUnits="userSpaceOnUse">
   <stop stop-color="#ffffff" offset="0"/>
   <stop stop-color="#ffffff" stop-opacity=".80318" offset="1"/>
  </linearGradient>
  <linearGradient id="linearGradient17" x1="32" x2="32" y1="17" y2="42" gradientUnits="userSpaceOnUse">
   <stop stop-color="#ffffff" stop-opacity=".5" offset="0"/>
   <stop stop-color="#ffffff" stop-opacity=".14" offset="1"/>
  </linearGradient>
  <linearGradient id="linearGradient19" x1="32" x2="32" y1="10" y2="50" gradientUnits="userSpaceOnUse">
   <stop stop-color="#ffffff" offset="0"/>
   <stop stop-color="#ffffff" stop-opacity=".5" offset="1"/>
  </linearGradient>
  <radialGradient id="radialGradient26" cx="32.027" cy="40.557" r="5" gradientTransform="matrix(5.5786 0 0 3.8062 -146.56 -117.84)" gradientUnits="userSpaceOnUse">
   <stop stop-color="#f5eefa" offset="0"/>
   <stop stop-color="#e6dbef" offset=".31211"/>
   <stop stop-color="#dccbe8" offset=".3812"/>
   <stop stop-color="#ccb4df" offset=".69026"/>
   <stop stop-color="#bda0d5" offset=".73569"/>
   <stop stop-color="#b898d3" offset="1"/>
  </radialGradient>
  <linearGradient id="linearGradient28" x1="28.818" x2="35.512" y1="35.531" y2="51.362" gradientUnits="userSpaceOnUse">
   <stop stop-color="#ffffff" offset="0"/>
   <stop stop-color="#ffffff" stop-opacity=".25" offset="1"/>
  </linearGradient>
  <filter id="filter28" x="-.044548" y="-.023443" width="1.0891" height="1.0469" color-interpolation-filters="sRGB">
   <feGaussianBlur stdDeviation="0.18559282"/>
  </filter>
  <filter id="filter29" x="-.048" y="-.048" width="1.096" height="1.096" color-interpolation-filters="sRGB">
   <feGaussianBlur stdDeviation="0.16"/>
  </filter>
  <filter id="filter30" x="-.01728" y="-.01728" width="1.0346" height="1.0346" color-interpolation-filters="sRGB">
   <feGaussianBlur stdDeviation="0.18"/>
  </filter>
  <filter id="filter31" x="-.01452" y="-.01452" width="1.029" height="1.029" color-interpolation-filters="sRGB">
   <feGaussianBlur stdDeviation="0.242"/>
  </filter>
 </defs>
 <path d="m20.26 4.0003c-5.782 0-9.7427 1.7243-12.321 4.5348-2.5651 2.7962-3.9387 6.8037-3.9387 11.341v24.248c0 4.5378 1.3734 8.5453 3.9387 11.341 2.5784 2.8103 6.5391 4.5348 12.321 4.5348h23.549c5.782 0 9.7427-1.7243 12.321-4.5348 2.5651-2.7962 3.8703-6.4352 3.8703-11.341v-23.337c0-5.9351-1.305-9.4562-3.8703-12.252-2.5784-2.8103-6.5391-4.5348-12.321-4.5348h-18.315z" fill="url(#linearGradient3)" stroke-width="3.7796"/>
 <path transform="scale(3.7796)" d="m5.3603 1.0583c-1.5298 0-2.5775 0.45637-3.2597 1.1999-0.67868 0.73981-1.0423 1.8002-1.0423 3.0008v6.415c0 1.2006 0.36361 2.2609 1.0423 3.0008 0.68219 0.74355 1.7299 1.1999 3.2597 1.1999h6.2305c1.5298 0 2.5775-0.45637 3.2597-1.1999 0.67868-0.73981 1.0242-1.7027 1.0242-3.0008v-6.1742c0-1.5703-0.34552-2.5018-1.0242-3.2416-0.68219-0.74355-1.7299-1.1999-3.2597-1.1999h-4.8456zm-0.00103 0.26406h6.2326c1.4772 0 2.437 0.43133 3.0644 1.1152 0.63411 0.69126 0.95341 1.5307 0.95341 3.0623v6.1742c0 1.2512-0.32181 2.1335-0.95341 2.822-0.6274 0.68381-1.5871 1.1136-3.0644 1.1136h-6.2326c-1.4772 0-2.437-0.42978-3.0644-1.1136-0.62537-0.68172-0.97253-1.6747-0.97253-2.822v-6.4145c0-1.1472 0.34717-2.1403 0.97253-2.822 0.6274-0.68381 1.5871-1.1152 3.0644-1.1152z" fill="url(#linearGradient7)" filter="url(#filter8)" opacity=".75"/>
 <path transform="scale(3.7796)" d="m5.3603 1.0583c-1.5298 0-2.5775 0.45637-3.2597 1.1999-0.67868 0.73981-1.0423 1.8002-1.0423 3.0008v6.415c0 1.2006 0.36361 2.2609 1.0423 3.0008 0.68219 0.74355 1.7299 1.1999 3.2597 1.1999h6.2305c1.5298 0 2.5775-0.45637 3.2597-1.1999 0.67868-0.73981 1.0242-1.7027 1.0242-3.0008v-6.1742c0-1.5703-0.34552-2.5018-1.0242-3.2416-0.68219-0.74355-1.7299-1.1999-3.2597-1.1999h-4.8456zm-0.00103 0.26406h6.2326c1.4772 0 2.437 0.43133 3.0644 1.1152 0.63411 0.69126 0.95341 1.5307 0.95341 3.0623v6.1742c0 1.2512-0.32181 2.1335-0.95341 2.822-0.6274 0.68381-1.5871 1.1136-3.0644 1.1136h-6.2326c-1.4772 0-2.437-0.42978-3.0644-1.1136-0.62537-0.68172-0.97253-1.6747-0.97253-2.822v-6.4145c0-1.1472 0.34717-2.1403 0.97253-2.822 0.6274-0.68381 1.5871-1.1152 3.0644-1.1152z" fill="url(#linearGradient8)" filter="url(#filter8)" opacity=".45"/>
 <circle cx="32" cy="30" r="20" fill="url(#linearGradient19)" opacity=".35" stroke-linecap="round" stroke-linejoin="round" stroke-width="4.1805"/>
 <circle cx="32" cy="29.5" r="12.5" fill="url(#linearGradient17)" stroke-linecap="round" stroke-linejoin="round" stroke-width="2.6128"/>
 <circle cx="32" cy="29" r="5" fill="url(#linearGradient15)" stroke-linecap="round" stroke-linejoin="round" stroke-width="1.0451"/>
 <path d="m32 10a20 20 0 0 0-20 20 20 20 0 0 0 20 20 20 20 0 0 0 20-20 20 20 0 0 0-20-20zm0 0.5a19.5 19.5 0 0 1 19.5 19.5 19.5 19.5 0 0 1-19.5 19.5 19.5 19.5 0 0 1-19.5-19.5 19.5 19.5 0 0 1 19.5-19.5z" fill="url(#linearGradient11)" filter="url(#filter31)" opacity=".5" stroke-linecap="round" stroke-linejoin="round" stroke-width="4.1805"/>
 <path d="m32 17a12.5 12.5 0 0 0-12.5 12.5 12.5 12.5 0 0 0 12.5 12.5 12.5 12.5 0 0 0 12.5-12.5 12.5 12.5 0 0 0-12.5-12.5zm0 0.5a12 12 0 0 1 12 12 12 12 0 0 1-12 12 12 12 0 0 1-12-12 12 12 0 0 1 12-12z" fill="url(#linearGradient13)" filter="url(#filter30)" opacity=".5" stroke-linecap="round" stroke-linejoin="round" stroke-width="2.6128"/>
 <circle cx="32" cy="29" r="4" fill="#ffffff" filter="url(#filter29)" stroke-linecap="round" stroke-linejoin="round" stroke-width=".8361"/>
 <path d="m31.889 35.531c-2.1904 0.0109-3.6835 1.1531-4.3395 2.4623-0.32752 0.65414-0.63253 1.2198-0.52827 3.0257 0.1731 3.018 1.0014 8.4896 1.4676 10.343 0.33932 1.3499 0.71552 2.138 1.4964 2.6385 0.30687 0.19624 0.99381 0.42227 1.4984 0.49363 0.15373 0.02156 0.33017 0.03326 0.51675 0.03678 0.18658-0.0036 0.36301-0.01522 0.51674-0.03678 0.50456-0.07136 1.1915-0.29738 1.4984-0.49363 0.78093-0.50052 1.1571-1.2886 1.4964-2.6385 0.4662-1.8534 1.2945-7.325 1.4676-10.343 0.10426-1.8058-0.20075-2.3715-0.52827-3.0257-0.65602-1.3093-2.1492-2.4514-4.3395-2.4623-0.03705-1.23e-4 -0.07437-2.68e-4 -0.11142 0-0.03705-2.68e-4 -0.07437-1.23e-4 -0.11142 0z" fill="url(#radialGradient26)" stroke-width=".98733" style="paint-order:fill markers stroke"/>
 <path d="m31.889 35.531c-2.1904 0.0109-3.6838 1.1517-4.3398 2.4609-0.32752 0.65414-0.6316 1.2196-0.52734 3.0254 0.1731 3.018 1.0006 8.4903 1.4668 10.344 0.33932 1.3499 0.71516 2.1382 1.4961 2.6387 0.30687 0.19624 0.99349 0.42278 1.498 0.49414 0.15373 0.02156 0.331 0.033589 0.51758 0.037109 0.18658-0.0036 0.36385-0.015549 0.51758-0.037109 0.50456-0.07136 1.1912-0.2979 1.498-0.49414 0.78093-0.50052 1.1568-1.2888 1.4961-2.6387 0.4662-1.8534 1.2937-7.3258 1.4668-10.344 0.10426-1.8058-0.19982-2.3712-0.52734-3.0254-0.65602-1.3093-2.1495-2.45-4.3398-2.4609-0.03705-1.23e-4 -0.074281-2.68e-4 -0.11133 0-0.03705-2.68e-4 -0.07428-1.23e-4 -0.11133 0zm0.003906 1h0.001953c0.03656-1.21e-4 0.068647-2.1e-4 0.097657 0a1.0001 1.0001 0 0 0 0.015624 0c0.029581-2.14e-4 0.06218-1.24e-4 0.09961 0 1.8437 0.0099 2.9613 0.93635 3.4492 1.9102 0.33547 0.67002 0.52092 0.83773 0.42383 2.5195-0.16662 2.9049-1.0185 8.4826-1.4395 10.156-0.31916 1.2697-0.56412 1.7191-1.0664 2.041-0.03203 0.01987-0.75894 0.2978-1.0977 0.3457-0.0936 0.01313-0.22902 0.021821-0.37695 0.025391-0.14744-0.0035-0.28304-0.012221-0.37695-0.025391-0.33873-0.04791-1.0656-0.32583-1.0977-0.3457-0.50229-0.32193-0.74725-0.77133-1.0664-2.041-0.42098-1.6736-1.2728-7.2514-1.4395-10.156-0.09709-1.6818 0.08836-1.8495 0.42383-2.5195 0.48793-0.9738 1.6056-1.9002 3.4492-1.9102z" fill="url(#linearGradient28)" filter="url(#filter28)" opacity=".75" stop-color="#000000" stroke-linecap="round" stroke-linejoin="round" style="paint-order:fill markers stroke"/>
</svg>
