<svg width="64" height="64" version="1.1" xmlns="http://www.w3.org/2000/svg" xmlns:xlink="http://www.w3.org/1999/xlink">
 <defs>
  <linearGradient id="linearGradient9">
   <stop stop-color="#ffffff" offset="0"/>
   <stop stop-color="#ffffff" stop-opacity=".86" offset=".2476"/>
   <stop stop-color="#ffffff" stop-opacity="0" offset="1"/>
  </linearGradient>
  <filter id="filter8" x="-.012" y="-.012" width="1.024" height="1.024" color-interpolation-filters="sRGB">
   <feGaussianBlur stdDeviation="0.074081873"/>
  </filter>
  <linearGradient id="linearGradient7" x1="6.7452" x2="10.583" y1="1.0583" y2="11.312" gradientUnits="userSpaceOnUse" xlink:href="#linearGradient6"/>
  <linearGradient id="linearGradient6">
   <stop stop-color="#ffffff" offset="0"/>
   <stop stop-color="#ffffff" stop-opacity="0" offset="1"/>
  </linearGradient>
  <linearGradient id="linearGradient8" x1="15.081" x2="12.7" y1="14.816" y2="12.171" gradientUnits="userSpaceOnUse" xlink:href="#linearGradient6"/>
  <linearGradient id="linearGradient3" x1="14.221" x2="2.3151" y1="2.8442" y2="14.817" gradientTransform="matrix(3.7796 0 0 3.7796 -.010112 .024226)" gradientUnits="userSpaceOnUse">
   <stop stop-color="#ff6857" offset="0"/>
   <stop stop-color="#ff2e69" offset="1"/>
  </linearGradient>
  <radialGradient id="radialGradient10" cx="30.565" cy="24.855" r="8.2354" gradientTransform="matrix(1.1257 1.1257 -6.165 6.165 155 -163.66)" gradientUnits="userSpaceOnUse" xlink:href="#linearGradient9"/>
  <linearGradient id="linearGradient13" x1="32" x2="32" y1="49.626" y2="27.164" gradientTransform="rotate(45 32 32)" gradientUnits="userSpaceOnUse">
   <stop stop-color="#ffffff" offset="0"/>
   <stop stop-color="#ffffff" stop-opacity=".5" offset="1"/>
  </linearGradient>
  <linearGradient id="linearGradient19" x1="22.386" x2="38.039" y1="24.5" y2="14.866" gradientUnits="userSpaceOnUse">
   <stop stop-color="#ffffff" offset="0"/>
   <stop stop-color="#ffffff" stop-opacity=".36" offset="1"/>
  </linearGradient>
  <filter id="filter19" x="-.02784" y="-.012528" width="1.0557" height="1.0251" color-interpolation-filters="sRGB">
   <feGaussianBlur stdDeviation="0.19106037"/>
  </filter>
  <linearGradient id="linearGradient21" x1="35.25" x2="28.75" y1="20.442" y2="20.442" gradientTransform="translate(13.255 -32)" gradientUnits="userSpaceOnUse">
   <stop stop-color="#ff355e" offset="0"/>
   <stop stop-color="#ff6c8e" offset="1"/>
  </linearGradient>
  <filter id="filter21" x="-.048" y="-.048" width="1.096" height="1.096" color-interpolation-filters="sRGB">
   <feGaussianBlur stdDeviation="0.115"/>
  </filter>
  <linearGradient id="linearGradient24" x1="21.125" x2="47.5" y1="49.664" y2="33.501" gradientUnits="userSpaceOnUse">
   <stop stop-color="#ffffff" offset="0"/>
   <stop stop-color="#ffffff" stop-opacity="0" offset="1"/>
  </linearGradient>
  <filter id="filter24" x="-.015811" y="-.019049" width="1.0316" height="1.0381" color-interpolation-filters="sRGB">
   <feGaussianBlur stdDeviation="0.17828897"/>
  </filter>
  <radialGradient id="radialGradient26" cx="31.962" cy="49.253" r="5.3407" gradientTransform="matrix(.67363 .69383 -1.0398 1.0096 49.829 -28.099)" gradientUnits="userSpaceOnUse">
   <stop stop-color="#ffffff" offset="0"/>
   <stop stop-color="#ffebf0" offset=".39001"/>
   <stop stop-color="#ff82af" offset="1"/>
  </radialGradient>
  <radialGradient id="radialGradient29" cx="30.565" cy="24.855" r="8.2354" gradientTransform="matrix(1.1257 1.1257 -6.165 6.165 154.98 -163.68)" gradientUnits="userSpaceOnUse" xlink:href="#linearGradient9"/>
 </defs>
 <path d="m20.25 4.0246c-5.782 1e-7 -9.7427 1.7243-12.321 4.5348-2.5651 2.7962-3.9387 6.8037-3.9387 11.341l-3e-7 24.248c-1e-7 4.5378 1.3734 8.5453 3.9387 11.341 2.5784 2.8103 6.5391 4.5348 12.321 4.5348h23.549c5.782 0 9.7427-1.7243 12.321-4.5348 2.5651-2.7962 3.8703-6.4352 3.8703-11.341v-23.337c0-5.9351-1.305-9.4562-3.8703-12.252-2.5784-2.8103-6.5391-4.5348-12.321-4.5348l-18.315-4e-7z" fill="url(#linearGradient3)" stroke-width="3.7796"/>
 <g transform="scale(3.7796)" filter="url(#filter8)" opacity=".45">
  <path d="m5.3603 1.0583c-1.5298 0-2.5775 0.45637-3.2597 1.1999-0.67868 0.73981-1.0423 1.8002-1.0423 3.0008v6.415c0 1.2006 0.36361 2.2609 1.0423 3.0008 0.68219 0.74355 1.7299 1.1999 3.2597 1.1999h6.2305c1.5298 0 2.5775-0.45637 3.2597-1.1999 0.67868-0.73981 1.0242-1.7027 1.0242-3.0008v-6.1742c0-1.5703-0.34552-2.5018-1.0242-3.2416-0.68219-0.74355-1.7299-1.1999-3.2597-1.1999h-4.8456zm-0.00103 0.26406h6.2326c1.4772 0 2.437 0.43133 3.0644 1.1152 0.63411 0.69126 0.95341 1.5307 0.95341 3.0623v6.1742c0 1.2512-0.32181 2.1335-0.95341 2.822-0.6274 0.68381-1.5871 1.1136-3.0644 1.1136h-6.2326c-1.4772 0-2.437-0.42978-3.0644-1.1136-0.62537-0.68172-0.97253-1.6747-0.97253-2.822v-6.4145c0-1.1472 0.34717-2.1403 0.97253-2.822 0.6274-0.68381 1.5871-1.1152 3.0644-1.1152z" fill="url(#linearGradient7)" opacity="1"/>
  <path d="m5.3603 1.0583c-1.5298 0-2.5775 0.45637-3.2597 1.1999-0.67868 0.73981-1.0423 1.8002-1.0423 3.0008v6.415c0 1.2006 0.36361 2.2609 1.0423 3.0008 0.68219 0.74355 1.7299 1.1999 3.2597 1.1999h6.2305c1.5298 0 2.5775-0.45637 3.2597-1.1999 0.67868-0.73981 1.0242-1.7027 1.0242-3.0008v-6.1742c0-1.5703-0.34552-2.5018-1.0242-3.2416-0.68219-0.74355-1.7299-1.1999-3.2597-1.1999h-4.8456zm-0.00103 0.26406h6.2326c1.4772 0 2.437 0.43133 3.0644 1.1152 0.63411 0.69126 0.95341 1.5307 0.95341 3.0623v6.1742c0 1.2512-0.32181 2.1335-0.95341 2.822-0.6274 0.68381-1.5871 1.1136-3.0644 1.1136h-6.2326c-1.4772 0-2.437-0.42978-3.0644-1.1136-0.62537-0.68172-0.97253-1.6747-0.97253-2.822v-6.4145c0-1.1472 0.34717-2.1403 0.97253-2.822 0.6274-0.68381 1.5871-1.1152 3.0644-1.1152z" fill="url(#linearGradient8)" opacity="1"/>
 </g>
 <path d="m29.614 22.774c-1.2918-0.13779-7.0549-0.46917-11.424 3.9001-4.9497 4.9497-6.9915 10.39-5.3323 11.014 1.2654 0.4762 4.0131-2.0218 6.8059-2.4693 0.80264-0.12861 1.5705-0.13885 2.2401-0.09391 1.5241-4.9876 4.0411-8.6433 7.7105-12.351zm11.619 11.674c-3.7058 3.6621-7.3639 6.1733-12.355 7.6925 0.04158 0.6591 0.02912 1.4109-0.09668 2.1959-0.44751 2.7928-2.9456 5.5405-2.4694 6.8059 0.6244 1.6592 6.0643-0.38256 11.014-5.3323 4.3026-4.3026 4.0474-9.9568 3.907-11.362z" fill="url(#linearGradient13)" opacity=".75"/>
 <path d="m45.579 18.421a15.01 11.562 45 0 0-4.3352-3.2552c-4.1598 1.558-8.1041 4.0967-11.513 7.4909-9.2e-4 9.18e-4 -0.0018 0.0018-0.0028 0.0028-3.8594 3.8757-6.459 7.68-7.9798 12.99-0.17052 0.55406-0.13398 1.2388 0.49304 1.8658l4.2772 4.2772c0.62702 0.62703 1.3118 0.66356 1.8658 0.49304 5.3104-1.5208 9.1146-4.1204 12.99-7.9798 9.21e-4 -9.18e-4 0.0018-0.0018 0.0028-0.0028 3.3896-3.4038 5.9255-7.3411 7.484-11.495a15.01 11.562 45 0 0-3.2828-4.3877zm-3.1074 3.1074a3.25 3.25 0 0 1 0 4.5962 3.25 3.25 0 0 1-4.5962 0 3.25 3.25 0 0 1 0-4.5962 3.25 3.25 0 0 1 4.5962 0z" fill="url(#radialGradient10)" stop-color="#000000" stroke-linecap="round" stroke-linejoin="round"/>
 <path d="m22.974 40.894c-0.9802-0.9802-2.1285-1.7973-4.0327-1.823-2.9228-0.03943-6.3004 5.0558-5.1376 5.4469 0.30506 0.10261 1.3182-1.1115 1.823-0.67396 0.33146 0.28726-0.05524 1.7125-1.0938 3.193-1.0386 1.4805-2.0108 2.2981-1.3479 2.961 0.66291 0.66291 2.0487 0.31826 3.5466 0.07734 1.5799-0.25412 2.6171-1.3794 2.9389-1.1049 0.42802 0.36518-0.92808 1.5247-0.66291 1.7015s2.2208-0.27621 4.0659-2.2539c2.028-2.1737 1.9499-3.3446 1.7678-4.4194-0.22097-1.3037-0.88701-2.1244-1.8672-3.1046z" fill="url(#radialGradient26)"/>
 <circle transform="rotate(45)" cx="45.255" cy="-11.559" r="3.25" fill="url(#linearGradient21)"/>
 <path transform="rotate(45 32 32)" d="m32 17.566a2.875 2.875 0 0 0-2.875 2.875 2.875 2.875 0 0 0 2.875 2.875 2.875 2.875 0 0 0 2.875-2.875 2.875 2.875 0 0 0-2.875-2.875zm0.20898 0.29688a2.5781 2.5781 0 0 1 2.5781 2.5781 2.5781 2.5781 0 0 1-2.5781 2.5781 2.5781 2.5781 0 0 1-2.5781-2.5781 2.5781 2.5781 0 0 1 2.5781-2.5781z" fill="#ffffff" filter="url(#filter21)" opacity=".45" style="mix-blend-mode:normal"/>
 <path transform="rotate(45 32 32)" d="m32 6.1992c-0.37531 0-0.59926 0.12614-0.75195 0.26367-0.09587 0.086353-0.16412 0.1772-0.22266 0.24414-4.6127 5.273-7.2199 12.483-7.2363 20.291-1e-6 0.0013 0 0.0026 0 0.0039 0.01153 5.4695 0.86335 9.9978 3.543 14.828 0.2712 0.51236 0.78122 0.9707 1.668 0.9707h6.0488c0.88675 0 1.3968-0.45835 1.668-0.9707 2.6796-4.8304 3.5314-9.3586 3.543-14.828 2e-6 -0.0013 2e-6 -0.0026 0-0.0039-0.016391-7.8082-2.6236-15.018-7.2363-20.291-0.058533-0.066942-0.12679-0.15779-0.22266-0.24414-0.1527-0.13754-0.37664-0.26367-0.75195-0.26367-0.0081 0-0.01743-1.304e-4 -0.02539 0-8e-3 -1.303e-4 -0.01538-1e-7 -0.02344 0zm-0.08203 0.99805c0.01102 8.424e-4 0.03402 0.00195 0.08203 0.00195 0.0029 0 0.0077-7.8e-6 0.0098 0 0.0054 2.59e-5 0.0066-5.9e-6 0.0059 0a1.0001 1.0001 0 0 0 0.01953 0h2e-3a1.0001 1.0001 0 0 0 2e-3 0c0.0029-1.72e-5 0.0055 0 0.0098 0 0.04801 0 0.07101-0.00111 0.08203-0.00195v0.00195h-2e-3v0.0039l2e-3 0.00195c0.01209 0.010891 0.04055 0.045707 0.14062 0.16016 4.438 5.0735 6.9722 12.048 6.9881 19.635-0.01131 5.3669-0.82334 9.6686-3.418 14.346a1.0001 1.0001 0 0 0-0.0098 0.01563c-0.14405 0.27214-0.24104 0.43945-0.7832 0.43945h-6.0488c-0.54216 0-0.63915-0.16731-0.7832-0.43945a1.0001 1.0001 0 0 0-0.0098-0.01563c-2.5943-4.6765-3.4064-8.9779-3.4179-14.344v-0.001953c0.01593-7.5869 2.55-14.561 6.9883-19.635 0.10007-0.11444 0.12853-0.14927 0.14062-0.16016l2e-3 -0.00195v-0.0039h-2e-3z" fill="url(#linearGradient19)" filter="url(#filter19)" stop-color="#000000" stroke-linecap="round" stroke-linejoin="round" style="mix-blend-mode:normal"/>
 <path transform="rotate(45 32 32)" d="m23.789 27.164c-1.0109 0.81599-5.3203 4.6568-5.3203 10.836 0 7 2.4028 12.29 4.0176 11.559 1.2315-0.55806 1.408-4.2673 3.0664-6.5586 0.47661-0.6585 1.0123-1.2087 1.5176-1.6504-2.4491-4.6044-3.2543-8.9692-3.2812-14.186zm16.471 0.03906c-0.0309 5.2099-0.84187 9.5722-3.2969 14.176 0.49546 0.43665 1.0182 0.97704 1.4844 1.6211 1.6584 2.2912 1.8349 6.0005 3.0664 6.5586 1.6148 0.73173 4.0176-4.5586 4.0176-11.559 0-6.0847-4.1786-9.9025-5.2715-10.797zm-16.483 1.463c0.24028 4.0811 1.0143 8.002 2.9114 11.789-0.38932 0.38439-1.5806 1.4543-1.9459 1.9591-0.96958 1.3396-1.4327 2.9381-1.8359 4.2148-0.20161 0.63835-0.38745 1.1975-0.56055 1.5684-0.13709 0.29372-0.19801 0.3308-0.21484 0.35742-0.05323-0.03477-0.10076-0.05536-0.21094-0.17774-0.31564-0.3506-0.74006-1.0753-1.1133-2.0547-0.74644-1.9589-1.3379-4.9367-1.3379-8.3223 0-4.2992 2.3922-7.8353 4.3079-9.3338zm16.359 0.45048c1.5178 1.6075 4.3956 4.6458 4.3956 8.8833 0 3.3856-0.59145 6.3634-1.3379 8.3223-0.37322 0.97943-0.79764 1.7041-1.1133 2.0547-0.11017 0.12238-0.1577 0.14296-0.21094 0.17774-0.01683-0.02662-0.07775-0.0637-0.21484-0.35742-0.1731-0.37087-0.35894-0.93001-0.56055-1.5684-0.40322-1.2767-0.86635-2.8752-1.8359-4.2148-0.35471-0.49007-1.5345-1.5071-1.9127-1.8836 1.8995-3.781 2.5453-7.3427 2.7905-11.414z" fill="url(#linearGradient24)" filter="url(#filter24)" opacity=".75" stop-color="#000000" stroke-linecap="round" stroke-linejoin="round" style="mix-blend-mode:normal"/>
 <path d="m50.224 13.736c-0.26538-0.26539-0.51293-0.33455-0.71816-0.34527-0.12885-0.0067-0.24135 0.0092-0.33008 0.01519-2.6839 0.17925-5.3596 0.76914-7.9522 1.7401a15.01 11.562 45 0 1 4.3352 3.2552 15.01 11.562 45 0 1 3.2828 4.3877c0.97485-2.598 1.5674-5.2803 1.7471-7.9701 0.0059-0.08872 0.02192-0.20122 0.01519-0.33008-0.01072-0.20522-0.07988-0.45277-0.34527-0.71816-0.0057-0.0057-0.01223-0.01242-0.01795-0.01795-0.0056-0.0057-0.01088-0.01087-0.01658-0.01657z" fill="url(#radialGradient29)" opacity=".65" stop-color="#000000" stroke-linecap="round" stroke-linejoin="round"/>
</svg>
