<svg width="64" height="64" image-rendering="optimizeSpeed" version="1.1" xmlns="http://www.w3.org/2000/svg" xmlns:xlink="http://www.w3.org/1999/xlink">
 <defs>
  <filter id="filter14" x="-.02298" y="-.013846" width="1.046" height="1.0277" color-interpolation-filters="sRGB">
   <feGaussianBlur stdDeviation="0.22044936"/>
  </filter>
  <linearGradient id="linearGradient13" x1="31.979" x2="31.979" y1="12.635" y2="51.382" gradientUnits="userSpaceOnUse">
   <stop stop-color="#fffeff" offset="0"/>
   <stop stop-color="#ebebeb" offset=".50428"/>
   <stop stop-color="#bdbdbd" offset="1"/>
  </linearGradient>
  <linearGradient id="linearGradient11" x1="31.992" x2="31.992" y1="12.136" y2="51.864" gradientUnits="userSpaceOnUse">
   <stop stop-color="#dbdbdb" offset="0"/>
   <stop stop-color="#c3c3c3" offset="1"/>
  </linearGradient>
  <filter id="filter8" x="-.012" y="-.012" width="1.024" height="1.024" color-interpolation-filters="sRGB">
   <feGaussianBlur stdDeviation="0.074081873"/>
  </filter>
  <linearGradient id="linearGradient7" x1="2.5981" x2="10.583" y1="2.8356" y2="11.312" gradientUnits="userSpaceOnUse" xlink:href="#linearGradient6"/>
  <linearGradient id="linearGradient6">
   <stop stop-color="#ffffff" offset="0"/>
   <stop stop-color="#ffffff" stop-opacity="0" offset="1"/>
  </linearGradient>
  <linearGradient id="linearGradient8" x1="15.081" x2="12.7" y1="14.816" y2="12.171" gradientUnits="userSpaceOnUse" xlink:href="#linearGradient6"/>
  <linearGradient id="linearGradient3-7" x1="8.4665" x2="8.4665" y1="1.0583" y2="15.875" gradientTransform="scale(3.7796)" gradientUnits="userSpaceOnUse">
   <stop stop-color="#323131" offset="0"/>
   <stop stop-color="#141414" offset="1"/>
  </linearGradient>
 </defs>
 <path d="m20.26 4.0003c-5.782 0-9.7427 1.7243-12.321 4.5348-2.5651 2.7962-3.9387 6.8037-3.9387 11.341v24.248c0 4.5378 1.3734 8.5453 3.9387 11.341 2.5784 2.8103 6.5391 4.5348 12.321 4.5348h23.549c5.782 0 9.7427-1.7243 12.321-4.5348 2.5651-2.7962 3.8703-6.4352 3.8703-11.341v-23.337c0-5.9351-1.305-9.4562-3.8703-12.252-2.5784-2.8103-6.5391-4.5348-12.321-4.5348h-18.315z" fill="url(#linearGradient3-7)" stroke-width="3.7796"/>
 <g transform="matrix(3.7796,0,0,3.7796,-1.5792e-4,3.4932e-4)" filter="url(#filter8)" opacity=".35">
  <path d="m5.3603 1.0583c-1.5298 0-2.5775 0.45637-3.2597 1.1999-0.67868 0.73981-1.0423 1.8002-1.0423 3.0008v6.415c0 1.2006 0.36361 2.2609 1.0423 3.0008 0.68219 0.74355 1.7299 1.1999 3.2597 1.1999h6.2305c1.5298 0 2.5775-0.45637 3.2597-1.1999 0.67868-0.73981 1.0242-1.7027 1.0242-3.0008v-6.1742c0-1.5703-0.34552-2.5018-1.0242-3.2416-0.68219-0.74355-1.7299-1.1999-3.2597-1.1999h-4.8456zm-0.00103 0.26406h6.2326c1.4772 0 2.437 0.43133 3.0644 1.1152 0.63411 0.69126 0.95341 1.5307 0.95341 3.0623v6.1742c0 1.2512-0.32181 2.1335-0.95341 2.822-0.6274 0.68381-1.5871 1.1136-3.0644 1.1136h-6.2326c-1.4772 0-2.437-0.42978-3.0644-1.1136-0.62537-0.68172-0.97253-1.6747-0.97253-2.822v-6.4145c0-1.1472 0.34717-2.1403 0.97253-2.822 0.6274-0.68381 1.5871-1.1152 3.0644-1.1152z" fill="url(#linearGradient7)"/>
  <path d="m5.3603 1.0583c-1.5298 0-2.5775 0.45637-3.2597 1.1999-0.67868 0.73981-1.0423 1.8002-1.0423 3.0008v6.415c0 1.2006 0.36361 2.2609 1.0423 3.0008 0.68219 0.74355 1.7299 1.1999 3.2597 1.1999h6.2305c1.5298 0 2.5775-0.45637 3.2597-1.1999 0.67868-0.73981 1.0242-1.7027 1.0242-3.0008v-6.1742c0-1.5703-0.34552-2.5018-1.0242-3.2416-0.68219-0.74355-1.7299-1.1999-3.2597-1.1999h-4.8456zm-0.00103 0.26406h6.2326c1.4772 0 2.437 0.43133 3.0644 1.1152 0.63411 0.69126 0.95341 1.5307 0.95341 3.0623v6.1742c0 1.2512-0.32181 2.1335-0.95341 2.822-0.6274 0.68381-1.5871 1.1136-3.0644 1.1136h-6.2326c-1.4772 0-2.437-0.42978-3.0644-1.1136-0.62537-0.68172-0.97253-1.6747-0.97253-2.822v-6.4145c0-1.1472 0.34717-2.1403 0.97253-2.822 0.6274-0.68381 1.5871-1.1152 3.0644-1.1152z" fill="url(#linearGradient8)" stroke-width="1.0001"/>
 </g>
 <path d="m30.675 12.148a1.862 1.862 0 0 0-2.072 1.85v13.37l-5.572-4.503a1.8617 1.8617 0 1 0-2.339 2.897l7.722 6.242-7.722 6.241a1.861 1.861 0 1 0 2.34 2.894l5.57-4.503v13.367a1.862 1.862 0 0 0 3.027 1.452l11.674-9.36a1.86 1.86 0 0 0 0-2.904l-8.969-7.19 8.969-7.19a1.86 1.86 0 0 0 0-2.908l-11.674-9.357a1.87 1.87 0 0 0-0.954-0.398m1.649 5.729 6.84 5.482-6.84 5.479zm0 17.285 6.84 5.482-6.84 5.479z" fill="url(#linearGradient11)"/>
 <path d="m30.467 12.635c-0.74845-0.0037-1.3632 0.59392-1.3633 1.3633v14.416l-6.3867-5.1602c-0.38558-0.31131-0.73005-0.37434-1.0547-0.32031-0.32464 0.05403-0.6368 0.24972-0.85938 0.52539-0.22258 0.27568-0.34763 0.62048-0.33203 0.94922s0.14958 0.65354 0.53516 0.96484l8.2031 6.6309-8.2051 6.6328-2e-3 2e-3c-0.39538 0.31109-0.53364 0.63628-0.55078 0.9668s0.10902 0.67881 0.33398 0.95703c0.22496 0.27822 0.54041 0.47491 0.86719 0.52734s0.67358-0.01445 1.0605-0.33594l2e-3 -2e-3 6.3867-5.1641v14.416c0.0018 1.1751 1.2977 1.7962 2.2148 1.0605l11.674-9.3594c0.68884-0.55147 0.68884-1.5716 0-2.123l-9.4551-7.5801 9.4551-7.582c0.69137-0.55155 0.69137-1.5754 0-2.127l-11.674-9.3574c-0.2005-0.16057-0.44216-0.26115-0.69726-0.29102h-2e-3c-0.05095-0.0057-0.10049-0.0095-0.15039-0.0098zm1.3574 4.2012 8.1387 6.5234-8.1387 6.5195zm0 17.285 8.1387 6.5234-8.1387 6.5195z" fill="url(#linearGradient13)" image-rendering="auto" stop-color="#000000"/>
 <path d="m30.467 12.635c-0.74845-0.0037-1.3632 0.59392-1.3633 1.3633v14.416l-6.3867-5.1602c-0.38558-0.31131-0.73005-0.37434-1.0547-0.32031-0.32464 0.05403-0.6368 0.24972-0.85938 0.52539-0.22258 0.27568-0.34763 0.62048-0.33203 0.94922 0.01096 0.23101 0.0798 0.45979 0.25391 0.68359-0.01214-0.06133-0.01856-0.12192-0.02148-0.18359-0.0156-0.32873 0.10946-0.67354 0.33203-0.94922 0.22258-0.27567 0.53474-0.47136 0.85938-0.52539 0.32464-0.05403 0.66911 9e-3 1.0547 0.32031l6.3867 5.1602v-14.416c4.9e-5 -0.76936 0.61483-1.367 1.3633-1.3633 0.0499 3e-4 0.09944 0.0041 0.15039 0.0098h2e-3c0.2551 0.02987 0.49677 0.13044 0.69727 0.29102l11.674 9.3574c0.09741 0.07771 0.18004 0.16399 0.25 0.25781-0.06657-0.28539-0.22673-0.55383-0.48242-0.75781l-11.674-9.3575c-0.2005-0.16057-0.44216-0.26115-0.69726-0.29102h-2e-3c-0.05095-0.0057-0.10049-0.0095-0.15039-0.0098zm9.3008 10.881-7.7109 6.1777v0.68555l8.1387-6.5195zm-10.752 8.6445-8.0117 6.4766-2e-3 2e-3c-0.39538 0.31109-0.53364 0.63628-0.55078 0.9668-0.01547 0.29827 0.08625 0.61038 0.27148 0.87305-0.03146-0.12418-0.04548-0.24924-0.03906-0.37305 0.01714-0.33051 0.1554-0.65571 0.55078-0.9668l2e-3 -2e-3 8.2051-6.6328zm4.9473 0.18555-0.19531 0.15625 9.4551 7.5801c0.09663 0.07737 0.18048 0.16264 0.25 0.25586-0.06635-0.28465-0.22774-0.55196-0.48242-0.75586zm-4.6289 3.7422-0.23242 0.1875v13.729c5.08e-4 0.33091 0.1031 0.61863 0.27148 0.84375-0.02567-0.10813-0.03888-0.22306-0.03906-0.34375zm10.434 4.7129-7.7109 6.1777v0.68555l8.1387-6.5195z" fill="#ffffff" filter="url(#filter14)" image-rendering="auto" stop-color="#000000"/>
</svg>
