<svg width="64" height="64" version="1.1" viewBox="0 0 16.933 16.933" xmlns="http://www.w3.org/2000/svg" xmlns:xlink="http://www.w3.org/1999/xlink">
 <defs>
  <linearGradient id="linearGradient6" x1="6.879" x2="10.583" y1="4.4978" y2="7.4082" gradientUnits="userSpaceOnUse">
   <stop stop-color="#ffffff" offset="0"/>
   <stop stop-color="#ffffff" stop-opacity="0" offset="1"/>
  </linearGradient>
  <filter id="filter6" x="-.019929" y="-.041847" width="1.0399" height="1.0837" color-interpolation-filters="sRGB">
   <feGaussianBlur stdDeviation="0.046141626"/>
  </filter>
  <linearGradient id="linearGradient8" x1="8.4665" x2="8.4665" y1="3.7041" y2="6.6145" gradientTransform="matrix(.9689 0 0 .92823 .26331 .37028)" gradientUnits="userSpaceOnUse">
   <stop stop-color="#5e5e5f" offset="0"/>
   <stop stop-color="#4f4f4f" offset="1"/>
  </linearGradient>
  <filter id="filter8" x="-.01296" y="-.02592" width="1.0259" height="1.0518" color-interpolation-filters="sRGB">
   <feGaussianBlur stdDeviation="0.03143188"/>
  </filter>
  <filter id="filter10" x="-.075" y="-.075" width="1.15" height="1.15" color-interpolation-filters="sRGB">
   <feGaussianBlur stdDeviation="0.045474361"/>
  </filter>
  <filter id="filter14" x="-.12979" y="-.12979" width="1.2596" height="1.2596" color-interpolation-filters="sRGB">
   <feGaussianBlur stdDeviation="0.023573911"/>
  </filter>
  <filter id="filter15" x="-.15732" y="-.15732" width="1.3146" height="1.3146" color-interpolation-filters="sRGB">
   <feGaussianBlur stdDeviation="0.040266861"/>
  </filter>
  <filter id="filter16" x="-.15732" y="-.15732" width="1.3146" height="1.3146" color-interpolation-filters="sRGB">
   <feGaussianBlur stdDeviation="0.040266861"/>
  </filter>
  <linearGradient id="linearGradient33" x1="8.4665" x2="8.4665" y1="2.9104" y2="14.023" gradientUnits="userSpaceOnUse">
   <stop stop-color="#848283" offset="0"/>
   <stop stop-color="#5c5c5c" offset="1"/>
  </linearGradient>
  <linearGradient id="linearGradient35" x1="8.4665" x2="8.4665" y1="3.046" y2="13.771" gradientUnits="userSpaceOnUse">
   <stop stop-color="#232223" offset="0"/>
   <stop stop-color="#767575" offset="1"/>
  </linearGradient>
  <filter id="filter35" x="-.01215" y="-.0081" width="1.0243" height="1.0162" color-interpolation-filters="sRGB">
   <feGaussianBlur stdDeviation="0.037503951"/>
  </filter>
  <filter id="filter36" x="-.1176" y="-.0784" width="1.2352" height="1.1568" color-interpolation-filters="sRGB">
   <feGaussianBlur stdDeviation="0.36300121"/>
  </filter>
  <filter id="filter9" x="-.012" y="-.012" width="1.024" height="1.024" color-interpolation-filters="sRGB">
   <feGaussianBlur stdDeviation="0.074082"/>
  </filter>
  <linearGradient id="linearGradient3" x1="8.4665" x2="8.4665" y1="1.0583" y2="15.875" gradientTransform="scale(3.7796)" gradientUnits="userSpaceOnUse">
   <stop stop-color="#e1e1e0" offset="0"/>
   <stop stop-color="#bdbdbb" offset="1"/>
  </linearGradient>
 </defs>
 <g transform="scale(.26458)">
  <path d="m20.26 4.0003c-5.782 0-9.7427 1.7243-12.321 4.5348-2.5651 2.7962-3.9387 6.8037-3.9387 11.341v24.248c0 4.5378 1.3734 8.5453 3.9387 11.341 2.5784 2.8103 6.5391 4.5348 12.321 4.5348h23.549c5.782 0 9.7427-1.7243 12.321-4.5348 2.5651-2.7962 3.8703-6.4352 3.8703-11.341v-23.337c0-5.9351-1.305-9.4562-3.8703-12.252-2.5784-2.8103-6.5391-4.5348-12.321-4.5348h-18.315z" fill="url(#linearGradient3)" stroke-width="3.7796"/>
  <path transform="scale(3.7796)" d="m5.3603 1.0583c-1.5298 0-2.5775 0.45637-3.2597 1.1999-0.67868 0.73981-1.0423 1.8002-1.0423 3.0008v6.415c0 1.2006 0.36361 2.2609 1.0423 3.0008 0.68219 0.74355 1.7299 1.1999 3.2597 1.1999h6.2305c1.5298 0 2.5775-0.45637 3.2597-1.1999 0.67868-0.73981 1.0242-1.7027 1.0242-3.0008v-6.1742c0-1.5703-0.34552-2.5018-1.0242-3.2416-0.68219-0.74355-1.7299-1.1999-3.2597-1.1999h-4.8456zm-0.00103 0.26406h6.2326c1.4772 0 2.437 0.43133 3.0644 1.1152 0.63411 0.69126 0.95341 1.5307 0.95341 3.0623v6.1742c0 1.2512-0.32181 2.1335-0.95341 2.822-0.6274 0.68381-1.5871 1.1136-3.0644 1.1136h-6.2326c-1.4772 0-2.437-0.42978-3.0644-1.1136-0.62537-0.68172-0.97253-1.6747-0.97253-2.822v-6.4145c0-1.1472 0.34717-2.1403 0.97253-2.822 0.6274-0.68381 1.5871-1.1152 3.0644-1.1152z" fill="#ffffff" filter="url(#filter9)"/>
 </g>
 <rect x="4.9443" y="3.0426" width="7.4082" height="11.112" rx="1.0583" ry="1.0583" fill="#000000" filter="url(#filter36)" opacity=".25"/>
 <rect x="4.7624" y="2.9104" width="7.4082" height="11.112" rx="1.0583" ry="1.0583" fill="url(#linearGradient35)" stroke="#2e2d2d" stroke-width=".15875"/>
 <rect x="5.6467" y="3.8085" width="5.6397" height="2.7015" rx=".31496" ry=".31496" fill="url(#linearGradient8)"/>
 <path d="m5.9608 3.8359c-0.15288 0-0.27336 0.11893-0.27336 0.27181v2.1032c0 0.15288 0.12048 0.2713 0.27336 0.2713h5.012c0.15288 0 0.2713-0.11842 0.2713-0.2713v-2.1032c0-0.15288-0.11842-0.27181-0.2713-0.27181h-5.012zm0 0.13281h5.012c0.08188 0 0.13849 0.057129 0.13849 0.13901v2.1032c0 0.081878-0.056608 0.13849-0.13849 0.13849h-5.012c-0.081878 0-0.14056-0.056612-0.14056-0.13849v-2.1032c0-0.081878 0.058679-0.13901 0.14056-0.13901z" fill="url(#linearGradient6)" filter="url(#filter6)" opacity=".43" stop-color="#000000" stroke-linecap="round" stroke-linejoin="round"/>
 <path d="m5.9602 3.7041c-0.22388 0-0.4041 0.18022-0.4041 0.4041v2.1022c0 0.22388 0.18022 0.4041 0.4041 0.4041h5.0125c0.22388 0 0.4041-0.18022 0.4041-0.4041v-2.1022c0-0.22388-0.18022-0.4041-0.4041-0.4041h-5.0125zm5.167e-4 0.13177h5.012c0.15288 0 0.2713 0.11893 0.2713 0.27181v2.1032c0 0.15288-0.11842 0.2713-0.2713 0.2713h-5.012c-0.15288 0-0.27336-0.11842-0.27336-0.2713v-2.1032c0-0.15288 0.12048-0.27181 0.27336-0.27181z" fill="#1e1d1d" filter="url(#filter8)" stop-color="#000000" stroke-linecap="round" stroke-linejoin="round"/>
 <g transform="translate(16.391)">
  <circle cx="-9.9855" cy="8.2651" r=".72759" fill="#d7d8d5" filter="url(#filter14)" stroke="#2e2d2d" stroke-linecap="round" stroke-linejoin="round" stroke-width=".26458"/>
  <circle cx="-9.9855" cy="8.2651" r=".72759" fill="#d7d8d5"/>
  <path d="m-9.9852 7.5374a0.72759 0.72759 0 0 0-0.72759 0.72759 0.72759 0.72759 0 0 0 0.72759 0.72759 0.72759 0.72759 0 0 0 0.72759-0.72759 0.72759 0.72759 0 0 0-0.72759-0.72759zm0.059943 0.17828a0.60954 0.60954 0 0 1 0.60977 0.60977 0.60954 0.60954 0 0 1-0.60977 0.60925 0.60954 0.60954 0 0 1-0.60977-0.60925 0.60954 0.60954 0 0 1 0.60977-0.60977z" fill="#ffffff" filter="url(#filter10)"/>
 </g>
 <g transform="translate(18.452)">
  <circle cx="-9.9855" cy="8.2651" r=".72759" fill="#d7d8d5" filter="url(#filter15)" stroke="#2e2d2d" stroke-linecap="round" stroke-linejoin="round" stroke-width=".26458"/>
  <circle cx="-9.9855" cy="8.2651" r=".72759" fill="#d7d8d5"/>
  <path d="m-9.9852 7.5374a0.72759 0.72759 0 0 0-0.72759 0.72759 0.72759 0.72759 0 0 0 0.72759 0.72759 0.72759 0.72759 0 0 0 0.72759-0.72759 0.72759 0.72759 0 0 0-0.72759-0.72759zm0.059943 0.17828a0.60954 0.60954 0 0 1 0.60977 0.60977 0.60954 0.60954 0 0 1-0.60977 0.60925 0.60954 0.60954 0 0 1-0.60977-0.60925 0.60954 0.60954 0 0 1 0.60977-0.60977z" fill="#ffffff" filter="url(#filter10)"/>
 </g>
 <g transform="translate(20.513)">
  <circle cx="-9.9855" cy="8.2651" r=".72759" fill="#d7d8d5" filter="url(#filter16)" stroke="#2e2d2d" stroke-linecap="round" stroke-linejoin="round" stroke-width=".26458"/>
  <circle cx="-9.9855" cy="8.2651" r=".72759" fill="#ff9305"/>
  <path d="m-9.9852 7.5374a0.72759 0.72759 0 0 0-0.72759 0.72759 0.72759 0.72759 0 0 0 0.72759 0.72759 0.72759 0.72759 0 0 0 0.72759-0.72759 0.72759 0.72759 0 0 0-0.72759-0.72759zm0.059943 0.17828a0.60954 0.60954 0 0 1 0.60977 0.60977 0.60954 0.60954 0 0 1-0.60977 0.60925 0.60954 0.60954 0 0 1-0.60977-0.60925 0.60954 0.60954 0 0 1 0.60977-0.60977z" fill="#ffd850" filter="url(#filter10)"/>
 </g>
 <g transform="translate(16.391 2.0488)">
  <circle cx="-9.9855" cy="8.2651" r=".72759" fill="#d7d8d5" filter="url(#filter14)" stroke="#2e2d2d" stroke-linecap="round" stroke-linejoin="round" stroke-width=".26458"/>
  <circle cx="-9.9855" cy="8.2651" r=".72759" fill="#d7d8d5"/>
  <path d="m-9.9852 7.5374a0.72759 0.72759 0 0 0-0.72759 0.72759 0.72759 0.72759 0 0 0 0.72759 0.72759 0.72759 0.72759 0 0 0 0.72759-0.72759 0.72759 0.72759 0 0 0-0.72759-0.72759zm0.059943 0.17828a0.60954 0.60954 0 0 1 0.60977 0.60977 0.60954 0.60954 0 0 1-0.60977 0.60925 0.60954 0.60954 0 0 1-0.60977-0.60925 0.60954 0.60954 0 0 1 0.60977-0.60977z" fill="#ffffff" filter="url(#filter10)"/>
 </g>
 <g transform="translate(18.452 2.0488)">
  <circle cx="-9.9855" cy="8.2651" r=".72759" fill="#d7d8d5" filter="url(#filter15)" stroke="#2e2d2d" stroke-linecap="round" stroke-linejoin="round" stroke-width=".26458"/>
  <circle cx="-9.9855" cy="8.2651" r=".72759" fill="#d7d8d5"/>
  <path d="m-9.9852 7.5374a0.72759 0.72759 0 0 0-0.72759 0.72759 0.72759 0.72759 0 0 0 0.72759 0.72759 0.72759 0.72759 0 0 0 0.72759-0.72759 0.72759 0.72759 0 0 0-0.72759-0.72759zm0.059943 0.17828a0.60954 0.60954 0 0 1 0.60977 0.60977 0.60954 0.60954 0 0 1-0.60977 0.60925 0.60954 0.60954 0 0 1-0.60977-0.60925 0.60954 0.60954 0 0 1 0.60977-0.60977z" fill="#ffffff" filter="url(#filter10)"/>
 </g>
 <g transform="translate(20.513 2.0488)">
  <circle cx="-9.9855" cy="8.2651" r=".72759" fill="#d7d8d5" filter="url(#filter16)" stroke="#2e2d2d" stroke-linecap="round" stroke-linejoin="round" stroke-width=".26458"/>
  <circle cx="-9.9855" cy="8.2651" r=".72759" fill="#ff9305"/>
  <path d="m-9.9852 7.5374a0.72759 0.72759 0 0 0-0.72759 0.72759 0.72759 0.72759 0 0 0 0.72759 0.72759 0.72759 0.72759 0 0 0 0.72759-0.72759 0.72759 0.72759 0 0 0-0.72759-0.72759zm0.059943 0.17828a0.60954 0.60954 0 0 1 0.60977 0.60977 0.60954 0.60954 0 0 1-0.60977 0.60925 0.60954 0.60954 0 0 1-0.60977-0.60925 0.60954 0.60954 0 0 1 0.60977-0.60977z" fill="#ffd850" filter="url(#filter10)"/>
 </g>
 <g transform="translate(16.391 4.0976)">
  <circle cx="-9.9855" cy="8.2651" r=".72759" fill="#d7d8d5" filter="url(#filter14)" stroke="#2e2d2d" stroke-linecap="round" stroke-linejoin="round" stroke-width=".26458"/>
  <circle cx="-9.9855" cy="8.2651" r=".72759" fill="#d7d8d5"/>
  <path d="m-9.9852 7.5374a0.72759 0.72759 0 0 0-0.72759 0.72759 0.72759 0.72759 0 0 0 0.72759 0.72759 0.72759 0.72759 0 0 0 0.72759-0.72759 0.72759 0.72759 0 0 0-0.72759-0.72759zm0.059943 0.17828a0.60954 0.60954 0 0 1 0.60977 0.60977 0.60954 0.60954 0 0 1-0.60977 0.60925 0.60954 0.60954 0 0 1-0.60977-0.60925 0.60954 0.60954 0 0 1 0.60977-0.60977z" fill="#ffffff" filter="url(#filter10)"/>
 </g>
 <g transform="translate(18.452 4.0976)">
  <circle cx="-9.9855" cy="8.2651" r=".72759" fill="#d7d8d5" filter="url(#filter15)" stroke="#2e2d2d" stroke-linecap="round" stroke-linejoin="round" stroke-width=".26458"/>
  <circle cx="-9.9855" cy="8.2651" r=".72759" fill="#d7d8d5"/>
  <path d="m-9.9852 7.5374a0.72759 0.72759 0 0 0-0.72759 0.72759 0.72759 0.72759 0 0 0 0.72759 0.72759 0.72759 0.72759 0 0 0 0.72759-0.72759 0.72759 0.72759 0 0 0-0.72759-0.72759zm0.059943 0.17828a0.60954 0.60954 0 0 1 0.60977 0.60977 0.60954 0.60954 0 0 1-0.60977 0.60925 0.60954 0.60954 0 0 1-0.60977-0.60925 0.60954 0.60954 0 0 1 0.60977-0.60977z" fill="#ffffff" filter="url(#filter10)"/>
 </g>
 <g transform="translate(20.513 4.0976)">
  <circle cx="-9.9855" cy="8.2651" r=".72759" fill="#d7d8d5" filter="url(#filter16)" stroke="#2e2d2d" stroke-linecap="round" stroke-linejoin="round" stroke-width=".26458"/>
  <circle cx="-9.9855" cy="8.2651" r=".72759" fill="#ff9305"/>
  <path d="m-9.9852 7.5374a0.72759 0.72759 0 0 0-0.72759 0.72759 0.72759 0.72759 0 0 0 0.72759 0.72759 0.72759 0.72759 0 0 0 0.72759-0.72759 0.72759 0.72759 0 0 0-0.72759-0.72759zm0.059943 0.17828a0.60954 0.60954 0 0 1 0.60977 0.60977 0.60954 0.60954 0 0 1-0.60977 0.60925 0.60954 0.60954 0 0 1-0.60977-0.60925 0.60954 0.60954 0 0 1 0.60977-0.60977z" fill="#ffd850" filter="url(#filter10)"/>
 </g>
 <path d="m5.8207 2.9104c-0.58631 0-1.0583 0.47201-1.0583 1.0583v8.9957c0 0.5863 0.47201 1.0583 1.0583 1.0583h5.2916c0.5863 0 1.0583-0.47201 1.0583-1.0583v-8.9957c0-0.58631-0.47201-1.0583-1.0583-1.0583h-5.2916zm-5.167e-4 0.13281h5.291c0.5153 0 0.92757 0.4102 0.92757 0.92551v8.9962c0 0.5153-0.41227 0.92602-0.92757 0.92602h-5.291c-0.51531 0-0.92551-0.41072-0.92551-0.92602v-8.9962c0-0.51531 0.4102-0.92551 0.92551-0.92551z" fill="url(#linearGradient33)" filter="url(#filter35)" stop-color="#000000"/>
</svg>
