<svg width="64" height="64" version="1.1" xmlns="http://www.w3.org/2000/svg" xmlns:xlink="http://www.w3.org/1999/xlink">
 <defs>
  <filter id="filter9" x="-.012" y="-.012" width="1.024" height="1.024" color-interpolation-filters="sRGB">
   <feGaussianBlur stdDeviation="0.074082"/>
  </filter>
  <linearGradient id="linearGradient3" x1="8.4665" x2="8.4665" y1="1.0583" y2="15.875" gradientTransform="scale(3.7796)" gradientUnits="userSpaceOnUse">
   <stop stop-color="#ffffff" offset="0"/>
   <stop stop-color="#ececec" offset="1"/>
  </linearGradient>
  <filter id="filter4" x="-.10529" y="-.24343" width="1.2106" height="1.4869" color-interpolation-filters="sRGB">
   <feGaussianBlur stdDeviation="0.83355707"/>
  </filter>
  <filter id="filter7" x="-.062349" y="-.020381" width="1.1247" height="1.0408" color-interpolation-filters="sRGB">
   <feGaussianBlur stdDeviation="0.19301251"/>
  </filter>
  <linearGradient id="linearGradient8" x1="30.875" x2="30.875" y1="26.166" y2="49.821" gradientUnits="userSpaceOnUse">
   <stop stop-color="#000000" offset="0"/>
   <stop stop-color="#000000" stop-opacity=".75" offset="1"/>
  </linearGradient>
 </defs>
 <path d="m20.26 4.0003c-5.782 0-9.7427 1.7243-12.321 4.5348-2.5651 2.7962-3.9387 6.8037-3.9387 11.341v24.248c0 4.5378 1.3734 8.5453 3.9387 11.341 2.5784 2.8103 6.5391 4.5348 12.321 4.5348h23.549c5.782 0 9.7427-1.7243 12.321-4.5348 2.5651-2.7962 3.8703-6.4352 3.8703-11.341v-23.337c0-5.9351-1.305-9.4562-3.8703-12.252-2.5784-2.8103-6.5391-4.5348-12.321-4.5348h-18.315z" fill="url(#linearGradient3)" stroke-width="3.7796"/>
 <path transform="scale(3.7796)" d="m5.3603 1.0583c-1.5298 0-2.5775 0.45637-3.2597 1.1999-0.67868 0.73981-1.0423 1.8002-1.0423 3.0008v6.415c0 1.2006 0.36361 2.2609 1.0423 3.0008 0.68219 0.74355 1.7299 1.1999 3.2597 1.1999h6.2305c1.5298 0 2.5775-0.45637 3.2597-1.1999 0.67868-0.73981 1.0242-1.7027 1.0242-3.0008v-6.1742c0-1.5703-0.34552-2.5018-1.0242-3.2416-0.68219-0.74355-1.7299-1.1999-3.2597-1.1999h-4.8456zm-0.00103 0.26406h6.2326c1.4772 0 2.437 0.43133 3.0644 1.1152 0.63411 0.69126 0.95341 1.5307 0.95341 3.0623v6.1742c0 1.2512-0.32181 2.1335-0.95341 2.822-0.6274 0.68381-1.5871 1.1136-3.0644 1.1136h-6.2326c-1.4772 0-2.437-0.42978-3.0644-1.1136-0.62537-0.68172-0.97253-1.6747-0.97253-2.822v-6.4145c0-1.1472 0.34717-2.1403 0.97253-2.822 0.6274-0.68381 1.5871-1.1152 3.0644-1.1152z" fill="#ffffff" filter="url(#filter9)"/>
 <path d="m23 14.611v-1.2221h6.442v1.2221h-2.4931v6.8711h-1.4503v-6.8711zm8.9025 6.9471q-0.93968 0-1.51-0.59749-0.57033-0.59749-0.57033-1.6893v-3.8619h1.4122v3.6447q0 0.60835 0.31504 0.95598 0.32047 0.34763 0.8745 0.34763 0.5649 0 0.92882-0.36392t0.36392-1.0266v-3.5578h1.4177v6.0726h-1.3416l-0.01086-1.2167q-0.54317 1.2927-1.8794 1.2927zm7.4143 0.04888q-0.91796 0-1.5806-0.38565-0.65724-0.38565-1.0157-1.0863-0.35306-0.70069-0.35306-1.6512 0-0.93425 0.34763-1.6404 0.35306-0.71155 0.994-1.1081 0.64637-0.40194 1.5154-0.40194 0.73871 0 1.3688 0.3259 0.63551 0.32047 1.0212 0.99943 0.38565 0.67353 0.38565 1.7381v0.4454h-4.2259q0.02716 0.80932 0.45083 1.233 0.4291 0.42367 1.1081 0.42367 0.46713 0 0.79846-0.20097 0.33676-0.20097 0.47799-0.58662l1.2982 0.26615q-0.21727 0.73328-0.90166 1.1841-0.67896 0.4454-1.6893 0.4454zm-1.5372-3.7261h2.8462q-0.06518-0.6518-0.41824-1.0429-0.34763-0.39651-0.9777-0.39651-0.64637 0-1.0266 0.41824-0.37479 0.41281-0.42367 1.0212z" fill="#fe5c54" filter="url(#filter4)" opacity=".25" stroke-linecap="round" stroke-linejoin="round" stroke-width=".057938" aria-label="Tue"/>
 <path d="m22.5 14.222v-1.2221h6.442v1.2221h-2.4931v6.8711h-1.4503v-6.8711zm8.9025 6.9471q-0.93968 0-1.51-0.59749-0.57033-0.59749-0.57033-1.6893v-3.8619h1.4122v3.6447q0 0.60835 0.31504 0.95598 0.32047 0.34763 0.8745 0.34763 0.5649 0 0.92882-0.36392t0.36392-1.0266v-3.5578h1.4177v6.0726h-1.3416l-0.01086-1.2167q-0.54317 1.2927-1.8794 1.2927zm7.4143 0.04888q-0.91796 0-1.5806-0.38565-0.65724-0.38565-1.0157-1.0863-0.35306-0.70069-0.35306-1.6512 0-0.93425 0.34763-1.6404 0.35306-0.71155 0.994-1.1081 0.64637-0.40194 1.5154-0.40194 0.73871 0 1.3688 0.3259 0.63551 0.32047 1.0212 0.99943 0.38565 0.67353 0.38565 1.7381v0.4454h-4.2259q0.02716 0.80932 0.45083 1.233 0.4291 0.42367 1.1081 0.42367 0.46713 0 0.79846-0.20097 0.33676-0.20097 0.47799-0.58662l1.2982 0.26615q-0.21727 0.73328-0.90166 1.1841-0.67896 0.4454-1.6893 0.4454zm-1.5372-3.7261h2.8462q-0.06518-0.6518-0.41824-1.0429-0.34763-0.39651-0.9777-0.39651-0.64637 0-1.0266 0.41824-0.37479 0.41281-0.42367 1.0212z" fill="#fe5c54" stroke="#ffffff" stroke-linecap="round" stroke-linejoin="round" stroke-width=".2" aria-label="Tue"/>
 <path d="m22.5 14.222v-1.2221h6.442v1.2221h-2.4931v6.8711h-1.4503v-6.8711zm8.9025 6.9471q-0.93968 0-1.51-0.59749-0.57033-0.59749-0.57033-1.6893v-3.8619h1.4122v3.6447q0 0.60835 0.31504 0.95598 0.32047 0.34763 0.8745 0.34763 0.5649 0 0.92882-0.36392t0.36392-1.0266v-3.5578h1.4177v6.0726h-1.3416l-0.01086-1.2167q-0.54317 1.2927-1.8794 1.2927zm7.4143 0.04888q-0.91796 0-1.5806-0.38565-0.65724-0.38565-1.0157-1.0863-0.35306-0.70069-0.35306-1.6512 0-0.93425 0.34763-1.6404 0.35306-0.71155 0.994-1.1081 0.64637-0.40194 1.5154-0.40194 0.73871 0 1.3688 0.3259 0.63551 0.32047 1.0212 0.99943 0.38565 0.67353 0.38565 1.7381v0.4454h-4.2259q0.02716 0.80932 0.45083 1.233 0.4291 0.42367 1.1081 0.42367 0.46713 0 0.79846-0.20097 0.33676-0.20097 0.47799-0.58662l1.2982 0.26615q-0.21727 0.73328-0.90166 1.1841-0.67896 0.4454-1.6893 0.4454zm-1.5372-3.7261h2.8462q-0.06518-0.6518-0.41824-1.0429-0.34763-0.39651-0.9777-0.39651-0.64637 0-1.0266 0.41824-0.37479 0.41281-0.42367 1.0212z" fill="#fe5c54" stroke-linecap="round" stroke-linejoin="round" stroke-width=".057938" aria-label="Tue"/>
 <path d="m35.241 25.978v24.029h-2.3452v-21.785l-0.01361 0.0093-6.3709 4.9011v-2.5797l5.9884-4.5753z" fill="#373737" stroke="#ffffff" stroke-linecap="round" stroke-linejoin="round" stroke-width=".7" aria-label="1"/>
 <path d="m35.241 25.978v24.029h-2.3452v-21.785l-0.01361 0.0093-6.3709 4.9011v-2.5797l5.9884-4.5753z" fill="#525252" stroke="#000000" stroke-linecap="round" stroke-linejoin="round" stroke-width=".3" aria-label="1"/>
 <path d="m32.719 26.629-5.5586 4.2461v0.93945l5.3262-4.0977a0.65006 0.65006 0 0 1 0.029297-0.021485l0.013672-0.009765a0.65006 0.65006 0 0 1 1.0156 0.53711v21.135h1.0449v-22.729h-1.8711z" fill="url(#linearGradient8)" filter="url(#filter7)" stop-color="#000000" stroke-linecap="round" stroke-linejoin="round"/>
</svg>
