<?xml version="1.0" encoding="utf-8"?>
<svg width="64" height="64" version="1.1" id="svg2" xmlns="http://www.w3.org/2000/svg">
  <defs id="defs2">
    <filter id="filter9" x="-0.012" y="-0.012" width="1.024" height="1.024" color-interpolation-filters="sRGB">
      <feGaussianBlur stdDeviation="0.074082" id="feGaussianBlur2"/>
    </filter>
    <linearGradient id="linearGradient3" x1="8.4665003" x2="8.4665003" y1="1.0583" y2="15.875" gradientUnits="userSpaceOnUse" gradientTransform="matrix(3.779602, 0, 0, 3.779602, 1.454287, -0.681476)">
      <stop stop-color="#ffffff" offset="0" id="stop1-5"/>
      <stop stop-color="#ececec" offset="1" id="stop2-3"/>
    </linearGradient>
  </defs>
  <path d="M 21.714 3.319 C 15.932 3.319 11.971 5.043 9.393 7.854 C 6.828 10.65 5.454 14.657 5.454 19.195 L 5.454 43.443 C 5.454 47.981 6.828 51.988 9.393 54.784 C 11.971 57.595 15.932 59.319 21.714 59.319 L 45.263 59.319 C 51.045 59.319 55.006 57.595 57.584 54.784 C 60.15 51.988 61.455 48.349 61.455 43.443 L 61.455 20.106 C 61.455 14.17 60.15 10.649 57.584 7.853 C 55.006 5.043 51.045 3.318 45.263 3.318 L 26.948 3.318 L 21.714 3.319 Z" fill="url(#linearGradient3)" id="path2" style="fill:url(#linearGradient3);stroke-width:3.7796"/>
  <path d="M 21.714 3.319 C 15.932 3.319 11.972 5.044 9.394 7.854 C 6.829 10.65 5.454 14.658 5.454 19.196 L 5.454 43.442 C 5.454 47.98 6.829 51.987 9.394 54.784 C 11.972 57.594 15.932 59.319 21.714 59.319 L 45.263 59.319 C 51.045 59.319 55.005 57.594 57.583 54.784 C 60.149 51.987 61.455 48.348 61.455 43.442 L 61.455 20.106 C 61.455 14.171 60.149 10.65 57.583 7.854 C 55.005 5.043 51.045 3.319 45.263 3.319 L 26.949 3.319 L 21.714 3.319 Z M 21.71 4.317 L 45.267 4.317 C 50.85 4.317 54.478 5.947 56.849 8.532 C 59.246 11.144 60.453 14.317 60.453 20.106 L 60.453 43.442 C 60.453 48.171 59.237 51.506 56.849 54.108 C 54.478 56.693 50.851 58.317 45.267 58.317 L 21.71 58.317 C 16.127 58.317 12.499 56.693 10.128 54.108 C 7.765 51.531 6.452 47.778 6.452 43.442 L 6.452 19.198 C 6.452 14.862 7.765 11.108 10.128 8.532 C 12.499 5.947 16.127 4.317 21.71 4.317 L 21.71 4.317 Z" fill="#ffffff" filter="url(#filter9)" id="path3"/>
  <linearGradient id="wggQ9XxoUzUhZN5WQr-sja" x1="31.5" x2="31.5" y1="10.98" y2="53.049" gradientUnits="userSpaceOnUse" gradientTransform="matrix(0.666667, 0, 0, 0.666667, 22.90905, 0.636922)">
    <stop offset="0" stop-color="#6dc7ff"/>
    <stop offset="1" stop-color="#e6abff"/>
  </linearGradient>
  <g transform="matrix(1, 0, 0, 1, -10.454524, 9.348711)" style="filter: none;">
    <path fill="url(#wggQ9XxoUzUhZN5WQr-sja)" d="M 60.743 21.97 C 59.703 18.657 56.588 16.096 53.322 15.229 C 53.349 14.916 53.362 14.603 53.362 14.283 C 53.362 12.157 52.629 9.611 51.576 7.97 C 48.909 7.97 45.63 9.718 43.842 11.638 C 42.056 9.718 38.549 7.778 35.576 7.97 C 34.548 9.591 33.709 12.197 33.709 14.283 C 33.709 14.67 33.729 15.043 33.768 15.418 C 30.783 16.417 28.049 18.863 27.075 21.97 C 28.115 25.283 31.096 27.844 34.362 28.71 C 34.335 29.023 34.322 29.337 34.322 29.657 C 34.322 31.783 35.189 34.331 36.242 35.97 C 36.503 35.99 36.642 35.97 36.91 35.97 C 39.682 35.97 42.056 34.224 43.842 32.304 C 45.63 34.224 48.136 35.97 50.908 35.97 C 51.402 35.97 51.77 36.044 52.242 35.97 C 53.27 34.351 53.975 31.743 53.975 29.657 C 53.975 29.27 53.955 28.897 53.916 28.524 C 56.903 27.523 59.769 25.077 60.743 21.97 Z M 53.342 27.031 L 48.482 31.17 C 47.875 31.683 47.123 31.957 46.348 31.957 C 45.983 31.957 45.603 31.89 45.243 31.763 C 45.243 31.763 39.829 29.27 38.062 28.358 C 37.588 28.11 36.769 27.598 36.182 27.223 C 35.335 26.684 34.789 25.723 34.883 24.71 C 34.896 24.603 34.908 24.498 34.928 24.384 C 35.109 23.537 35.649 22.817 36.409 22.404 C 36.741 22.231 37.102 22.131 37.456 22.104 L 34.536 18.364 C 33.549 17.117 33.749 15.291 34.968 14.298 C 36.19 13.297 37.976 13.498 38.956 14.745 L 40.476 16.603 C 40.616 16.324 40.809 16.071 41.063 15.863 C 41.636 15.398 42.376 15.277 43.035 15.477 C 43.156 15.11 43.382 14.777 43.695 14.517 C 44.135 14.156 44.682 13.997 45.235 14.057 C 45.65 14.104 46.03 14.27 46.343 14.536 C 46.475 14.251 46.663 13.997 46.916 13.796 C 47.736 13.123 48.963 13.123 49.81 14.044 C 51.623 15.997 53.029 18.023 54.516 24.118 C 54.763 25.144 54.221 26.277 53.342 27.031 Z" style="stroke-width: 1;"/>
    <path fill="url(#wggQ9XxoUzUhZN5WQr-sjb)" d="M 54.515 24.114 C 53.029 18.025 51.619 15.995 49.812 14.041 C 48.965 13.123 47.736 13.12 46.915 13.796 C 46.665 13.997 46.475 14.252 46.341 14.536 C 46.028 14.272 45.648 14.106 45.237 14.061 C 44.682 13.995 44.135 14.16 43.699 14.517 C 43.382 14.775 43.158 15.108 43.035 15.476 C 42.378 15.277 41.64 15.394 41.066 15.865 C 40.811 16.073 40.617 16.326 40.475 16.601 L 38.958 14.745 C 37.976 13.5 36.193 13.295 34.972 14.298 C 33.752 15.291 33.553 17.119 34.534 18.364 L 37.46 22.104 C 37.102 22.131 36.743 22.227 36.41 22.402 C 35.649 22.815 35.111 23.539 34.932 24.386 C 34.91 24.494 34.894 24.603 34.885 24.713 C 34.794 25.723 35.339 26.684 36.182 27.223 C 36.769 27.599 37.588 28.113 38.062 28.358 C 39.83 29.268 45.244 31.759 45.244 31.759 C 45.603 31.89 45.981 31.957 46.352 31.957 C 47.121 31.957 47.877 31.685 48.48 31.171 L 53.34 27.031 C 54.221 26.28 54.766 25.146 54.515 24.114 Z M 52.492 25.996 L 47.631 30.129 C 47.094 30.591 46.35 30.724 45.688 30.489 C 45.688 30.489 40.427 28.005 38.506 27.078 C 38.269 26.964 37.447 26.483 36.942 26.184 C 36.492 25.917 36.173 25.428 36.2 24.896 C 36.204 24.818 36.215 24.74 36.231 24.663 C 36.323 24.203 36.443 23.919 36.861 23.696 C 37.476 23.365 38.108 23.519 38.936 23.946 L 41.589 25.131 L 35.567 17.519 C 35.044 16.856 35.149 15.881 35.801 15.354 C 36.45 14.819 37.398 14.927 37.929 15.597 L 40.612 18.883 C 40.628 18.906 40.639 18.934 40.659 18.957 L 40.666 18.95 L 42.823 21.592 L 43.838 20.72 L 41.672 18.069 C 41.439 17.725 41.528 17.222 41.897 16.921 C 42.253 16.628 42.776 16.688 43.073 17.064 L 45.299 19.789 L 46.299 18.901 L 44.421 16.594 L 44.428 16.588 C 44.162 16.248 44.202 15.841 44.53 15.573 C 44.689 15.443 44.886 15.383 45.094 15.405 C 45.297 15.429 45.48 15.532 45.621 15.709 L 47.467 17.875 L 48.494 17.041 L 47.619 15.997 C 47.486 15.828 47.427 15.611 47.454 15.401 C 47.474 15.184 47.579 14.989 47.745 14.853 C 48.203 14.475 48.804 14.904 48.952 15.07 C 50.543 16.844 51.788 18.619 53.203 24.326 C 53.344 24.896 53.016 25.542 52.492 25.996 Z" style="stroke-width: 1;"/>
    <path fill="url(#wggQ9XxoUzUhZN5WQr-sjc)" d="M 44.242 41.303 C 40.885 41.303 37.748 39.839 35.585 37.273 C 29.572 36.931 24.909 32.024 24.909 25.971 C 24.909 24.601 25.155 23.257 25.642 21.97 C 25.155 20.683 24.909 19.339 24.909 17.971 C 24.909 12.193 29.172 7.405 34.872 6.721 C 37.038 4.123 40.194 2.637 43.576 2.637 C 46.933 2.637 50.07 4.101 52.233 6.667 C 58.246 7.011 62.909 11.916 62.909 17.971 C 62.909 19.339 62.663 20.683 62.176 21.97 C 62.661 23.257 62.909 24.601 62.909 25.971 C 62.909 31.749 58.646 36.535 52.946 37.219 C 50.78 39.819 47.624 41.303 44.242 41.303 Z M 43.576 3.971 C 40.509 3.971 37.653 5.355 35.739 7.769 L 35.563 7.991 L 35.281 8.019 C 30.128 8.511 26.243 12.788 26.243 17.971 C 26.243 19.256 26.489 20.517 26.975 21.72 L 27.077 21.97 L 26.975 22.22 C 26.489 23.423 26.243 24.684 26.243 25.971 C 26.243 31.401 30.499 35.786 35.931 35.954 L 36.238 35.963 L 36.43 36.204 C 38.343 38.598 41.191 39.971 44.242 39.971 C 47.309 39.971 50.165 38.585 52.079 36.171 L 52.255 35.949 L 52.537 35.923 C 57.69 35.429 61.575 31.151 61.575 25.971 C 61.575 24.684 61.329 23.423 60.843 22.22 L 60.741 21.97 L 60.843 21.72 C 61.329 20.517 61.575 19.256 61.575 17.971 C 61.575 12.541 57.319 8.154 51.887 7.988 L 51.58 7.977 L 51.388 7.736 C 49.475 5.344 46.627 3.971 43.576 3.971 Z" style="stroke-width: 1;"/>
  </g>
  <linearGradient id="wggQ9XxoUzUhZN5WQr-sjb" x1="32" x2="32" y1="19.02" y2="46.98" gradientUnits="userSpaceOnUse" gradientTransform="matrix(0.666667, 0, 0, 0.666667, 22.90905, 0.636922)">
    <stop offset="0" stop-color="#1a6dff"/>
    <stop offset="1" stop-color="#c822ff"/>
  </linearGradient>
  <linearGradient id="wggQ9XxoUzUhZN5WQr-sjc" x1="31.5" x2="31.5" y1="3" y2="61" gradientUnits="userSpaceOnUse" gradientTransform="matrix(0.666667, 0, 0, 0.666667, 22.90905, 0.636922)">
    <stop offset="0" stop-color="#1a6dff"/>
    <stop offset="1" stop-color="#c822ff"/>
  </linearGradient>
</svg>