<?xml version="1.0" encoding="utf-8"?>
<svg width="64" height="64" version="1.1" id="svg2" xmlns="http://www.w3.org/2000/svg">
  <defs id="defs2">
    <filter id="filter9" x="-0.012" y="-0.012" width="1.024" height="1.024" color-interpolation-filters="sRGB">
      <feGaussianBlur stdDeviation="0.074082" id="feGaussianBlur2"/>
    </filter>
    <linearGradient id="linearGradient3" x1="8.4665003" x2="8.4665003" y1="1.0583" y2="15.875" gradientUnits="userSpaceOnUse" gradientTransform="matrix(3.779602, 0, 0, 3.779602, 0, 1.183932)">
      <stop stop-color="#ffffff" offset="0" id="stop1-5"/>
      <stop stop-color="#ececec" offset="1" id="stop2-3"/>
    </linearGradient>
  </defs>
  <path d="M 20.26 5.184 C 14.478 5.184 10.517 6.909 7.939 9.719 C 5.374 12.515 4 16.523 4 21.06 L 4 45.308 C 4 49.846 5.373 53.853 7.939 56.65 C 10.517 59.46 14.478 61.184 20.26 61.184 L 43.809 61.184 C 49.591 61.184 53.552 59.46 56.13 56.65 C 58.695 53.853 60 50.214 60 45.308 L 60 21.971 C 60 16.036 58.695 12.515 56.13 9.719 C 53.552 6.908 49.591 5.184 43.809 5.184 L 25.494 5.184 L 20.26 5.184 Z" fill="url(#linearGradient3)" id="path2" style="fill:url(#linearGradient3);stroke-width:3.7796"/>
  <path d="M 20.26 5.184 C 14.478 5.184 10.518 6.909 7.94 9.719 C 5.374 12.515 4 16.523 4 21.061 L 4 45.307 C 4 49.845 5.374 53.852 7.94 56.649 C 10.518 59.459 14.478 61.184 20.26 61.184 L 43.809 61.184 C 49.591 61.184 53.551 59.459 56.129 56.649 C 58.694 53.853 60 50.213 60 45.307 L 60 21.971 C 60 16.036 58.694 12.515 56.129 9.719 C 53.551 6.909 49.591 5.184 43.809 5.184 L 25.494 5.184 L 20.26 5.184 Z M 20.256 6.182 L 43.813 6.182 C 49.396 6.182 53.024 7.812 55.395 10.397 C 57.792 13.01 58.999 16.183 58.999 21.971 L 58.999 45.307 C 58.999 50.036 57.782 53.371 55.395 55.973 C 53.024 58.558 49.396 60.182 43.813 60.182 L 20.256 60.182 C 14.673 60.182 11.045 58.558 8.674 55.973 C 6.31 53.397 4.998 49.644 4.998 45.307 L 4.998 21.063 C 4.998 16.727 6.31 12.974 8.674 10.397 C 11.045 7.813 14.672 6.182 20.256 6.182 Z" fill="#ffffff" filter="url(#filter9)" id="path3"/>
  <path fill="#2396ED" d="M 43.396 24.094 L 43.796 23.494 L 44.476 23.914 L 44.786 24.134 C 45.516 24.694 47.066 26.144 47.396 28.554 C 47.986 28.444 48.576 28.394 49.166 28.394 C 50.566 28.394 51.506 28.714 52.046 28.994 L 52.316 29.134 L 52.496 29.254 L 52.996 29.664 L 52.826 30.194 C 52.556 30.914 52.136 31.564 51.596 32.104 C 50.836 32.894 49.496 33.824 47.366 33.944 L 46.906 33.954 L 46.516 33.954 C 45.546 36.514 44.236 39.404 42.046 42.004 C 40.746 43.544 39.206 44.864 37.476 45.904 C 35.416 47.134 33.146 47.994 30.786 48.454 C 29.096 48.774 27.376 48.944 25.656 48.934 C 21.856 48.934 18.496 48.174 16.426 46.854 C 14.586 45.674 13.166 43.754 12.216 41.144 C 11.376 38.754 10.966 36.244 11.006 33.714 C 10.996 33.044 11.476 32.464 12.136 32.354 L 12.316 32.344 L 39.986 32.344 L 40.226 32.324 L 40.616 32.284 C 41.286 32.194 42.306 31.994 43.026 31.574 C 42.166 30.154 41.926 28.484 42.326 26.704 C 42.496 25.964 42.756 25.254 43.116 24.584 L 43.396 24.094 Z M 18.586 27.364 L 18.686 27.384 C 18.786 27.424 18.866 27.504 18.896 27.604 L 18.906 27.704 L 18.906 31.154 L 18.896 31.264 C 18.866 31.364 18.786 31.444 18.686 31.484 L 18.586 31.494 L 14.876 31.494 C 14.736 31.494 14.616 31.404 14.576 31.264 L 14.556 31.164 L 14.556 27.704 L 14.576 27.594 C 14.606 27.494 14.676 27.414 14.776 27.384 L 14.876 27.364 L 18.586 27.364 Z M 23.696 27.364 L 23.796 27.384 C 23.896 27.424 23.976 27.504 24.006 27.604 L 24.016 27.704 L 24.016 31.154 L 23.996 31.264 C 23.966 31.364 23.896 31.444 23.796 31.484 L 23.696 31.494 L 19.986 31.494 C 19.846 31.494 19.726 31.404 19.676 31.264 L 19.666 31.164 L 19.666 27.704 C 19.666 27.564 19.746 27.434 19.886 27.384 L 19.986 27.364 L 23.696 27.364 Z M 28.886 27.364 L 28.986 27.384 C 29.086 27.424 29.156 27.504 29.186 27.604 L 29.206 27.704 L 29.206 31.154 L 29.186 31.264 C 29.156 31.364 29.086 31.444 28.986 31.484 L 28.876 31.494 L 25.176 31.494 C 25.036 31.494 24.906 31.404 24.866 31.264 L 24.856 31.164 L 24.856 27.704 L 24.866 27.594 C 24.896 27.494 24.976 27.414 25.076 27.384 L 25.176 27.364 L 28.886 27.364 Z M 34.006 27.364 L 34.106 27.384 C 34.206 27.424 34.286 27.504 34.316 27.604 L 34.336 27.704 L 34.336 31.154 C 34.336 31.304 34.246 31.434 34.106 31.484 L 34.006 31.494 L 30.296 31.494 C 30.156 31.494 30.036 31.404 29.996 31.264 L 29.976 31.164 L 29.976 27.704 L 29.996 27.594 C 30.026 27.494 30.096 27.414 30.196 27.384 L 30.306 27.364 L 34.006 27.364 Z M 39.176 27.364 L 39.286 27.384 C 39.376 27.424 39.456 27.504 39.486 27.604 L 39.506 27.704 L 39.506 31.154 C 39.506 31.304 39.416 31.434 39.276 31.484 L 39.176 31.494 L 35.466 31.494 C 35.326 31.494 35.206 31.404 35.166 31.264 L 35.146 31.164 L 35.146 27.704 L 35.166 27.594 C 35.196 27.494 35.266 27.414 35.366 27.384 L 35.476 27.364 L 39.176 27.364 Z M 23.696 22.404 L 23.796 22.414 C 23.896 22.454 23.966 22.534 23.996 22.634 L 24.016 22.744 L 24.016 26.194 C 24.016 26.334 23.926 26.464 23.796 26.514 L 23.696 26.534 L 19.986 26.534 C 19.846 26.524 19.716 26.434 19.676 26.294 L 19.666 26.194 L 19.666 22.744 C 19.666 22.594 19.746 22.464 19.886 22.414 L 19.986 22.404 L 23.696 22.404 Z M 28.876 22.404 L 28.986 22.414 C 29.076 22.454 29.156 22.534 29.186 22.634 L 29.206 22.744 L 29.206 26.194 C 29.206 26.334 29.116 26.464 28.986 26.514 L 28.876 26.534 L 25.176 26.534 C 25.036 26.524 24.906 26.434 24.866 26.294 L 24.856 26.194 L 24.856 22.744 L 24.866 22.634 C 24.896 22.534 24.976 22.454 25.076 22.414 L 25.176 22.404 L 28.876 22.404 Z M 34.006 22.404 C 34.146 22.404 34.266 22.494 34.316 22.634 L 34.326 22.744 L 34.326 26.194 C 34.336 26.334 34.246 26.464 34.106 26.514 L 34.006 26.534 L 30.296 26.534 C 30.156 26.524 30.036 26.434 29.996 26.294 L 29.976 26.194 L 29.976 22.744 L 29.996 22.634 C 30.026 22.534 30.106 22.454 30.196 22.414 L 30.306 22.404 L 34.006 22.404 Z M 34.006 17.434 C 34.146 17.434 34.266 17.534 34.316 17.664 L 34.326 17.774 L 34.326 21.224 C 34.336 21.374 34.246 21.494 34.106 21.544 L 34.006 21.564 L 30.296 21.564 C 30.156 21.564 30.036 21.464 29.996 21.334 L 29.976 21.224 L 29.976 17.774 L 29.996 17.664 C 30.026 17.564 30.106 17.484 30.196 17.454 L 30.296 17.434 L 34.006 17.434 Z" style="stroke-width: 50;"/>
</svg>