<svg width="64" height="64" version="1.1" viewBox="0 0 16.933 16.933" xmlns="http://www.w3.org/2000/svg" xmlns:xlink="http://www.w3.org/1999/xlink">
 <defs>
  <linearGradient id="linearGradient41">
   <stop stop-color="#b6e5ff" offset="0"/>
   <stop stop-color="#b6e5ff" stop-opacity="0" offset="1"/>
  </linearGradient>
  <linearGradient id="linearGradient23">
   <stop stop-color="#ffffff" offset="0"/>
   <stop stop-color="#ffffff" stop-opacity="0" offset="1"/>
  </linearGradient>
  <linearGradient id="linearGradient15" x1="11.527" x2="5.3739" y1="5.9817" y2="5.9817" gradientUnits="userSpaceOnUse">
   <stop stop-color="#1e1d1d" offset="0"/>
   <stop stop-color="#302e2f" offset=".49822"/>
   <stop stop-color="#1d1c1c" offset="1"/>
  </linearGradient>
  <filter id="filter17" x="-.11998" y="-.22099" width="1.24" height="1.442" color-interpolation-filters="sRGB">
   <feGaussianBlur stdDeviation="0.32182813"/>
  </filter>
  <linearGradient id="linearGradient18" x1="1.2326" x2="-3.5731" y1="4.6011" y2="4.6011" gradientTransform="translate(9.6367 .0026355)" gradientUnits="userSpaceOnUse">
   <stop stop-color="#0b70b5" offset="0"/>
   <stop stop-color="#45baf2" offset=".41644"/>
   <stop stop-color="#50c1f4" offset=".5"/>
   <stop stop-color="#46b5eb" offset=".59007"/>
   <stop stop-color="#0b6eba" offset="1"/>
  </linearGradient>
  <linearGradient id="linearGradient22" x1="1.2326" x2="-3.5731" y1="4.6011" y2="4.6011" gradientTransform="translate(9.6367 .0026355)" gradientUnits="userSpaceOnUse">
   <stop stop-color="#161616" offset="0"/>
   <stop stop-color="#3c3d3d" offset=".33142"/>
   <stop stop-color="#444444" offset=".5"/>
   <stop stop-color="#383839" offset=".65198"/>
   <stop stop-color="#1d1d1d" offset="1"/>
  </linearGradient>
  <radialGradient id="radialGradient25" cx="8.4665" cy="3.2906" r="2.0229" gradientTransform="matrix(1.474 0 0 .7211 -4.013 1.5472)" gradientUnits="userSpaceOnUse" xlink:href="#linearGradient23"/>
  <radialGradient id="radialGradient26" cx="8.366" cy="6.2088" r="2.4321" gradientTransform="matrix(2.4327 0 0 1.4832 -11.886 -3.459)" gradientUnits="userSpaceOnUse">
   <stop stop-color="#a3ffb0" stop-opacity="0" offset="0"/>
   <stop stop-color="#67f591" stop-opacity="0" offset=".36321"/>
   <stop stop-color="#61f59f" offset=".46372"/>
   <stop stop-color="#df45ff" offset=".5"/>
   <stop stop-color="#323bff" offset=".53069"/>
   <stop stop-color="#000000" offset="1"/>
  </radialGradient>
  <filter id="filter32" x="-.0626" y="-.2602" width="1.1252" height="1.5204" color-interpolation-filters="sRGB">
   <feGaussianBlur stdDeviation="0.12527063"/>
  </filter>
  <linearGradient id="linearGradient32" x1="8.4665" x2="8.4665" y1="3.9112" y2="5.5424" gradientUnits="userSpaceOnUse">
   <stop stop-color="#ffffff" offset="0"/>
   <stop stop-color="#9fbfa8" offset=".43732"/>
   <stop stop-color="#9aa59c" stop-opacity="0" offset="1"/>
  </linearGradient>
  <filter id="filter34" x="-.08113" y="-.16148" width="1.1623" height="1.323" color-interpolation-filters="sRGB">
   <feGaussianBlur stdDeviation="0.16443016"/>
  </filter>
  <filter id="filter35" x="-.016972" y="-.065989" width="1.0339" height="1.132" color-interpolation-filters="sRGB">
   <feGaussianBlur stdDeviation="0.034398445"/>
  </filter>
  <filter id="filter36" x="-.043629" y="-.26695" width="1.0873" height="1.5339" color-interpolation-filters="sRGB">
   <feGaussianBlur stdDeviation="0.11920873"/>
  </filter>
  <filter id="filter8" x="-.012" y="-.012" width="1.024" height="1.024" color-interpolation-filters="sRGB">
   <feGaussianBlur stdDeviation="0.074081873"/>
  </filter>
  <linearGradient id="linearGradient7" x1="6.7452" x2="10.583" y1="1.0583" y2="11.312" gradientUnits="userSpaceOnUse" xlink:href="#linearGradient23"/>
  <linearGradient id="linearGradient8" x1="15.081" x2="12.7" y1="14.816" y2="12.171" gradientUnits="userSpaceOnUse" xlink:href="#linearGradient23"/>
  <linearGradient id="linearGradient3-7" x1="8.4665" x2="8.4665" y1="1.0583" y2="15.875" gradientUnits="userSpaceOnUse">
   <stop stop-color="#b0d0ff" offset="0"/>
   <stop stop-color="#4081ff" offset="1"/>
  </linearGradient>
  <linearGradient id="linearGradient42" x1="12.683" x2="11.249" y1="9.3719" y2="9.6781" gradientUnits="userSpaceOnUse" xlink:href="#linearGradient41"/>
  <filter id="filter42" x="-.028592" y="-.14943" width="1.0572" height="1.2989" color-interpolation-filters="sRGB">
   <feGaussianBlur stdDeviation="0.1088801"/>
  </filter>
  <filter id="filter44" x="-.017262" y="-.024577" width="1.0345" height="1.0492" color-interpolation-filters="sRGB">
   <feGaussianBlur stdDeviation="0.068015886"/>
  </filter>
  <linearGradient id="linearGradient45" x1="12.777" x2="9.6125" y1="8.3272" y2="11.734" gradientUnits="userSpaceOnUse">
   <stop stop-color="#ffffff" stop-opacity="0" offset="0"/>
   <stop stop-color="#c8f2ff" offset="1"/>
  </linearGradient>
  <linearGradient id="linearGradient46" x1="12.683" x2="11.249" y1="9.3719" y2="9.6781" gradientTransform="matrix(-1 0 0 1 16.932 0)" gradientUnits="userSpaceOnUse" xlink:href="#linearGradient41"/>
  <filter id="filter46" x="-.12011" y="-.18778" width="1.2402" height="1.3756" color-interpolation-filters="sRGB">
   <feGaussianBlur stdDeviation="0.16172872"/>
  </filter>
  <filter id="filter47" x="-.16654" y="-.26037" width="1.3331" height="1.5207" color-interpolation-filters="sRGB">
   <feGaussianBlur stdDeviation="0.22424352"/>
  </filter>
 </defs>
 <path d="m5.3603 1.0584c-1.5298 0-2.5777 0.45621-3.2599 1.1998-0.67868 0.73981-1.0421 1.8001-1.0421 3.0007v6.4154c0 1.2006 0.36337 2.2609 1.0421 3.0007 0.68219 0.74355 1.7301 1.1998 3.2599 1.1998h6.2306c1.5298 0 2.5777-0.45622 3.2599-1.1998 0.67868-0.73981 1.024-1.7026 1.024-3.0007v-6.1745c0-1.5703-0.34527-2.5019-1.024-3.2417-0.68219-0.74355-1.7301-1.1998-3.2599-1.1998h-4.8457z" fill="url(#linearGradient3-7)"/>
 <g filter="url(#filter8)" opacity=".45">
  <path d="m5.3603 1.0583c-1.5298 0-2.5775 0.45637-3.2597 1.1999-0.67868 0.73981-1.0423 1.8002-1.0423 3.0008v6.415c0 1.2006 0.36361 2.2609 1.0423 3.0008 0.68219 0.74355 1.7299 1.1999 3.2597 1.1999h6.2305c1.5298 0 2.5775-0.45637 3.2597-1.1999 0.67868-0.73981 1.0242-1.7027 1.0242-3.0008v-6.1742c0-1.5703-0.34552-2.5018-1.0242-3.2416-0.68219-0.74355-1.7299-1.1999-3.2597-1.1999h-4.8456zm-0.00103 0.26406h6.2326c1.4772 0 2.437 0.43133 3.0644 1.1152 0.63411 0.69126 0.95341 1.5307 0.95341 3.0623v6.1742c0 1.2512-0.32181 2.1335-0.95341 2.822-0.6274 0.68381-1.5871 1.1136-3.0644 1.1136h-6.2326c-1.4772 0-2.437-0.42978-3.0644-1.1136-0.62537-0.68172-0.97253-1.6747-0.97253-2.822v-6.4145c0-1.1472 0.34717-2.1403 0.97253-2.822 0.6274-0.68381 1.5871-1.1152 3.0644-1.1152z" fill="url(#linearGradient7)" opacity="1"/>
  <path d="m5.3603 1.0583c-1.5298 0-2.5775 0.45637-3.2597 1.1999-0.67868 0.73981-1.0423 1.8002-1.0423 3.0008v6.415c0 1.2006 0.36361 2.2609 1.0423 3.0008 0.68219 0.74355 1.7299 1.1999 3.2597 1.1999h6.2305c1.5298 0 2.5775-0.45637 3.2597-1.1999 0.67868-0.73981 1.0242-1.7027 1.0242-3.0008v-6.1742c0-1.5703-0.34552-2.5018-1.0242-3.2416-0.68219-0.74355-1.7299-1.1999-3.2597-1.1999h-4.8456zm-0.00103 0.26406h6.2326c1.4772 0 2.437 0.43133 3.0644 1.1152 0.63411 0.69126 0.95341 1.5307 0.95341 3.0623v6.1742c0 1.2512-0.32181 2.1335-0.95341 2.822-0.6274 0.68381-1.5871 1.1136-3.0644 1.1136h-6.2326c-1.4772 0-2.437-0.42978-3.0644-1.1136-0.62537-0.68172-0.97253-1.6747-0.97253-2.822v-6.4145c0-1.1472 0.34717-2.1403 0.97253-2.822 0.6274-0.68381 1.5871-1.1152 3.0644-1.1152z" fill="url(#linearGradient8)" opacity="1"/>
 </g>
 <path d="m4.5976 7.1891-5.17e-4 0.045474v0.00258c0 0.83519 1.2767 1.5639 2.9424 1.7657v4.7826a4.7285 2.3516 0 0 1-3.8023-2.3058 4.7285 2.3516 0 0 1 0.11265-0.48885 4.7285 2.3516 0 0 0-0.045991 0.09457z" fill="url(#linearGradient46)" opacity=".5" style="paint-order:stroke fill markers"/>
 <path d="m8.4665 2.9052c-2.1187 0-3.8363 0.98997-3.8364 2.2112l-0.06431 2.1155v0.00258c-2.852e-4 0.98458 1.6882 1.8237 3.9007 1.8237 2.0942 0 3.8685-0.83623 3.8685-1.8208v-0.00258l-0.032155-2.1391c-0.019777-1.2131-1.7316-2.1906-3.8364-2.1905z" fill="url(#linearGradient15)" style="paint-order:stroke fill markers"/>
 <ellipse cx="8.3921" cy="4.6527" rx="3.2189" ry="1.7476" fill="#ffffff" filter="url(#filter17)" opacity=".42" style="paint-order:stroke fill markers"/>
 <ellipse cx="8.4664" cy="4.8131" rx="2.4321" ry="1.2219" fill="#000000" filter="url(#filter34)" opacity=".5"/>
 <ellipse cx="8.4664" cy="4.6038" rx="2.4321" ry="1.2219" fill="url(#linearGradient18)" style="paint-order:stroke fill markers"/>
 <ellipse cx="8.4664" cy="4.6038" rx="2.4321" ry="1.2219" fill="url(#radialGradient26)" opacity=".35" style="paint-order:stroke fill markers"/>
 <path d="m8.4663 3.3816a2.4321 1.2219 0 0 0-2.4318 1.2221 2.4321 1.2219 0 0 0 0.051675 0.25114 2.4321 1.2219 0 0 1 2.3802-0.97046 2.4321 1.2219 0 0 1 2.3802 0.97046 2.4321 1.2219 0 0 0 0.052192-0.25114 2.4321 1.2219 0 0 0-2.4324-1.2221z" fill="url(#linearGradient22)" style="paint-order:stroke fill markers"/>
 <path d="m8.4665 3.7666a2.4321 1.2219 0 0 0-2.4014 1.0304 2.4321 1.2219 0 0 0 0 5.167e-4 2.4321 1.2219 0 0 0 0.053226 0.12402 2.4321 1.2219 0 0 1 1.079-0.72397 2.0229 1.295 0 0 1 1.2691-0.28628 2.0229 1.295 0 0 1 1.2691 0.2868 2.4321 1.2219 0 0 1 1.079 0.72397 2.4321 1.2219 0 0 0 0.053225-0.12505 2.4321 1.2219 0 0 0-2.4014-1.0304z" fill="#000000" filter="url(#filter32)" style="mix-blend-mode:normal"/>
 <path d="m8.4665 3.3816a2.4321 1.2219 0 0 0-2.4318 1.2221 2.4321 1.2219 0 0 0 5.168e-4 0.028938 2.4321 1.2219 0 0 1 2.4313-1.1932 2.4321 1.2219 0 0 1 2.4313 1.1927 2.4321 1.2219 0 0 0 1e-3 -0.028422 2.4321 1.2219 0 0 0-2.4324-1.2221z" fill="#000000" filter="url(#filter35)" opacity=".65"/>
 <ellipse cx="8.4665" cy="5.2062" rx="2.0229" ry="1.295" fill="url(#linearGradient32)" opacity=".25" style="paint-order:stroke fill markers"/>
 <ellipse cx="8.4665" cy="5.2062" rx="2.0229" ry="1.295" fill="url(#radialGradient25)" opacity=".5" style="paint-order:stroke fill markers"/>
 <path d="m5.1877 6.1468a3.9828 2.4586 0 0 0 3.2788 1.0717 3.9828 2.4586 0 0 0 3.2788-1.0717 4.2226 2.4586 0 0 1-3.2788 0.91465 4.2226 2.4586 0 0 1-3.2788-0.91465z" fill="#ffffff" filter="url(#filter36)" opacity=".25" stroke-width="1.3194"/>
 <path d="m6.4107 8.0654v-0.48481h0.16594c0.037743 0 0.068762 0.00694 0.093056 0.020824 0.024511 0.013665 0.042624 0.032103 0.054337 0.055313 0.011931 0.02321 0.017896 0.04924 0.017896 0.078089s-0.00597 0.054988-0.017896 0.078415c-0.011713 0.023427-0.029717 0.042081-0.054012 0.055964s-0.055314 0.020824-0.093057 0.020824h-0.10444v0.17538zm0.061821-0.22971h0.10152c0.038394 0 0.065725-0.00954 0.081994-0.028633 0.016269-0.019305 0.024403-0.043383 0.024403-0.072233 0-0.028633-0.00813-0.052385-0.024403-0.071257-0.016269-0.019089-0.043817-0.028633-0.082645-0.028633h-0.10087zm0.32863 0.33926v-0.48481h0.16594c0.037743 0 0.068762 0.00651 0.093056 0.019522 0.024511 0.012798 0.042624 0.030477 0.054337 0.053036 0.01193 0.022559 0.017895 0.048264 0.017895 0.077113 0 0.032103-0.00737 0.060085-0.022125 0.083946-0.014533 0.023861-0.037093 0.041105-0.067678 0.051734l0.10867 0.19945h-0.071582l-0.10086-0.18839c-0.00369 2.169e-4 -0.00748 3.254e-4 -0.011388 3.254e-4h-0.10444v0.18807zm0.061821-0.24305h0.10152c0.038177 0 0.065399-0.00824 0.081668-0.024728 0.016485-0.016485 0.024728-0.038936 0.024728-0.067352 0-0.02885-0.00824-0.051951-0.024728-0.069304-0.016269-0.017353-0.043708-0.02603-0.082319-0.02603h-0.10087zm0.38562 0.34434v-0.48481h0.29544v0.054663h-0.23362v0.15813h0.21767v0.054663h-0.21767v0.16269h0.23655v0.054663zm0.52742 0.049329-0.1783-0.48481h0.065075l0.10249 0.28763c0.00542 0.014967 0.011927 0.034598 0.019522 0.058892 0.00781 0.024077 0.016811 0.053469 0.027006 0.088176 0.010195-0.035574 0.019089-0.065183 0.026681-0.088827 0.00781-0.023861 0.014316-0.043275 0.019522-0.058242l0.099889-0.28763h0.065725l-0.17635 0.48481zm0.39076-0.46727v0.48481h-0.061821v-0.48481zm0.11129 0.48773v-0.48481h0.29544v0.054663h-0.23362v0.15813h0.21767v0.054663h-0.21767v0.16269h0.23655v0.054663zm0.49683-0.00877-0.1321-0.48481h0.063122l0.076788 0.29739c0.00521 0.020824 0.010196 0.041973 0.014967 0.063448 0.00477 0.021475 0.00933 0.0436 0.013666 0.066376 0.00434-0.022776 0.0089-0.044901 0.013666-0.066376 0.00477-0.021475 0.00998-0.042624 0.015618-0.063448l0.078415-0.29739h0.07028l0.077764 0.29739c0.010846 0.040563 0.020716 0.083187 0.029609 0.12787 0.00412-0.022342 0.00857-0.044034 0.01334-0.065075 0.00499-0.021257 0.010084-0.04219 0.015293-0.062797l0.076463-0.29739h0.063773l-0.13275 0.48481h-0.071907l-0.083295-0.30715c-0.00412-0.015401-0.00824-0.031886-0.012364-0.049457-0.00391-0.01757-0.0077-0.036984-0.011388-0.058242-0.00369 0.019739-0.00737 0.038286-0.011063 0.055639-0.00369 0.017136-0.00792 0.034489-0.01269 0.05206l-0.08297 0.30715zm0.89899-0.5789v0.48481h-0.060845v-0.42754h-0.00325l-0.11714 0.086874v-0.066376l0.10542-0.077764zm0.28943 0.4107c-0.054012 0-0.095985-0.021691-0.12592-0.065074-0.029717-0.043383-0.044576-0.10455-0.044576-0.18351 0-0.078523 0.014967-0.13969 0.044901-0.18351 0.030151-0.043817 0.072016-0.065725 0.12559-0.065725 0.053795 0 0.09566 0.021908 0.12559 0.065725 0.02993 0.043817 0.0449 0.10499 0.0449 0.18351 0 0.078957-0.01486 0.14013-0.04458 0.18351-0.02972 0.043383-0.07169 0.065074-0.12592 0.065074zm0-0.054012c0.035574 0 0.062905-0.017028 0.081994-0.051083 0.0193-0.034273 0.02896-0.082102 0.02896-0.14349 0-0.061821-0.0096-0.10987-0.02896-0.14414-0.01909-0.034273-0.04642-0.051409-0.081994-0.051409-0.035357 0-0.062689 0.017245-0.081994 0.051734-0.019305 0.034273-0.028958 0.082211-0.028958 0.14381 0 0.061387 0.00965 0.10922 0.028958 0.14349 0.019305 0.034055 0.046637 0.051083 0.081994 0.051083zm0.23754-0.10339 0.12787-0.18676-0.12039-0.177h0.06833l0.04523 0.070606c0.0082 0.013015 0.01562 0.025379 0.02213 0.037092 0.0067 0.011497 0.01323 0.022776 0.01952 0.033839 0.0059-0.011063 0.01182-0.022342 0.0179-0.033839 0.0061-0.011713 0.01334-0.024077 0.0218-0.037092l0.0462-0.070606h0.06703l-0.12169 0.18026 0.12755 0.18351h-0.068l-0.05336-0.081668c-8e-3 -0.012364-0.01518-0.024077-0.02148-0.03514-0.0063-0.011279-0.01248-0.022017-0.01855-0.032212-0.0056 0.010195-0.01139 0.020932-0.01725 0.032212-0.0059 0.011063-0.01291 0.022776-0.02115 0.03514l-0.05401 0.081668z" fill="#ffffff" opacity=".15" stroke-linecap="round" stroke-linejoin="round" stroke-width=".0041648" style="paint-order:stroke fill markers" aria-label="PREVIEW 10x"/>
 <path d="m8.4665 9.1279a4.7285 2.3516 0 0 0-4.5697 1.7487 4.8282 2.3516 0 0 1 4.5697-1.6081 4.8282 2.3516 0 0 1 4.5697 1.6081 4.7285 2.3516 0 0 0-4.5697-1.7487z" fill="#ffffff" filter="url(#filter42)" opacity=".5" style="paint-order:stroke fill markers"/>
 <path d="m12.334 7.1891 5.17e-4 0.045474v0.00258c0 0.98458-1.7742 1.821-3.8684 1.821-2.1269 0-3.7696-0.77527-3.8932-1.7099l-0.82216 3.9118h0.00723a4.7285 2.3516 0 0 1 0.014469-0.04496 4.7285 2.3516 0 0 0-0.034623 0.26458 4.7285 2.3516 0 0 0 4.7283 2.3512 4.7285 2.3516 0 0 0 4.7283-2.3512 4.7285 2.3516 0 0 0-0.11265-0.48885 4.7285 2.3516 0 0 1 0.04599 0.09457z" fill="#ffffff" opacity=".25" style="paint-order:stroke fill markers"/>
 <path d="m12.334 7.1891 5.17e-4 0.045474v0.0025838c0 0.83519-1.2767 1.5639-2.9424 1.7657v4.7826a4.7285 2.3516 0 0 0 3.8023-2.3058 4.7285 2.3516 0 0 0-0.11265-0.48885 4.7285 2.3516 0 0 1 0.045991 0.094566l-0.79373-3.8963z" fill="url(#linearGradient42)" opacity=".5" style="paint-order:stroke fill markers"/>
 <path d="m12.334 7.1891 5.17e-4 0.045474v0.00258c0 0.022714-7.13e-4 0.045147-0.0026 0.067695-0.0018 0.022383-0.0046 0.044459-0.0083 0.066661-0.0073 0.044399-0.01823 0.088192-0.03256 0.13177-0.01436 0.043748-0.03207 0.086917-0.05322 0.12971-0.02107 0.042628-0.04533 0.084544-0.07286 0.12609v5.167e-4l0.694 3.3305c-0.0067 3e-3 -0.01323 0.0063-0.01964 0.0098 0.05825 0.13021 0.08731 0.25574 0.08992 0.3824-0.0011 0.50501-0.43143 1.023-1.2381 1.4242-0.8076 0.40159-1.9545 0.65987-3.2245 0.6599-1.27-6.2e-5 -2.419-0.2583-3.2266-0.6599-0.8076-0.40159-1.2385-0.92019-1.2387-1.4257 0.00144-0.06717 0.010729-0.13569 0.027388-0.2036-0.00376-0.0013-0.00755-0.0025-0.011369-0.0036l0.72453-3.4953v-5.168e-4c-0.027151-0.04077-0.050754-0.082183-0.071829-0.12402-0.00425-0.00843-0.00789-0.016851-0.011885-0.025321-0.015013-0.031824-0.027875-0.064275-0.039273-0.096633-0.00461-0.013085-0.00891-0.026107-0.012919-0.039273-0.0096-0.031519-0.017165-0.063136-0.023254-0.095083-0.0024-0.012604-0.00591-0.025058-0.00775-0.037723-5.548e-4 -0.00381-0.00156-0.00756-0.00207-0.011369l-0.77772 3.701 0.069245 0.08578c-0.02453-0.01626-0.051601-0.02831-0.080097-0.03566l-0.033589 0.16071h0.00723c0.00453-0.01501 0.00935-0.03 0.014469-0.04496-0.021537 0.0878-0.033096 0.17613-0.034623 0.26458 3.593e-4 1.2986 2.1172 2.3512 4.7283 2.3512 2.6111-5.6e-5 4.7279-1.0527 4.7283-2.3512-0.0031-0.16446-0.04083-0.32831-0.11265-0.48885 0.01664 0.03136 0.03197 0.06289 0.04599 0.09457z" fill="url(#linearGradient45)" filter="url(#filter44)" stop-color="#000000" stroke-linecap="round" stroke-linejoin="round" style="paint-order:stroke fill markers"/>
 <ellipse transform="matrix(1.5353 0 0 1.2688 -4.5321 -3.1183)" cx="8.4665" cy="11.253" rx="1.6158" ry="1.0335" fill="#ffffff" filter="url(#filter47)" opacity=".25" style="mix-blend-mode:normal;paint-order:stroke fill markers"/>
 <ellipse transform="matrix(1.1166 0 0 1 -.9874 0)" cx="8.4665" cy="11.253" rx="1.6158" ry="1.0335" fill="#ffffff" filter="url(#filter46)" opacity=".26" style="mix-blend-mode:normal;paint-order:stroke fill markers"/>
</svg>
