<svg width="64" height="64" version="1.1" xmlns="http://www.w3.org/2000/svg">
 <defs>
  <filter id="filter38" x="-.012" y="-.012" width="1.024" height="1.024" color-interpolation-filters="sRGB">
   <feGaussianBlur stdDeviation="0.074081873"/>
  </filter>
  <linearGradient id="linearGradient37" x1="15.081" x2="12.7" y1="14.816" y2="12.171" gradientUnits="userSpaceOnUse">
   <stop stop-color="#2dacfa" offset="0"/>
   <stop stop-color="#2dacfa" stop-opacity="0" offset="1"/>
  </linearGradient>
  <linearGradient id="linearGradient36" x1="6.7452" x2="10.583" y1="1.0583" y2="11.312" gradientUnits="userSpaceOnUse">
   <stop stop-color="#3ae7fd" offset="0"/>
   <stop stop-color="#3ae7fd" stop-opacity="0" offset="1"/>
  </linearGradient>
  <linearGradient id="linearGradient3" x1="8.4665" x2="8.4665" y1="1.0583" y2="15.875" gradientTransform="scale(3.7796)" gradientUnits="userSpaceOnUse">
   <stop stop-color="#02c5fd" offset="0"/>
   <stop stop-color="#2f71f9" offset="1"/>
  </linearGradient>
  <filter id="filter5" x="-.14573" y="-.14829" width="1.2915" height="1.2966" color-interpolation-filters="sRGB">
   <feGaussianBlur stdDeviation="2.1569313"/>
  </filter>
 </defs>
 <path d="m20.26 4.0003c-5.782 0-9.7427 1.7243-12.321 4.5348-2.5651 2.7962-3.9387 6.8037-3.9387 11.341v24.248c0 4.5378 1.3734 8.5453 3.9387 11.341 2.5784 2.8103 6.5391 4.5348 12.321 4.5348h23.549c5.782 0 9.7427-1.7243 12.321-4.5348 2.5651-2.7962 3.8703-6.4352 3.8703-11.341v-23.337c0-5.9351-1.305-9.4562-3.8703-12.252-2.5784-2.8103-6.5391-4.5348-12.321-4.5348h-18.315z" fill="url(#linearGradient3)" stroke-width="3.7796"/>
 <g transform="scale(3.7796)" filter="url(#filter38)" opacity=".75" style="mix-blend-mode:normal">
  <path d="m5.3603 1.0583c-1.5298 0-2.5775 0.45637-3.2597 1.1999-0.67868 0.73981-1.0423 1.8002-1.0423 3.0008v6.415c0 1.2006 0.36361 2.2609 1.0423 3.0008 0.68219 0.74355 1.7299 1.1999 3.2597 1.1999h6.2305c1.5298 0 2.5775-0.45637 3.2597-1.1999 0.67868-0.73981 1.0242-1.7027 1.0242-3.0008v-6.1742c0-1.5703-0.34552-2.5018-1.0242-3.2416-0.68219-0.74355-1.7299-1.1999-3.2597-1.1999h-4.8456zm-0.00103 0.26406h6.2326c1.4772 0 2.437 0.43133 3.0644 1.1152 0.63411 0.69126 0.95341 1.5307 0.95341 3.0623v6.1742c0 1.2512-0.32181 2.1335-0.95341 2.822-0.6274 0.68381-1.5871 1.1136-3.0644 1.1136h-6.2326c-1.4772 0-2.437-0.42978-3.0644-1.1136-0.62537-0.68172-0.97253-1.6747-0.97253-2.822v-6.4145c0-1.1472 0.34717-2.1403 0.97253-2.822 0.6274-0.68381 1.5871-1.1152 3.0644-1.1152z" fill="url(#linearGradient37)" opacity="1"/>
  <path d="m5.3603 1.0583c-1.5298 0-2.5775 0.45637-3.2597 1.1999-0.67868 0.73981-1.0423 1.8002-1.0423 3.0008v6.415c0 1.2006 0.36361 2.2609 1.0423 3.0008 0.68219 0.74355 1.7299 1.1999 3.2597 1.1999h6.2305c1.5298 0 2.5775-0.45637 3.2597-1.1999 0.67868-0.73981 1.0242-1.7027 1.0242-3.0008v-6.1742c0-1.5703-0.34552-2.5018-1.0242-3.2416-0.68219-0.74355-1.7299-1.1999-3.2597-1.1999h-4.8456zm-0.00103 0.26406h6.2326c1.4772 0 2.437 0.43133 3.0644 1.1152 0.63411 0.69126 0.95341 1.5307 0.95341 3.0623v6.1742c0 1.2512-0.32181 2.1335-0.95341 2.822-0.6274 0.68381-1.5871 1.1136-3.0644 1.1136h-6.2326c-1.4772 0-2.437-0.42978-3.0644-1.1136-0.62537-0.68172-0.97253-1.6747-0.97253-2.822v-6.4145c0-1.1472 0.34717-2.1403 0.97253-2.822 0.6274-0.68381 1.5871-1.1152 3.0644-1.1152z" fill="url(#linearGradient36)" opacity="1"/>
 </g>
 <circle cx="32.02" cy="32.044" r="30.001" fill="none"/>
 <path class="ColorScheme-Text" d="m31.153 15.575c-2.0437-0.03846-4.0072 1.1689-4.7644 3.1371-0.9038 2.3492-0.64661 4.8952-0.60887 7.3474 0.01222 0.79394-0.20034 1.5186-0.52516 2.2018-0.15541 0.17764-0.30969 0.34582-0.45771 0.48662-1.6055 1.774-5.5963 6.4363-4.3253 11.213-0.32017 0.14084-0.69122 0.15755-1.0973 0.20476-0.47854 0.05564-1.0118 0.17749-1.434 0.67994-0.37716 0.43688-0.43392 1.0347-0.47758 1.5978-0.04372 0.56371-0.07772 1.1039-0.27402 1.4364-0.57201 0.89015-0.76754 1.5476-0.63778 2.0838 0.13012 0.5377 0.57911 0.87314 1.122 1.1328 1.0858 0.51937 2.6557 0.83255 3.7333 1.7971l6.18e-4 6.18e-4c1.1453 1.014 2.4122 1.581 3.5226 1.5887 0.92234 0.0065 1.7363-0.40887 2.2018-1.2467 0.41345 0.07416 0.84472 0.06617 1.2822-0.05841 1.4746-0.41999 3.0278-0.44161 4.5355-0.12947 0.90354 0.18705 1.8052 0.11651 2.6595-0.14273 0.36321 0.69006 0.98187 1.1571 1.7297 1.3581 1.0816 0.29074 2.4207 0.05463 3.7038-0.72631l6.15e-4 -6.18e-4h0.0012c1.2411-0.77189 2.8351-0.70375 3.9857-0.95155 0.57528-0.1239 1.0791-0.35278 1.2864-0.86483 0.20716-0.5118 0.10837-1.2135-0.3228-2.2651-0.14631-0.36336-0.08489-0.90654-0.02348-1.4791 0.06135-0.57214 0.12098-1.1834-0.17223-1.6947-0.32521-0.58416-0.82883-0.81216-1.2906-0.9642-0.46205-0.15212-0.88397-0.25057-1.1949-0.55226l-6.18e-4 -6.17e-4c-0.33833-0.3471-0.67207-0.81839-1.0955-1.1906-0.0039-0.0035-0.0087-0.0068-0.01266-0.01025-0.01593-0.65638-0.12393-1.329-0.29872-2.0019 0.92971-1.2338 1.8719-2.6172 2.5728-3.9664 0.0022-3.08e-4 0.0044-2.82e-4 0.0068-6.13e-4l0.52456-0.07407-0.13791-0.65224 0.08313-0.06504 1.7152-3.2268c0.9391 0.04929 1.9645-0.40786 2.565-1.4972 1.2955-2.3503 2.7999-4.4892 2.7999-4.4892-4.1157 0.58565-7.3071 0.5283-7.4823 3.6785-0.02007 0.3579 0.03426 0.67781 0.14212 0.95938l-2.3723 2.7794-0.02182 0.09336-0.72752 0.11562 0.21801 0.51372c-0.52339 0.6152-1.0295 1.2987-1.5068 2.0031-0.13924 0.20548-0.27552 0.41304-0.40953 0.62092 0.1334-0.20751 0.26994-0.41493 0.40953-0.62092-0.11939-0.21088-0.23978-0.4207-0.36318-0.62393-0.69404-1.4147-1.5959-2.7224-2.4801-4.0194-1.0641-1.5611-1.2548-3.469-1.2719-5.3708-0.03576-3.9559-0.45716-8.0584-5.0149-8.1442zm1.9525 4.9451c0.35934-0.02138 0.72979 0.16193 1.0064 0.54865 0.27656 0.38672 0.45631 1.1214 0.45891 1.5405 0.0035 0.56859-0.20094 1.1405-0.43241 1.5568-0.06096 0.10968-0.13322 0.20022-0.20898 0.28366-0.24508-0.14324-0.44985-0.26146-0.57214-0.33124-0.08461-0.04828-0.0958-0.05579-0.13189-0.07708a0.71236 1.2952 8.727 0 0 0.49505-1.0359 0.71236 1.2952 8.727 0 0-0.57033-1.3749 0.71236 1.2952 8.727 0 0-0.84315 1.1943 0.71236 1.2952 8.727 0 0 0.0041 0.63838c-0.12002-0.05142-0.2497-0.09613-0.38966-0.12648-0.04032-0.0087-0.08337-0.01353-0.12526-0.02007-0.04187-0.17736-0.07562-0.3587-0.08612-0.54503-0.03205-0.56804 0.08409-0.9334 0.31558-1.3502 0.23149-0.41684 0.72049-0.88026 1.0798-0.90157zm-4.6668 0.35232a2.03 1.5423 82.237 0 1 0.06384 0.0018 2.03 1.5423 82.237 0 1 1.5719 1.7592 2.0302 1.5425 82.237 0 1-0.11625 1.2442c-0.08433 0.06205-0.16861 0.12537-0.25535 0.19933v6.18e-4h-6.16e-4c-0.17077 0.14729-0.34038 0.23374-0.56551 0.34689a1.2066 0.75902 80.266 0 0 0.3493-1.2924 1.2066 0.75902 80.266 0 0-0.83893-1.031 1.2066 0.75902 80.266 0 0-0.6444 1.3581 1.2066 0.75902 80.266 0 0 1.0407 1.0124c-0.15345 0.07767-0.32565 0.16708-0.55527 0.30414-0.05217 0.03015-0.09604 0.06297-0.14212 0.09515a2.0302 1.5425 82.237 0 1-1.3129-1.7158 2.03 1.5423 82.237 0 1 1.4056-2.2825zm3.0167 2.6342c0.14952-0.0037 0.28956 0.012 0.42037 0.04034 0.52323 0.11339 0.90121 0.44084 1.1334 0.6161 0.04364 0.03295 0.10161 0.06292 0.2415 0.14274 0.13988 0.07981 0.34997 0.19992 0.65284 0.37761 0.2709 0.15897 0.38341 0.39941 0.33244 0.70222-0.05097 0.30281-0.28355 0.67107-0.74679 1.022l-6.18e-4 6.17e-4 -0.0012 6.13e-4c-0.28528 0.22384-0.46491 0.50024-0.68295 0.73053-0.21803 0.23029-0.46785 0.42056-0.91241 0.50408-0.52236 0.09737-0.92877-0.01549-1.2948-0.17226-0.36606-0.15663-0.6851-0.36315-1.0298-0.43121h-0.00123c-0.7081-0.1317-1.2473-0.50855-1.4514-0.91-0.079-0.15543-0.10854-0.31189-0.08612-0.46614 0.12731 0.02182 0.29863 0.08987 0.49926 0.1915 0.24193 0.12258 0.52518 0.28704 0.83532 0.44988 0.62029 0.32567 1.3494 0.64787 2.0946 0.61008 0.74452-0.03777 1.3171-0.41963 1.7272-0.78714 0.20509-0.18375 0.37069-0.36468 0.49686-0.49806 0.0631-0.0667 0.11675-0.12142 0.15779-0.15718 0.04102-0.03576 0.07425-0.04525 0.06083-0.04458l-0.0085-0.1608c-0.06873 0.0035-0.10866 0.04034-0.1584 0.08372-0.04975 0.04337-0.10475 0.10049-0.16863 0.16804-0.12774 0.13506-0.28919 0.3116-0.48722 0.48903-0.39605 0.35486-0.93391 0.71099-1.6279 0.74618-0.69326 0.03515-1.3994-0.27033-2.0121-0.59201-0.30634-0.16084-0.58929-0.32462-0.83773-0.45048-0.19831-0.10045-0.37217-0.17638-0.52878-0.20476 0.07409-0.18962 0.23633-0.37929 0.52576-0.54624h6.18e-4l6.17e-4 -6.18e-4c0.62382-0.37231 0.90767-0.4295 1.2442-0.71969 0.62995-0.53726 1.1643-0.72285 1.6128-0.73414zm2.7541 2.4728c0.07935 0.18942 0.14732 0.39247 0.19152 0.62212 0.4111 2.1361 0.86528 3.4579 2.9336 6.9825 0.21364 0.53819 0.37539 0.92275 0.55828 1.3683-0.14238-1.0612-0.56232-2.0155-0.85579-2.5842-1.2651-2.6735-0.0041-1.0246 0.5643 0.16682 0.41523 0.77559 0.90146 2.1086 1.1949 3.6014-1.2548 2.1909-2.09 4.0622-2.103 4.0917-0.18253 0.29642-0.2847 0.59063-0.27764 0.88531 0.0044 0.18777 0.06799 0.37008 0.16741 0.52636-1.1243 0.82888-1.1774 2.4565 0.0048 3.0462-0.11897 0.17149-0.23356 0.33395-0.3493 0.5089-0.1685 0.25468-0.32845 0.51322-0.47096 0.77329-2.4844 1.7661-6.4539 1.9905-9.4011-1.2135-0.27786-0.60374-0.52976-1.1762-0.62453-1.6182l-6.17e-4 -0.0018v-6.35e-4c-0.21279-1.05-0.4351-2.0185-0.76245-2.8023-0.05402-0.12929-0.11212-0.25227-0.17286-0.37159 0.22952-0.54342 0.34367-1.1146 0.30113-1.4611-0.15775-0.92319-0.83714-1.1109-2.3686-0.75943-1.301 0.31382-2.0892 0.9339-1.7634 1.8724-0.0586 0.04972-0.11684 0.09353-0.17465 0.1385-0.43085-1.1003 0.45932-1.8259 1.9543-2.194-0.21917-2.032 0.96989-4.0946 2.1-5.4353 0.03288 0.04265-0.04898 0.28494-0.33907 0.87747-0.64003 1.0986-1.2692 2.8894-0.98287 4.4121 0.2158-0.03004 0.41839-0.05125 0.59502-0.0518 0.10307-1.1032 0.37511-2.1435 0.84134-2.9817 0.89238-1.8966 3.1904-5.0992 3.2564-7.7552 0.30798 0.29807 0.7612 0.52891 1.3003 0.62935 0.28489 0.05622 0.60087 0.25297 0.98648 0.41796 0.38562 0.16499 0.84718 0.29219 1.4195 0.18548 0.49022-0.09212 0.79347-0.31954 1.0286-0.56792 0.23476-0.24795 0.40848-0.51074 0.65886-0.70764l0.0012-0.0012c0.2554-0.1937 0.45057-0.39594 0.589-0.59863zm11.077 3.0787c0.12181 0.10124 0.25558 0.18738 0.39748 0.26017l-1.5068 2.8354-0.35412 0.27824c-0.11893-0.05956-0.23794-0.11252-0.35834-0.20415-0.15822-0.12046-0.20308-0.22597-0.32642-0.36316l0.09275-0.39748 2.0555-2.409zm-2.9016 3.5334c0.14677 0.14817 0.30495 0.29132 0.47999 0.42458 0.18214 0.13868 0.37556 0.27009 0.57997 0.3746-1.9233 3.5394-5.6317 7.5063-5.6635 7.5402-0.22576 0.19787-0.37127 0.15912-0.3758 0.16322 4e-6 -0.0031 7.11e-4 1.79e-4 6.18e-4 -0.0041-0.0011-0.0463 0.02116-0.17847 0.14694-0.37339l0.02051-0.03192 0.01571-0.03432s2.262-4.9683 4.7957-8.0587zm-0.92144 5.5419c-0.17258 0.22165-0.34112 0.4339-0.5083 0.6414 0.16673-0.20681 0.33616-0.42044 0.5083-0.6414zm-20.305 1.87c0.51944 0.91988 1.6418 1.6841 2.5361 1.2984 0.34644-0.14544 0.64343-0.47318 0.87507-0.86423 0.0081 0.01854 0.0168 0.03534 0.0247 0.0542 0.3061 0.73286 0.5274 1.6828 0.73896 2.727l6.17e-4 0.0012v6.18e-4c0.17276 0.80904 0.71131 1.7931 1.137 2.7673 0.42574 0.97427 0.71666 1.9227 0.50408 2.5578l-6.18e-4 0.0024-6.15e-4 0.0024c-0.33191 1.0716-1.074 1.5226-2.0422 1.5159-0.9679-0.0068-2.1602-0.52062-3.2479-1.4833-1.1912-1.0662-2.8337-1.3851-3.8309-1.8621-0.49862-0.23852-0.80885-0.49197-0.89675-0.8552-0.08788-0.36322 0.03879-0.91638 0.58659-1.767l0.0024-0.0035 0.0018-0.0035c0.27763-0.47025 0.28835-1.0627 0.33123-1.6158 0.04289-0.55313 0.11505-1.0554 0.37761-1.3587l0.0024-0.0024c0.33639-0.40103 0.7136-0.48241 1.1641-0.5348 0.45055-0.05239 0.96636-0.05407 1.44-0.35412l0.0024-0.0018 0.0024-0.0012c0.10034-0.06746 0.19667-0.14241 0.29149-0.21921zm21.036 0.13189c0.27434 0.29096 0.53524 0.63089 0.82207 0.92445l0.0018 0.0018 0.0024 0.0018c0.41019 0.39859 0.91924 0.50634 1.3551 0.64983 0.43582 0.14348 0.79641 0.30058 1.0582 0.77208l6.17e-4 0.0018 0.0012 0.0012c0.20588 0.35823 0.17972 0.87962 0.11924 1.4436-0.06048 0.56396-0.15696 1.1607 0.0518 1.6791v6.17e-4l6.18e-4 6.17e-4c0.41451 1.0105 0.4587 1.6146 0.3222 1.9519-0.13652 0.33725-0.46346 0.50126-0.98829 0.61429-1.0497 0.22607-2.7346 0.14446-4.1176 1.0046-1.2042 0.73254-2.4353 0.93198-3.3774 0.67874-0.94241-0.25333-1.6073-0.93116-1.7477-2.0603v-0.0024l-6.16e-4 -0.0024c-0.09973-0.67909 0.32712-1.5243 0.88772-2.3717 0.13213-0.19972 0.26988-0.39337 0.40832-0.5908 0.57634 0.14162 1.3505 0.08738 2.3367-0.28607 1.9543-1.1194 2.7583-2.6908 2.8637-4.4127zm-2.5897 0.25174c-0.06698 0.0768-0.11478 0.13113-0.17705 0.20175 0.0578-0.06545 0.11522-0.13097 0.17705-0.20175zm-0.69439 0.77991c-0.25207 0.27672-0.43001 0.46795-0.43001 0.46795s0.24134-0.26269 0.43001-0.46795zm-2.2259 0.60948c0.04268 0.04652 0.08697 0.09164 0.13791 0.12768-0.05116-0.03618-0.09644-0.07986-0.13791-0.12768z" color="#fcfcfc" fill="#000000" filter="url(#filter5)" opacity=".15"/>
 <path class="ColorScheme-Text" d="m31.153 14.546c-2.0437-0.03846-4.0072 1.1689-4.7644 3.1371-0.9038 2.3492-0.64661 4.8952-0.60887 7.3474 0.01222 0.79394-0.20034 1.5186-0.52516 2.2018-0.15541 0.17764-0.30969 0.34582-0.45771 0.48662-1.6055 1.774-5.5963 6.4363-4.3253 11.213-0.32017 0.14084-0.69122 0.15755-1.0973 0.20476-0.47854 0.05564-1.0118 0.17749-1.434 0.67994-0.37716 0.43688-0.43392 1.0347-0.47758 1.5978-0.04372 0.56371-0.07772 1.1039-0.27402 1.4364-0.57201 0.89015-0.76754 1.5476-0.63778 2.0838 0.13012 0.5377 0.57911 0.87314 1.122 1.1328 1.0858 0.51937 2.6557 0.83255 3.7333 1.7971l6.18e-4 6.18e-4c1.1453 1.014 2.4122 1.581 3.5226 1.5887 0.92234 0.0065 1.7363-0.40887 2.2018-1.2467 0.41345 0.07416 0.84472 0.06617 1.2822-0.05841 1.4746-0.41999 3.0278-0.44161 4.5355-0.12947 0.90354 0.18705 1.8052 0.11651 2.6595-0.14273 0.36321 0.69006 0.98187 1.1571 1.7297 1.3581 1.0816 0.29074 2.4207 0.05463 3.7038-0.72631l6.15e-4 -6.18e-4h0.0012c1.2411-0.77189 2.8351-0.70375 3.9857-0.95155 0.57528-0.1239 1.0791-0.35278 1.2864-0.86483 0.20716-0.5118 0.10837-1.2135-0.3228-2.2651-0.14631-0.36336-0.08489-0.90654-0.02348-1.4791 0.06135-0.57214 0.12098-1.1834-0.17223-1.6947-0.32521-0.58416-0.82883-0.81216-1.2906-0.9642-0.46205-0.15212-0.88397-0.25057-1.1949-0.55226l-6.18e-4 -6.17e-4c-0.33833-0.3471-0.67207-0.81839-1.0955-1.1906-0.0039-0.0035-0.0087-0.0068-0.01266-0.01025-0.01593-0.65638-0.12393-1.329-0.29872-2.0019 0.92971-1.2338 1.8719-2.6172 2.5728-3.9664 0.0022-3.08e-4 0.0044-2.82e-4 0.0068-6.13e-4l0.52456-0.07407-0.13791-0.65224 0.08313-0.06504 1.7152-3.2268c0.9391 0.04929 1.9645-0.40786 2.565-1.4972 1.2955-2.3503 2.7999-4.4892 2.7999-4.4892-4.1157 0.58565-7.3071 0.5283-7.4823 3.6785-0.02007 0.3579 0.03426 0.67781 0.14212 0.95938l-2.3723 2.7794-0.02182 0.09336-0.72752 0.11562 0.21801 0.51372c-0.52339 0.6152-1.0295 1.2987-1.5068 2.0031-0.13924 0.20548-0.27552 0.41304-0.40953 0.62092 0.1334-0.20751 0.26994-0.41493 0.40953-0.62092-0.11939-0.21088-0.23978-0.4207-0.36318-0.62393-0.69404-1.4147-1.5959-2.7224-2.4801-4.0194-1.0641-1.5611-1.2548-3.469-1.2719-5.3708-0.03576-3.9559-0.45716-8.0584-5.0149-8.1442zm1.9525 4.9451c0.35934-0.02138 0.72979 0.16193 1.0064 0.54865 0.27656 0.38672 0.45631 1.1214 0.45891 1.5405 0.0035 0.56859-0.20094 1.1405-0.43241 1.5568-0.06096 0.10968-0.13322 0.20022-0.20898 0.28366-0.24508-0.14324-0.44985-0.26146-0.57214-0.33124-0.08461-0.04828-0.0958-0.05579-0.13189-0.07708a0.71236 1.2952 8.727 0 0 0.49505-1.0359 0.71236 1.2952 8.727 0 0-0.57033-1.3749 0.71236 1.2952 8.727 0 0-0.84315 1.1943 0.71236 1.2952 8.727 0 0 0.0041 0.63838c-0.12002-0.05142-0.2497-0.09613-0.38966-0.12648-0.04032-0.0087-0.08337-0.01353-0.12526-0.02007-0.04187-0.17736-0.07562-0.3587-0.08612-0.54503-0.03205-0.56804 0.08409-0.9334 0.31558-1.3502 0.23149-0.41684 0.72049-0.88026 1.0798-0.90157zm-4.6668 0.35232a2.03 1.5423 82.237 0 1 0.06384 0.0018 2.03 1.5423 82.237 0 1 1.5719 1.7592 2.0302 1.5425 82.237 0 1-0.11625 1.2442c-0.08433 0.06205-0.16861 0.12537-0.25535 0.19933v6.18e-4h-6.16e-4c-0.17077 0.14729-0.34038 0.23374-0.56551 0.34689a1.2066 0.75902 80.266 0 0 0.3493-1.2924 1.2066 0.75902 80.266 0 0-0.83893-1.031 1.2066 0.75902 80.266 0 0-0.6444 1.3581 1.2066 0.75902 80.266 0 0 1.0407 1.0124c-0.15345 0.07767-0.32565 0.16708-0.55527 0.30414-0.05217 0.03015-0.09604 0.06297-0.14212 0.09515a2.0302 1.5425 82.237 0 1-1.3129-1.7158 2.03 1.5423 82.237 0 1 1.4056-2.2825zm3.0167 2.6342c0.14952-0.0037 0.28956 0.012 0.42037 0.04034 0.52323 0.11339 0.90121 0.44084 1.1334 0.6161 0.04364 0.03295 0.10161 0.06292 0.2415 0.14274 0.13988 0.07981 0.34997 0.19992 0.65284 0.37761 0.2709 0.15897 0.38341 0.39941 0.33244 0.70222-0.05097 0.30281-0.28355 0.67107-0.74679 1.022l-6.18e-4 6.17e-4 -0.0012 6.13e-4c-0.28528 0.22384-0.46491 0.50024-0.68295 0.73053-0.21803 0.23029-0.46785 0.42056-0.91241 0.50408-0.52236 0.09737-0.92877-0.01549-1.2948-0.17226-0.36606-0.15663-0.6851-0.36315-1.0298-0.43121h-0.00123c-0.7081-0.1317-1.2473-0.50855-1.4514-0.91-0.079-0.15543-0.10854-0.31189-0.08612-0.46614 0.12731 0.02182 0.29863 0.08987 0.49926 0.1915 0.24193 0.12258 0.52518 0.28704 0.83532 0.44988 0.62029 0.32567 1.3494 0.64787 2.0946 0.61008 0.74452-0.03777 1.3171-0.41963 1.7272-0.78714 0.20509-0.18375 0.37069-0.36468 0.49686-0.49806 0.0631-0.0667 0.11675-0.12142 0.15779-0.15718 0.04102-0.03576 0.07425-0.04525 0.06083-0.04458l-0.0085-0.1608c-0.06873 0.0035-0.10866 0.04034-0.1584 0.08372-0.04975 0.04337-0.10475 0.10049-0.16863 0.16804-0.12774 0.13506-0.28919 0.3116-0.48722 0.48903-0.39605 0.35486-0.93391 0.71099-1.6279 0.74618-0.69326 0.03515-1.3994-0.27033-2.0121-0.59201-0.30634-0.16084-0.58929-0.32462-0.83773-0.45048-0.19831-0.10045-0.37217-0.17638-0.52878-0.20476 0.07409-0.18962 0.23633-0.37929 0.52576-0.54624h6.18e-4l6.17e-4 -6.18e-4c0.62382-0.37231 0.90767-0.4295 1.2442-0.71969 0.62995-0.53726 1.1643-0.72285 1.6128-0.73414zm2.7541 2.4728c0.07935 0.18942 0.14732 0.39247 0.19152 0.62212 0.4111 2.1361 0.86528 3.4579 2.9336 6.9825 0.21364 0.53819 0.37539 0.92275 0.55828 1.3683-0.14238-1.0612-0.56232-2.0155-0.85579-2.5842-1.2651-2.6735-0.0041-1.0246 0.5643 0.16682 0.41523 0.77559 0.90146 2.1086 1.1949 3.6014-1.2548 2.1909-2.09 4.0622-2.103 4.0917-0.18253 0.29642-0.2847 0.59063-0.27764 0.88531 0.0044 0.18777 0.06799 0.37008 0.16741 0.52636-1.1243 0.82888-1.1774 2.4565 0.0048 3.0462-0.11897 0.17149-0.23356 0.33395-0.3493 0.5089-0.1685 0.25468-0.32845 0.51322-0.47096 0.77329-2.4844 1.7661-6.4539 1.9905-9.4011-1.2135-0.27786-0.60374-0.52976-1.1762-0.62453-1.6182l-6.17e-4 -0.0018v-6.35e-4c-0.21279-1.05-0.4351-2.0185-0.76245-2.8023-0.05402-0.12929-0.11212-0.25227-0.17286-0.37159 0.22952-0.54342 0.34367-1.1146 0.30113-1.4611-0.15775-0.92319-0.83714-1.1109-2.3686-0.75943-1.301 0.31382-2.0892 0.9339-1.7634 1.8724-0.0586 0.04972-0.11684 0.09353-0.17465 0.1385-0.43085-1.1003 0.45932-1.8259 1.9543-2.194-0.21917-2.032 0.96989-4.0946 2.1-5.4353 0.03288 0.04265-0.04898 0.28494-0.33907 0.87747-0.64003 1.0986-1.2692 2.8894-0.98287 4.4121 0.2158-0.03004 0.41839-0.05125 0.59502-0.0518 0.10307-1.1032 0.37511-2.1435 0.84134-2.9817 0.89238-1.8966 3.1904-5.0992 3.2564-7.7552 0.30798 0.29807 0.7612 0.52891 1.3003 0.62935 0.28489 0.05622 0.60087 0.25297 0.98648 0.41796 0.38562 0.16499 0.84718 0.29219 1.4195 0.18548 0.49022-0.09212 0.79347-0.31954 1.0286-0.56792 0.23476-0.24795 0.40848-0.51074 0.65886-0.70764l0.0012-0.0012c0.2554-0.1937 0.45057-0.39594 0.589-0.59863zm11.077 3.0787c0.12181 0.10124 0.25558 0.18738 0.39748 0.26017l-1.5068 2.8354-0.35412 0.27824c-0.11893-0.05956-0.23794-0.11252-0.35834-0.20415-0.15822-0.12046-0.20308-0.22597-0.32642-0.36316l0.09275-0.39748 2.0555-2.409zm-2.9016 3.5334c0.14677 0.14817 0.30495 0.29132 0.47999 0.42458 0.18214 0.13868 0.37556 0.27009 0.57997 0.3746-1.9233 3.5394-5.6317 7.5063-5.6635 7.5402-0.22576 0.19787-0.37127 0.15912-0.3758 0.16322 4e-6 -0.0031 7.11e-4 1.79e-4 6.18e-4 -0.0041-0.0011-0.0463 0.02116-0.17847 0.14694-0.37339l0.02051-0.03192 0.01571-0.03432s2.262-4.9683 4.7957-8.0587zm-0.92144 5.5419c-0.17258 0.22165-0.34112 0.4339-0.5083 0.6414 0.16673-0.20681 0.33616-0.42044 0.5083-0.6414zm-20.305 1.87c0.51944 0.91988 1.6418 1.6841 2.5361 1.2984 0.34644-0.14544 0.64343-0.47318 0.87507-0.86423 0.0081 0.01854 0.0168 0.03534 0.0247 0.0542 0.3061 0.73286 0.5274 1.6828 0.73896 2.727l6.17e-4 0.0012v6.18e-4c0.17276 0.80904 0.71131 1.7931 1.137 2.7673 0.42574 0.97427 0.71666 1.9227 0.50408 2.5578l-6.18e-4 0.0024-6.15e-4 0.0024c-0.33191 1.0716-1.074 1.5226-2.0422 1.5159-0.9679-0.0068-2.1602-0.52062-3.2479-1.4833-1.1912-1.0662-2.8337-1.3851-3.8309-1.8621-0.49862-0.23852-0.80885-0.49197-0.89675-0.8552-0.08788-0.36322 0.03879-0.91638 0.58659-1.767l0.0024-0.0035 0.0018-0.0035c0.27763-0.47025 0.28835-1.0627 0.33123-1.6158 0.04289-0.55313 0.11505-1.0554 0.37761-1.3587l0.0024-0.0024c0.33639-0.40103 0.7136-0.48241 1.1641-0.5348 0.45055-0.05239 0.96636-0.05407 1.44-0.35412l0.0024-0.0018 0.0024-0.0012c0.10034-0.06746 0.19667-0.14241 0.29149-0.21921zm21.036 0.13189c0.27434 0.29096 0.53524 0.63089 0.82207 0.92445l0.0018 0.0018 0.0024 0.0018c0.41019 0.39859 0.91924 0.50634 1.3551 0.64983 0.43582 0.14348 0.79641 0.30058 1.0582 0.77208l6.17e-4 0.0018 0.0012 0.0012c0.20588 0.35823 0.17972 0.87962 0.11924 1.4436-0.06048 0.56396-0.15696 1.1607 0.0518 1.6791v6.17e-4l6.18e-4 6.17e-4c0.41451 1.0105 0.4587 1.6146 0.3222 1.9519-0.13652 0.33725-0.46346 0.50126-0.98829 0.61429-1.0497 0.22607-2.7346 0.14446-4.1176 1.0046-1.2042 0.73254-2.4353 0.93198-3.3774 0.67874-0.94241-0.25333-1.6073-0.93116-1.7477-2.0603v-0.0024l-6.16e-4 -0.0024c-0.09973-0.67909 0.32712-1.5243 0.88772-2.3717 0.13213-0.19972 0.26988-0.39337 0.40832-0.5908 0.57634 0.14162 1.3505 0.08738 2.3367-0.28607 1.9543-1.1194 2.7583-2.6908 2.8637-4.4127zm-2.5897 0.25174c-0.06698 0.0768-0.11478 0.13113-0.17705 0.20175 0.0578-0.06545 0.11522-0.13097 0.17705-0.20175zm-0.69439 0.77991c-0.25207 0.27672-0.43001 0.46795-0.43001 0.46795s0.24134-0.26269 0.43001-0.46795zm-2.2259 0.60948c0.04268 0.04652 0.08697 0.09164 0.13791 0.12768-0.05116-0.03618-0.09644-0.07986-0.13791-0.12768z" color="#fcfcfc" fill="currentColor"/>
</svg>
