<?xml version="1.0" encoding="UTF-8" standalone="no"?>
<svg
   width="64"
   height="64"
   viewBox="0 0 16.933 16.933"
   version="1.1"
   id="svg21"
   sodipodi:docname="figma.svg"
   inkscape:version="1.4.2 (ebf0e940d0, 2025-05-08)"
   xmlns:inkscape="http://www.inkscape.org/namespaces/inkscape"
   xmlns:sodipodi="http://sodipodi.sourceforge.net/DTD/sodipodi-0.dtd"
   xmlns:xlink="http://www.w3.org/1999/xlink"
   xmlns="http://www.w3.org/2000/svg"
   xmlns:svg="http://www.w3.org/2000/svg">
  <sodipodi:namedview
     id="namedview21"
     pagecolor="#ffffff"
     bordercolor="#000000"
     borderopacity="0.25"
     inkscape:showpageshadow="2"
     inkscape:pageopacity="0.0"
     inkscape:pagecheckerboard="0"
     inkscape:deskcolor="#d1d1d1"
     inkscape:zoom="19"
     inkscape:cx="22.157895"
     inkscape:cy="22.263158"
     inkscape:window-width="1920"
     inkscape:window-height="1007"
     inkscape:window-x="0"
     inkscape:window-y="0"
     inkscape:window-maximized="1"
     inkscape:current-layer="highlight" />
  <defs
     id="defs12">
    <linearGradient
       id="a"
       x1="7.937"
       x2="7.937"
       y1="15.081"
       y2="1.852"
       gradientTransform="translate(0 .008)scale(.99997)"
       gradientUnits="userSpaceOnUse">
      <stop
         offset="0"
         stop-color="#263540"
         id="stop1" />
      <stop
         offset="1"
         stop-color="#435c70"
         id="stop2" />
    </linearGradient>
    <linearGradient
       id="f"
       x1="-8.376"
       x2="-8.376"
       y1="10.099"
       y2="2.876"
       gradientUnits="userSpaceOnUse">
      <stop
         offset="0"
         stop-color="#f5400a"
         id="stop3" />
      <stop
         offset="1"
         stop-color="#f68565"
         id="stop4" />
    </linearGradient>
    <linearGradient
       id="g"
       x1="-6.253"
       x2="-6.253"
       y1="8.988"
       y2="3.601"
       gradientUnits="userSpaceOnUse">
      <stop
         offset="0"
         stop-color="#ff4833"
         id="stop5" />
      <stop
         offset="1"
         stop-color="#ff998d"
         id="stop6" />
    </linearGradient>
    <linearGradient
       id="d"
       x1="-9.265"
       x2="-9.265"
       y1="13.114"
       y2="7.115"
       gradientUnits="userSpaceOnUse">
      <stop
         offset="0"
         stop-color="#751fe0"
         id="stop7" />
      <stop
         offset="1"
         stop-color="#a776e5"
         id="stop8" />
    </linearGradient>
    <linearGradient
       id="e"
       x1="-5.676"
       x2="-5.676"
       y1="12.688"
       y2="7.528"
       gradientUnits="userSpaceOnUse">
      <stop
         offset="0"
         stop-color="#0183b7"
         id="stop9" />
      <stop
         offset="1"
         stop-color="#53cdfe"
         id="stop10" />
    </linearGradient>
    <linearGradient
       id="c"
       x1="-9.692"
       x2="-9.692"
       y1="16.337"
       y2="11.521"
       gradientUnits="userSpaceOnUse">
      <stop
         offset="0"
         stop-color="#06935c"
         id="stop11" />
      <stop
         offset="1"
         stop-color="#13f59d"
         id="stop12" />
    </linearGradient>
    <filter
       id="b"
       width="1.15008"
       height="1.1000533"
       x="-0.075040002"
       y="-0.050026668"
       color-interpolation-filters="sRGB">
      <feGaussianBlur
         stdDeviation=".938"
         id="feGaussianBlur12" />
    </filter>
    <linearGradient
       inkscape:collect="always"
       xlink:href="#linearGradient5"
       id="linearGradient8"
       x1="8"
       y1="7"
       x2="56"
       y2="57"
       gradientUnits="userSpaceOnUse"
       gradientTransform="translate(-1.3560057e-6)" />
    <linearGradient
       id="linearGradient5"
       inkscape:collect="always">
      <stop
         style="stop-color:#ffffff;stop-opacity:1;"
         offset="0"
         id="stop5-7" />
      <stop
         style="stop-color:#ffffff;stop-opacity:0.75294118;"
         offset="0.55856526"
         id="stop1-2" />
      <stop
         style="stop-color:#ffffff;stop-opacity:0.25;"
         offset="0.82169133"
         id="stop7-2" />
      <stop
         style="stop-color:#ffffff;stop-opacity:1;"
         offset="1"
         id="stop6-5" />
    </linearGradient>
    <filter
       inkscape:collect="always"
       style="color-interpolation-filters:sRGB"
       id="filter8"
       x="-0.0076799997"
       y="-0.0076799997"
       width="1.01536"
       height="1.01536">
      <feGaussianBlur
         inkscape:collect="always"
         stdDeviation="0.1792"
         id="feGaussianBlur8" />
    </filter>
    <linearGradient
       inkscape:collect="always"
       xlink:href="#linearGradient16"
       id="linearGradient6"
       x1="8.2552414"
       y1="7.9304214"
       x2="52.282932"
       y2="58.42226"
       gradientUnits="userSpaceOnUse" />
    <linearGradient
       id="linearGradient16"
       inkscape:collect="always">
      <stop
         style="stop-color:#ffffff;stop-opacity:1;"
         offset="0"
         id="stop13" />
      <stop
         style="stop-color:#ffffff;stop-opacity:0.48018399;"
         offset="0.40355241"
         id="stop14" />
      <stop
         style="stop-color:#ffffff;stop-opacity:0;"
         offset="0.80266261"
         id="stop15" />
      <stop
         style="stop-color:#ffffff;stop-opacity:1;"
         offset="1"
         id="stop16" />
    </linearGradient>
    <filter
       inkscape:collect="always"
       style="color-interpolation-filters:sRGB"
       id="filter9"
       x="-0.0076799997"
       y="-0.0076799997"
       width="1.01536"
       height="1.01536">
      <feGaussianBlur
         inkscape:collect="always"
         stdDeviation="0.1792"
         id="feGaussianBlur9" />
    </filter>
    <linearGradient
       id="b-6"
       x1="7.9369998"
       x2="7.9369998"
       y1="15.081"
       y2="1.852"
       gradientTransform="matrix(0.999973,0,0,0.999973,-5.2243844e-7,0.0084665)"
       gradientUnits="userSpaceOnUse">
      <stop
         offset="0"
         stop-color="#292929"
         id="stop7-1"
         style="stop-color:#151414;stop-opacity:1;" />
      <stop
         offset="1"
         stop-color="#4d4d4d"
         id="stop8-2"
         style="stop-color:#313131;stop-opacity:1;" />
    </linearGradient>
    <filter
       inkscape:collect="always"
       style="color-interpolation-filters:sRGB"
       id="filter12"
       x="-0.075"
       y="-0.075"
       width="1.15"
       height="1.15">
      <feGaussianBlur
         inkscape:collect="always"
         stdDeviation="1.75"
         id="feGaussianBlur12-9" />
    </filter>
  </defs>
  <rect
     id="rect12-3"
     width="56"
     height="56"
     x="4"
     y="5"
     rx="14"
     ry="14"
     style="opacity:0.15;filter:url(#filter12)"
     transform="scale(0.26457812)" />
  <rect
     width="14.816375"
     height="14.816375"
     x="1.0583125"
     y="1.0583125"
     fill="url(#b)"
     rx="3.7040937"
     ry="3.7040937"
     id="rect8"
     style="fill:url(#b-6);stroke-width:0.264578" />
  <g
     id="highlight"
     transform="scale(0.26457812)">
    <path
       id="rect1"
       d="m 17.999999,3.9999986 c -7.756,0 -14.0000004,6.2440004 -14.0000004,14.0000004 v 28 c 0,7.756 6.2440004,14 14.0000004,14 h 28 c 7.756,0 14,-6.244 14,-14 v -28 c 0,-7.756 -6.244,-14.0000004 -14,-14.0000004 z m 0,1 h 28 c 7.202,0 13,5.7980004 13,13.0000004 v 28 c 0,7.202 -5.798,13 -13,13 h -28 c -7.202,0 -13.0000004,-5.798 -13.0000004,-13 v -28 c 0,-7.202 5.7980004,-13.0000004 13.0000004,-13.0000004 z"
       style="opacity:0.1;mix-blend-mode:normal;fill:url(#linearGradient8);filter:url(#filter8)" />
    <path
       id="rect4"
       style="opacity:0.25;fill:url(#linearGradient6);stroke-width:0.557214;stroke-linecap:square;filter:url(#filter9)"
       d="M 18,4 C 10.244,4 4,10.244 4,18 v 28 c 0,7.756 6.244,14 14,14 h 28 c 7.756,0 14,-6.244 14,-14 V 18 C 60,10.244 53.756,4 46,4 Z m 0,0.5 h 28 c 7.479,0 13.5,6.021 13.5,13.5 v 28 c 0,7.479 -6.021,13.5 -13.5,13.5 H 18 C 10.521,59.5 4.5,53.479 4.5,46 V 18 C 4.5,10.521 10.521,4.5 18,4.5 Z" />
  </g>
  <path
     d="M24.5 9.5c-4.155 0-7.5 3.345-7.5 7.5s3.345 7.5 7.5 7.5c-4.155 0-7.5 3.345-7.5 7.5s3.345 7.5 7.5 7.5A7.5 7.5 0 0 0 17 47a7.5 7.5 0 0 0 7.5 7.5A7.5 7.5 0 0 0 32 47V24.5h7.5c4.155 0 7.5-3.345 7.5-7.5s-3.345-7.5-7.5-7.5zm15 15A7.5 7.5 0 0 0 32 32a7.5 7.5 0 0 0 7.5 7.5A7.5 7.5 0 0 0 47 32a7.5 7.5 0 0 0-7.5-7.5"
     filter="url(#b)"
     opacity=".15"
     transform="scale(.26458)"
     id="path17" />
  <g
     stroke-width=".265"
     transform="translate(16.159 -1.574)"
     id="g21">
    <path
       fill="url(#c)"
       d="M-9.677 12.025a1.984 1.984 0 0 0-1.984 1.984 1.984 1.984 0 0 0 1.984 1.985 1.984 1.984 0 0 0 1.985-1.985v-1.984z"
       id="path18" />
    <path
       fill="url(#d)"
       d="M-9.677 8.056h1.985v3.969h-1.985a1.98 1.98 0 0 1-1.984-1.984c0-1.1.885-1.985 1.984-1.985"
       id="path19" />
    <circle
       cx="-5.708"
       cy="10.04"
       r="1.984"
       fill="url(#e)"
       id="circle19" />
    <path
       fill="url(#f)"
       d="M-9.677 4.087a1.98 1.98 0 0 0-1.984 1.985 1.98 1.98 0 0 0 1.984 1.984h1.985V4.087z"
       id="path20" />
    <path
       fill="url(#g)"
       d="M-7.692 4.087h1.984c1.1 0 1.984.885 1.984 1.985a1.98 1.98 0 0 1-1.984 1.984h-1.984z"
       id="path21" />
  </g>
</svg>
