<svg width="64" height="64" version="1.1" viewBox="0 0 16.933 16.933" xmlns="http://www.w3.org/2000/svg" xmlns:xlink="http://www.w3.org/1999/xlink">
 <defs>
  <linearGradient id="f" x1="-8.376" x2="-8.376" y1="10.099" y2="2.876" gradientUnits="userSpaceOnUse">
   <stop stop-color="#f5400a" offset="0"/>
   <stop stop-color="#f68565" offset="1"/>
  </linearGradient>
  <linearGradient id="g" x1="-6.253" x2="-6.253" y1="8.988" y2="3.601" gradientUnits="userSpaceOnUse">
   <stop stop-color="#ff4833" offset="0"/>
   <stop stop-color="#ff998d" offset="1"/>
  </linearGradient>
  <linearGradient id="d" x1="-9.265" x2="-9.265" y1="13.114" y2="7.115" gradientUnits="userSpaceOnUse">
   <stop stop-color="#751fe0" offset="0"/>
   <stop stop-color="#a776e5" offset="1"/>
  </linearGradient>
  <linearGradient id="e" x1="-5.676" x2="-5.676" y1="12.688" y2="7.528" gradientUnits="userSpaceOnUse">
   <stop stop-color="#0183b7" offset="0"/>
   <stop stop-color="#53cdfe" offset="1"/>
  </linearGradient>
  <linearGradient id="c" x1="-9.692" x2="-9.692" y1="16.337" y2="11.521" gradientUnits="userSpaceOnUse">
   <stop stop-color="#06935c" offset="0"/>
   <stop stop-color="#13f59d" offset="1"/>
  </linearGradient>
  <filter id="b" x="-.07504" y="-.050027" width="1.1501" height="1.1001" color-interpolation-filters="sRGB">
   <feGaussianBlur stdDeviation=".938"/>
  </filter>
  <filter id="filter8" x="-.012" y="-.012" width="1.024" height="1.024" color-interpolation-filters="sRGB">
   <feGaussianBlur stdDeviation="0.074081873"/>
  </filter>
  <linearGradient id="linearGradient7" x1="2.5981" x2="10.583" y1="2.8356" y2="11.312" gradientUnits="userSpaceOnUse" xlink:href="#linearGradient6"/>
  <linearGradient id="linearGradient6">
   <stop stop-color="#ffffff" offset="0"/>
   <stop stop-color="#ffffff" stop-opacity="0" offset="1"/>
  </linearGradient>
  <linearGradient id="linearGradient8" x1="15.081" x2="12.7" y1="14.816" y2="12.171" gradientUnits="userSpaceOnUse" xlink:href="#linearGradient6"/>
  <linearGradient id="linearGradient3" x1="8.4665" x2="8.4665" y1="1.0583" y2="15.875" gradientUnits="userSpaceOnUse">
   <stop stop-color="#323131" offset="0"/>
   <stop stop-color="#141414" offset="1"/>
  </linearGradient>
 </defs>
 <path d="m5.3604 1.0584c-1.5298 0-2.5777 0.45621-3.2599 1.1998-0.67867 0.73981-1.0421 1.8001-1.0421 3.0006v6.4155c0 1.2006 0.36337 2.2609 1.0421 3.0006 0.68219 0.74354 1.7301 1.1998 3.2599 1.1998h6.2306c1.5298 0 2.5777-0.45621 3.2599-1.1998 0.67867-0.73981 1.024-1.7026 1.024-3.0006v-6.1745c0-1.5703-0.34528-2.5019-1.024-3.2416-0.68219-0.74354-1.7301-1.1998-3.2599-1.1998h-4.8457z" fill="url(#linearGradient3)"/>
 <g transform="translate(-4.1782e-5 9.2422e-5)" filter="url(#filter8)" opacity=".35">
  <path d="m5.3603 1.0583c-1.5298 0-2.5775 0.45637-3.2597 1.1999-0.67868 0.73981-1.0423 1.8002-1.0423 3.0008v6.415c0 1.2006 0.36361 2.2609 1.0423 3.0008 0.68219 0.74355 1.7299 1.1999 3.2597 1.1999h6.2305c1.5298 0 2.5775-0.45637 3.2597-1.1999 0.67868-0.73981 1.0242-1.7027 1.0242-3.0008v-6.1742c0-1.5703-0.34552-2.5018-1.0242-3.2416-0.68219-0.74355-1.7299-1.1999-3.2597-1.1999h-4.8456zm-0.00103 0.26406h6.2326c1.4772 0 2.437 0.43133 3.0644 1.1152 0.63411 0.69126 0.95341 1.5307 0.95341 3.0623v6.1742c0 1.2512-0.32181 2.1335-0.95341 2.822-0.6274 0.68381-1.5871 1.1136-3.0644 1.1136h-6.2326c-1.4772 0-2.437-0.42978-3.0644-1.1136-0.62537-0.68172-0.97253-1.6747-0.97253-2.822v-6.4145c0-1.1472 0.34717-2.1403 0.97253-2.822 0.6274-0.68381 1.5871-1.1152 3.0644-1.1152z" fill="url(#linearGradient7)"/>
  <path d="m5.3603 1.0583c-1.5298 0-2.5775 0.45637-3.2597 1.1999-0.67868 0.73981-1.0423 1.8002-1.0423 3.0008v6.415c0 1.2006 0.36361 2.2609 1.0423 3.0008 0.68219 0.74355 1.7299 1.1999 3.2597 1.1999h6.2305c1.5298 0 2.5775-0.45637 3.2597-1.1999 0.67868-0.73981 1.0242-1.7027 1.0242-3.0008v-6.1742c0-1.5703-0.34552-2.5018-1.0242-3.2416-0.68219-0.74355-1.7299-1.1999-3.2597-1.1999h-4.8456zm-0.00103 0.26406h6.2326c1.4772 0 2.437 0.43133 3.0644 1.1152 0.63411 0.69126 0.95341 1.5307 0.95341 3.0623v6.1742c0 1.2512-0.32181 2.1335-0.95341 2.822-0.6274 0.68381-1.5871 1.1136-3.0644 1.1136h-6.2326c-1.4772 0-2.437-0.42978-3.0644-1.1136-0.62537-0.68172-0.97253-1.6747-0.97253-2.822v-6.4145c0-1.1472 0.34717-2.1403 0.97253-2.822 0.6274-0.68381 1.5871-1.1152 3.0644-1.1152z" fill="url(#linearGradient8)" stroke-width="1.0001"/>
 </g>
 <path transform="scale(.26458)" d="M24.5 9.5c-4.155 0-7.5 3.345-7.5 7.5s3.345 7.5 7.5 7.5c-4.155 0-7.5 3.345-7.5 7.5s3.345 7.5 7.5 7.5A7.5 7.5 0 0 0 17 47a7.5 7.5 0 0 0 7.5 7.5A7.5 7.5 0 0 0 32 47V24.5h7.5c4.155 0 7.5-3.345 7.5-7.5s-3.345-7.5-7.5-7.5zm15 15A7.5 7.5 0 0 0 32 32a7.5 7.5 0 0 0 7.5 7.5A7.5 7.5 0 0 0 47 32a7.5 7.5 0 0 0-7.5-7.5" filter="url(#b)" opacity=".15"/>
 <g transform="translate(16.159 -1.574)" stroke-width=".265">
  <path d="m-9.677 12.025a1.984 1.984 0 0 0-1.984 1.984 1.984 1.984 0 0 0 1.984 1.985 1.984 1.984 0 0 0 1.985-1.985v-1.984z" fill="url(#c)"/>
  <path d="M-9.677 8.056h1.985v3.969h-1.985a1.98 1.98 0 0 1-1.984-1.984c0-1.1.885-1.985 1.984-1.985" fill="url(#d)"/>
  <circle cx="-5.708" cy="10.04" r="1.984" fill="url(#e)"/>
  <path d="M-9.677 4.087a1.98 1.98 0 0 0-1.984 1.985 1.98 1.98 0 0 0 1.984 1.984h1.985V4.087z" fill="url(#f)"/>
  <path d="M-7.692 4.087h1.984c1.1 0 1.984.885 1.984 1.985a1.98 1.98 0 0 1-1.984 1.984h-1.984z" fill="url(#g)"/>
 </g>
</svg>
