<svg width="64" height="64" version="1.1" xmlns="http://www.w3.org/2000/svg" xmlns:xlink="http://www.w3.org/1999/xlink">
 <defs>
  <filter id="c" x="-.029053" y="-.138" width="1.0581" height="1.276" color-interpolation-filters="sRGB">
   <feGaussianBlur stdDeviation=".46"/>
  </filter>
  <linearGradient id="a" x1="7.937" x2="7.937" y1="15.081" y2="1.852" gradientTransform="matrix(3.7795 0 0 3.7795 -2.7056e-6 .032)" gradientUnits="userSpaceOnUse">
   <stop stop-color="#c18434" offset="0"/>
   <stop stop-color="#e4b154" offset="1"/>
  </linearGradient>
  <linearGradient id="b" x1="30" x2="30" y1="6" y2="58" gradientUnits="userSpaceOnUse">
   <stop stop-color="#f8deac" offset="0"/>
   <stop stop-color="#edcaa2" offset="1"/>
  </linearGradient>
  <linearGradient id="linearGradient6" x1="8.2552" x2="52.283" y1="7.9304" y2="58.422" gradientUnits="userSpaceOnUse" xlink:href="#linearGradient5"/>
  <linearGradient id="linearGradient5">
   <stop stop-color="#ffffff" offset="0"/>
   <stop stop-color="#ffffff" stop-opacity=".75294" offset=".55857"/>
   <stop stop-color="#ffffff" stop-opacity=".25" offset=".82169"/>
   <stop stop-color="#ffffff" offset="1"/>
  </linearGradient>
  <linearGradient id="linearGradient8" x1="8" x2="56" y1="7" y2="57" gradientTransform="translate(-1.356e-6)" gradientUnits="userSpaceOnUse" xlink:href="#linearGradient5"/>
  <filter id="filter8" x="-.00768" y="-.00768" width="1.0154" height="1.0154" color-interpolation-filters="sRGB">
   <feGaussianBlur stdDeviation="0.1792"/>
  </filter>
  <filter id="filter9" x="-.00768" y="-.00768" width="1.0154" height="1.0154" color-interpolation-filters="sRGB">
   <feGaussianBlur stdDeviation="0.1792"/>
  </filter>
  <filter id="filter1" x="-.014259" y="-.014259" width="1.0285" height="1.0285" color-interpolation-filters="sRGB">
   <feGaussianBlur stdDeviation="0.1216"/>
  </filter>
 </defs>
 <rect x="4" y="4" width="56" height="56" rx="14" ry="14" fill="url(#a)"/>
 <path d="M25 4v56h14V4z" fill="url(#b)"/>
 <rect x="31.5" y="4" width="1" height="56" rx="0" ry="0" opacity=".2"/>
 <path d="M13 44v2c0 3.324 2.676 6 6 6h26c3.324 0 6-2.676 6-6v-2c0 3.324-2.676 6-6 6H19c-3.324 0-6-2.676-6-6" filter="url(#c)" opacity=".1"/>
 <rect x="13" y="13" width="38" height="38" rx="6" ry="6" fill="#fafafa" fill-opacity=".85" filter="url(#filter1)" stroke="#ffffff" stroke-width=".5"/>
 <rect x="18" y="20" width="12" height="1" rx="0" ry="0" fill="#cbc5b9" stroke-linecap="round" stroke-linejoin="round"/>
 <rect x="18" y="22" width="8" height="1" rx="0" ry="0" fill="#cbc5b9" stroke-linecap="round" stroke-linejoin="round"/>
 <rect x="18" y="24" width="10" height="1" rx="0" ry="0" fill="#cbc5b9" stroke-linecap="round" stroke-linejoin="round"/>
 <path d="M18 27.105h5.33v1.127h-1.917v4.656H19.92v-4.656H18zm8.742.976q-.682 0-1.058.504t-.375 1.417q0 .91.375 1.414.376.504 1.058.504.686 0 1.061-.504.376-.504.376-1.414 0-.914-.376-1.417-.375-.504-1.061-.504m0-1.08q1.394 0 2.185.797t.79 2.204q0 1.402-.79 2.2T26.742 33q-1.39 0-2.185-.798-.79-.798-.79-2.2 0-1.406.79-2.204.794-.798 2.185-.798zm4.261 1.548h1.398v1.499h-1.398zm0 2.84h1.398v1.498h-1.398z" aria-label="TO:"/>
 <rect x="18" y="35" width="23" height="1" rx="0" ry="0" fill="#cbc5b9"/>
 <rect x="18" y="37" width="17" height="1" rx="0" ry="0" fill="#cbc5b9"/>
 <path d="m18 40h1v5h-1zm2 0h1v5h-1zm2 0h3v5h-3zm4 0h1v5h-1zm4 0h1v5h-1zm2 0h4v5h-4zm5 0h2v5h-2zm3 0h1v5h-1zm3 0h1v5h-1zm2 0h1v5h-1z"/>
 <g id="highlight">
  <path d="m18 4c-7.756 0-14 6.244-14 14v28c0 7.756 6.244 14 14 14h28c7.756 0 14-6.244 14-14v-28c0-7.756-6.244-14-14-14zm0 1h28c7.202 0 13 5.798 13 13v28c0 7.202-5.798 13-13 13h-28c-7.202 0-13-5.798-13-13v-28c0-7.202 5.798-13 13-13z" fill="url(#linearGradient8)" filter="url(#filter8)" opacity=".15" style="mix-blend-mode:normal"/>
  <path d="m18 4c-7.756 0-14 6.244-14 14v28c0 7.756 6.244 14 14 14h28c7.756 0 14-6.244 14-14v-28c0-7.756-6.244-14-14-14zm0 0.5h28c7.479 0 13.5 6.021 13.5 13.5v28c0 7.479-6.021 13.5-13.5 13.5h-28c-7.479 0-13.5-6.021-13.5-13.5v-28c0-7.479 6.021-13.5 13.5-13.5z" fill="url(#linearGradient6)" filter="url(#filter9)" opacity=".5" stroke-linecap="square" stroke-width=".55721"/>
 </g>
</svg>
