<svg width="64" height="64" version="1.1" viewBox="0 0 16.933 16.933" xmlns="http://www.w3.org/2000/svg" xmlns:xlink="http://www.w3.org/1999/xlink">
 <defs>
  <linearGradient id="linearGradient6">
   <stop stop-color="#ffffff" offset="0"/>
   <stop stop-color="#ffffff" stop-opacity="0" offset="1"/>
  </linearGradient>
  <linearGradient id="linearGradient3" x1="8.4665" x2="8.4665" y1="1.0583" y2="15.875" gradientUnits="userSpaceOnUse">
   <stop stop-color="#02c5fd" offset="0"/>
   <stop stop-color="#2f71f9" offset="1"/>
  </linearGradient>
  <linearGradient id="linearGradient7" x1="6.7452" x2="10.583" y1="1.0583" y2="11.312" gradientUnits="userSpaceOnUse" xlink:href="#linearGradient6"/>
  <linearGradient id="linearGradient8" x1="15.081" x2="12.7" y1="14.816" y2="12.171" gradientUnits="userSpaceOnUse" xlink:href="#linearGradient6"/>
  <filter id="filter8" x="-.012" y="-.012" width="1.024" height="1.024" color-interpolation-filters="sRGB">
   <feGaussianBlur stdDeviation="0.074081873"/>
  </filter>
  <linearGradient id="linearGradient20" x1="3.9687" x2="12.964" y1="13.229" y2="13.229" gradientUnits="userSpaceOnUse">
   <stop stop-color="#000000" offset="0"/>
   <stop stop-color="#0b2242" offset="1"/>
  </linearGradient>
  <linearGradient id="linearGradient22" x1="12.964" x2="3.9687" y1="11.641" y2="11.641" gradientUnits="userSpaceOnUse">
   <stop stop-color="#ffffff" offset="0"/>
   <stop stop-color="#ffffff" stop-opacity=".64983" offset="1"/>
  </linearGradient>
  <filter id="filter22" x="-.034177" y="-.15764" width="1.0684" height="1.3153" color-interpolation-filters="sRGB">
   <feGaussianBlur stdDeviation="0.066521558"/>
  </filter>
  <filter id="filter23" x="-.02417" y="-.11148" width="1.0483" height="1.223" color-interpolation-filters="sRGB">
   <feGaussianBlur stdDeviation="0.058466213"/>
  </filter>
  <linearGradient id="linearGradient26" x1="10.789" x2="10.789" y1="2.1166" y2="14.816" gradientUnits="userSpaceOnUse">
   <stop stop-color="#ffffff" offset="0"/>
   <stop stop-color="#ffffff" stop-opacity=".79608" offset=".54934"/>
   <stop stop-color="#ffffff" stop-opacity=".5" offset="1"/>
  </linearGradient>
  <filter id="filter28" x="-.049253" y="-.012769" width="1.0985" height="1.0255" color-interpolation-filters="sRGB">
   <feGaussianBlur stdDeviation="0.067566961"/>
  </filter>
  <filter id="filter29" x="-.019973" y="-.041655" width="1.0399" height="1.0833" color-interpolation-filters="sRGB">
   <feGaussianBlur stdDeviation="0.052844569"/>
  </filter>
  <filter id="filter31" x="-.40425" y="-.089833" width="1.8085" height="1.1797" color-interpolation-filters="sRGB">
   <feGaussianBlur stdDeviation="0.044564879"/>
  </filter>
  <filter id="filter33" x="-.56976" y="-.084386" width="2.1395" height="1.1688" color-interpolation-filters="sRGB">
   <feGaussianBlur stdDeviation="0.044042796"/>
  </filter>
 </defs>
 <path d="m5.3603 1.0584c-1.5298 0-2.5777 0.45621-3.2599 1.1998-0.67868 0.73981-1.0421 1.8001-1.0421 3.0007v6.4154c0 1.2006 0.36337 2.2609 1.0421 3.0007 0.68219 0.74355 1.7301 1.1998 3.2599 1.1998h6.2306c1.5298 0 2.5777-0.45622 3.2599-1.1998 0.67868-0.73981 1.024-1.7026 1.024-3.0007v-6.1745c0-1.5703-0.34527-2.5019-1.024-3.2417-0.68219-0.74355-1.7301-1.1998-3.2599-1.1998h-4.8457z" fill="url(#linearGradient3)"/>
 <path d="m9.7894 2.1166c-0.097986 0-0.19344 0.010464-0.28525 0.030489-0.3972 0.068585-0.8955 0.27979-1.096 0.96426l-1.5291 5.2187c-0.18845 0.6432-0.25838 1.1947 0.64904 1.1947h0.93842v3.9687c0 0.73288 0.59001 1.3229 1.3229 1.3229h2.2468c1.5403 0 2.7801-1.2399 2.7801-2.7801v-7.1395c0-1.5403-1.2399-2.7801-2.7801-2.7801h-1.7342z" fill="url(#linearGradient26)"/>
 <g filter="url(#filter8)" opacity=".45" style="mix-blend-mode:overlay">
  <path d="m5.3603 1.0583c-1.5298 0-2.5775 0.45637-3.2597 1.1999-0.67868 0.73981-1.0423 1.8002-1.0423 3.0008v6.415c0 1.2006 0.36361 2.2609 1.0423 3.0008 0.68219 0.74355 1.7299 1.1999 3.2597 1.1999h6.2305c1.5298 0 2.5775-0.45637 3.2597-1.1999 0.67868-0.73981 1.0242-1.7027 1.0242-3.0008v-6.1742c0-1.5703-0.34552-2.5018-1.0242-3.2416-0.68219-0.74355-1.7299-1.1999-3.2597-1.1999zm-0.00103 0.26406h6.2326c1.4772 0 2.437 0.43133 3.0644 1.1152 0.63411 0.69126 0.95341 1.5307 0.95341 3.0623v6.1742c0 1.2512-0.32181 2.1335-0.95341 2.822-0.6274 0.68381-1.5871 1.1136-3.0644 1.1136h-6.2326c-1.4772 0-2.437-0.42978-3.0644-1.1136-0.62537-0.68172-0.97253-1.6747-0.97253-2.822v-6.4145c0-1.1472 0.34717-2.1403 0.97253-2.822 0.6274-0.68381 1.5871-1.1152 3.0644-1.1152z" fill="url(#linearGradient7)" opacity="1" style="mix-blend-mode:overlay"/>
  <path d="m5.3603 1.0583c-1.5298 0-2.5775 0.45637-3.2597 1.1999-0.67868 0.73981-1.0423 1.8002-1.0423 3.0008v6.415c0 1.2006 0.36361 2.2609 1.0423 3.0008 0.68219 0.74355 1.7299 1.1999 3.2597 1.1999h6.2305c1.5298 0 2.5775-0.45637 3.2597-1.1999 0.67868-0.73981 1.0242-1.7027 1.0242-3.0008v-6.1742c0-1.5703-0.34552-2.5018-1.0242-3.2416-0.68219-0.74355-1.7299-1.1999-3.2597-1.1999zm-0.00103 0.26406h6.2326c1.4772 0 2.437 0.43133 3.0644 1.1152 0.63411 0.69126 0.95341 1.5307 0.95341 3.0623v6.1742c0 1.2512-0.32181 2.1335-0.95341 2.822-0.6274 0.68381-1.5871 1.1136-3.0644 1.1136h-6.2326c-1.4772 0-2.437-0.42978-3.0644-1.1136-0.62537-0.68172-0.97253-1.6747-0.97253-2.822v-6.4145c0-1.1472 0.34717-2.1403 0.97253-2.822 0.6274-0.68381 1.5871-1.1152 3.0644-1.1152z" fill="url(#linearGradient8)" opacity="1" style="mix-blend-mode:overlay"/>
 </g>
 <path d="m9.7894 2.1166c-0.097986 0-0.19344 0.010464-0.28525 0.030488-0.3972 0.068585-0.8955 0.27979-1.096 0.96426l-1.5291 5.2187c-0.18845 0.6432-0.25838 1.1947 0.64904 1.1947h0.26458c-0.90742 0-0.83749-0.55154-0.64904-1.1947l1.5291-5.2187c0.20054-0.68447 0.69884-0.89568 1.096-0.96426 0.091809-0.020025 0.18726-0.030488 0.28525-0.030488h-0.26458zm-1.3229 7.4082v3.9687c0 0.73288 0.59001 1.3229 1.3229 1.3229h0.26458c-0.73288 0-1.3229-0.59001-1.3229-1.3229v-3.9687h-0.26458z" fill="url(#linearGradient26)" filter="url(#filter28)"/>
 <g fill="none" stroke-linecap="round" stroke-linejoin="round">
  <path d="m4.1955 10.848c1.1385 1.1218 2.6726 1.852 4.271 1.852 1.5983-4.4e-5 3.1325-0.73021 4.271-1.852" stroke="url(#linearGradient20)" stroke-width=".52916"/>
  <path d="m4.1955 10.848c1.1385 1.1218 2.6726 1.852 4.271 1.852 1.5983-4.4e-5 3.1325-0.73021 4.271-1.852" filter="url(#filter22)" opacity=".52" stroke="url(#linearGradient22)" stroke-width=".26458"/>
  <path d="m4.2159 10.897c1.1385 1.1218 2.6726 1.852 4.271 1.852 1.5983-4.4e-5 3.1325-0.73021 4.271-1.852" filter="url(#filter23)" stroke="#000000" stroke-width=".13229" style="mix-blend-mode:normal"/>
 </g>
 <path d="m14.816 11.772c0 1.5403-1.2399 2.7801-2.7801 2.7801h-2.2468c-0.73288 0-1.3229-0.59001-1.3229-1.3229v0.26458c0 0.73288 0.59001 1.3229 1.3229 1.3229h2.2468c1.5403 0 2.7801-1.2399 2.7801-2.7801z" fill="#ffffff" filter="url(#filter29)" opacity=".25"/>
 <rect x="11.377" y="5.4239" width=".52916" height="1.4552" rx=".26458" ry=".27718" fill="#000000"/>
 <rect x="11.509" y="5.5561" width=".26458" height="1.1906" rx=".13229" ry=".13229" fill="#ffffff" filter="url(#filter31)" opacity=".15" style="mix-blend-mode:normal"/>
 <path d="m11.588 5.522c-0.07329 0-0.13229 0.059001-0.13229 0.13229v0.98803c0 0.073288 0.059 0.13229 0.13229 0.13229 0.01905 0 0.03689-0.00418 0.05323-0.011369-0.0465-0.020466-0.07855-0.066686-0.07855-0.12092v-0.98803c0-0.054235 0.03205-0.10045 0.07855-0.12092-0.01634-0.00719-0.03417-0.011369-0.05323-0.011369z" fill="#ffffff" filter="url(#filter33)" opacity=".5"/>
 <g transform="translate(-6.3499)">
  <rect x="11.377" y="5.4239" width=".52916" height="1.4552" rx=".26458" ry=".27718" fill="#000000"/>
  <rect x="11.509" y="5.5561" width=".26458" height="1.1906" rx=".13229" ry=".13229" fill="#ffffff" filter="url(#filter31)" opacity=".15" style="mix-blend-mode:normal"/>
  <path d="m11.588 5.522c-0.07329 0-0.13229 0.059001-0.13229 0.13229v0.98803c0 0.073288 0.059 0.13229 0.13229 0.13229 0.01905 0 0.03689-0.00418 0.05323-0.011369-0.0465-0.020466-0.07855-0.066686-0.07855-0.12092v-0.98803c0-0.054235 0.03205-0.10045 0.07855-0.12092-0.01634-0.00719-0.03417-0.011369-0.05323-0.011369z" fill="#ffffff" filter="url(#filter33)" opacity=".5"/>
 </g>
</svg>
