<?xml version="1.0" encoding="UTF-8" standalone="no"?>
<svg
   width="64"
   height="64"
   version="1.1"
   id="svg15"
   sodipodi:docname="file-roller.svg"
   inkscape:version="1.4.2 (ebf0e940d0, 2025-05-08)"
   xmlns:inkscape="http://www.inkscape.org/namespaces/inkscape"
   xmlns:sodipodi="http://sodipodi.sourceforge.net/DTD/sodipodi-0.dtd"
   xmlns:xlink="http://www.w3.org/1999/xlink"
   xmlns="http://www.w3.org/2000/svg"
   xmlns:svg="http://www.w3.org/2000/svg">
  <sodipodi:namedview
     id="namedview15"
     pagecolor="#616161"
     bordercolor="#000000"
     borderopacity="0.25"
     inkscape:showpageshadow="2"
     inkscape:pageopacity="0.0"
     inkscape:pagecheckerboard="0"
     inkscape:deskcolor="#d1d1d1"
     showgrid="false"
     inkscape:zoom="6.7175144"
     inkscape:cx="18.459209"
     inkscape:cy="29.624053"
     inkscape:window-width="1920"
     inkscape:window-height="1007"
     inkscape:window-x="0"
     inkscape:window-y="0"
     inkscape:window-maximized="1"
     inkscape:current-layer="svg15">
    <inkscape:grid
       id="grid15"
       units="px"
       originx="0"
       originy="0"
       spacingx="1"
       spacingy="1"
       empcolor="#0099e5"
       empopacity="0.30196078"
       color="#0099e5"
       opacity="0.14901961"
       empspacing="5"
       enabled="true"
       visible="false" />
  </sodipodi:namedview>
  <defs
     id="defs6">
    <filter
       id="c"
       width="1.0581053"
       height="1.276"
       x="-0.029052632"
       y="-0.138"
       color-interpolation-filters="sRGB">
      <feGaussianBlur
         stdDeviation=".46"
         id="feGaussianBlur1" />
    </filter>
    <linearGradient
       id="a"
       x1="7.937"
       x2="7.937"
       y1="15.081"
       y2="1.852"
       gradientTransform="matrix(3.7795,0,0,3.7795,-2.7055664e-6,0.032)"
       gradientUnits="userSpaceOnUse">
      <stop
         offset="0"
         stop-color="#c18434"
         id="stop3" />
      <stop
         offset="1"
         stop-color="#e4b154"
         id="stop4" />
    </linearGradient>
    <linearGradient
       id="b"
       x1="30"
       x2="30"
       y1="6"
       y2="58"
       gradientUnits="userSpaceOnUse">
      <stop
         offset="0"
         stop-color="#f8deac"
         id="stop5" />
      <stop
         offset="1"
         stop-color="#edcaa2"
         id="stop6" />
    </linearGradient>
    <filter
       inkscape:collect="always"
       style="color-interpolation-filters:sRGB"
       id="filter12"
       x="-0.075"
       y="-0.075"
       width="1.15"
       height="1.15">
      <feGaussianBlur
         inkscape:collect="always"
         stdDeviation="1.75"
         id="feGaussianBlur12" />
    </filter>
    <linearGradient
       inkscape:collect="always"
       xlink:href="#linearGradient5"
       id="linearGradient6"
       x1="8.2552414"
       y1="7.9304214"
       x2="52.282932"
       y2="58.42226"
       gradientUnits="userSpaceOnUse" />
    <linearGradient
       id="linearGradient5"
       inkscape:collect="always">
      <stop
         style="stop-color:#ffffff;stop-opacity:1;"
         offset="0"
         id="stop5-7" />
      <stop
         style="stop-color:#ffffff;stop-opacity:0.75294118;"
         offset="0.55856526"
         id="stop1" />
      <stop
         style="stop-color:#ffffff;stop-opacity:0.25;"
         offset="0.82169133"
         id="stop7" />
      <stop
         style="stop-color:#ffffff;stop-opacity:1;"
         offset="1"
         id="stop6-5" />
    </linearGradient>
    <linearGradient
       inkscape:collect="always"
       xlink:href="#linearGradient5"
       id="linearGradient8"
       x1="8"
       y1="7"
       x2="56"
       y2="57"
       gradientUnits="userSpaceOnUse"
       gradientTransform="translate(-1.3560057e-6)" />
    <filter
       inkscape:collect="always"
       style="color-interpolation-filters:sRGB"
       id="filter8"
       x="-0.0076799997"
       y="-0.0076799997"
       width="1.01536"
       height="1.01536">
      <feGaussianBlur
         inkscape:collect="always"
         stdDeviation="0.1792"
         id="feGaussianBlur8" />
    </filter>
    <filter
       inkscape:collect="always"
       style="color-interpolation-filters:sRGB"
       id="filter9"
       x="-0.0076799997"
       y="-0.0076799997"
       width="1.01536"
       height="1.01536">
      <feGaussianBlur
         inkscape:collect="always"
         stdDeviation="0.1792"
         id="feGaussianBlur9" />
    </filter>
    <filter
       inkscape:collect="always"
       style="color-interpolation-filters:sRGB"
       id="filter1"
       x="-0.014258947"
       y="-0.014258947"
       width="1.0285179"
       height="1.0285179">
      <feGaussianBlur
         inkscape:collect="always"
         stdDeviation="0.1216"
         id="feGaussianBlur2" />
    </filter>
  </defs>
  <rect
     id="rect12-3"
     width="56"
     height="56"
     x="4"
     y="5"
     rx="14"
     ry="14"
     style="opacity:0.15;filter:url(#filter12)" />
  <rect
     width="56"
     height="56"
     x="4"
     y="4"
     fill="url(#a)"
     rx="14"
     ry="14"
     id="rect6"
     style="fill:url(#a)" />
  <path
     id="path6"
     d="m 16.495913,4.0750091 c -3.56386,0.3774267 -6.7198099,2.0809717 -8.9687499,4.6113281 0.29172,0.026555 0.63364,0.00707 1.02734,-0.064453 1.6659999,-0.302 2.1669899,0.067874 2.0839799,1.5468748 -0.06,1.07 -0.7843699,2.373531 -1.6093699,2.894531 -2.067,1.305 -2.99381,1.207563 -2.63281,-0.273437 0.09975,-0.4085 0.11954,-0.655079 0.07226,-0.699219 l -0.00195,-0.002 h -0.00195 l -0.00196,-0.002 h -0.00195 -0.00195 l -0.00196,-0.002 h -0.00195 c -8.1e-4,-2.2e-5 -0.00502,-5e-5 -0.00586,0 -0.03609,0.005 -0.0938,0.07281 -0.16992,0.208984 -0.232,0.415 -0.71994,0.575609 -1.08594,0.34961 -0.06844,-0.04219 -0.13728,0.02085 -0.20703,0.175781 -0.30224,0.67135 -0.598,3.059734 -0.71094,6.005859 -0.17,4.434 0.157,6.851719 1,7.386719 1.818,1.155 1.95725,1.039203 1.28125,-1.091797 -1.783,-5.617 -1.31953,-7.471875 1.23047,-4.921875 0.877,0.877 1.53022,0.845953 2.6992199,-0.123047 1.678,-1.393 2.16878,-4.540015 0.55078,-3.541016 -0.545,0.338001 -1.7819999,0.150938 -2.7499999,-0.414062 -1.412,-0.827 -1.11881,-0.961547 1.49219,-0.685547 2.0209999,0.214 3.2499999,-0.100984 3.2499999,-0.833984 0,-1.746 2.72986,-5.1636726 3.50586,-4.388672 0.368,0.369 -0.32973,2.022781 -1.55273,3.675781 -1.28001,1.732 -1.95761,3.697813 -1.59961,4.632813 0.425,1.105 0.22776,1.40264 -0.61524,0.93164 -0.68,-0.381 -0.49298,0.09941 0.41602,1.066407 2.358,2.507 4.17911,0.962953 3.53711,-2.998047 -0.322,-1.983 0.01914,-4.051579 0.86914,-5.267579 1.208,-1.724 1.19959,-2.166796 -0.06641,-3.2167963 -0.808,-0.67 -2.14847,-0.9576719 -2.98047,-0.6386718 -1.738,0.6669999 -1.91823,-0.1984219 -0.49023,-2.3574219 0.843,-1.275 1.2687,-1.1394688 2.8457,0.8945312 1.978,2.551 4.13086,2.152375 4.13086,-0.765625 0,-1.2669679 -2.13776,-1.9994376 -4.5332,-2.09375 z m 31.77734,0.1015625 c -0.70446,0.2131756 -0.82526,0.7528273 -0.53516,1.8632813 0.48,1.836 -0.79251,2.5482969 -3.85351,2.1542969 -0.353,-0.045 -0.87425,0.8028119 -1.15625,1.8828122 -0.283,1.08 -0.02945,1.962891 0.56055,1.962891 0.59,0 0.78368,0.287625 0.42968,0.640625 -0.353,0.354 -1.34789,0.05684 -2.21289,-0.660156 -1.252,-1.04 -1.31039,-1.469953 -0.27539,-2.1269535 0.713,-0.452 0.84688,-0.8222656 0.29688,-0.8222656 -1.336,0 -3.69099,1.5300781 -3.58399,2.3300781 0.249,1.86 -0.01181,2.638672 -0.88281,2.638672 -0.533,0 -0.69152,-0.788 -0.35352,-1.75 0.504,-1.432 0.37068,-1.522141 -0.73632,-0.494141 -1.12,1.04 -0.76044,1.761985 2.10156,4.208985 1.9,1.624 3.03362,2.97114 2.51562,2.99414 -1.12,0.048 2.55688,2.962766 3.79688,3.009766 0.472,0.017 0.58023,-0.694078 0.24023,-1.580078 -0.42,-1.094 -0.18367,-1.444797 0.73633,-1.091797 0.975,0.374 1.22653,-0.155625 0.89453,-1.890625 -0.283,-1.483 0.0087,-2.40625 0.76172,-2.40625 0.673,0 0.97016,0.659797 0.66016,1.466797 -0.31,0.808 -0.06122,1.77825 0.55078,2.15625 0.647,0.4 0.83045,0.232609 0.43945,-0.400391 -0.37,-0.597 -0.20762,-1.371656 0.35938,-1.722656 0.569,-0.351 0.81387,-0.991828 0.54687,-1.423828 -0.268,-0.433 0.58267,-0.582031 1.88867,-0.332032 1.593,0.304001 2.32471,0.0085 2.22071,-0.896484 -0.178,-1.546 0.44775,-1.8625 3.59375,-1.8125 0.72496,0.01139 1.21486,0.02103 1.45898,0.08008 -0.49768,-1.08838 -1.13012,-2.101928 -1.87695,-3.0175779 -0.27553,0.1489174 -0.56296,0.4458099 -0.85742,0.9101559 -0.757,1.198 -0.94599,1.219516 -0.95899,0.103516 -0.0052,-0.5341127 0.38161,-1.3047088 0.94141,-1.9882812 -0.23713,-0.2407923 -0.4823,-0.4741582 -0.73633,-0.6972657 -1.06331,0.4191155 -1.28356,0.1981154 -1.1543,-0.9082031 -1.69748,-1.2008521 -3.67488,-2.0334604 -5.82031,-2.3808594 z m -14.25977,0.089844 c -11.79399,0.083 -11.98437,0.1191406 -11.98437,2.3691406 0,1.257 -0.51839,2.6050937 -1.15039,2.9960938 -0.798,0.493 -0.58755,1.126547 0.68945,2.060547 1.713,1.252 1.65435,1.347656 -0.84765,1.347656 -1.48,0 -2.69141,0.45 -2.69141,1 0,0.55 1.125,1 2.5,1 1.375,0 2.5,-0.45 2.5,-1 0,-0.55 0.788,-1.053188 1.75,-1.117188 0.79443,-0.05242 1.21276,-0.08804 1.25,-0.15625 v -0.002 -0.002 -0.002 l 0.002,-0.002 -0.002,-0.002 v -0.002 c -4.1e-4,-0.0024 -0.0027,-0.0073 -0.0039,-0.0098 -0.04883,-0.07555 -0.46468,-0.190156 -1.24609,-0.394531 -1.174,-0.307 -1.75,-1.440359 -1.75,-3.4433594 0,-1.82 0.40697,-2.7328438 1.04297,-2.3398438 0.574,0.355 1.77211,0.042594 2.66211,-0.6914062 1.373,-1.133 1.53979,-1.1079375 1.09179,0.1640625 -0.82599,2.35 1.05129,5.0074999 3.48829,4.9374999 l 2.21484,-0.06445 -2.25,-0.904297 c -1.298,-0.5220005 -2.25,-1.7625468 -2.25,-2.9355468 0,-2.219 1.4617,-2.7139062 2.5957,-0.8789062 0.399,0.6459999 0.27761,0.8869218 -0.27539,0.5449218 -0.543,-0.336 -0.98828,-0.017016 -0.98828,0.7089844 0,0.783 0.74027,1.1238437 1.82227,0.8398438 1.002,-0.261 1.62862,-0.7888282 1.39062,-1.1738282 -0.595,-0.962 4.65813,-0.7616719 6.20313,0.2363282 0.836,0.54 1.25657,0.2099999 1.26758,-1 0.013,-1.533 0.16042,-1.5825469 0.98242,-0.3105469 0.862,1.333 0.98159,1.333 1.05859,0 0.066,-1.16 0.23867,-1.1111563 0.76367,0.2148437 0.457,1.15 1.13164,1.4333282 2.05664,0.8613282 3.308,-2.0440001 -0.38958,-2.9296094 -11.89258,-2.8496094 z m -16.16601,0.7734375 c 0.585,0 1.35966,0.4804062 1.72266,1.0664062 1.076,1.742 -0.14949,2.1109844 -1.52149,0.4589844 -0.789,-0.951 -0.86417,-1.5253906 -0.20117,-1.5253906 z m 33.31836,0.074219 c 0.02574,-0.00173 0.0499,-6.875e-4 0.07422,0 0.13133,0.00333 0.23645,0.042474 0.31445,0.1191406 0.308,0.3070001 -0.24837,0.8671875 -1.23437,1.2421876 -1.425,0.543 -1.5386,0.4294062 -0.5586,-0.5585938 0.47813,-0.4809375 1.01818,-0.7768506 1.4043,-0.8027344 z m -39.63672,0.9257813 c 0.275,0 0.5,0.225 0.5,0.5 0,0.275 -0.225,0.5 -0.5,0.5 -0.275,0 -0.5,-0.225 -0.5,-0.5 0,-0.275 0.225,-0.5 0.5,-0.5 z m 40,1 c 0.275,0 0.5,0.225 0.5,0.5 0,0.275 -0.225,0.5 -0.5,0.5 -0.275,0 -0.5,-0.225 -0.5,-0.5 0,-0.275 0.225,-0.5 0.5,-0.5 z m -13.21484,0.2304687 c -0.07259,-0.00429 -0.161,-4.375e-4 -0.26563,0.00781 -0.279,0.022 -0.67341,0.085641 -1.1914,0.1816407 -1.28001,0.237 -2.46672,0.4648593 -2.63672,0.5058593 -0.17,0.041 -0.02946,0.5242188 0.31054,1.0742188 0.835,1.3500001 1.37749,1.2631411 3.14649,-0.5058594 0.87937,-0.88025 1.14485,-1.2336484 0.63672,-1.2636719 z m 15.39843,1.0039063 c 0.12639,-0.00859 0.20971,0.291625 0.23828,0.8945312 0.04401,0.8950004 -0.59687,2.1851404 -1.42187,2.8691404 -0.825,0.684 -1.5,0.950843 -1.5,0.589843 0,-0.361 -0.9,-0.17689 -2,0.41211 -1.515,0.81 -2.01813,0.758156 -2.07813,-0.214844 -0.043,-0.707 -0.53098,-0.04816 -1.08398,1.464844 -0.552,1.512 -1.52792,2.73575 -2.16992,2.71875 -1.912,-0.053 -4.88606,-2.714578 -3.78906,-3.392578 0.55,-0.34 1.44332,0.173578 1.98632,1.142578 1.205,2.154 2.38477,1.184062 2.38477,-1.960938 0,-2.292 4.41673,-5.4873741 5.67773,-4.1093741 0.315,0.344 0.0093,0.8253125 -0.67773,1.0703125 -1.898,0.6779996 -1.49328,1.8535156 0.63672,1.8535156 1.237,0 1.69508,-0.500172 1.33008,-1.451172 -0.337,-0.8790005 -0.12871,-1.1862967 0.52929,-0.7792967 0.596,0.368 1.31085,0.1031093 1.58985,-0.5878907 0.122,-0.3013333 0.22712,-0.4704323 0.31445,-0.5097656 0.01133,-0.00516 0.02249,-0.00904 0.0332,-0.00977 z m -28.72851,0.7714843 c -0.586,-0.006 -0.95313,0.3101401 -0.95313,0.9941403 0,0.55 0.675,1 1.5,1 0.825,0 1.5,0.45 1.5,1 0,0.55 0.7016,1 1.5586,1 0.857,0 1.26143,0.480359 0.89843,1.068359 -0.363,0.588 -1.28959,0.825297 -2.05859,0.529297 -0.769,-0.296 -1.39844,-0.09841 -1.39844,0.433594 0,1.34 2.35258,1.216734 3.76758,-0.197266 0.89,-0.89 1.31864,-0.77 1.80664,0.5 0.352,0.917 1.21216,1.666016 1.91016,1.666016 0.698,0 1.83062,0.675 2.51562,1.5 0.785,0.946 0.85164,1.5 0.18164,1.5 -0.585,0 -1.36347,-0.486078 -1.73046,-1.080078 -0.368,-0.595 -1.70852,-0.819953 -2.97852,-0.501953 -1.377,0.345 -2.53691,0.07508 -2.87891,-0.669922 -0.0864,-0.187852 -0.15165,-0.287327 -0.18945,-0.304688 -0.0021,-7.27e-4 -0.0078,-0.0018 -0.0098,-0.002 h -0.002 c -8.8e-4,1.62e-4 -0.005,0.0017 -0.0059,0.002 l -0.002,0.002 -0.002,0.002 -0.002,0.002 -0.002,0.002 c -0.05291,0.07707 0.02556,0.586531 0.23633,1.423828 0.402,1.598 0.23523,2.152406 -0.50977,1.691406 -0.609,-0.376 -1.10547,-1.276 -1.10547,-2 0,-2.073 -6.1075,-2.888594 -7.9375,-1.058594 -1.383,1.383 -1.20982,1.473625 1.70118,0.890625 2.01699,-0.403 3.23632,-0.250797 3.23632,0.408203 0,0.582001 0.9,1.34436 2,1.69336 2.617,0.83 2.55672,2.033375 -0.11328,2.234375 -1.162,0.088 -1.86455,-0.09053 -1.56054,-0.394531 0.304,-0.304 0.03153,-1.111922 -0.60547,-1.794922 -1.264,-1.353 -4.72071,-0.892094 -4.72071,0.628906 0,0.519 0.38257,0.706969 0.85157,0.417969 0.47,-0.29 1.707,0.118203 2.75,0.908203 1.044,0.79 2.62943,1.45075 3.52343,1.46875 2.447,0.048 2.2,5.03125 -0.25,5.03125 -1.032,0 -1.875,0.700594 -1.875,1.558594 0,0.857 -0.45,1.281406 -1,0.941406 -0.57,-0.352 -1,0.51 -1,2 0,1.49 0.43,2.352 1,2 0.55,-0.34 1,-1.24 1,-2 0,-1.923 1.84597,-2.868547 3.29297,-1.685547 0.817,0.668 1.6221,0.533938 2.4961,-0.414063 0.744,-0.809 0.85,-1.40039 0.25,-1.40039 -0.572,0 -1.03907,-0.459531 -1.03907,-1.019531 0,-0.6 1.133,-0.75686 2.75,-0.38086 2.69,0.623 2.707,0.6005 0.75,-1.0625 -1.67,-1.42 -1.711,-1.61039 -0.25,-1.15039 0.963,0.302 1.75,0.115031 1.75,-0.417969 0,-0.533 -1.05098,-0.96875 -2.33398,-0.96875 -2.663,0 -3.17917,-2.633328 -0.95117,-4.861328 1.177,-1.176 1.2975,-0.953766 0.8125,1.490234 -0.2685,1.3525 -0.39238,2.039094 -0.3125,2.121094 l 0.0019,0.002 h 0.002 c 7e-4,4.2e-4 0.0051,0.0036 0.0059,0.0039 h 0.002 0.002 0.002 c 8.3e-4,5.4e-5 0.005,2e-5 0.0059,0 0.10357,-0.0109 0.38474,-0.529133 0.89453,-1.505859 0.645,-1.237 1.55549,-2.25 2.02149,-2.25 1.364,0 0.97265,2.991125 -0.40235,3.078125 -1,0.063 -1,0.179984 0,0.583984 0.687,0.278 1.28413,1.254875 1.32813,2.171875 0.057,1.206 0.22909,1.289735 0.62109,0.302735 0.458,-1.151 0.67725,-1.151 1.40625,0 0.67,1.057 0.86786,0.956687 0.88086,-0.445313 0.007,-0.995 0.46172,-1.531406 1.01172,-1.191406 1.16,0.717 1.36,6.130953 0.25,6.751953 -0.14797,0.08281 -0.21775,0.140054 -0.22461,0.171875 l -0.0019,0.002 0.0019,0.002 c 7e-5,7.07e-4 -1.5e-4,0.0052 0,0.0059 l 0.002,0.002 0.002,0.002 v 0.002 l 0.002,0.002 c 0.12566,0.103701 1.86662,-0.402203 3.46875,-1.050781 0.825,-0.333 1.5,-0.108 1.5,0.5 0,0.61 -0.43384,1.109375 -0.96484,1.109375 -0.531,0 -1.42524,0.863922 -1.99024,1.919922 -0.98,1.832 -0.89311,1.849781 1.96289,0.425781 1.645,-0.821 2.97894,-2.022922 2.96094,-2.669922 -0.043,-1.63 -2.4687,-4.675781 -3.7207,-4.675781 -0.568,0 -1.30568,-0.712031 -1.63868,-1.582031 -0.96799,-2.522 -0.64967,-3.058328 0.73633,-1.236329 1.575,2.073001 6.83261,2.831969 7.22461,1.042969 0.077,-0.3505 0.08825,-0.556187 0.04688,-0.601562 l -0.002,-0.002 -0.002,-0.002 h -0.002 l -0.002,-0.002 c -7.7e-4,-3.22e-4 -0.0051,-0.0017 -0.0059,-0.002 h -0.002 c -8.5e-4,-8.8e-5 -0.005,1.1e-5 -0.0059,0 -0.04897,0.0036 -0.1362,0.121438 -0.2539,0.359375 -0.907,1.829 -2.23513,1.082656 -1.82813,-1.027343 0.32,-1.664001 0.01458,-1.931016 -1.60742,-1.416016 -1.1,0.349 -2.65413,0.09169 -3.45312,-0.570313 -1.02501,-0.851 -1.45313,-0.875984 -1.45313,-0.08398 0,0.618 -0.9,1.123047 -2,1.123047 -1.1,0 -1.99805,-0.45 -1.99805,-1 0,-0.55 0.33505,-0.887 0.74805,-0.75 a 0.79,0.79 0 0 0 0.87109,-0.273438 c -0.04,0.01 -0.07909,0.02344 -0.12109,0.02344 a 0.5,0.5 0 0 1 -0.5,-0.5 c 0,-0.275 0.225,-0.5 0.5,-0.5 0.162,0 0.30063,0.08312 0.39063,0.203125 0.471,-2.04 -0.41457,-3.521953 -2.72657,-4.501953 -1.742,-0.738 -2.67683,-1.781172 -2.42383,-2.701172 0.14968,-0.543469 0.19603,-0.838911 0.13086,-0.890625 -0.07218,-0.04602 -0.26922,0.173984 -0.60742,0.652344 -0.676,0.955 -1.463,0.652 -3.25,-1.25 -1.495,-1.5910005 -3.08159,-2.4958593 -4.05859,-2.5058593 z m 12.66601,11.9707023 a 0.495,0.495 0 0 0 0.37891,-0.476562 0.5,0.5 0 0 0 -0.10742,-0.296875 c -0.042,0.18 -0.07863,0.356875 -0.14063,0.546875 a 0.8,0.8 0 0 1 -0.13086,0.226562 z M 58.851383,12.4129 c -0.19041,0.217395 -0.79327,0.584007 -1.82422,1.205078 l -2.5,1.505859 2.5,-0.546875 c 1.17758,-0.257344 1.79821,-0.388958 1.88086,-0.333984 l 0.002,0.002 0.002,0.002 v 0.002 l 0.002,0.002 v 0.002 0.002 0.002 0.002 0.002 0.002 c -0.02224,0.09259 -0.57685,0.380594 -1.63672,0.925781 -1.238,0.637 -2.25,1.762907 -2.25,2.503907 0,0.741 -0.675,1.347656 -1.5,1.347656 -0.825,0 -1.5,0.481359 -1.5,1.068359 0,0.589 -0.84,0.79875 -1.875,0.46875 -1.33,-0.421 -2.02749,-0.01361 -2.39649,1.400391 -0.293,1.118 -0.05493,1.900297 0.53907,1.779297 0.58199,-0.12 1.37371,0.908203 1.76171,2.283203 0.689,2.44 0.7451,2.410031 2.3711,-1.292969 1.624,-3.702 4.01961,-5.623015 5.34961,-4.291015 0.366,0.364999 -0.32997,0.923234 -1.54297,1.240234 -2.659,0.695 -2.81703,1.855281 -0.45703,3.363281 1.549,0.99 1.49615,1.064344 -0.46485,0.652344 -1.567,-0.33 -2.39508,0.101656 -2.83007,1.472656 -0.434,1.366 -1.18316,1.758125 -2.53516,1.328125 -2.16,-0.685 -2.52975,0.516125 -0.71875,2.328125 0.732,0.732 1.55909,0.840344 2.12109,0.277344 0.507,-0.507 1.61685,-0.656078 2.46485,-0.330078 0.974,0.374 1.28946,0.184422 0.85547,-0.517578 -0.61401,-0.995 2.8765,-5.230469 4.3125,-5.230469 0.318,0 0.5715,-3.128172 0.5625,-6.951172 -0.0042,-1.779807 -0.10825,-3.324244 -0.28711,-4.621094 -0.12148,-0.357811 -0.25738,-0.710709 -0.40625,-1.054687 z M 5.5310631,14.039853 c 0.275,0 0.5,0.225 0.5,0.5 0,0.275 -0.225,0.5 -0.5,0.5 a 0.5,0.5 0 0 1 -0.5,-0.5 c 0,-0.275 0.225,-0.5 0.5,-0.5 z m 52.9980499,2 c 0.275,0 0.5,0.225 0.5,0.5 0,0.275 -0.225,0.5 -0.5,0.5 a 0.5,0.5 0 0 1 -0.5,-0.5 c 0,-0.275 0.225,-0.5 0.5,-0.5 z m -5.62695,0.259766 a 6,6 0 0 0 -0.79492,0.0098 c -1.13201,0.084 -1.87088,0.83236 -1.79688,1.818359 h 0.002 c 0.102,1.355001 0.46788,1.458782 1.92188,0.550782 2.053,-1.282 2.26397,-2.272907 0.66797,-2.378906 z m -37.44141,0.240234 c 0.01444,-0.0021 0.02875,-2.35e-4 0.04297,0.0059 0.11,0.047 0.21131,0.335563 0.32031,0.851563 0.217,1.02 -0.04122,2.289265 -0.57422,2.822265 -0.626,0.626 -0.76653,-0.02852 -0.39453,-1.853515 0.24614,-1.205813 0.43509,-1.801709 0.60547,-1.826172 z m 41.07031,0.5 c 0.275,0 0.5,0.225 0.5,0.5 0,0.275 -0.225,0.5 -0.5,0.5 -0.275,0 -0.5,-0.225 -0.5,-0.5 0,-0.275 0.225,-0.5 0.5,-0.5 z m -49.4980399,0.05664 c 0.242,0 0.48301,0.09334 0.66601,0.277344 0.367,0.366 0.06699,0.666016 -0.66601,0.666016 -0.733,0 -1.03302,-0.300016 -0.66602,-0.666016 a 0.94,0.94 0 0 1 0.66602,-0.277344 z m 1.5,1.94336 c 0.275,0 0.5,0.225 0.5,0.5 0,0.275 -0.225,0.5 -0.5,0.5 a 0.5,0.5 0 0 1 -0.5,-0.5 c 0,-0.275 0.225,-0.5 0.5,-0.5 z m 41.7538999,3.162109 c 0.0053,-5.42e-4 0.01183,9.4e-5 0.01758,0 0.11133,-0.004 0.30165,0.07685 0.57031,0.242188 0.635,0.392 1.1543,0.910343 1.1543,1.152343 0,0.834 -0.8837,0.44011 -1.5957,-0.71289 -0.26738,-0.433031 -0.31128,-0.664824 -0.14649,-0.681641 z m 7.01758,0.31836 c 0.43267,0.0035 0.72461,0.201656 0.72461,0.550781 0,0.533 -0.675,0.96875 -1.5,0.96875 -0.825,0 -1.5,-0.176578 -1.5,-0.392578 0,-0.216 0.675,-0.653703 1.5,-0.970703 0.20667,-0.07867 0.4007,-0.125865 0.58203,-0.144532 0.06713,-0.0075 0.13155,-0.01222 0.19336,-0.01172 z m -39.4668,0.517578 v 0.002 c -0.902,0 -1.78965,0.449953 -1.97265,1.001953 -0.222,0.664 -1.48858,0.670578 -3.76758,0.01758 -4.4299999,-1.27 -4.9698299,-0.612906 -2.04883,2.496094 1.732,1.844 2.06214,2.805047 1.24414,3.623047 -1.4919999,1.492 -6.5752899,0.216078 -5.6542999,-1.419922 0.1946,-0.344906 0.27242,-0.5482 0.23438,-0.605469 -8.2e-4,-9.95e-4 -0.00495,-0.005 -0.00586,-0.0059 -9.9e-4,-7.82e-4 -0.00478,-0.0032 -0.00586,-0.0039 -0.08304,-0.04036 -0.38855,0.187437 -0.92383,0.685546 -1.183,1.1 -1.16748,1.433328 0.10352,2.236328 0.982,0.620001 1.067,0.948985 0.25,0.958985 -0.764,0.01 -1.12355,1.090594 -0.93555,2.808594 0.406,3.71 1.43433,5.221953 3.48633,5.126953 1.041,-0.05 1.21041,-0.272031 0.44141,-0.582032 -1.66,-0.67 -1.53252,-3.379625 0.27148,-5.765624 1.6509999,-2.182 2.5121399,-1.7715 2.7441399,1.3125 0.088,1.161999 0.56269,2.115234 1.05469,2.115234 0.492,0 0.6182,-0.788 0.2832,-1.75 -0.26281,-0.755359 -0.3979,-1.171373 -0.34765,-1.242188 l 0.0019,-0.002 0.002,-0.002 h 0.002 l 0.0019,-0.002 h 0.002 l 0.0019,-0.002 c 0.08679,-0.02686 0.42057,0.390453 1.08985,1.25 0.75,0.962 1.98795,1.784125 2.75195,1.828125 0.937,0.053 0.99931,0.2355 0.19531,0.5625 -0.657,0.267 -0.95887,1.098703 -0.67187,1.845703 0.287,0.747 -0.39653,2.276438 -1.51953,3.398438 -2.074,2.073999 -1.99322,2.315312 1.17578,3.445312 1.32,0.47 1.714,0.186828 1.5,-1.076172 -0.162,-0.957 0.36998,-1.748875 1.20898,-1.796875 2.813,-0.164 2.98819,0.648703 0.61719,2.845703 -2.353,2.181 -2.61523,2.66536 -2.61523,4.81836 0,0.731 -0.59036,0.644 -1.69336,-0.25 -1.15,-0.933 -1.45046,-0.970094 -0.93946,-0.121094 1.2,1.997 -0.2982,3.550375 -2.0332,2.109375 -1.191,-0.987 -1.6594199,-0.951266 -2.3574199,0.177734 -0.544,0.88 -0.42283,1.693922 0.32617,2.169922 0.8249999,0.525 0.8483099,0.766344 0.07031,0.777344 -0.62,0.008 -1.745,-0.748688 -2.5,-1.679688 -1.172,-1.444 -1.16512,-1.565937 0.04688,-0.835937 1.084,0.654 1.25737,0.438172 0.73437,-0.923828 -0.572,-1.492 -0.25798,-1.704063 1.91602,-1.289063 2.1609999,0.414 2.5154199,0.181094 2.1074199,-1.378906 -0.532,-2.033 1.25508,-2.54375 2.95508,-0.84375 0.71,0.71 1.0332,0.555 1.0332,-0.5 0,-0.844 -0.45758,-1.533203 -1.01758,-1.533203 -1.005,0 -9.6484299,-3.957969 -9.6484299,-4.417969 v -0.002 -0.002 -0.002 l 0.00195,-0.002 c 4.9e-4,-9.35e-4 0.00325,-0.005 0.00391,-0.0059 l 0.00195,-0.002 c 0.11843,-0.104303 1.41953,-0.01091 2.99219,0.220703 2.2749999,0.334 2.9999999,0.05017 2.9999999,-1.173828 0,-0.888 0.49842,-1.615234 1.10742,-1.615234 0.616,0 0.82656,0.727625 0.47656,1.640625 -0.532,1.386 -0.38822,1.441562 0.92578,0.351562 1.638,-1.36 1.61785,-3.124062 -0.03515,-3.164062 -0.536,-0.013 -1.75313,-0.441219 -2.70313,-0.949219 -1.3409999,-0.718 -1.5984799,-0.586156 -1.1464799,0.589844 0.7699999,2.009 -2.22468,3.109484 -4.13868,1.521484 -1.24,-1.029 -1.48632,-0.868922 -1.48632,0.955078 0,2.449 1.73914,6.192953 3.36914,7.251953 0.59,0.382 0.74284,1.023782 0.33984,1.425782 -0.403,0.402 -1.32573,-0.08313 -2.05273,-1.078125 -1.27,-1.737 -1.32721,-1.732782 -1.40821,0.07422 -0.00202,0.04357 -0.00473,0.08689 -0.00586,0.13086 0.17961,0.894044 0.44491,1.757373 0.78516,2.580078 0.0703,-0.19133 0.25382,-0.330078 0.46875,-0.330078 0.275,0 0.5,0.225 0.5,0.5 0,0.275 -0.225,0.5 -0.5,0.5 -0.06666,0 -0.12921,-0.01316 -0.1875,-0.03711 0.87502,1.848958 2.14138,3.472877 3.69531,4.765625 1.8517099,0.24458 3.1467699,-0.674522 2.3574199,-1.951172 -0.385,-0.622999 -0.20893,-0.800062 0.41407,-0.414062 0.597,0.369 1.38314,0.190469 1.74414,-0.394531 0.362,-0.585 1.58665,-0.930578 2.72265,-0.767578 1.532,0.221 2.6703,-0.781766 4.4043,-3.884766 2.57,-4.598 2.2148,-7.774234 -0.7832,-6.990234 -1.023,0.267 -2.11388,0.07908 -2.42188,-0.419922 -0.308,-0.498 -0.08395,-0.90625 0.49805,-0.90625 0.583,0 1.05859,-0.474641 1.05859,-1.056641 0,-0.582 -0.38442,-0.82325 -0.85742,-0.53125 -1.307,0.808 -0.46308,-4.502109 0.91992,-5.787109 0.931,-0.865 1.07696,-0.566938 0.62696,1.289062 -0.706,2.91 0.81025,6.085938 2.90625,6.085938 0.898,0 1.23054,0.47625 0.81054,1.15625 -0.426,0.689 -0.2769,0.882422 0.3711,0.482422 0.597,-0.369 1.34325,-0.257 1.65625,0.25 0.314,0.507 1.49495,0.681718 2.62695,0.386718 1.507,-0.394 2.20538,0.02341 2.60937,1.566407 l 0.55079,2.109375 1.80468,-2.226563 c 0.992,-1.224 2.16833,-1.861922 2.61133,-1.419922 0.443,0.442 0.14494,1.223375 -0.66406,1.734375 -1.287,0.815 -1.2837,0.934938 0.0293,0.960938 1.24,0.026 1.26014,0.181297 0.11914,0.904297 -0.757,0.48 -1.06846,1.371422 -0.68946,1.982422 0.42,0.682 -0.13068,1.113281 -1.42968,1.113281 -1.248,0 -1.84894,0.441312 -1.46094,1.070312 0.364,0.587 1.25928,0.836641 1.98828,0.556641 1.544,-0.592 3.90803,1.860265 3.08203,3.197266 -0.31,0.5 -1.69322,0.690781 -3.07422,0.425781 -1.382,-0.264 -2.26584,-0.878235 -1.96484,-1.365235 1.367,-2.213 -0.89592,-2.788343 -3.54492,-0.902343 -1.559,1.11 -3.32669,2.019531 -3.92969,2.019531 -1.649,0 -1.3162,-1.702719 0.4668,-2.386719 0.86,-0.33 1.2549,-1.098031 0.8789,-1.707031 -0.455,-0.737 -1.38734,-0.411484 -2.77734,0.978516 -1.636,1.636 -1.824,2.354734 -0.875,3.302734 0.666,0.666 1.20898,1.812828 1.20898,2.548828 0,1.096 -0.25353,1.106734 -1.39453,0.05273 -0.767,-0.71 -1.1914,-1.628015 -0.9414,-2.041015 0.25,-0.412 -0.26077,-0.75 -1.13477,-0.75 -0.875,0 -1.89367,0.788 -2.26367,1.75 -0.569,1.481 -0.78014,1.366 -1.36914,-0.75 -0.33567,-1.205039 -0.51354,-1.801023 -0.61719,-1.816407 h -0.002 c -7.8e-4,2e-5 -0.0051,-8.7e-5 -0.0059,0 l -0.002,0.002 h -0.0019 c -0.08975,0.03523 -0.12148,0.563672 -0.16601,1.564453 -0.055,1.238 -0.57621,2.25 -1.15821,2.25 -0.583,0 -0.76344,-0.483219 -0.39844,-1.074219 0.365,-0.59 -0.26243,-0.494156 -1.39843,0.214844 -0.5808,0.362639 -0.96432,0.68063 -1.16407,0.96289 1.43524,0.824613 3.0312,1.400764 4.73243,1.673828 5.1374,0.13288 12.70962,-0.543009 13.03711,-1.527343 0.229,-0.687 -0.33496,-1.25 -1.25196,-1.25 -0.917,0 -1.48653,-0.532547 -1.26953,-1.185547 0.585,-1.753 2.76953,-2.207219 2.76953,-0.574219 0,0.998 1.10999,1.342359 3.83399,1.193359 2.646,-0.145 3.83398,0.208719 3.83398,1.136719 0,0.739 -0.48798,1.038016 -1.08398,0.666016 -1.602,-1 -5.58399,-1.057078 -5.58399,-0.08008 0,0.465 1.012,0.895031 2.25,0.957031 1.238,0.062 3.78044,0.286 5.64844,0.5 1.87,0.213 4.007,-0.118328 4.75,-0.736328 1,-0.83 1.35156,-0.83 1.35156,0 0,0.696959 1.52233,1.030621 3.38086,1.009766 1.85245,-0.183891 3.59643,-0.726249 5.16211,-1.556641 -0.09159,0.01699 -0.18849,0.03533 -0.29101,0.05469 -1.237,0.235 -2.48258,0.04984 -2.76758,-0.410156 -0.285,-0.46 -1.55999,-0.647015 -2.83399,-0.416016 -1.541,0.280001 -2.3164,-0.05963 -2.3164,-1.015624 0,-1.082001 0.45198,-1.194079 1.83398,-0.455079 1.994,1.067 2.14161,0.885141 1.22461,-1.505859 -0.334,-0.87 -1.50923,-1.582031 -2.61523,-1.582031 -1.504,0 -1.8801,0.49289 -1.4961,1.96289 0.283,1.08 -0.11581,2.484094 -0.88281,3.121094 -1.16,0.963 -1.29316,0.643516 -0.78516,-1.896484 0.549,-2.743 0.395,-3.002813 -1.5,-2.507813 -1.218,0.319 -2.11328,0.0815 -2.11328,-0.5625 0,-1.03 1.62,-1.500765 4.75,-1.384765 0.688,0.026 1.25,-0.992719 1.25,-2.261719 0,-3.398 1.05147,-5.54736 2.35547,-4.81836 0.33746,0.189227 0.53688,0.267926 0.5918,0.232422 0.0019,-0.0015 0.0063,-0.006 0.0078,-0.0078 0.045,-0.07093 -0.1649,-0.35068 -0.62695,-0.851563 -0.645,-0.697 -0.95922,-1.823 -0.69922,-2.5 0.26,-0.676 -0.67513,-1.98039 -2.07813,-2.90039 -2.22,-1.454 -2.55078,-1.472485 -2.55078,-0.146485 0,0.837 0.40725,1.521485 0.90625,1.521485 0.498,0 0.72024,1.013 0.49024,2.25 -0.14375,0.773125 -0.16338,1.24123 -0.08008,1.3125 0.0022,0.0015 0.0075,0.0048 0.0098,0.0059 0.05162,0.01743 0.13529,-0.08669 0.24804,-0.324219 0.328,-0.69 0.99261,-1.012843 1.47461,-0.714843 1.453,0.898 -1.22998,5.470703 -3.20898,5.470703 -1.924,0 -2.4906,-1.48136 -0.9336,-2.44336 0.498,-0.308 0.67463,-1.446203 0.39063,-2.533203 -0.392,-1.5 -0.92494,-1.759312 -2.21094,-1.070312 -0.963,0.515 -2.2968,0.533968 -3.0918,0.04297 -1.631,-1.008 -3.29017,-0.282734 -2.45117,1.072266 0.316,0.512 0.10058,0.931641 -0.48242,0.931641 -0.993,0 -1.61102,-3.267 -1.04102,-5.5 0.44227,-1.734797 0.73327,-4.445912 0.57422,-4.619141 -8e-4,-7.27e-4 -0.005,-0.0033 -0.0059,-0.0039 h -0.002 c -8.7e-4,-3.55e-4 -0.005,-0.0017 -0.0059,-0.002 h -0.0019 c -9.4e-4,2.4e-5 -0.0049,-1.52e-4 -0.0059,0 -9.8e-4,2.81e-4 -0.0049,0.0035 -0.0059,0.0039 -0.04193,0.0222 -0.10339,0.153004 -0.18555,0.423828 -0.457,1.504 -0.82189,1.596828 -2.21289,0.548828 -0.68103,-0.512953 -1.05018,-0.771205 -1.12695,-0.767578 h -0.002 -0.002 -0.002 v 0.002 h -0.002 v 0.002 h -0.002 v 0.002 h -0.002 v 0.002 0.002 c -0.01118,0.06001 0.23683,0.359008 0.72266,0.904297 1.379,1.546 1.68214,4.001953 0.49414,4.001953 -0.415,0 -1.37391,-1.395563 -2.12891,-3.101563 -0.94,-2.124 -1.61553,-2.707562 -2.14453,-1.851562 -0.756,1.222 -0.2717,2.11339 3.2793,6.02539 0.962,1.06 1.412,1.922063 1,1.914063 -2.708,-0.05 -5.16482,-1.501953 -6.13282,-3.626953 -0.619,-1.36 -1.51051,-2.235313 -1.97851,-1.945313 -0.468,0.29 -0.63891,-0.586312 -0.37891,-1.945312 0.274,-1.433 0.0035,-2.46875 -0.64453,-2.46875 -0.615,0 -1.40953,-0.113 -1.76953,-0.25 -0.36,-0.138 -0.77678,0.579797 -0.92578,1.591797 -0.418,2.85 -1.08189,2.997187 -3.33789,0.742187 -2.617,-2.617 -2.64199,-3.463922 -0.08399,-2.794922 1.1,0.287 2.2496,0.115188 2.5586,-0.382812 0.308,-0.498 1.43395,-0.90625 2.50195,-0.90625 1.068,0 1.94141,-0.475594 1.94141,-1.058594 0,-0.582 -0.562,-0.734844 -1.25,-0.339844 -0.38569,0.222063 -0.61899,0.301689 -0.67774,0.25 -7.9e-4,-8.17e-4 -0.0032,-0.005 -0.0039,-0.0059 l -0.002,-0.002 c -0.03169,-0.05545 0.05388,-0.202157 0.26563,-0.433594 0.459,-0.5 1.134,-0.950047 1.5,-0.998047 0.366,-0.048 1.67329,-0.506578 2.90429,-1.017578 2.202,-0.914 2.206,-0.947922 0.25,-2.169922 -1.183,-0.738 -1.98632,-0.832422 -1.98632,-0.232422 0,0.555 -0.46997,1.007813 -1.04297,1.007813 -0.573,0 -2.02271,0.91525 -3.22071,2.03125 -2.575,2.4 -5.06717,2.201547 -5.57617,-0.439453 -0.273,-1.418 0.05136,-1.724282 1.31836,-1.238282 0.925,0.355 2.64622,-0.02951 3.82422,-0.853515 1.692,-1.186 1.79695,-1.5 0.50195,-1.5 z m 2.69532,0.002 c -0.275,0 -0.5,0.225 -0.5,0.5 0,0.275 0.225,0.5 0.5,0.5 0.275,0 0.5,-0.225 0.5,-0.5 0,-0.275 -0.225,-0.5 -0.5,-0.5 z m 8,0 c 0.275,0 0.5,0.225 0.5,0.5 0,0.275 -0.225,0.5 -0.5,0.5 a 0.5,0.5 0 0 1 -0.5,-0.5 c 0,-0.275 0.225,-0.5 0.5,-0.5 z m 15.99804,1 c 0.275,0 0.5,0.225 0.5,0.5 0,0.275 -0.225,0.5 -0.5,0.5 -0.275,0 -0.5,-0.225 -0.5,-0.5 0,-0.275 0.225,-0.5 0.5,-0.5 z m 14.98828,2.71875 c -0.06441,0.0025 -0.13334,0.09366 -0.20312,0.28125 -0.816,2.193 -3.97877,5 -5.63477,5 -1.89,0 -2.78543,2.464562 -1.39843,3.851562 0.793,0.793 0.78647,1.766157 -0.01954,3.535157 -0.88599,1.944 -0.82059,2.555234 0.31641,2.990234 0.802,0.308 1.32345,0.01794 1.18945,-0.664063 -0.13,-0.667999 0.32372,-1.09989 1.01172,-0.96289 0.688,0.137 1.25,-0.2 1.25,-0.75 0,-0.55 -0.47559,-1 -1.05859,-1 -0.583,0 -0.78613,-0.442469 -0.45313,-0.980469 0.883,-1.43 4.42465,1.039344 3.80664,2.652344 -0.27799,0.723 -0.85515,1.099984 -1.28515,0.833984 -0.43,-0.266 -1.33758,0.183953 -2.01758,1.001953 -0.68,0.82 -0.81669,1.490235 -0.30469,1.490235 0.513,0 1.8041,0.711172 2.8711,1.576172 0.7259,0.588609 1.12006,0.986323 1.09961,1.080078 -3.5e-4,9.97e-4 -0.0015,0.0049 -0.002,0.0059 l -0.002,0.002 -0.002,0.002 c -7.9e-4,6.75e-4 -0.005,0.0033 -0.0059,0.0039 -0.03441,0.01739 -0.1338,-0.01177 -0.30274,-0.0957 -0.754,-0.375 -0.97381,0.121781 -0.63281,1.425781 0.313,1.196 0.02983,2.001953 -0.70117,2.001953 -0.673,0 -0.99294,-0.604797 -0.71094,-1.341797 0.284,-0.737 0.06663,-1.975 -0.48437,-2.75 -0.36563,-0.514219 -0.58341,-0.76645 -0.66016,-0.742187 -0.0024,0.0011 -0.0077,0.0061 -0.0098,0.0078 -0.06237,0.06525 0.03022,0.446656 0.26172,1.160156 0.393,1.21 0.17171,1.683531 -0.65429,1.394532 -0.688,-0.240001 -1.11904,-1.176032 -0.95704,-2.082032 0.17,-0.957 -0.36715,-1.646484 -1.28515,-1.646484 -1.252,0 -1.36592,0.39864 -0.54492,1.93164 1.389,2.596 1.34511,2.753422 -0.96289,3.357422 -2.443,0.638 -3.6938,-1.032953 -1.9668,-2.626953 0.50512,-0.466383 0.78281,-0.681486 0.85352,-0.644531 9.6e-4,6.64e-4 0.005,0.0031 0.0059,0.0039 7.9e-4,8.91e-4 0.0032,0.0049 0.0039,0.0059 0.03362,0.06252 -0.0743,0.303531 -0.31055,0.722656 -0.389,0.687 -0.19426,1.25 0.42774,1.25 1.431,0 0.87251,-3.205938 -0.64649,-3.710938 -0.622,-0.207 -1.42425,0.785032 -1.78125,2.207032 -0.356,1.421 -1.08318,2.314375 -1.61718,1.984375 -2.128,-1.316 -0.79535,2.266875 1.97265,5.296875 h 0.002 c 2.647,2.898 6.01542,4.58364 4.60742,2.30664 -0.31,-0.503 4e-4,-1.179906 0.6914,-1.503906 0.69,-0.325 0.03969,-0.430375 -1.44531,-0.234375 -2.93,0.387 -4.33453,-1.409609 -2.51953,-3.224609 1.652,-1.652 3.53417,-1.373094 5.95117,0.878906 1.523,1.419 1.72899,2.004625 0.70899,2.015625 -1.228,0.013 -1.22085,0.150312 0.03515,0.945312 0.17696,0.111628 0.34774,0.19305 0.51367,0.25 0.6417,-0.729302 1.20958,-1.525918 1.68946,-2.378906 a 2.75,2.75 0 0 0 -0.375,-0.572265 c -0.82,-0.987001 -0.73521,-1.171813 0.34179,-0.757813 0.30327,0.116222 0.54374,0.100414 0.73633,-0.111328 0.15116,-0.360385 0.28896,-0.728349 0.41016,-1.103516 0.21959,-1.212626 0.28978,-3.401452 0.29687,-7.060547 0.015,-8.49 -0.07015,-8.830672 -2.28515,-9.013672 -1.266,-0.104999 -2.30274,0.240579 -2.30274,0.767579 0,0.527 -0.67214,0.698812 -1.49414,0.382812 -2.172,-0.833 -0.80272,-2.363281 2.11328,-2.363281 1.734,0 2.26905,-0.383 1.74805,-1.25 -0.51,-0.85 -0.20859,-0.809953 0.94141,0.123047 1.535,1.246 1.68428,1.015 1.61328,-2.5 -0.033,-1.597 -0.20206,-2.598391 -0.41406,-2.650391 v -0.002 c -0.0066,-0.0016 -0.01287,-0.0022 -0.01954,-0.002 z M 9.0310631,27.0399 c -0.55,0 -1,0.675 -1,1.5 0,0.825 0.45,1.5 1,1.5 0.55,0 0.9999999,-0.675 0.9999999,-1.5 0,-0.825 -0.4499999,-1.5 -0.9999999,-1.5 z m 5.4999999,0 c -0.275,0 -0.5,0.225 -0.5,0.5 0,0.275 0.225,0.5 0.5,0.5 0.275,0 0.5,-0.225 0.5,-0.5 0,-0.275 -0.225,-0.5 -0.5,-0.5 z m 21.33203,1 c -0.999,0 -1.09801,1.400984 -0.16601,2.333984 0.927,0.926 1,0.865016 1,-0.833984 0,-0.825 -0.37599,-1.5 -0.83399,-1.5 z m 2.53125,0.175781 c -0.21549,0.0053 -0.36523,0.308594 -0.36523,0.824219 0,0.733 0.30097,1.032016 0.66797,0.666016 a 0.944,0.944 0 0 0 0,-1.332032 0.5,0.5 0 0 0 -0.25977,-0.15625 v 0.002 c -0.01493,-0.0023 -0.0286,-0.0043 -0.04297,-0.0039 z m 9.53321,2.324219 -0.96875,2.394531 c -0.52566,1.296422 -0.83754,2.408341 -0.70508,2.498047 0.0011,5.83e-4 0.0027,0.0015 0.0039,0.002 0.149,0.058 1.17148,0.641875 2.27148,1.296875 1.1,0.655 2.337,1.217 2.75,1.25 1.331,0.104 0.79756,-1.987969 -0.64844,-2.542969 -0.771,-0.296 -1.69573,-1.51875 -2.05273,-2.71875 z m -40.3632799,1.5 c 0.008,-8.68e-4 0.01587,0 0.02343,0 0.243,0 0.44141,0.45 0.44141,1 0,0.55 -0.47559,1 -1.05859,1 -0.583,0 -0.78141,-0.45 -0.44141,-1 0.32937,-0.532813 0.7869,-0.973085 1.03516,-1 z m 10.9648399,0 c 0.275,0 0.5,0.225 0.5,0.5 0,0.275 -0.225,0.5 -0.5,0.5 -0.275,0 -0.5,-0.225 -0.5,-0.5 0,-0.275 0.225,-0.5 0.5,-0.5 z m 15.36719,0 c -0.47931,0.04116 -0.86719,1.349139 -0.86719,2.941406 0,1.618 -0.51367,3.255578 -1.13867,3.642578 -0.701,0.433 -0.03,1.168875 1.75,1.921875 2.392,1.012 3.18676,0.962078 4.63476,-0.294922 1.325,-1.15 1.47596,-1.842234 0.62696,-2.865234 -0.616,-0.741 -0.7261,-1.360906 -0.2461,-1.378906 1.12523,-0.04397 -3.55433,-3.96143 -4.73632,-3.966797 h -0.002 c -0.0076,1.2e-5 -0.01387,-6.53e-4 -0.02148,0 z m 5.63086,1 c -0.275,0 -0.5,0.225 -0.5,0.5 0,0.275 0.225,0.5 0.5,0.5 0.275,0 0.5,-0.225 0.5,-0.5 0,-0.275 -0.225,-0.5 -0.5,-0.5 z m -3.5293,1.21875 c 0.752,-0.035 1.14431,0.919906 1.94531,4.253906 0.128,0.536 -0.24884,1.136984 -0.83984,1.333984 -0.626,0.209001 -0.81613,-0.318671 -0.45313,-1.263671 0.408,-1.065 0.15,-1.524985 -0.75,-1.333985 -1.637,0.346 -1.87,-2.377015 -0.25,-2.916015 a 1.3,1.3 0 0 1 0.34766,-0.07422 z m 20.9707,0.78125 c 0.518,0 1.2186,0.45 1.5586,1 0.34,0.55 -0.08341,1 -0.94141,1 -0.857,0 -1.55859,-0.45 -1.55859,-1 0,-0.55 0.4244,-1 0.9414,-1 z m -11.91992,1.535156 c -0.603,0.012 -1.09986,0.144781 -1.38086,0.425781 -0.717,0.717 -0.51189,1.07511 0.66211,1.16211 0.935,0.068 2.14922,0.237 2.69922,0.375 0.55,0.137 1.47855,0.306 2.06055,0.375 0.583,0.068 0.77468,0.581625 0.42968,1.140625 -0.346,0.56 -0.99912,0.786859 -1.45312,0.505859 -0.455,-0.28 -1.08539,0.163375 -1.40039,0.984375 -0.38267,0.996 0.04706,1.493474 1.28906,1.494141 1.976,0 3.48547,-2.526344 2.48047,-4.152344 -0.806,-1.305 -3.57672,-2.346547 -5.38672,-2.310547 z m -20.53516,0.796875 c -0.28825,0.0081 -0.48242,0.225047 -0.48242,0.607422 0,0.582 0.45,1.058594 1,1.058594 0.55,0 1,-0.199406 1,-0.441407 0,-0.241999 -0.45,-0.719593 -1,-1.058593 a 1.1,1.1 0 0 0 -0.38867,-0.15625 c -0.04475,-0.0075 -0.08773,-0.01092 -0.12891,-0.0098 z m -3.12109,0.84375 c 0.01435,-3.5e-4 0.02999,-3.59e-4 0.04492,0.002 0.08067,0.01133 0.1671,0.0623 0.25977,0.154297 a 0.944,0.944 0 0 1 0,1.332031 c -0.367,0.366 -0.66602,0.06699 -0.66602,-0.666015 0,-0.515625 0.14605,-0.817011 0.36133,-0.822266 z m -7.86133,0.822266 c 0.275,0 0.5,0.226 0.5,0.5 0,0.274 -0.225,0.5 -0.5,0.5 a 0.5,0.5 0 0 1 0,-1 z m 40.9961,2 a 0.5,0.5 0 1 0 0.5,0.5 c 0,-0.274 -0.225,-0.5 -0.5,-0.5 z m -20.99805,1 a 0.5,0.5 0 1 1 -0.5,0.5 c 0,-0.274 0.225,-0.5 0.5,-0.5 z m 23.99805,1 a 0.5,0.5 0 1 1 -0.002,0.998047 0.5,0.5 0 0 1 0.002,-0.998047 z m -19.77539,0.472656 a 0.67,0.67 0 0 1 0.39648,0.101563 c 0.502,0.31 0.65489,0.98214 0.33789,1.49414 -0.94,1.521 -2.44426,1.0585 -1.82226,-0.5625 0.237,-0.616 0.67389,-1.007203 1.08789,-1.033203 z m -20.22266,0.527344 c -0.275,0 -0.5,0.225 -0.5,0.5 0,0.275 0.225,0.5 0.5,0.5 0.275,0 0.5,-0.225 0.5,-0.5 0,-0.275 -0.225,-0.5 -0.5,-0.5 z m 3.54883,1.503906 c 0.47333,-0.02867 0.57097,0.320875 0.29297,1.046875 -0.306,0.797 -0.95722,1.449219 -1.44922,1.449219 -1.437,0 -1.02436,-1.734797 0.55664,-2.341797 a 2.1,2.1 0 0 1 0.59961,-0.154297 z m 7.91992,0.08789 a 1.6,1.6 0 0 0 -0.63672,0.109375 c -1.115,0.428 -1.18906,0.770172 -0.28906,1.326171 0.67,0.413 0.86931,1.304282 0.44531,1.988282 -0.578,0.936 -0.98973,0.839328 -1.67773,-0.388672 -0.5,-0.896 -1.40763,-1.626953 -2.01563,-1.626953 -0.608,0 -0.30226,0.884797 0.67774,1.966797 1.372,1.517 2.20834,1.737843 3.65234,0.964843 2.09,-1.119 2.10802,-1.160109 1.29102,-3.287109 a 1.605,1.605 0 0 0 -1.44532,-1.052734 z m 8.54688,1.732422 c 0.2894,-0.0023 0.48242,0.19614 0.48242,0.55664 0,0.55 -0.45,1.279141 -1,1.619141 -0.55,0.34 -0.99805,0.167187 -0.99805,-0.382813 0,-0.55 0.44805,-1.278187 0.99805,-1.617187 0.13732,-0.08492 0.26785,-0.138588 0.38867,-0.16211 h 0.002 c 0.04431,-0.0084 0.08621,-0.01335 0.12696,-0.01367 z m -5.01563,0.675781 c -0.275,0 -0.5,0.225 -0.5,0.5 0,0.275 0.225,0.5 0.5,0.5 0.275,0 0.5,-0.225 0.5,-0.5 0,-0.275 -0.225,-0.5 -0.5,-0.5 z m 7.56055,1 c 0.582,0 0.77845,0.45 0.43945,1 -0.34,0.55 -0.81755,1 -1.06055,1 -0.243,0 -0.43945,-0.45 -0.43945,-1 0,-0.55 0.47755,-1 1.06055,-1 z m 7.5,0 c 0.242,0 0.43945,0.45 0.43945,1 0,0.55 -0.47755,1 -1.06055,1 -0.582,0 -0.77945,-0.45 -0.43945,-1 0.34,-0.55 0.81755,-1 1.06055,-1 z m -26.06055,1 c -0.274,0 -0.5,0.225 -0.5,0.5 0,0.275 0.226,0.5 0.5,0.5 0.274,0 0.5,-0.225 0.5,-0.5 0,-0.275 -0.224,-0.5 -0.5,-0.5 z m -3.13477,0.177734 c 0.01437,-3.5e-4 0.02804,-3.59e-4 0.04297,0.002 h 0.002 c 0.07933,0.01 0.16386,0.06101 0.25586,0.152344 a 0.946,0.946 0 0 1 0,1.333984 c -0.367,0.366 -0.66602,0.06699 -0.66602,-0.666015 0,-0.515625 0.14974,-0.817011 0.36523,-0.822266 z m 32.69532,0.822266 c -0.51796,2.89e-4 -1.22166,0.450177 -1.56055,1 -0.34,0.55 0.08441,1 0.94141,1 0.857,0 1.55859,-0.45 1.55859,-1 0,-0.549823 -0.42168,-0.999711 -0.93945,-1 z m -16.44141,1 c -0.275,0 -0.77719,0.45 -1.11719,1 -0.34,0.55 -0.39509,1 -0.12109,1 0.274,0 0.78109,-0.45 1.12109,-1 0.34,-0.55 0.39219,-1 0.11719,-1 z m 3.22266,3.164062 c 0.02982,-1.42e-4 0.06276,0.002 0.0957,0.0059 0.076,0.0087 0.15933,0.02859 0.25,0.05859 0.654,0.218 1.36598,0.930985 1.58398,1.583985 0.6,1.8 -1.46606,1.420515 -2.16406,-0.396485 -0.30656,-0.799687 -0.21294,-1.249818 0.23438,-1.251953 z m 17.15625,0.894531 a 0.94,0.94 0 0 0 -0.66602,0.273392 c -0.29755,0.297554 -0.15465,0.553608 0.30274,0.638672 0.30566,-0.240422 0.60052,-0.493156 0.88476,-0.757813 a 0.94,0.94 0 0 0 -0.52148,-0.154297 z m -36.49805,0.941407 c 0.275,0 0.5,0.225 0.5,0.5 0,0.275 -0.225,0.5 -0.5,0.5 -0.275,0 -0.5,-0.225 -0.5,-0.5 0,-0.275 0.225,-0.5 0.5,-0.5 z"
     style="opacity:0.05" />
  <path
     fill="url(#b)"
     d="M25 4v56h14V4z"
     id="path7" />
  <rect
     width="1"
     height="56"
     x="31.5"
     y="4"
     opacity=".2"
     rx="0"
     ry="0"
     id="rect7" />
  <path
     d="M13 44v2c0 3.324 2.676 6 6 6h26c3.324 0 6-2.676 6-6v-2c0 3.324-2.676 6-6 6H19c-3.324 0-6-2.676-6-6"
     filter="url(#c)"
     opacity=".1"
     id="path8" />
  <rect
     width="38"
     height="38"
     x="13"
     y="13"
     fill="#fff"
     opacity=".9"
     rx="6"
     ry="6"
     id="rect8"
     style="stroke:#ffffff;stroke-opacity:1;stroke-width:0.5;stroke-dasharray:none;opacity:1;fill:#fafafa;fill-opacity:0.85000002;filter:url(#filter1)" />
  <rect
     width="12"
     height="1"
     x="18"
     y="20"
     rx="0"
     ry="0"
     id="rect9"
     style="fill:#cbc5b9;stroke-linecap:round;stroke-linejoin:round" />
  <rect
     width="8"
     height="1"
     x="18"
     y="22"
     rx="0"
     ry="0"
     id="rect10"
     style="fill:#cbc5b9;stroke-linecap:round;stroke-linejoin:round" />
  <rect
     width="10"
     height="1"
     x="18"
     y="24"
     rx="0"
     ry="0"
     id="rect11"
     style="fill:#cbc5b9;stroke-linecap:round;stroke-linejoin:round" />
  <path
     d="M18 27.105h5.33v1.127h-1.917v4.656H19.92v-4.656H18zm8.742.976q-.682 0-1.058.504t-.375 1.417q0 .91.375 1.414.376.504 1.058.504.686 0 1.061-.504.376-.504.376-1.414 0-.914-.376-1.417-.375-.504-1.061-.504m0-1.08q1.394 0 2.185.797t.79 2.204q0 1.402-.79 2.2T26.742 33q-1.39 0-2.185-.798-.79-.798-.79-2.2 0-1.406.79-2.204.794-.798 2.185-.798zm4.261 1.548h1.398v1.499h-1.398zm0 2.84h1.398v1.498h-1.398z"
     aria-label="TO:"
     id="path11" />
  <rect
     width="23"
     height="1"
     x="18"
     y="35"
     fill="#cbc5b9"
     rx="0"
     ry="0"
     id="rect12" />
  <rect
     width="17"
     height="1"
     x="18"
     y="37"
     fill="#cbc5b9"
     rx="0"
     ry="0"
     id="rect13" />
  <path
     d="M18 40h1v5h-1zm2 0h1v5h-1zm2 0h3v5h-3zm4 0h1v5h-1zm4 0h1v5h-1zm2 0h4v5h-4zm5 0h2v5h-2zm3 0h1v5h-1zm3 0h1v5h-1zm2 0h1v5h-1z"
     id="path13" />
  <g
     id="highlight">
    <path
       id="rect1"
       d="m 17.999999,3.9999986 c -7.756,0 -14.0000004,6.2440004 -14.0000004,14.0000004 v 28 c 0,7.756 6.2440004,14 14.0000004,14 h 28 c 7.756,0 14,-6.244 14,-14 v -28 c 0,-7.756 -6.244,-14.0000004 -14,-14.0000004 z m 0,1 h 28 c 7.202,0 13,5.7980004 13,13.0000004 v 28 c 0,7.202 -5.798,13 -13,13 h -28 c -7.202,0 -13.0000004,-5.798 -13.0000004,-13 v -28 c 0,-7.202 5.7980004,-13.0000004 13.0000004,-13.0000004 z"
       style="opacity:0.15;mix-blend-mode:normal;fill:url(#linearGradient8);filter:url(#filter8)" />
    <path
       id="rect4"
       style="fill:url(#linearGradient6);stroke-width:0.557214;stroke-linecap:square;opacity:0.5;filter:url(#filter9)"
       d="M 18,4 C 10.244,4 4,10.244 4,18 v 28 c 0,7.756 6.244,14 14,14 h 28 c 7.756,0 14,-6.244 14,-14 V 18 C 60,10.244 53.756,4 46,4 Z m 0,0.5 h 28 c 7.479,0 13.5,6.021 13.5,13.5 v 28 c 0,7.479 -6.021,13.5 -13.5,13.5 H 18 C 10.521,59.5 4.5,53.479 4.5,46 V 18 C 4.5,10.521 10.521,4.5 18,4.5 Z" />
  </g>
</svg>
