<svg width="64" height="64" version="1.1" viewBox="0 0 16.933 16.933" xmlns="http://www.w3.org/2000/svg" xmlns:xlink="http://www.w3.org/1999/xlink">
 <defs>
  <clipPath id="clipPath23">
   <path d="m5.3603 1.0583c-1.5298 0-2.5775 0.45631-3.2597 1.1999-0.67868 0.73981-1.0423 1.8002-1.0423 3.0008v6.4155c0 1.2006 0.36356 2.2605 1.0423 3.0003 0.68219 0.74355 1.7299 1.1999 3.2597 1.1999h6.2305c1.0092 0 1.8087-0.19865 2.4318-0.54724v-13.722c-0.62311-0.34859-1.4227-0.54724-2.4318-0.54724h-4.8456z" fill="url(#linearGradient15)" opacity=".75"/>
  </clipPath>
  <linearGradient id="linearGradient15" x1="8.4665" x2="8.4665" y1="1.0583" y2="15.875" gradientUnits="userSpaceOnUse" xlink:href="#linearGradient3"/>
  <linearGradient id="linearGradient3" x1="8.4665" x2="8.4665" y1="1.0583" y2="15.875" gradientUnits="userSpaceOnUse">
   <stop stop-color="#d7d7c9" offset="0"/>
   <stop stop-color="#cecec1" offset="1"/>
  </linearGradient>
  <filter id="filter21" x="-.29546" y="-.10553" width="1.5909" height="1.2111" color-interpolation-filters="sRGB">
   <feGaussianBlur stdDeviation="0.65151679"/>
  </filter>
  <linearGradient id="linearGradient9-5" x1="14.023" x2="10.848" y1="2.9104" y2="2.9104" gradientTransform="matrix(1 0 0 .97368 -.00029949 1.8313)" gradientUnits="userSpaceOnUse">
   <stop stop-color="#56c4fc" offset="0"/>
   <stop stop-color="#56c4fc" stop-opacity="0" offset="1"/>
  </linearGradient>
  <linearGradient id="linearGradient12" x1="14.023" x2="10.848" y1="6.6145" y2="6.6145" gradientTransform="translate(-2.9966e-4,2.3814)" gradientUnits="userSpaceOnUse">
   <stop stop-color="#fa9e27" offset="0"/>
   <stop stop-color="#fa9e27" stop-opacity="0" offset="1"/>
  </linearGradient>
  <linearGradient id="linearGradient14" x1="14.023" x2="10.848" y1="17.198" y2="17.198" gradientTransform="matrix(1 0 0 .97368 -.00030005 -4.6059)" gradientUnits="userSpaceOnUse">
   <stop stop-color="#63d776" offset="0"/>
   <stop stop-color="#63d776" stop-opacity="0" offset="1"/>
  </linearGradient>
  <linearGradient id="linearGradient26" x1="1.0583" x2="15.73" y1="8.4665" y2="8.4665" gradientUnits="userSpaceOnUse">
   <stop stop-color="#ffffff" offset="0"/>
   <stop stop-color="#ffffff" stop-opacity=".74997" offset="1"/>
  </linearGradient>
  <filter id="filter26" x="-.012" y="-.012" width="1.024" height="1.024" color-interpolation-filters="sRGB">
   <feGaussianBlur stdDeviation="0.074082"/>
  </filter>
  <linearGradient id="linearGradient27" x1="14.023" x2="10.848" y1="2.9104" y2="2.9104" gradientTransform="matrix(1 0 0 .97368 -.00029949 1.8313)" gradientUnits="userSpaceOnUse" xlink:href="#linearGradient9-5"/>
  <linearGradient id="linearGradient29" x1="14.023" x2="10.848" y1="6.6145" y2="6.6145" gradientTransform="translate(-2.9966e-4,2.3814)" gradientUnits="userSpaceOnUse" xlink:href="#linearGradient12"/>
  <linearGradient id="linearGradient31" x1="14.023" x2="10.848" y1="17.198" y2="17.198" gradientTransform="matrix(1 0 0 .97368 -.00030005 -4.6059)" gradientUnits="userSpaceOnUse" xlink:href="#linearGradient14"/>
  <linearGradient id="linearGradient17" x1="8.4665" x2="8.4665" y1="1.0583" y2="15.875" gradientTransform="translate(-25.01)" gradientUnits="userSpaceOnUse">
   <stop stop-color="#cee3ea" offset="0"/>
   <stop stop-color="#797a79" offset="1"/>
  </linearGradient>
 </defs>
 <path d="m5.3603 1.0584c-1.5298 0-2.5777 0.45621-3.2599 1.1998-0.67868 0.73981-1.0421 1.8001-1.0421 3.0007v6.4154c0 1.2006 0.36337 2.2609 1.0421 3.0007 0.68219 0.74355 1.7301 1.1998 3.2599 1.1998h6.2306c1.5298 0 2.5777-0.45622 3.2599-1.1998 0.67868-0.73981 1.024-1.7026 1.024-3.0007v-6.1745c0-1.5703-0.34527-2.5019-1.024-3.2417-0.68219-0.74355-1.7301-1.1998-3.2599-1.1998h-4.8457z" fill="url(#linearGradient15)"/>
 <path d="m10.583 1.0583v4.8947h5.2921v-0.45319c0-0.026736 2.01e-4 -0.053212 0-0.07958-0.01155-1.5223-0.35652-2.4348-1.0237-3.162-0.67394-0.73455-1.7051-1.189-3.2049-1.1999h-1.0635z" fill="url(#linearGradient27)"/>
 <rect x="10.583" y="5.9532" width="5.2917" height="5.027" rx="0" ry="0" fill="url(#linearGradient29)"/>
 <path d="m10.583 10.98v4.8947h1.0759c1.4931-0.01328 2.5204-0.46734 3.1925-1.1999 0.66712-0.72722 1.0121-1.6698 1.0237-2.9346 2.01e-4 -0.02191 0-0.04353 0-0.06563v-0.69452h-5.2921z" fill="url(#linearGradient31)"/>
 <path d="m5.3603 1.0583c-1.5298 0-2.5775 0.45631-3.2597 1.1999-0.67868 0.73981-1.0423 1.8002-1.0423 3.0008v6.4155c0 1.2006 0.36356 2.2605 1.0423 3.0003 0.68219 0.74355 1.7299 1.1999 3.2597 1.1999h6.2305c1.0092 0 1.8087-0.19865 2.4318-0.54724v-13.722c-0.62311-0.34859-1.4227-0.54724-2.4318-0.54724h-4.8456z" fill="url(#linearGradient17)"/>
 <path d="m5.3603 1.0583c-1.5298 0-2.5775 0.45637-3.2597 1.1999-0.67868 0.73981-1.0423 1.8002-1.0423 3.0008v6.415c0 1.2006 0.36361 2.2609 1.0423 3.0008 0.68219 0.74355 1.7299 1.1999 3.2597 1.1999h6.2305c1.5298 0 2.5775-0.45637 3.2597-1.1999 0.67868-0.73981 1.0242-1.7027 1.0242-3.0008v-6.1742c0-1.5703-0.34552-2.5018-1.0242-3.2416-0.68219-0.74355-1.7299-1.1999-3.2597-1.1999h-4.8456zm-0.00103 0.26406h6.2326c1.4772 0 2.437 0.43133 3.0644 1.1152 0.63411 0.69126 0.95341 1.5307 0.95341 3.0623v6.1742c0 1.2512-0.32181 2.1335-0.95341 2.822-0.6274 0.68381-1.5871 1.1136-3.0644 1.1136h-6.2326c-1.4772 0-2.437-0.42978-3.0644-1.1136-0.62537-0.68172-0.97253-1.6747-0.97253-2.822v-6.4145c0-1.1472 0.34717-2.1403 0.97253-2.822 0.6274-0.68381 1.5871-1.1152 3.0644-1.1152z" fill="url(#linearGradient26)" filter="url(#filter26)" opacity=".65"/>
 <g clip-path="url(#clipPath23)" filter="url(#filter21)" opacity=".35">
  <path d="m10.583 1.0583v4.8947h5.2921v-0.45319c0-0.026736 2.01e-4 -0.053212 0-0.07958-0.01155-1.5223-0.35652-2.4348-1.0237-3.162-0.67394-0.73455-1.7051-1.189-3.2049-1.1999h-1.0635z" fill="url(#linearGradient27)" opacity="1"/>
  <rect x="10.583" y="5.9532" width="5.2917" height="5.027" rx="0" ry="0" fill="url(#linearGradient29)" opacity="1"/>
  <path d="m10.583 10.98v4.8947h1.0759c1.4931-0.01328 2.5204-0.46734 3.1925-1.1999 0.66712-0.72722 1.0121-1.6698 1.0237-2.9346 2.01e-4 -0.02191 0-0.04353 0-0.06563v-0.69452h-5.2921z" fill="url(#linearGradient31)" opacity="1"/>
 </g>
 <path d="m9.627 12.684a0.97 0.97 0 0 1-0.565-0.313c-0.32-0.346-0.43-0.877-0.307-1.485 0.044-0.216 0.103-0.38 0.211-0.589 0.113-0.217 0.224-0.363 0.412-0.541 0.228-0.216 0.49-0.361 0.797-0.444 0.17-0.046 0.645-0.047 0.808-3e-3 0.454 0.125 0.778 0.397 0.7 0.587q-0.044 0.107-0.16 0.105c-0.053 0-0.089-0.019-0.193-0.102a1.1 1.1 0 0 0-0.406-0.228c-0.515-0.157-1.1 0.054-1.456 0.526-0.38 0.502-0.488 1.215-0.258 1.7 0.063 0.133 0.21 0.295 0.323 0.356 0.388 0.212 0.902-0.025 1.167-0.536a1.6 1.6 0 0 0 0.19-0.565c0.07-0.35 0.184-0.805 0.22-0.876 0.037-0.075 0.083-0.104 0.165-0.104a0.16 0.16 0 0 1 0.162 0.113c0.022 0.067 0.017 0.092-0.111 0.63-0.248 1.036-0.16 1.41 0.325 1.383a0.54 0.54 0 0 0 0.255-0.063c0.128-0.064 0.207-0.07 0.26-0.02 0.07 0.065 0.072 0.162 6e-3 0.246-0.047 0.06-0.213 0.145-0.35 0.18-0.154 0.04-0.423 0.029-0.56-0.024a0.65 0.65 0 0 1-0.398-0.43l-0.03-0.098-0.056 0.076c-0.213 0.29-0.469 0.454-0.796 0.51a0.8 0.8 0 0 1-0.355 8e-3zm-5.84-0.292v-0.242l0.108-0.012a2 2 0 0 1 0.182-0.011c0.074 0 0.075-1e-3 0.109-0.092l0.473-1.224 0.52-1.347 0.081-0.213 0.728 0.01 0.284 0.731 0.553 1.43c0.165 0.428 0.278 0.698 0.293 0.7s0.1 9e-3 0.194 0.015l0.17 0.012v0.485h-1.673v-0.483l0.134-0.012a3 3 0 0 1 0.2-0.012c0.037 0 0.067-3e-3 0.067-7e-3 0-7e-3 -0.161-0.466-0.183-0.52-0.011-0.028-0.055-0.03-0.566-0.03s-0.555 3e-3 -0.566 0.03l-0.088 0.248-0.088 0.249c-0.01 0.027 2e-3 0.03 0.1 0.03 0.06 0 0.163 5e-3 0.228 0.012l0.117 0.012v0.483h-1.376zm2.075-1.249c0-0.018-0.388-1.08-0.399-1.092-6e-3 -7e-3 -0.096 0.228-0.201 0.523l-0.198 0.556c-6e-3 0.017 0.08 0.022 0.395 0.022 0.221 0 0.403-3e-3 0.403-0.01zm-1.655-3.577 1.084-2.945 0.143-0.388 0.413 0.01 0.452 1.228c0.539 1.465 0.782 2.128 0.782 2.137 0 3e-3 -0.098 7e-3 -0.216 7e-3h-0.216l-0.09-0.257c-0.05-0.141-0.127-0.36-0.17-0.488l-0.08-0.231-1.343 0.01-0.167 0.483-0.167 0.484h-0.443l0.018-0.048zm1.96-1.318a58 58 0 0 0-0.522-1.486q-0.01-0.012-0.017-3e-3c-3e-3 3e-3 -0.121 0.34-0.263 0.748l-0.267 0.762c-6e-3 0.017 0.108 0.022 0.536 0.022h0.544zm2.5 1.265v-0.102l0.103-0.029c0.14-0.038 0.22-0.112 0.29-0.264 0.03-0.067 0.28-0.744 0.557-1.503l0.5-1.381h0.632l0.494 1.372c0.272 0.755 0.525 1.436 0.562 1.514 0.079 0.167 0.139 0.223 0.279 0.262l0.102 0.029v0.203h-1.603v-0.205l0.088-0.019c0.19-0.04 0.254-0.107 0.238-0.244a3 3 0 0 0-0.104-0.37l-0.093-0.285-1.115-0.01-0.092 0.292c-0.051 0.16-0.097 0.333-0.102 0.383-9e-3 0.083-5e-3 0.095 0.042 0.142 0.047 0.048 0.105 0.071 0.236 0.098 0.046 0.01 0.048 0.015 0.048 0.114v0.104h-1.062zm1.947-1.28-0.231-0.688a19 19 0 0 0-0.23-0.661 75 75 0 0 0-0.459 1.36c0 7e-3 0.21 0.011 0.464 0.011 0.364 0 0.462-5e-3 0.456-0.021z" fill="#343434"/>
</svg>
