<svg width="64" height="64" version="1.1" xmlns="http://www.w3.org/2000/svg" xmlns:xlink="http://www.w3.org/1999/xlink">
 <defs>
  <linearGradient id="linearGradient26">
   <stop stop-color="#1496ff" offset="0"/>
   <stop stop-color="#1f8dff" offset="1"/>
  </linearGradient>
  <linearGradient id="linearGradient25" x1="24.944" x2="24.944" y1="23.25" y2="52.75" gradientUnits="userSpaceOnUse">
   <stop stop-color="#f8f8f9" offset="0"/>
   <stop stop-color="#ededed" offset="1"/>
  </linearGradient>
  <linearGradient id="linearGradient27" x1="24.944" x2="24.944" y1="25.5" y2="50.5" gradientUnits="userSpaceOnUse" xlink:href="#linearGradient26"/>
  <linearGradient id="linearGradient31" x1="16" x2="34" y1="29" y2="47" gradientUnits="userSpaceOnUse">
   <stop stop-color="#62deff" offset="0"/>
   <stop stop-color="#ffffff" stop-opacity=".1" offset="1"/>
  </linearGradient>
  <linearGradient id="linearGradient32" x1="24.944" x2="24.944" y1="25.5" y2="50.5" gradientTransform="translate(.55588 .5)" gradientUnits="userSpaceOnUse" xlink:href="#linearGradient26"/>
  <filter id="filter32" x="-.108" y="-.108" width="1.216" height="1.216" color-interpolation-filters="sRGB">
   <feGaussianBlur stdDeviation="1.125"/>
  </filter>
  <linearGradient id="linearGradient39" x1="22" x2="31" y1="35" y2="45" gradientUnits="userSpaceOnUse">
   <stop stop-color="#ffffff" offset="0"/>
   <stop stop-color="#ffffff" stop-opacity=".35" offset="1"/>
  </linearGradient>
  <linearGradient id="linearGradient41" x1="24.943" x2="24.943" y1="23.25" y2="52.75" gradientUnits="userSpaceOnUse">
   <stop stop-color="#ffffff" stop-opacity=".75" offset="0"/>
   <stop stop-color="#ffffff" stop-opacity=".25" offset="1"/>
  </linearGradient>
  <filter id="filter42" x="-.147" y="-.147" width="1.294" height="1.294" color-interpolation-filters="sRGB">
   <feGaussianBlur stdDeviation="1.806875"/>
  </filter>
  <filter id="filter9" x="-.012" y="-.012" width="1.024" height="1.024" color-interpolation-filters="sRGB">
   <feGaussianBlur stdDeviation="0.074082"/>
  </filter>
  <linearGradient id="linearGradient3" x1="8.4665" x2="8.4665" y1="1.0583" y2="15.875" gradientTransform="scale(3.7796)" gradientUnits="userSpaceOnUse">
   <stop stop-color="#ffffff" offset="0"/>
   <stop stop-color="#ececec" offset="1"/>
  </linearGradient>
  <linearGradient id="linearGradient29" x1="25" x2="25" y1="4" y2="27" gradientUnits="userSpaceOnUse">
   <stop stop-color="#0b8cff" offset="0"/>
   <stop stop-color="#0884ff" offset="1"/>
  </linearGradient>
  <linearGradient id="linearGradient36" x1="47" x2="47" y1="4" y2="46.562" gradientUnits="userSpaceOnUse">
   <stop stop-color="#44de5d" offset="0"/>
   <stop stop-color="#47df60" offset="1"/>
  </linearGradient>
  <linearGradient id="linearGradient48" x1="8" x2="16" y1="11.512" y2="11" gradientUnits="userSpaceOnUse">
   <stop stop-color="#7cfb92" offset="0"/>
   <stop stop-color="#7cfb92" stop-opacity=".35" offset="1"/>
  </linearGradient>
  <filter id="filter57" x="-.048" y="-.048" width="1.096" height="1.096" color-interpolation-filters="sRGB">
   <feGaussianBlur stdDeviation="0.38"/>
  </filter>
 </defs>
 <path d="m20.26 4.0003c-5.782 0-9.7427 1.7243-12.321 4.5348-2.5651 2.7962-3.9387 6.8037-3.9387 11.341v24.248c0 4.5378 1.3734 8.5453 3.9387 11.341 2.5784 2.8103 6.5391 4.5348 12.321 4.5348h23.549c5.782 0 9.7427-1.7243 12.321-4.5348 2.5651-2.7962 3.8703-6.4352 3.8703-11.341v-23.337c0-5.9351-1.305-9.4562-3.8703-12.252-2.5784-2.8103-6.5391-4.5348-12.321-4.5348h-18.315z" fill="url(#linearGradient3)" stroke-width="3.7796"/>
 <rect x="19" y="4" width="12" height="23" fill="url(#linearGradient29)" stroke-linecap="round" stroke-linejoin="round" stroke-width=".6"/>
 <rect x="30" y="4" width=".5" height="23" fill="#48c0ff" opacity=".25" stroke-linecap="round" stroke-linejoin="round" stroke-width=".12247"/>
 <rect x="19.5" y="4" width=".5" height="23" fill="#48c0ff" stroke-linecap="round" stroke-linejoin="round" stroke-width=".12247"/>
 <path d="m33 4v24l26.883 18.562c0.078068-0.77592 0.11719-1.5877 0.11719-2.4375v-23.338c0-5.9351-1.3038-9.4558-3.8691-12.252-2.5706-2.8018-6.5159-4.5248-12.27-4.5352h-0.05273z" fill="url(#linearGradient36)" stroke-linecap="round" stroke-linejoin="round" stroke-width=".6"/>
 <path d="m33.498 45.5a0.50005 0.50005 0 0 0-0.26172 0.058594 0.50005 0.50005 0 0 0-0.26562 0.44141v14h10.838c3.4751 0 6.2923-0.62331 8.5469-1.7305l-18.604-12.684a0.50005 0.50005 0 0 0-0.25391-0.085938z" fill="#ffce05" stop-color="#000000" stroke-linecap="round" stroke-linejoin="round"/>
 <path d="m33.5 4.5v23.318l25.926 17.831c0.01206-0.19394 0.02663-0.38642 0.03906-0.58008l-0.49609-0.33594v2e-3l-24.969-17.182v-23.052z" fill="#62f27a" stop-color="#000000" stroke-linecap="round" stroke-linejoin="round"/>
 <path d="m4 24v20.125c0 4.5019 1.3526 8.4804 3.8789 11.273 0.020152 0.022279 0.040245 0.044277 0.060547 0.066406 0.28974 0.3158 0.59661 0.61878 0.92188 0.90625 0.97574 0.86255 2.1138 1.5928 3.4316 2.168 0.43934 0.19161 0.89905 0.36546 1.3789 0.52148 0.9597 0.31206 2.0016 0.55206 3.1309 0.71094 0.56462 0.079439 1.1509 0.13931 1.7598 0.17774v-25.949l-14.562-10z" fill="#ff82ca"/>
 <path d="m33.471 46v14h0.5v-13.053l17.305 11.799c0.18751-0.073693 0.37206-0.15082 0.55273-0.23047l-18.357-12.516z" fill="#fff64d" stop-color="#000000" stroke-linecap="round" stroke-linejoin="round"/>
 <circle cx="25.95" cy="39" r="14.75" fill="#000000" filter="url(#filter42)" opacity=".15" stroke-linecap="round" stroke-linejoin="round" stroke-width=".64184"/>
 <circle cx="24.944" cy="38" r="14.75" fill="url(#linearGradient25)" stroke-linecap="round" stroke-linejoin="round" stroke-width=".64184"/>
 <circle cx="25.5" cy="38.5" r="12.5" fill="url(#linearGradient32)" filter="url(#filter32)" opacity=".35" stroke-linecap="round" stroke-linejoin="round" stroke-width=".54393"/>
 <circle cx="24.944" cy="38" r="12.5" fill="url(#linearGradient27)" stroke-linecap="round" stroke-linejoin="round" stroke-width=".54393"/>
 <path d="m24.943 26a12 12 0 0 0-12 12 12 12 0 0 0 12 12 12 12 0 0 0 12-12 12 12 0 0 0-12-12zm0 0.5a11.5 11.5 0 0 1 11.5 11.5 11.5 11.5 0 0 1-11.5 11.5 11.5 11.5 0 0 1-11.5-11.5 11.5 11.5 0 0 1 11.5-11.5z" fill="url(#linearGradient31)" stroke-linecap="round" stroke-linejoin="round" stroke-width=".52217"/>
 <path d="m24.932 29a1.0001 1.0001 0 0 0-0.92578 0.625l-5.7637 14.244a1.0001 1.0001 0 0 0 1.6426 1.0742l5.0508-5.1719 5.0684 5.1719a1.0001 1.0001 0 0 0 1.6406-1.0762l-5.7852-14.244a1.0001 1.0001 0 0 0-0.92773-0.62305z" fill="#d6e1ec" stop-color="#000000" stroke-linecap="round" stroke-linejoin="round"/>
 <path d="m24.932 29a1.0001 1.0001 0 0 0-0.92578 0.625l-5.7637 14.244a1.0001 1.0001 0 0 0 1.6426 1.0742l5.0508-5.1719 5.0684 5.1719a1.0001 1.0001 0 0 0 1.6406-1.0762l-5.7852-14.244a1.0001 1.0001 0 0 0-0.92773-0.62305zm0.001953 0.80078c0.08385-1.2e-4 0.15393 0.04538 0.18555 0.12305l5.7852 14.244h-0.001953c0.06786 0.16744 0.017561 0.18199-0.074219 0.24219-0.09108 0.05974-0.12775 0.098047-0.25195-0.027344l-5.0684-5.1719a0.80008 0.80008 0 0 0-1.1445 0.001953l-5.0508 5.1719c-0.12655 0.12967-0.16187 0.087533-0.25391 0.027343-0.09204-0.06019-0.14228-0.07427-0.074219-0.24219l5.7637-14.244c0.03143-0.07768 0.10174-0.12489 0.18555-0.125z" fill="url(#linearGradient39)" stop-color="#000000" stroke-linecap="round" stroke-linejoin="round"/>
 <path d="m24.943 23.25a14.75 14.75 0 0 0-14.75 14.75 14.75 14.75 0 0 0 14.75 14.75 14.75 14.75 0 0 0 14.75-14.75 14.75 14.75 0 0 0-14.75-14.75zm0 1c7.6058 0 13.75 6.1442 13.75 13.75s-6.1442 13.75-13.75 13.75-13.75-6.1442-13.75-13.75 6.1442-13.75 13.75-13.75z" fill="url(#linearGradient41)" stop-color="#000000" stroke-linecap="round" stroke-linejoin="round"/>
 <path d="m16.5 4.2754c-3.7974 0.59075-6.5845 2.1059-8.5605 4.2598-0.61418 0.6695-1.1617 1.408-1.6367 2.207l7.8379 5.4863a1.5002 1.5002 0 0 0 2.3594-1.2285v-10.725z" fill="#40db5a" stop-color="#000000" stroke-linecap="round" stroke-linejoin="round"/>
 <path d="m16 5.457-0.5 0.17773v9.3652c-1.93e-4 0.24275-0.11113 0.38163-0.25977 0.45898-0.14863 0.07736-0.32636 0.08829-0.52539-0.05078l-6.998-4.8984-0.35156 0.36328 7.0625 4.9453c0.68658 0.47973 1.5716 0.019216 1.5723-0.81836z" fill="url(#linearGradient48)" stop-color="#000000" stroke-linecap="round" stroke-linejoin="round"/>
 <path d="m38 4a22 22 0 0 0 22 22v-5.2129c0-1.8049-0.12121-3.3871-0.36133-4.793a12 12 0 0 1-11.633-11.646c-1.2779-0.22745-2.6748-0.34766-4.1973-0.34766h-5.8086z" fill="#ffffff" opacity=".5"/>
 <path d="m41 4a19 19 0 0 0 19 19v-4a15 15 0 0 1-15-15h-4z" fill="#e0ffe7" filter="url(#filter57)"/>
 <path transform="scale(3.7796)" d="m5.3603 1.0583c-1.5298 0-2.5775 0.45637-3.2597 1.1999-0.67868 0.73981-1.0423 1.8002-1.0423 3.0008v6.415c0 1.2006 0.36361 2.2609 1.0423 3.0008 0.68219 0.74355 1.7299 1.1999 3.2597 1.1999h6.2305c1.5298 0 2.5775-0.45637 3.2597-1.1999 0.67868-0.73981 1.0242-1.7027 1.0242-3.0008v-6.1742c0-1.5703-0.34552-2.5018-1.0242-3.2416-0.68219-0.74355-1.7299-1.1999-3.2597-1.1999h-4.8456zm-0.00103 0.26406h6.2326c1.4772 0 2.437 0.43133 3.0644 1.1152 0.63411 0.69126 0.95341 1.5307 0.95341 3.0623v6.1742c0 1.2512-0.32181 2.1335-0.95341 2.822-0.6274 0.68381-1.5871 1.1136-3.0644 1.1136h-6.2326c-1.4772 0-2.437-0.42978-3.0644-1.1136-0.62537-0.68172-0.97253-1.6747-0.97253-2.822v-6.4145c0-1.1472 0.34717-2.1403 0.97253-2.822 0.6274-0.68381 1.5871-1.1152 3.0644-1.1152z" fill="#ffffff" filter="url(#filter9)" style="mix-blend-mode:overlay"/>
 <path d="m38 4a22 22 0 0 0 22 22v-1a21 21 0 0 1-21-21z" fill="#ffffff" opacity=".35" style="mix-blend-mode:normal"/>
 <path d="m42.639 4c1.6324 0 3.1298 0.12917 4.5 0.37305a12.867 12.867 0 0 0 12.475 12.488c0.25747 1.5075 0.38672 3.2034 0.38672 5.1387v-1.2129c0-1.8049-0.12121-3.3871-0.36133-4.793a12 12 0 0 1-11.633-11.646c-1.2779-0.22745-2.6748-0.34766-4.1973-0.34766h-1.1699z" fill="#ffffff" opacity=".35"/>
</svg>
