<svg width="64" height="64" version="1.1" xmlns="http://www.w3.org/2000/svg" xmlns:xlink="http://www.w3.org/1999/xlink">
 <defs>
  <linearGradient id="linearGradient5">
   <stop stop-color="#ffffff" offset="0"/>
   <stop stop-color="#ffffff" stop-opacity=".65" offset="1"/>
  </linearGradient>
  <filter id="filter8" x="-.012" y="-.012" width="1.024" height="1.024" color-interpolation-filters="sRGB">
   <feGaussianBlur stdDeviation="0.074081873"/>
  </filter>
  <linearGradient id="linearGradient7" x1="6.7452" x2="10.583" y1="1.0583" y2="11.312" gradientUnits="userSpaceOnUse" xlink:href="#linearGradient6"/>
  <linearGradient id="linearGradient6">
   <stop stop-color="#ffffff" offset="0"/>
   <stop stop-color="#ffffff" stop-opacity="0" offset="1"/>
  </linearGradient>
  <linearGradient id="linearGradient8" x1="15.081" x2="12.7" y1="14.816" y2="12.171" gradientUnits="userSpaceOnUse" xlink:href="#linearGradient6"/>
  <linearGradient id="linearGradient3" x1="8.4665" x2="8.4665" y1="1.0583" y2="15.875" gradientTransform="scale(3.7796)" gradientUnits="userSpaceOnUse">
   <stop stop-color="#ff9709" offset="0"/>
   <stop stop-color="#fa691e" offset="1"/>
  </linearGradient>
  <linearGradient id="linearGradient11" x1="-38.839" x2="-49.839" y1="20.292" y2="43.801" gradientUnits="userSpaceOnUse" xlink:href="#linearGradient5"/>
  <linearGradient id="linearGradient13" x1="-21.644" x2="-35.644" y1="22.167" y2="35.801" gradientUnits="userSpaceOnUse" xlink:href="#linearGradient5"/>
  <linearGradient id="linearGradient19" x1="-54.626" x2="-18.122" y1="30.322" y2="30.001" gradientUnits="userSpaceOnUse">
   <stop stop-color="#fff5db" offset="0"/>
   <stop stop-color="#fff3de" offset="1"/>
  </linearGradient>
  <linearGradient id="linearGradient23" x1="12" x2="53" y1="31" y2="44" gradientUnits="userSpaceOnUse">
   <stop stop-color="#ffda84" offset="0"/>
   <stop stop-color="#fff3d6" stop-opacity="0" offset="1"/>
  </linearGradient>
  <filter id="filter23" x="-.016818" y="-.025538" width="1.0336" height="1.0511" color-interpolation-filters="sRGB">
   <feGaussianBlur stdDeviation="0.2873"/>
  </filter>
 </defs>
 <path d="m20.26 4.0003c-5.782 0-9.7427 1.7243-12.321 4.5348-2.5651 2.7962-3.9387 6.8037-3.9387 11.341v24.248c0 4.5378 1.3734 8.5453 3.9387 11.341 2.5784 2.8103 6.5391 4.5348 12.321 4.5348h23.549c5.782 0 9.7427-1.7243 12.321-4.5348 2.5651-2.7962 3.8703-6.4352 3.8703-11.341v-23.337c0-5.9351-1.305-9.4562-3.8703-12.252-2.5784-2.8103-6.5391-4.5348-12.321-4.5348h-18.315z" fill="url(#linearGradient3)" stroke-width="3.7796"/>
 <path d="m32.748 20c-0.27874 0.21998-0.47711 0.40266-0.59961 0.52344v0.001953c0.12235-0.12075 0.32085-0.30496 0.59961-0.52539zm16.455 0c6.2e-4 0.030873 0 0.062111 0 0.09375v21.861c0 0.039543 0.001135 0.09832-0.003906 0.16992 0.005046-0.071589 0.005859-0.13038 0.005859-0.16992v-21.861c0-0.031641-0.001095-0.062877-0.001953-0.09375zm-35.406 0.10547c-1.3257 0.35428-2.2969 1.5638-2.2969 3.0098v20.77c0 1.7258 1.3832 3.1152 3.1016 3.1152h16.422c-0.61494-0.43439-2.0191-1.3315-4.1875-2.2148-2.4233-0.98725-6.7437-0.79222-9.4082-0.36914-1.434 0.22769-2.5263-0.137-3.0918-0.82422-0.56554-0.68722-0.53906-1.4675-0.53906-1.6367v-21.85zm36.406 0v21.85c0 0.16924 0.024518 0.9495-0.54102 1.6367s-1.6558 1.0519-3.0898 0.82422c-2.6646-0.42308-6.9869-0.61811-9.4102 0.36914-2.1851 0.89022-3.5794 1.7876-4.1797 2.2148h16.416c1.7184 0 3.1016-1.3894 3.1016-3.1152v-20.77c0-1.446-0.97118-2.6555-2.2969-3.0098z" fill="#f79b55" style="paint-order:stroke fill markers"/>
 <path d="m32.748 20c-0.27874 0.21998-0.47711 0.40266-0.59961 0.52344v0.001953c0.12235-0.12075 0.32085-0.30496 0.59961-0.52539zm16.455 0c6.2e-4 0.030873 0 0.062111 0 0.09375v0.90625h0.001953v-0.90625c0-0.031641-0.001095-0.062877-0.001953-0.09375zm-35.406 0.10547c-1.3258 0.35422-2.2969 1.5637-2.2969 3.0098v20.77c0 1.7258 1.3832 3.1152 3.1016 3.1152h16.422c-0.32341-0.22846-0.86487-0.58489-1.6211-1h-14.801c-1.1794 0-2.1016-0.92385-2.1016-2.1152v-20.77c0-0.90187 0.52844-1.6504 1.2969-1.9609v-1.0488zm36.406 0v1.0488c0.76843 0.31055 1.2969 1.0591 1.2969 1.9609v20.77c0 1.1914-0.92217 2.1152-2.1016 2.1152h-14.801c-0.75939 0.41759-1.2982 0.77436-1.6152 1h16.416c1.7184 0 3.1016-1.3894 3.1016-3.1152v-20.77c0-1.4461-0.97112-2.6555-2.2969-3.0098z" fill="url(#linearGradient23)" filter="url(#filter23)" stop-color="#000000" stroke-linecap="round" stroke-linejoin="round" style="paint-order:stroke fill markers"/>
 <g transform="scale(3.7796)" filter="url(#filter8)" opacity=".45">
  <path d="m5.3603 1.0583c-1.5298 0-2.5775 0.45637-3.2597 1.1999-0.67868 0.73981-1.0423 1.8002-1.0423 3.0008v6.415c0 1.2006 0.36361 2.2609 1.0423 3.0008 0.68219 0.74355 1.7299 1.1999 3.2597 1.1999h6.2305c1.5298 0 2.5775-0.45637 3.2597-1.1999 0.67868-0.73981 1.0242-1.7027 1.0242-3.0008v-6.1742c0-1.5703-0.34552-2.5018-1.0242-3.2416-0.68219-0.74355-1.7299-1.1999-3.2597-1.1999h-4.8456zm-0.00103 0.26406h6.2326c1.4772 0 2.437 0.43133 3.0644 1.1152 0.63411 0.69126 0.95341 1.5307 0.95341 3.0623v6.1742c0 1.2512-0.32181 2.1335-0.95341 2.822-0.6274 0.68381-1.5871 1.1136-3.0644 1.1136h-6.2326c-1.4772 0-2.437-0.42978-3.0644-1.1136-0.62537-0.68172-0.97253-1.6747-0.97253-2.822v-6.4145c0-1.1472 0.34717-2.1403 0.97253-2.822 0.6274-0.68381 1.5871-1.1152 3.0644-1.1152z" fill="url(#linearGradient7)" opacity="1"/>
  <path d="m5.3603 1.0583c-1.5298 0-2.5775 0.45637-3.2597 1.1999-0.67868 0.73981-1.0423 1.8002-1.0423 3.0008v6.415c0 1.2006 0.36361 2.2609 1.0423 3.0008 0.68219 0.74355 1.7299 1.1999 3.2597 1.1999h6.2305c1.5298 0 2.5775-0.45637 3.2597-1.1999 0.67868-0.73981 1.0242-1.7027 1.0242-3.0008v-6.1742c0-1.5703-0.34552-2.5018-1.0242-3.2416-0.68219-0.74355-1.7299-1.1999-3.2597-1.1999h-4.8456zm-0.00103 0.26406h6.2326c1.4772 0 2.437 0.43133 3.0644 1.1152 0.63411 0.69126 0.95341 1.5307 0.95341 3.0623v6.1742c0 1.2512-0.32181 2.1335-0.95341 2.822-0.6274 0.68381-1.5871 1.1136-3.0644 1.1136h-6.2326c-1.4772 0-2.437-0.42978-3.0644-1.1136-0.62537-0.68172-0.97253-1.6747-0.97253-2.822v-6.4145c0-1.1472 0.34717-2.1403 0.97253-2.822 0.6274-0.68381 1.5871-1.1152 3.0644-1.1152z" fill="url(#linearGradient8)" opacity="1"/>
 </g>
 <g transform="translate(68.241)" stroke-linecap="round" stroke-linejoin="round">
  <path d="m-36.239 20.683s-2.5267-2.9329-8.6549-3.5811-7.2255 0.57588-7.7559 1.0473c-0.53033 0.4714-0.7955 1.0776-0.7955 1.9445v21.861c0 0.31732 0.01033 1.8645 2.4749 1.4731 2.762-0.43856 7.1322-0.71334 9.9428 0.43168 3.1979 1.3028 4.7957 2.6914 4.7957 2.6914z" fill="url(#linearGradient11)" opacity=".95" stroke-width="2" style="paint-order:stroke fill markers"/>
  <path d="m-36.244 20.683s2.5267-2.9329 8.6549-3.5811 7.2255 0.57588 7.7559 1.0473c0.53033 0.4714 0.7955 1.0776 0.7955 1.9445v21.861c0 0.31732-0.01033 1.8645-2.4749 1.4731-2.762-0.43856-7.1322-0.71334-9.9428 0.43168-3.1979 1.3028-4.7957 2.6914-4.7957 2.6914z" fill="url(#linearGradient13)" opacity=".95" stroke-width="2" style="paint-order:stroke fill markers"/>
  <path d="m-23.832 15.924c-1.0305-0.03272-2.2934 0.01776-3.8613 0.18359-5.3019 0.56078-7.6634 2.5093-8.5488 3.3418-0.88366-0.83075-3.2459-2.7811-8.5469-3.3418-1.568-0.16585-2.8293-0.21443-3.8594-0.18164-1.5453 0.04919-2.5794 0.28082-3.3184 0.5918s-1.1975 0.74933-1.3477 0.88281c-0.72543 0.64483-1.1309 1.6229-1.1309 2.6934v21.861c0 0.16924-0.02452 0.9495 0.54102 1.6367 0.56553 0.68722 1.6558 1.0519 3.0898 0.82422 2.6646-0.42308 6.9869-0.61811 9.4102 0.36914 2.8834 1.1747 4.4126 2.3736 4.5352 2.4766 0.16 0.10705 0.43614 0.14473 0.62108 0.14452 0.22244-0.0096 0.52192-0.03505 0.65816-0.15626 0.12261-0.10301 1.6283-1.2902 4.5117-2.4648 2.4233-0.98725 6.7456-0.79222 9.4102-0.36914 1.434 0.22769 2.5243-0.137 3.0898-0.82422s0.54102-1.4675 0.54102-1.6367v-21.861c0-1.0704-0.40543-2.0485-1.1309-2.6934-0.2-0.17778-0.91379-0.8354-2.1953-1.1641-0.64076-0.16433-1.4382-0.27978-2.4688-0.3125zm-24.785 1.002c0.97294-0.03097 2.1906 0.01374 3.7227 0.17578 6.0235 0.6371 8.5671 3.481 8.6523 3.5781 0.08524-0.09708 2.6308-2.941 8.6543-3.5781 6.1283-0.64818 7.2255 0.57547 7.7559 1.0469 0.53033 0.4714 0.79492 1.0783 0.79492 1.9453v21.861c0 0.31732-0.01007 1.864-2.4746 1.4727-2.762-0.43856-7.1328-0.71337-9.9434 0.43164-2.9979 1.2214-4.59 2.5184-4.7773 2.6758v0.01563s-0.0036-0.0025-0.0098-0.0078c-0.0031 0.0027-0.0047 0.0046-0.0059 0.0059l-2e-3 2e-3v-0.01563c-0.18731-0.15736-1.7794-1.4544-4.7773-2.6758-2.8106-1.145-7.1813-0.8702-9.9434-0.43164-2.4645 0.39133-2.4746-1.1553-2.4746-1.4727v-21.861c-1e-6 -0.86699 0.26459-1.4739 0.79492-1.9453 0.39775-0.35356 1.1144-1.1297 4.0332-1.2227z" fill="url(#linearGradient19)" stop-color="#000000" style="paint-order:stroke fill markers"/>
 </g>
</svg>
