<svg width="64" height="64" image-rendering="optimizeSpeed" version="1.1" xmlns="http://www.w3.org/2000/svg" xmlns:xlink="http://www.w3.org/1999/xlink">
 <defs>
  <filter id="filter8" x="-.012" y="-.012" width="1.024" height="1.024" color-interpolation-filters="sRGB">
   <feGaussianBlur stdDeviation="0.074081873"/>
  </filter>
  <linearGradient id="linearGradient7" x1="6.7452" x2="10.583" y1="1.0583" y2="11.312" gradientUnits="userSpaceOnUse" xlink:href="#linearGradient6"/>
  <linearGradient id="linearGradient6">
   <stop stop-color="#ffffff" offset="0"/>
   <stop stop-color="#ffffff" stop-opacity="0" offset="1"/>
  </linearGradient>
  <linearGradient id="linearGradient8" x1="15.081" x2="12.7" y1="14.816" y2="12.171" gradientUnits="userSpaceOnUse" xlink:href="#linearGradient6"/>
  <linearGradient id="linearGradient3" x1="8.4665" x2="8.4665" y1="1.0583" y2="15.875" gradientTransform="scale(3.7796)" gradientUnits="userSpaceOnUse">
   <stop stop-color="#323232" offset="0"/>
   <stop stop-color="#141515" offset="1"/>
  </linearGradient>
 </defs>
 <path d="m20.26 4.0003c-5.782 0-9.7427 1.7243-12.321 4.5348-2.5651 2.7962-3.9387 6.8037-3.9387 11.341v24.248c0 4.5378 1.3734 8.5453 3.9387 11.341 2.5784 2.8103 6.5391 4.5348 12.321 4.5348h23.549c5.782 0 9.7427-1.7243 12.321-4.5348 2.5651-2.7962 3.8703-6.4352 3.8703-11.341v-23.337c0-5.9351-1.305-9.4562-3.8703-12.252-2.5784-2.8103-6.5391-4.5348-12.321-4.5348h-18.315z" fill="url(#linearGradient3)" stroke-width="3.7796"/>
 <g transform="scale(3.7796)" filter="url(#filter8)" opacity=".45">
  <path d="m5.3603 1.0583c-1.5298 0-2.5775 0.45637-3.2597 1.1999-0.67868 0.73981-1.0423 1.8002-1.0423 3.0008v6.415c0 1.2006 0.36361 2.2609 1.0423 3.0008 0.68219 0.74355 1.7299 1.1999 3.2597 1.1999h6.2305c1.5298 0 2.5775-0.45637 3.2597-1.1999 0.67868-0.73981 1.0242-1.7027 1.0242-3.0008v-6.1742c0-1.5703-0.34552-2.5018-1.0242-3.2416-0.68219-0.74355-1.7299-1.1999-3.2597-1.1999h-4.8456zm-0.00103 0.26406h6.2326c1.4772 0 2.437 0.43133 3.0644 1.1152 0.63411 0.69126 0.95341 1.5307 0.95341 3.0623v6.1742c0 1.2512-0.32181 2.1335-0.95341 2.822-0.6274 0.68381-1.5871 1.1136-3.0644 1.1136h-6.2326c-1.4772 0-2.437-0.42978-3.0644-1.1136-0.62537-0.68172-0.97253-1.6747-0.97253-2.822v-6.4145c0-1.1472 0.34717-2.1403 0.97253-2.822 0.6274-0.68381 1.5871-1.1152 3.0644-1.1152z" fill="url(#linearGradient7)" opacity="1"/>
  <path d="m5.3603 1.0583c-1.5298 0-2.5775 0.45637-3.2597 1.1999-0.67868 0.73981-1.0423 1.8002-1.0423 3.0008v6.415c0 1.2006 0.36361 2.2609 1.0423 3.0008 0.68219 0.74355 1.7299 1.1999 3.2597 1.1999h6.2305c1.5298 0 2.5775-0.45637 3.2597-1.1999 0.67868-0.73981 1.0242-1.7027 1.0242-3.0008v-6.1742c0-1.5703-0.34552-2.5018-1.0242-3.2416-0.68219-0.74355-1.7299-1.1999-3.2597-1.1999h-4.8456zm-0.00103 0.26406h6.2326c1.4772 0 2.437 0.43133 3.0644 1.1152 0.63411 0.69126 0.95341 1.5307 0.95341 3.0623v6.1742c0 1.2512-0.32181 2.1335-0.95341 2.822-0.6274 0.68381-1.5871 1.1136-3.0644 1.1136h-6.2326c-1.4772 0-2.437-0.42978-3.0644-1.1136-0.62537-0.68172-0.97253-1.6747-0.97253-2.822v-6.4145c0-1.1472 0.34717-2.1403 0.97253-2.822 0.6274-0.68381 1.5871-1.1152 3.0644-1.1152z" fill="url(#linearGradient8)" opacity="1"/>
 </g>
 <g fill="#ec4e3e">
  <path d="m7.5 30c0.277 0 0.5 0.223 0.5 0.5v3a0.5 0.5 0 1 1-1 0v-3c0-0.277 0.223-0.5 0.5-0.5m2-2c0.277 0 0.5 0.223 0.5 0.5v7a0.5 0.5 0 1 1-1 0v-7c0-0.277 0.223-0.5 0.5-0.5m2-6c0.277 0 0.5 0.319 0.5 0.714v18.571c0 0.396-0.223 0.715-0.5 0.715s-0.5-0.319-0.5-0.715v-18.57c0-0.396 0.223-0.715 0.5-0.715m2 4c0.277 0 0.5 0.223 0.5 0.5v11a0.5 0.5 0 1 1-1 0v-11c0-0.277 0.223-0.5 0.5-0.5m2-6c0.277 0 0.5 0.223 0.5 0.5v23a0.5 0.5 0 1 1-1 0v-23c0-0.277 0.223-0.5 0.5-0.5m2 1c0.277 0 0.5 0.223 0.5 0.5v21a0.5 0.5 0 1 1-1 0v-21c0-0.277 0.223-0.5 0.5-0.5m2-9c0.277 0 0.5 0.223 0.5 0.5v39a0.5 0.5 0 1 1-1 0v-39c0-0.277 0.223-0.5 0.5-0.5m2 4c0.277 0 0.5 0.223 0.5 0.5v31a0.5 0.5 0 1 1-1 0v-31c0-0.277 0.223-0.5 0.5-0.5m2-2c0.277 0 0.5 0.223 0.5 0.5v35a0.5 0.5 0 1 1-1 0v-35c0-0.277 0.223-0.5 0.5-0.5m2 5c0.277 0 0.5 0.223 0.5 0.5v25a0.5 0.5 0 1 1-1 0v-25c0-0.277 0.223-0.5 0.5-0.5m2 10c0.277 0 0.5 0.223 0.5 0.5v5a0.5 0.5 0 1 1-1 0v-5c0-0.277 0.223-0.5 0.5-0.5m2-2c0.277 0 0.5 0.223 0.5 0.5v9a0.5 0.5 0 1 1-1 0v-9c0-0.277 0.223-0.5 0.5-0.5" fill="#ec4e3e"/>
 </g>
 <path d="m31.5 7a1.5 1.5 0 0 0-1.5 1.5 1.5 1.5 0 0 0 1 1.412v44.176a1.5 1.5 0 0 0-1 1.412 1.5 1.5 0 0 0 1.5 1.5 1.5 1.5 0 0 0 1.5-1.5 1.5 1.5 0 0 0-1-1.412v-44.176a1.5 1.5 0 0 0 1-1.412 1.5 1.5 0 0 0-1.5-1.5" fill="#69aeff"/>
 <g fill="#ffffff">
  <path d="m33.5 26c0.277 0 0.5 0.223 0.5 0.5v11a0.5 0.5 0 1 1-1 0v-11c0-0.277 0.223-0.5 0.5-0.5m2 3c0.277 0 0.5 0.223 0.5 0.5v5a0.5 0.5 0 1 1-1 0v-5c0-0.277 0.223-0.5 0.5-0.5m2-1c0.277 0 0.5 0.223 0.5 0.5v7a0.5 0.5 0 1 1-1 0v-7c0-0.277 0.223-0.5 0.5-0.5m2 0c0.277 0 0.5 0.223 0.5 0.5v7a0.5 0.5 0 1 1-1 0v-7c0-0.277 0.223-0.5 0.5-0.5m2 1c0.277 0 0.5 0.223 0.5 0.5v5a0.5 0.5 0 1 1-1 0v-5c0-0.277 0.223-0.5 0.5-0.5m2 1c0.277 0 0.5 0.223 0.5 0.5v3a0.5 0.5 0 1 1-1 0v-3c0-0.277 0.223-0.5 0.5-0.5m2 0c0.277 0 0.5 0.223 0.5 0.5v3a0.5 0.5 0 1 1-1 0v-3c0-0.277 0.223-0.5 0.5-0.5m2-2c0.277 0 0.5 0.223 0.5 0.5v7a0.5 0.5 0 1 1-1 0v-7c0-0.277 0.223-0.5 0.5-0.5m2 1c0.277 0 0.5 0.223 0.5 0.5v5a0.5 0.5 0 1 1-1 0v-5c0-0.277 0.223-0.5 0.5-0.5m2-2c0.277 0 0.5 0.223 0.5 0.5v9a0.5 0.5 0 1 1-1 0v-9c0-0.277 0.223-0.5 0.5-0.5m2 3c0.277 0 0.5 0.223 0.5 0.5v3a0.5 0.5 0 1 1-1 0v-3c0-0.277 0.223-0.5 0.5-0.5m2 1c0.277 0 0.5 0.223 0.5 0.5v1a0.5 0.5 0 1 1-1 0v-1c0-0.277 0.223-0.5 0.5-0.5m2 0c0.277 0 0.5 0.223 0.5 0.5v1a0.5 0.5 0 1 1-1 0v-1c0-0.277 0.223-0.5 0.5-0.5"/>
 </g>
 <path d="m5.5 31c0.277 0 0.5 0.223 0.5 0.5v1a0.5 0.5 0 1 1-1 0v-1c0-0.277 0.223-0.5 0.5-0.5" fill="#ff2a2a"/>
</svg>
