<svg width="64" height="64" version="1.1" viewBox="0 0 16.933 16.933" xmlns="http://www.w3.org/2000/svg" xmlns:xlink="http://www.w3.org/1999/xlink">
 <defs>
  <linearGradient id="a-5" x1="328.2" x2="328.2" y1="50.301" y2="95.039" gradientTransform="matrix(.12734 0 0 .12734 -33.683 -.075934)" gradientUnits="userSpaceOnUse">
   <stop stop-color="#ffe6ec" offset="0"/>
   <stop stop-color="#fb96a9" offset="1"/>
  </linearGradient>
  <filter id="filter8" x="-.012" y="-.012" width="1.024" height="1.024" color-interpolation-filters="sRGB">
   <feGaussianBlur stdDeviation="0.074081873"/>
  </filter>
  <linearGradient id="linearGradient7" x1="6.7452" x2="10.583" y1="1.0583" y2="11.312" gradientUnits="userSpaceOnUse" xlink:href="#linearGradient6"/>
  <linearGradient id="linearGradient6">
   <stop stop-color="#ffffff" offset="0"/>
   <stop stop-color="#ffffff" stop-opacity="0" offset="1"/>
  </linearGradient>
  <linearGradient id="linearGradient8" x1="15.081" x2="12.7" y1="14.816" y2="12.171" gradientUnits="userSpaceOnUse" xlink:href="#linearGradient6"/>
  <linearGradient id="linearGradient3" x1="8.4665" x2="8.4665" y1="1.0583" y2="15.875" gradientUnits="userSpaceOnUse">
   <stop stop-color="#ff4d71" offset="0"/>
   <stop stop-color="#ff0130" offset="1"/>
  </linearGradient>
  <linearGradient id="linearGradient20" x1="6.4414" x2="12.448" y1="5.7341" y2="9.8599" gradientUnits="userSpaceOnUse">
   <stop stop-color="#ffffff" offset="0"/>
   <stop stop-color="#ffffff" stop-opacity="0" offset=".53717"/>
   <stop stop-color="#ffffff" stop-opacity=".69267" offset=".67146"/>
   <stop stop-color="#ffffff" stop-opacity="0" offset="1"/>
  </linearGradient>
  <filter id="filter22" x="-.16725" y="-.13112" width="1.3345" height="1.2622" color-interpolation-filters="sRGB">
   <feGaussianBlur stdDeviation="0.55603844"/>
  </filter>
 </defs>
 <path d="m5.3603 1.0584c-1.5298 0-2.5777 0.45621-3.2599 1.1998-0.67868 0.73981-1.0421 1.8001-1.0421 3.0007v6.4154c0 1.2006 0.36337 2.2609 1.0421 3.0007 0.68219 0.74355 1.7301 1.1998 3.2599 1.1998h6.2306c1.5298 0 2.5777-0.45622 3.2599-1.1998 0.67868-0.73981 1.024-1.7026 1.024-3.0007v-6.1745c0-1.5703-0.34527-2.5019-1.024-3.2417-0.68219-0.74355-1.7301-1.1998-3.2599-1.1998h-4.8457z" fill="url(#linearGradient3)"/>
 <g filter="url(#filter8)" opacity=".45">
  <path d="m5.3603 1.0583c-1.5298 0-2.5775 0.45637-3.2597 1.1999-0.67868 0.73981-1.0423 1.8002-1.0423 3.0008v6.415c0 1.2006 0.36361 2.2609 1.0423 3.0008 0.68219 0.74355 1.7299 1.1999 3.2597 1.1999h6.2305c1.5298 0 2.5775-0.45637 3.2597-1.1999 0.67868-0.73981 1.0242-1.7027 1.0242-3.0008v-6.1742c0-1.5703-0.34552-2.5018-1.0242-3.2416-0.68219-0.74355-1.7299-1.1999-3.2597-1.1999h-4.8456zm-0.00103 0.26406h6.2326c1.4772 0 2.437 0.43133 3.0644 1.1152 0.63411 0.69126 0.95341 1.5307 0.95341 3.0623v6.1742c0 1.2512-0.32181 2.1335-0.95341 2.822-0.6274 0.68381-1.5871 1.1136-3.0644 1.1136h-6.2326c-1.4772 0-2.437-0.42978-3.0644-1.1136-0.62537-0.68172-0.97253-1.6747-0.97253-2.822v-6.4145c0-1.1472 0.34717-2.1403 0.97253-2.822 0.6274-0.68381 1.5871-1.1152 3.0644-1.1152z" fill="url(#linearGradient7)" opacity="1"/>
  <path d="m5.3603 1.0583c-1.5298 0-2.5775 0.45637-3.2597 1.1999-0.67868 0.73981-1.0423 1.8002-1.0423 3.0008v6.415c0 1.2006 0.36361 2.2609 1.0423 3.0008 0.68219 0.74355 1.7299 1.1999 3.2597 1.1999h6.2305c1.5298 0 2.5775-0.45637 3.2597-1.1999 0.67868-0.73981 1.0242-1.7027 1.0242-3.0008v-6.1742c0-1.5703-0.34552-2.5018-1.0242-3.2416-0.68219-0.74355-1.7299-1.1999-3.2597-1.1999h-4.8456zm-0.00103 0.26406h6.2326c1.4772 0 2.437 0.43133 3.0644 1.1152 0.63411 0.69126 0.95341 1.5307 0.95341 3.0623v6.1742c0 1.2512-0.32181 2.1335-0.95341 2.822-0.6274 0.68381-1.5871 1.1136-3.0644 1.1136h-6.2326c-1.4772 0-2.437-0.42978-3.0644-1.1136-0.62537-0.68172-0.97253-1.6747-0.97253-2.822v-6.4145c0-1.1472 0.34717-2.1403 0.97253-2.822 0.6274-0.68381 1.5871-1.1152 3.0644-1.1152z" fill="url(#linearGradient8)" opacity="1"/>
 </g>
 <path d="m12.096 3.7583c-0.08911-0.00186-0.20079 0.013458-0.34054 0.044958l-2.3492 0.47748-0.047542 0.00982-2.129 0.42012c-0.391 0.084-0.46736 0.30198-0.45836 0.64698l0.0062 5.3866c-0.017 0.379-0.059017 0.58731-0.49402 0.65731-1.542 0.23-1.8399 0.7069-1.8319 1.3849 0.01 0.676 0.55807 1.218 1.3131 1.142 0.662-0.074 1.1558-0.266 1.4588-0.879 0.117-0.23 0.15716-0.7098 0.12816-1.1968l-0.0062-4.2854c1e-3 -0.3-0.050224-0.46683 0.34778-0.54983l2.3931-0.48213v-5.167e-4l1.4211-0.28628c0.23-0.047 0.34012 0.032 0.34312 0.293v0.00103l0.0062 3.2008c-0.018 0.379-0.0544 0.55217-0.4904 0.62217-1.542 0.23-1.845 0.74104-1.836 1.42 0.01 0.676 0.56634 1.1829 1.3213 1.1069 0.663-0.073 1.1387-0.24478 1.4417-0.85678 0.118-0.231 0.12694-0.6904 0.13694-1.1844l-0.0036-6.5555c0-0.36825-0.06339-0.53185-0.33072-0.53742z" fill="#000000" filter="url(#filter22)" opacity=".1"/>
 <path d="m11.765 3.2209c-0.08911-0.00186-0.20079 0.013458-0.34054 0.044958l-2.3492 0.47748-0.047542 0.00982-2.129 0.42012c-0.391 0.084-0.46736 0.30198-0.45836 0.64698l0.0062 5.3866c-0.017 0.379-0.059017 0.58731-0.49402 0.65731-1.542 0.23-1.8399 0.7069-1.8319 1.3849 0.01 0.676 0.55807 1.218 1.3131 1.142 0.662-0.074 1.1558-0.266 1.4588-0.879 0.117-0.23 0.15716-0.7098 0.12816-1.1968l-0.0062-4.2854c1e-3 -0.3-0.050224-0.46683 0.34778-0.54983l2.3931-0.48213v-5.167e-4l1.4211-0.28628c0.23-0.047 0.34012 0.032 0.34312 0.293v0.00103l0.0062 3.2008c-0.018 0.379-0.0544 0.55217-0.4904 0.62217-1.542 0.23-1.845 0.74104-1.836 1.42 0.01 0.676 0.56634 1.1829 1.3213 1.1069 0.663-0.073 1.1387-0.24478 1.4417-0.85678 0.118-0.231 0.12694-0.6904 0.13694-1.1844l-0.0036-6.5555c0-0.36825-0.06339-0.53185-0.33072-0.53742z" fill="url(#a-5)"/>
 <path d="m11.765 3.2209c-0.08911-0.00186-0.20079 0.013458-0.34054 0.044958l-2.3492 0.47748-0.047541 0.0098183-2.129 0.42012c-0.391 0.084-0.46736 0.30198-0.45836 0.64698l0.006201 5.3866c-0.017 0.379-0.059017 0.58731-0.49402 0.65731-1.542 0.23-1.8399 0.7069-1.8319 1.3849 0.01 0.676 0.55807 1.218 1.3131 1.142 0.662-0.074 1.1558-0.266 1.4588-0.879 0.117-0.23 0.15716-0.7098 0.12816-1.1968l-0.0062011-4.2854c1e-3 -0.3-0.050224-0.46683 0.34778-0.54983l2.3931-0.48213v-5.167e-4l1.4211-0.28628c0.23-0.047 0.34012 0.032 0.34312 0.293v0.0010335l0.006201 3.2008c-0.018 0.379-0.0544 0.55217-0.4904 0.62217-1.542 0.23-1.845 0.74104-1.836 1.42 0.01 0.676 0.56634 1.1829 1.3213 1.1069 0.663-0.073 1.1387-0.24478 1.4417-0.85678 0.118-0.231 0.12694-0.6904 0.13694-1.1844l-0.003618-6.5555c0-0.36825-0.063389-0.53185-0.33072-0.53742zm-0.003101 0.13281c0.10692 0.00223 0.1268 0.015716 0.15399 0.064078 0.02719 0.048362 0.047025 0.16349 0.047025 0.34002l0.004134 6.5566c-0.01007 0.49216-0.036381 0.95336-0.12299 1.1229v0.002067c-0.14147 0.28574-0.31303 0.45635-0.52967 0.57256-0.21615 0.11595-0.48394 0.17517-0.80665 0.21084-0.69026 0.069434-1.1667-0.37224-1.1756-0.97666-0.0042334-0.31939 0.056798-0.56396 0.293-0.7772s0.67175-0.39696 1.4299-0.51004h0.00155c0.23429-0.037615 0.39805-0.1143 0.4904-0.25373 0.09235-0.13943 0.10246-0.2997 0.11162-0.49247v-0.0036173l-0.006201-3.2034v-0.002067-0.0015502c-0.0017-0.14895-0.03379-0.27877-0.13487-0.36173-0.10108-0.08296-0.23359-0.085633-0.3669-0.058393l-1.5275 0.30644-2.2872 0.46094c-0.10873 0.022674-0.19482 0.053409-0.26561 0.097667-0.070789 0.044258-0.12413 0.10779-0.15244 0.17621-0.056626 0.13684-0.034665 0.26378-0.035139 0.40617l0.0062011 4.2911v0.00155c0.028263 0.47462-0.024851 0.95447-0.11369 1.1291l-0.0015503 0.002067c-0.28256 0.57165-0.70978 0.73465-1.3539 0.80665-0.68629 0.06908-1.1589-0.40624-1.1679-1.0118-0.00377-0.31926 0.056571-0.55476 0.29093-0.75963 0.23436-0.20487 0.67082-0.3808 1.4299-0.49402 0.23716-0.03816 0.40545-0.12752 0.49608-0.27388 0.09063-0.14636 0.10088-0.31416 0.10955-0.50745v-0.004134l-0.006201-5.3908v-0.0015503c-0.00423-0.16213 0.015912-0.27488 0.060977-0.34778 0.044838-0.072528 0.11855-0.12897 0.29093-0.16639l2.1306-0.4196 0.047025-0.0098183 2.3497-0.47851h0.002067c0.13398-0.030199 0.23685-0.042319 0.3085-0.040824z" fill="url(#linearGradient20)" stop-color="#000000"/>
</svg>
