<svg width="64" height="64" version="1.1" xmlns="http://www.w3.org/2000/svg" xmlns:xlink="http://www.w3.org/1999/xlink">
 <defs>
  <filter id="filter8" x="-.012" y="-.012" width="1.024" height="1.024" color-interpolation-filters="sRGB">
   <feGaussianBlur stdDeviation="0.074081873"/>
  </filter>
  <linearGradient id="linearGradient7" x1="6.7452" x2="10.583" y1="1.0583" y2="11.312" gradientUnits="userSpaceOnUse" xlink:href="#linearGradient6"/>
  <linearGradient id="linearGradient6">
   <stop stop-color="#ffffff" offset="0"/>
   <stop stop-color="#ffffff" stop-opacity="0" offset="1"/>
  </linearGradient>
  <linearGradient id="linearGradient8" x1="15.081" x2="12.7" y1="14.816" y2="12.171" gradientUnits="userSpaceOnUse" xlink:href="#linearGradient6"/>
  <linearGradient id="linearGradient3" x1="8.4665" x2="8.4665" y1="1.0583" y2="15.875" gradientTransform="scale(3.7796)" gradientUnits="userSpaceOnUse">
   <stop stop-color="#53d8e1" offset="0"/>
   <stop stop-color="#74abdd" offset="1"/>
  </linearGradient>
  <linearGradient id="linearGradient12" x1="-46.25" x2="-46.25" y1="16.5" y2="39.861" gradientTransform="translate(69)" gradientUnits="userSpaceOnUse">
   <stop stop-color="#f9fdfe" offset="0"/>
   <stop stop-color="#bde1f0" offset="1"/>
  </linearGradient>
  <linearGradient id="linearGradient14" x1="-58.978" x2="-32.579" y1="26.989" y2="29.725" gradientTransform="translate(69)" gradientUnits="userSpaceOnUse">
   <stop stop-color="#f9fdfe" offset="0"/>
   <stop stop-color="#f9fdfe" stop-opacity="0" offset="1"/>
  </linearGradient>
  <linearGradient id="linearGradient15" x1="-35.005" x2="-60.005" y1="18" y2="27" gradientTransform="matrix(-1 0 0 1 -5.0047 10)" gradientUnits="userSpaceOnUse">
   <stop stop-color="#f9fdfe" offset="0"/>
   <stop stop-color="#f9fdfe" stop-opacity=".85334" offset="1"/>
  </linearGradient>
 </defs>
 <path d="m20.26 4.0003c-5.782 0-9.7427 1.7243-12.321 4.5348-2.5651 2.7962-3.9387 6.8037-3.9387 11.341v24.248c0 4.5378 1.3734 8.5453 3.9387 11.341 2.5784 2.8103 6.5391 4.5348 12.321 4.5348h23.549c5.782 0 9.7427-1.7243 12.321-4.5348 2.5651-2.7962 3.8703-6.4352 3.8703-11.341v-23.337c0-5.9351-1.305-9.4562-3.8703-12.252-2.5784-2.8103-6.5391-4.5348-12.321-4.5348h-18.315z" fill="url(#linearGradient3)" stroke-width="3.7796"/>
 <g transform="scale(3.7796)" filter="url(#filter8)" style="mix-blend-mode:overlay">
  <path d="m5.3603 1.0583c-1.5298 0-2.5775 0.45637-3.2597 1.1999-0.67868 0.73981-1.0423 1.8002-1.0423 3.0008v6.415c0 1.2006 0.36361 2.2609 1.0423 3.0008 0.68219 0.74355 1.7299 1.1999 3.2597 1.1999h6.2305c1.5298 0 2.5775-0.45637 3.2597-1.1999 0.67868-0.73981 1.0242-1.7027 1.0242-3.0008v-6.1742c0-1.5703-0.34552-2.5018-1.0242-3.2416-0.68219-0.74355-1.7299-1.1999-3.2597-1.1999h-4.8456zm-0.00103 0.26406h6.2326c1.4772 0 2.437 0.43133 3.0644 1.1152 0.63411 0.69126 0.95341 1.5307 0.95341 3.0623v6.1742c0 1.2512-0.32181 2.1335-0.95341 2.822-0.6274 0.68381-1.5871 1.1136-3.0644 1.1136h-6.2326c-1.4772 0-2.437-0.42978-3.0644-1.1136-0.62537-0.68172-0.97253-1.6747-0.97253-2.822v-6.4145c0-1.1472 0.34717-2.1403 0.97253-2.822 0.6274-0.68381 1.5871-1.1152 3.0644-1.1152z" fill="url(#linearGradient7)"/>
  <path d="m5.3603 1.0583c-1.5298 0-2.5775 0.45637-3.2597 1.1999-0.67868 0.73981-1.0423 1.8002-1.0423 3.0008v6.415c0 1.2006 0.36361 2.2609 1.0423 3.0008 0.68219 0.74355 1.7299 1.1999 3.2597 1.1999h6.2305c1.5298 0 2.5775-0.45637 3.2597-1.1999 0.67868-0.73981 1.0242-1.7027 1.0242-3.0008v-6.1742c0-1.5703-0.34552-2.5018-1.0242-3.2416-0.68219-0.74355-1.7299-1.1999-3.2597-1.1999h-4.8456zm-0.00103 0.26406h6.2326c1.4772 0 2.437 0.43133 3.0644 1.1152 0.63411 0.69126 0.95341 1.5307 0.95341 3.0623v6.1742c0 1.2512-0.32181 2.1335-0.95341 2.822-0.6274 0.68381-1.5871 1.1136-3.0644 1.1136h-6.2326c-1.4772 0-2.437-0.42978-3.0644-1.1136-0.62537-0.68172-0.97253-1.6747-0.97253-2.822v-6.4145c0-1.1472 0.34717-2.1403 0.97253-2.822 0.6274-0.68381 1.5871-1.1152 3.0644-1.1152z" fill="url(#linearGradient8)"/>
 </g>
 <path d="m14.971 16.5c-2.2002 0-3.9707 1.7705-3.9707 3.9707v10.559c0 2.2002 1.7705 3.9707 3.9707 3.9707h2.0293v3.6113a1.2501 1.2501 0 0 0 2.0488 0.96094l5.4961-4.5723h5.9844c2.2002 0 3.9707-1.7705 3.9707-3.9707v-10.559c0-2.2002-1.7705-3.9707-3.9707-3.9707z" fill="url(#linearGradient12)" stroke-linecap="round" stroke-linejoin="round" stroke-width=".20495"/>
 <path d="m14.971 16.5c-2.2002 0-3.9707 1.7705-3.9707 3.9707v10.559c0 2.2002 1.7705 3.9707 3.9707 3.9707h2.0293v3.6113a1.2501 1.2501 0 0 0 2.0488 0.96094l5.4961-4.5723h5.9844c2.2002 0 3.9707-1.7705 3.9707-3.9707v-10.559c0-2.2002-1.7705-3.9707-3.9707-3.9707zm0 1h15.559c1.6637 0 2.9707 1.307 2.9707 2.9707v10.559c0 1.6637-1.307 2.9707-2.9707 2.9707h-5.9844a1.0001 1.0001 0 0 0-0.63867 0.23047l-5.4961 4.5723c-0.21674 0.18-0.40998 0.090335-0.41016-0.19141v-3.6113a1.0001 1.0001 0 0 0-1-1h-2.0293c-1.6637 0-2.9707-1.307-2.9707-2.9707v-10.559c0-1.6637 1.307-2.9707 2.9707-2.9707z" fill="url(#linearGradient14)" stop-color="#000000" stroke-linecap="round" stroke-linejoin="round" style="mix-blend-mode:overlay"/>
 <path d="m49.029 26.5c2.2002 0 3.9707 1.7705 3.9707 3.9707v10.559c0 2.2002-1.7705 3.9707-3.9707 3.9707h-2.0293v3.6113a1.2501 1.2501 0 0 1-2.0488 0.96094l-5.4961-4.5723h-5.9844c-2.2002 0-3.9707-1.7705-3.9707-3.9707v-10.559c0-2.2002 1.7705-3.9707 3.9707-3.9707z" fill="#11242c" stroke-linecap="round" stroke-linejoin="round" stroke-width=".20495"/>
 <path d="m22.578 20.162a0.50005 0.50005 0 0 0-0.46875 0.32617l-3.7383 10a0.50005 0.50005 0 0 0 0.46875 0.67383h0.32812a0.50005 0.50005 0 0 0 0.46875-0.32422l1.1211-3.0039h4.0645l1.127 3.0039a0.50005 0.50005 0 0 0 0.4668 0.32422h0.33008a0.50005 0.50005 0 0 0 0.46875-0.67578l-3.7461-10a0.50005 0.50005 0 0 0-0.46875-0.32422zm0.20703 2.2246c0.08722 0.23424 0.1742 0.46859 0.26367 0.70508l1.2852 3.4336h-3.0898l1.2773-3.4316 2e-3 -2e-3c0.08939-0.23625 0.17459-0.47107 0.26172-0.70508z" fill="#1e2729" stop-color="#000000" stroke="#ffffff" stroke-linecap="round" stroke-linejoin="round" stroke-width=".1"/>
 <path d="m41.219 30.377a0.34003 0.34003 0 0 0-0.12891 0.03125l-0.72852 0.33984a0.34003 0.34003 0 0 0-0.14062 0.49414c0.10354 0.15984 0.29009 0.50777 0.45117 0.79883h-3.9609a0.34003 0.34003 0 0 0-0.33984 0.33984v0.70117a0.34003 0.34003 0 0 0 0.33984 0.33984h1.543c0.31947 1.4502 0.97344 2.7368 1.9277 3.8613-0.86083 0.57498-2.0198 1.1306-3.6641 1.625a0.34003 0.34003 0 0 0-0.16797 0.53516c0.21281 0.26914 0.40103 0.51311 0.5625 0.73047a0.34003 0.34003 0 0 0 0.38672 0.11719c1.7949-0.64775 3.0672-1.2903 3.9707-1.9551 0.89645 0.66882 2.1233 1.2914 3.8281 1.8809a0.34003 0.34003 0 0 0 0.39062-0.12891c0.13853-0.20202 0.35216-0.46934 0.63672-0.79102a0.34003 0.34003 0 0 0-0.16602-0.55273c-1.6575-0.44084-2.7749-0.94496-3.5684-1.4629 0.92306-1.0345 1.5673-2.3169 1.9004-3.8594h1.5039a0.34003 0.34003 0 0 0 0.33984-0.33984v-0.70117a0.34003 0.34003 0 0 0-0.33984-0.33984h-3.5215a0.34003 0.34003 0 0 0 0.05078-0.16992c-0.35468-0.61436-0.62081-1.0575-0.80469-1.3398a0.34003 0.34003 0 0 0-0.30078-0.1543zm-1.4961 3.0449h3.0566c-0.27005 1.2001-0.76901 2.1783-1.4941 2.9512-0.76553-0.81464-1.2838-1.7936-1.5625-2.9512z" fill="#ffffff" stop-color="#000000" stroke="#000000" stroke-linecap="round" stroke-linejoin="round" stroke-width=".4"/>
 <path d="m49.025 26.5c2.2002 0 3.9707 1.7705 3.9707 3.9707v10.559c0 2.2002-1.7705 3.9707-3.9707 3.9707h-2.0293v3.6113a1.2501 1.2501 0 0 1-2.0488 0.96094l-5.4961-4.5723h-5.9844c-2.2002 0-3.9707-1.7705-3.9707-3.9707v-10.559c0-2.2002 1.7705-3.9707 3.9707-3.9707zm0 1h-15.559c-1.6637 0-2.9707 1.307-2.9707 2.9707v10.559c0 1.6637 1.307 2.9707 2.9707 2.9707h5.9844a1.0001 1.0001 0 0 1 0.63867 0.23047l5.4961 4.5723c0.21674 0.18 0.40998 0.09034 0.41016-0.19141v-3.6113a1.0001 1.0001 0 0 1 1-1h2.0293c1.6637 0 2.9707-1.307 2.9707-2.9707v-10.559c0-1.6637-1.307-2.9707-2.9707-2.9707z" fill="url(#linearGradient15)" opacity=".15" stop-color="#000000" stroke-linecap="round" stroke-linejoin="round" style="mix-blend-mode:normal"/>
</svg>
