<svg width="64" height="64" version="1.1" xmlns="http://www.w3.org/2000/svg" xmlns:xlink="http://www.w3.org/1999/xlink">
 <defs>
  <filter id="filter8" x="-.012" y="-.012" width="1.024" height="1.024" color-interpolation-filters="sRGB">
   <feGaussianBlur stdDeviation="0.074081873"/>
  </filter>
  <linearGradient id="linearGradient3" x1="8.4665" x2="8.4665" y1="1.0583" y2="15.875" gradientTransform="scale(3.7796)" gradientUnits="userSpaceOnUse">
   <stop stop-color="#3199e5" offset="0"/>
   <stop stop-color="#0a4faa" offset="1"/>
  </linearGradient>
  <linearGradient id="linearGradient10" x1="29.75" x2="29.75" y1="25" y2="47" gradientUnits="userSpaceOnUse">
   <stop stop-color="#ecf6ff" offset="0"/>
   <stop stop-color="#5a8fcb" offset="1"/>
  </linearGradient>
  <linearGradient id="linearGradient12" x1="42.25" x2="42.25" y1="18.035" y2="32.167" gradientUnits="userSpaceOnUse">
   <stop stop-color="#fedc4e" offset="0"/>
   <stop stop-color="#e3a300" offset="1"/>
  </linearGradient>
  <filter id="filter15" x="-.022792" y="-.033113" width="1.0456" height="1.0662" color-interpolation-filters="sRGB">
   <feGaussianBlur stdDeviation="0.365625"/>
  </filter>
  <linearGradient id="linearGradient16" x1="29.75" x2="29.75" y1="19.622" y2="47.877" gradientUnits="userSpaceOnUse">
   <stop stop-color="#ffffff" offset="0"/>
   <stop stop-color="#ffffff" stop-opacity=".6" offset="1"/>
  </linearGradient>
  <linearGradient id="linearGradient19" x1="42.25" x2="42.25" y1="15.5" y2="34" gradientUnits="userSpaceOnUse">
   <stop stop-color="#ffffff" offset="0"/>
   <stop stop-color="#ffffff" stop-opacity="0" offset="1"/>
  </linearGradient>
  <filter id="filter20" x="-.027" y="-.027" width="1.054" height="1.054" color-interpolation-filters="sRGB">
   <feGaussianBlur stdDeviation="0.241875"/>
  </filter>
  <filter id="filter21" x="-.2278" y="-.26038" width="1.4556" height="1.5208" color-interpolation-filters="sRGB">
   <feGaussianBlur stdDeviation="1.6324585"/>
  </filter>
  <linearGradient id="linearGradient21" x1="6.7452" x2="10.583" y1="1.0583" y2="11.312" gradientUnits="userSpaceOnUse">
   <stop stop-color="#52e3f7" offset="0"/>
   <stop stop-color="#52e3f7" stop-opacity="0" offset="1"/>
  </linearGradient>
  <linearGradient id="linearGradient22" x1="15.081" x2="12.7" y1="14.816" y2="12.171" gradientUnits="userSpaceOnUse">
   <stop stop-color="#1a9df1" offset="0"/>
   <stop stop-color="#1a9df1" stop-opacity="0" offset="1"/>
  </linearGradient>
 </defs>
 <path d="m20.26 4.0003c-5.782 0-9.7427 1.7243-12.321 4.5348-2.5651 2.7962-3.9387 6.8037-3.9387 11.341v24.248c0 4.5378 1.3734 8.5453 3.9387 11.341 2.5784 2.8103 6.5391 4.5348 12.321 4.5348h23.549c5.782 0 9.7427-1.7243 12.321-4.5348 2.5651-2.7962 3.8703-6.4352 3.8703-11.341v-23.337c0-5.9351-1.305-9.4562-3.8703-12.252-2.5784-2.8103-6.5391-4.5348-12.321-4.5348h-18.315z" fill="url(#linearGradient3)" stroke-width="3.7796"/>
 <circle cx="42.25" cy="26.25" r="10.75" fill="url(#linearGradient12)"/>
 <path d="m42.25 15.5a10.75 10.75 0 0 0-10.75 10.75 10.75 10.75 0 0 0 10.75 10.75 10.75 10.75 0 0 0 10.75-10.75 10.75 10.75 0 0 0-10.75-10.75zm0 1a9.75 9.75 0 0 1 9.75 9.75 9.75 9.75 0 0 1-9.75 9.75 9.75 9.75 0 0 1-9.75-9.75 9.75 9.75 0 0 1 9.75-9.75z" fill="url(#linearGradient19)" filter="url(#filter20)" style="mix-blend-mode:overlay"/>
 <path d="m27 20.5a10.75 10.75 0 0 0-10.721 9.9473 8.5 8.5 0 0 0-5.7793 8.0527 8.5 8.5 0 0 0 8.5 8.5h20v-0.003906a9.75 9.75 0 0 0 0.25 0.003906 9.75 9.75 0 0 0 9.75-9.75 9.75 9.75 0 0 0-9.75-9.75 9.75 9.75 0 0 0-2.0938 0.22656 10.75 10.75 0 0 0-10.156-7.2266z" fill="url(#linearGradient10)"/>
 <path d="m27 20.5a10.75 10.75 0 0 0-10.721 9.9473 8.5 8.5 0 0 0-5.7793 8.0527 8.5 8.5 0 0 0 8.5 8.5h20v-0.003906a9.75 9.75 0 0 0 0.25 0.003906 9.75 9.75 0 0 0 9.75-9.75 9.75 9.75 0 0 0-9.75-9.75 9.75 9.75 0 0 0-2.0938 0.22656 10.75 10.75 0 0 0-10.156-7.2266zm0 1c4.1567-2.9e-5 7.8485 2.6276 9.2109 6.5547a1.0001 1.0001 0 0 0 1.1602 0.64844c0.61716-0.13542 1.2471-0.20339 1.8789-0.20312 4.8443 0 8.75 3.9057 8.75 8.75 0 4.8437-3.9046 8.7489-8.748 8.75-0.0748-2.09e-4 -0.14789-0.001806-0.22266-0.003906a1.0001 1.0001 0 0 0-0.041016 0.015625l0.011719-0.011719h-20c-4.154 0-7.5-3.346-7.5-7.5 2.9e-5 -3.2208 2.0483-6.0746 5.0996-7.1055a1.0001 1.0001 0 0 0 0.67774-0.87305c0.38172-5.0976 4.6107-9.0218 9.7227-9.0215z" fill="url(#linearGradient16)" filter="url(#filter15)" stop-color="#000000" stroke-linecap="round" stroke-linejoin="round"/>
 <path d="m32.396 21.953a10.75 10.75 0 0 0-0.89648 4.2969 10.75 10.75 0 0 0 10.75 10.75 10.75 10.75 0 0 0 6.4492-2.1504 9.75 9.75 0 0 0-9.4492-7.3496 9.75 9.75 0 0 0-2.0938 0.22656 10.75 10.75 0 0 0-4.7598-5.7734z" fill="#f7e7b8" filter="url(#filter21)" style="mix-blend-mode:normal"/>
 <g transform="matrix(3.7796 0 0 3.7796 1.4097e-5 0)" filter="url(#filter8)" style="mix-blend-mode:normal">
  <path d="m5.3603 1.0583c-1.5298 0-2.5775 0.45637-3.2597 1.1999-0.67868 0.73981-1.0423 1.8002-1.0423 3.0008v6.415c0 1.2006 0.36361 2.2609 1.0423 3.0008 0.68219 0.74355 1.7299 1.1999 3.2597 1.1999h6.2305c1.5298 0 2.5775-0.45637 3.2597-1.1999 0.67868-0.73981 1.0242-1.7027 1.0242-3.0008v-6.1742c0-1.5703-0.34552-2.5018-1.0242-3.2416-0.68219-0.74355-1.7299-1.1999-3.2597-1.1999h-4.8456zm-0.00103 0.26406h6.2326c1.4772 0 2.437 0.43133 3.0644 1.1152 0.63411 0.69126 0.95341 1.5307 0.95341 3.0623v6.1742c0 1.2512-0.32181 2.1335-0.95341 2.822-0.6274 0.68381-1.5871 1.1136-3.0644 1.1136h-6.2326c-1.4772 0-2.437-0.42978-3.0644-1.1136-0.62537-0.68172-0.97253-1.6747-0.97253-2.822v-6.4145c0-1.1472 0.34717-2.1403 0.97253-2.822 0.6274-0.68381 1.5871-1.1152 3.0644-1.1152z" fill="url(#linearGradient22)"/>
  <path d="m5.3603 1.0583c-1.5298 0-2.5775 0.45637-3.2597 1.1999-0.67868 0.73981-1.0423 1.8002-1.0423 3.0008v6.415c0 1.2006 0.36361 2.2609 1.0423 3.0008 0.68219 0.74355 1.7299 1.1999 3.2597 1.1999h6.2305c1.5298 0 2.5775-0.45637 3.2597-1.1999 0.67868-0.73981 1.0242-1.7027 1.0242-3.0008v-6.1742c0-1.5703-0.34552-2.5018-1.0242-3.2416-0.68219-0.74355-1.7299-1.1999-3.2597-1.1999h-4.8456zm-0.00103 0.26406h6.2326c1.4772 0 2.437 0.43133 3.0644 1.1152 0.63411 0.69126 0.95341 1.5307 0.95341 3.0623v6.1742c0 1.2512-0.32181 2.1335-0.95341 2.822-0.6274 0.68381-1.5871 1.1136-3.0644 1.1136h-6.2326c-1.4772 0-2.437-0.42978-3.0644-1.1136-0.62537-0.68172-0.97253-1.6747-0.97253-2.822v-6.4145c0-1.1472 0.34717-2.1403 0.97253-2.822 0.6274-0.68381 1.5871-1.1152 3.0644-1.1152z" fill="url(#linearGradient21)"/>
 </g>
</svg>
