<svg width="64" height="64" version="1.1" viewBox="0 0 16.933 16.933" xmlns="http://www.w3.org/2000/svg" xmlns:xlink="http://www.w3.org/1999/xlink">
 <defs>
  <filter id="filter8" x="-.012" y="-.012" width="1.024" height="1.024" color-interpolation-filters="sRGB">
   <feGaussianBlur stdDeviation="0.074081873"/>
  </filter>
  <linearGradient id="linearGradient7" x1="6.7452" x2="10.583" y1="1.0583" y2="11.312" gradientUnits="userSpaceOnUse" xlink:href="#linearGradient6"/>
  <linearGradient id="linearGradient6">
   <stop stop-color="#ffffff" offset="0"/>
   <stop stop-color="#ffffff" stop-opacity="0" offset="1"/>
  </linearGradient>
  <linearGradient id="linearGradient8" x1="15.081" x2="12.7" y1="14.816" y2="12.171" gradientUnits="userSpaceOnUse" xlink:href="#linearGradient6"/>
  <linearGradient id="linearGradient3" x1="8.4665" x2="8.4665" y1="1.0583" y2="15.875" gradientUnits="userSpaceOnUse">
   <stop stop-color="#02c5fd" offset="0"/>
   <stop stop-color="#2f71f9" offset="1"/>
  </linearGradient>
  <linearGradient id="linearGradient11" x1="8.4665" x2="8.4665" y1="5.2916" y2="12.171" gradientUnits="userSpaceOnUse">
   <stop stop-color="#c4d8ec" offset="0"/>
   <stop stop-color="#4b90e9" offset="1"/>
  </linearGradient>
  <filter id="filter12" x="-.012" y="-.012" width="1.024" height="1.024" color-interpolation-filters="sRGB">
   <feGaussianBlur stdDeviation="0.074081873"/>
  </filter>
  <linearGradient id="linearGradient13" x1="8.4668" x2="8.4668" y1="4.7624" y2="9.5279" gradientUnits="userSpaceOnUse">
   <stop stop-color="#ffffff" offset="0"/>
   <stop stop-color="#bdd0ea" offset="1"/>
  </linearGradient>
  <linearGradient id="linearGradient15" x1="8.4668" x2="8.4668" y1="8.4063" y2="12.171" gradientUnits="userSpaceOnUse">
   <stop stop-color="#d9e7f6" offset="0"/>
   <stop stop-color="#99bff2" offset="1"/>
  </linearGradient>
  <linearGradient id="linearGradient23" x1="2.9104" x2="14.023" y1="8.4665" y2="8.4665" gradientUnits="userSpaceOnUse">
   <stop stop-color="#c2f5fe" offset="0"/>
   <stop stop-color="#91c3f8" offset="1"/>
  </linearGradient>
  <filter id="filter23" x="-.01" y="-.015" width="1.02" height="1.03" color-interpolation-filters="sRGB">
   <feGaussianBlur stdDeviation="0.046301174"/>
  </filter>
  <filter id="filter24" x="-.0088817" y="-.018493" width="1.0178" height="1.037" color-interpolation-filters="sRGB">
   <feGaussianBlur stdDeviation="0.0387346"/>
  </filter>
  <linearGradient id="linearGradient25" x1="5.3073" x2="14.134" y1="9.6971" y2="12.282" gradientUnits="userSpaceOnUse">
   <stop stop-color="#ffffff" offset="0"/>
   <stop stop-color="#ffffff" stop-opacity=".5" offset="1"/>
  </linearGradient>
  <filter id="filter25" x="-.01279" y="-.026629" width="1.0256" height="1.0533" color-interpolation-filters="sRGB">
   <feGaussianBlur stdDeviation="0.055778132"/>
  </filter>
  <filter id="filter26" x="-.079935" y="-.16643" width="1.1599" height="1.3329" color-interpolation-filters="sRGB">
   <feGaussianBlur stdDeviation="0.34861332"/>
  </filter>
  <clipPath id="clipPath26">
   <path d="m4.1041 4.7624c-0.041643 3.71e-5 -0.082467 0.00269-0.12299 0.00672-0.29454 0.030779-0.55659 0.16638-0.74774 0.36896l4.148 4.1955a1.533 1.5505 0 0 0 2.1714 0l4.1475-4.195c-0.21739-0.23067-0.52677-0.37476-0.87125-0.3762z" fill="url(#linearGradient27)" stroke-width="1.1116"/>
  </clipPath>
  <linearGradient id="linearGradient27" x1="8.4668" x2="8.4668" y1="4.7624" y2="9.7895" gradientUnits="userSpaceOnUse">
   <stop stop-color="#ffffff" offset="0"/>
   <stop stop-color="#dae6f3" offset="1"/>
  </linearGradient>
  <filter id="filter29" x="-.09" y="-.135" width="1.18" height="1.27" color-interpolation-filters="sRGB">
   <feGaussianBlur stdDeviation="0.41671056"/>
  </filter>
 </defs>
 <path d="m5.3603 1.0584c-1.5298 0-2.5777 0.45621-3.2599 1.1998-0.67868 0.73981-1.0421 1.8001-1.0421 3.0007v6.4154c0 1.2006 0.36337 2.2609 1.0421 3.0007 0.68219 0.74355 1.7301 1.1998 3.2599 1.1998h6.2306c1.5298 0 2.5777-0.45622 3.2599-1.1998 0.67868-0.73981 1.024-1.7026 1.024-3.0007v-6.1745c0-1.5703-0.34527-2.5019-1.024-3.2417-0.68219-0.74355-1.7301-1.1998-3.2599-1.1998h-4.8457z" fill="url(#linearGradient3)"/>
 <rect x="3.2333" y="5.1381" width="11.112" height="7.4082" rx="1.1988" ry="1.1897" fill="#000000" filter="url(#filter29)" opacity=".15" stroke-width="1.1299"/>
 <g filter="url(#filter8)" style="mix-blend-mode:overlay">
  <path d="m5.3603 1.0583c-1.5298 0-2.5775 0.45637-3.2597 1.1999-0.67868 0.73981-1.0423 1.8002-1.0423 3.0008v6.415c0 1.2006 0.36361 2.2609 1.0423 3.0008 0.68219 0.74355 1.7299 1.1999 3.2597 1.1999h6.2305c1.5298 0 2.5775-0.45637 3.2597-1.1999 0.67868-0.73981 1.0242-1.7027 1.0242-3.0008v-6.1742c0-1.5703-0.34552-2.5018-1.0242-3.2416-0.68219-0.74355-1.7299-1.1999-3.2597-1.1999h-4.8456zm-0.00103 0.26406h6.2326c1.4772 0 2.437 0.43133 3.0644 1.1152 0.63411 0.69126 0.95341 1.5307 0.95341 3.0623v6.1742c0 1.2512-0.32181 2.1335-0.95341 2.822-0.6274 0.68381-1.5871 1.1136-3.0644 1.1136h-6.2326c-1.4772 0-2.437-0.42978-3.0644-1.1136-0.62537-0.68172-0.97253-1.6747-0.97253-2.822v-6.4145c0-1.1472 0.34717-2.1403 0.97253-2.822 0.6274-0.68381 1.5871-1.1152 3.0644-1.1152z" fill="url(#linearGradient7)" opacity=".8"/>
  <path d="m5.3603 1.0583c-1.5298 0-2.5775 0.45637-3.2597 1.1999-0.67868 0.73981-1.0423 1.8002-1.0423 3.0008v6.415c0 1.2006 0.36361 2.2609 1.0423 3.0008 0.68219 0.74355 1.7299 1.1999 3.2597 1.1999h6.2305c1.5298 0 2.5775-0.45637 3.2597-1.1999 0.67868-0.73981 1.0242-1.7027 1.0242-3.0008v-6.1742c0-1.5703-0.34552-2.5018-1.0242-3.2416-0.68219-0.74355-1.7299-1.1999-3.2597-1.1999h-4.8456zm-0.00103 0.26406h6.2326c1.4772 0 2.437 0.43133 3.0644 1.1152 0.63411 0.69126 0.95341 1.5307 0.95341 3.0623v6.1742c0 1.2512-0.32181 2.1335-0.95341 2.822-0.6274 0.68381-1.5871 1.1136-3.0644 1.1136h-6.2326c-1.4772 0-2.437-0.42978-3.0644-1.1136-0.62537-0.68172-0.97253-1.6747-0.97253-2.822v-6.4145c0-1.1472 0.34717-2.1403 0.97253-2.822 0.6274-0.68381 1.5871-1.1152 3.0644-1.1152z" fill="url(#linearGradient8)" opacity=".8"/>
 </g>
 <rect x="2.9104" y="4.7624" width="11.112" height="7.4082" rx="1.1988" ry="1.1897" fill="url(#linearGradient11)" stroke-width="1.1299"/>
 <path d="m4.1092 4.7624c-0.66416 0-1.1989 0.53046-1.1989 1.1896v5.0291c0 0.65911 0.53471 1.1896 1.1989 1.1896h8.7145c0.66416 0 1.1989-0.53046 1.1989-1.1896v-5.0291c0-0.65911-0.53471-1.1896-1.1989-1.1896zm0 0.26509h8.7151c0.52324 0 0.93377 0.40742 0.93377 0.92344v5.0296c0 0.51602-0.41054 0.92551-0.93377 0.92551h-8.7151c-0.52324 0-0.93326-0.40948-0.93326-0.92551v-5.0296c0-0.51602 0.41002-0.92344 0.93326-0.92344z" fill="url(#linearGradient23)" filter="url(#filter23)" stop-color="#000000" style="mix-blend-mode:normal"/>
 <path d="m4.1041 12.171c-0.041643-3.7e-5 -0.082467-0.002694-0.12299-0.006718-0.29454-0.030779-0.55659-0.16638-0.74774-0.36896l4.148-4.1955a1.533 1.5505 0 0 1 2.1714 0l4.1475 4.195c-0.21739 0.23067-0.52677 0.37475-0.87125 0.3762z" fill="url(#linearGradient15)" stroke-width="1.1116"/>
 <path d="m8.467 7.1436a1.533 1.5505 0 0 0-1.0857 0.45578l-4.148 4.1955c0.19115 0.20259 0.45321 0.33818 0.74774 0.36896 0.040521 0.004024 0.081345 0.006681 0.12299 0.006718h8.7249c0.34447-0.001444 0.65386-0.14553 0.87125-0.3762l-4.1475-4.195a1.533 1.5505 0 0 0-1.0857-0.45578zm0 0.26251c0.32401 0 0.64887 0.12589 0.89812 0.37878l3.8906 3.9377c-0.13582 0.07775-0.25721 0.18273-0.42787 0.18345h-8.7244c-0.030542-2.7e-5 -0.061072-0.002185-0.0956-0.005685-0.1348-0.01405-0.22938-0.10412-0.34002-0.16794l3.9025-3.9475c0.24925-0.25289 0.57256-0.37878 0.89657-0.37878z" fill="url(#linearGradient25)" filter="url(#filter24)" stop-color="#000000"/>
 <path d="m4.1041 4.7624c-0.041643 3.7e-5 -0.082467 0.0026939-0.12299 0.0067179-0.29454 0.030779-0.55659 0.16638-0.74774 0.36896l4.148 4.1955a1.533 1.5505 0 0 0 2.1714 0l4.1475-4.195c-0.21739-0.23067-0.52677-0.37475-0.87125-0.3762h-8.7249z" fill="url(#linearGradient13)" stroke-width="1.1116"/>
 <g filter="url(#filter12)" opacity=".5" style="mix-blend-mode:normal">
  <path d="m5.3603 1.0583c-1.5298 0-2.5775 0.45637-3.2597 1.1999-0.67868 0.73981-1.0423 1.8002-1.0423 3.0008v6.415c0 1.2006 0.36361 2.2609 1.0423 3.0008 0.68219 0.74355 1.7299 1.1999 3.2597 1.1999h6.2305c1.5298 0 2.5775-0.45637 3.2597-1.1999 0.67868-0.73981 1.0242-1.7027 1.0242-3.0008v-6.1742c0-1.5703-0.34552-2.5018-1.0242-3.2416-0.68219-0.74355-1.7299-1.1999-3.2597-1.1999h-4.8456zm-0.00103 0.26406h6.2326c1.4772 0 2.437 0.43133 3.0644 1.1152 0.63411 0.69126 0.95341 1.5307 0.95341 3.0623v6.1742c0 1.2512-0.32181 2.1335-0.95341 2.822-0.6274 0.68381-1.5871 1.1136-3.0644 1.1136h-6.2326c-1.4772 0-2.437-0.42978-3.0644-1.1136-0.62537-0.68172-0.97253-1.6747-0.97253-2.822v-6.4145c0-1.1472 0.34717-2.1403 0.97253-2.822 0.6274-0.68381 1.5871-1.1152 3.0644-1.1152z" fill="url(#linearGradient7)" opacity=".8"/>
  <path d="m5.3603 1.0583c-1.5298 0-2.5775 0.45637-3.2597 1.1999-0.67868 0.73981-1.0423 1.8002-1.0423 3.0008v6.415c0 1.2006 0.36361 2.2609 1.0423 3.0008 0.68219 0.74355 1.7299 1.1999 3.2597 1.1999h6.2305c1.5298 0 2.5775-0.45637 3.2597-1.1999 0.67868-0.73981 1.0242-1.7027 1.0242-3.0008v-6.1742c0-1.5703-0.34552-2.5018-1.0242-3.2416-0.68219-0.74355-1.7299-1.1999-3.2597-1.1999h-4.8456zm-0.00103 0.26406h6.2326c1.4772 0 2.437 0.43133 3.0644 1.1152 0.63411 0.69126 0.95341 1.5307 0.95341 3.0623v6.1742c0 1.2512-0.32181 2.1335-0.95341 2.822-0.6274 0.68381-1.5871 1.1136-3.0644 1.1136h-6.2326c-1.4772 0-2.437-0.42978-3.0644-1.1136-0.62537-0.68172-0.97253-1.6747-0.97253-2.822v-6.4145c0-1.1472 0.34717-2.1403 0.97253-2.822 0.6274-0.68381 1.5871-1.1152 3.0644-1.1152z" fill="url(#linearGradient8)" opacity=".8"/>
 </g>
 <path d="m4.1041 4.7624c-0.041643 3.7e-5 -0.082467 0.0026879-0.12299 0.0067179-0.29454 0.030779-0.55659 0.16638-0.74774 0.36896l4.148 4.1955a1.533 1.5505 0 0 0 2.1714 0l4.1475-4.195c-0.21739-0.23067-0.52677-0.37475-0.87125-0.3762h-8.7249zm-5.168e-4 0.26509h8.7244c0.17066 7.153e-4 0.29205 0.10569 0.42787 0.18345l-3.8906 3.9377c-0.49849 0.50578-1.2962 0.50578-1.7947 0l-3.9025-3.9475c0.11065-0.063831 0.20522-0.15386 0.34002-0.16795 0.034528-0.00343 0.065057-0.0056549 0.0956-0.0056843z" fill="#ffffff" filter="url(#filter25)" stop-color="#000000"/>
 <path d="m4.1041 12.171c-0.041643-3.7e-5 -0.082467-0.002694-0.12299-0.006718-0.29454-0.030779-0.55659-0.16638-0.74774-0.36896l4.148-4.1955a1.533 1.5505 0 0 1 2.1714 0l4.1475 4.195c-0.21739 0.23067-0.52677 0.37475-0.87125 0.3762z" clip-path="url(#clipPath26)" fill="#ffffff" filter="url(#filter26)" opacity=".68" stroke-width="1.1116"/>
 <path d="m5.7482 5.8117 0.1122-0.30901h0.045626l0.11365 0.30901h-0.041478l-0.030901-0.086275h-0.12734l-0.029864 0.086275zm0.083786-0.1207h0.10307l-0.022398-0.062632q-0.0056-0.015554-0.012651-0.037953-0.00705-0.022606-0.017006-0.056203-0.00975 0.03422-0.017006 0.057033-0.00726 0.022813-0.012236 0.037123zm0.23124 0.20739v-0.31855h0.036086v0.037123h0.00415q0.00394-0.00622 0.010992-0.015554 0.00705-0.00954 0.020324-0.017006 0.013273-0.00747 0.035879-0.00747 0.029035 0 0.051018 0.014518 0.022191 0.014517 0.034634 0.041478 0.012651 0.026754 0.012651 0.063462 0 0.036916-0.012443 0.063877-0.012444 0.026961-0.034634 0.041686-0.021983 0.014725-0.051018 0.014725-0.021983 0-0.035464-0.00747-0.01348-0.00767-0.020739-0.017213-0.00726-0.00975-0.011199-0.016177h-0.0029v0.12257zm0.10204-0.1151q0.021776 0 0.036294-0.011614 0.014725-0.011821 0.021984-0.031524 0.00747-0.01991 0.00747-0.044174 0-0.024057-0.00726-0.043345-0.00726-0.019495-0.021984-0.030901-0.014518-0.011406-0.036501-0.011406-0.031938 0-0.04853 0.023643-0.016591 0.023643-0.016591 0.06201 0 0.038782 0.016799 0.063047t0.048322 0.024265zm0.15803 0.1151v-0.31855h0.036086v0.037123h0.00415q0.00394-0.00622 0.010992-0.015554 0.00705-0.00954 0.020324-0.017006 0.013273-0.00747 0.035879-0.00747 0.029035 0 0.051018 0.014518 0.022191 0.014517 0.034634 0.041478 0.012651 0.026754 0.012651 0.063462 0 0.036916-0.012443 0.063877-0.012444 0.026961-0.034634 0.041686-0.021983 0.014725-0.051018 0.014725-0.021983 0-0.035464-0.00747-0.01348-0.00767-0.020739-0.017213-0.00726-0.00975-0.011199-0.016177h-0.0029v0.12257zm0.10204-0.1151q0.021776 0 0.036294-0.011614 0.014725-0.011821 0.021984-0.031524 0.00747-0.01991 0.00747-0.044174 0-0.024057-0.00726-0.043345-0.00726-0.019495-0.021984-0.030901-0.014517-0.011406-0.036501-0.011406-0.031938 0-0.04853 0.023643-0.016591 0.023643-0.016591 0.06201 0 0.038782 0.016799 0.063047t0.048322 0.024265zm0.19536-0.2806v0.30901h-0.03733v-0.30901zm0.16301 0.31399q-0.033597 0-0.05807-0.014932-0.024265-0.014932-0.037538-0.041686-0.013066-0.026753-0.013066-0.062425 0-0.035671 0.012858-0.06284 0.012858-0.027168 0.036294-0.042515 0.023643-0.015347 0.055166-0.015347 0.018458 0 0.036294 0.00622 0.018043 0.00601 0.03256 0.019702 0.014725 0.01348 0.023435 0.035671t0.00871 0.054337v0.015554h-0.16757q0.00145 0.036294 0.020739 0.055788 0.019495 0.019287 0.050396 0.019287 0.020532 0 0.035257-0.00892 0.014932-0.00913 0.021361-0.026753l0.036086 0.00995q-0.00809 0.026339-0.032768 0.042723-0.024472 0.016177-0.060144 0.016177zm-0.07072-0.13978h0.12941q-0.0027-0.029657-0.018665-0.048115-0.015762-0.018665-0.044382-0.018665-0.01991 0-0.034427 0.00933-0.01431 0.00933-0.022606 0.024472-0.0083 0.01514-0.00933 0.032975zm0.34489 0.1348v-0.30901h0.10577q0.036086 0 0.059314 0.013273 0.023435 0.013066 0.034634 0.035257 0.011406 0.022191 0.011406 0.049774t-0.011406 0.049981q-0.011199 0.022398-0.034427 0.035671t-0.059314 0.013273h-0.066573v0.11178zm0.039404-0.14642h0.064706q0.036708 0 0.052263-0.01825 0.015554-0.018458 0.015554-0.046041 0-0.027376-0.015554-0.045419-0.015554-0.01825-0.052678-0.01825h-0.064291zm0.29221 0.15181q-0.021983 0-0.040027-0.0083-0.017836-0.0083-0.028413-0.024265-0.010577-0.015969-0.010577-0.038782 0-0.01991 0.00788-0.032353t0.020946-0.019495q0.013273-0.00726 0.029242-0.010784 0.015969-0.00353 0.032146-0.0056 0.020739-0.0027 0.033805-0.00415t0.019287-0.00498q0.00643-0.00353 0.00643-0.012029v-0.00124q0-0.021569-0.012236-0.03339-0.012236-0.012029-0.036294-0.012029-0.025094 0-0.039197 0.010992-0.014103 0.010784-0.019495 0.02302l-0.035876-0.011816q0.00892-0.021154 0.024058-0.032975 0.01514-0.012029 0.03339-0.017006 0.01825-0.00498 0.036086-0.00498 0.011614 0 0.026339 0.0029 0.014932 0.0027 0.02862 0.010992 0.013895 0.0083 0.022813 0.02468 0.00913 0.016176 0.00913 0.043345v0.15285h-0.036708v-0.031524h-0.00249q-0.00394 0.00809-0.012651 0.016799-0.00871 0.0085-0.022606 0.01431-0.013895 0.00581-0.033597 0.00581zm0.00643-0.032975q0.020739 0 0.035049-0.00809t0.021776-0.020947q0.00747-0.013066 0.00747-0.027168v-0.032146q-0.00228 0.0027-0.00995 0.00498-0.00767 0.00207-0.017628 0.00373-0.00975 0.00166-0.01908 0.0029-0.00913 0.00104-0.014517 0.00166-0.01348 0.00166-0.025302 0.00581-0.011614 0.00394-0.018665 0.011821-0.00705 0.00767-0.00705 0.020946 0 0.018043 0.01348 0.027376 0.013688 0.00913 0.034427 0.00913zm0.16716 0.027583v-0.23186h0.036086v0.035671h0.00249q0.00643-0.017628 0.022813-0.028205 0.016591-0.010784 0.037331-0.010784 0.00415 0 0.00975 2.074e-4 0.00581 2.073e-4 0.00913 4.147e-4v0.037538q-0.00166-4.148e-4 -0.0083-0.00124-0.00664-8.296e-4 -0.014103-8.296e-4 -0.025094 0-0.041478 0.015347-0.016384 0.01514-0.016384 0.038575v0.14517zm0.25779-0.23186v0.031938h-0.0477v0.13978q0 0.015554 0.00622 0.022813 0.00643 0.00705 0.021154 0.00705 0.00353 0 0.00892-8.296e-4 0.0056-8.296e-4 0.010162-0.00166l0.00767 0.031523q-0.00581 0.00207-0.013273 0.00311-0.00726 0.00104-0.014517 0.00104-0.030072 0-0.04687-0.015762-0.016799-0.015969-0.016799-0.044382v-0.14268h-0.034842v-0.031938h0.034842v-0.055166h0.03733v0.055166zm0.29678 0.23601q-0.039612 0-0.070721-0.01908-0.030901-0.019287-0.048737-0.054751-0.017628-0.035671-0.017628-0.084616 0-0.049152 0.017628-0.084616 0.017836-0.035671 0.048737-0.054959 0.031109-0.019287 0.070721-0.019287 0.031316 0 0.057447 0.012236 0.026339 0.012029 0.043967 0.034634 0.017836 0.022606 0.023228 0.054544h-0.039404q-0.00436-0.021154-0.017006-0.035671-0.012443-0.014517-0.030279-0.021776-0.017836-0.00747-0.037953-0.00747-0.027791 0-0.050189 0.014103t-0.035464 0.041478q-0.013066 0.027168-0.013066 0.06678 0 0.039404 0.013066 0.06678 0.013273 0.027168 0.035671 0.041271 0.022398 0.013895 0.049981 0.013895 0.020324 0 0.037953-0.00747 0.017836-0.00747 0.030279-0.021984 0.012651-0.014517 0.017006-0.035464h0.039404q-0.00539 0.031316-0.02302 0.054129-0.017421 0.022813-0.04376 0.035049-0.026131 0.012236-0.057862 0.012236zm0.24555 0.00124q-0.021983 0-0.040027-0.0083-0.017836-0.0083-0.028413-0.024265-0.010577-0.015969-0.010577-0.038782 0-0.01991 0.00788-0.032353t0.020947-0.019495q0.013273-0.00726 0.029242-0.010784 0.015969-0.00353 0.032146-0.0056 0.020739-0.0027 0.033805-0.00415t0.019287-0.00498q0.00643-0.00353 0.00643-0.012029v-0.00124q0-0.021569-0.012236-0.03339-0.012236-0.012029-0.036294-0.012029-0.025094 0-0.039197 0.010992-0.014103 0.010784-0.019495 0.02302l-0.035879-0.011821q0.00892-0.021154 0.024057-0.032975 0.01514-0.012029 0.03339-0.017006 0.018251-0.00498 0.036086-0.00498 0.011614 0 0.026339 0.0029 0.014932 0.0027 0.02862 0.010992 0.013895 0.0083 0.022813 0.02468 0.00913 0.016176 0.00913 0.043345v0.15285h-0.036708v-0.031524h-0.00249q-0.00394 0.00809-0.012651 0.016799-0.00871 0.0085-0.022606 0.01431-0.013895 0.00581-0.033597 0.00581zm0.00643-0.032975q0.020739 0 0.035049-0.00809t0.021776-0.020947q0.00747-0.013066 0.00747-0.027168v-0.032146q-0.00228 0.0027-0.00995 0.00498-0.00767 0.00207-0.017628 0.00373-0.00975 0.00166-0.01908 0.0029-0.00913 0.00104-0.014517 0.00166-0.01348 0.00166-0.025302 0.00581-0.011614 0.00394-0.018665 0.011821-0.00705 0.00767-0.00705 0.020946 0 0.018043 0.01348 0.027376 0.013688 0.00913 0.034427 0.00913zm0.20449-0.28143v0.30901h-0.03733v-0.30901zm0.10287 0v0.30901h-0.03733v-0.30901zm0.1599 0.31399q-0.031524 0-0.055373-0.014932-0.023643-0.014932-0.036916-0.041893t-0.013273-0.062632q0-0.036294 0.013273-0.063255 0.013273-0.027168 0.036916-0.0421 0.02385-0.014932 0.055373-0.014932 0.031731 0 0.055581 0.014932t0.037123 0.0421q0.013273 0.026961 0.013273 0.063255 0 0.035671-0.013273 0.062632t-0.037123 0.041893-0.055581 0.014932zm0-0.03339q0.023435 0 0.038575-0.012029t0.022398-0.031524q0.00726-0.019702 0.00726-0.042515 0-0.02302-0.00726-0.042723-0.00726-0.01991-0.022398-0.031938-0.01514-0.012236-0.038575-0.012236-0.023228 0-0.03816 0.012236-0.014932 0.012029-0.022191 0.031731-0.00726 0.019702-0.00726 0.04293 0 0.022813 0.00726 0.042515 0.00726 0.019495 0.022191 0.031524 0.014932 0.012029 0.03816 0.012029zm0.16031 0.028413v-0.23186h0.036086v0.035671h0.00249q0.00643-0.017628 0.022813-0.028205 0.016591-0.010784 0.03733-0.010784 0.00415 0 0.00975 2.074e-4 0.00581 2.073e-4 0.00913 4.147e-4v0.037538q-0.00166-4.148e-4 -0.0083-0.00124-0.00664-8.296e-4 -0.014103-8.296e-4 -0.025094 0-0.041478 0.015347-0.016384 0.01514-0.016384 0.038575v0.14517zm0.16654 0v-0.23186h0.036086v0.035671h0.00249q0.00643-0.017628 0.022813-0.028205 0.016591-0.010784 0.03733-0.010784 0.00415 0 0.00975 2.074e-4 0.00581 2.073e-4 0.00913 4.147e-4v0.037538q-0.00166-4.148e-4 -0.0083-0.00124-0.00664-8.296e-4 -0.014103-8.296e-4 -0.025094 0-0.041478 0.015347-0.016384 0.01514-0.016384 0.038575v0.14517zm0.16405 0v-0.23186h0.03733v0.23186zm0.018873-0.26982q-0.010577 0-0.018251-0.00726-0.00767-0.00726-0.00767-0.017421 0-0.01037 0.00767-0.017421 0.00767-0.00726 0.018251-0.00726 0.010784 0 0.018458 0.00726 0.00767 0.00705 0.00767 0.017421 0 0.010162-0.00767 0.017421-0.00767 0.00726-0.018458 0.00726zm0.14891 0.27521q-0.021984 0-0.040027-0.0083-0.017836-0.0083-0.028413-0.024265-0.010577-0.015969-0.010577-0.038782 0-0.01991 0.00788-0.032353t0.020947-0.019495q0.013273-0.00726 0.029242-0.010784 0.015969-0.00353 0.032146-0.0056 0.020739-0.0027 0.033805-0.00415t0.019287-0.00498q0.00643-0.00353 0.00643-0.012029v-0.00124q0-0.021569-0.012236-0.03339-0.012236-0.012029-0.036293-0.012029-0.025094 0-0.039197 0.010992-0.014103 0.010784-0.019495 0.02302l-0.035879-0.011821q0.00892-0.021154 0.024057-0.032975 0.01514-0.012029 0.03339-0.017006 0.01825-0.00498 0.036086-0.00498 0.011614 0 0.026339 0.0029 0.014932 0.0027 0.02862 0.010992 0.013895 0.0083 0.022813 0.02468 0.00913 0.016176 0.00913 0.043345v0.15286h-0.036713v-0.031524h-0.00249q-0.00394 0.00809-0.012651 0.016799-0.00871 0.0085-0.022606 0.01431-0.013895 0.00581-0.033597 0.00581zm0.00643-0.032975q0.020739 0 0.035049-0.00809t0.021776-0.020947q0.00747-0.013066 0.00747-0.027168v-0.032146q-0.00228 0.0027-0.00995 0.00498-0.00767 0.00207-0.017628 0.00373-0.00975 0.00166-0.01908 0.0029-0.00913 0.00104-0.014517 0.00166-0.013481 0.00166-0.025302 0.00581-0.011614 0.00394-0.018665 0.011821-0.00705 0.00767-0.00705 0.020946 0 0.018043 0.01348 0.027376 0.013688 0.00913 0.034427 0.00913zm0.38782 0.031731q-0.05164 0-0.080261-0.041478-0.028413-0.041478-0.028413-0.11697 0-0.075076 0.02862-0.11697 0.028828-0.041893 0.080053-0.041893 0.051433 0 0.080053 0.041893t0.02862 0.11697q0 0.075491-0.028413 0.11697-0.028413 0.041478-0.08026 0.041478zm0-0.034427q0.034012 0 0.052263-0.03256 0.018458-0.032768 0.018458-0.09146 0-0.059107-0.018458-0.091874-0.01825-0.032768-0.052263-0.032768-0.033805 0-0.052263 0.032975-0.018458 0.032768-0.018458 0.091667 0 0.058692 0.018458 0.09146 0.018458 0.03256 0.052263 0.03256zm0.25758 0.034427q-0.02717 0-0.04874-0.010577-0.02157-0.010784-0.03443-0.029242-0.01286-0.018665-0.01389-0.042308h0.03816q0.0019 0.020739 0.01867 0.03422 0.01701 0.013273 0.04023 0.013273 0.01867 0 0.03318-0.00871 0.01472-0.00871 0.02302-0.024057t0.0083-0.034842q0-0.01991-0.0087-0.035671-0.0087-0.015762-0.02385-0.02468-0.01493-0.00913-0.03443-0.00913-0.01431 0-0.02904 0.00456-0.01472 0.00456-0.02385 0.011614l-0.03691-0.00456 0.01825-0.15305h0.1626v0.034634h-0.12941l-0.01058 0.090215h0.0017q0.0095-0.00788 0.02406-0.012858 0.01452-0.00518 0.03049-0.00518 0.02841 0 0.0506 0.013481 0.02219 0.013273 0.03484 0.036708 0.01286 0.023435 0.01286 0.0533 0 0.029657-0.01348 0.052885-0.01327 0.023228-0.0365 0.036708-0.02323 0.013273-0.05309 0.013273zm0.26235 0q-0.05164 0-0.08026-0.041478-0.02841-0.041478-0.02841-0.11697 0-0.075076 0.02862-0.11697 0.02883-0.041893 0.08005-0.041893 0.05143 0 0.08005 0.041893t0.02862 0.11697q0 0.075491-0.02841 0.11697-0.02841 0.041478-0.08026 0.041478zm0-0.034427q0.03401 0 0.05226-0.03256 0.01846-0.032768 0.01846-0.09146 0-0.059107-0.01846-0.091874-0.01825-0.032768-0.05226-0.032768-0.0338 0-0.05226 0.032975-0.01846 0.032768-0.01846 0.091667 0 0.058692 0.01846 0.09146 0.01846 0.03256 0.05226 0.03256zm0.2694-0.27873v0.30901h-0.03878v-0.27251h-0.0021l-0.07466 0.055373v-0.042308l0.06719-0.049567zm0.06222 0.24617v-0.032146l0.13522-0.21403h0.04791v0.21154h0.04189v0.034634h-0.04189v0.06284h-0.03774v-0.06284zm0.14558-0.034635v-0.16218h-0.0025l-0.101 0.15969v0.00249z" fill="#dce7ef"/>
</svg>
