<svg width="64" height="64" version="1.1" xmlns="http://www.w3.org/2000/svg" xmlns:xlink="http://www.w3.org/1999/xlink">
 <defs>
  <linearGradient id="linearGradient6">
   <stop stop-color="#ffffff" offset="0"/>
   <stop stop-color="#ffffff" stop-opacity="0" offset="1"/>
  </linearGradient>
  <filter id="filter8-7" x="-.012" y="-.012" width="1.024" height="1.024" color-interpolation-filters="sRGB">
   <feGaussianBlur stdDeviation="0.074081873"/>
  </filter>
  <linearGradient id="linearGradient7-8" x1="2.5981" x2="10.583" y1="2.8356" y2="11.312" gradientUnits="userSpaceOnUse" xlink:href="#linearGradient6"/>
  <linearGradient id="linearGradient8-0" x1="15.081" x2="12.7" y1="14.816" y2="12.171" gradientUnits="userSpaceOnUse" xlink:href="#linearGradient6"/>
  <linearGradient id="linearGradient3" x1="8.4665" x2="8.4665" y1="1.0583" y2="15.875" gradientTransform="scale(3.7796)" gradientUnits="userSpaceOnUse">
   <stop stop-color="#323131" offset="0"/>
   <stop stop-color="#141414" offset="1"/>
  </linearGradient>
  <linearGradient id="linearGradient18" x1="14" x2="50" y1="32" y2="32" gradientUnits="userSpaceOnUse">
   <stop stop-color="#fa6f58" offset="0"/>
   <stop stop-color="#f95946" offset="1"/>
  </linearGradient>
  <linearGradient id="linearGradient20" x1="50" x2="14" y1="31" y2="31" gradientUnits="userSpaceOnUse">
   <stop stop-color="#ffb90b" offset="0"/>
   <stop stop-color="#ffd00d" offset="1"/>
  </linearGradient>
  <linearGradient id="linearGradient22" x1="49.515" x2="14" y1="24" y2="24" gradientUnits="userSpaceOnUse">
   <stop stop-color="#0796e7" offset="0"/>
   <stop stop-color="#1cabfd" offset="1"/>
  </linearGradient>
  <linearGradient id="linearGradient25" x1="32" x2="32" y1="16" y2="37" gradientUnits="userSpaceOnUse">
   <stop stop-color="#dcd8cf" offset="0"/>
   <stop stop-color="#bea397" offset="1"/>
  </linearGradient>
  <linearGradient id="linearGradient28" x1="39.17" x2="42.333" y1="33.219" y2="41" gradientUnits="userSpaceOnUse">
   <stop stop-color="#ffffff" offset="0"/>
   <stop stop-color="#ffffff" stop-opacity="0" offset="1"/>
  </linearGradient>
  <filter id="filter28" x="-.0082857" y="-.02175" width="1.0166" height="1.0435" color-interpolation-filters="sRGB">
   <feGaussianBlur stdDeviation="0.145"/>
  </filter>
  <linearGradient id="linearGradient30" x1="14.558" x2="22.572" y1="17.65" y2="35.036" gradientUnits="userSpaceOnUse">
   <stop stop-color="#ffffff" offset="0"/>
   <stop stop-color="#ffffff" stop-opacity="0" offset="1"/>
  </linearGradient>
  <filter id="filter30" x="-.010571" y="-.013875" width="1.0211" height="1.0278" color-interpolation-filters="sRGB">
   <feGaussianBlur stdDeviation="0.185"/>
  </filter>
  <filter id="filter31" x="-.081" y="-.162" width="1.162" height="1.324" color-interpolation-filters="sRGB">
   <feGaussianBlur stdDeviation="1.215"/>
  </filter>
  <clipPath id="clipPath31">
   <path d="m11 32v11c0 2.77 2.23 5 5 5h32c2.77 0 5-2.23 5-5v-11h-9c-2.0308 0-4.6053 6.51e-4 -7.3594 3.6465-2.3082 3.0556-6.9731 3.0556-9.2812 0-2.754-3.6458-5.3286-3.6465-7.3594-3.6465z" fill="#d8d2c9" stroke-linecap="round" stroke-linejoin="round" stroke-width="2" style="paint-order:fill markers stroke"/>
  </clipPath>
 </defs>
 <path d="m20.26 4.0003c-5.782 0-9.7427 1.7243-12.321 4.5348-2.5651 2.7962-3.9387 6.8037-3.9387 11.341v24.248c0 4.5378 1.3734 8.5453 3.9387 11.341 2.5784 2.8103 6.5391 4.5348 12.321 4.5348h23.549c5.782 0 9.7427-1.7243 12.321-4.5348 2.5651-2.7962 3.8703-6.4352 3.8703-11.341v-23.337c0-5.9351-1.305-9.4562-3.8703-12.252-2.5784-2.8103-6.5391-4.5348-12.321-4.5348h-18.315z" fill="url(#linearGradient3)" stroke-width="3.7796"/>
 <g transform="scale(3.7796)" filter="url(#filter8-7)" opacity=".35">
  <path d="m5.3603 1.0583c-1.5298 0-2.5775 0.45637-3.2597 1.1999-0.67868 0.73981-1.0423 1.8002-1.0423 3.0008v6.415c0 1.2006 0.36361 2.2609 1.0423 3.0008 0.68219 0.74355 1.7299 1.1999 3.2597 1.1999h6.2305c1.5298 0 2.5775-0.45637 3.2597-1.1999 0.67868-0.73981 1.0242-1.7027 1.0242-3.0008v-6.1742c0-1.5703-0.34552-2.5018-1.0242-3.2416-0.68219-0.74355-1.7299-1.1999-3.2597-1.1999h-4.8456zm-0.00103 0.26406h6.2326c1.4772 0 2.437 0.43133 3.0644 1.1152 0.63411 0.69126 0.95341 1.5307 0.95341 3.0623v6.1742c0 1.2512-0.32181 2.1335-0.95341 2.822-0.6274 0.68381-1.5871 1.1136-3.0644 1.1136h-6.2326c-1.4772 0-2.437-0.42978-3.0644-1.1136-0.62537-0.68172-0.97253-1.6747-0.97253-2.822v-6.4145c0-1.1472 0.34717-2.1403 0.97253-2.822 0.6274-0.68381 1.5871-1.1152 3.0644-1.1152z" fill="url(#linearGradient7-8)"/>
  <path d="m5.3603 1.0583c-1.5298 0-2.5775 0.45637-3.2597 1.1999-0.67868 0.73981-1.0423 1.8002-1.0423 3.0008v6.415c0 1.2006 0.36361 2.2609 1.0423 3.0008 0.68219 0.74355 1.7299 1.1999 3.2597 1.1999h6.2305c1.5298 0 2.5775-0.45637 3.2597-1.1999 0.67868-0.73981 1.0242-1.7027 1.0242-3.0008v-6.1742c0-1.5703-0.34552-2.5018-1.0242-3.2416-0.68219-0.74355-1.7299-1.1999-3.2597-1.1999h-4.8456zm-0.00103 0.26406h6.2326c1.4772 0 2.437 0.43133 3.0644 1.1152 0.63411 0.69126 0.95341 1.5307 0.95341 3.0623v6.1742c0 1.2512-0.32181 2.1335-0.95341 2.822-0.6274 0.68381-1.5871 1.1136-3.0644 1.1136h-6.2326c-1.4772 0-2.437-0.42978-3.0644-1.1136-0.62537-0.68172-0.97253-1.6747-0.97253-2.822v-6.4145c0-1.1472 0.34717-2.1403 0.97253-2.822 0.6274-0.68381 1.5871-1.1152 3.0644-1.1152z" fill="url(#linearGradient8-0)" stroke-width="1.0001"/>
 </g>
 <rect x="11" y="16" width="42" height="32" rx="5" ry="5" fill="url(#linearGradient25)" stroke-linecap="round" stroke-linejoin="round" stroke-width="2" style="paint-order:fill markers stroke"/>
 <path d="m16 16c-2.77 0-5 2.23-5 5v22c0 2.77 2.23 5 5 5h32c2.77 0 5-2.23 5-5v-22c0-2.77-2.23-5-5-5h-32zm0 0.80078h32c2.3406 0 4.1992 1.8586 4.1992 4.1992v22c0 2.3406-1.8586 4.1992-4.1992 4.1992h-32c-2.3406 0-4.1992-1.8586-4.1992-4.1992v-22c0-2.3406 1.8586-4.1992 4.1992-4.1992z" fill="url(#linearGradient30)" filter="url(#filter30)" stop-color="#000000" stroke-linecap="round" stroke-linejoin="round" style="paint-order:fill markers stroke"/>
 <rect x="14" y="19" width="36" height="16" rx="2.4749" ry="2.4749" fill="url(#linearGradient22)" stroke-linecap="round" stroke-linejoin="round" stroke-width="2" style="paint-order:fill markers stroke"/>
 <path d="m16.494 19.422c-1.2118 0-2.1934 0.98154-2.1934 2.1934v13.012c0 1.2118 0.98154 2.1934 2.1934 2.1934h31.012c1.2118 0 2.1934-0.98154 2.1934-2.1934v-13.012c0-1.2118-0.98154-2.1934-2.1934-2.1934zm0 0.39844h31.012c0.99714 0 1.7949 0.79778 1.7949 1.7949v13.012c0 0.99714-0.79778 1.7949-1.7949 1.7949h-31.012c-0.99714 0-1.7949-0.79778-1.7949-1.7949v-13.012c0-0.99714 0.79778-1.7949 1.7949-1.7949z" fill="#ffffff" opacity=".5" stop-color="#000000" stroke-linecap="round" stroke-linejoin="round" style="mix-blend-mode:overlay;paint-order:fill markers stroke"/>
 <rect x="14" y="23" width="36" height="16" rx="2.4749" ry="2.4749" fill="url(#linearGradient20)" stroke-linecap="round" stroke-linejoin="round" stroke-width="2" style="paint-order:fill markers stroke"/>
 <path d="m16.494 23.381c-1.2118 0-2.1934 0.98154-2.1934 2.1934v13.012c0 1.2118 0.98154 2.1934 2.1934 2.1934h31.012c1.2118 0 2.1934-0.98154 2.1934-2.1934v-13.012c0-1.2118-0.98154-2.1934-2.1934-2.1934zm0 0.39844h31.012c0.99714 0 1.7949 0.79778 1.7949 1.7949v13.012c0 0.99714-0.79778 1.7949-1.7949 1.7949h-31.012c-0.99714 0-1.7949-0.79778-1.7949-1.7949v-13.012c0-0.99714 0.79778-1.7949 1.7949-1.7949z" fill="#ffffff" opacity=".5" stop-color="#000000" stroke-linecap="round" stroke-linejoin="round" style="mix-blend-mode:overlay;paint-order:fill markers stroke"/>
 <rect x="14" y="27" width="36" height="18" rx="2.4749" ry="2.4749" fill="url(#linearGradient18)" stroke-linecap="round" stroke-linejoin="round" stroke-width="2" style="paint-order:fill markers stroke"/>
 <path d="m16.494 27.301c-1.2118 0-2.1934 0.98154-2.1934 2.1934v13.012c0 1.2118 0.98154 2.1934 2.1934 2.1934h31.012c1.2118 0 2.1934-0.98154 2.1934-2.1934v-13.012c0-1.2118-0.98154-2.1934-2.1934-2.1934zm0 0.39844h31.012c0.99714 0 1.7949 0.79778 1.7949 1.7949v13.012c0 0.99714-0.79778 1.7949-1.7949 1.7949h-31.012c-0.99714 0-1.7949-0.79778-1.7949-1.7949v-13.012c0-0.99714 0.79778-1.7949 1.7949-1.7949z" fill="#ffffff" opacity=".5" stop-color="#000000" stroke-linecap="round" stroke-linejoin="round" style="mix-blend-mode:overlay;paint-order:fill markers stroke"/>
 <path d="m11 32v11c0 2.77 2.23 5 5 5h32c2.77 0 5-2.23 5-5v-11h-9c-2.0308 0-4.6053 6.51e-4 -7.3594 3.6465-2.3082 3.0556-6.9731 3.0556-9.2812 0-2.754-3.6458-5.3286-3.6465-7.3594-3.6465z" fill="#d8d2c9" stroke-linecap="round" stroke-linejoin="round" stroke-width="2" style="paint-order:fill markers stroke"/>
 <path d="m11 32v11c0 2.77 2.23 5 5 5h32c2.77 0 5-2.23 5-5v-11h-9c-2.0308 0-4.6053 6.51e-4 -7.3594 3.6465-2.3082 3.0556-6.9731 3.0556-9.2812 0-2.754-3.6458-5.3286-3.6465-7.3594-3.6465h-9zm0.80078 0.80078h8.1992c2.0306 0 4.1112-0.12641 6.7207 3.3281 2.6206 3.4692 7.9379 3.4692 10.559 0 2.6095-3.4545 4.6901-3.3281 6.7207-3.3281h8.1992v10.199c0 2.3406-1.8586 4.1992-4.1992 4.1992h-32c-2.3406 0-4.1992-1.8586-4.1992-4.1992v-10.199z" fill="url(#linearGradient28)" filter="url(#filter28)" stop-color="#000000" stroke-linecap="round" stroke-linejoin="round" style="paint-order:fill markers stroke"/>
 <rect x="14" y="27" width="36" height="18" rx="2.4749" ry="2.4749" clip-path="url(#clipPath31)" fill="url(#linearGradient18)" filter="url(#filter31)" opacity=".15" stroke-linecap="round" stroke-linejoin="round" stroke-width="2" style="paint-order:fill markers stroke"/>
</svg>
