<svg width="64" height="64" version="1.1" xmlns="http://www.w3.org/2000/svg" xmlns:xlink="http://www.w3.org/1999/xlink">
 <defs>
  <filter id="filter8" x="-.012" y="-.012" width="1.024" height="1.024" color-interpolation-filters="sRGB">
   <feGaussianBlur stdDeviation="0.074081873"/>
  </filter>
  <linearGradient id="linearGradient7" x1="6.7452" x2="10.583" y1="1.0583" y2="11.312" gradientUnits="userSpaceOnUse">
   <stop stop-color="#ffffff" offset="0"/>
   <stop stop-color="#ffffff" stop-opacity="0" offset="1"/>
  </linearGradient>
  <linearGradient id="linearGradient8" x1="15.081" x2="13.229" y1="14.816" y2="1.3229" gradientUnits="userSpaceOnUse">
   <stop stop-color="#ffffff" offset="0"/>
   <stop stop-color="#ffffff" stop-opacity=".36" offset="1"/>
  </linearGradient>
  <linearGradient id="linearGradient3" x1="8.4665" x2="8.4665" y1="1.0583" y2="15.875" gradientTransform="scale(3.7796)" gradientUnits="userSpaceOnUse">
   <stop stop-color="#0ffb41" offset="0"/>
   <stop stop-color="#00d601" offset="1"/>
  </linearGradient>
  <linearGradient id="linearGradient12" x1="26" x2="50" y1="18" y2="37.5" gradientUnits="userSpaceOnUse">
   <stop stop-color="#ffffff" offset="0"/>
   <stop stop-color="#a2fda7" offset="1"/>
  </linearGradient>
  <filter id="filter15" x="-.049946" y="-.0462" width="1.0999" height="1.0924" color-interpolation-filters="sRGB">
   <feGaussianBlur stdDeviation="0.77"/>
  </filter>
 </defs>
 <path d="m20.26 4.0003c-5.782 0-9.7427 1.7243-12.321 4.5348-2.5651 2.7962-3.9387 6.8037-3.9387 11.341v24.248c0 4.5378 1.3734 8.5453 3.9387 11.341 2.5784 2.8103 6.5391 4.5348 12.321 4.5348h23.549c5.782 0 9.7427-1.7243 12.321-4.5348 2.5651-2.7962 3.8703-6.4352 3.8703-11.341v-23.337c0-5.9351-1.305-9.4562-3.8703-12.252-2.5784-2.8103-6.5391-4.5348-12.321-4.5348h-18.315z" fill="url(#linearGradient3)" stroke-width="3.7796"/>
 <g transform="scale(3.7796)" filter="url(#filter8)" style="mix-blend-mode:overlay">
  <path d="m5.3603 1.0583c-1.5298 0-2.5775 0.45637-3.2597 1.1999-0.67868 0.73981-1.0423 1.8002-1.0423 3.0008v6.415c0 1.2006 0.36361 2.2609 1.0423 3.0008 0.68219 0.74355 1.7299 1.1999 3.2597 1.1999h6.2305c1.5298 0 2.5775-0.45637 3.2597-1.1999 0.67868-0.73981 1.0242-1.7027 1.0242-3.0008v-6.1742c0-1.5703-0.34552-2.5018-1.0242-3.2416-0.68219-0.74355-1.7299-1.1999-3.2597-1.1999h-4.8456zm-0.00103 0.26406h6.2326c1.4772 0 2.437 0.43133 3.0644 1.1152 0.63411 0.69126 0.95341 1.5307 0.95341 3.0623v6.1742c0 1.2512-0.32181 2.1335-0.95341 2.822-0.6274 0.68381-1.5871 1.1136-3.0644 1.1136h-6.2326c-1.4772 0-2.437-0.42978-3.0644-1.1136-0.62537-0.68172-0.97253-1.6747-0.97253-2.822v-6.4145c0-1.1472 0.34717-2.1403 0.97253-2.822 0.6274-0.68381 1.5871-1.1152 3.0644-1.1152z" fill="url(#linearGradient7)"/>
  <path d="m5.3603 1.0583c-1.5298 0-2.5775 0.45637-3.2597 1.1999-0.67868 0.73981-1.0423 1.8002-1.0423 3.0008v6.415c0 1.2006 0.36361 2.2609 1.0423 3.0008 0.68219 0.74355 1.7299 1.1999 3.2597 1.1999h6.2305c1.5298 0 2.5775-0.45637 3.2597-1.1999 0.67868-0.73981 1.0242-1.7027 1.0242-3.0008v-6.1742c0-1.5703-0.34552-2.5018-1.0242-3.2416-0.68219-0.74355-1.7299-1.1999-3.2597-1.1999h-4.8456zm-0.00103 0.26406h6.2326c1.4772 0 2.437 0.43133 3.0644 1.1152 0.63411 0.69126 0.95341 1.5307 0.95341 3.0623v6.1742c0 1.2512-0.32181 2.1335-0.95341 2.822-0.6274 0.68381-1.5871 1.1136-3.0644 1.1136h-6.2326c-1.4772 0-2.437-0.42978-3.0644-1.1136-0.62537-0.68172-0.97253-1.6747-0.97253-2.822v-6.4145c0-1.1472 0.34717-2.1403 0.97253-2.822 0.6274-0.68381 1.5871-1.1152 3.0644-1.1152z" fill="url(#linearGradient8)"/>
 </g>
 <path d="m36 13.5c-0.82235 0-1.5 0.67765-1.5 1.5v37c0 0.82235 0.67765 1.5 1.5 1.5h4c0.82235 0 1.5-0.67765 1.5-1.5v-37c0-0.82235-0.67765-1.5-1.5-1.5h-4zm10 10c-0.82235 0-1.5 0.67765-1.5 1.5v27c0 0.82235 0.67765 1.5 1.5 1.5h4c0.82235 0 1.5-0.67765 1.5-1.5v-27c0-0.82235-0.67765-1.5-1.5-1.5h-4zm-20 8c-0.82235 0-1.5 0.67765-1.5 1.5v19c0 0.82235 0.67765 1.5 1.5 1.5h4c0.82235 0 1.5-0.67765 1.5-1.5v-19c0-0.82235-0.67765-1.5-1.5-1.5h-4zm-10 10c-0.82235 0-1.5 0.67765-1.5 1.5v9c0 0.82235 0.67765 1.5 1.5 1.5h4c0.82235 0 1.5-0.67765 1.5-1.5v-9c0-0.82235-0.67765-1.5-1.5-1.5h-4z" fill="#000000" filter="url(#filter15)" opacity=".1" stop-color="#000000" stroke-linecap="round" stroke-linejoin="round" style="paint-order:fill markers stroke"/>
 <path d="m35 13c-0.554 0-1 0.446-1 1v37c0 0.554 0.446 1 1 1h4c0.554 0 1-0.446 1-1v-37c0-0.554-0.446-1-1-1h-4zm10 10c-0.554 0-1 0.446-1 1v27c0 0.554 0.446 1 1 1h4c0.554 0 1-0.446 1-1v-27c0-0.554-0.446-1-1-1h-4zm-20 8c-0.554 0-1 0.446-1 1v19c0 0.554 0.446 1 1 1h4c0.554 0 1-0.446 1-1v-19c0-0.554-0.446-1-1-1h-4zm-10 10c-0.554 0-1 0.446-1 1v9c0 0.554 0.446 1 1 1h4c0.554 0 1-0.446 1-1v-9c0-0.554-0.446-1-1-1h-4z" fill="#cbfed3" stroke="url(#linearGradient12)" stroke-linecap="round" stroke-linejoin="round" style="paint-order:fill markers stroke"/>
</svg>
