<svg width="64" height="64" version="1.1" xmlns="http://www.w3.org/2000/svg" xmlns:xlink="http://www.w3.org/1999/xlink">
 <defs>
  <linearGradient id="a">
   <stop stop-color="#666" offset="0"/>
   <stop stop-color="#333" offset="1"/>
  </linearGradient>
  <linearGradient id="g" x1="195.75" x2="195.75" y1="1016.2" y2="1032.2" gradientTransform="translate(-211.12 -1249.1)scale(1.25)" gradientUnits="userSpaceOnUse" xlink:href="#a"/>
  <linearGradient id="h" x1="195.75" x2="195.75" y1="1016.2" y2="1032.2" gradientTransform="matrix(-1.25 0 0 1.25 282.62 -1249.7)" gradientUnits="userSpaceOnUse" xlink:href="#a"/>
  <linearGradient id="f" x1="3716.2" x2="3716.2" y1="683.98" y2="705.13" gradientTransform="matrix(.99459 0 0 1 20.039 -.13)" gradientUnits="userSpaceOnUse" xlink:href="#a"/>
  <filter id="e" x="-.052826" y="-.069429" width="1.1057" height="1.1413" color-interpolation-filters="sRGB">
   <feGaussianBlur stdDeviation=".405"/>
  </filter>
  <filter id="filter9" x="-.012" y="-.012" width="1.024" height="1.024" color-interpolation-filters="sRGB">
   <feGaussianBlur stdDeviation="0.074082"/>
  </filter>
  <linearGradient id="linearGradient3" x1="8.4665" x2="8.4665" y1="1.0583" y2="15.875" gradientTransform="scale(3.7796)" gradientUnits="userSpaceOnUse">
   <stop stop-color="#ffffff" offset="0"/>
   <stop stop-color="#ececec" offset="1"/>
  </linearGradient>
 </defs>
 <path d="m20.26 4.0003c-5.782 0-9.7427 1.7243-12.321 4.5348-2.5651 2.7962-3.9387 6.8037-3.9387 11.341v24.248c0 4.5378 1.3734 8.5453 3.9387 11.341 2.5784 2.8103 6.5391 4.5348 12.321 4.5348h23.549c5.782 0 9.7427-1.7243 12.321-4.5348 2.5651-2.7962 3.8703-6.4352 3.8703-11.341v-23.337c0-5.9351-1.305-9.4562-3.8703-12.252-2.5784-2.8103-6.5391-4.5348-12.321-4.5348h-18.315z" fill="url(#linearGradient3)" stroke-width="3.7796"/>
 <rect x="11" y="11" width="42" height="42" rx="9.8251" ry="9.8251" fill="#ffffff"/>
 <path transform="scale(3.7796)" d="m5.3603 1.0583c-1.5298 0-2.5775 0.45637-3.2597 1.1999-0.67868 0.73981-1.0423 1.8002-1.0423 3.0008v6.415c0 1.2006 0.36361 2.2609 1.0423 3.0008 0.68219 0.74355 1.7299 1.1999 3.2597 1.1999h6.2305c1.5298 0 2.5775-0.45637 3.2597-1.1999 0.67868-0.73981 1.0242-1.7027 1.0242-3.0008v-6.1742c0-1.5703-0.34552-2.5018-1.0242-3.2416-0.68219-0.74355-1.7299-1.1999-3.2597-1.1999h-4.8456zm-0.00103 0.26406h6.2326c1.4772 0 2.437 0.43133 3.0644 1.1152 0.63411 0.69126 0.95341 1.5307 0.95341 3.0623v6.1742c0 1.2512-0.32181 2.1335-0.95341 2.822-0.6274 0.68381-1.5871 1.1136-3.0644 1.1136h-6.2326c-1.4772 0-2.437-0.42978-3.0644-1.1136-0.62537-0.68172-0.97253-1.6747-0.97253-2.822v-6.4145c0-1.1472 0.34717-2.1403 0.97253-2.822 0.6274-0.68381 1.5871-1.1152 3.0644-1.1152z" fill="#ffffff" filter="url(#filter9)"/>
 <g stroke-width=".8">
  <g fill="#f09e6f">
   <path d="M17 43h30v1H17zm0-23h30v1H17z"/>
   <path d="M20 18v28h-1V18zm25 0v28h-1V18z"/>
  </g>
  <g transform="translate(-4505.5 1115.3)scale(1.25)" filter="url(#e)" opacity=".25">
   <path d="m3638.7-873.87v3h-1.492v-1.4h-9.25l-2.088 12.4h-2.387l-1.99-6.3h-1.193v-1.7h2.487l1.74 5 1.74-11"/>
   <path d="m3637-867.64-7 7m0-7 7 7" stroke="#000" stroke-linecap="round" stroke-linejoin="round" stroke-width="1.6"/>
  </g>
  <path transform="translate(-6960.4 -1277.4)scale(1.8801)" d="M3724.9 691.66v1.994h-.992v-.93h-6.15l-1.388 8.244h-1.587l-1.322-4.189h-.794v-1.13h1.653l1.157 3.324 1.157-7.313" fill="url(#f)"/>
 </g>
 <path d="M40.75 30.75 32 39.5" fill="none" stroke="url(#g)" stroke-linecap="round" stroke-linejoin="round" stroke-width="2"/>
 <path d="m32 30.75 8.75 8.75" fill="none" stroke="url(#h)" stroke-linecap="round" stroke-linejoin="round" stroke-width="2"/>
</svg>
