<svg width="64" height="64" version="1.1" xmlns="http://www.w3.org/2000/svg" xmlns:xlink="http://www.w3.org/1999/xlink">
 <defs>
  <filter id="filter8" x="-.012" y="-.012" width="1.024" height="1.024" color-interpolation-filters="sRGB">
   <feGaussianBlur stdDeviation="0.074081873"/>
  </filter>
  <linearGradient id="linearGradient7" x1="6.7452" x2="10.583" y1="1.0583" y2="11.312" gradientUnits="userSpaceOnUse" xlink:href="#linearGradient6"/>
  <linearGradient id="linearGradient6">
   <stop stop-color="#ffffff" offset="0"/>
   <stop stop-color="#ffffff" stop-opacity="0" offset="1"/>
  </linearGradient>
  <linearGradient id="linearGradient8" x1="15.081" x2="12.7" y1="14.816" y2="12.171" gradientUnits="userSpaceOnUse" xlink:href="#linearGradient6"/>
  <linearGradient id="linearGradient3" x1="8.4665" x2="8.4665" y1="1.0583" y2="15.875" gradientTransform="scale(3.7796)" gradientUnits="userSpaceOnUse">
   <stop stop-color="#02c5fd" offset="0"/>
   <stop stop-color="#2f71f9" offset="1"/>
  </linearGradient>
  <linearGradient id="linearGradient14" x1="32" x2="32" y1="50" y2="52.5" gradientUnits="userSpaceOnUse">
   <stop stop-color="#c6faff" offset="0"/>
   <stop stop-color="#ffffff" stop-opacity="0" offset="1"/>
  </linearGradient>
  <linearGradient id="linearGradient16" x1="32" x2="32" y1="11.791" y2="29.104" gradientUnits="userSpaceOnUse">
   <stop stop-color="#ffffff" offset="0"/>
   <stop stop-color="#b6e4ff" offset="1"/>
  </linearGradient>
  <linearGradient id="linearGradient21" x1="32" x2="32" y1="11.791" y2="29.104" gradientUnits="userSpaceOnUse">
   <stop stop-color="#ffffff" offset="0"/>
   <stop stop-color="#cff8ff" offset="1"/>
  </linearGradient>
  <filter id="filter22" x="-.16377" y="-.13334" width="1.3275" height="1.2667" color-interpolation-filters="sRGB">
   <feGaussianBlur stdDeviation="2.2617776"/>
  </filter>
 </defs>
 <path d="m20.26 4.0003c-5.782 0-9.7427 1.7243-12.321 4.5348-2.5651 2.7962-3.9387 6.8037-3.9387 11.341v24.248c0 4.5378 1.3734 8.5453 3.9387 11.341 2.5784 2.8103 6.5391 4.5348 12.321 4.5348h23.549c5.782 0 9.7427-1.7243 12.321-4.5348 2.5651-2.7962 3.8703-6.4352 3.8703-11.341v-23.337c0-5.9351-1.305-9.4562-3.8703-12.252-2.5784-2.8103-6.5391-4.5348-12.321-4.5348h-18.315z" fill="url(#linearGradient3)" stroke-width="3.7796"/>
 <path d="m19.594 12.249a2.0002 2.0002 0 0 0-1.9746 1.6797l-2.166 13.312a2.0002 2.0002 0 0 0 1.9746 2.3203h13.322v20.896h-6.25c-0.6925 0-1.25 0.5575-1.25 1.25s0.5575 1.25 1.25 1.25h15c0.6925 0 1.25-0.5575 1.25-1.25s-0.5575-1.25-1.25-1.25h-6.25v-20.896h13.322a2.0002 2.0002 0 0 0 1.9785-2.293l-1.9785-13.312a2.0002 2.0002 0 0 0-1.9785-1.707z" fill="#000000" filter="url(#filter22)" opacity=".1" style="mix-blend-mode:overlay;paint-order:fill markers stroke"/>
 <g transform="scale(3.7796)" filter="url(#filter8)" style="mix-blend-mode:overlay">
  <path d="m5.3603 1.0583c-1.5298 0-2.5775 0.45637-3.2597 1.1999-0.67868 0.73981-1.0423 1.8002-1.0423 3.0008v6.415c0 1.2006 0.36361 2.2609 1.0423 3.0008 0.68219 0.74355 1.7299 1.1999 3.2597 1.1999h6.2305c1.5298 0 2.5775-0.45637 3.2597-1.1999 0.67868-0.73981 1.0242-1.7027 1.0242-3.0008v-6.1742c0-1.5703-0.34552-2.5018-1.0242-3.2416-0.68219-0.74355-1.7299-1.1999-3.2597-1.1999h-4.8456zm-0.00103 0.26406h6.2326c1.4772 0 2.437 0.43133 3.0644 1.1152 0.63411 0.69126 0.95341 1.5307 0.95341 3.0623v6.1742c0 1.2512-0.32181 2.1335-0.95341 2.822-0.6274 0.68381-1.5871 1.1136-3.0644 1.1136h-6.2326c-1.4772 0-2.437-0.42978-3.0644-1.1136-0.62537-0.68172-0.97253-1.6747-0.97253-2.822v-6.4145c0-1.1472 0.34717-2.1403 0.97253-2.822 0.6274-0.68381 1.5871-1.1152 3.0644-1.1152z" fill="url(#linearGradient7)"/>
  <path d="m5.3603 1.0583c-1.5298 0-2.5775 0.45637-3.2597 1.1999-0.67868 0.73981-1.0423 1.8002-1.0423 3.0008v6.415c0 1.2006 0.36361 2.2609 1.0423 3.0008 0.68219 0.74355 1.7299 1.1999 3.2597 1.1999h6.2305c1.5298 0 2.5775-0.45637 3.2597-1.1999 0.67868-0.73981 1.0242-1.7027 1.0242-3.0008v-6.1742c0-1.5703-0.34552-2.5018-1.0242-3.2416-0.68219-0.74355-1.7299-1.1999-3.2597-1.1999h-4.8456zm-0.00103 0.26406h6.2326c1.4772 0 2.437 0.43133 3.0644 1.1152 0.63411 0.69126 0.95341 1.5307 0.95341 3.0623v6.1742c0 1.2512-0.32181 2.1335-0.95341 2.822-0.6274 0.68381-1.5871 1.1136-3.0644 1.1136h-6.2326c-1.4772 0-2.437-0.42978-3.0644-1.1136-0.62537-0.68172-0.97253-1.6747-0.97253-2.822v-6.4145c0-1.1472 0.34717-2.1403 0.97253-2.822 0.6274-0.68381 1.5871-1.1152 3.0644-1.1152z" fill="url(#linearGradient8)"/>
 </g>
 <rect x="30.75" y="27.958" width="2.5" height="23.067" fill="#95d5ff" style="paint-order:fill markers stroke"/>
 <path d="m30.75 27.959v23.066h0.69141v-23.066h-0.69141z" fill="#b1f8ff" style="paint-order:fill markers stroke"/>
 <path d="m19.594 11.791a2.0002 2.0002 0 0 0-1.9746 1.6797l-2.166 13.312a2.0002 2.0002 0 0 0 1.9746 2.3203h29.145a2.0002 2.0002 0 0 0 1.9785-2.293l-1.9785-13.312a2.0002 2.0002 0 0 0-1.9785-1.707h-25z" fill="url(#linearGradient16)" stop-color="#000000" stroke-linecap="round" stroke-linejoin="round" style="paint-order:fill markers stroke"/>
 <rect x="23.25" y="50" width="17.5" height="2.5" rx="1.25" ry="1.25" fill="#95d5ff" style="paint-order:fill markers stroke"/>
 <path d="m24.5 50c-0.6925 0-1.25 0.5575-1.25 1.25s0.5575 1.25 1.25 1.25h15c0.6925 0 1.25-0.5575 1.25-1.25s-0.5575-1.25-1.25-1.25zm0 0.5h15c0.42415 0 0.75 0.32585 0.75 0.75s-0.32585 0.75-0.75 0.75h-15c-0.42415 0-0.75-0.32585-0.75-0.75s0.32585-0.75 0.75-0.75z" fill="url(#linearGradient14)" stop-color="#000000" stroke-linecap="round" stroke-linejoin="round" style="mix-blend-mode:overlay;paint-order:fill markers stroke"/>
 <path d="m19.594 11.791a2.0002 2.0002 0 0 0-1.9746 1.6797l-2.166 13.312a2.0002 2.0002 0 0 0 1.9746 2.3203h29.145a2.0002 2.0002 0 0 0 1.9785-2.293l-1.9785-13.312a2.0002 2.0002 0 0 0-1.9785-1.707h-25zm0 1h25c0.50307 2e-5 0.9165 0.35588 0.99023 0.85352l1.9785 13.312c0.09207 0.62223-0.36123 1.1464-0.99023 1.1465h-29.145c-0.6354 6e-5 -1.09-0.53295-0.98828-1.1602l2.166-13.312c0.07973-0.49112 0.49073-0.83991 0.98828-0.83984z" fill="url(#linearGradient21)" stop-color="#000000" stroke-linecap="round" stroke-linejoin="round" style="paint-order:fill markers stroke"/>
 <rect x="19.5" y="25" width="25" height="2" rx="1" ry="1" fill="#9cd8ff" style="paint-order:fill markers stroke"/>
 <g transform="matrix(1.1083 0 0 .93335 54.167 1.272)">
  <circle cx="-20" cy="18.458" r="5" fill="#62d9ff" style="paint-order:fill markers stroke"/>
  <path d="m-20 13.459a5 5 0 0 0-3.1328 1.1016l3.1328 3.8984z" fill="#ae498e" style="paint-order:fill markers stroke"/>
  <path d="m-23.113 14.546a5 5 0 0 0-1.766 2.8123l4.8786 1.1007z" fill="#e46067" style="paint-order:fill markers stroke"/>
  <path d="m-15.128 19.586-4.8722-1.1267-3.1085 3.9159a5 5 0 0 0 3.0977 1.0827l4.34e-4 0.0019a5 5 0 0 0 0.01375-0.0012 5 5 0 0 0 0.02461 0.0023l-4.34e-4 -0.0019a5 5 0 0 0 3.064-1.0707 5 5 0 0 0 0.01006-0.0084 5 5 0 0 0 0.02253-0.01524l-4.34e-4 -0.0019a5 5 0 0 0 1.7485-2.7768z" fill="#63bf6d" style="paint-order:fill markers stroke"/>
  <path d="m-24.869 17.321a5 5 0 0 0 0.35934 3.3013l4.5093-2.1629z" fill="#eda13b" style="paint-order:fill markers stroke"/>
  <path d="m-24.526 20.584a5 5 0 0 0 2.3288 2.3674l2.197-4.4928z" fill="#e2ca73" style="paint-order:fill markers stroke"/>
 </g>
</svg>
