<svg width="64" height="64" version="1.1" xmlns="http://www.w3.org/2000/svg" xmlns:xlink="http://www.w3.org/1999/xlink">
 <defs>
  <linearGradient id="linearGradient3" x1="8.4665" x2="8.4665" y1="1.0583" y2="15.875" gradientTransform="scale(3.7796)" gradientUnits="userSpaceOnUse">
   <stop stop-color="#fea024" offset="0"/>
   <stop stop-color="#fc8518" offset="1"/>
  </linearGradient>
  <linearGradient id="linearGradient21" x1="-48.886" x2="-48.886" y1="6.0957" y2="55.541" gradientTransform="rotate(45 -7.9753 129.82)" gradientUnits="userSpaceOnUse">
   <stop stop-color="#faf9f9" offset="0"/>
   <stop stop-color="#fbcfa3" offset="1"/>
  </linearGradient>
  <linearGradient id="linearGradient25" x1="28.839" x2="32.375" y1="30.868" y2="36.773" gradientUnits="userSpaceOnUse">
   <stop stop-color="#fffdfb" offset="0"/>
   <stop stop-color="#fdddb8" offset="1"/>
  </linearGradient>
  <filter id="filter26" x="-.18755" y="-.12087" width="1.3751" height="1.2417" color-interpolation-filters="sRGB">
   <feGaussianBlur stdDeviation="0.12088945"/>
  </filter>
  <filter id="filter27" x="-.147" y="-.147" width="1.294" height="1.294" color-interpolation-filters="sRGB">
   <feGaussianBlur stdDeviation="0.35637449"/>
  </filter>
  <filter id="filter28" x="-.14699" y="-.147" width="1.294" height="1.294" color-interpolation-filters="sRGB">
   <feGaussianBlur stdDeviation="2.2240541"/>
  </filter>
  <filter id="filter30" x="-.0063406" y="-.11169" width="1.0127" height="1.2234" color-interpolation-filters="sRGB">
   <feGaussianBlur stdDeviation="0.083442444"/>
  </filter>
  <linearGradient id="linearGradient31" x1="33.7" x2="33.7" y1="49.933" y2="52.126" gradientUnits="userSpaceOnUse">
   <stop stop-color="#ffffff" offset="0"/>
   <stop stop-color="#ffffff" stop-opacity=".1" offset="1"/>
  </linearGradient>
  <filter id="filter8-3" x="-.012" y="-.012" width="1.024" height="1.024" color-interpolation-filters="sRGB">
   <feGaussianBlur stdDeviation="0.074081873"/>
  </filter>
  <linearGradient id="linearGradient21-7" x1="15.081" x2="12.013" y1="14.816" y2="11.99" gradientUnits="userSpaceOnUse">
   <stop stop-color="#fed429" offset="0"/>
   <stop stop-color="#fed429" stop-opacity=".3" offset="1"/>
  </linearGradient>
  <linearGradient id="linearGradient20" x1="2.4385" x2="7.7167" y1="1.9387" y2="7.7843" gradientUnits="userSpaceOnUse">
   <stop stop-color="#fed429" offset="0"/>
   <stop stop-color="#fed429" stop-opacity=".27952" offset="1"/>
  </linearGradient>
 </defs>
 <path d="m20.26 4.0003c-5.782 0-9.7427 1.7243-12.321 4.5348-2.5651 2.7962-3.9387 6.8037-3.9387 11.341v24.248c0 4.5378 1.3734 8.5453 3.9387 11.341 2.5784 2.8103 6.5391 4.5348 12.321 4.5348h23.549c5.782 0 9.7427-1.7243 12.321-4.5348 2.5651-2.7962 3.8703-6.4352 3.8703-11.341v-23.337c0-5.9351-1.305-9.4562-3.8703-12.252-2.5784-2.8103-6.5391-4.5348-12.321-4.5348h-18.315z" fill="url(#linearGradient3)" stroke-width="3.7796"/>
 <path d="m51.233 14.322c-0.28717-0.28555-0.64869-0.56275-1.0814-0.59248-3.2173-0.22108-6.9342 3.6276-10.96 7.3832-4.0242 3.754-7.716 7.2575-7.716 7.2575v1.4142l4.4042 4.4042h1.4142s3.5035-3.6918 7.2575-7.716c3.7556-4.0259 7.6056-7.7415 7.3846-10.959-0.04937-0.50005-0.43087-0.9213-0.70296-1.1919zm-21.172 16.877-10.607 10.607c-4.6257 4.6257-3.7565 6.9081-3.7565 6.9081l1.2526 1.2526s2.2824 0.86915 6.9081-3.7565l10.607-10.607z" fill="#000000" filter="url(#filter28)" opacity=".1" style="mix-blend-mode:overlay"/>
 <path d="m50.526 13.35c-0.28717-0.28555-0.64869-0.56275-1.0814-0.59248-3.2173-0.22108-6.9342 3.6276-10.96 7.3832-4.0242 3.754-7.716 7.2575-7.716 7.2575v1.4142l4.4042 4.4042h1.4142s3.5035-3.6918 7.2575-7.716c3.7556-4.0259 7.6056-7.7415 7.3846-10.959-0.04937-0.50005-0.43087-0.9213-0.70296-1.1919zm-21.172 16.877-10.607 10.607c-4.6257 4.6257-3.7565 6.9081-3.7565 6.9081l1.2526 1.2526s2.2824 0.86915 6.9081-3.7565l10.607-10.607z" fill="url(#linearGradient21)"/>
 <rect transform="rotate(45)" x="42.13" y="-1.383" width="6.2285" height="2" rx="0" ry="0" fill="#fac35e" opacity=".75" style="paint-order:fill markers stroke"/>
 <path d="m15.087 47.837s-1.3521 1.2416-1.341 2.4017c1.1601 0.01105 2.4017-1.341 2.4017-1.341l-0.61043-0.61043z" fill="#fac35e" opacity=".75" style="paint-order:fill markers stroke"/>
 <path d="m17.908 51.926s29.951-0.0013 30.327-0.0013c0.37565 0 1.1845-0.07951 1.2563-0.92195 0.03601-0.42281-0.42655-0.87192-1.0268-0.8706l-21.872 0.04821c-6.1209 0.01349-8.6842 1.7457-8.6842 1.7457z" fill="#ffa752" opacity=".75" style="paint-order:fill markers stroke"/>
 <path d="m49.445 12.758c-3.2173-0.22108-6.935 3.6272-10.961 7.3828-4.0242 3.754-7.7168 7.2578-7.7168 7.2578v1.4141l4.4043 4.4043h1.4141s3.5038-3.6926 7.2578-7.7168c3.7556-4.0259 7.6058-7.7397 7.3848-10.957-0.04937-0.50005-0.43103-0.9228-0.70312-1.1934-0.28717-0.28555-0.64739-0.56206-1.0801-0.5918zm-0.29492 0.99219c0.077007-0.001212 0.15241 7.64e-4 0.22656 0.005859 0.0466 0.0032 0.22429 0.0849 0.44336 0.30274 0.23085 0.22955 0.39467 0.50877 0.40625 0.57031 0.074171 1.1843-0.65212 2.7301-1.9922 4.4805-1.3459 1.7579-3.2317 3.6836-5.1211 5.709-3.5986 3.8576-6.6922 7.1172-6.959 7.3984h-0.56836l-3.8184-3.8184v-0.56836c0.28043-0.26602 3.5403-3.358 7.3984-6.957 2.0253-1.8893 3.9507-3.7756 5.709-5.1211 1.6484-1.2614 3.1203-1.9838 4.2754-2.002zm-19.797 16.477-10.605 10.607c-4.6257 4.6257-3.7578 6.9082-3.7578 6.9082l0.015625 0.013671 1.2383 1.2383s2.2825 0.8698 6.9082-3.7559l10.605-10.607-4.4043-4.4043zm0 1.4141 2.9902 2.9902-9.8984 9.9004c-2.2325 2.2325-3.8323 3.0671-4.7812 3.3652-0.46682 0.14666-0.77096 0.16478-0.94336 0.16016l-0.79102-0.79102c-0.0046-0.1724 0.01154-0.47654 0.1582-0.94336 0.29814-0.949 1.1347-2.5487 3.3672-4.7812l9.8984-9.9004z" fill="url(#linearGradient25)" stop-color="#000000" stroke-linecap="round" stroke-linejoin="round" style="paint-order:fill markers stroke"/>
 <path d="m15.088 47.838s-1.3528 1.2403-1.3418 2.4004c0.08072 7.69e-4 0.16112-0.0041 0.24219-0.01563 0.1167-1.0035 1.13-2.0126 1.3047-2.1797z" fill="#ffffff" filter="url(#filter26)" style="mix-blend-mode:overlay;paint-order:fill markers stroke"/>
 <path d="m30.768 28.812-1.4141 1.4141 4.4043 4.4043 1.4141-1.4141zm2e-3 0.70703 3.6973 3.6973-0.70703 0.70703-3.6973-3.6973z" fill="#ffffff" filter="url(#filter27)" stop-color="#000000" stroke-linecap="round" stroke-linejoin="round" style="mix-blend-mode:overlay;paint-order:fill markers stroke"/>
 <path d="m48.465 50.133-21.873 0.04688c-6.105 0.01345-8.6703 1.7371-8.6836 1.7461 0.04547-2e-6 29.951 0 30.326 0 0.37565 0 1.1841-0.08139 1.2559-0.92383 0.03601-0.42281-0.4251-0.87046-1.0254-0.86914zm0 0.5c0.33939-7.47e-4 0.51897 0.27947 0.52734 0.32617v2e-3c-0.0225 0.26424-0.09261 0.3004-0.23438 0.36914-0.14176 0.06874-0.37089 0.0957-0.52344 0.0957-0.34341 0-23.227-1.91e-4 -27.639 0 1.3607-0.37837 3.2682-0.74008 5.998-0.74609z" fill="url(#linearGradient31)" filter="url(#filter30)" opacity=".5" stop-color="#000000" stroke-linecap="round" stroke-linejoin="round" style="mix-blend-mode:overlay;paint-order:fill markers stroke"/>
 <g transform="matrix(3.7796 0 0 3.7796 1.4097e-5 1.4097e-5)" filter="url(#filter8-3)" opacity=".75" style="mix-blend-mode:overlay">
  <path d="m5.3603 1.0583c-1.5298 0-2.5775 0.45637-3.2597 1.1999-0.67868 0.73981-1.0423 1.8002-1.0423 3.0008v6.415c0 1.2006 0.36361 2.2609 1.0423 3.0008 0.68219 0.74355 1.7299 1.1999 3.2597 1.1999h6.2305c1.5298 0 2.5775-0.45637 3.2597-1.1999 0.67868-0.73981 1.0242-1.7027 1.0242-3.0008v-6.1742c0-1.5703-0.34552-2.5018-1.0242-3.2416-0.68219-0.74355-1.7299-1.1999-3.2597-1.1999h-4.8456zm-0.00103 0.26406h6.2326c1.4772 0 2.437 0.43133 3.0644 1.1152 0.63411 0.69126 0.95341 1.5307 0.95341 3.0623v6.1742c0 1.2512-0.32181 2.1335-0.95341 2.822-0.6274 0.68381-1.5871 1.1136-3.0644 1.1136h-6.2326c-1.4772 0-2.437-0.42978-3.0644-1.1136-0.62537-0.68172-0.97253-1.6747-0.97253-2.822v-6.4145c0-1.1472 0.34717-2.1403 0.97253-2.822 0.6274-0.68381 1.5871-1.1152 3.0644-1.1152z" fill="url(#linearGradient21-7)"/>
  <path d="m5.3603 1.0583c-1.5298 0-2.5775 0.45637-3.2597 1.1999-0.67868 0.73981-1.0423 1.8002-1.0423 3.0008v6.415c0 1.2006 0.36361 2.2609 1.0423 3.0008 0.68219 0.74355 1.7299 1.1999 3.2597 1.1999h6.2305c1.5298 0 2.5775-0.45637 3.2597-1.1999 0.67868-0.73981 1.0242-1.7027 1.0242-3.0008v-6.1742c0-1.5703-0.34552-2.5018-1.0242-3.2416-0.68219-0.74355-1.7299-1.1999-3.2597-1.1999h-4.8456zm-0.00103 0.26406h6.2326c1.4772 0 2.437 0.43133 3.0644 1.1152 0.63411 0.69126 0.95341 1.5307 0.95341 3.0623v6.1742c0 1.2512-0.32181 2.1335-0.95341 2.822-0.6274 0.68381-1.5871 1.1136-3.0644 1.1136h-6.2326c-1.4772 0-2.437-0.42978-3.0644-1.1136-0.62537-0.68172-0.97253-1.6747-0.97253-2.822v-6.4145c0-1.1472 0.34717-2.1403 0.97253-2.822 0.6274-0.68381 1.5871-1.1152 3.0644-1.1152z" fill="url(#linearGradient20)"/>
 </g>
</svg>
