<?xml version="1.0" encoding="UTF-8" standalone="no"?>
<svg
   width="64"
   height="64"
   version="1.1"
   id="svg15"
   sodipodi:docname="microsoft-edge.svg"
   inkscape:version="1.4.2 (ebf0e940d0, 2025-05-08)"
   xmlns:inkscape="http://www.inkscape.org/namespaces/inkscape"
   xmlns:sodipodi="http://sodipodi.sourceforge.net/DTD/sodipodi-0.dtd"
   xmlns:xlink="http://www.w3.org/1999/xlink"
   xmlns="http://www.w3.org/2000/svg"
   xmlns:svg="http://www.w3.org/2000/svg">
  <sodipodi:namedview
     id="namedview15"
     pagecolor="#ffffff"
     bordercolor="#000000"
     borderopacity="0.25"
     inkscape:showpageshadow="2"
     inkscape:pageopacity="0.0"
     inkscape:pagecheckerboard="0"
     inkscape:deskcolor="#d1d1d1"
     inkscape:zoom="4.75"
     inkscape:cx="5.0526316"
     inkscape:cy="41.473684"
     inkscape:window-width="1920"
     inkscape:window-height="1007"
     inkscape:window-x="0"
     inkscape:window-y="0"
     inkscape:window-maximized="1"
     inkscape:current-layer="svg15" />
  <defs
     id="defs10">
    <linearGradient
       id="g"
       x1="11.788"
       x2="52.749"
       y1="25.106"
       y2="25.106"
       gradientTransform="translate(-.921 -.664)scale(1.0202)"
       gradientUnits="userSpaceOnUse">
      <stop
         offset="0"
         stop-color="#40bfff"
         id="stop1" />
      <stop
         offset="1"
         stop-color="#5fde56"
         id="stop2" />
    </linearGradient>
    <linearGradient
       id="d"
       x1="11.804"
       x2="30.743"
       y1="36.254"
       y2="36.254"
       gradientTransform="translate(-.921 -.664)scale(1.0202)"
       gradientUnits="userSpaceOnUse">
      <stop
         offset="0"
         stop-color="#0078d4"
         id="stop3" />
      <stop
         offset="1"
         stop-color="#108ddc"
         id="stop4" />
    </linearGradient>
    <linearGradient
       id="c"
       x1="21.182"
       x2="49.712"
       y1="40.243"
       y2="40.243"
       gradientTransform="translate(-.921 -.664)scale(1.0202)"
       gradientUnits="userSpaceOnUse">
      <stop
         offset="0"
         stop-color="#0b4e90"
         id="stop5" />
      <stop
         offset="1"
         stop-color="#0d559d"
         id="stop6" />
    </linearGradient>
    <linearGradient
       id="a"
       x1="7.937"
       x2="7.937"
       y1="15.081"
       y2="1.852"
       gradientTransform="scale(3.7796)"
       gradientUnits="userSpaceOnUse">
      <stop
         offset="0"
         stop-color="#f3f1ee"
         id="stop7" />
      <stop
         offset="1"
         stop-color="#fff"
         id="stop8" />
    </linearGradient>
    <filter
       id="b"
       width="1.2160519"
       height="1.2160571"
       x="-0.10802595"
       y="-0.10802855"
       color-interpolation-filters="sRGB">
      <feGaussianBlur
         stdDeviation="1.881"
         id="feGaussianBlur8" />
    </filter>
    <filter
       id="e"
       width="1.1589255"
       height="1.3375919"
       x="-0.07946277"
       y="-0.16879595"
       color-interpolation-filters="sRGB">
      <feGaussianBlur
         stdDeviation=".861"
         id="feGaussianBlur9" />
    </filter>
    <filter
       id="f"
       width="1.3144856"
       height="1.164599"
       x="-0.15724278"
       y="-0.082299501"
       color-interpolation-filters="sRGB">
      <feGaussianBlur
         stdDeviation="1.152"
         id="feGaussianBlur10" />
    </filter>
    <linearGradient
       inkscape:collect="always"
       xlink:href="#linearGradient5"
       id="linearGradient8"
       x1="8"
       y1="7"
       x2="56"
       y2="57"
       gradientUnits="userSpaceOnUse"
       gradientTransform="translate(-1.3560057e-6)" />
    <linearGradient
       id="linearGradient5"
       inkscape:collect="always">
      <stop
         style="stop-color:#ffffff;stop-opacity:1;"
         offset="0"
         id="stop5-7" />
      <stop
         style="stop-color:#ffffff;stop-opacity:0.75294118;"
         offset="0.55856526"
         id="stop1-3" />
      <stop
         style="stop-color:#ffffff;stop-opacity:0.25;"
         offset="0.82169133"
         id="stop7-5" />
      <stop
         style="stop-color:#ffffff;stop-opacity:1;"
         offset="1"
         id="stop6-5" />
    </linearGradient>
    <filter
       inkscape:collect="always"
       style="color-interpolation-filters:sRGB"
       id="filter8"
       x="-0.0076799997"
       y="-0.0076799997"
       width="1.01536"
       height="1.01536">
      <feGaussianBlur
         inkscape:collect="always"
         stdDeviation="0.1792"
         id="feGaussianBlur8-6" />
    </filter>
    <linearGradient
       inkscape:collect="always"
       xlink:href="#linearGradient5"
       id="linearGradient6"
       x1="8.2552414"
       y1="7.9304214"
       x2="52.282932"
       y2="58.42226"
       gradientUnits="userSpaceOnUse" />
    <filter
       inkscape:collect="always"
       style="color-interpolation-filters:sRGB"
       id="filter9"
       x="-0.0076799997"
       y="-0.0076799997"
       width="1.01536"
       height="1.01536">
      <feGaussianBlur
         inkscape:collect="always"
         stdDeviation="0.1792"
         id="feGaussianBlur9-7" />
    </filter>
    <linearGradient
       id="a-0"
       x1="7.9369998"
       x2="7.9369998"
       y1="15.081"
       y2="1.852"
       gradientTransform="scale(3.7796)"
       gradientUnits="userSpaceOnUse">
      <stop
         offset="0"
         stop-color="#f1efeb"
         id="stop5-9" />
      <stop
         offset="1"
         stop-color="#fdfcfc"
         id="stop6-3" />
    </linearGradient>
    <filter
       inkscape:collect="always"
       style="color-interpolation-filters:sRGB"
       id="filter12"
       x="-0.075"
       y="-0.075"
       width="1.15"
       height="1.15">
      <feGaussianBlur
         inkscape:collect="always"
         stdDeviation="1.75"
         id="feGaussianBlur12" />
    </filter>
  </defs>
  <rect
     id="rect12-3"
     width="56"
     height="56"
     x="4"
     y="5"
     rx="14"
     ry="14"
     style="opacity:0.15;filter:url(#filter12)" />
  <rect
     width="56.001999"
     height="56.001999"
     x="4"
     y="3.9690001"
     fill="url(#a)"
     rx="14.001999"
     ry="14.001999"
     id="rect4"
     style="fill:url(#a-0)" />
  <g
     id="highlight">
    <path
       id="rect1"
       d="m 17.999999,3.9999986 c -7.756,0 -14.0000004,6.2440004 -14.0000004,14.0000004 v 28 c 0,7.756 6.2440004,14 14.0000004,14 h 28 c 7.756,0 14,-6.244 14,-14 v -28 c 0,-7.756 -6.244,-14.0000004 -14,-14.0000004 z m 0,1 h 28 c 7.202,0 13,5.7980004 13,13.0000004 v 28 c 0,7.202 -5.798,13 -13,13 h -28 c -7.202,0 -13.0000004,-5.798 -13.0000004,-13 v -28 c 0,-7.202 5.7980004,-13.0000004 13.0000004,-13.0000004 z"
       style="opacity:0.5;mix-blend-mode:normal;fill:url(#linearGradient8);filter:url(#filter8)" />
    <path
       id="rect4-3"
       style="opacity:1;fill:url(#linearGradient6);stroke-width:0.557214;stroke-linecap:square;filter:url(#filter9)"
       d="M 18,4 C 10.244,4 4,10.244 4,18 v 28 c 0,7.756 6.244,14 14,14 h 28 c 7.756,0 14,-6.244 14,-14 V 18 C 60,10.244 53.756,4 46,4 Z m 0,0.5 h 28 c 7.479,0 13.5,6.021 13.5,13.5 v 28 c 0,7.479 -6.021,13.5 -13.5,13.5 H 18 C 10.521,59.5 4.5,53.479 4.5,46 V 18 C 4.5,10.521 10.521,4.5 18,4.5 Z" />
  </g>
  <g
     id="g15">
    <path
       d="M31.998 12.248c-11.426-.001-20.732 9.173-20.893 20.596.006-.483.064-.96.145-1.435a10 10 0 0 0-.127 1.46 21.2 21.2 0 0 0 1.976 9.14c4.498 9.596 15.472 14.304 25.527 10.952-.181.057-.376.092-.562.14.183-.048.383-.096.54-.146l.216-.072a20.95 20.95 0 0 0 10.87-8.617c.363-.572-.277-1.249-.869-.92-2.002 1.97-5.108 2.437-7.58 2.45-7.724 0-14.453-5.94-14.453-12.757a5.14 5.14 0 0 1 2.684-4.457c.51-.24 1.378-.675 2.535-.654a5.28 5.28 0 0 1 4.194 2.123c.449.6.75 1.287.908 2.011a5.38 5.38 0 0 1-1.139 3.555c-.132.172-.54.408-.54.924 0 .426.278.835.77 1.18 2.348 1.632 6.774 1.418 6.786 1.418a9.7 9.7 0 0 0 4.941-1.364c3.07-1.792 4.96-4.15 4.967-7.705.042-3.657-1.307-6.09-1.852-7.168-3.459-6.765-10.926-10.654-19.045-10.654zm5.394 41.021-.16.033z"
       filter="url(#b)"
       opacity=".2"
       id="path10" />
    <path
       fill="url(#c)"
       d="M48.823 42.599c-2.002 1.97-5.109 2.438-7.58 2.45-7.725 0-14.454-5.94-14.454-12.757a5.14 5.14 0 0 1 2.682-4.457c-6.986.293-8.782 7.573-8.782 11.838 0 12.058 11.115 13.28 13.51 13.28 1.29 0 3.238-.375 4.407-.744l.213-.071A20.95 20.95 0 0 0 49.69 43.52c.363-.571-.276-1.25-.868-.92z"
       class="cls-1"
       id="path11" />
    <path
       fill="url(#d)"
       d="M27.737 50.903a12.9 12.9 0 0 1-3.712-3.483c-4.824-6.609-1.894-15.97 5.447-19.585.51-.24 1.38-.674 2.537-.653a5.28 5.28 0 0 1 4.193 2.122 5.2 5.2 0 0 1 1.039 3.045c0-.034 3.992-12.992-13.06-12.992-7.165 0-13.058 6.8-13.058 12.765a21.2 21.2 0 0 0 1.976 9.14c4.499 9.597 15.471 14.305 25.526 10.953-3.442 1.085-7.814.608-10.875-1.305z"
       class="cls-3"
       id="path12" />
    <path
       d="M24.164 20.602c-6.481 0-12 4.676-12.914 10.062a21 21 0 0 0-.145 2.18c.079-5.964 6.007-11.496 13.06-11.496.57 0 3.829.054 6.855 1.642 2.667 1.4 4.066 3.808 5.037 5.485.627 1.183.97 2.32 1.041 3.4.082-1.296-.27-2.687-1.043-4.146-.971-1.677-2.368-4.084-5.035-5.485-3.027-1.588-6.284-1.642-6.856-1.642"
       filter="url(#e)"
       opacity=".35"
       id="path13" />
    <path
       d="M24.795 19.191c-1.083 0-2.132.17-3.14.455a11.5 11.5 0 0 1 2.527-.289c13.11 0 13.776 7.643 13.385 11.199.18.52.279 1.07.287 1.627 0-.034 3.993-12.992-13.06-12.992zm6.18 8.104c-.645.14-1.16.38-1.502.54-7.34 3.616-10.272 12.976-5.448 19.585a12.9 12.9 0 0 0 3.711 3.484l.016.006c3.06 1.913 7.433 2.39 10.875 1.304-.448.15-.9.264-1.352.381q.986-.223 1.963-.547c-3.442 1.086-7.813.61-10.873-1.304l-.015-.008a12.9 12.9 0 0 1-3.711-3.482c-4.825-6.61-1.896-15.97 5.445-19.586a9 9 0 0 1 .89-.374z"
       filter="url(#f)"
       opacity=".35"
       id="path14" />
    <path
       fill="url(#g)"
       d="M35.97 34.872c-.132.171-.539.408-.539.924 0 .426.278.835.77 1.18 2.348 1.632 6.773 1.416 6.785 1.416a9.7 9.7 0 0 0 4.94-1.362c3.07-1.793 4.96-4.152 4.968-7.706.043-3.658-1.306-6.09-1.851-7.167-3.459-6.765-10.925-10.656-19.044-10.656-11.426 0-20.733 9.175-20.894 20.597.078-5.963 6.007-11.497 13.059-11.497.571 0 3.83.056 6.856 1.644 2.667 1.4 4.064 3.808 5.036 5.484 1.411 2.663 1.472 5.11-.085 7.143z"
       class="cls-5"
       id="path15" />
  </g>
</svg>
