<svg width="64" height="64" version="1.1" viewBox="0 0 16.933 16.933" xmlns="http://www.w3.org/2000/svg" xmlns:xlink="http://www.w3.org/1999/xlink">
 <defs>
  <filter id="b" x="-.06" y="-.06" width="1.12" height="1.12" color-interpolation-filters="sRGB">
   <feGaussianBlur stdDeviation=".65"/>
  </filter>
  <filter id="filter19" x="-.050919" y="-.045396" width="1.1018" height="1.0908" color-interpolation-filters="sRGB">
   <feGaussianBlur stdDeviation="0.057593884"/>
  </filter>
  <linearGradient id="linearGradient14" x1="8.5466" x2="8.5466" y1="8.2019" y2="8.7311" gradientUnits="userSpaceOnUse">
   <stop stop-color="#ffffff" offset="0"/>
   <stop stop-color="#ffffff" stop-opacity="0" offset="1"/>
  </linearGradient>
  <filter id="filter14" x="-.028" y="-.168" width="1.056" height="1.336" color-interpolation-filters="sRGB">
   <feGaussianBlur stdDeviation="0.037040941"/>
  </filter>
  <linearGradient id="linearGradient16" x1="5.2071" x2="5.2071" y1="4.1086" y2="7.5516" gradientUnits="userSpaceOnUse">
   <stop stop-color="#f9f9f9" offset="0"/>
   <stop stop-color="#c6c6c6" offset="1"/>
  </linearGradient>
  <filter id="filter8" x="-.012" y="-.012" width="1.024" height="1.024" color-interpolation-filters="sRGB">
   <feGaussianBlur stdDeviation="0.074081873"/>
  </filter>
  <linearGradient id="linearGradient7" x1="2.5981" x2="10.583" y1="2.8356" y2="11.312" gradientUnits="userSpaceOnUse" xlink:href="#linearGradient6"/>
  <linearGradient id="linearGradient6">
   <stop stop-color="#ffffff" offset="0"/>
   <stop stop-color="#ffffff" stop-opacity="0" offset="1"/>
  </linearGradient>
  <linearGradient id="linearGradient8" x1="15.081" x2="12.7" y1="14.816" y2="12.171" gradientUnits="userSpaceOnUse" xlink:href="#linearGradient6"/>
  <linearGradient id="linearGradient3" x1="8.4665" x2="8.4665" y1="1.0583" y2="15.875" gradientUnits="userSpaceOnUse">
   <stop stop-color="#323131" offset="0"/>
   <stop stop-color="#141414" offset="1"/>
  </linearGradient>
  <linearGradient id="linearGradient74" x1="-48.492" x2="-48.492" y1="9.5893" y2="54.426" gradientTransform="matrix(.11803 0 0 .11803 18.956 9.454)" gradientUnits="userSpaceOnUse">
   <stop stop-color="#f6f6f6" offset="0"/>
   <stop stop-color="#b8b8ba" offset="1"/>
  </linearGradient>
  <linearGradient id="linearGradient22" x1="512" x2="512" y1="1.999" y2="1022" gradientTransform="translate(17.991 3.9686)" gradientUnits="userSpaceOnUse">
   <stop stop-color="#a9a9af" offset="0"/>
   <stop stop-color="#616065" offset="1"/>
  </linearGradient>
  <filter id="filter23" x="-.075003" y="-.074997" width="1.15" height="1.15" color-interpolation-filters="sRGB">
   <feGaussianBlur stdDeviation="0.16536924"/>
  </filter>
 </defs>
 <path d="m5.3604 1.0584c-1.5298 0-2.5777 0.45621-3.2599 1.1998-0.67867 0.73981-1.0421 1.8001-1.0421 3.0006v6.4155c0 1.2006 0.36337 2.2609 1.0421 3.0006 0.68219 0.74354 1.7301 1.1998 3.2599 1.1998h6.2306c1.5298 0 2.5777-0.45621 3.2599-1.1998 0.67867-0.73981 1.024-1.7026 1.024-3.0006v-6.1745c0-1.5703-0.34528-2.5019-1.024-3.2416-0.68219-0.74354-1.7301-1.1998-3.2599-1.1998h-4.8457z" fill="url(#linearGradient3)"/>
 <g filter="url(#filter8)" style="mix-blend-mode:overlay">
  <path d="m5.3603 1.0583c-1.5298 0-2.5775 0.45637-3.2597 1.1999-0.67868 0.73981-1.0423 1.8002-1.0423 3.0008v6.415c0 1.2006 0.36361 2.2609 1.0423 3.0008 0.68219 0.74355 1.7299 1.1999 3.2597 1.1999h6.2305c1.5298 0 2.5775-0.45637 3.2597-1.1999 0.67868-0.73981 1.0242-1.7027 1.0242-3.0008v-6.1742c0-1.5703-0.34552-2.5018-1.0242-3.2416-0.68219-0.74355-1.7299-1.1999-3.2597-1.1999h-4.8456zm-0.00103 0.26406h6.2326c1.4772 0 2.437 0.43133 3.0644 1.1152 0.63411 0.69126 0.95341 1.5307 0.95341 3.0623v6.1742c0 1.2512-0.32181 2.1335-0.95341 2.822-0.6274 0.68381-1.5871 1.1136-3.0644 1.1136h-6.2326c-1.4772 0-2.437-0.42978-3.0644-1.1136-0.62537-0.68172-0.97253-1.6747-0.97253-2.822v-6.4145c0-1.1472 0.34717-2.1403 0.97253-2.822 0.6274-0.68381 1.5871-1.1152 3.0644-1.1152z" fill="url(#linearGradient7)"/>
  <path d="m5.3603 1.0583c-1.5298 0-2.5775 0.45637-3.2597 1.1999-0.67868 0.73981-1.0423 1.8002-1.0423 3.0008v6.415c0 1.2006 0.36361 2.2609 1.0423 3.0008 0.68219 0.74355 1.7299 1.1999 3.2597 1.1999h6.2305c1.5298 0 2.5775-0.45637 3.2597-1.1999 0.67868-0.73981 1.0242-1.7027 1.0242-3.0008v-6.1742c0-1.5703-0.34552-2.5018-1.0242-3.2416-0.68219-0.74355-1.7299-1.1999-3.2597-1.1999h-4.8456zm-0.00103 0.26406h6.2326c1.4772 0 2.437 0.43133 3.0644 1.1152 0.63411 0.69126 0.95341 1.5307 0.95341 3.0623v6.1742c0 1.2512-0.32181 2.1335-0.95341 2.822-0.6274 0.68381-1.5871 1.1136-3.0644 1.1136h-6.2326c-1.4772 0-2.437-0.42978-3.0644-1.1136-0.62537-0.68172-0.97253-1.6747-0.97253-2.822v-6.4145c0-1.1472 0.34717-2.1403 0.97253-2.822 0.6274-0.68381 1.5871-1.1152 3.0644-1.1152z" fill="url(#linearGradient8)" stroke-width="1.0001"/>
 </g>
 <g filter="url(#filter8)" opacity=".5" style="mix-blend-mode:overlay">
  <path d="m5.3603 1.0583c-1.5298 0-2.5775 0.45637-3.2597 1.1999-0.67868 0.73981-1.0423 1.8002-1.0423 3.0008v6.415c0 1.2006 0.36361 2.2609 1.0423 3.0008 0.68219 0.74355 1.7299 1.1999 3.2597 1.1999h6.2305c1.5298 0 2.5775-0.45637 3.2597-1.1999 0.67868-0.73981 1.0242-1.7027 1.0242-3.0008v-6.1742c0-1.5703-0.34552-2.5018-1.0242-3.2416-0.68219-0.74355-1.7299-1.1999-3.2597-1.1999h-4.8456zm-0.00103 0.26406h6.2326c1.4772 0 2.437 0.43133 3.0644 1.1152 0.63411 0.69126 0.95341 1.5307 0.95341 3.0623v6.1742c0 1.2512-0.32181 2.1335-0.95341 2.822-0.6274 0.68381-1.5871 1.1136-3.0644 1.1136h-6.2326c-1.4772 0-2.437-0.42978-3.0644-1.1136-0.62537-0.68172-0.97253-1.6747-0.97253-2.822v-6.4145c0-1.1472 0.34717-2.1403 0.97253-2.822 0.6274-0.68381 1.5871-1.1152 3.0644-1.1152z" fill="url(#linearGradient7)"/>
  <path d="m5.3603 1.0583c-1.5298 0-2.5775 0.45637-3.2597 1.1999-0.67868 0.73981-1.0423 1.8002-1.0423 3.0008v6.415c0 1.2006 0.36361 2.2609 1.0423 3.0008 0.68219 0.74355 1.7299 1.1999 3.2597 1.1999h6.2305c1.5298 0 2.5775-0.45637 3.2597-1.1999 0.67868-0.73981 1.0242-1.7027 1.0242-3.0008v-6.1742c0-1.5703-0.34552-2.5018-1.0242-3.2416-0.68219-0.74355-1.7299-1.1999-3.2597-1.1999h-4.8456zm-0.00103 0.26406h6.2326c1.4772 0 2.437 0.43133 3.0644 1.1152 0.63411 0.69126 0.95341 1.5307 0.95341 3.0623v6.1742c0 1.2512-0.32181 2.1335-0.95341 2.822-0.6274 0.68381-1.5871 1.1136-3.0644 1.1136h-6.2326c-1.4772 0-2.437-0.42978-3.0644-1.1136-0.62537-0.68172-0.97253-1.6747-0.97253-2.822v-6.4145c0-1.1472 0.34717-2.1403 0.97253-2.822 0.6274-0.68381 1.5871-1.1152 3.0644-1.1152z" fill="url(#linearGradient8)" stroke-width="1.0001"/>
 </g>
 <path d="m3.9501 4.1087a0.10584 0.10584 0 0 0-0.10025 0.10438v0.44699a0.10584 0.10584 0 0 0 0.056326 0.094049l2.0179 1.0779-2.0179 1.0779a0.10584 0.10584 0 0 0-0.056326 0.094049v0.44338a0.10584 0.10584 0 0 0 0.15606 0.091466l2.5037-1.3709a0.10584 0.10584 0 0 0 0.054776-0.091982v-0.49402a0.10584 0.10584 0 0 0-0.054776-0.093532l-2.5037-1.3673a0.10584 0.10584 0 0 0-0.05581-0.012402z" fill="url(#linearGradient16)" stop-color="#000000" stroke-linecap="round" stroke-linejoin="round" style="paint-order:stroke markers fill"/>
 <path d="m7.1159 8.2019h2.8613c0.086871 0 0.15681 0.069936 0.15681 0.15681v0.21554c0 0.086871-0.06994 0.15681-0.15681 0.15681h-2.8613c-0.086871 0-0.15681-0.069936-0.15681-0.15681v-0.21554c0-0.086871 0.069936-0.15681 0.15681-0.15681z" fill="#666666" stop-color="#000000" stroke-linecap="round" stroke-linejoin="round"/>
 <path d="m7.1157 8.2019c-0.086871 0-0.15658 0.069706-0.15658 0.15658v0.216c0 0.086871 0.069706 0.15658 0.15658 0.15658h2.8613c0.086868 0 0.15709-0.069706 0.15709-0.15658v-0.216c0-0.086871-0.07022-0.15658-0.15709-0.15658zm-0.0062 0.13229c0.00173-2.912e-4 0.0037 0 0.00568 0h2.8613c0.015871 0 0.025321 0.00945 0.025321 0.025321v0.21445c0 0.015871-0.00945 0.025838-0.025321 0.025838h-2.8613c-0.015871 0-0.023254-0.00997-0.023254-0.025838v-0.21445c0-0.013887 0.00549-0.023282 0.01757-0.025321z" fill="url(#linearGradient14)" filter="url(#filter14)" opacity=".5" stop-color="#000000" stroke-linecap="round" stroke-linejoin="round"/>
 <path d="m3.9501 4.1087a0.10584 0.10584 0 0 0-0.10025 0.10438v0.44699a0.10584 0.10584 0 0 0 0.056326 0.094049l2.0179 1.0779-2.0179 1.0779a0.10584 0.10584 0 0 0-0.056326 0.094049v0.44338a0.10584 0.10584 0 0 0 0.15606 0.091466l2.5037-1.3709a0.10584 0.10584 0 0 0 0.054776-0.091982v-0.49402a0.10584 0.10584 0 0 0-0.054776-0.093532l-2.5037-1.3673a0.10584 0.10584 0 0 0-0.05581-0.012402zm-0.00672 0.12764 0.0031 0.00207h-0.0030978zm0.039273 0.021704 2.4489 1.3394v0.46301l-2.4489 1.342v-0.38291l2.0035-1.0702a0.1323 0.1323 0 0 0 0-0.23461l-2.0035-1.0702v-0.38653z" fill="#ffffff" opacity=".35" stop-color="#000000" stroke-linecap="round" stroke-linejoin="round"/>
 <path d="m3.9501 4.1087a0.10584 0.10584 0 0 0-0.10025 0.10438v0.15038a0.10584 0.10584 0 0 1 0.10025-0.10438 0.10584 0.10584 0 0 1 0.05581 0.012402l2.5037 1.3673a0.10584 0.10584 0 0 1 0.054776 0.091982v-0.14883a0.10584 0.10584 0 0 0-0.054776-0.093532l-2.5037-1.3673a0.10584 0.10584 0 0 0-0.05581-0.012402zm1.8334 1.7988-1.8774 1.0025a0.10584 0.10584 0 0 0-0.056326 0.094049v0.14934a0.10584 0.10584 0 0 1 0.056326-0.093016l2.0179-1.0779-0.14056-0.074929z" fill="#ffffff" filter="url(#filter19)" stop-color="#000000" stroke-linecap="round" stroke-linejoin="round" style="paint-order:stroke markers fill"/>
 <circle transform="scale(.26458)" cx="50" cy="50" r="13" filter="url(#b)" opacity=".25" style="paint-order:stroke markers fill"/>
 <g transform="translate(9.776 9.776)scale(.00675)" image-rendering="optimizeSpeed" stroke-width="2.308">
  <path d="m984.88 316.75q-9.292-22.529-20.962-44.139a452 452 0 0 0-13.938-24.203c-21.124-34.252-46.894-66.614-77.311-97.029-99.568-99.568-219.83-149.38-360.67-149.38-140.85 0-261.05 49.811-360.61 149.38-99.569 99.572-149.38 219.78-149.38 360.61s49.811 261.11 149.38 360.67c99.568 99.568 219.78 149.32 360.61 149.32 140.84 0 261.11-49.758 360.67-149.32 54.836-54.89 94.598-116.04 119.23-183.42 20.043-54.943 30.092-113.99 30.092-177.25 0-48.515-5.889-94.598-17.72-138.25a657 657 0 0 0-4.214-14.695 498 498 0 0 0-15.18-42.302z" fill="url(#linearGradient22)"/>
  <path d="m512 1.9838c-140.85 0-261.02 49.792-360.58 149.36-99.569 99.572-149.44 219.83-149.44 360.66 0 6.5752 0.16563 13.113 0.38278 19.598 4.4339-132.42 54.135-246.13 149.05-341.06 99.56-99.569 219.73-149.36 360.58-149.36 140.84 0 261.09 49.793 360.66 149.36 30.417 30.415 56.198 62.821 77.322 97.073a452 452 0 0 1 13.933 24.192c7.78 14.407 14.782 29.077 20.976 44.096a498 498 0 0 1 15.158 42.336 657 657 0 0 1 4.2106 14.699c10.226 37.731 15.997 77.298 17.378 118.66 0.2168-6.4796 0.3828-13.028 0.3828-19.598 0-48.515-5.93-94.608-17.761-138.26a657 657 0 0 0-4.2106-14.699 498 498 0 0 0-15.158-42.259v-0.07656c-6.1882-14.997-13.207-29.71-20.976-44.096a452 452 0 0 0-13.933-24.192c-21.124-34.252-46.905-66.658-77.322-97.073-99.568-99.568-219.82-149.36-360.66-149.36z" fill="#ffffff" opacity=".15"/>
 </g>
 <path d="m12.101 10.985c-0.0432 0.02578-0.05857 0.07976-0.03892 0.12761l0.10351 0.25167 3.1e-5 5.17e-4c0.01188 0.04062-3e-3 0.07702-0.04019 0.09959-0.04311 0.0262-0.09051 0.01714-0.12227-0.0255l-2e-4 1.15e-4 -0.1551-0.20272c-0.02719-0.03563-0.07179-0.0506-0.11186-0.0379-0.0092 0.0029-0.0182 0.0072-0.02668 0.01327-0.04519 0.03164-0.0539 0.09231-0.02439 0.13893l0.14433 0.22784 2.36e-4 4.01e-4c0.0206 0.04059 0.01121 0.08133-0.02459 0.11002-0.03568 0.02859-0.07816 0.02977-0.11357 6.25e-4 -0.0022-0.0018-0.0042-0.0034-0.0063-0.0053l-0.18944-0.1747c-0.02789-0.0257-0.06549-0.03452-0.09898-0.02483-0.01523 0.0044-0.0297 0.01253-0.04189 0.02472-0.03901 0.03901-0.03707 0.09997 8.3e-5 0.14076l0.18309 0.20095c0.02567 0.03432 0.02439 0.07402-3e-3 0.10821-0.03154 0.03937-0.07928 0.04688-0.12371 0.01764l-2.83e-4 4.23e-4 -0.21484-0.13789c-0.02613-0.01675-0.05678-0.02128-0.08419-0.01395-0.02132 0.0058-0.04097 0.01853-0.05482 0.0383-0.03164 0.04519-0.01892 0.10505 0.02475 0.13877l0.21118 0.1629 1.15e-4 2.01e-4c1.54e-4 1.88e-4 5.19e-4 4.92e-4 6.61e-4 6.68e-4l1.16e-4 2.01e-4c0.03468 0.03125 0.04061 0.0734 0.0164 0.11324-0.02288 0.03763-0.06066 0.05386-0.10204 0.04135l-1.15e-4 -2.01e-4 -0.25-0.10428c-0.02228-0.0092-0.04604-0.01089-0.06756-0.0054-0.02767 7e-3 -0.05184 0.02535-0.06496 0.05348-0.02332 0.04999-6.26e-4 0.10678 0.04822 0.13241l0.23759 0.12476 1.15e-4 2.01e-4 2.02e-4 -1.16e-4 2e-4 -1.15e-4 1.14e-4 2e-4c0.03761 0.02333 0.05075 0.06174 0.0364 0.10409-0.01618 0.04778-0.05811 0.07142-0.10985 0.05917l-0.24927-0.05599c-0.01682-0.0038-0.03341-0.0034-0.04903 3.67e-4 -0.03437 0.0082-0.06312 0.03342-0.07295 0.07007-0.01428 0.05329 0.01787 0.10522 0.07042 0.12199l0.24427 0.07777 0.0049 0.0017c1e-3 3.64e-4 0.0022 6.69e-4 0.0032 1e-3 0.0453 0.01698 0.06629 0.05559 0.05696 0.10234-0.0087 0.04284-0.03779 0.07053-0.08039 0.07329l-3.19e-4 -8.5e-5 -0.27207-0.01248c-0.01033-4.91e-4 -0.02062 3.07e-4 -0.0302 0.0026-0.04157 0.0097-0.07385 0.04336-0.07775 0.08801-0.0048 0.05496 0.03588 0.10059 0.09055 0.10797l0.25613 0.0342c0.0028 2.95e-4 0.0051 7.57e-4 0.0077 0.0012l5.17e-4 -3.2e-5c0.04508 0.0082 0.07159 0.04041 0.0726 0.08611 0.0011 0.04689-0.02614 0.08167-0.07239 0.09131l-9.08e-4 2.6e-4 -0.2636 0.03399c-0.0069 8.91e-4 -0.01355 0.0022-0.01988 0.0042-0.04437 0.01426-0.07504 0.05561-0.07082 0.1037 0.0048 0.05496 0.05296 0.09262 0.10808 0.09039l0.25664-0.01056-8.3e-5 3.19e-4c0.05308-0.0031 0.08946 0.02611 0.0971 0.07597 0.0064 0.04243-0.01078 0.07803-0.04838 0.09555l-0.26246 0.08209c-0.05267 0.01645-0.08461 0.06878-0.07034 0.12207 0.01428 0.05329 0.06797 0.08222 0.12187 0.07045l0.25221-0.05511 1.14e-4 2e-4c0.04903-0.01181 0.08841 0.0089 0.10601 0.05406 0.01681 0.04313 0.0039 0.08475-0.03513 0.10972l-0.23833 0.12295c-0.049 0.02533-0.07154 0.08271-0.04822 0.13271 0.02332 0.04999 0.08137 0.06909 0.1324 0.04814l0.23686-0.09736 4.24e-4 2.83e-4c0.04882-0.02107 0.0931-6e-3 0.11734 0.03819 0.02013 0.03673 0.01682 0.07552-0.01067 0.10465l-2e-4 1.16e-4 -0.22034 0.16794c-0.04387 0.03347-0.05605 0.09374-0.02439 0.13893 0.03165 0.04519 0.09179 0.05392 0.13841 0.02443l0.21801-0.13784 4.24e-4 2.82e-4c0.04205-0.02787 0.08591-0.02169 0.1179 0.01472 0.02972 0.03384 0.03234 0.0758 0.0066 0.11197-8.2e-5 1.17e-4 -2.95e-4 6.25e-4 -3.66e-4 7.59e-4 -1.53e-4 2.83e-4 -3.9e-4 6.25e-4 -5.65e-4 8.47e-4l-0.18309 0.19834c-0.03738 0.04057-0.03901 0.10207-1e-6 0.14108 0.03901 0.03901 0.09997 0.03706 0.14076-8.4e-5l0.1897-0.17261 5.44e-4 4.92e-4c0.03868-0.03649 0.08549-0.03719 0.12339-0.0039 0.03152 0.02769 0.04121 0.06496 0.02521 0.10177l1.14e-4 2.01e-4 -2.01e-4 1.15e-4 -0.14911 0.23276c-0.02977 0.04646-0.02076 0.10705 0.02443 0.13869 0.04519 0.03165 0.10497 0.01922 0.13869-0.02443l0.15736-0.20372 4.23e-4 2.82e-4c0.02998-0.04056 0.07345-0.04975 0.11594-0.02648 0.03971 0.02175 0.05663 0.06065 0.04443 0.1037l1.14e-4 2.01e-4 -0.10431 0.24949c-0.02126 0.05091-0.0018 0.10909 0.04822 0.13241 0.04999 0.02332 0.10658 7.58e-4 0.13221-0.04811l0.11891-0.2265 7.57e-4 3.66e-4c0.02386-0.04751 0.06765-0.06455 0.11466-0.04624 0.03882 0.01512 0.06069 0.04655 0.05858 0.08624l1.15e-4 2e-4 -0.06081 0.27042c-0.01209 0.05383 0.01712 0.1077 0.07042 0.12198 0.05329 0.01428 0.10522-0.01787 0.12198-0.07042l0.07813-0.24502 9.1e-4 2.49e-4c0.0143-0.04838 0.0518-0.07209 0.0997-0.06475 0.04449 0.0068 0.07355 0.03719 0.07709 0.0814l-8.3e-5 3.19e-4 1.15e-4 2.01e-4 -0.01254 0.27103c-0.0026 0.05511 0.03558 0.10316 0.09055 0.10797 0.05496 0.0048 0.10059-0.03588 0.10797-0.09055l0.03423-0.25375 8.48e-4 5.2e-5c0.0061-0.0528 0.04138-0.08369 0.09181-0.08256 0.04162 9.09e-4 0.07281 0.02297 0.08443 0.06094l1.15e-4 2e-4 1.15e-4 2.01e-4 0.03551 0.27497c0.0071 0.05472 0.05292 0.09531 0.10788 0.0905 0.05496-0.0048 0.09275-0.05277 0.0905-0.10789l-0.01111-0.27231c3e-3 -0.04229 0.03053-0.07128 0.07319-0.07979 0.04947-0.0099 0.08978 0.01433 0.10502 0.06527l0.0762 0.24403c0.01646 0.05267 0.06878 0.08461 0.12207 0.07034 0.05329-0.01429 0.0821-0.06816 0.07034-0.12207l-0.05449-0.24884c-6.25e-4 -0.0026-0.0011-0.0052-0.0016-0.0077-0.0082-0.04822 0.01507-0.08689 0.06048-0.10227 0.04123-0.01396 0.07861-0.0019 0.10208 0.03342 3.77e-4 5.8e-4 6.69e-4 0.0012 1e-3 0.0018l0.12524 0.2386c0.02563 0.04886 0.08209 0.07137 0.13209 0.04805 0.04999-0.02332 0.0697-0.0814 0.04844-0.13232l-0.09882-0.23709c-0.02014-0.04625-0.0051-0.08896 0.03632-0.11414 0.03941-0.02396 0.08123-0.01843 0.11236 0.01524l1.15e-4 2.02e-4 0.16393 0.212c0.03373 0.04367 0.09354 0.05617 0.13873 0.02451 0.04519-0.03164 0.0542-0.09197 0.02443-0.13841l-0.137-0.21425 4e-4 -2.35e-4c-0.02922-0.04442-0.02179-0.092 0.01758-0.12354 0.03469-0.02781 0.07491-0.02892 0.10956-2e-3l2e-4 -1.16e-4 1.16e-4 2.01e-4 0.19853 0.18112c0.04079 0.03715 0.10175 0.03892 0.14076-8.4e-5 0.03901-0.03901 0.0375-0.1003 1.16e-4 -0.14088l-0.17409-0.18858c-0.0012-0.0013-0.0023-0.0029-0.0036-0.0042l-0.0012-0.0012c-0.02988-0.03558-0.02888-0.07846-5.4e-5 -0.11443 0.02968-0.03702 0.0725-0.04558 0.11445-0.02216 0.0026 0.0016 0.0052 0.0031 0.0078 0.0048l0.21537 0.13653c0.04662 0.02949 0.10705 0.02076 0.13868-0.02443 0.03165-0.04519 0.01932-0.10541-0.02456-0.13889l-0.20176-0.15397 8.5e-5 -3.19e-4c-0.04266-0.03175-0.05184-0.07918-0.02562-0.12229 0.02338-0.03845 0.06169-0.05302 0.10405-0.03879l4.23e-4 2.82e-4 0.24649 0.10098c0.05104 0.02096 0.1092 0.0019 0.13251-0.04804 0.02332-0.04999 7.13e-4 -0.10674-0.04831-0.13209l-0.23535-0.1218-0.0012-6.69e-4c-0.03867-0.02339-0.05158-0.0632-0.03703-0.10611 0.01552-0.04582 0.05385-0.06879 0.10259-0.05976 2e-3 3.9e-4 0.0041 1e-3 0.0061 0.0016l0.24918 0.05445c0.0539 0.01178 0.1079-0.01725 0.12218-0.07055 0.01428-0.05329-0.01797-0.10541-0.07062-0.12187l-0.24241-0.07592c-0.05093-0.01524-0.07575-0.05678-0.06587-0.10625 9e-3 -0.04539 0.04149-0.07209 0.08824-0.0717 0.0022 1.5e-5 0.0044-2.4e-5 0.0067 1.14e-4l0.25573 0.01044c0.05513 0.0022 0.10316-0.03559 0.10797-0.09055 0.0048-0.05496-0.03563-0.10102-0.09035-0.10808l-0.26775-0.03439c-0.04186-0.01-0.06628-0.04263-0.06727-0.08655-0.0011-0.05044 0.02967-0.08565 0.08249-0.0918l2.01e-4 -1.14e-4 0.25214-0.03403c0.05468-0.0072 0.09519-0.05312 0.09039-0.10808-0.0048-0.05496-0.05266-0.09286-0.10777-0.0903l-0.2616 0.01208c-3.07e-4 5e-6 -7.13e-4 6.5e-5 -1e-3 6.3e-5 -0.04817-7.58e-4 -0.08155-0.03068-0.08872-0.07761-0.0072-0.0479 0.01618-0.08552 0.06455-0.09982l8.4e-5 -3.19e-4 0.24361-0.07782c0.05257-0.01676 0.08474-0.06857 0.07045-0.12187-0.01428-0.05329-0.06804-0.08255-0.12186-0.07045l-0.26537 0.05951-2e-4 1.15e-4 -1.16e-4 -2e-4 -2e-4 1.16e-4c-0.04149 0.0038-0.07435-0.01846-0.08995-0.05853-0.01832-0.047-0.0016-0.09055 0.04601-0.11441l-1.42e-4 -7.14e-4 0.22559-0.11827c0.04886-0.02562 0.07156-0.0822 0.04826-0.13221-0.01602-0.03438-0.04847-0.05434-0.08375-0.05653-0.01203-7.59e-4 -0.02448 3.65e-4 -0.03663 0.0039-0.0041 0.0012-0.0078 0.0028-0.01182 0.0044l-0.24545 0.10231-0.0012 4.91e-4c-0.04401 0.01353-0.08393-0.0031-0.1061-0.04361-0.02327-0.04251-0.01407-0.08595 0.0265-0.11592l-6.67e-4 -6.7e-4 0.20326-0.15648c0.04367-0.03373 0.05605-0.09375 0.02441-0.13893-0.02176-0.03107-0.05699-0.04502-0.0921-0.04106-4e-3 4.51e-4 -0.0082 0.0011-0.01218 0.0019-0.01191 0.0028-0.02337 0.0074-0.03424 0.01446l-0.23212 0.14892c-0.03688 0.01611-0.07449 0.0062-0.10222-0.02537-0.03329-0.0379-0.03243-0.08479 0.0041-0.12346l-4.46e-4 -8.03e-4 0.17162-0.18826c0.03715-0.04079 0.03913-0.10187 1.17e-4 -0.14088-0.02682-0.02682-0.06415-0.03458-0.09805-0.02458-0.01541 0.0046-0.03028 0.01259-0.04296 0.02427l-0.19797 0.18271-2e-4 1.15e-4c-0.03634 0.02643-0.07881 0.02384-0.11294-0.0061-0.0364-0.03198-0.04249-0.07595-0.01463-0.118l-5.34e-4 -4.83e-4 0.13726-0.21687c0.02949-0.04662 0.02096-0.10715-0.02423-0.1388-0.01412-0.0099-0.02998-0.01529-0.04574-0.01698-0.013-0.0013-0.02608-5.1e-5 -0.03861 0.0037-0.02089 0.0061-0.04014 0.01903-0.05453 0.03787l-0.16707 0.21917c-0.0292 0.02809-0.06794 0.03165-0.10498 0.01137-0.04425-0.02423-0.0595-0.06848-0.03843-0.11729l-8.48e-4 -5.68e-4 0.09706-0.23625c0.02096-0.05105 2e-3 -0.109-0.04791-0.13232-0.01563-0.0072-0.03193-0.01-0.04774-0.0089-0.0042 2.97e-4 -0.0088 5.33e-4 -0.01303 0.0013-0.02973 6e-3 -0.05619 0.02613-0.07143 0.05561l-0.12428 0.24025-4.01e-4 2.36e-4c-0.02516 0.03674-0.06569 0.04878-0.10774 0.03239-0.04519-0.01758-0.06614-0.05696-0.05434-0.106l-6.25e-4 -1.64e-4 0.05483-0.25126c0.01178-0.0539-0.01712-0.1077-0.07042-0.12198-0.01664-0.0044-0.03308-0.0042-0.04847-4.96e-4 -0.03386 0.0083-0.06221 0.03471-0.07351 0.07094l-0.08266 0.2644-8.5e-5 3.18e-4c-0.01799 0.03558-0.05278 0.05184-0.09405 0.04551-0.04987-0.0077-0.07927-0.04428-0.07618-0.09737l-9.09e-4 -2.49e-4 0.01044-0.2549c0.0022-0.05513-0.03547-0.10296-0.09044-0.10777-0.01373-0.0012-0.02717 3.35e-4 -0.0393 0.0042-0.03642 0.01196-0.06339 0.04519-0.06867 0.08624l-0.03493 0.26959 1.16e-4 2.01e-4c-0.01153 0.0421-0.04529 0.06671-0.08984 0.0657-0.04845-0.0011-0.08149-0.03078-0.08717-0.0809l-8.46e-4 -5.3e-5 -0.0345-0.25479c-0.0072-0.05468-0.05291-0.09531-0.10787-0.0905-0.0069 6.02e-4 -0.01349 2e-3 -0.0198 4e-3 -0.04409 0.01314-0.07294 0.05569-0.0707 0.10391l0.01169 0.25677c0.0031 0.05033-0.02413 0.08539-0.07166 0.09488-0.04701 0.0093-0.08676-0.01241-0.10368-0.05832-8.91e-4 -0.0023-0.0018-0.0051-0.0026-0.0077l-0.0772-0.24244c-0.01676-0.05257-0.06857-0.08474-0.12187-0.07045-0.05329 0.01428-0.08255 0.06804-0.07045 0.12187l0.05598 0.24957c0.01227 0.05173-0.01044 0.09276-0.05822 0.10895-0.04589 0.01553-0.08849-4.49e-4 -0.11097-0.04559l-0.11837-0.22899c-0.02218-0.04288-0.06883-0.06539-0.11359-0.05473-0.0063 0.0016-0.01256 0.0037-0.01881 0.0066-0.0031 0.0016-0.0063 0.0031-0.0092 0.0048zm-0.19414 1.057s0.10851-0.06815 0.21276-0.0515c0.10801 0.01725 0.19658 0.15376 0.19658 0.15376l0.47212 0.81773s0.09441 0.18094 0.09755 0.42948c3e-3 0.23543-0.12484 0.46337-0.12484 0.46337l-0.44487 0.77032s-0.08848 0.13666-0.1965 0.15391c-0.10425 0.01663-0.21285-0.05146-0.21285-0.05146l0.0066 0.01189a1.8885 1.8885 0 0 1-0.50552-0.86314 1.8885 1.8885 0 0 1 0.49894-1.8343zm0.82212-0.47466a1.8885 1.8885 0 0 1 0.01423-4e-3 1.8885 1.8885 0 0 1 2.3129 1.3353 1.8885 1.8885 0 0 1 8e-3 0.03133c-0.0022 0.04156-0.01303 0.12505-0.06123 0.18441-0.06893 0.08494-0.23154 0.09321-0.23154 0.09321l-0.88954 1e-4s-0.26132-0.0032-0.46372-0.12358c-0.21366-0.127-0.32315-0.29922-0.32315-0.29922l-0.47212-0.81772s-0.07395-0.14495-0.03488-0.24712c0.03088-0.08071 0.11244-0.13552 0.141-0.15274zm0.39987 1.641a0.20655 0.20655 0 0 1 0.28215 0.07559 0.20655 0.20655 0 0 1-0.0756 0.28215 0.20655 0.20655 0 0 1-0.28215-0.07559 0.20655 0.20655 0 0 1 0.0756-0.28215zm0.27691 0.48377c0.21681-0.12154 0.4208-0.13009 0.4208-0.13009l0.9449-1.18e-4s0.16242 0.0082 0.23136 0.09321c0.0501 0.06171 0.05993 0.1497 0.06166 0.18933a1.8885 1.8885 0 0 1-1.3438 1.3674 1.8885 1.8885 0 0 1-0.99079-0.0038l0.0089-1.3e-4s-0.1132-0.05996-0.15091-0.15856c-0.03908-0.10217 0.03496-0.24698 0.03496-0.24698l0.45195-0.78294 5.8e-4 -8.47e-4c0.03213-0.04989 0.15489-0.22813 0.33032-0.32647z" fill="#000000" filter="url(#filter23)" opacity=".15" stroke-linecap="round" stroke-linejoin="round" stroke-width=".8922" style="paint-order:fill markers stroke"/>
 <path d="m12.101 10.829c-0.0432 0.02578-0.05857 0.07976-0.03892 0.12761l0.10351 0.25167 3.1e-5 5.17e-4c0.01188 0.04062-3e-3 0.07702-0.04019 0.09959-0.04311 0.0262-0.09051 0.01714-0.12227-0.0255l-2e-4 1.15e-4 -0.1551-0.20272c-0.02719-0.03563-0.07179-0.0506-0.11186-0.0379-0.0092 0.0029-0.0182 0.0072-0.02668 0.01327-0.04519 0.03164-0.0539 0.09231-0.02439 0.13893l0.14433 0.22784 2.36e-4 4.01e-4c0.0206 0.04059 0.01121 0.08133-0.02459 0.11002-0.03568 0.02859-0.07816 0.02977-0.11357 6.25e-4 -0.0022-0.0018-0.0042-0.0034-0.0063-0.0053l-0.18944-0.1747c-0.02789-0.0257-0.06549-0.03452-0.09898-0.02483-0.01523 0.0044-0.0297 0.01253-0.04189 0.02472-0.03901 0.03901-0.03707 0.09997 8.3e-5 0.14076l0.18309 0.20095c0.02567 0.03432 0.02439 0.07402-3e-3 0.10821-0.03154 0.03937-0.07928 0.04688-0.12371 0.01764l-2.83e-4 4.23e-4 -0.21484-0.13789c-0.02613-0.01675-0.05678-0.02128-0.08419-0.01395-0.02132 0.0058-0.04097 0.01853-0.05482 0.0383-0.03164 0.04519-0.01892 0.10505 0.02475 0.13877l0.21118 0.1629 1.15e-4 2.01e-4c1.54e-4 1.88e-4 5.19e-4 4.92e-4 6.61e-4 6.68e-4l1.16e-4 2.01e-4c0.03468 0.03125 0.04061 0.0734 0.0164 0.11324-0.02288 0.03763-0.06066 0.05386-0.10204 0.04135l-1.15e-4 -2.01e-4 -0.25-0.10428c-0.02228-0.0092-0.04604-0.01089-0.06756-0.0054-0.02767 7e-3 -0.05184 0.02535-0.06496 0.05348-0.02332 0.04999-6.26e-4 0.10678 0.04822 0.13241l0.23759 0.12476 1.15e-4 2.01e-4 2.02e-4 -1.16e-4 2e-4 -1.15e-4 1.14e-4 2e-4c0.03761 0.02333 0.05075 0.06174 0.0364 0.10409-0.01618 0.04778-0.05811 0.07142-0.10985 0.05917l-0.24927-0.05599c-0.01682-0.0038-0.03341-0.0034-0.04903 3.67e-4 -0.03437 0.0082-0.06312 0.03342-0.07295 0.07007-0.01428 0.05329 0.01787 0.10522 0.07042 0.12199l0.24427 0.07777 0.0049 0.0017c1e-3 3.64e-4 0.0022 6.69e-4 0.0032 1e-3 0.0453 0.01698 0.06629 0.05559 0.05696 0.10234-0.0087 0.04284-0.03779 0.07053-0.08039 0.07329l-3.19e-4 -8.5e-5 -0.27207-0.01248c-0.01033-4.91e-4 -0.02062 3.07e-4 -0.0302 0.0026-0.04157 0.0097-0.07385 0.04336-0.07775 0.08801-0.0048 0.05496 0.03588 0.10059 0.09055 0.10797l0.25613 0.0342c0.0028 2.95e-4 0.0051 7.57e-4 0.0077 0.0012l5.17e-4 -3.2e-5c0.04508 0.0082 0.07159 0.04041 0.0726 0.08611 0.0011 0.04689-0.02614 0.08167-0.07239 0.09131l-9.08e-4 2.6e-4 -0.2636 0.03399c-0.0069 8.91e-4 -0.01355 0.0022-0.01988 0.0042-0.04437 0.01426-0.07504 0.05561-0.07082 0.1037 0.0048 0.05496 0.05296 0.09262 0.10808 0.09039l0.25664-0.01056-8.3e-5 3.19e-4c0.05308-0.0031 0.08946 0.02611 0.0971 0.07597 0.0064 0.04243-0.01078 0.07803-0.04838 0.09555l-0.26246 0.08209c-0.05267 0.01645-0.08461 0.06878-0.07034 0.12207 0.01428 0.05329 0.06797 0.08222 0.12187 0.07045l0.25221-0.05511 1.14e-4 2e-4c0.04903-0.01181 0.08841 0.0089 0.10601 0.05406 0.01681 0.04313 0.0039 0.08475-0.03513 0.10972l-0.23833 0.12295c-0.049 0.02533-0.07154 0.08271-0.04822 0.13271 0.02332 0.04999 0.08137 0.06909 0.1324 0.04814l0.23686-0.09736 4.24e-4 2.83e-4c0.04882-0.02107 0.0931-6e-3 0.11734 0.03819 0.02013 0.03673 0.01682 0.07552-0.01067 0.10465l-2e-4 1.16e-4 -0.22034 0.16794c-0.04387 0.03347-0.05605 0.09374-0.02439 0.13893 0.03165 0.04519 0.09179 0.05392 0.13841 0.02443l0.21801-0.13784 4.24e-4 2.82e-4c0.04205-0.02787 0.08591-0.02169 0.1179 0.01472 0.02972 0.03384 0.03234 0.0758 0.0066 0.11197-8.2e-5 1.17e-4 -2.95e-4 6.25e-4 -3.66e-4 7.59e-4 -1.53e-4 2.83e-4 -3.9e-4 6.25e-4 -5.65e-4 8.47e-4l-0.18309 0.19834c-0.03738 0.04057-0.03901 0.10207-1e-6 0.14108 0.03901 0.03901 0.09997 0.03706 0.14076-8.4e-5l0.1897-0.17261 5.44e-4 4.92e-4c0.03868-0.03649 0.08549-0.03719 0.12339-0.0039 0.03152 0.02769 0.04121 0.06496 0.02521 0.10177l1.14e-4 2.01e-4 -2.01e-4 1.15e-4 -0.14911 0.23276c-0.02977 0.04646-0.02076 0.10705 0.02443 0.13869 0.04519 0.03165 0.10497 0.01922 0.13869-0.02443l0.15736-0.20372 4.23e-4 2.82e-4c0.02998-0.04056 0.07345-0.04975 0.11594-0.02648 0.03971 0.02175 0.05663 0.06065 0.04443 0.1037l1.14e-4 2.01e-4 -0.10431 0.24949c-0.02126 0.05091-0.0018 0.10909 0.04822 0.13241 0.04999 0.02332 0.10658 7.58e-4 0.13221-0.04811l0.11891-0.2265 7.57e-4 3.66e-4c0.02386-0.04751 0.06765-0.06455 0.11466-0.04624 0.03882 0.01512 0.06069 0.04655 0.05858 0.08624l1.15e-4 2e-4 -0.06081 0.27042c-0.01209 0.05383 0.01712 0.1077 0.07042 0.12198 0.05329 0.01428 0.10522-0.01787 0.12198-0.07042l0.07813-0.24502 9.1e-4 2.49e-4c0.0143-0.04838 0.0518-0.07209 0.0997-0.06475 0.04449 0.0068 0.07355 0.03719 0.07709 0.0814l-8.3e-5 3.19e-4 1.15e-4 2.01e-4 -0.01254 0.27103c-0.0026 0.05511 0.03558 0.10316 0.09055 0.10797 0.05496 0.0048 0.10059-0.03588 0.10797-0.09055l0.03423-0.25375 8.48e-4 5.2e-5c0.0061-0.0528 0.04138-0.08369 0.09181-0.08256 0.04162 9.09e-4 0.07281 0.02297 0.08443 0.06094l1.15e-4 2e-4 1.15e-4 2.01e-4 0.03551 0.27497c0.0071 0.05472 0.05292 0.09531 0.10788 0.0905 0.05496-0.0048 0.09275-0.05277 0.0905-0.10789l-0.01111-0.27231c3e-3 -0.04229 0.03053-0.07128 0.07319-0.07979 0.04947-0.0099 0.08978 0.01433 0.10502 0.06527l0.0762 0.24403c0.01646 0.05267 0.06878 0.08461 0.12207 0.07034 0.05329-0.01429 0.0821-0.06816 0.07034-0.12207l-0.05449-0.24884c-6.25e-4 -0.0026-0.0011-0.0052-0.0016-0.0077-0.0082-0.04822 0.01507-0.08689 0.06048-0.10227 0.04123-0.01396 0.07861-0.0019 0.10208 0.03342 3.77e-4 5.8e-4 6.69e-4 0.0012 1e-3 0.0018l0.12524 0.2386c0.02563 0.04886 0.08209 0.07137 0.13209 0.04805 0.04999-0.02332 0.0697-0.0814 0.04844-0.13232l-0.09882-0.23709c-0.02014-0.04625-0.0051-0.08896 0.03632-0.11414 0.03941-0.02396 0.08123-0.01843 0.11236 0.01524l1.15e-4 2.02e-4 0.16393 0.212c0.03373 0.04367 0.09354 0.05617 0.13873 0.02451 0.04519-0.03164 0.0542-0.09197 0.02443-0.13841l-0.137-0.21425 4e-4 -2.35e-4c-0.02922-0.04442-0.02179-0.092 0.01758-0.12354 0.03469-0.02781 0.07491-0.02892 0.10956-2e-3l2e-4 -1.16e-4 1.16e-4 2.01e-4 0.19853 0.18112c0.04079 0.03715 0.10175 0.03892 0.14076-8.4e-5 0.03901-0.03901 0.0375-0.1003 1.16e-4 -0.14088l-0.17409-0.18858c-0.0012-0.0013-0.0023-0.0029-0.0036-0.0042l-0.0012-0.0012c-0.02988-0.03558-0.02888-0.07846-5.4e-5 -0.11443 0.02968-0.03702 0.0725-0.04558 0.11445-0.02216 0.0026 0.0016 0.0052 0.0031 0.0078 0.0048l0.21537 0.13653c0.04662 0.02949 0.10705 0.02076 0.13868-0.02443 0.03165-0.04519 0.01932-0.10541-0.02456-0.13889l-0.20176-0.15397 8.5e-5 -3.19e-4c-0.04266-0.03175-0.05184-0.07918-0.02562-0.12229 0.02338-0.03845 0.06169-0.05302 0.10405-0.03879l4.23e-4 2.82e-4 0.24649 0.10098c0.05104 0.02096 0.1092 0.0019 0.13251-0.04804 0.02332-0.04999 7.13e-4 -0.10674-0.04831-0.13209l-0.23535-0.1218-0.0012-6.69e-4c-0.03867-0.02339-0.05158-0.0632-0.03703-0.10611 0.01552-0.04582 0.05385-0.06879 0.10259-0.05976 2e-3 3.9e-4 0.0041 1e-3 0.0061 0.0016l0.24918 0.05445c0.0539 0.01178 0.1079-0.01725 0.12218-0.07055 0.01428-0.05329-0.01797-0.10541-0.07062-0.12187l-0.24241-0.07592c-0.05093-0.01524-0.07575-0.05678-0.06587-0.10625 9e-3 -0.04539 0.04149-0.07209 0.08824-0.0717 0.0022 1.5e-5 0.0044-2.4e-5 0.0067 1.14e-4l0.25573 0.01044c0.05513 0.0022 0.10316-0.03559 0.10797-0.09055 0.0048-0.05496-0.03563-0.10102-0.09035-0.10808l-0.26775-0.03439c-0.04186-0.01-0.06628-0.04263-0.06727-0.08655-0.0011-0.05044 0.02967-0.08565 0.08249-0.0918l2.01e-4 -1.14e-4 0.25214-0.03403c0.05468-0.0072 0.09519-0.05312 0.09039-0.10808-0.0048-0.05496-0.05266-0.09286-0.10777-0.0903l-0.2616 0.01208c-3.07e-4 5e-6 -7.13e-4 6.5e-5 -1e-3 6.3e-5 -0.04817-7.58e-4 -0.08155-0.03068-0.08872-0.07761-0.0072-0.0479 0.01618-0.08552 0.06455-0.09982l8.4e-5 -3.19e-4 0.24361-0.07782c0.05257-0.01676 0.08474-0.06857 0.07045-0.12187-0.01428-0.05329-0.06804-0.08255-0.12186-0.07045l-0.26537 0.05951-2e-4 1.15e-4 -1.16e-4 -2e-4 -2e-4 1.16e-4c-0.04149 0.0038-0.07435-0.01846-0.08995-0.05853-0.01832-0.047-0.0016-0.09055 0.04601-0.11441l-1.42e-4 -7.14e-4 0.22559-0.11827c0.04886-0.02562 0.07156-0.0822 0.04826-0.13221-0.01602-0.03438-0.04847-0.05434-0.08375-0.05653-0.01203-7.59e-4 -0.02448 3.65e-4 -0.03663 0.0039-0.0041 0.0012-0.0078 0.0028-0.01182 0.0044l-0.24545 0.10231-0.0012 4.91e-4c-0.04401 0.01353-0.08393-0.0031-0.1061-0.04361-0.02327-0.04251-0.01407-0.08595 0.0265-0.11592l-6.67e-4 -6.7e-4 0.20326-0.15648c0.04367-0.03373 0.05605-0.09375 0.02441-0.13893-0.02176-0.03107-0.05699-0.04502-0.0921-0.04106-4e-3 4.51e-4 -0.0082 0.0011-0.01218 0.0019-0.01191 0.0028-0.02337 0.0074-0.03424 0.01446l-0.23212 0.14892c-0.03688 0.01611-0.07449 0.0062-0.10222-0.02537-0.03329-0.0379-0.03243-0.08479 0.0041-0.12346l-4.46e-4 -8.03e-4 0.17162-0.18826c0.03715-0.04079 0.03913-0.10187 1.17e-4 -0.14088-0.02682-0.02682-0.06415-0.03458-0.09805-0.02458-0.01541 0.0046-0.03028 0.01259-0.04296 0.02427l-0.19797 0.18271-2e-4 1.15e-4c-0.03634 0.02643-0.07881 0.02384-0.11294-0.0061-0.0364-0.03198-0.04249-0.07595-0.01463-0.118l-5.34e-4 -4.83e-4 0.13726-0.21687c0.02949-0.04662 0.02096-0.10715-0.02423-0.1388-0.01412-0.0099-0.02998-0.01529-0.04574-0.01698-0.013-0.0013-0.02608-5.1e-5 -0.03861 0.0037-0.02089 0.0061-0.04014 0.01903-0.05453 0.03787l-0.16707 0.21917c-0.0292 0.02809-0.06794 0.03165-0.10498 0.01137-0.04425-0.02423-0.0595-0.06848-0.03843-0.11729l-8.48e-4 -5.68e-4 0.09706-0.23625c0.02096-0.05105 2e-3 -0.109-0.04791-0.13232-0.01563-0.0072-0.03193-0.01-0.04774-0.0089-0.0042 2.97e-4 -0.0088 5.33e-4 -0.01303 0.0013-0.02973 6e-3 -0.05619 0.02613-0.07143 0.05561l-0.12428 0.24025-4.01e-4 2.36e-4c-0.02516 0.03674-0.06569 0.04878-0.10774 0.03239-0.04519-0.01758-0.06614-0.05696-0.05434-0.106l-6.25e-4 -1.64e-4 0.05483-0.25126c0.01178-0.0539-0.01712-0.1077-0.07042-0.12198-0.01664-0.0044-0.03308-0.0042-0.04847-4.96e-4 -0.03386 0.0083-0.06221 0.03471-0.07351 0.07094l-0.08266 0.2644-8.5e-5 3.18e-4c-0.01799 0.03558-0.05278 0.05184-0.09405 0.04551-0.04987-0.0077-0.07927-0.04428-0.07618-0.09737l-9.09e-4 -2.49e-4 0.01044-0.2549c0.0022-0.05513-0.03547-0.10296-0.09044-0.10777-0.01373-0.0012-0.02717 3.35e-4 -0.0393 0.0042-0.03642 0.01196-0.06339 0.04519-0.06867 0.08624l-0.03493 0.26959 1.16e-4 2.01e-4c-0.01153 0.0421-0.04529 0.06671-0.08984 0.0657-0.04845-0.0011-0.08149-0.03078-0.08717-0.0809l-8.46e-4 -5.3e-5 -0.0345-0.25479c-0.0072-0.05468-0.05291-0.09531-0.10787-0.0905-0.0069 6.02e-4 -0.01349 2e-3 -0.0198 4e-3 -0.04409 0.01314-0.07294 0.05569-0.0707 0.10391l0.01169 0.25677c0.0031 0.05033-0.02413 0.08539-0.07166 0.09488-0.04701 0.0093-0.08676-0.01241-0.10368-0.05832-8.91e-4 -0.0023-0.0018-0.0051-0.0026-0.0077l-0.0772-0.24244c-0.01676-0.05257-0.06857-0.08474-0.12187-0.07045-0.05329 0.01428-0.08255 0.06804-0.07045 0.12187l0.05598 0.24957c0.01227 0.05173-0.01044 0.09276-0.05822 0.10895-0.04589 0.01553-0.08849-4.49e-4 -0.11097-0.04559l-0.11837-0.22899c-0.02218-0.04288-0.06883-0.06539-0.11359-0.05473-0.0063 0.0016-0.01256 0.0037-0.01881 0.0066-0.0031 0.0016-0.0063 0.0031-0.0092 0.0048zm-0.19414 1.057s0.10851-0.06815 0.21276-0.0515c0.10801 0.01725 0.19658 0.15376 0.19658 0.15376l0.47212 0.81773s0.09441 0.18094 0.09755 0.42948c3e-3 0.23543-0.12484 0.46337-0.12484 0.46337l-0.44487 0.77032s-0.08848 0.13666-0.1965 0.15391c-0.10425 0.01663-0.21285-0.05146-0.21285-0.05146l0.0066 0.01189a1.8885 1.8885 0 0 1-0.50552-0.86314 1.8885 1.8885 0 0 1 0.49894-1.8343zm0.82212-0.47466a1.8885 1.8885 0 0 1 0.01423-4e-3 1.8885 1.8885 0 0 1 2.3129 1.3353 1.8885 1.8885 0 0 1 8e-3 0.03133c-0.0022 0.04156-0.01303 0.12505-0.06123 0.18441-0.06893 0.08494-0.23154 0.09321-0.23154 0.09321l-0.88954 1e-4s-0.26132-0.0032-0.46372-0.12358c-0.21366-0.127-0.32315-0.29922-0.32315-0.29922l-0.47212-0.81772s-0.07395-0.14495-0.03488-0.24712c0.03088-0.08071 0.11244-0.13552 0.141-0.15274zm0.39987 1.641a0.20655 0.20655 0 0 1 0.28215 0.07559 0.20655 0.20655 0 0 1-0.0756 0.28215 0.20655 0.20655 0 0 1-0.28215-0.07559 0.20655 0.20655 0 0 1 0.0756-0.28215zm0.27691 0.48377c0.21681-0.12154 0.4208-0.13009 0.4208-0.13009l0.9449-1.18e-4s0.16242 0.0082 0.23136 0.09321c0.0501 0.06171 0.05993 0.1497 0.06166 0.18933a1.8885 1.8885 0 0 1-1.3438 1.3674 1.8885 1.8885 0 0 1-0.99079-0.0038l0.0089-1.3e-4s-0.1132-0.05996-0.15091-0.15856c-0.03908-0.10217 0.03496-0.24698 0.03496-0.24698l0.45195-0.78294 5.8e-4 -8.47e-4c0.03213-0.04989 0.15489-0.22813 0.33032-0.32647z" fill="url(#linearGradient74)" stroke-linecap="round" stroke-linejoin="round" stroke-width=".8922" style="paint-order:fill markers stroke"/>
</svg>
