<svg width="64" height="64" version="1.1" viewBox="0 0 16.933 16.933" xmlns="http://www.w3.org/2000/svg" xmlns:xlink="http://www.w3.org/1999/xlink">
 <defs>
  <filter id="filter8" x="-.012" y="-.012" width="1.024" height="1.024" color-interpolation-filters="sRGB">
   <feGaussianBlur stdDeviation="0.074081873"/>
  </filter>
  <linearGradient id="linearGradient3" x1="8.4665" x2="8.4665" y1="1.0583" y2="15.875" gradientUnits="userSpaceOnUse">
   <stop stop-color="#54f06e" offset="0"/>
   <stop stop-color="#27c142" offset="1"/>
  </linearGradient>
  <linearGradient id="linearGradient21" x1="7.0113" x2="7.0113" y1="5.4018" y2="12.104" gradientUnits="userSpaceOnUse">
   <stop stop-color="#ffffff" offset="0"/>
   <stop stop-color="#dff7e3" offset=".42024"/>
   <stop stop-color="#93e5a1" offset="1"/>
  </linearGradient>
  <linearGradient id="linearGradient25" x1="13.452" x2="11.446" y1="6.4048" y2="11.594" gradientUnits="userSpaceOnUse">
   <stop stop-color="#ffffff" offset="0"/>
   <stop stop-color="#97e5a5" offset="1"/>
  </linearGradient>
  <filter id="filter27" x="-.026302" y="-.027736" width="1.0526" height="1.0555" color-interpolation-filters="sRGB">
   <feGaussianBlur stdDeviation="0.084086233"/>
  </filter>
  <filter id="filter30" x="-.037189" y="-.021194" width="1.0744" height="1.0424" color-interpolation-filters="sRGB">
   <feGaussianBlur stdDeviation="0.055770235"/>
  </filter>
  <filter id="filter31" x="-1.5272" y="-.36025" width="4.0543" height="1.7205" color-interpolation-filters="sRGB">
   <feGaussianBlur stdDeviation="0.38767444"/>
  </filter>
  <linearGradient id="linearGradient31" x1="10.802" x2="11.711" y1="8.6498" y2="8.6498" gradientUnits="userSpaceOnUse">
   <stop stop-color="#000000" offset="0"/>
   <stop stop-color="#000000" stop-opacity="0" offset="1"/>
  </linearGradient>
  <filter id="filter34" x="-.063089" y="-.092455" width="1.1262" height="1.1849" color-interpolation-filters="sRGB">
   <feGaussianBlur stdDeviation="0.2802907"/>
  </filter>
  <linearGradient id="linearGradient24" x1="6.7452" x2="10.583" y1="1.0583" y2="11.312" gradientUnits="userSpaceOnUse">
   <stop stop-color="#a0fed2" offset="0"/>
   <stop stop-color="#4bfa7f" offset="1"/>
  </linearGradient>
 </defs>
 <path d="m5.3603 1.0584c-1.5298 0-2.5777 0.45621-3.2599 1.1998-0.67868 0.73981-1.0421 1.8001-1.0421 3.0007v6.4154c0 1.2006 0.36337 2.2609 1.0421 3.0007 0.68219 0.74355 1.7301 1.1998 3.2599 1.1998h6.2306c1.5298 0 2.5777-0.45622 3.2599-1.1998 0.67868-0.73981 1.024-1.7026 1.024-3.0007v-6.1745c0-1.5703-0.34527-2.5019-1.024-3.2417-0.68219-0.74355-1.7301-1.1998-3.2599-1.1998h-4.8457z" fill="url(#linearGradient3)"/>
 <path d="m4.3599 5.1092c-0.6565 0-1.1849 0.52841-1.1849 1.1849v4.9061c0 0.6565 0.52841 1.1849 1.1849 1.1849h5.3029c0.6565 0 1.1849-0.52841 1.1849-1.1849v-1.1735l1.9802 1.7285a0.60859 0.60859 0 0 0 1.0097-0.45888v-5.0978a0.60859 0.60859 0 0 0-0.35501-0.55241 0.60859 0.60859 0 0 0-0.22376-0.054776 0.60859 0.60859 0 0 0-0.42684 0.14624l-1.9843 1.7063v-1.1498c0-0.6565-0.52841-1.1849-1.1849-1.1849z" fill="#000000" filter="url(#filter34)" opacity=".1" style="paint-order:fill markers stroke"/>
 <path d="m13.259 5.3107a0.60859 0.60859 0 0 0-0.42684 0.14624l-2.3807 2.0469a0.60859 0.60859 0 0 0-0.2129 0.46094v0.97253a0.60859 0.60859 0 0 0 0.20877 0.45939l2.3807 2.0779a0.60859 0.60859 0 0 0 1.0097-0.45888v-5.0978a0.60859 0.60859 0 0 0-0.35501-0.55241 0.60859 0.60859 0 0 0-0.22376-0.054776z" fill="url(#linearGradient25)" stop-color="#000000" stroke-linecap="round" stroke-linejoin="round" style="paint-order:fill markers stroke"/>
 <path d="m13.259 5.3107a0.60859 0.60859 0 0 0-0.42684 0.14624l-2.3807 2.0469a0.60859 0.60859 0 0 0-0.2129 0.46094v0.97253a0.60859 0.60859 0 0 0 0.20877 0.45939l2.3807 2.0779a0.60859 0.60859 0 0 0 1.0097-0.45888v-5.0978a0.60859 0.60859 0 0 0-0.35501-0.55241 0.60859 0.60859 0 0 0-0.22376-0.054776zm-0.048575 0.21084c0.012573-5.872e-4 0.025016-6.317e-4 0.037723 0 0.05048 0.00251 0.10083 0.016115 0.14676 0.037206 0.14138 0.0648 0.23181 0.20363 0.23202 0.35914v5.0978c3.54e-4 0.17865-0.099375 0.30206-0.23409 0.36328-0.13472 0.06122-0.29146 0.053156-0.4258-0.064594l-2.3812-2.0779c-0.086698-0.075548-0.13653-0.18421-0.13642-0.2992v-0.97253c2.77e-4 -0.11578 0.052582-0.22547 0.14056-0.30075l2.3807-2.0469c0.06755-0.058041 0.15176-0.091489 0.23977-0.0956z" fill="#ffffff" filter="url(#filter30)" opacity=".65" stop-color="#000000" stroke-linecap="round" stroke-linejoin="round" style="paint-order:fill markers stroke"/>
 <rect x="3.1749" y="4.8286" width="7.6728" height="7.2759" rx="1.185" ry="1.185" fill="url(#linearGradient21)" style="paint-order:fill markers stroke"/>
 <path d="m4.3599 4.8286c-0.6565 0-1.1849 0.52841-1.1849 1.1849v4.9061c0 0.6565 0.52841 1.1849 1.1849 1.1849h5.3029c0.6565 0 1.1849-0.52841 1.1849-1.1849v-4.9061c0-0.6565-0.52841-1.1849-1.1849-1.1849h-5.3029zm-5.168e-4 0.21239h5.3029c0.5429 0 0.9746 0.42963 0.9746 0.97253v4.9066c0 0.5429-0.43169 0.97253-0.9746 0.97253h-5.3029c-0.5429 0-0.97253-0.42963-0.97253-0.97253v-4.9066c0-0.5429 0.42963-0.97253 0.97253-0.97253z" fill="#ffffff" filter="url(#filter27)" opacity=".65" stop-color="#000000" stroke-linecap="round" stroke-linejoin="round" style="paint-order:fill markers stroke"/>
 <path d="m10.848 7.1632-0.39635 0.34054a0.60859 0.60859 0 0 0-0.2129 0.46094v0.97253a0.60859 0.60859 0 0 0 0.20877 0.45939l0.40048 0.34933v-2.5827z" fill="#ffffff" filter="url(#filter31)" stop-color="#000000" stroke-linecap="round" stroke-linejoin="round" style="paint-order:fill markers stroke"/>
 <path d="m13.259 5.3107a0.60859 0.60859 0 0 0-0.42684 0.14624l-1.9843 1.7063v2.5827l1.9802 1.7285a0.60859 0.60859 0 0 0 1.0097-0.45888v-5.0978a0.60859 0.60859 0 0 0-0.35501-0.55241 0.60859 0.60859 0 0 0-0.22376-0.054776z" fill="url(#linearGradient31)" opacity=".05" stop-color="#000000" stroke-linecap="round" stroke-linejoin="round" style="mix-blend-mode:normal;paint-order:fill markers stroke"/>
 <g filter="url(#filter8)" style="mix-blend-mode:normal">
  <path d="m5.3603 1.0583c-1.5298 0-2.5775 0.45637-3.2597 1.1999-0.67868 0.73981-1.0423 1.8002-1.0423 3.0008v6.415c0 1.2006 0.36361 2.2609 1.0423 3.0008 0.68219 0.74355 1.7299 1.1999 3.2597 1.1999h6.2305c1.5298 0 2.5775-0.45637 3.2597-1.1999 0.67868-0.73981 1.0242-1.7027 1.0242-3.0008v-6.1742c0-1.5703-0.34552-2.5018-1.0242-3.2416-0.68219-0.74355-1.7299-1.1999-3.2597-1.1999h-4.8456zm-0.00103 0.26406h6.2326c1.4772 0 2.437 0.43133 3.0644 1.1152 0.63411 0.69126 0.95341 1.5307 0.95341 3.0623v6.1742c0 1.2512-0.32181 2.1335-0.95341 2.822-0.6274 0.68381-1.5871 1.1136-3.0644 1.1136h-6.2326c-1.4772 0-2.437-0.42978-3.0644-1.1136-0.62537-0.68172-0.97253-1.6747-0.97253-2.822v-6.4145c0-1.1472 0.34717-2.1403 0.97253-2.822 0.6274-0.68381 1.5871-1.1152 3.0644-1.1152z" fill="url(#linearGradient24)"/>
 </g>
</svg>
