<svg width="64" height="64" version="1.1" viewBox="0 0 16.933 16.933" xmlns="http://www.w3.org/2000/svg" xmlns:xlink="http://www.w3.org/1999/xlink">
 <defs>
  <linearGradient id="linearGradient26" x1="5.4347" x2="5.4347" y1="3.6049" y2="13.339" gradientUnits="userSpaceOnUse">
   <stop stop-color="#fbcf4c" offset="0"/>
   <stop stop-color="#a38837" offset="1"/>
  </linearGradient>
  <linearGradient id="linearGradient28" x1="8.4799" x2="8.4799" y1="3.6049" y2="13.295" gradientUnits="userSpaceOnUse">
   <stop stop-color="#5fc064" offset="0"/>
   <stop stop-color="#448447" offset="1"/>
  </linearGradient>
  <linearGradient id="linearGradient30" x1="11.5" x2="11.5" y1="3.6049" y2="13.273" gradientTransform="translate(.049608)" gradientUnits="userSpaceOnUse">
   <stop stop-color="#3687e5" offset="0"/>
   <stop stop-color="#2960a0" offset="1"/>
  </linearGradient>
  <linearGradient id="linearGradient35" x1="3.7041" x2="6.3499" y1="4.2333" y2="13.229" gradientUnits="userSpaceOnUse">
   <stop stop-color="#ffffff" stop-opacity=".5" offset="0"/>
   <stop stop-color="#ffffff" stop-opacity=".2" offset="1"/>
  </linearGradient>
  <filter id="filter36" x="-.05228" y="-.0182" width="1.1046" height="1.0364" color-interpolation-filters="sRGB">
   <feGaussianBlur stdDeviation="0.073764433"/>
  </filter>
  <filter id="filter37" x="-.039623" y="-.020477" width="1.0792" height="1.041" color-interpolation-filters="sRGB">
   <feGaussianBlur stdDeviation="0.082993322"/>
  </filter>
  <filter id="filter39" x="-.039523" y="-.020503" width="1.079" height="1.041" color-interpolation-filters="sRGB">
   <feGaussianBlur stdDeviation="0.082784017"/>
  </filter>
  <filter id="filter40" x="-.043081" y="-.019661" width="1.0862" height="1.0393" color-interpolation-filters="sRGB">
   <feGaussianBlur stdDeviation="0.079383125"/>
  </filter>
  <filter id="filter42" x="-.039463" y="-.02052" width="1.0789" height="1.041" color-interpolation-filters="sRGB">
   <feGaussianBlur stdDeviation="0.082659022"/>
  </filter>
  <filter id="filter43" x="-.043408" y="-.019594" width="1.0868" height="1.0392" color-interpolation-filters="sRGB">
   <feGaussianBlur stdDeviation="0.078752364"/>
  </filter>
  <filter id="filter8" x="-.012" y="-.012" width="1.024" height="1.024" color-interpolation-filters="sRGB">
   <feGaussianBlur stdDeviation="0.074081873"/>
  </filter>
  <linearGradient id="linearGradient7" x1="2.5981" x2="10.583" y1="2.8356" y2="11.312" gradientUnits="userSpaceOnUse" xlink:href="#linearGradient6"/>
  <linearGradient id="linearGradient6">
   <stop stop-color="#ffffff" offset="0"/>
   <stop stop-color="#ffffff" stop-opacity="0" offset="1"/>
  </linearGradient>
  <linearGradient id="linearGradient8" x1="15.081" x2="12.7" y1="14.816" y2="12.171" gradientUnits="userSpaceOnUse" xlink:href="#linearGradient6"/>
  <linearGradient id="linearGradient3" x1="8.4665" x2="8.4665" y1="1.0583" y2="15.875" gradientUnits="userSpaceOnUse">
   <stop stop-color="#323131" offset="0"/>
   <stop stop-color="#141414" offset="1"/>
  </linearGradient>
  <filter id="filter44" x="-.27919" y="-.13833" width="1.5584" height="1.2767" color-interpolation-filters="sRGB">
   <feGaussianBlur stdDeviation="0.23053697"/>
  </filter>
  <filter id="filter45" x="-.28202" y="-.13865" width="1.564" height="1.2773" color-interpolation-filters="sRGB">
   <feGaussianBlur stdDeviation="0.22995558"/>
  </filter>
 </defs>
 <path d="m5.3604 1.0584c-1.5298 0-2.5777 0.45621-3.2599 1.1998-0.67867 0.73981-1.0421 1.8001-1.0421 3.0006v6.4155c0 1.2006 0.36337 2.2609 1.0421 3.0006 0.68219 0.74354 1.7301 1.1998 3.2599 1.1998h6.2306c1.5298 0 2.5777-0.45621 3.2599-1.1998 0.67867-0.73981 1.024-1.7026 1.024-3.0006v-6.1745c0-1.5703-0.34528-2.5019-1.024-3.2416-0.68219-0.74354-1.7301-1.1998-3.2599-1.1998h-4.8457z" fill="url(#linearGradient3)"/>
 <g filter="url(#filter8)" style="mix-blend-mode:overlay">
  <path d="m5.3603 1.0583c-1.5298 0-2.5775 0.45637-3.2597 1.1999-0.67868 0.73981-1.0423 1.8002-1.0423 3.0008v6.415c0 1.2006 0.36361 2.2609 1.0423 3.0008 0.68219 0.74355 1.7299 1.1999 3.2597 1.1999h6.2305c1.5298 0 2.5775-0.45637 3.2597-1.1999 0.67868-0.73981 1.0242-1.7027 1.0242-3.0008v-6.1742c0-1.5703-0.34552-2.5018-1.0242-3.2416-0.68219-0.74355-1.7299-1.1999-3.2597-1.1999h-4.8456zm-0.00103 0.26406h6.2326c1.4772 0 2.437 0.43133 3.0644 1.1152 0.63411 0.69126 0.95341 1.5307 0.95341 3.0623v6.1742c0 1.2512-0.32181 2.1335-0.95341 2.822-0.6274 0.68381-1.5871 1.1136-3.0644 1.1136h-6.2326c-1.4772 0-2.437-0.42978-3.0644-1.1136-0.62537-0.68172-0.97253-1.6747-0.97253-2.822v-6.4145c0-1.1472 0.34717-2.1403 0.97253-2.822 0.6274-0.68381 1.5871-1.1152 3.0644-1.1152z" fill="url(#linearGradient7)"/>
  <path d="m5.3603 1.0583c-1.5298 0-2.5775 0.45637-3.2597 1.1999-0.67868 0.73981-1.0423 1.8002-1.0423 3.0008v6.415c0 1.2006 0.36361 2.2609 1.0423 3.0008 0.68219 0.74355 1.7299 1.1999 3.2597 1.1999h6.2305c1.5298 0 2.5775-0.45637 3.2597-1.1999 0.67868-0.73981 1.0242-1.7027 1.0242-3.0008v-6.1742c0-1.5703-0.34552-2.5018-1.0242-3.2416-0.68219-0.74355-1.7299-1.1999-3.2597-1.1999h-4.8456zm-0.00103 0.26406h6.2326c1.4772 0 2.437 0.43133 3.0644 1.1152 0.63411 0.69126 0.95341 1.5307 0.95341 3.0623v6.1742c0 1.2512-0.32181 2.1335-0.95341 2.822-0.6274 0.68381-1.5871 1.1136-3.0644 1.1136h-6.2326c-1.4772 0-2.437-0.42978-3.0644-1.1136-0.62537-0.68172-0.97253-1.6747-0.97253-2.822v-6.4145c0-1.1472 0.34717-2.1403 0.97253-2.822 0.6274-0.68381 1.5871-1.1152 3.0644-1.1152z" fill="url(#linearGradient8)" stroke-width="1.0001"/>
 </g>
 <g filter="url(#filter8)" opacity=".5" style="mix-blend-mode:overlay">
  <path d="m5.3603 1.0583c-1.5298 0-2.5775 0.45637-3.2597 1.1999-0.67868 0.73981-1.0423 1.8002-1.0423 3.0008v6.415c0 1.2006 0.36361 2.2609 1.0423 3.0008 0.68219 0.74355 1.7299 1.1999 3.2597 1.1999h6.2305c1.5298 0 2.5775-0.45637 3.2597-1.1999 0.67868-0.73981 1.0242-1.7027 1.0242-3.0008v-6.1742c0-1.5703-0.34552-2.5018-1.0242-3.2416-0.68219-0.74355-1.7299-1.1999-3.2597-1.1999h-4.8456zm-0.00103 0.26406h6.2326c1.4772 0 2.437 0.43133 3.0644 1.1152 0.63411 0.69126 0.95341 1.5307 0.95341 3.0623v6.1742c0 1.2512-0.32181 2.1335-0.95341 2.822-0.6274 0.68381-1.5871 1.1136-3.0644 1.1136h-6.2326c-1.4772 0-2.437-0.42978-3.0644-1.1136-0.62537-0.68172-0.97253-1.6747-0.97253-2.822v-6.4145c0-1.1472 0.34717-2.1403 0.97253-2.822 0.6274-0.68381 1.5871-1.1152 3.0644-1.1152z" fill="url(#linearGradient7)"/>
  <path d="m5.3603 1.0583c-1.5298 0-2.5775 0.45637-3.2597 1.1999-0.67868 0.73981-1.0423 1.8002-1.0423 3.0008v6.415c0 1.2006 0.36361 2.2609 1.0423 3.0008 0.68219 0.74355 1.7299 1.1999 3.2597 1.1999h6.2305c1.5298 0 2.5775-0.45637 3.2597-1.1999 0.67868-0.73981 1.0242-1.7027 1.0242-3.0008v-6.1742c0-1.5703-0.34552-2.5018-1.0242-3.2416-0.68219-0.74355-1.7299-1.1999-3.2597-1.1999h-4.8456zm-0.00103 0.26406h6.2326c1.4772 0 2.437 0.43133 3.0644 1.1152 0.63411 0.69126 0.95341 1.5307 0.95341 3.0623v6.1742c0 1.2512-0.32181 2.1335-0.95341 2.822-0.6274 0.68381-1.5871 1.1136-3.0644 1.1136h-6.2326c-1.4772 0-2.437-0.42978-3.0644-1.1136-0.62537-0.68172-0.97253-1.6747-0.97253-2.822v-6.4145c0-1.1472 0.34717-2.1403 0.97253-2.822 0.6274-0.68381 1.5871-1.1152 3.0644-1.1152z" fill="url(#linearGradient8)" stroke-width="1.0001"/>
 </g>
 <path d="m5.4347 3.6049c-1.3882-1e-7 -2.5135 1.1253-2.5135 2.5135-2.74e-5 1.1674 0.80375 2.1812 1.9404 2.4473v3.8617 5.16e-4 0.27181 0.037206c0 0.3298 0.2655 0.5953 0.5953 0.5953 0.3298 0 0.5953-0.2655 0.5953-0.5953v-0.037206-0.27181-0.053225h0.52502c0.14899 0 0.26871-0.12024 0.26871-0.26923v-1.9756c0-0.14899-0.11972-0.26871-0.26871-0.26871h-0.52502v-1.3064c1.1151-0.28262 1.896-1.2862 1.896-2.4365 0-1.3882-1.1253-2.5135-2.5135-2.5135zm0 0.97253a0.66145 0.66145 0 0 1 0.66145 0.66145 0.66145 0.66145 0 0 1-0.66145 0.66145 0.66145 0.66145 0 0 1-0.66145-0.66145 0.66145 0.66145 0 0 1 0.66145-0.66145z" fill="url(#linearGradient26)" stroke-linecap="round" stroke-linejoin="round" stroke-width="2.1358" style="paint-order:fill markers stroke"/>
 <path d="m5.4347 3.6049c-1.3882-1e-7 -2.5135 1.1253-2.5135 2.5135-2.74e-5 1.1674 0.80375 2.1812 1.9404 2.4473v4.1712c0 0.3298 0.2655 0.5953 0.5953 0.5953 0.3298 0 0.5953-0.2655 0.5953-0.5953v-0.36224h0.52502c0.14899 0 0.26871-0.12024 0.26871-0.26923v-1.9756c0-0.14899-0.11972-0.26871-0.26871-0.26871h-0.52502v-1.3064c1.1151-0.28262 1.896-1.2862 1.896-2.4365 0-1.3882-1.1253-2.5135-2.5135-2.5135zm0.00103 0.21135c1.2738-1e-7 2.3006 1.0289 2.3006 2.3027 1.74e-5 1.0545-0.71407 1.9717-1.7363 2.2308a0.21168 0.21168 0 0 0-0.16019 0.20515v1.3064a0.21168 0.21168 0 0 0 0.2129 0.21084h0.52554c0.035602 0 0.056326 0.02331 0.056326 0.05891v1.9745c0 0.0356-0.021214 0.05684-0.056326 0.05684h-0.52554a0.21168 0.21168 0 0 0-0.2129 0.2129v0.36122c0 0.2162-0.16672 0.38446-0.38291 0.38446-0.2162 0-0.38291-0.16827-0.38291-0.38446v-4.1702a0.21168 0.21168 0 0 0-0.16381-0.2067c-1.0421-0.24402-1.7777-1.1704-1.7776-2.2406 0-1.2738 1.0294-2.3027 2.3032-2.3027zm0 0.54879c-0.4797 0-0.87331 0.39362-0.87331 0.87331 0 0.4797 0.39362 0.8728 0.87331 0.8728 0.4797 0 0.8728-0.3931 0.8728-0.8728 0-0.4797-0.3931-0.87331-0.8728-0.87331zm-0.00103 0.21239a0.66145 0.66145 0 0 1 0.66145 0.66145 0.66145 0.66145 0 0 1-0.66145 0.66145 0.66145 0.66145 0 0 1-0.66145-0.66145 0.66145 0.66145 0 0 1 0.66145-0.66145z" fill="url(#linearGradient35)" filter="url(#filter37)" opacity=".35" stop-color="#000000" stroke-linecap="round" stroke-linejoin="round" style="mix-blend-mode:overlay;paint-order:fill markers stroke"/>
 <path d="m5.4347 3.6049c-1.3882-1e-7 -2.5135 1.1253-2.5135 2.5135-2.74e-5 1.1674 0.80375 2.1812 1.9404 2.4473v4.1712c0 0.3298 0.2655 0.5953 0.5953 0.5953 0.036079 0 0.071141-0.0032 0.10542-0.0093-0.27903-0.0496-0.48937-0.29229-0.48937-0.586v-4.1712c-1.1367-0.26617-1.9404-1.2799-1.9404-2.4473 0-1.3526 1.0686-2.4558 2.4076-2.5114-0.035045-0.00145-0.070017-0.00207-0.10542-0.00207zm0.21135 0.97253a0.66145 0.66145 0 0 0-0.10593 0.008268 0.66145 0.66145 0 0 1 0.55603 0.65318 0.66145 0.66145 0 0 1-0.55551 0.65318 0.66145 0.66145 0 0 0 0.10542 0.0082681 0.66145 0.66145 0 0 0 0.66145-0.66145 0.66145 0.66145 0 0 0-0.66145-0.66145z" fill="#ffffff" filter="url(#filter36)" opacity=".5" stroke-linecap="round" stroke-linejoin="round" stroke-width="2.1358" style="mix-blend-mode:overlay;paint-order:fill markers stroke"/>
 <path d="m8.4799 3.6049a2.5135 2.5135 0 0 0-2.5135 2.5135 2.5135 2.5135 0 0 0 1.651 2.361v3.9749l0.79373 0.84076h0.16536l1.1524-1.1518v-0.42477l-0.57618-0.57566 0.5705-0.5705v-0.19843l-0.54001-0.54053 0.54001-0.54001v-0.18758l-0.56636-0.56636a2.5135 2.5135 0 0 0 1.8365-2.421 2.5135 2.5135 0 0 0-2.5135-2.5135zm0 0.97253a0.66145 0.66145 0 0 1 0.66145 0.66145 0.66145 0.66145 0 0 1-0.66145 0.66145 0.66145 0.66145 0 0 1-0.66145-0.66145 0.66145 0.66145 0 0 1 0.66145-0.66145z" fill="url(#linearGradient28)" stroke-linecap="round" stroke-linejoin="round" stroke-width="2.1358" style="paint-order:fill markers stroke"/>
 <rect x="6.0853" y="9.8612" width=".26458" height="2.5135" rx="0" ry="0" fill="#000000" opacity=".15" stroke-linecap="round" stroke-linejoin="round" stroke-width="1.8934" style="mix-blend-mode:overlay;paint-order:fill markers stroke"/>
 <path d="m8.59 8.5466s-0.24442 0.18448-0.24442 0.44906v4.2296l0.065628 0.06976h0.16536l0.014469-0.01447z" fill="#000000" opacity=".15" stroke-linecap="round" stroke-linejoin="round" stroke-width="2" style="mix-blend-mode:overlay;paint-order:fill markers stroke"/>
 <path d="m8.4799 3.6049a2.5135 2.5135 0 0 0-2.5135 2.5135 2.5135 2.5135 0 0 0 1.651 2.361v3.9749l0.79373 0.84076h0.16536l1.1524-1.1518v-0.42477l-0.57618-0.57566 0.5705-0.5705v-0.19843l-0.54001-0.54053 0.54001-0.54001v-0.18758l-0.56636-0.56636a2.5135 2.5135 0 0 0 1.8365-2.421 2.5135 2.5135 0 0 0-2.5135-2.5135zm5.168e-4 0.21135c1.2738-2e-7 2.3006 1.0289 2.3006 2.3027 1.55e-4 1.0336-0.68609 1.9385-1.6815 2.2169a0.21168 0.21168 0 0 0-0.091466 0.35346l0.50384 0.50435v0.011369l-0.47851 0.47851a0.21168 0.21168 0 0 0 0 0.2992l0.47851 0.47851v0.02325l-0.50797 0.50797a0.21168 0.21168 0 0 0 0 0.30075l0.51365 0.51365v0.24804l-1.0216 1.0211-0.6661-0.70485v-3.8927a0.21168 0.21168 0 0 0-0.14056-0.19688c-0.90873-0.33197-1.5116-1.1952-1.5115-2.1626 0-1.2738 1.0289-2.3027 2.3027-2.3027zm0 0.54879c-0.4797 0-0.8728 0.39362-0.8728 0.87331 0 0.4797 0.3931 0.8728 0.8728 0.8728 0.4797 0 0.87331-0.3931 0.87331-0.8728 0-0.4797-0.39362-0.87331-0.87331-0.87331zm-5.168e-4 0.21239a0.66145 0.66145 0 0 1 0.66145 0.66145 0.66145 0.66145 0 0 1-0.66145 0.66145 0.66145 0.66145 0 0 1-0.66145-0.66145 0.66145 0.66145 0 0 1 0.66145-0.66145z" fill="#ffffff" filter="url(#filter39)" opacity=".15" stop-color="#000000" stroke-linecap="round" stroke-linejoin="round" style="mix-blend-mode:overlay;paint-order:fill markers stroke"/>
 <path d="m8.4799 3.6049a2.5135 2.5135 0 0 0-2.5135 2.5135 2.5135 2.5135 0 0 0 0.80665 1.8438 2.5135 2.5135 0 0 1-0.59427-1.6226 2.5135 2.5135 0 0 1 2.5135-2.5135 2.5135 2.5135 0 0 1 1.6965 0.66506 2.5135 2.5135 0 0 0-1.9089-0.88623zm0.57153 1.3012a0.66145 0.66145 0 0 1 0.089915 0.33279 0.66145 0.66145 0 0 1-0.66145 0.66145 0.66145 0.66145 0 0 1-0.35966-0.108 0.66145 0.66145 0 0 0 0.57205 0.32917 0.66145 0.66145 0 0 0 0.66145-0.66145 0.66145 0.66145 0 0 0-0.3023-0.55396zm-1.434 3.7056v3.8426l0.79373 0.84076h0.00362l-0.58497-0.61959v-3.9749a2.5135 2.5135 0 0 1-0.21239-0.088882zm1.7585 0.14676a2.5135 2.5135 0 0 1-0.00672 0.00207l0.35398 0.35398v-0.00878zm0.023771 1.2919-0.00413 0.0041 0.32762 0.32814v-0.0088zm-0.029972 1.3089-0.00465 0.0047 0.36379 0.36328v-0.0088z" fill="#ffffff" filter="url(#filter40)" opacity=".5" stroke-linecap="round" stroke-linejoin="round" stroke-width="2.1358" style="mix-blend-mode:overlay;paint-order:fill markers stroke"/>
 <path d="m11.55 3.6049a2.5135 2.5135 0 0 0-2.5135 2.5135 2.5135 2.5135 0 0 0 1.4552 2.2799v0.40462c0 0.12825 0.10325 0.23151 0.23151 0.23151h0.03411v3.8746c0 0.20167 0.16212 0.3638 0.3638 0.3638h0.41857l0.76428-0.66041v-1.0991l-0.31987-0.31935v-0.48316l0.34519-0.34519v-1.3312h0.04754c0.12826 0 0.23151-0.10325 0.23151-0.23151v-0.40462a2.5135 2.5135 0 0 0 1.4552-2.2799 2.5135 2.5135 0 0 0-2.5135-2.5135zm0 0.97253a0.66145 0.66145 0 0 1 0.66144 0.66145 0.66145 0.66145 0 0 1-0.66144 0.66145 0.66145 0.66145 0 0 1-0.66145-0.66145 0.66145 0.66145 0 0 1 0.66145-0.66145z" fill="url(#linearGradient30)" stroke-linecap="round" stroke-linejoin="round" stroke-width="2.1358" style="paint-order:fill markers stroke"/>
 <path d="m11.509 8.9957c-0.07329 0-0.13229 0.059001-0.13229 0.13229v4.1449h0.16278l0.1018-0.08785v-4.057c0-0.073288-0.059-0.13229-0.13229-0.13229z" fill="#000000" opacity=".15" stroke-linecap="round" stroke-linejoin="round" stroke-width="2" style="mix-blend-mode:overlay;paint-order:fill markers stroke"/>
 <path d="m11.55 3.6049a2.5135 2.5135 0 0 0-2.5135 2.5135 2.5135 2.5135 0 0 0 1.4552 2.2799v0.40462c0 0.12825 0.10325 0.23151 0.2315 0.23151h0.03411v3.8746c0 0.20167 0.16212 0.3638 0.3638 0.3638h0.41857l0.76428-0.66041v-1.0991l-0.31987-0.31935v-0.48316l0.34519-0.34519v-1.3312h0.04754c0.12826 0 0.23151-0.10325 0.23151-0.23151v-0.40462a2.5135 2.5135 0 0 0 1.4552-2.2799 2.5135 2.5135 0 0 0-2.5135-2.5135zm1e-3 0.21135c1.2738 0 2.3006 1.0289 2.3006 2.3027 3.2e-5 0.89654-0.519 1.7107-1.3322 2.0882a0.21168 0.21168 0 0 0-0.12295 0.1912v0.40462c0 0.014655-5e-3 0.01912-0.01964 0.01912h-0.04651a0.21168 0.21168 0 0 0-0.2129 0.2129v1.2423l-0.28318 0.28318a0.21168 0.21168 0 0 0-0.06253 0.15038v0.48265a0.21168 0.21168 0 0 0 0.06253 0.15038l0.25786 0.25786v0.91414l-0.63096 0.54466h-0.34002c-0.08823 0-0.15244-0.06421-0.15244-0.15244v-3.8731a0.21168 0.21168 0 0 0-0.21083-0.2129h-0.03514c-0.01466 0-0.01964-0.00447-0.01964-0.01912v-0.40462a0.21168 0.21168 0 0 0-0.12298-0.1912c-0.81319-0.37749-1.3322-1.1917-1.3322-2.0882 0-1.2738 1.0294-2.3027 2.3032-2.3027zm0 0.54879c-0.4797-5e-7 -0.87332 0.39362-0.87332 0.87331 0 0.4797 0.39362 0.8728 0.87332 0.8728 0.4797-2e-7 0.8728-0.3931 0.8728-0.8728 0-0.4797-0.3931-0.87331-0.8728-0.87331zm-1e-3 0.21239a0.66145 0.66145 0 0 1 0.66144 0.66145 0.66145 0.66145 0 0 1-0.66144 0.66145 0.66145 0.66145 0 0 1-0.66144-0.66145 0.66145 0.66145 0 0 1 0.66144-0.66145z" fill="#ffffff" filter="url(#filter42)" opacity=".15" stop-color="#000000" stroke-linecap="round" stroke-linejoin="round" style="mix-blend-mode:overlay;paint-order:fill markers stroke"/>
 <path d="m11.55 3.6049a2.5135 2.5135 0 0 0-2.5135 2.5135 2.5135 2.5135 0 0 0 0.89347 1.9187 2.5135 2.5135 0 0 1-0.68212-1.7167 2.5135 2.5135 0 0 1 2.5135-2.5135 2.5135 2.5135 0 0 1 1.6293 0.59995 2.5135 2.5135 0 0 0-1.8407-0.802zm0.54931 1.2686a0.66145 0.66145 0 0 1 0.11214 0.36535 0.66145 0.66145 0 0 1-0.66144 0.66145 0.66145 0.66145 0 0 1-0.33847-0.093533 0.66145 0.66145 0 0 0 0.54983 0.29558 0.66145 0.66145 0 0 0 0.66145-0.66145 0.66145 0.66145 0 0 0-0.32349-0.5674zm-1.6076 3.6162v0.31315c0 0.12205 0.09333 0.22165 0.2129 0.23099-0.0011-0.00933-0.0015-0.019293-0.0015-0.028938v-0.40462a2.5135 2.5135 0 0 1-0.2114-0.11059zm0.26561 0.66455v3.7547c0 0.15774 0.09903 0.29139 0.23874 0.34209-0.01776-0.04296-0.02739-0.09049-0.02739-0.14004v-3.8746h-0.03411c-0.07128 0-0.13484-0.031812-0.17725-0.082164z" fill="#ffffff" filter="url(#filter43)" opacity=".5" stroke-linecap="round" stroke-linejoin="round" stroke-width="2.1358" style="mix-blend-mode:overlay;paint-order:fill markers stroke"/>
 <path d="m6.9576 4.1185a2.5135 2.5135 0 0 0-0.87073 1.2314 0.66145 0.66145 0 0 1-0.04134 0.14211 2.5135 2.5135 0 0 0-0.079063 0.62631 2.5135 2.5135 0 0 0 0.99113 1.9998c0.60979-0.4646 0.99063-1.1963 0.99062-1.9998 0-0.21476-0.026838-0.42319-0.077513-0.62217a0.66145 0.66145 0 0 1-0.043408-0.15038c-0.15918-0.49314-0.46656-0.91987-0.8697-1.2273z" fill="#ffffff" filter="url(#filter44)" opacity=".25" stroke-linecap="round" stroke-linejoin="round" stroke-width="2.1358" style="mix-blend-mode:overlay;paint-order:fill markers stroke"/>
 <path d="m10.015 4.1283a2.5135 2.5135 0 0 0-0.97822 1.99 2.5135 2.5135 0 0 0 0.97873 1.9905 2.5135 2.5135 0 0 0 0.97822-1.9905 2.5135 2.5135 0 0 0-0.97873-1.99z" fill="#ffffff" filter="url(#filter45)" opacity=".2" stroke-linecap="round" stroke-linejoin="round" stroke-width="2.1358" style="mix-blend-mode:overlay;paint-order:fill markers stroke"/>
</svg>
