<svg width="64" height="64" version="1.1" viewBox="0 0 16.933 16.933" xmlns="http://www.w3.org/2000/svg" xmlns:xlink="http://www.w3.org/1999/xlink">
 <defs>
  <filter id="filter8" x="-.012" y="-.012" width="1.024" height="1.024" color-interpolation-filters="sRGB">
   <feGaussianBlur stdDeviation="0.074081873"/>
  </filter>
  <linearGradient id="linearGradient7" x1="6.7452" x2="10.583" y1="1.0583" y2="11.312" gradientUnits="userSpaceOnUse">
   <stop stop-color="#ffffff" offset="0"/>
   <stop stop-color="#ffffff" stop-opacity="0" offset="1"/>
  </linearGradient>
  <linearGradient id="linearGradient8" x1="15.081" x2="13.229" y1="14.816" y2="1.3229" gradientUnits="userSpaceOnUse">
   <stop stop-color="#ffffff" offset="0"/>
   <stop stop-color="#ffffff" stop-opacity=".36" offset="1"/>
  </linearGradient>
  <linearGradient id="linearGradient3" x1="8.4665" x2="8.4665" y1="1.0583" y2="15.875" gradientUnits="userSpaceOnUse">
   <stop stop-color="#54f06e" offset="0"/>
   <stop stop-color="#27c142" offset="1"/>
  </linearGradient>
  <linearGradient id="linearGradient10" x1="8.4776" x2="8.4776" y1="3.7976" y2="12.662" gradientUnits="userSpaceOnUse">
   <stop stop-color="#ffffff" offset="0"/>
   <stop stop-color="#9fe6ab" offset="1"/>
  </linearGradient>
  <filter id="filter12" x="-.024555" y="-.029986" width="1.0491" height="1.06" color-interpolation-filters="sRGB">
   <feGaussianBlur stdDeviation="0.11075629"/>
  </filter>
  <filter id="filter13" x="-.13369" y="-.16326" width="1.2674" height="1.3265" color-interpolation-filters="sRGB">
   <feGaussianBlur stdDeviation="0.6030065"/>
  </filter>
 </defs>
 <path d="m5.3603 1.0584c-1.5298 0-2.5777 0.45621-3.2599 1.1998-0.67868 0.73981-1.0421 1.8001-1.0421 3.0007v6.4154c0 1.2006 0.36337 2.2609 1.0421 3.0007 0.68219 0.74355 1.7301 1.1998 3.2599 1.1998h6.2306c1.5298 0 2.5777-0.45622 3.2599-1.1998 0.67868-0.73981 1.024-1.7026 1.024-3.0007v-6.1745c0-1.5703-0.34527-2.5019-1.024-3.2417-0.68219-0.74355-1.7301-1.1998-3.2599-1.1998h-4.8457z" fill="url(#linearGradient3)"/>
 <g filter="url(#filter8)" style="mix-blend-mode:overlay">
  <path d="m5.3603 1.0583c-1.5298 0-2.5775 0.45637-3.2597 1.1999-0.67868 0.73981-1.0423 1.8002-1.0423 3.0008v6.415c0 1.2006 0.36361 2.2609 1.0423 3.0008 0.68219 0.74355 1.7299 1.1999 3.2597 1.1999h6.2305c1.5298 0 2.5775-0.45637 3.2597-1.1999 0.67868-0.73981 1.0242-1.7027 1.0242-3.0008v-6.1742c0-1.5703-0.34552-2.5018-1.0242-3.2416-0.68219-0.74355-1.7299-1.1999-3.2597-1.1999h-4.8456zm-0.00103 0.26406h6.2326c1.4772 0 2.437 0.43133 3.0644 1.1152 0.63411 0.69126 0.95341 1.5307 0.95341 3.0623v6.1742c0 1.2512-0.32181 2.1335-0.95341 2.822-0.6274 0.68381-1.5871 1.1136-3.0644 1.1136h-6.2326c-1.4772 0-2.437-0.42978-3.0644-1.1136-0.62537-0.68172-0.97253-1.6747-0.97253-2.822v-6.4145c0-1.1472 0.34717-2.1403 0.97253-2.822 0.6274-0.68381 1.5871-1.1152 3.0644-1.1152z" fill="url(#linearGradient7)"/>
  <path d="m5.3603 1.0583c-1.5298 0-2.5775 0.45637-3.2597 1.1999-0.67868 0.73981-1.0423 1.8002-1.0423 3.0008v6.415c0 1.2006 0.36361 2.2609 1.0423 3.0008 0.68219 0.74355 1.7299 1.1999 3.2597 1.1999h6.2305c1.5298 0 2.5775-0.45637 3.2597-1.1999 0.67868-0.73981 1.0242-1.7027 1.0242-3.0008v-6.1742c0-1.5703-0.34552-2.5018-1.0242-3.2416-0.68219-0.74355-1.7299-1.1999-3.2597-1.1999h-4.8456zm-0.00103 0.26406h6.2326c1.4772 0 2.437 0.43133 3.0644 1.1152 0.63411 0.69126 0.95341 1.5307 0.95341 3.0623v6.1742c0 1.2512-0.32181 2.1335-0.95341 2.822-0.6274 0.68381-1.5871 1.1136-3.0644 1.1136h-6.2326c-1.4772 0-2.437-0.42978-3.0644-1.1136-0.62537-0.68172-0.97253-1.6747-0.97253-2.822v-6.4145c0-1.1472 0.34717-2.1403 0.97253-2.822 0.6274-0.68381 1.5871-1.1152 3.0644-1.1152z" fill="url(#linearGradient8)"/>
 </g>
 <path d="m8.4774 4.0622c-3.3948 0-5.4125 1.9783-5.4125 4.4182 0 0.96972 0.31362 1.8665 0.9069 2.5951 0.063489 0.11696 0.23208 0.45882 0.2067 0.75704-0.031181 0.36638-0.12113 0.64723-0.54208 0.92396-0.42094 0.27673 0.52556 0.17911 1.0873-0.03152 0.25263-0.09474 0.52826-0.30526 0.72811-0.47903 0.81972 0.41363 1.8358 0.65214 3.0256 0.65214 3.2856 0 5.413-1.9778 5.413-4.4177 0-2.4399-1.9715-4.4182-5.413-4.4182z" fill="#000000" filter="url(#filter13)" opacity=".1" stroke-linecap="round" stroke-linejoin="round" stroke-width=".45371" style="paint-order:fill markers stroke"/>
 <path d="m8.4774 3.7976c-3.3948 0-5.4125 1.9783-5.4125 4.4182 0 0.96972 0.31362 1.8665 0.9069 2.5951 0.063489 0.11696 0.23208 0.45882 0.2067 0.75704-0.031181 0.36638-0.12113 0.64723-0.54208 0.92396-0.42094 0.27673 0.52556 0.17911 1.0873-0.031522 0.25263-0.094737 0.52826-0.30526 0.72811-0.47903 0.81972 0.41363 1.8358 0.65214 3.0256 0.65214 3.2856 0 5.413-1.9778 5.413-4.4177 0-2.4399-1.9715-4.4182-5.413-4.4182z" fill="url(#linearGradient10)" stroke-linecap="round" stroke-linejoin="round" stroke-width=".45371" style="paint-order:fill markers stroke"/>
 <path d="m8.4774 3.7976c-3.3948 0-5.4125 1.9783-5.4125 4.4182 0 0.96972 0.31362 1.8665 0.9069 2.5951 0.063489 0.11696 0.23208 0.45882 0.2067 0.75704-0.031181 0.36638-0.12113 0.64723-0.54208 0.92396-0.42094 0.27673 0.52556 0.17911 1.0873-0.03152 0.25263-0.09474 0.52826-0.30526 0.72811-0.47903 0.81972 0.41363 1.8358 0.65214 3.0256 0.65214 3.2856 0 5.413-1.9778 5.413-4.4177 0-2.4399-1.9715-4.4182-5.413-4.4182zm-0.00103 0.21239c1.6802 0 2.9813 0.48094 3.8596 1.2418 0.87832 0.76082 1.342 1.8022 1.342 2.9651 0 2.3169-2.0009 4.2048-5.2016 4.2048-1.1615 0-2.1433-0.2322-2.9295-0.62889a0.21168 0.21168 0 0 0-0.23409 0.02945c-0.191 0.16609-0.46105 0.36293-0.66455 0.43925-0.22563 0.08461-0.52744 0.13982-0.75343 0.16433 0.25589-0.26207 0.46815-0.53583 0.49402-0.83972 0.033256-0.39076-0.15943-0.74452-0.23047-0.87538a0.21168 0.21168 0 0 0-0.021704-0.033072c-0.56265-0.69099-0.85936-1.5367-0.85936-2.4608-1e-7 -1.1616 0.47513-2.2037 1.3596-2.9651 0.88445-0.76141 2.1832-1.2418 3.8395-1.2418z" fill="#ffffff" filter="url(#filter12)" opacity=".75" stop-color="#000000" stroke-linecap="round" stroke-linejoin="round" style="mix-blend-mode:overlay;paint-order:fill markers stroke"/>
</svg>
