<svg width="64" height="64" version="1.1" xmlns="http://www.w3.org/2000/svg">
 <defs>
  <filter id="filter9" x="-.012" y="-.012" width="1.024" height="1.024" color-interpolation-filters="sRGB">
   <feGaussianBlur stdDeviation="0.074082"/>
  </filter>
  <linearGradient id="linearGradient3" x1="8.4665" x2="8.4665" y1="1.0583" y2="15.875" gradientTransform="scale(3.7796)" gradientUnits="userSpaceOnUse">
   <stop stop-color="#ffffff" offset="0"/>
   <stop stop-color="#ececec" offset="1"/>
  </linearGradient>
 </defs>
 <path d="m20.26 4.0003c-5.782 0-9.7427 1.7243-12.321 4.5348-2.5651 2.7962-3.9387 6.8037-3.9387 11.341v24.248c0 4.5378 1.3734 8.5453 3.9387 11.341 2.5784 2.8103 6.5391 4.5348 12.321 4.5348h23.549c5.782 0 9.7427-1.7243 12.321-4.5348 2.5651-2.7962 3.8703-6.4352 3.8703-11.341v-23.337c0-5.9351-1.305-9.4562-3.8703-12.252-2.5784-2.8103-6.5391-4.5348-12.321-4.5348h-18.315z" fill="url(#linearGradient3)" stroke-width="3.7796"/>
 <path transform="scale(3.7796)" d="m5.3603 1.0583c-1.5298 0-2.5775 0.45637-3.2597 1.1999-0.67868 0.73981-1.0423 1.8002-1.0423 3.0008v6.415c0 1.2006 0.36361 2.2609 1.0423 3.0008 0.68219 0.74355 1.7299 1.1999 3.2597 1.1999h6.2305c1.5298 0 2.5775-0.45637 3.2597-1.1999 0.67868-0.73981 1.0242-1.7027 1.0242-3.0008v-6.1742c0-1.5703-0.34552-2.5018-1.0242-3.2416-0.68219-0.74355-1.7299-1.1999-3.2597-1.1999h-4.8456zm-0.00103 0.26406h6.2326c1.4772 0 2.437 0.43133 3.0644 1.1152 0.63411 0.69126 0.95341 1.5307 0.95341 3.0623v6.1742c0 1.2512-0.32181 2.1335-0.95341 2.822-0.6274 0.68381-1.5871 1.1136-3.0644 1.1136h-6.2326c-1.4772 0-2.437-0.42978-3.0644-1.1136-0.62537-0.68172-0.97253-1.6747-0.97253-2.822v-6.4145c0-1.1472 0.34717-2.1403 0.97253-2.822 0.6274-0.68381 1.5871-1.1152 3.0644-1.1152z" fill="#ffffff" filter="url(#filter9)"/>
 <g fill="none" opacity=".75" stroke="#000000" stroke-linecap="round" stroke-linejoin="round">
  <path d="m32 7v5.25" opacity="1" style="paint-order:fill markers stroke"/>
  <path d="m41.875 14.896 4.543-7.8711" opacity="1" style="paint-order:fill markers stroke"/>
  <path d="m22.125 14.896-4.543-7.8711" opacity="1" style="paint-order:fill markers stroke"/>
  <path d="m7.0254 46.418 7.8711-4.543m34.207-19.75 7.8711-4.543" opacity="1" style="paint-order:fill markers stroke"/>
  <path d="m32 51.75v5.25" opacity="1" style="paint-order:fill markers stroke"/>
  <path d="m57 32h-5.25" opacity="1" style="paint-order:fill markers stroke"/>
  <path d="M 12.25,32 H 7" opacity="1" style="paint-order:fill markers stroke"/>
  <path d="m41.875 49.104 4.543 7.8711" opacity="1" style="paint-order:fill markers stroke"/>
  <path d="m22.125 49.104-4.543 7.8711" opacity="1" style="paint-order:fill markers stroke"/>
  <path d="m56.975 46.418-7.8711-4.543m-34.207-19.75-7.8711-4.543" opacity="1" style="paint-order:fill markers stroke"/>
 </g>
 <g fill="#000000" opacity=".2" stroke="#000000" stroke-linecap="round" stroke-linejoin="round" stroke-width=".6">
  <path d="m57 34.629-3.75-0.39453m-42.5-4.4688-3.75-0.39453" opacity="1" style="paint-order:fill markers stroke"/>
  <path d="m57 37.312-3.75-0.79688m-42.5-9.0312-3.75-0.79688" opacity="1" style="paint-order:fill markers stroke"/>
  <path d="m57 40.123-3.75-1.2188m-42.5-13.809-3.75-1.2188" opacity="1" style="paint-order:fill markers stroke"/>
  <path d="m57 43.131-3.75-1.6699m-42.5-18.922-3.75-1.6699" opacity="1" style="paint-order:fill markers stroke"/>
  <path d="m56.281 49.641-3.2422-2.3555m-42.078-30.57-3.2422-2.3555" opacity="1" style="paint-order:fill markers stroke"/>
  <path d="m54.732 52.469-2.8555-2.5723m-39.754-35.793-2.8555-2.5723" opacity="1" style="paint-order:fill markers stroke"/>
  <path d="m52.469 54.732-2.5723-2.8555m-35.793-39.754-2.5723-2.8555" opacity="1" style="paint-order:fill markers stroke"/>
  <path d="m14.359 7.7188 2.3555 3.2422m30.57 42.078 2.3555 3.2422" opacity="1" style="paint-order:fill markers stroke"/>
  <path d="m20.869 7 1.6699 3.75m18.922 42.5 1.6699 3.75" opacity="1" style="paint-order:fill markers stroke"/>
  <path d="m23.877 7 1.2188 3.75m13.809 42.5 1.2188 3.75" opacity="1" style="paint-order:fill markers stroke"/>
  <path d="m26.688 7 0.79688 3.75m9.0312 42.5 0.79688 3.75" opacity="1" style="paint-order:fill markers stroke"/>
  <path d="m29.371 7 0.39453 3.75m4.4688 42.5 0.39453 3.75" opacity="1" style="paint-order:fill markers stroke"/>
  <path d="m34.629 7-0.39453 3.75m-4.4688 42.5-0.39453 3.75" opacity="1" style="paint-order:fill markers stroke"/>
  <path d="m37.312 7-0.79688 3.75m-9.0312 42.5-0.79688 3.75" opacity="1" style="paint-order:fill markers stroke"/>
  <path d="m40.123 7-1.2188 3.75m-13.809 42.5-1.2188 3.75" opacity="1" style="paint-order:fill markers stroke"/>
  <path d="m43.131 7-1.6699 3.75m-18.922 42.5-1.6699 3.75" opacity="1" style="paint-order:fill markers stroke"/>
  <path d="m49.641 7.7188-2.3555 3.2422m-30.57 42.078-2.3555 3.2422" opacity="1" style="paint-order:fill markers stroke"/>
  <path d="m11.531 54.732 2.5723-2.8555m35.793-39.754 2.5723-2.8555" opacity="1" style="paint-order:fill markers stroke"/>
  <path d="m9.2676 52.469 2.8555-2.5723m39.754-35.793 2.8555-2.5723" opacity="1" style="paint-order:fill markers stroke"/>
  <path d="m7.7188 49.641 3.2422-2.3555m42.078-30.57 3.2422-2.3555" opacity="1" style="paint-order:fill markers stroke"/>
  <path d="m7 43.131 3.75-1.6699m42.5-18.922 3.75-1.6699" opacity="1" style="paint-order:fill markers stroke"/>
  <path d="m7 40.123 3.75-1.2188m42.5-13.809 3.75-1.2188" opacity="1" style="paint-order:fill markers stroke"/>
  <path d="m7 37.312 3.75-0.79688m42.5-9.0312 3.75-0.79688" opacity="1" style="paint-order:fill markers stroke"/>
  <path d="m7 34.629 3.75-0.39453m42.5-4.4688 3.75-0.39453" opacity="1" style="paint-order:fill markers stroke"/>
 </g>
 <path d="m33.57 14.107c-0.30913 0-0.58763 0.06675-0.83203 0.20117-0.24411 0.13426-0.43644 0.31822-0.57812 0.55273-0.13948 0.23491-0.20898 0.50453-0.20898 0.80664a0.023118 0.023118 0 0 0 0 0.005859 0.023118 0.023118 0 0 0 0.003906 0.00586 0.023118 0.023118 0 0 0 0.003906 0.005859 0.023118 0.023118 0 0 0 0.001954 0.001953 0.023118 0.023118 0 0 0 0.001953 0.001953 0.023118 0.023118 0 0 0 0.005859 0.001953 0.023118 0.023118 0 0 0 0.003906 0h0.49609a0.023118 0.023118 0 0 0 0.005859 0 0.023118 0.023118 0 0 0 0.00586-0.003906 0.023118 0.023118 0 0 0 0.001953 0 0.023118 0.023118 0 0 0 0.005859-0.007812 0.023118 0.023118 0 0 0 0.001953-0.001954 0.023118 0.023118 0 0 0 0.001954-0.005859 0.023118 0.023118 0 0 0 0-0.003906c0-0.3106 0.095739-0.56328 0.28906-0.76367 0.19544-0.20015 0.45079-0.29883 0.77344-0.29883 0.3084 0 0.56284 0.09147 0.76562 0.27539 0.20237 0.18119 0.30274 0.41817 0.30274 0.71875 0 0.16558-0.031823 0.32472-0.095703 0.47852-0.06396 0.15162-0.16592 0.3186-0.30469 0.49805-0.1392 0.18-0.31972 0.39438-0.54102 0.64453h0.001953l-1.7676 1.9727a0.023118 0.023118 0 0 0-0.001954 0.001953 0.023118 0.023118 0 0 0-0.001953 0.001954 0.023118 0.023118 0 0 0-0.001953 0.005859 0.023118 0.023118 0 0 0 0 0.005859v0.375a0.023118 0.023118 0 0 0 0 0.00586 0.023118 0.023118 0 0 0 0.003906 0.005859 0.023118 0.023118 0 0 0 0 0.001953 0.023118 0.023118 0 0 0 0.007813 0.00586 0.023118 0.023118 0 0 0 0.001953 0.001953 0.023118 0.023118 0 0 0 0.00586 0.001953 0.023118 0.023118 0 0 0 0.003906 0h3.3672a0.023118 0.023118 0 0 0 0.00586-0.001953 0.023118 0.023118 0 0 0 0.005859-0.001953 0.023118 0.023118 0 0 0 0.001953-0.001954 0.023118 0.023118 0 0 0 0.001953-0.001953 0.023118 0.023118 0 0 0 0.003906-0.005859 0.023118 0.023118 0 0 0 0.001954-0.005859 0.023118 0.023118 0 0 0 0-0.003907v-0.45898a0.023118 0.023118 0 0 0 0-0.005859 0.023118 0.023118 0 0 0-0.003907-0.00586 0.023118 0.023118 0 0 0-0.003906-0.005859 0.023118 0.023118 0 0 0-0.001953-0.001953 0.023118 0.023118 0 0 0-0.001953-0.001953 0.023118 0.023118 0 0 0-0.005859-0.001954 0.023118 0.023118 0 0 0-0.003907 0h-2.625v-0.003906l1.3086-1.4551c0.30131-0.33265 0.5358-0.61402 0.70508-0.84375 0.17183-0.23233 0.29281-0.44097 0.36133-0.62695 0.07081-0.18558 0.10547-0.37796 0.10547-0.57812 0-0.27828-0.06803-0.53267-0.20508-0.75781-0.13693-0.22496-0.32518-0.40185-0.56445-0.53125-0.23728-0.13209-0.50972-0.19727-0.81641-0.19727zm-3.5938 0.072266a0.023118 0.023118 0 0 0-0.001953 0.001953 0.023118 0.023118 0 0 0-0.005859 0.001953l-1.1504 0.85547a0.023118 0.023118 0 0 0-0.001953 0.001954 0.023118 0.023118 0 0 0-0.001953 0.001953 0.023118 0.023118 0 0 0-0.003906 0.005859 0.023118 0.023118 0 0 0-0.001953 0.00586 0.023118 0.023118 0 0 0 0 0.003906v0.55664a0.023118 0.023118 0 0 0 0.001953 0.00586 0.023118 0.023118 0 0 0 0.001953 0.005859 0.023118 0.023118 0 0 0 0.001953 0.001953 0.023118 0.023118 0 0 0 0.003906 0.003906 0.023118 0.023118 0 0 0 0.00586 0.003907 0.023118 0.023118 0 0 0 0.005859 0 0.023118 0.023118 0 0 0 0.009766 0 0.023118 0.023118 0 0 0 0.005859-0.003907l1.2422-0.92383h0.005859v4.875a0.023118 0.023118 0 0 0 0 0.00586 0.023118 0.023118 0 0 0 0.003906 0.005859 0.023118 0.023118 0 0 0 0 0.001953 0.023118 0.023118 0 0 0 0.007813 0.00586 0.023118 0.023118 0 0 0 0.001953 0.001953 0.023118 0.023118 0 0 0 0.005859 0.001953 0.023118 0.023118 0 0 0 0.003907 0h0.50586a0.023118 0.023118 0 0 0 0.005859 0 0.023118 0.023118 0 0 0 0.00586-0.003906 0.023118 0.023118 0 0 0 0.001953 0 0.023118 0.023118 0 0 0 0.005859-0.007813 0.023118 0.023118 0 0 0 0.001953-0.001953 0.023118 0.023118 0 0 0 0.001953-0.005859 0.023118 0.023118 0 0 0 0-0.003907v-5.3809a0.023118 0.023118 0 0 0 0-0.005859 0.023118 0.023118 0 0 0-0.003906-0.00586 0.023118 0.023118 0 0 0 0-0.001953 0.023118 0.023118 0 0 0-0.007812-0.005859 0.023118 0.023118 0 0 0-0.001954-0.001953 0.023118 0.023118 0 0 0-0.005859-0.001953 0.023118 0.023118 0 0 0-0.003906 0h-0.64062a0.023118 0.023118 0 0 0-0.001953 0 0.023118 0.023118 0 0 0-0.003907 0zm-13.902 15.141c-0.34801-0.004899-0.65395 0.07449-0.91797 0.23828-0.26095 0.16096-0.46353 0.37773-0.60742 0.64844-0.14387 0.27068-0.2168 0.57044-0.2168 0.89648 0 0.34046 0.07376 0.64556 0.22266 0.91406a0.023118 0.023118 0 0 0 0.001953 0c0.15106 0.26557 0.35221 0.47519 0.60352 0.62891 0.25391 0.15137 0.53309 0.22852 0.83789 0.22852 0.29511 0 0.56471-0.07261 0.80664-0.2168 0.23866-0.1432 0.41837-0.33563 0.54297-0.57031-0.0032 0.73407-0.11911 1.305-0.35352 1.7012-0.23767 0.40167-0.56747 0.59961-0.99609 0.59961-0.30112 0-0.53832-0.09066-0.7168-0.27148-0.17956-0.18192-0.29084-0.4098-0.33594-0.6875a0.023118 0.023118 0 0 0-0.001953-0.00586 0.023118 0.023118 0 0 0-0.001953-0.001953 0.023118 0.023118 0 0 0-0.005859-0.007813 0.023118 0.023118 0 0 0-0.001953-0.001953 0.023118 0.023118 0 0 0-0.001953 0 0.023118 0.023118 0 0 0-0.00586-0.001953 0.023118 0.023118 0 0 0-0.003906 0h-0.50781a0.023118 0.023118 0 0 0-0.005859 0 0.023118 0.023118 0 0 0-0.005859 0.003906 0.023118 0.023118 0 0 0-0.00586 0.003907 0.023118 0.023118 0 0 0-0.001953 0.001953 0.023118 0.023118 0 0 0-0.001953 0.005859 0.023118 0.023118 0 0 0-0.001953 0.00586 0.023118 0.023118 0 0 0 0 0.003906c0.05352 0.43058 0.22217 0.78369 0.50781 1.0547a0.023118 0.023118 0 0 0 0.001953 0c0.28846 0.2689 0.65477 0.40234 1.0977 0.40234 0.42128 0 0.77397-0.12947 1.0527-0.38867 0.27805-0.25854 0.48686-0.61515 0.625-1.0684 0.13806-0.45294 0.20703-0.97363 0.20703-1.5605 0-0.47043-0.05254-0.86794-0.1543-1.1934v-0.001953c-0.09938-0.32409-0.23488-0.58546-0.4082-0.7832-0.17021-0.19939-0.36469-0.34687-0.58203-0.4375h-0.001953c-0.21394-0.0897-0.43583-0.13625-0.66211-0.13867zm31.826 0c-0.30645 2e-6 -0.58655 0.06158-0.83789 0.18359-0.25122 0.12195-0.45196 0.29221-0.60352 0.50977a0.023118 0.023118 0 0 0-0.001953 0c-0.14942 0.21802-0.22705 0.46875-0.23438 0.75195a0.023118 0.023118 0 0 0 0 0.005859 0.023118 0.023118 0 0 0 0.001953 0.00586 0.023118 0.023118 0 0 0 0.003907 0.005859 0.023118 0.023118 0 0 0 0.001953 0.001953 0.023118 0.023118 0 0 0 0.005859 0.003906 0.023118 0.023118 0 0 0 0.00586 0.001954 0.023118 0.023118 0 0 0 0.003906 0h0.49805a0.023118 0.023118 0 0 0 0.005859 0 0.023118 0.023118 0 0 0 0.005859-0.003907 0.023118 0.023118 0 0 0 0.001953 0 0.023118 0.023118 0 0 0 0.00586-0.007812 0.023118 0.023118 0 0 0 0.001953-0.001953 0.023118 0.023118 0 0 0 0.001953-0.00586 0.023118 0.023118 0 0 0 0-0.003906c0.0047-0.19354 0.05747-0.35944 0.1582-0.5 0.10365-0.1437 0.23858-0.2541 0.40625-0.33203 0.1702-0.07801 0.35643-0.11719 0.56055-0.11719 0.31578 0 0.56736 0.09043 0.75781 0.27148 0.19062 0.1812 0.28516 0.41448 0.28516 0.70312 0 0.30261-0.10904 0.54126-0.32812 0.72266-0.21699 0.17925-0.49376 0.26758-0.83398 0.26758h-0.31836a0.023118 0.023118 0 0 0-0.005859 0.001953 0.023118 0.023118 0 0 0-0.00586 0.001953 0.023118 0.023118 0 0 0-0.001953 0.001953 0.023118 0.023118 0 0 0-0.001953 0.001954 0.023118 0.023118 0 0 0-0.003906 0.005859 0.023118 0.023118 0 0 0-0.001953 0.005859 0.023118 0.023118 0 0 0 0 0.003907v0.45508a0.023118 0.023118 0 0 0 0 0.005859 0.023118 0.023118 0 0 0 0.003906 0.00586 0.023118 0.023118 0 0 0 0.003906 0.005859 0.023118 0.023118 0 0 0 0.001953 0.001953 0.023118 0.023118 0 0 0 0.001953 0.001953 0.023118 0.023118 0 0 0 0.00586 0.001953 0.023118 0.023118 0 0 0 0.003906 0h0.31836c0.41524 0 0.74034 0.10074 0.97852 0.29883 0.24094 0.19842 0.35938 0.45274 0.35938 0.76953 0 0.20068-0.05089 0.37614-0.1543 0.53125-0.10354 0.15531-0.24853 0.27918-0.43555 0.36914-0.18424 0.08976-0.39594 0.13477-0.63867 0.13477-0.22363 0-0.42567-0.03912-0.60547-0.11719-0.17986-0.0781-0.32337-0.18886-0.43164-0.33008-0.10799-0.14321-0.16635-0.30904-0.17578-0.5a0.023118 0.023118 0 0 0-0.001953-0.005859 0.023118 0.023118 0 0 0-0.001953-0.005859 0.023118 0.023118 0 0 0-0.001954-0.001954 0.023118 0.023118 0 0 0-0.001953-0.001953 0.023118 0.023118 0 0 0-0.005859-0.003906 0.023118 0.023118 0 0 0-0.005859-0.001953 0.023118 0.023118 0 0 0-0.003907 0h-0.51562a0.023118 0.023118 0 0 0-0.005859 0 0.023118 0.023118 0 0 0-0.005859 0.003906 0.023118 0.023118 0 0 0-0.001953 0 0.023118 0.023118 0 0 0-0.00586 0.007813 0.023118 0.023118 0 0 0-0.001953 0.001953 0.023118 0.023118 0 0 0-0.001953 0.005859 0.023118 0.023118 0 0 0 0 0.003906c0.0073 0.28571 0.08783 0.53976 0.24219 0.75781 0.15654 0.21768 0.36914 0.38792 0.63477 0.50977 0.26584 0.12194 0.56684 0.18164 0.9043 0.18164 0.34251 0 0.64803-0.06694 0.91406-0.20117 0.268-0.134 0.47882-0.31515 0.63281-0.54492 0.15417-0.23248 0.23242-0.49608 0.23242-0.78906 0-0.34399-0.10179-0.63875-0.30274-0.87891-0.19672-0.2351-0.46856-0.38275-0.80664-0.45312v-0.011719c0.27915-0.08652 0.50456-0.23354 0.66992-0.44922 0.16934-0.22087 0.25586-0.48689 0.25586-0.79688 0-0.26146-0.065609-0.5029-0.19531-0.7207-0.12972-0.22028-0.31401-0.39554-0.55078-0.52734-0.23745-0.13219-0.5169-0.19922-0.83789-0.19922zm-31.832 0.50586c0.21767 0 0.40996 0.05368 0.58203 0.16211 0.17237 0.10626 0.31328 0.25377 0.41992 0.44336 0.10892 0.18706 0.17239 0.39896 0.19141 0.63672 0.01658 0.23207-0.02686 0.44599-0.13086 0.64453-0.1042 0.19656-0.25035 0.35533-0.4375 0.47852-0.18406 0.12035-0.39059 0.18164-0.625 0.18164-0.22738 0-0.43008-0.05514-0.60938-0.16602-0.17734-0.1135-0.31764-0.26515-0.42188-0.45703-0.10409-0.19399-0.15625-0.40909-0.15625-0.64648s0.05221-0.45105 0.15625-0.64258c0.10429-0.19427 0.24459-0.34748 0.42188-0.46094 0.17927-0.11558 0.38216-0.17383 0.60938-0.17383zm16.375 14.494c-0.4189 0-0.76966 0.12955-1.0508 0.38867-0.28048 0.25853-0.49075 0.61511-0.62891 1.0684-0.13807 0.45054-0.20703 0.96822-0.20703 1.5527 0 0.47115 0.05077 0.8712 0.15039 1.1992 0.10183 0.32732 0.23852 0.59248 0.41211 0.79297 0.17292 0.19972 0.36852 0.34495 0.58398 0.43555 0.21696 0.090201 0.44055 0.13477 0.66992 0.13477 0.34788 0 0.65251-0.08085 0.91406-0.24219 0.26091-0.16338 0.46204-0.37964 0.60352-0.65039 0.14387-0.27068 0.2168-0.57044 0.2168-0.89648 0-0.34051-0.07517-0.644-0.22656-0.91016-0.14842-0.26764-0.35068-0.4776-0.60156-0.62891-0.25153-0.15385-0.52954-0.23242-0.83203-0.23242-0.29511 0-0.5643 0.07266-0.80859 0.2168-0.23598 0.14064-0.41423 0.33404-0.54102 0.57031 0.0032-0.72909 0.11563-1.2992 0.34766-1.6953 0.23766-0.40164 0.56698-0.59766 0.99805-0.59766 0.30119 0 0.53884 0.08922 0.71484 0.26758 0.17959 0.17959 0.29239 0.40486 0.33984 0.67773a0.023118 0.023118 0 0 0 0.001953 0.00586 0.023118 0.023118 0 0 0 0.001953 0.001953 0.023118 0.023118 0 0 0 0.005859 0.007812 0.023118 0.023118 0 0 0 0.001954 0.001953 0.023118 0.023118 0 0 0 0.001953 0 0.023118 0.023118 0 0 0 0.005859 0.001954 0.023118 0.023118 0 0 0 0.003906 0h0.50391a0.023118 0.023118 0 0 0 0.005859 0 0.023118 0.023118 0 0 0 0.005859-0.003907 0.023118 0.023118 0 0 0 0.007813-0.005859 0.023118 0.023118 0 0 0 0.001953-0.001953 0.023118 0.023118 0 0 0 0.001953-0.005859 0.023118 0.023118 0 0 0 0-0.00586 0.023118 0.023118 0 0 0 0-0.003906c-0.05354-0.42586-0.22359-0.77291-0.51172-1.0391-0.28605-0.26894-0.65325-0.4043-1.0938-0.4043zm-0.070312 2.5137c0.2273 0 0.42814 0.05669 0.60742 0.16992 0.17958 0.11106 0.32159 0.26285 0.42578 0.45703 0.10404 0.19153 0.15625 0.40518 0.15625 0.64258 0 0.23739-0.0521 0.45393-0.15625 0.65039-0.10423 0.19425-0.24601 0.34894-0.42578 0.46484-0.17928 0.11323-0.38012 0.16992-0.60742 0.16992-0.21522 0-0.40797-0.05561-0.58008-0.16406-0.17247-0.10868-0.31326-0.25569-0.41992-0.44531-0.10658-0.18948-0.16847-0.40574-0.1875-0.64844-0.01658-0.2297 0.02534-0.44059 0.12695-0.63672a0.023118 0.023118 0 0 0 0-0.001953c0.10179-0.19884 0.24663-0.35782 0.43359-0.47852 0.18656-0.12044 0.39499-0.17969 0.62695-0.17969z" fill="#474746" stop-color="#000000" stroke="#474746" stroke-linecap="round" stroke-linejoin="round" stroke-width=".3" style="paint-order:fill markers stroke"/>
 <path d="m20.123 25.918c-0.46052 0.016351-0.89933 0.31605-1.0957 0.79688-0.26183 0.64109 0.009579 1.3546 0.60938 1.5996l8.0176 3.2734c0.44564 0.18201 0.94369 0.054317 1.2773-0.28711l1.3262 0.54102a1.75 1.75 0 0 0-0.007812 0.1582 1.75 1.75 0 0 0 0.011719 0.20508l-1.3223 0.56055c-0.33794-0.33719-0.83599-0.46105-1.2793-0.27344l-15.268 6.5137c-0.59665 0.25252-0.85975 0.96968-0.58984 1.6074 0.2699 0.63774 0.9678 0.94783 1.5645 0.69531l15.268-6.5137c0.44331-0.18762 0.7021-0.63204 0.69531-1.1094l1.3281-0.5625a1.75 1.75 0 0 0 1.3418 0.62695 1.75 1.75 0 0 0 1.75-1.75 1.75 1.75 0 0 0-1.75-1.75 1.75 1.75 0 0 0-1.3711 0.66211l-1.3203-0.53711c7.56e-4 -0.47739-0.26334-0.91956-0.70898-1.1016l-8.0176-3.2734c-0.14995-0.061241-0.30548-0.087482-0.45898-0.082031z" fill="#0c0c0c" style="paint-order:fill markers stroke"/>
 <path d="m32 28.256c-0.3324 0-0.59961 0.26721-0.59961 0.59961v1.25c0 0.17845 0.07634 0.3395 0.19922 0.44922v0.52734a1 1 0 0 0-0.59961 0.91797 1 1 0 0 0 0.59961 0.91602v0.62109c-0.12287 0.10972-0.19922 0.27077-0.19922 0.44922v19.365c0 0.3324 0.26721 0.59961 0.59961 0.59961s0.59961-0.26721 0.59961-0.59961v-19.365c0-0.17845-0.07635-0.3395-0.19922-0.44922v-0.62109a1 1 0 0 0 0.59961-0.91602 1 1 0 0 0-0.59961-0.91797v-0.52734c0.12287-0.10972 0.19922-0.27077 0.19922-0.44922v-1.25c0-0.3324-0.26721-0.59961-0.59961-0.59961z" fill="#fe890c" style="paint-order:fill markers stroke"/>
 <circle cx="32" cy="32" r=".5" fill="#ffffff" style="paint-order:fill markers stroke"/>
</svg>
