<svg width="64" height="64" version="1.1" viewBox="0 0 16.933 16.933" xmlns="http://www.w3.org/2000/svg" xmlns:xlink="http://www.w3.org/1999/xlink">
 <defs>
  <linearGradient id="linearGradient19">
   <stop stop-color="#ffffff" stop-opacity=".5" offset="0"/>
   <stop stop-color="#ffffff" stop-opacity=".15" offset="1"/>
  </linearGradient>
  <filter id="filter9" x="-.012" y="-.012" width="1.024" height="1.024" color-interpolation-filters="sRGB">
   <feGaussianBlur stdDeviation="0.074082"/>
  </filter>
  <linearGradient id="linearGradient3" x1="8.4665" x2="8.4665" y1="1.0583" y2="15.875" gradientUnits="userSpaceOnUse">
   <stop stop-color="#ffffff" offset="0"/>
   <stop stop-color="#ececec" offset="1"/>
  </linearGradient>
  <linearGradient id="linearGradient32" x1="6.9023" x2="9.5248" y1="5.0926" y2="6.0853" gradientUnits="userSpaceOnUse" xlink:href="#linearGradient19"/>
  <filter id="filter32" x="-.015279" y="-.0098797" width="1.0306" height="1.0198" color-interpolation-filters="sRGB">
   <feGaussianBlur stdDeviation="0.020044893"/>
  </filter>
  <linearGradient id="linearGradient33" x1="6.9023" x2="9.5248" y1="5.0926" y2="6.0853" gradientTransform="translate(0 6.7467)" gradientUnits="userSpaceOnUse" xlink:href="#linearGradient19"/>
 </defs>
 <path d="m5.3603 1.0584c-1.5298 0-2.5777 0.45621-3.2599 1.1998-0.67868 0.73981-1.0421 1.8001-1.0421 3.0007v6.4154c0 1.2006 0.36337 2.2609 1.0421 3.0007 0.68219 0.74355 1.7301 1.1998 3.2599 1.1998h6.2306c1.5298 0 2.5777-0.45622 3.2599-1.1998 0.67868-0.73981 1.024-1.7026 1.024-3.0007v-6.1745c0-1.5703-0.34527-2.5019-1.024-3.2417-0.68219-0.74355-1.7301-1.1998-3.2599-1.1998h-4.8457z" fill="url(#linearGradient3)"/>
 <path d="m5.3603 1.0583c-1.5298 0-2.5775 0.45637-3.2597 1.1999-0.67868 0.73981-1.0423 1.8002-1.0423 3.0008v6.415c0 1.2006 0.36361 2.2609 1.0423 3.0008 0.68219 0.74355 1.7299 1.1999 3.2597 1.1999h6.2305c1.5298 0 2.5775-0.45637 3.2597-1.1999 0.67868-0.73981 1.0242-1.7027 1.0242-3.0008v-6.1742c0-1.5703-0.34552-2.5018-1.0242-3.2416-0.68219-0.74355-1.7299-1.1999-3.2597-1.1999h-4.8456zm-0.00103 0.26406h6.2326c1.4772 0 2.437 0.43133 3.0644 1.1152 0.63411 0.69126 0.95341 1.5307 0.95341 3.0623v6.1742c0 1.2512-0.32181 2.1335-0.95341 2.822-0.6274 0.68381-1.5871 1.1136-3.0644 1.1136h-6.2326c-1.4772 0-2.437-0.42978-3.0644-1.1136-0.62537-0.68172-0.97253-1.6747-0.97253-2.822v-6.4145c0-1.1472 0.34717-2.1403 0.97253-2.822 0.6274-0.68381 1.5871-1.1152 3.0644-1.1152z" fill="#ffffff" filter="url(#filter9)"/>
 <rect transform="rotate(45)" x="10.327" y="-5.8945" width="3.3072" height="5.027" rx="1.6536" ry="1.6536" fill="#fdd300" style="paint-order:fill markers stroke"/>
 <rect transform="rotate(45)" x="10.327" y=".85225" width="3.3072" height="5.027" rx="1.6536" ry="1.6536" fill="#b09af8" style="paint-order:fill markers stroke"/>
 <rect transform="rotate(90)" x="6.8129" y="-14.364" width="3.3072" height="5.027" rx="1.6536" ry="1.6536" fill="#a3d900" style="paint-order:fill markers stroke"/>
 <rect transform="rotate(90)" x="6.8129" y="-7.6174" width="3.3072" height="5.027" rx="1.6536" ry="1.6536" fill="#ff76b6" style="paint-order:fill markers stroke"/>
 <rect transform="rotate(135)" x="-1.6612" y="-17.868" width="3.3072" height="5.027" rx="1.6536" ry="1.6536" fill="#0ed899" style="paint-order:fill markers stroke"/>
 <rect transform="rotate(135)" x="-1.6612" y="-11.121" width="3.3072" height="5.027" rx="1.6536" ry="1.6536" fill="#ff6e6f" style="paint-order:fill markers stroke"/>
 <rect transform="scale(-1)" x="-10.131" y="-14.353" width="3.3072" height="5.027" rx="1.6536" ry="1.6536" fill="#18c0f4" style="paint-order:fill markers stroke"/>
 <rect transform="scale(-1)" x="-10.131" y="-7.6066" width="3.3072" height="5.027" rx="1.6536" ry="1.6536" fill="#fe9b00" style="paint-order:fill markers stroke"/>
 <path transform="rotate(45)" d="m10.328-3.9997v1.4784c0 0.78754 0.54501 1.4433 1.28 1.6118 0.40058-0.63885 0.32229-1.4879-0.23459-2.0448z" fill="#ff7606" style="mix-blend-mode:normal;paint-order:fill markers stroke"/>
 <path d="m6.8237 4.4746 1.0454 1.0454c0.55688 0.55688 0.63519 1.4059 0.23461 2.0448-0.73499-0.16848-1.28-0.82421-1.28-1.6118z" fill="#ef4d00" style="mix-blend-mode:normal;paint-order:fill markers stroke"/>
 <path d="m10.131 12.459-1.0454-1.0454c-0.55688-0.55688-0.63519-1.4059-0.23461-2.0448 0.73499 0.16848 1.28 0.82421 1.28 1.6118z" fill="#048bae" style="mix-blend-mode:normal;paint-order:fill markers stroke"/>
 <path d="m6.8237 12.459 1.0454-1.0454c0.55688-0.55688 0.63519-1.4059 0.23461-2.0448-0.73499 0.16848-1.28 0.82421-1.28 1.6118z" fill="#0486d7" style="mix-blend-mode:normal;paint-order:fill markers stroke"/>
 <path d="m12.469 10.12-1.0454-1.0454c-0.55688-0.55688-1.4059-0.63519-2.0448-0.23461 0.16848 0.73499 0.82421 1.28 1.6118 1.28z" fill="#01b40c" style="mix-blend-mode:normal;paint-order:fill markers stroke"/>
 <path d="m12.469 6.813-1.0454 1.0454c-0.55688 0.55688-1.4059 0.63519-2.0448 0.23461 0.16848-0.73499 0.82421-1.28 1.6118-1.28z" fill="#91ae06" style="mix-blend-mode:normal;paint-order:fill markers stroke"/>
 <path d="m4.4853 10.12 1.0454-1.0454c0.55688-0.55688 1.4059-0.63519 2.0448-0.23461-0.16848 0.73499-0.82421 1.28-1.6118 1.28z" fill="#b65ace" style="mix-blend-mode:normal;paint-order:fill markers stroke"/>
 <path d="m4.4853 6.813 1.0454 1.0454c0.55688 0.55688 1.4059 0.63519 2.0448 0.23461-0.16848-0.73499-0.82421-1.28-1.6118-1.28z" fill="#ee3a5e" style="mix-blend-mode:normal;paint-order:fill markers stroke"/>
 <path d="m8.4763 2.6582c-0.8735 0-1.574 0.70053-1.574 1.574v1.7208c1e-7 0.8735 0.70053 1.5745 1.574 1.5745s1.5745-0.70105 1.5745-1.5745v-1.7208c0-0.8735-0.70105-1.574-1.5745-1.574zm0 0.10542c0.81692 0 1.4691 0.65174 1.4691 1.4686v1.7208c0 0.81688-0.65226 1.4686-1.4691 1.4686s-1.4686-0.6517-1.4686-1.4686v-1.7208c0-0.81692 0.6517-1.4686 1.4686-1.4686z" fill="url(#linearGradient32)" filter="url(#filter32)" stop-color="#000000" stroke-linecap="round" stroke-linejoin="round" style="mix-blend-mode:overlay;paint-order:fill markers stroke"/>
 <path d="m8.4763 9.4049c-0.8735 0-1.574 0.70053-1.574 1.574v1.7208c1e-7 0.8735 0.70053 1.5746 1.574 1.5746s1.5745-0.70105 1.5745-1.5746v-1.7208c0-0.8735-0.70105-1.574-1.5745-1.574zm0 0.10542c0.81692 0 1.4691 0.65174 1.4691 1.4686v1.7208c0 0.81688-0.65226 1.4686-1.4691 1.4686s-1.4686-0.6517-1.4686-1.4686v-1.7208c0-0.81692 0.6517-1.4686 1.4686-1.4686z" fill="url(#linearGradient33)" filter="url(#filter32)" stop-color="#000000" stroke-linecap="round" stroke-linejoin="round" style="mix-blend-mode:overlay;paint-order:fill markers stroke"/>
 <path transform="rotate(45 8.4766 8.4662)" d="m8.4763 2.6582c-0.8735 0-1.574 0.70053-1.574 1.574v1.7208c1e-7 0.8735 0.70053 1.5745 1.574 1.5745s1.5745-0.70105 1.5745-1.5745v-1.7208c0-0.8735-0.70105-1.574-1.5745-1.574zm0 0.10542c0.81692 0 1.4691 0.65174 1.4691 1.4686v1.7208c0 0.81688-0.65226 1.4686-1.4691 1.4686s-1.4686-0.6517-1.4686-1.4686v-1.7208c0-0.81692 0.6517-1.4686 1.4686-1.4686z" fill="url(#linearGradient32)" filter="url(#filter32)" stop-color="#000000" stroke-linecap="round" stroke-linejoin="round" style="mix-blend-mode:overlay;paint-order:fill markers stroke"/>
 <path transform="rotate(45 8.4766 8.4662)" d="m8.4763 9.4049c-0.8735 0-1.574 0.70053-1.574 1.574v1.7208c1e-7 0.8735 0.70053 1.5746 1.574 1.5746s1.5745-0.70105 1.5745-1.5746v-1.7208c0-0.8735-0.70105-1.574-1.5745-1.574zm0 0.10542c0.81692 0 1.4691 0.65174 1.4691 1.4686v1.7208c0 0.81688-0.65226 1.4686-1.4691 1.4686s-1.4686-0.6517-1.4686-1.4686v-1.7208c0-0.81692 0.6517-1.4686 1.4686-1.4686z" fill="url(#linearGradient33)" filter="url(#filter32)" stop-color="#000000" stroke-linecap="round" stroke-linejoin="round" style="mix-blend-mode:overlay;paint-order:fill markers stroke"/>
 <path transform="rotate(90 8.4766 8.4662)" d="m8.4763 2.6582c-0.8735 0-1.574 0.70053-1.574 1.574v1.7208c1e-7 0.8735 0.70053 1.5745 1.574 1.5745s1.5745-0.70105 1.5745-1.5745v-1.7208c0-0.8735-0.70105-1.574-1.5745-1.574zm0 0.10542c0.81692 0 1.4691 0.65174 1.4691 1.4686v1.7208c0 0.81688-0.65226 1.4686-1.4691 1.4686s-1.4686-0.6517-1.4686-1.4686v-1.7208c0-0.81692 0.6517-1.4686 1.4686-1.4686z" fill="url(#linearGradient32)" filter="url(#filter32)" stop-color="#000000" stroke-linecap="round" stroke-linejoin="round" style="mix-blend-mode:overlay;paint-order:fill markers stroke"/>
 <path transform="rotate(90 8.4766 8.4662)" d="m8.4763 9.4049c-0.8735 0-1.574 0.70053-1.574 1.574v1.7208c1e-7 0.8735 0.70053 1.5746 1.574 1.5746s1.5745-0.70105 1.5745-1.5746v-1.7208c0-0.8735-0.70105-1.574-1.5745-1.574zm0 0.10542c0.81692 0 1.4691 0.65174 1.4691 1.4686v1.7208c0 0.81688-0.65226 1.4686-1.4691 1.4686s-1.4686-0.6517-1.4686-1.4686v-1.7208c0-0.81692 0.6517-1.4686 1.4686-1.4686z" fill="url(#linearGradient33)" filter="url(#filter32)" stop-color="#000000" stroke-linecap="round" stroke-linejoin="round" style="mix-blend-mode:overlay;paint-order:fill markers stroke"/>
 <path transform="rotate(135 8.4766 8.4662)" d="m8.4763 2.6582c-0.8735 0-1.574 0.70053-1.574 1.574v1.7208c1e-7 0.8735 0.70053 1.5745 1.574 1.5745s1.5745-0.70105 1.5745-1.5745v-1.7208c0-0.8735-0.70105-1.574-1.5745-1.574zm0 0.10542c0.81692 0 1.4691 0.65174 1.4691 1.4686v1.7208c0 0.81688-0.65226 1.4686-1.4691 1.4686s-1.4686-0.6517-1.4686-1.4686v-1.7208c0-0.81692 0.6517-1.4686 1.4686-1.4686z" fill="url(#linearGradient32)" filter="url(#filter32)" stop-color="#000000" stroke-linecap="round" stroke-linejoin="round" style="mix-blend-mode:overlay;paint-order:fill markers stroke"/>
 <path transform="rotate(135 8.4766 8.4662)" d="m8.4763 9.4049c-0.8735 0-1.574 0.70053-1.574 1.574v1.7208c1e-7 0.8735 0.70053 1.5746 1.574 1.5746s1.5745-0.70105 1.5745-1.5746v-1.7208c0-0.8735-0.70105-1.574-1.5745-1.574zm0 0.10542c0.81692 0 1.4691 0.65174 1.4691 1.4686v1.7208c0 0.81688-0.65226 1.4686-1.4691 1.4686s-1.4686-0.6517-1.4686-1.4686v-1.7208c0-0.81692 0.6517-1.4686 1.4686-1.4686z" fill="url(#linearGradient33)" filter="url(#filter32)" stop-color="#000000" stroke-linecap="round" stroke-linejoin="round" style="mix-blend-mode:overlay;paint-order:fill markers stroke"/>
</svg>
