<svg width="64" height="64" version="1.1" viewBox="0 0 16.933 16.933" xmlns="http://www.w3.org/2000/svg" xmlns:xlink="http://www.w3.org/1999/xlink">
 <defs>
  <linearGradient id="linearGradient9">
   <stop stop-color="#20a0ef" offset="0"/>
   <stop stop-color="#2b66e1" offset="1"/>
  </linearGradient>
  <linearGradient id="linearGradient7">
   <stop stop-color="#2cecff" offset="0"/>
   <stop stop-color="#347ff3" offset="1"/>
  </linearGradient>
  <filter id="filter9" x="-.012" y="-.012" width="1.024" height="1.024" color-interpolation-filters="sRGB">
   <feGaussianBlur stdDeviation="0.074082"/>
  </filter>
  <linearGradient id="linearGradient3" x1="8.4665" x2="8.4665" y1="1.0583" y2="15.875" gradientUnits="userSpaceOnUse">
   <stop stop-color="#ffffff" offset="0"/>
   <stop stop-color="#ececec" offset="1"/>
  </linearGradient>
  <linearGradient id="linearGradient8" x1="8.4665" x2="8.4665" y1="2.5135" y2="13.344" gradientUnits="userSpaceOnUse" xlink:href="#linearGradient7"/>
  <linearGradient id="linearGradient10" x1="8.2054" x2="13.746" y1="7.8332" y2="13.373" gradientUnits="userSpaceOnUse" xlink:href="#linearGradient9"/>
  <linearGradient id="linearGradient14" x1="8.4668" x2="8.4668" y1="2.5936" y2="14.34" gradientUnits="userSpaceOnUse">
   <stop stop-color="#ffffff" offset="0"/>
   <stop stop-color="#ffffff" stop-opacity="0" offset="1"/>
  </linearGradient>
  <filter id="filter14" x="-.012" y="-.012" width="1.024" height="1.024" color-interpolation-filters="sRGB">
   <feGaussianBlur stdDeviation="0.058731695"/>
  </filter>
  <linearGradient id="linearGradient18" x1="10.686" x2="10.686" y1="7.4159" y2="13.906" gradientUnits="userSpaceOnUse">
   <stop stop-color="#ffffff" offset="0"/>
   <stop stop-color="#ffffff" stop-opacity="0" offset="1"/>
  </linearGradient>
  <filter id="filter18" x="-.011998" y="-.012002" width="1.024" height="1.024" color-interpolation-filters="sRGB">
   <feGaussianBlur stdDeviation="0.032456439"/>
  </filter>
  <filter id="filter19" x="-.27715" y="-.27604" width="1.5543" height="1.5521" color-interpolation-filters="sRGB">
   <feGaussianBlur stdDeviation="0.37206299"/>
  </filter>
  <filter id="filter21" x="-.075" y="-.075" width="1.15" height="1.15" color-interpolation-filters="sRGB">
   <feGaussianBlur stdDeviation="0.37206299"/>
  </filter>
 </defs>
 <path d="m5.3603 1.0584c-1.5298 0-2.5777 0.45621-3.2599 1.1998-0.67868 0.73981-1.0421 1.8001-1.0421 3.0007v6.4154c0 1.2006 0.36337 2.2609 1.0421 3.0007 0.68219 0.74355 1.7301 1.1998 3.2599 1.1998h6.2306c1.5298 0 2.5777-0.45622 3.2599-1.1998 0.67868-0.73981 1.024-1.7026 1.024-3.0007v-6.1745c0-1.5703-0.34527-2.5019-1.024-3.2417-0.68219-0.74355-1.7301-1.1998-3.2599-1.1998h-4.8457z" fill="url(#linearGradient3)"/>
 <g transform="translate(0 .23317)" filter="url(#filter21)" opacity=".5">
  <path d="m8.4665 2.5135a5.953 5.953 0 0 0-5.953 5.953 5.953 5.953 0 0 0 5.953 5.953 5.953 5.953 0 0 0 5.953-5.953 5.953 5.953 0 0 0-5.953-5.953zm0 2.2489a3.7041 3.7041 0 0 1 3.7041 3.7041 3.7041 3.7041 0 0 1-3.7041 3.7041 3.7041 3.7041 0 0 1-3.7041-3.7041 3.7041 3.7041 0 0 1 3.7041-3.7041z" fill="url(#linearGradient8)" opacity="1" style="paint-order:fill markers stroke"/>
  <path d="m14.01 13.191v-0.79511l-4.729-4.729c-0.43913-0.43913-1.1511-0.43913-1.5902 0-0.43913 0.43913-0.43913 1.1511-1e-6 1.5902l4.729 4.729 0.79511 2e-6c0.79511 2e-6 0.79511 2e-6 0.79511-0.79511z" fill="url(#linearGradient10)" opacity="1" style="paint-order:fill markers stroke"/>
 </g>
 <path d="m5.3603 1.0583c-1.5298 0-2.5775 0.45637-3.2597 1.1999-0.67868 0.73981-1.0423 1.8002-1.0423 3.0008v6.415c0 1.2006 0.36361 2.2609 1.0423 3.0008 0.68219 0.74355 1.7299 1.1999 3.2597 1.1999h6.2305c1.5298 0 2.5775-0.45637 3.2597-1.1999 0.67868-0.73981 1.0242-1.7027 1.0242-3.0008v-6.1742c0-1.5703-0.34552-2.5018-1.0242-3.2416-0.68219-0.74355-1.7299-1.1999-3.2597-1.1999h-4.8456zm-0.00103 0.26406h6.2326c1.4772 0 2.437 0.43133 3.0644 1.1152 0.63411 0.69126 0.95341 1.5307 0.95341 3.0623v6.1742c0 1.2512-0.32181 2.1335-0.95341 2.822-0.6274 0.68381-1.5871 1.1136-3.0644 1.1136h-6.2326c-1.4772 0-2.437-0.42978-3.0644-1.1136-0.62537-0.68172-0.97253-1.6747-0.97253-2.822v-6.4145c0-1.1472 0.34717-2.1403 0.97253-2.822 0.6274-0.68381 1.5871-1.1152 3.0644-1.1152z" fill="#ffffff" filter="url(#filter9)"/>
 <path d="m8.4665 2.5135a5.953 5.953 0 0 0-5.953 5.953 5.953 5.953 0 0 0 5.953 5.953 5.953 5.953 0 0 0 5.953-5.953 5.953 5.953 0 0 0-5.953-5.953zm0 2.2489a3.7041 3.7041 0 0 1 3.7041 3.7041 3.7041 3.7041 0 0 1-3.7041 3.7041 3.7041 3.7041 0 0 1-3.7041-3.7041 3.7041 3.7041 0 0 1 3.7041-3.7041z" fill="url(#linearGradient8)" style="paint-order:fill markers stroke"/>
 <path d="m8.467 2.5936c-3.2449-1e-7 -5.8734 2.6286-5.8734 5.8734-2e-7 3.2449 2.6286 5.8729 5.8734 5.8729 3.2449 0 5.8729-2.6281 5.8729-5.8729 0-3.2449-2.6281-5.8734-5.8729-5.8734zm0 0.10542c3.1877-2e-7 5.7675 2.5803 5.7675 5.768 0 3.1877-2.5798 5.7675-5.7675 5.7675-3.1877 0-5.768-2.5798-5.768-5.7675-1e-7 -3.1877 2.5803-5.768 5.768-5.768zm0 1.8789c-2.1459 0-3.8891 1.7432-3.8891 3.8891-1e-7 2.1459 1.7432 3.8886 3.8891 3.8886 2.1459 0 3.8886-1.7427 3.8886-3.8886 0-2.1459-1.7427-3.8891-3.8886-3.8891zm0 0.10542c2.0886-1e-7 3.7832 1.6951 3.7832 3.7837s-1.6945 3.7832-3.7832 3.7832-3.7837-1.6945-3.7837-3.7832c0-2.0886 1.6951-3.7837 3.7837-3.7837z" fill="url(#linearGradient14)" filter="url(#filter14)" stop-color="#000000" stroke-linecap="round" stroke-linejoin="round" style="mix-blend-mode:overlay;paint-order:fill markers stroke"/>
 <path d="m14.01 13.191v-0.79511l-4.729-4.729c-0.43913-0.43913-1.1511-0.43913-1.5902 0-0.43913 0.43913-0.43913 1.1511-1e-6 1.5902l4.729 4.729 0.79511 2e-6c0.79511 2e-6 0.79511 2e-6 0.79511-0.79511z" fill="url(#linearGradient10)" style="paint-order:fill markers stroke"/>
 <path d="m8.4861 7.4159c-0.26729 1e-7 -0.53559 0.10255-0.73999 0.30695-0.4088 0.4088-0.40879 1.0696 0 1.4784l4.7071 4.705h0.7617c0.19878 0 0.34701-3.2e-4 0.45113-0.01188 0.10411-0.01157 0.15814-0.03361 0.18913-0.0646s0.05096-0.08502 0.06253-0.18913c0.01157-0.10412 0.01395-0.2508 0.01395-0.44958v-0.76325l-4.705-4.7035-0.0020671-0.0015502c-0.2044-0.2044-0.47115-0.30695-0.73844-0.30695zm0 0.10542c0.24022 0 0.47967 0.09107 0.66403 0.27543a0.10584 0.10584 0 0 0 0.00982 0.00982l4.6663 4.6663v0.71829c0 0.19793-0.0034 0.34284-0.01395 0.43769-0.01054 0.09483-0.02744 0.12356-0.03101 0.12712-0.0052 0.0052-0.03368 0.02269-0.12712 0.03307-0.09337 0.01037-0.24058 0.01188-0.43924 0.01188h-0.71674l-4.6777-4.674c-0.36847-0.36847-0.36847-0.96165 0-1.3301 0.18417-0.18417 0.42536-0.27543 0.66558-0.27543z" fill="url(#linearGradient18)" filter="url(#filter18)" opacity=".75" stop-color="#000000" stroke-linecap="round" stroke-linejoin="round" style="mix-blend-mode:overlay;paint-order:fill markers stroke"/>
 <path d="m11.765 10.151a3.7041 3.7041 0 0 1-1.5823 1.5983l1.636 1.6366h5.17e-4a5.953 5.953 0 0 0 1.5854-1.5952l-1.6397-1.6397z" fill="#002ae4" filter="url(#filter19)" opacity=".8" style="paint-order:fill markers stroke"/>
</svg>
