<svg width="64" height="64" version="1.1" viewBox="0 0 16.933 16.933" xmlns="http://www.w3.org/2000/svg" xmlns:xlink="http://www.w3.org/1999/xlink">
 <defs>
  <linearGradient id="c" x1="499.95" x2="499.95" y1="2.008" y2="1026" gradientTransform="matrix(.0082705 0 0 .0082705 19.819 7.9373)" gradientUnits="userSpaceOnUse">
   <stop stop-color="#fc5fb5" offset="0"/>
   <stop stop-color="#ff1d52" offset="1"/>
  </linearGradient>
  <radialGradient id="b" cx="12.17" cy="12.17" r="4.763" gradientUnits="userSpaceOnUse">
   <stop stop-color="#fd3e84" offset="0"/>
   <stop stop-color="#fe2a65" stop-opacity="0" offset="1"/>
  </radialGradient>
  <linearGradient id="linearGradient19" x1="12.151" x2="8.8884" y1="9.1836" y2="10.947" gradientUnits="userSpaceOnUse" xlink:href="#linearGradient23"/>
  <linearGradient id="linearGradient23">
   <stop stop-color="#59a4ff" stop-opacity="0" offset="0"/>
   <stop stop-color="#3390ff" offset=".56883"/>
   <stop stop-color="#59a4ff" stop-opacity="0" offset="1"/>
  </linearGradient>
  <linearGradient id="linearGradient31" x1="9.6057" x2="9.6057" y1="-5.2614" y2="-3.5592" gradientUnits="userSpaceOnUse" xlink:href="#linearGradient25"/>
  <linearGradient id="linearGradient25">
   <stop stop-color="#ffffff" stop-opacity="0" offset="0"/>
   <stop stop-color="#ffffff" stop-opacity=".9" offset=".19055"/>
   <stop stop-color="#ffffff" offset=".5"/>
   <stop stop-color="#ffffff" stop-opacity=".9" offset=".74165"/>
   <stop stop-color="#ffffff" stop-opacity="0" offset="1"/>
  </linearGradient>
  <filter id="filter30" x="-.0031767" y="-.0039723" width="1.0064" height="1.0079" color-interpolation-filters="sRGB">
   <feGaussianBlur stdDeviation="0.0037559755"/>
  </filter>
  <linearGradient id="linearGradient35" x1="9.91" x2="9.91" y1="3.6739" y2="13.018" gradientUnits="userSpaceOnUse">
   <stop stop-color="#bbf6ff" offset="0"/>
   <stop stop-color="#bbf6ff" stop-opacity=".35" offset="1"/>
  </linearGradient>
  <filter id="filter35" x="-.015416" y="-.0098237" width="1.0308" height="1.0196" color-interpolation-filters="sRGB">
   <feGaussianBlur stdDeviation="0.038245177"/>
  </filter>
  <linearGradient id="linearGradient26" x1="9.6057" x2="9.7557" y1="-5.2614" y2="-3.6099" gradientUnits="userSpaceOnUse" xlink:href="#linearGradient25"/>
  <linearGradient id="linearGradient24" x1="12.151" x2="8.8884" y1="9.1836" y2="10.947" gradientTransform="rotate(-60,8.4768,14.576)" gradientUnits="userSpaceOnUse" xlink:href="#linearGradient23"/>
  <linearGradient id="linearGradient20" x1="12.181" x2="9.1491" y1="10.027" y2="11.474" gradientTransform="rotate(240 8.4757 8.7672)" gradientUnits="userSpaceOnUse">
   <stop stop-color="#59a4ff" stop-opacity="0" offset="0"/>
   <stop stop-color="#3390ff" offset=".5"/>
   <stop stop-color="#59a4ff" stop-opacity="0" offset="1"/>
  </linearGradient>
  <linearGradient id="linearGradient14" x1="-3.7592" x2="-13.185" y1="10.253" y2="10.22" gradientTransform="scale(-1,1)" gradientUnits="userSpaceOnUse" xlink:href="#linearGradient9"/>
  <linearGradient id="linearGradient9">
   <stop stop-color="#bceeff" offset="0"/>
   <stop stop-color="#94c6fa" offset="1"/>
  </linearGradient>
  <linearGradient id="linearGradient12" x1="-.98226" x2="8.3849" y1="10.244" y2="10.251" gradientTransform="scale(1)" gradientUnits="userSpaceOnUse">
   <stop stop-color="#d3f9ff" offset="0"/>
   <stop stop-color="#94c6fa" offset="1"/>
  </linearGradient>
  <linearGradient id="linearGradient10" x1="7.4948" x2="16.89" y1="-4.4504" y2="-4.391" gradientUnits="userSpaceOnUse" xlink:href="#linearGradient9"/>
  <filter id="filter8" x="-.012" y="-.012" width="1.024" height="1.024" color-interpolation-filters="sRGB">
   <feGaussianBlur stdDeviation="0.074081873"/>
  </filter>
  <linearGradient id="linearGradient7" x1="6.7452" x2="10.583" y1="1.0583" y2="11.312" gradientUnits="userSpaceOnUse" xlink:href="#linearGradient6"/>
  <linearGradient id="linearGradient6">
   <stop stop-color="#ffffff" offset="0"/>
   <stop stop-color="#ffffff" stop-opacity="0" offset="1"/>
  </linearGradient>
  <linearGradient id="linearGradient8" x1="15.081" x2="12.7" y1="14.816" y2="12.171" gradientUnits="userSpaceOnUse" xlink:href="#linearGradient6"/>
  <linearGradient id="linearGradient3" x1="8.4665" x2="8.4665" y1="1.0583" y2="15.875" gradientUnits="userSpaceOnUse">
   <stop stop-color="#22b4fa" offset="0"/>
   <stop stop-color="#1b66f1" offset="1"/>
  </linearGradient>
  <linearGradient id="linearGradient45" x1="9.91" x2="9.91" y1="3.6739" y2="13.018" gradientUnits="userSpaceOnUse" xlink:href="#linearGradient35"/>
  <filter id="filter16" x="-.01728" y="-.01728" width="1.0346" height="1.0346" color-interpolation-filters="sRGB">
   <feGaussianBlur stdDeviation="0.05905384"/>
  </filter>
 </defs>
 <path d="m5.3603 1.0584c-1.5298 0-2.5777 0.45621-3.2599 1.1998-0.67868 0.73981-1.0421 1.8001-1.0421 3.0007v6.4154c0 1.2006 0.36337 2.2609 1.0421 3.0007 0.68219 0.74355 1.7301 1.1998 3.2599 1.1998h6.2306c1.5298 0 2.5777-0.45622 3.2599-1.1998 0.67868-0.73981 1.024-1.7026 1.024-3.0007v-6.1745c0-1.5703-0.34527-2.5019-1.024-3.2417-0.68219-0.74355-1.7301-1.1998-3.2599-1.1998h-4.8457z" fill="url(#linearGradient3)"/>
 <g filter="url(#filter8)" opacity=".75" style="mix-blend-mode:overlay">
  <path d="m5.3603 1.0583c-1.5298 0-2.5775 0.45637-3.2597 1.1999-0.67868 0.73981-1.0423 1.8002-1.0423 3.0008v6.415c0 1.2006 0.36361 2.2609 1.0423 3.0008 0.68219 0.74355 1.7299 1.1999 3.2597 1.1999h6.2305c1.5298 0 2.5775-0.45637 3.2597-1.1999 0.67868-0.73981 1.0242-1.7027 1.0242-3.0008v-6.1742c0-1.5703-0.34552-2.5018-1.0242-3.2416-0.68219-0.74355-1.7299-1.1999-3.2597-1.1999h-4.8456zm-0.00103 0.26406h6.2326c1.4772 0 2.437 0.43133 3.0644 1.1152 0.63411 0.69126 0.95341 1.5307 0.95341 3.0623v6.1742c0 1.2512-0.32181 2.1335-0.95341 2.822-0.6274 0.68381-1.5871 1.1136-3.0644 1.1136h-6.2326c-1.4772 0-2.437-0.42978-3.0644-1.1136-0.62537-0.68172-0.97253-1.6747-0.97253-2.822v-6.4145c0-1.1472 0.34717-2.1403 0.97253-2.822 0.6274-0.68381 1.5871-1.1152 3.0644-1.1152z" fill="url(#linearGradient7)" opacity="1"/>
  <path d="m5.3603 1.0583c-1.5298 0-2.5775 0.45637-3.2597 1.1999-0.67868 0.73981-1.0423 1.8002-1.0423 3.0008v6.415c0 1.2006 0.36361 2.2609 1.0423 3.0008 0.68219 0.74355 1.7299 1.1999 3.2597 1.1999h6.2305c1.5298 0 2.5775-0.45637 3.2597-1.1999 0.67868-0.73981 1.0242-1.7027 1.0242-3.0008v-6.1742c0-1.5703-0.34552-2.5018-1.0242-3.2416-0.68219-0.74355-1.7299-1.1999-3.2597-1.1999h-4.8456zm-0.00103 0.26406h6.2326c1.4772 0 2.437 0.43133 3.0644 1.1152 0.63411 0.69126 0.95341 1.5307 0.95341 3.0623v6.1742c0 1.2512-0.32181 2.1335-0.95341 2.822-0.6274 0.68381-1.5871 1.1136-3.0644 1.1136h-6.2326c-1.4772 0-2.437-0.42978-3.0644-1.1136-0.62537-0.68172-0.97253-1.6747-0.97253-2.822v-6.4145c0-1.1472 0.34717-2.1403 0.97253-2.822 0.6274-0.68381 1.5871-1.1152 3.0644-1.1152z" fill="url(#linearGradient8)" opacity="1"/>
 </g>
 <rect transform="rotate(60)" x="6.8912" y="-5.0707" width="10.583" height="1.3229" rx=".66145" ry=".66145" fill="url(#linearGradient10)" style="paint-order:fill markers stroke"/>
 <path d="m7.5772 3.6741c-0.10658 0.00288-0.21398 0.032142-0.31315 0.089398-0.31735 0.18322-0.42506 0.58594-0.24184 0.90329l4.6301 8.0195c0.18322 0.31735 0.58594 0.42558 0.90329 0.24236s0.42558-0.58646 0.24236-0.9038l-4.6301-8.0195c-0.12596-0.21818-0.35618-0.33757-0.59065-0.33124zm0.00775 0.21084c0.15889-0.00515 0.31305 0.075799 0.39997 0.22634l4.6296 8.019c0.12642 0.21897 0.05464 0.48748-0.16433 0.6139s-0.48903 0.05516-0.61545-0.16381l-4.6296-8.019c-0.12642-0.21897-0.053088-0.488 0.16588-0.61442 0.068427-0.039506 0.14171-0.059672 0.21394-0.06201z" fill="url(#linearGradient45)" filter="url(#filter35)" stop-color="#000000" stroke-linecap="round" stroke-linejoin="round" style="mix-blend-mode:overlay;paint-order:fill markers stroke"/>
 <rect transform="matrix(-.5 .86603 .86603 .5 0 0)" x="-1.5856" y="9.6115" width="10.583" height="1.3229" rx=".66145" ry=".66145" fill="url(#linearGradient12)" style="paint-order:fill markers stroke"/>
 <path transform="matrix(-1,0,0,1,16.943,0)" d="m7.5772 3.6741c-0.10658 0.00288-0.21398 0.032142-0.31315 0.089398-0.31735 0.18322-0.42506 0.58594-0.24184 0.90329l4.6301 8.0195c0.18322 0.31735 0.58594 0.42558 0.90329 0.24236s0.42558-0.58646 0.24236-0.9038l-4.6301-8.0195c-0.12596-0.21818-0.35618-0.33757-0.59065-0.33124zm0.00775 0.21084c0.15889-0.00515 0.31305 0.075799 0.39997 0.22634l4.6296 8.019c0.12642 0.21897 0.05464 0.48748-0.16433 0.6139s-0.48903 0.05516-0.61545-0.16381l-4.6296-8.019c-0.12642-0.21897-0.053088-0.488 0.16588-0.61442 0.068427-0.039506 0.14171-0.059672 0.21394-0.06201z" fill="url(#linearGradient45)" filter="url(#filter35)" stop-color="#000000" stroke-linecap="round" stroke-linejoin="round" style="mix-blend-mode:overlay;paint-order:fill markers stroke"/>
 <path d="m3.8364 9.5584c-0.36644 0-0.66145 0.295-0.66145 0.66145 0 0.36644 0.295 0.66144 0.66145 0.66144h6.7736l-0.76376-1.3229h-6.0099zm7.5374 0 0.76376 1.3229h0.9591c0.36644 0 0.66144-0.295 0.66144-0.66144s-0.295-0.66145-0.66144-0.66145h-1.7229z" fill="url(#linearGradient14)" style="paint-order:fill markers stroke"/>
 <path d="m9.3371 8.6767 1.1457-0.66145-1.2433-2.1535-0.76378 1.3229zm-1.6252-2.8149 0.76378-1.3229-0.47955-0.8306-1.1457 0.66145z" fill="url(#linearGradient20)" style="paint-order:fill markers stroke"/>
 <path d="m3.9547 12.373 1.1457 0.66144 1.2433-2.1535-1.5275-7e-6zm1.6252-2.8149 1.5275 7.9e-6 0.47955-0.8306-1.1457-0.66145z" fill="url(#linearGradient24)" style="paint-order:fill markers stroke"/>
 <path transform="rotate(60)" d="m7.9141-5.5154 1.3101 2.2692c0.74903 1.823e-4 1.0699 4.37e-5 1.5275 7.5e-6 -0.43724-0.75717-1.0258-1.735-1.3101-2.2692z" fill="url(#linearGradient26)" filter="url(#filter30)" opacity=".5" style="mix-blend-mode:overlay"/>
 <path transform="rotate(180,10.151,2.9098)" d="m7.9141-5.5154 1.3101 2.2692c0.74903 1.823e-4 1.0699 4.37e-5 1.5275 7.5e-6 -0.43724-0.75717-1.0258-1.735-1.3101-2.2692z" fill="url(#linearGradient31)" filter="url(#filter30)" opacity=".5" style="mix-blend-mode:overlay"/>
 <path transform="matrix(-.5 -.86603 -.86603 .5 20.649 14.626)" d="m12.798 12.025c0.18322 0.31735 0.07524 0.72033-0.2421 0.90355-0.31735 0.18322-0.72033 0.07524-0.90355-0.2421l-3.386-5.8648 0.24401-6.1e-5 3.3243 5.759c0.12642 0.21897 0.39651 0.2902 0.61548 0.16378s0.29098-0.39517 0.16456-0.61413l-3.0649-5.3085 0.24401-6.1e-5 3.0042 5.2033zm-3.7679-6.5262-0.24401 6.1e-5 -0.80097-1.3873c-0.086914-0.15054-0.24112-0.23187-0.40001-0.22672-0.072221 0.0023389-0.1457 0.022659-0.21412 0.062165-0.21897 0.12642-0.29213 0.39523-0.16571 0.6142l0.5413 0.93756-0.24401 6.1e-5 -0.48032-0.83194c-0.18322-0.31735-0.075689-0.72007 0.24166-0.90329 0.099171-0.057256 0.2071-0.086328 0.31367-0.089208 0.23447-0.00633 0.46436 0.11288 0.59032 0.33106l0.8622 1.4934z" fill="url(#linearGradient45)" filter="url(#filter35)" stop-color="#000000" stroke-linecap="round" stroke-linejoin="round" style="mix-blend-mode:overlay;paint-order:fill markers stroke"/>
 <path transform="rotate(120,3.4149,1.9393)" d="m7.9141-5.5154 1.3101 2.2692c0.74903 1.823e-4 1.0699 4.37e-5 1.5275 7.5e-6 -0.43724-0.75717-1.0258-1.735-1.3101-2.2692z" fill="url(#linearGradient31)" filter="url(#filter30)" opacity=".5" style="mix-blend-mode:overlay"/>
 <path d="m8.1234 9.5584v1.3229h2.4866l-0.76376-1.3229h-1.7229zm3.2504 0 0.76376 1.3229h0.9591v-1.3229h-1.7229z" fill="url(#linearGradient19)" style="paint-order:fill markers stroke"/>
 <circle cx="12.17" cy="12.17" r="4.763" fill="url(#b)"/>
 <circle cx="12.171" cy="12.171" r="4.2333" fill="url(#c)" stroke-width="1.0001"/>
 <path d="m12.121 9.362c-0.367 0.013-0.702 0.188-1.006 0.385-0.182 0.095-0.33 0.247-0.494 0.411-0.172 0.221-0.26 0.498-0.44 0.709-0.112 0.289-0.203 0.587-0.171 0.902-0.012 0.478-4e-3 0.968 0.178 1.417 0.3 0.803 0.946 1.501 1.762 1.74 0.133 0.04 0.52 0.071 0.5 0.04-0.266-0.01-0.599-0.17-0.72-0.336 0.049 0.08-0.286-0.061-0.263-0.18a1.7 1.7 0 0 1-0.49-0.488c-0.154-0.178-0.184-0.322-0.24-0.485-0.111-0.134-0.1-0.237-0.018-0.208-0.116-0.214-0.383-0.313-0.371-0.582-0.016-0.255-0.115-0.491-0.063-0.754 0.032-0.225 0.016-0.464 0.133-0.664 0.083-0.276 0.217-0.52 0.442-0.703 0.078-0.126 0.346-0.166 0.377-0.253-0.115 0 0.173-0.173 0.27-0.168 0.084-0.028 0.212-0.055 0.077-0.05 0.108-0.077 0.473-0.256 0.484-0.171-0.17 0.055 0.207-0.067 0.294-0.045 0.425-0.013 0.855 0.163 1.125 0.507 0.344 0.392 0.442 0.961 0.344 1.468 0.11-0.086-0.064 0.318-0.138 0.388-0.047 0.146-0.334 0.44-0.388 0.358 0.043-0.028-0.2 0.171-0.301 0.175-0.456 0.163-0.97-0.135-1.133-0.587-0.058-0.241-0.126-0.406-0.039-0.65 0.157-0.508 0.843-0.721 1.242-0.377-0.273-0.372-0.881-0.374-1.151 2e-3 -0.177 0.221-0.316 0.495-0.282 0.792 7e-3 0.391 0.303 0.687 0.59 0.903-0.088 0.154-0.475-0.395-0.244-0.076 0.13 0.199-0.408-0.434-0.17-0.11 0.267 0.293 0.68 0.51 1.075 0.414-0.206-0.02-0.465 0.013-0.628-0.167 0.158-0.013 0.515 0.129 0.748 0.036 0.3-0.058 0.57-0.232 0.77-0.467 0.084-0.034-0.018 0.16 0.047-0.021-5e-3 -0.138 0.108-0.195 0.138-0.157 0.036-0.13 0.166-0.499 0.175-0.46 0 0.119-0.03 0.21 7e-3 0.043-0.027-0.101 0.017-0.245 0.036-0.083a1.16 1.16 0 0 0-0.04-0.724c0.148 0.138 7e-3 -0.256-0.075-0.302 0.035-0.22 0.185-1e-3 0.227 0.152-0.024-0.13-3e-3 -0.247-0.029-0.345a1.87 1.87 0 0 0-0.792-0.892c0.152 0.21-0.164-0.174-0.269-0.067-0.261-0.047-0.497-0.241-0.765-0.18-0.077 0.047-0.347 0.015-0.122-0.021-0.091-0.019-0.47 0.042-0.2-0.069zm2.177 1.574 5e-3 0.024zm5e-3 0.024c3e-3 0.02 0.013 0.044 0.012 0.058 0.026 0.138 0.095 0.297 0.034 0.07a0.5 0.5 0 0 1-0.047-0.128zm-2.046-1.565c0.048 9e-3 0.105 0.016 0.096 0.028 0.054-0.012 0.065-0.023-0.096-0.028m-2.145 1.138c-0.076 0.17 0.056 0.13 0.036 0.015-0.011 8e-3 -0.038 5e-3 -0.036-0.015m-0.098 0.43c-0.097 0.211-0.014 0.211 0 0m3.243 0.625c-0.097 0.142 0.093 0.178 0 0m-0.058 0.349q-0.011 0.055-0.034 0.106c0.024-0.031 0.04-0.067 0.034-0.106m-0.034 0.106c-0.061 0.08-0.172 0.112-0.054-0.038-0.12 0.03-0.03 0.292 0.043 0.073zm-0.337 0.254c-0.115 7e-3 -0.365 0.02-0.113 0.079 0.051 5e-3 0.074-0.057 0.113-0.08zm-1.15 0.013c0.034 0.145 0.145 0.24 0.024 0.048zm-0.071 0.129c-0.067 0.122 0.26 0.396 0.092 0.168a2 2 0 0 1-0.092-0.168" fill="#ffffff"/>
 <path d="m12.171 8.0696a4.101 4.101 0 0 0-4.101 4.101 4.101 4.101 0 0 0 4.101 4.101 4.101 4.101 0 0 0 4.101-4.101 4.101 4.101 0 0 0-4.101-4.101zm0 0.13229a3.9687 3.9687 0 0 1 3.9687 3.9687 3.9687 3.9687 0 0 1-3.9687 3.9687 3.9687 3.9687 0 0 1-3.9687-3.9687 3.9687 3.9687 0 0 1 3.9687-3.9687z" fill="#ffffff" filter="url(#filter16)" stroke-width=".96881" style="mix-blend-mode:overlay"/>
</svg>
