<svg width="64" height="64" version="1.1" viewBox="0 0 16.933 16.933" xmlns="http://www.w3.org/2000/svg" xmlns:xlink="http://www.w3.org/1999/xlink">
 <defs>
  <linearGradient id="a" x1="499.95" x2="499.95" y1="2.008" y2="1026" gradientTransform="translate(2 2)scale(.99609)" gradientUnits="userSpaceOnUse">
   <stop stop-color="#fff" offset="0"/>
   <stop stop-color="#d7d7d7" offset="1"/>
  </linearGradient>
  <linearGradient id="e" x1="512" x2="512" y1="53" y2="925.69" gradientUnits="userSpaceOnUse" xlink:href="#a"/>
  <filter id="d" x="-.074999" y="-.074999" width="1.15" height="1.15" color-interpolation-filters="sRGB">
   <feGaussianBlur stdDeviation="31.874"/>
  </filter>
  <linearGradient id="linearGradient19" x1="12.151" x2="8.8884" y1="9.1836" y2="10.947" gradientUnits="userSpaceOnUse" xlink:href="#linearGradient23"/>
  <linearGradient id="linearGradient23">
   <stop stop-color="#59a4ff" stop-opacity="0" offset="0"/>
   <stop stop-color="#3390ff" offset=".56883"/>
   <stop stop-color="#59a4ff" stop-opacity="0" offset="1"/>
  </linearGradient>
  <linearGradient id="linearGradient31" x1="9.6057" x2="9.6057" y1="-5.2614" y2="-3.5592" gradientUnits="userSpaceOnUse" xlink:href="#linearGradient25"/>
  <linearGradient id="linearGradient25">
   <stop stop-color="#ffffff" stop-opacity="0" offset="0"/>
   <stop stop-color="#ffffff" stop-opacity=".9" offset=".19055"/>
   <stop stop-color="#ffffff" offset=".5"/>
   <stop stop-color="#ffffff" stop-opacity=".9" offset=".74165"/>
   <stop stop-color="#ffffff" stop-opacity="0" offset="1"/>
  </linearGradient>
  <filter id="filter30" x="-.0031767" y="-.0039723" width="1.0064" height="1.0079" color-interpolation-filters="sRGB">
   <feGaussianBlur stdDeviation="0.0037559755"/>
  </filter>
  <linearGradient id="linearGradient35" x1="9.91" x2="9.91" y1="3.6739" y2="13.018" gradientUnits="userSpaceOnUse">
   <stop stop-color="#bbf6ff" offset="0"/>
   <stop stop-color="#bbf6ff" stop-opacity=".35" offset="1"/>
  </linearGradient>
  <filter id="filter35" x="-.015416" y="-.0098237" width="1.0308" height="1.0196" color-interpolation-filters="sRGB">
   <feGaussianBlur stdDeviation="0.038245177"/>
  </filter>
  <linearGradient id="linearGradient26" x1="9.6057" x2="9.7557" y1="-5.2614" y2="-3.6099" gradientUnits="userSpaceOnUse" xlink:href="#linearGradient25"/>
  <linearGradient id="linearGradient24" x1="12.151" x2="8.8884" y1="9.1836" y2="10.947" gradientTransform="rotate(-60,8.4768,14.576)" gradientUnits="userSpaceOnUse" xlink:href="#linearGradient23"/>
  <linearGradient id="linearGradient20" x1="12.181" x2="9.1491" y1="10.027" y2="11.474" gradientTransform="rotate(240 8.4757 8.7672)" gradientUnits="userSpaceOnUse">
   <stop stop-color="#59a4ff" stop-opacity="0" offset="0"/>
   <stop stop-color="#3390ff" offset=".5"/>
   <stop stop-color="#59a4ff" stop-opacity="0" offset="1"/>
  </linearGradient>
  <linearGradient id="linearGradient14" x1="-3.7592" x2="-13.185" y1="10.253" y2="10.22" gradientTransform="scale(-1,1)" gradientUnits="userSpaceOnUse" xlink:href="#linearGradient9"/>
  <linearGradient id="linearGradient9">
   <stop stop-color="#bceeff" offset="0"/>
   <stop stop-color="#94c6fa" offset="1"/>
  </linearGradient>
  <linearGradient id="linearGradient12" x1="-.98226" x2="8.3849" y1="10.244" y2="10.251" gradientTransform="scale(1)" gradientUnits="userSpaceOnUse">
   <stop stop-color="#d3f9ff" offset="0"/>
   <stop stop-color="#94c6fa" offset="1"/>
  </linearGradient>
  <linearGradient id="linearGradient10" x1="7.4948" x2="16.89" y1="-4.4504" y2="-4.391" gradientUnits="userSpaceOnUse" xlink:href="#linearGradient9"/>
  <filter id="filter8" x="-.012" y="-.012" width="1.024" height="1.024" color-interpolation-filters="sRGB">
   <feGaussianBlur stdDeviation="0.074081873"/>
  </filter>
  <linearGradient id="linearGradient7" x1="6.7452" x2="10.583" y1="1.0583" y2="11.312" gradientUnits="userSpaceOnUse" xlink:href="#linearGradient6"/>
  <linearGradient id="linearGradient6">
   <stop stop-color="#ffffff" offset="0"/>
   <stop stop-color="#ffffff" stop-opacity="0" offset="1"/>
  </linearGradient>
  <linearGradient id="linearGradient8" x1="15.081" x2="12.7" y1="14.816" y2="12.171" gradientUnits="userSpaceOnUse" xlink:href="#linearGradient6"/>
  <linearGradient id="linearGradient3" x1="8.4665" x2="8.4665" y1="1.0583" y2="15.875" gradientUnits="userSpaceOnUse">
   <stop stop-color="#22b4fa" offset="0"/>
   <stop stop-color="#1b66f1" offset="1"/>
  </linearGradient>
  <linearGradient id="linearGradient45" x1="9.91" x2="9.91" y1="3.6739" y2="13.018" gradientUnits="userSpaceOnUse" xlink:href="#linearGradient35"/>
 </defs>
 <path d="m5.3603 1.0584c-1.5298 0-2.5777 0.45621-3.2599 1.1998-0.67868 0.73981-1.0421 1.8001-1.0421 3.0007v6.4154c0 1.2006 0.36337 2.2609 1.0421 3.0007 0.68219 0.74355 1.7301 1.1998 3.2599 1.1998h6.2306c1.5298 0 2.5777-0.45622 3.2599-1.1998 0.67868-0.73981 1.024-1.7026 1.024-3.0007v-6.1745c0-1.5703-0.34527-2.5019-1.024-3.2417-0.68219-0.74355-1.7301-1.1998-3.2599-1.1998h-4.8457z" fill="url(#linearGradient3)"/>
 <g filter="url(#filter8)" opacity=".75" style="mix-blend-mode:overlay">
  <path d="m5.3603 1.0583c-1.5298 0-2.5775 0.45637-3.2597 1.1999-0.67868 0.73981-1.0423 1.8002-1.0423 3.0008v6.415c0 1.2006 0.36361 2.2609 1.0423 3.0008 0.68219 0.74355 1.7299 1.1999 3.2597 1.1999h6.2305c1.5298 0 2.5775-0.45637 3.2597-1.1999 0.67868-0.73981 1.0242-1.7027 1.0242-3.0008v-6.1742c0-1.5703-0.34552-2.5018-1.0242-3.2416-0.68219-0.74355-1.7299-1.1999-3.2597-1.1999h-4.8456zm-0.00103 0.26406h6.2326c1.4772 0 2.437 0.43133 3.0644 1.1152 0.63411 0.69126 0.95341 1.5307 0.95341 3.0623v6.1742c0 1.2512-0.32181 2.1335-0.95341 2.822-0.6274 0.68381-1.5871 1.1136-3.0644 1.1136h-6.2326c-1.4772 0-2.437-0.42978-3.0644-1.1136-0.62537-0.68172-0.97253-1.6747-0.97253-2.822v-6.4145c0-1.1472 0.34717-2.1403 0.97253-2.822 0.6274-0.68381 1.5871-1.1152 3.0644-1.1152z" fill="url(#linearGradient7)" opacity="1"/>
  <path d="m5.3603 1.0583c-1.5298 0-2.5775 0.45637-3.2597 1.1999-0.67868 0.73981-1.0423 1.8002-1.0423 3.0008v6.415c0 1.2006 0.36361 2.2609 1.0423 3.0008 0.68219 0.74355 1.7299 1.1999 3.2597 1.1999h6.2305c1.5298 0 2.5775-0.45637 3.2597-1.1999 0.67868-0.73981 1.0242-1.7027 1.0242-3.0008v-6.1742c0-1.5703-0.34552-2.5018-1.0242-3.2416-0.68219-0.74355-1.7299-1.1999-3.2597-1.1999h-4.8456zm-0.00103 0.26406h6.2326c1.4772 0 2.437 0.43133 3.0644 1.1152 0.63411 0.69126 0.95341 1.5307 0.95341 3.0623v6.1742c0 1.2512-0.32181 2.1335-0.95341 2.822-0.6274 0.68381-1.5871 1.1136-3.0644 1.1136h-6.2326c-1.4772 0-2.437-0.42978-3.0644-1.1136-0.62537-0.68172-0.97253-1.6747-0.97253-2.822v-6.4145c0-1.1472 0.34717-2.1403 0.97253-2.822 0.6274-0.68381 1.5871-1.1152 3.0644-1.1152z" fill="url(#linearGradient8)" opacity="1"/>
 </g>
 <rect transform="rotate(60)" x="6.8912" y="-5.0707" width="10.583" height="1.3229" rx=".66145" ry=".66145" fill="url(#linearGradient10)" style="paint-order:fill markers stroke"/>
 <path d="m7.5772 3.6741c-0.10658 0.00288-0.21398 0.032142-0.31315 0.089398-0.31735 0.18322-0.42506 0.58594-0.24184 0.90329l4.6301 8.0195c0.18322 0.31735 0.58594 0.42558 0.90329 0.24236s0.42558-0.58646 0.24236-0.9038l-4.6301-8.0195c-0.12596-0.21818-0.35618-0.33757-0.59065-0.33124zm0.00775 0.21084c0.15889-0.00515 0.31305 0.075799 0.39997 0.22634l4.6296 8.019c0.12642 0.21897 0.05464 0.48748-0.16433 0.6139s-0.48903 0.05516-0.61545-0.16381l-4.6296-8.019c-0.12642-0.21897-0.053088-0.488 0.16588-0.61442 0.068427-0.039506 0.14171-0.059672 0.21394-0.06201z" fill="url(#linearGradient45)" filter="url(#filter35)" stop-color="#000000" stroke-linecap="round" stroke-linejoin="round" style="mix-blend-mode:overlay;paint-order:fill markers stroke"/>
 <rect transform="matrix(-.5 .86603 .86603 .5 0 0)" x="-1.5856" y="9.6115" width="10.583" height="1.3229" rx=".66145" ry=".66145" fill="url(#linearGradient12)" style="paint-order:fill markers stroke"/>
 <path transform="matrix(-1,0,0,1,16.943,0)" d="m7.5772 3.6741c-0.10658 0.00288-0.21398 0.032142-0.31315 0.089398-0.31735 0.18322-0.42506 0.58594-0.24184 0.90329l4.6301 8.0195c0.18322 0.31735 0.58594 0.42558 0.90329 0.24236s0.42558-0.58646 0.24236-0.9038l-4.6301-8.0195c-0.12596-0.21818-0.35618-0.33757-0.59065-0.33124zm0.00775 0.21084c0.15889-0.00515 0.31305 0.075799 0.39997 0.22634l4.6296 8.019c0.12642 0.21897 0.05464 0.48748-0.16433 0.6139s-0.48903 0.05516-0.61545-0.16381l-4.6296-8.019c-0.12642-0.21897-0.053088-0.488 0.16588-0.61442 0.068427-0.039506 0.14171-0.059672 0.21394-0.06201z" fill="url(#linearGradient45)" filter="url(#filter35)" stop-color="#000000" stroke-linecap="round" stroke-linejoin="round" style="mix-blend-mode:overlay;paint-order:fill markers stroke"/>
 <path d="m3.8364 9.5584c-0.36644 0-0.66145 0.295-0.66145 0.66145 0 0.36644 0.295 0.66144 0.66145 0.66144h6.7736l-0.76376-1.3229h-6.0099zm7.5374 0 0.76376 1.3229h0.9591c0.36644 0 0.66144-0.295 0.66144-0.66144s-0.295-0.66145-0.66144-0.66145h-1.7229z" fill="url(#linearGradient14)" style="paint-order:fill markers stroke"/>
 <path d="m9.3371 8.6767 1.1457-0.66145-1.2433-2.1535-0.76378 1.3229zm-1.6252-2.8149 0.76378-1.3229-0.47955-0.8306-1.1457 0.66145z" fill="url(#linearGradient20)" style="paint-order:fill markers stroke"/>
 <path d="m3.9547 12.373 1.1457 0.66144 1.2433-2.1535-1.5275-7e-6zm1.6252-2.8149 1.5275 7.9e-6 0.47955-0.8306-1.1457-0.66145z" fill="url(#linearGradient24)" style="paint-order:fill markers stroke"/>
 <path transform="rotate(60)" d="m7.9141-5.5154 1.3101 2.2692c0.74903 1.823e-4 1.0699 4.37e-5 1.5275 7.5e-6 -0.43724-0.75717-1.0258-1.735-1.3101-2.2692z" fill="url(#linearGradient26)" filter="url(#filter30)" opacity=".5" style="mix-blend-mode:overlay"/>
 <path transform="rotate(180,10.151,2.9098)" d="m7.9141-5.5154 1.3101 2.2692c0.74903 1.823e-4 1.0699 4.37e-5 1.5275 7.5e-6 -0.43724-0.75717-1.0258-1.735-1.3101-2.2692z" fill="url(#linearGradient31)" filter="url(#filter30)" opacity=".5" style="mix-blend-mode:overlay"/>
 <path transform="matrix(-.5 -.86603 -.86603 .5 20.649 14.626)" d="m12.798 12.025c0.18322 0.31735 0.07524 0.72033-0.2421 0.90355-0.31735 0.18322-0.72033 0.07524-0.90355-0.2421l-3.386-5.8648 0.24401-6.1e-5 3.3243 5.759c0.12642 0.21897 0.39651 0.2902 0.61548 0.16378s0.29098-0.39517 0.16456-0.61413l-3.0649-5.3085 0.24401-6.1e-5 3.0042 5.2033zm-3.7679-6.5262-0.24401 6.1e-5 -0.80097-1.3873c-0.086914-0.15054-0.24112-0.23187-0.40001-0.22672-0.072221 0.0023389-0.1457 0.022659-0.21412 0.062165-0.21897 0.12642-0.29213 0.39523-0.16571 0.6142l0.5413 0.93756-0.24401 6.1e-5 -0.48032-0.83194c-0.18322-0.31735-0.075689-0.72007 0.24166-0.90329 0.099171-0.057256 0.2071-0.086328 0.31367-0.089208 0.23447-0.00633 0.46436 0.11288 0.59032 0.33106l0.8622 1.4934z" fill="url(#linearGradient45)" filter="url(#filter35)" stop-color="#000000" stroke-linecap="round" stroke-linejoin="round" style="mix-blend-mode:overlay;paint-order:fill markers stroke"/>
 <path transform="rotate(120,3.4149,1.9393)" d="m7.9141-5.5154 1.3101 2.2692c0.74903 1.823e-4 1.0699 4.37e-5 1.5275 7.5e-6 -0.43724-0.75717-1.0258-1.735-1.3101-2.2692z" fill="url(#linearGradient31)" filter="url(#filter30)" opacity=".5" style="mix-blend-mode:overlay"/>
 <path d="m8.1234 9.5584v1.3229h2.4866l-0.76376-1.3229h-1.7229zm3.2504 0 0.76376 1.3229h0.9591v-1.3229h-1.7229z" fill="url(#linearGradient19)" style="paint-order:fill markers stroke"/>
 <g transform="translate(7.92 7.92)scale(.0083)" image-rendering="optimizeSpeed">
  <path d="m984.88 348.72q-9.292-22.529-20.962-44.139a452 452 0 0 0-13.938-24.203c-21.124-34.252-46.894-66.614-77.311-97.029-99.568-99.568-219.83-149.38-360.67-149.38-140.85 0-261.05 49.811-360.61 149.38-99.569 99.572-149.38 219.78-149.38 360.61s49.811 261.11 149.38 360.67c99.568 99.568 219.78 149.32 360.61 149.32 140.84 0 261.11-49.758 360.67-149.32 54.836-54.89 94.598-116.04 119.23-183.42 20.043-54.943 30.092-113.99 30.092-177.25 0-48.515-5.889-94.598-17.72-138.25a657 657 0 0 0-4.214-14.695 498 498 0 0 0-15.18-42.302z" filter="url(#d)" opacity=".15"/>
  <path d="m984.88 316.75q-9.292-22.529-20.962-44.139a452 452 0 0 0-13.938-24.203c-21.124-34.252-46.894-66.614-77.311-97.029-99.568-99.568-219.83-149.38-360.67-149.38-140.85 0-261.05 49.811-360.61 149.38-99.569 99.572-149.38 219.78-149.38 360.61s49.811 261.11 149.38 360.67c99.568 99.568 219.78 149.32 360.61 149.32 140.84 0 261.11-49.758 360.67-149.32 54.836-54.89 94.598-116.04 119.23-183.42 20.043-54.943 30.092-113.99 30.092-177.25 0-48.515-5.889-94.598-17.72-138.25a657 657 0 0 0-4.214-14.695 498 498 0 0 0-15.18-42.302z" fill="url(#a)"/>
  <circle cx="512" cy="511.99" r="458.99" fill="#333"/>
  <path class="shp86" d="M731.1 171.44c-5.247 17.051-14.755 33.29-17.3 50.856 10.213 11.324 27.841 29.648 41.722 12.95 13.171-6.136 24.275-24.735 39.294-20.981 12.309 9.766 25.955 23.871 9.352 36.962-5.879 13.095-26.171 24.632-18.793 39.704 8.31 15.044 21.742 27.382 38.347 15.241 13.406-1.902 31.878-20.441 41.33-4.437 13.075 13.352 10.392 28.97-6.473 37.028-9.127 10.435-33.223 17.758-23.097 34.849 2.75 19.409 18.444 25.34 35.943 19.875 13.656-.079 36.855-10.061 37.704 11.351 10.983 17.786-6.255 26.752-21.292 31.517-13.468 5.942-34.633 11.15-26.498 30.397-3.116 21.089 17.728 23.041 33.6 24.626 15.677.706 34.731 4.415 28.86 24.605 4.988 20.56-20.006 17.861-33.313 21.035-17.01-.414-31.994 7.159-29.37 26.329-7.03 19.993 18.398 22.392 30.907 29.836 18.401 3.178 24.921 17.594 16.02 33.794-4.445 18.063-27.735 5.293-41.069 6.764-18.044-7.084-28.754 6.114-32.39 22.584-6.476 17.348 18.202 24.12 27.503 35.454 19.257 8.04 10.15 25.38.831 37.906-13.311 7.802-29.136-7.075-43.455-9.763-16.508-12.167-26.873 6.837-35.53 18.67-2.012 16.065 15.814 27.66 22.879 41.574 15.293 13.063-5.217 28.014-16.312 35.215-17.981-6.947-31.13-24.065-49.129-31.044-13.574 6.933-35.915 19.17-23.364 36.913 2.519 14.303 17.62 29.833 10.107 43.363-12.614 9.374-29.756 18.87-38.101-.546-11.134-9.082-17.041-31.658-33.505-28.474-16.685 4.116-32.058 13.916-24.632 33.085-1.628 13.463 11.5 36.124-6.4 41.138-16.285 9.16-30.667 2.527-34.087-15.847-7.724-11.527-8.566-36.725-27.708-31.35-19.471-2.354-29.212 11.31-28.48 29.614-3.454 13.2.178 38.168-20.711 33.455-20.022 6.015-24.217-12.961-24.928-28.716-2.237-14.525-1.812-36.256-22.475-33.363-19.566-8.455-26.893 11.118-32.526 26.062-4.727 14.955-13.264 32.338-31.223 21.465-21.158-.498-12.096-23.955-11.715-37.635 4.802-16.333 1.352-32.765-17.833-35.238-17.475-12.006-26.368 11.972-36.795 22.117-7.855 16.962-23.461 19.594-36.833 6.758-16.29-8.98 2.062-28.161 4.094-41.422 11.502-15.608 1.603-29.402-13.435-37.137-15.105-10.69-28.021 11.356-41.383 17.413-12.746 16.513-27.122 3.184-36.806-9.03-4.146-14.865 14.367-26.312 20.664-39.445 16.012-12.785.262-27.717-8.862-39.15-14.977-6.127-30.794 8.119-46.05 11.338-16.557 11.387-25.69-12.277-29.77-24.846 11.388-15.578 31.33-23.871 42.75-39.46-3.179-14.9-9.216-39.617-29.593-32.087-14.494-1.257-33.412 9.294-44.572-1.448-5.778-14.616-10.513-33.626 10.401-36.66 11.664-8.409 35.023-8.278 36.2-25.017.333-17.196-5.198-34.536-25.627-32.334-12.57-5.055-37.835 1.758-38.05-16.816-4.644-18.103 5.488-30.274 24.12-28.822 13.101-4.468 37.62 1.239 37.354-18.62 7.286-18.193-3.322-31.193-21.216-35.218-11.845-6.745-36.857-9.71-26.909-28.652-.635-20.9 18.796-20.055 34.202-16.663 14.624 1.603 35.491 7.62 38.088-13.08 13.28-16.696-3.759-28.827-16.732-38.137-13.234-8.459-27.873-21.205-12.686-35.76 5.969-20.296 26.274-5.484 39.39-1.574 14.538 8.842 31.351 9.853 38.667-8.102 16.066-13.803-4.774-28.587-11.874-41.29-14.353-11.974-12.807-27.715 3.027-37.304 12.881-13.452 26.667 9.26 38.95 14.66 12.08 15.164 27.96 9.07 39.327-3.381 14.29-11.793-3.697-29.992-6.089-44.458-12.66-16.578 3.954-27.003 18.243-33.2 15.416-.103 21.683 20.698 32.733 30.184 8.203 18.777 26.685 7.522 40.106 1.639 9.808-12.885.132-31.85.97-47.424-6.747-18.978 18.459-21.71 31.699-22.383 12.088 15.053 14.96 36.449 27.049 51.536 15.232.785 40.655 1.307 38.65-20.328 4.966-13.664-.329-34.642 12.923-42.648 15.612-1.807 35.198-1.464 32.715 19.524 5.102 13.406-1.083 35.91 14.767 41.346 16.517 4.742 34.742 3.941 37.906-16.372 8.133-10.818 8.09-36.955 26.08-32.354 18.694.19 27.838 13.143 21.614 30.768.922 13.828-10.922 36.023 8.33 40.937 15.671 11.792 30.956 4.898 39.476-11.346 9.6-9.712 18.948-33.153 34.686-18.614 5.38 4.4 17.585 6.145 15.41 15.538zm-78.338 97.95c-66.223-38.247-149.7-49.824-222.43-24.741-36.187 30.905 14.938 71.477 25.188 103.76 20.88 33.949 35.191 72.507 60.436 103.43 33.188 34.934 83.547 21.805 126.03 22.879 38.02-1.322 97.609-1.003 121.47-3.236 45.215-20.914 1.92-76.687-11.978-106.67-24.338-39.328-58.612-72.408-98.713-95.424zm-4.616 491.4c66.888-37.081 119.79-102.68 135.76-177.94-7.857-46.929-68.954-24.021-101.9-31.852-39.849.412-80.265-7.18-119.77-1.479-47.044 10.447-61.728 60.38-84.524 96.24-18.446 33.273-49.423 84.197-59.799 105.79-4.615 47.808 46.286 37.823 84.151 44.55 50.716 1.787 101.77-10.61 146.08-35.315zm-334.03-44.959c45.894 24.287 49.811-29.754 74.046-60.786 21.746-39.924 48.048-77.675 67.009-118.94 12.68-36.495-7.67-71.273-28.377-99.901-25.482-39.364-49.257-79.931-75.733-118.6-41.061-29.058-68.497 35.269-87.484 62.841-59.759 107.5-38.288 250.32 50.537 335.38z" fill="url(#e)"/>
 </g>
</svg>
