<svg width="64" height="64" version="1.1" viewBox="0 0 16.933 16.933" xmlns="http://www.w3.org/2000/svg" xmlns:xlink="http://www.w3.org/1999/xlink">
 <defs>
  <linearGradient id="linearGradient21">
   <stop stop-color="#0e93ff" offset="0"/>
   <stop stop-color="#3aaafe" offset="1"/>
  </linearGradient>
  <filter id="filter9" x="-.012" y="-.012" width="1.024" height="1.024" color-interpolation-filters="sRGB">
   <feGaussianBlur stdDeviation="0.074082"/>
  </filter>
  <linearGradient id="linearGradient3" x1="8.4665" x2="8.4665" y1="1.0583" y2="15.875" gradientUnits="userSpaceOnUse">
   <stop stop-color="#ffffff" offset="0"/>
   <stop stop-color="#ececec" offset="1"/>
  </linearGradient>
  <linearGradient id="linearGradient22" x1="8.4555" x2="8.4555" y1="3.6671" y2="9.4878" gradientUnits="userSpaceOnUse" xlink:href="#linearGradient21"/>
  <filter id="filter24" x="-.1528" y="-.013541" width="1.3056" height="1.0271" color-interpolation-filters="sRGB">
   <feGaussianBlur stdDeviation="0.015409609"/>
  </filter>
  <filter id="filter25" x="-.27717" y="-.014191" width="1.5543" height="1.0284" color-interpolation-filters="sRGB">
   <feGaussianBlur stdDeviation="0.033479856"/>
  </filter>
  <linearGradient id="linearGradient25" x1="8.4555" x2="8.4555" y1="3.6671" y2="9.4878" gradientTransform="translate(.20946 .21066)" gradientUnits="userSpaceOnUse" xlink:href="#linearGradient21"/>
  <filter id="filter26" x="-.7203" y="-.081852" width="2.4406" height="1.1637" color-interpolation-filters="sRGB">
   <feGaussianBlur stdDeviation="0.19851628"/>
  </filter>
 </defs>
 <path d="m5.3603 1.0584c-1.5298 0-2.5777 0.45621-3.2599 1.1998-0.67868 0.73981-1.0421 1.8001-1.0421 3.0007v6.4154c0 1.2006 0.36337 2.2609 1.0421 3.0007 0.68219 0.74355 1.7301 1.1998 3.2599 1.1998h6.2306c1.5298 0 2.5777-0.45622 3.2599-1.1998 0.67868-0.73981 1.024-1.7026 1.024-3.0007v-6.1745c0-1.5703-0.34527-2.5019-1.024-3.2417-0.68219-0.74355-1.7301-1.1998-3.2599-1.1998h-4.8457z" fill="url(#linearGradient3)"/>
 <rect x="8.3342" y="3.8777" width=".66145" height="5.8207" rx=".33072" ry=".33072" fill="url(#linearGradient25)" filter="url(#filter26)" opacity=".35" style="paint-order:fill markers stroke"/>
 <path d="m5.3603 1.0583c-1.5298 0-2.5775 0.45637-3.2597 1.1999-0.67868 0.73981-1.0423 1.8002-1.0423 3.0008v6.415c0 1.2006 0.36361 2.2609 1.0423 3.0008 0.68219 0.74355 1.7299 1.1999 3.2597 1.1999h6.2305c1.5298 0 2.5775-0.45637 3.2597-1.1999 0.67868-0.73981 1.0242-1.7027 1.0242-3.0008v-6.1742c0-1.5703-0.34552-2.5018-1.0242-3.2416-0.68219-0.74355-1.7299-1.1999-3.2597-1.1999h-4.8456zm-0.00103 0.26406h6.2326c1.4772 0 2.437 0.43133 3.0644 1.1152 0.63411 0.69126 0.95341 1.5307 0.95341 3.0623v6.1742c0 1.2512-0.32181 2.1335-0.95341 2.822-0.6274 0.68381-1.5871 1.1136-3.0644 1.1136h-6.2326c-1.4772 0-2.437-0.42978-3.0644-1.1136-0.62537-0.68172-0.97253-1.6747-0.97253-2.822v-6.4145c0-1.1472 0.34717-2.1403 0.97253-2.822 0.6274-0.68381 1.5871-1.1152 3.0644-1.1152z" fill="#ffffff" filter="url(#filter9)"/>
 <path d="m4.1924 4.3666c-0.072626 0-0.13126 0.05863-0.13126 0.13126v0.26716c0 0.072626 0.05863 0.13074 0.13126 0.13074h1.1916v3.7041c0 0.072626 0.058969 0.13126 0.13177 0.13126h0.39842c0.072803 0 0.13126-0.05863 0.13126-0.13126v-3.7041h1.1922c0.072626 0 0.13074-0.058113 0.13074-0.13074v-0.26716c0-0.072626-0.058113-0.13126-0.13074-0.13126h-3.0452z" fill="#000000" style="paint-order:fill markers stroke"/>
 <rect x="8.1248" y="3.6671" width=".66145" height="5.8207" rx=".33072" ry=".33072" fill="url(#linearGradient22)" style="paint-order:fill markers stroke"/>
 <path d="m8.4551 3.746c-0.14062 0-0.25011 0.11156-0.25011 0.25218v5.1582c0 0.14062 0.10949 0.25166 0.25011 0.25166s0.25166-0.11104 0.25166-0.25166v-5.1582c0-0.14062-0.11104-0.25218-0.25166-0.25218z" fill="none" filter="url(#filter24)" opacity=".15" stop-color="#000000" stroke="#ffffff" stroke-linecap="round" stroke-linejoin="round" stroke-width=".079373" style="mix-blend-mode:overlay;paint-order:fill markers stroke"/>
 <path d="m8.4551 3.746c-0.14062 0-0.25011 0.11156-0.25011 0.25218v5.1582c0 0.14062 0.10949 0.25166 0.25011 0.25166 0.01354 0 0.026871-0.0011143 0.03979-0.0031006-0.12101-0.018642-0.21032-0.12148-0.21032-0.24856v-5.1582c0-0.12708 0.089313-0.23035 0.21032-0.24908-0.012919-0.0019949-0.02625-0.0031006-0.03979-0.0031006z" fill="#ffffff" filter="url(#filter25)" opacity=".5" stop-color="#000000" style="mix-blend-mode:overlay;paint-order:fill markers stroke"/>
</svg>
