<svg width="64" height="64" version="1.1" viewBox="0 0 16.933 16.933" xmlns="http://www.w3.org/2000/svg" xmlns:xlink="http://www.w3.org/1999/xlink">
 <defs>
  <filter id="filter9" x="-.012" y="-.012" width="1.024" height="1.024" color-interpolation-filters="sRGB">
   <feGaussianBlur stdDeviation="0.074082"/>
  </filter>
  <linearGradient id="linearGradient3" x1="8.4665" x2="8.4665" y1="1.0583" y2="15.875" gradientUnits="userSpaceOnUse">
   <stop stop-color="#ffffff" offset="0"/>
   <stop stop-color="#ececec" offset="1"/>
  </linearGradient>
  <filter id="filter8" x="-.048" y="-.048" width="1.096" height="1.096" color-interpolation-filters="sRGB">
   <feGaussianBlur stdDeviation="0.010583125"/>
  </filter>
  <linearGradient id="linearGradient37" x1="8.4665" x2="8.4665" y1="4.7624" y2="6.0853" gradientUnits="userSpaceOnUse">
   <stop stop-color="#ffd52e" offset="0"/>
   <stop stop-color="#ffffff" stop-opacity="0" offset="1"/>
  </linearGradient>
 </defs>
 <path d="m5.3603 1.0584c-1.5298 0-2.5777 0.45621-3.2599 1.1998-0.67868 0.73981-1.0421 1.8001-1.0421 3.0007v6.4154c0 1.2006 0.36337 2.2609 1.0421 3.0007 0.68219 0.74355 1.7301 1.1998 3.2599 1.1998h6.2306c1.5298 0 2.5777-0.45622 3.2599-1.1998 0.67868-0.73981 1.024-1.7026 1.024-3.0007v-6.1745c0-1.5703-0.34527-2.5019-1.024-3.2417-0.68219-0.74355-1.7301-1.1998-3.2599-1.1998h-4.8457z" fill="url(#linearGradient3)"/>
 <path d="m5.3603 1.0583c-1.5298 0-2.5775 0.45631-3.2597 1.1999-0.58347 0.63603-0.93426 1.5089-1.0211 2.5042h14.766c-0.096013-1.1396-0.4297-1.8883-0.99475-2.5042-0.68219-0.74355-1.7304-1.1999-3.2602-1.1999h-4.8456-1.3849z" fill="#ffd52e" style="paint-order:fill markers stroke"/>
 <path d="m5.3603 1.0583c-1.5298 0-2.5775 0.45637-3.2597 1.1999-0.67868 0.73981-1.0423 1.8002-1.0423 3.0008v6.415c0 1.2006 0.36361 2.2609 1.0423 3.0008 0.68219 0.74355 1.7299 1.1999 3.2597 1.1999h6.2305c1.5298 0 2.5775-0.45637 3.2597-1.1999 0.67868-0.73981 1.0242-1.7027 1.0242-3.0008v-6.1742c0-1.5703-0.34552-2.5018-1.0242-3.2416-0.68219-0.74355-1.7299-1.1999-3.2597-1.1999h-4.8456zm-0.00103 0.26406h6.2326c1.4772 0 2.437 0.43133 3.0644 1.1152 0.63411 0.69126 0.95341 1.5307 0.95341 3.0623v6.1742c0 1.2512-0.32181 2.1335-0.95341 2.822-0.6274 0.68381-1.5871 1.1136-3.0644 1.1136h-6.2326c-1.4772 0-2.437-0.42978-3.0644-1.1136-0.62537-0.68172-0.97253-1.6747-0.97253-2.822v-6.4145c0-1.1472 0.34717-2.1403 0.97253-2.822 0.6274-0.68381 1.5871-1.1152 3.0644-1.1152z" fill="#ffffff" filter="url(#filter9)" style="mix-blend-mode:overlay"/>
 <rect x="2.9104" y="8.3342" width="11.112" height=".26458" rx=".13229" ry=".13229" fill="#c1c1c1" style="paint-order:fill markers stroke"/>
 <path d="m3.0426 8.3342c-0.073288 0-0.13229 0.059001-0.13229 0.13229 0 0.073288 0.059001 0.13229 0.13229 0.13229h10.848c0.073289 0 0.13229-0.059001 0.13229-0.13229 0-0.073288-0.058999-0.13229-0.13229-0.13229h-10.848zm-0.0051675 0.080097c0.0018472-1.689e-4 0.0037663 0 0.0056843 0h10.848c0.03069 0 0.052709 0.022021 0.052709 0.052709s-0.022029 0.052709-0.052709 0.052709h-10.848c-0.030688 0-0.052709-0.022021-0.052709-0.052709 0-0.02877 0.019316-0.050174 0.047025-0.052709z" fill="#b8b8b8" stop-color="#000000" stroke-linecap="round" stroke-linejoin="round" style="paint-order:fill markers stroke"/>
 <rect x="2.9104" y="12.038" width="11.112" height=".26458" rx=".13229" ry=".13229" fill="#c1c1c1" style="paint-order:fill markers stroke"/>
 <path d="m3.0426 12.038c-0.073288 0-0.13229 0.059-0.13229 0.13229 0 0.07329 0.059001 0.13229 0.13229 0.13229h10.848c0.07329 0 0.13229-0.059 0.13229-0.13229 0-0.07329-0.059-0.13229-0.13229-0.13229zm-0.00517 0.0801c0.00185-1.69e-4 0.00377 0 0.00568 0h10.848c0.03069 0 0.05271 0.02202 0.05271 0.05271s-0.02203 0.05271-0.05271 0.05271h-10.848c-0.030688 0-0.052709-0.02202-0.052709-0.05271 0-0.02877 0.019316-0.05017 0.047025-0.05271z" fill="#b8b8b8" stop-color="#000000" stroke-linecap="round" stroke-linejoin="round" style="paint-order:fill markers stroke"/>
 <g>
  <circle cx="1.9862" cy="5.2254" r=".26458" fill="#ffffff" filter="url(#filter8)" opacity=".35" style="paint-order:fill markers stroke"/>
  <circle cx="1.9862" cy="5.2254" r=".19843" fill="#c2bda8" style="paint-order:fill markers stroke"/>
  <path d="m1.9864 5.027a0.19843 0.19843 0 0 0-0.19843 0.19843 0.19843 0.19843 0 0 0 0.19843 0.19843 0.19843 0.19843 0 0 0 0.19843-0.19843 0.19843 0.19843 0 0 0-0.19843-0.19843zm0 0.078547c0.066695 0 0.11885 0.052158 0.11885 0.11885 0 0.066695-0.052158 0.11937-0.11885 0.11937-0.066695 0-0.11937-0.052675-0.11937-0.11937 0-0.066695 0.052675-0.11885 0.11937-0.11885z" fill="#b7b096" stop-color="#000000" stroke-linecap="round" stroke-linejoin="round" style="paint-order:fill markers stroke"/>
 </g>
 <g transform="translate(.92595)">
  <circle cx="1.9862" cy="5.2254" r=".26458" fill="#ffffff" filter="url(#filter8)" opacity=".35" style="paint-order:fill markers stroke"/>
  <circle cx="1.9862" cy="5.2254" r=".19843" fill="#c2bda8" style="paint-order:fill markers stroke"/>
  <path d="m1.9864 5.027a0.19843 0.19843 0 0 0-0.19843 0.19843 0.19843 0.19843 0 0 0 0.19843 0.19843 0.19843 0.19843 0 0 0 0.19843-0.19843 0.19843 0.19843 0 0 0-0.19843-0.19843zm0 0.078547c0.066695 0 0.11885 0.052158 0.11885 0.11885 0 0.066695-0.052158 0.11937-0.11885 0.11937-0.066695 0-0.11937-0.052675-0.11937-0.11937 0-0.066695 0.052675-0.11885 0.11937-0.11885z" fill="#b7b096" stop-color="#000000" stroke-linecap="round" stroke-linejoin="round" style="paint-order:fill markers stroke"/>
 </g>
 <g transform="translate(1.8519)">
  <circle cx="1.9862" cy="5.2254" r=".26458" fill="#ffffff" filter="url(#filter8)" opacity=".35" style="paint-order:fill markers stroke"/>
  <circle cx="1.9862" cy="5.2254" r=".19843" fill="#c2bda8" style="paint-order:fill markers stroke"/>
  <path d="m1.9864 5.027a0.19843 0.19843 0 0 0-0.19843 0.19843 0.19843 0.19843 0 0 0 0.19843 0.19843 0.19843 0.19843 0 0 0 0.19843-0.19843 0.19843 0.19843 0 0 0-0.19843-0.19843zm0 0.078547c0.066695 0 0.11885 0.052158 0.11885 0.11885 0 0.066695-0.052158 0.11937-0.11885 0.11937-0.066695 0-0.11937-0.052675-0.11937-0.11937 0-0.066695 0.052675-0.11885 0.11937-0.11885z" fill="#b7b096" stop-color="#000000" stroke-linecap="round" stroke-linejoin="round" style="paint-order:fill markers stroke"/>
 </g>
 <g transform="translate(2.7778)">
  <circle cx="1.9862" cy="5.2254" r=".26458" fill="#ffffff" filter="url(#filter8)" opacity=".35" style="paint-order:fill markers stroke"/>
  <circle cx="1.9862" cy="5.2254" r=".19843" fill="#c2bda8" style="paint-order:fill markers stroke"/>
  <path d="m1.9864 5.027a0.19843 0.19843 0 0 0-0.19843 0.19843 0.19843 0.19843 0 0 0 0.19843 0.19843 0.19843 0.19843 0 0 0 0.19843-0.19843 0.19843 0.19843 0 0 0-0.19843-0.19843zm0 0.078547c0.066695 0 0.11885 0.052158 0.11885 0.11885 0 0.066695-0.052158 0.11937-0.11885 0.11937-0.066695 0-0.11937-0.052675-0.11937-0.11937 0-0.066695 0.052675-0.11885 0.11937-0.11885z" fill="#b7b096" stop-color="#000000" stroke-linecap="round" stroke-linejoin="round" style="paint-order:fill markers stroke"/>
 </g>
 <g transform="translate(3.7038)">
  <circle cx="1.9862" cy="5.2254" r=".26458" fill="#ffffff" filter="url(#filter8)" opacity=".35" style="paint-order:fill markers stroke"/>
  <circle cx="1.9862" cy="5.2254" r=".19843" fill="#c2bda8" style="paint-order:fill markers stroke"/>
  <path d="m1.9864 5.027a0.19843 0.19843 0 0 0-0.19843 0.19843 0.19843 0.19843 0 0 0 0.19843 0.19843 0.19843 0.19843 0 0 0 0.19843-0.19843 0.19843 0.19843 0 0 0-0.19843-0.19843zm0 0.078547c0.066695 0 0.11885 0.052158 0.11885 0.11885 0 0.066695-0.052158 0.11937-0.11885 0.11937-0.066695 0-0.11937-0.052675-0.11937-0.11937 0-0.066695 0.052675-0.11885 0.11937-0.11885z" fill="#b7b096" stop-color="#000000" stroke-linecap="round" stroke-linejoin="round" style="paint-order:fill markers stroke"/>
 </g>
 <g transform="translate(4.6297)">
  <circle cx="1.9862" cy="5.2254" r=".26458" fill="#ffffff" filter="url(#filter8)" opacity=".35" style="paint-order:fill markers stroke"/>
  <circle cx="1.9862" cy="5.2254" r=".19843" fill="#c2bda8" style="paint-order:fill markers stroke"/>
  <path d="m1.9864 5.027a0.19843 0.19843 0 0 0-0.19843 0.19843 0.19843 0.19843 0 0 0 0.19843 0.19843 0.19843 0.19843 0 0 0 0.19843-0.19843 0.19843 0.19843 0 0 0-0.19843-0.19843zm0 0.078547c0.066695 0 0.11885 0.052158 0.11885 0.11885 0 0.066695-0.052158 0.11937-0.11885 0.11937-0.066695 0-0.11937-0.052675-0.11937-0.11937 0-0.066695 0.052675-0.11885 0.11937-0.11885z" fill="#b7b096" stop-color="#000000" stroke-linecap="round" stroke-linejoin="round" style="paint-order:fill markers stroke"/>
 </g>
 <g transform="translate(5.5557)">
  <circle cx="1.9862" cy="5.2254" r=".26458" fill="#ffffff" filter="url(#filter8)" opacity=".35" style="paint-order:fill markers stroke"/>
  <circle cx="1.9862" cy="5.2254" r=".19843" fill="#c2bda8" style="paint-order:fill markers stroke"/>
  <path d="m1.9864 5.027a0.19843 0.19843 0 0 0-0.19843 0.19843 0.19843 0.19843 0 0 0 0.19843 0.19843 0.19843 0.19843 0 0 0 0.19843-0.19843 0.19843 0.19843 0 0 0-0.19843-0.19843zm0 0.078547c0.066695 0 0.11885 0.052158 0.11885 0.11885 0 0.066695-0.052158 0.11937-0.11885 0.11937-0.066695 0-0.11937-0.052675-0.11937-0.11937 0-0.066695 0.052675-0.11885 0.11937-0.11885z" fill="#b7b096" stop-color="#000000" stroke-linecap="round" stroke-linejoin="round" style="paint-order:fill markers stroke"/>
 </g>
 <g transform="translate(6.4816)">
  <circle cx="1.9862" cy="5.2254" r=".26458" fill="#ffffff" filter="url(#filter8)" opacity=".35" style="paint-order:fill markers stroke"/>
  <circle cx="1.9862" cy="5.2254" r=".19843" fill="#c2bda8" style="paint-order:fill markers stroke"/>
  <path d="m1.9864 5.027a0.19843 0.19843 0 0 0-0.19843 0.19843 0.19843 0.19843 0 0 0 0.19843 0.19843 0.19843 0.19843 0 0 0 0.19843-0.19843 0.19843 0.19843 0 0 0-0.19843-0.19843zm0 0.078547c0.066695 0 0.11885 0.052158 0.11885 0.11885 0 0.066695-0.052158 0.11937-0.11885 0.11937-0.066695 0-0.11937-0.052675-0.11937-0.11937 0-0.066695 0.052675-0.11885 0.11937-0.11885z" fill="#b7b096" stop-color="#000000" stroke-linecap="round" stroke-linejoin="round" style="paint-order:fill markers stroke"/>
 </g>
 <g transform="translate(7.4076)">
  <circle cx="1.9862" cy="5.2254" r=".26458" fill="#ffffff" filter="url(#filter8)" opacity=".35" style="paint-order:fill markers stroke"/>
  <circle cx="1.9862" cy="5.2254" r=".19843" fill="#c2bda8" style="paint-order:fill markers stroke"/>
  <path d="m1.9864 5.027a0.19843 0.19843 0 0 0-0.19843 0.19843 0.19843 0.19843 0 0 0 0.19843 0.19843 0.19843 0.19843 0 0 0 0.19843-0.19843 0.19843 0.19843 0 0 0-0.19843-0.19843zm0 0.078547c0.066695 0 0.11885 0.052158 0.11885 0.11885 0 0.066695-0.052158 0.11937-0.11885 0.11937-0.066695 0-0.11937-0.052675-0.11937-0.11937 0-0.066695 0.052675-0.11885 0.11937-0.11885z" fill="#b7b096" stop-color="#000000" stroke-linecap="round" stroke-linejoin="round" style="paint-order:fill markers stroke"/>
 </g>
 <g transform="translate(8.3335)">
  <circle cx="1.9862" cy="5.2254" r=".26458" fill="#ffffff" filter="url(#filter8)" opacity=".35" style="paint-order:fill markers stroke"/>
  <circle cx="1.9862" cy="5.2254" r=".19843" fill="#c2bda8" style="paint-order:fill markers stroke"/>
  <path d="m1.9864 5.027a0.19843 0.19843 0 0 0-0.19843 0.19843 0.19843 0.19843 0 0 0 0.19843 0.19843 0.19843 0.19843 0 0 0 0.19843-0.19843 0.19843 0.19843 0 0 0-0.19843-0.19843zm0 0.078547c0.066695 0 0.11885 0.052158 0.11885 0.11885 0 0.066695-0.052158 0.11937-0.11885 0.11937-0.066695 0-0.11937-0.052675-0.11937-0.11937 0-0.066695 0.052675-0.11885 0.11937-0.11885z" fill="#b7b096" stop-color="#000000" stroke-linecap="round" stroke-linejoin="round" style="paint-order:fill markers stroke"/>
 </g>
 <g transform="translate(9.2595)">
  <circle cx="1.9862" cy="5.2254" r=".26458" fill="#ffffff" filter="url(#filter8)" opacity=".35" style="paint-order:fill markers stroke"/>
  <circle cx="1.9862" cy="5.2254" r=".19843" fill="#c2bda8" style="paint-order:fill markers stroke"/>
  <path d="m1.9864 5.027a0.19843 0.19843 0 0 0-0.19843 0.19843 0.19843 0.19843 0 0 0 0.19843 0.19843 0.19843 0.19843 0 0 0 0.19843-0.19843 0.19843 0.19843 0 0 0-0.19843-0.19843zm0 0.078547c0.066695 0 0.11885 0.052158 0.11885 0.11885 0 0.066695-0.052158 0.11937-0.11885 0.11937-0.066695 0-0.11937-0.052675-0.11937-0.11937 0-0.066695 0.052675-0.11885 0.11937-0.11885z" fill="#b7b096" stop-color="#000000" stroke-linecap="round" stroke-linejoin="round" style="paint-order:fill markers stroke"/>
 </g>
 <g transform="translate(10.185)">
  <circle cx="1.9862" cy="5.2254" r=".26458" fill="#ffffff" filter="url(#filter8)" opacity=".35" style="paint-order:fill markers stroke"/>
  <circle cx="1.9862" cy="5.2254" r=".19843" fill="#c2bda8" style="paint-order:fill markers stroke"/>
  <path d="m1.9864 5.027a0.19843 0.19843 0 0 0-0.19843 0.19843 0.19843 0.19843 0 0 0 0.19843 0.19843 0.19843 0.19843 0 0 0 0.19843-0.19843 0.19843 0.19843 0 0 0-0.19843-0.19843zm0 0.078547c0.066695 0 0.11885 0.052158 0.11885 0.11885 0 0.066695-0.052158 0.11937-0.11885 0.11937-0.066695 0-0.11937-0.052675-0.11937-0.11937 0-0.066695 0.052675-0.11885 0.11937-0.11885z" fill="#b7b096" stop-color="#000000" stroke-linecap="round" stroke-linejoin="round" style="paint-order:fill markers stroke"/>
 </g>
 <g transform="translate(11.111)">
  <circle cx="1.9862" cy="5.2254" r=".26458" fill="#ffffff" filter="url(#filter8)" opacity=".35" style="paint-order:fill markers stroke"/>
  <circle cx="1.9862" cy="5.2254" r=".19843" fill="#c2bda8" style="paint-order:fill markers stroke"/>
  <path d="m1.9864 5.027a0.19843 0.19843 0 0 0-0.19843 0.19843 0.19843 0.19843 0 0 0 0.19843 0.19843 0.19843 0.19843 0 0 0 0.19843-0.19843 0.19843 0.19843 0 0 0-0.19843-0.19843zm0 0.078547c0.066695 0 0.11885 0.052158 0.11885 0.11885 0 0.066695-0.052158 0.11937-0.11885 0.11937-0.066695 0-0.11937-0.052675-0.11937-0.11937 0-0.066695 0.052675-0.11885 0.11937-0.11885z" fill="#b7b096" stop-color="#000000" stroke-linecap="round" stroke-linejoin="round" style="paint-order:fill markers stroke"/>
 </g>
 <g transform="translate(12.037)">
  <circle cx="1.9862" cy="5.2254" r=".26458" fill="#ffffff" filter="url(#filter8)" opacity=".35" style="paint-order:fill markers stroke"/>
  <circle cx="1.9862" cy="5.2254" r=".19843" fill="#c2bda8" style="paint-order:fill markers stroke"/>
  <path d="m1.9864 5.027a0.19843 0.19843 0 0 0-0.19843 0.19843 0.19843 0.19843 0 0 0 0.19843 0.19843 0.19843 0.19843 0 0 0 0.19843-0.19843 0.19843 0.19843 0 0 0-0.19843-0.19843zm0 0.078547c0.066695 0 0.11885 0.052158 0.11885 0.11885 0 0.066695-0.052158 0.11937-0.11885 0.11937-0.066695 0-0.11937-0.052675-0.11937-0.11937 0-0.066695 0.052675-0.11885 0.11937-0.11885z" fill="#b7b096" stop-color="#000000" stroke-linecap="round" stroke-linejoin="round" style="paint-order:fill markers stroke"/>
 </g>
 <g transform="translate(12.963)">
  <circle cx="1.9862" cy="5.2254" r=".26458" fill="#ffffff" filter="url(#filter8)" opacity=".35" style="paint-order:fill markers stroke"/>
  <circle cx="1.9862" cy="5.2254" r=".19843" fill="#c2bda8" style="paint-order:fill markers stroke"/>
  <path d="m1.9864 5.027a0.19843 0.19843 0 0 0-0.19843 0.19843 0.19843 0.19843 0 0 0 0.19843 0.19843 0.19843 0.19843 0 0 0 0.19843-0.19843 0.19843 0.19843 0 0 0-0.19843-0.19843zm0 0.078547c0.066695 0 0.11885 0.052158 0.11885 0.11885 0 0.066695-0.052158 0.11937-0.11885 0.11937-0.066695 0-0.11937-0.052675-0.11937-0.11937 0-0.066695 0.052675-0.11885 0.11937-0.11885z" fill="#b7b096" stop-color="#000000" stroke-linecap="round" stroke-linejoin="round" style="paint-order:fill markers stroke"/>
 </g>
 <rect x="1.3229" y="4.7624" width="14.287" height="1.3229" fill="url(#linearGradient37)" opacity=".35" style="paint-order:fill markers stroke"/>
</svg>
