<svg width="64" height="64" version="1.1" viewBox="0 0 16.933 16.933" xmlns="http://www.w3.org/2000/svg" xmlns:xlink="http://www.w3.org/1999/xlink">
 <defs>
  <filter id="filter19" x="-.050919" y="-.045396" width="1.1018" height="1.0908" color-interpolation-filters="sRGB">
   <feGaussianBlur stdDeviation="0.057593884"/>
  </filter>
  <linearGradient id="linearGradient14" x1="8.5466" x2="8.5466" y1="8.2019" y2="8.7311" gradientUnits="userSpaceOnUse">
   <stop stop-color="#ffffff" offset="0"/>
   <stop stop-color="#ffffff" stop-opacity="0" offset="1"/>
  </linearGradient>
  <filter id="filter14" x="-.028" y="-.168" width="1.056" height="1.336" color-interpolation-filters="sRGB">
   <feGaussianBlur stdDeviation="0.037040941"/>
  </filter>
  <linearGradient id="linearGradient16" x1="5.2071" x2="5.2071" y1="4.1086" y2="7.5516" gradientUnits="userSpaceOnUse">
   <stop stop-color="#f9f9f9" offset="0"/>
   <stop stop-color="#c6c6c6" offset="1"/>
  </linearGradient>
  <filter id="filter8" x="-.012" y="-.012" width="1.024" height="1.024" color-interpolation-filters="sRGB">
   <feGaussianBlur stdDeviation="0.074081873"/>
  </filter>
  <linearGradient id="linearGradient7" x1="2.5981" x2="10.583" y1="2.8356" y2="11.312" gradientUnits="userSpaceOnUse" xlink:href="#linearGradient6"/>
  <linearGradient id="linearGradient6">
   <stop stop-color="#ffffff" offset="0"/>
   <stop stop-color="#ffffff" stop-opacity="0" offset="1"/>
  </linearGradient>
  <linearGradient id="linearGradient8" x1="15.081" x2="12.7" y1="14.816" y2="12.171" gradientUnits="userSpaceOnUse" xlink:href="#linearGradient6"/>
  <linearGradient id="linearGradient3" x1="8.4665" x2="8.4665" y1="1.0583" y2="15.875" gradientUnits="userSpaceOnUse">
   <stop stop-color="#b63232" offset="0"/>
   <stop stop-color="#922929" offset="1"/>
  </linearGradient>
 </defs>
 <path d="m5.3604 1.0584c-1.5298 0-2.5777 0.45621-3.2599 1.1998-0.67867 0.73981-1.0421 1.8001-1.0421 3.0006v6.4155c0 1.2006 0.36337 2.2609 1.0421 3.0006 0.68219 0.74354 1.7301 1.1998 3.2599 1.1998h6.2306c1.5298 0 2.5777-0.45621 3.2599-1.1998 0.67867-0.73981 1.024-1.7026 1.024-3.0006v-6.1745c0-1.5703-0.34528-2.5019-1.024-3.2416-0.68219-0.74354-1.7301-1.1998-3.2599-1.1998h-4.8457z" fill="url(#linearGradient3)"/>
 <g filter="url(#filter8)" opacity=".5">
  <path d="m5.3603 1.0583c-1.5298 0-2.5775 0.45637-3.2597 1.1999-0.67868 0.73981-1.0423 1.8002-1.0423 3.0008v6.415c0 1.2006 0.36361 2.2609 1.0423 3.0008 0.68219 0.74355 1.7299 1.1999 3.2597 1.1999h6.2305c1.5298 0 2.5775-0.45637 3.2597-1.1999 0.67868-0.73981 1.0242-1.7027 1.0242-3.0008v-6.1742c0-1.5703-0.34552-2.5018-1.0242-3.2416-0.68219-0.74355-1.7299-1.1999-3.2597-1.1999h-4.8456zm-0.00103 0.26406h6.2326c1.4772 0 2.437 0.43133 3.0644 1.1152 0.63411 0.69126 0.95341 1.5307 0.95341 3.0623v6.1742c0 1.2512-0.32181 2.1335-0.95341 2.822-0.6274 0.68381-1.5871 1.1136-3.0644 1.1136h-6.2326c-1.4772 0-2.437-0.42978-3.0644-1.1136-0.62537-0.68172-0.97253-1.6747-0.97253-2.822v-6.4145c0-1.1472 0.34717-2.1403 0.97253-2.822 0.6274-0.68381 1.5871-1.1152 3.0644-1.1152z" fill="url(#linearGradient7)"/>
  <path d="m5.3603 1.0583c-1.5298 0-2.5775 0.45637-3.2597 1.1999-0.67868 0.73981-1.0423 1.8002-1.0423 3.0008v6.415c0 1.2006 0.36361 2.2609 1.0423 3.0008 0.68219 0.74355 1.7299 1.1999 3.2597 1.1999h6.2305c1.5298 0 2.5775-0.45637 3.2597-1.1999 0.67868-0.73981 1.0242-1.7027 1.0242-3.0008v-6.1742c0-1.5703-0.34552-2.5018-1.0242-3.2416-0.68219-0.74355-1.7299-1.1999-3.2597-1.1999h-4.8456zm-0.00103 0.26406h6.2326c1.4772 0 2.437 0.43133 3.0644 1.1152 0.63411 0.69126 0.95341 1.5307 0.95341 3.0623v6.1742c0 1.2512-0.32181 2.1335-0.95341 2.822-0.6274 0.68381-1.5871 1.1136-3.0644 1.1136h-6.2326c-1.4772 0-2.437-0.42978-3.0644-1.1136-0.62537-0.68172-0.97253-1.6747-0.97253-2.822v-6.4145c0-1.1472 0.34717-2.1403 0.97253-2.822 0.6274-0.68381 1.5871-1.1152 3.0644-1.1152z" fill="url(#linearGradient8)" stroke-width="1.0001"/>
 </g>
 <path d="m3.9501 4.1087a0.10584 0.10584 0 0 0-0.10025 0.10438v0.44699a0.10584 0.10584 0 0 0 0.056326 0.094049l2.0179 1.0779-2.0179 1.0779a0.10584 0.10584 0 0 0-0.056326 0.094049v0.44338a0.10584 0.10584 0 0 0 0.15606 0.091466l2.5037-1.3709a0.10584 0.10584 0 0 0 0.054776-0.091982v-0.49402a0.10584 0.10584 0 0 0-0.054776-0.093532l-2.5037-1.3673a0.10584 0.10584 0 0 0-0.05581-0.012402z" fill="url(#linearGradient16)" stop-color="#000000" stroke-linecap="round" stroke-linejoin="round" style="paint-order:stroke markers fill"/>
 <path d="m7.1159 8.2019h2.8613c0.086871 0 0.15681 0.069936 0.15681 0.15681v0.21554c0 0.086871-0.06994 0.15681-0.15681 0.15681h-2.8613c-0.086871 0-0.15681-0.069936-0.15681-0.15681v-0.21554c0-0.086871 0.069936-0.15681 0.15681-0.15681z" fill="#df9090"/>
 <path d="m7.1157 8.2019c-0.086871 0-0.15658 0.069706-0.15658 0.15658v0.216c0 0.086871 0.069706 0.15658 0.15658 0.15658h2.8613c0.086868 0 0.15709-0.069706 0.15709-0.15658v-0.216c0-0.086871-0.07022-0.15658-0.15709-0.15658zm-0.0062 0.13229c0.00173-2.912e-4 0.0037 0 0.00568 0h2.8613c0.015871 0 0.025321 0.00945 0.025321 0.025321v0.21445c0 0.015871-0.00945 0.025838-0.025321 0.025838h-2.8613c-0.015871 0-0.023254-0.00997-0.023254-0.025838v-0.21445c0-0.013887 0.00549-0.023282 0.01757-0.025321z" fill="url(#linearGradient14)" filter="url(#filter14)" opacity=".5" stop-color="#000000" stroke-linecap="round" stroke-linejoin="round"/>
 <path d="m3.9501 4.1087a0.10584 0.10584 0 0 0-0.10025 0.10438v0.44699a0.10584 0.10584 0 0 0 0.056326 0.094049l2.0179 1.0779-2.0179 1.0779a0.10584 0.10584 0 0 0-0.056326 0.094049v0.44338a0.10584 0.10584 0 0 0 0.15606 0.091466l2.5037-1.3709a0.10584 0.10584 0 0 0 0.054776-0.091982v-0.49402a0.10584 0.10584 0 0 0-0.054776-0.093532l-2.5037-1.3673a0.10584 0.10584 0 0 0-0.05581-0.012402zm-0.00672 0.12764 0.0031 0.00207h-0.0031zm0.039273 0.021704 2.4489 1.3394v0.46301l-2.4489 1.342v-0.38291l2.0035-1.0702a0.1323 0.1323 0 0 0 0-0.23461l-2.0035-1.0702v-0.38653z" fill="#ffffff" opacity=".35" stop-color="#000000" stroke-linecap="round" stroke-linejoin="round"/>
 <path d="m3.9501 4.1087a0.10584 0.10584 0 0 0-0.10025 0.10438v0.15038a0.10584 0.10584 0 0 1 0.10025-0.10438 0.10584 0.10584 0 0 1 0.05581 0.012402l2.5037 1.3673a0.10584 0.10584 0 0 1 0.054776 0.091982v-0.14883a0.10584 0.10584 0 0 0-0.054776-0.093532l-2.5037-1.3673a0.10584 0.10584 0 0 0-0.05581-0.012402zm1.8334 1.7988-1.8774 1.0025a0.10584 0.10584 0 0 0-0.056326 0.094049v0.14934a0.10584 0.10584 0 0 1 0.056326-0.093016l2.0179-1.0779-0.14056-0.074929z" fill="#ffffff" filter="url(#filter19)" stop-color="#000000" stroke-linecap="round" stroke-linejoin="round" style="paint-order:stroke markers fill"/>
</svg>
