<svg width="64" height="64" version="1.1" viewBox="0 0 16.933 16.933" xmlns="http://www.w3.org/2000/svg" xmlns:xlink="http://www.w3.org/1999/xlink">
 <defs>
  <filter id="filter8" x="-.012" y="-.012" width="1.024" height="1.024" color-interpolation-filters="sRGB">
   <feGaussianBlur stdDeviation="0.074081873"/>
  </filter>
  <linearGradient id="linearGradient7" x1="2.5981" x2="10.583" y1="2.8356" y2="11.312" gradientUnits="userSpaceOnUse" xlink:href="#linearGradient6"/>
  <linearGradient id="linearGradient6">
   <stop stop-color="#ffffff" offset="0"/>
   <stop stop-color="#ffffff" stop-opacity="0" offset="1"/>
  </linearGradient>
  <linearGradient id="linearGradient8" x1="15.081" x2="12.7" y1="14.816" y2="12.171" gradientUnits="userSpaceOnUse" xlink:href="#linearGradient6"/>
  <linearGradient id="linearGradient3" x1="8.4665" x2="8.4665" y1="1.0583" y2="15.875" gradientUnits="userSpaceOnUse">
   <stop stop-color="#2b2b2b" offset="0"/>
   <stop stop-color="#121212" offset="1"/>
  </linearGradient>
  <linearGradient id="linearGradient16" x1="14.219" x2="13.19" y1="10.042" y2="9.9681" gradientUnits="userSpaceOnUse">
   <stop stop-color="#b5b9b8" offset="0"/>
   <stop stop-color="#469e70" offset="1"/>
  </linearGradient>
  <linearGradient id="linearGradient17" x1="13.524" x2="13.507" y1="9.771" y2="10.222" gradientTransform="matrix(.67645 0 0 .67645 4.4865 3.2346)" gradientUnits="userSpaceOnUse">
   <stop stop-color="#daeee5" offset="0"/>
   <stop stop-color="#b1bfb9" offset="1"/>
  </linearGradient>
  <linearGradient id="linearGradient20" x1="13.304" x2="13.668" y1="10.006" y2="10.035" gradientUnits="userSpaceOnUse">
   <stop stop-color="#5dcc93" offset="0"/>
   <stop stop-color="#5dcc93" stop-opacity="0" offset="1"/>
  </linearGradient>
  <linearGradient id="linearGradient24" x1="7.399" x2="7.399" y1="3.0587" y2="13.262" gradientUnits="userSpaceOnUse">
   <stop stop-color="#349665" offset="0"/>
   <stop stop-color="#4c9f74" offset="1"/>
  </linearGradient>
  <filter id="filter27" x="-.06672" y="-.085626" width="1.1334" height="1.1713" color-interpolation-filters="sRGB">
   <feGaussianBlur stdDeviation="0.36401217"/>
  </filter>
 </defs>
 <path d="m5.3604 1.0584c-1.5298 0-2.5777 0.45621-3.2599 1.1998-0.67867 0.73981-1.0421 1.8001-1.0421 3.0006v6.4155c0 1.2006 0.36337 2.2609 1.0421 3.0006 0.68219 0.74354 1.7301 1.1998 3.2599 1.1998h6.2306c1.5298 0 2.5777-0.45621 3.2599-1.1998 0.67867-0.73981 1.024-1.7026 1.024-3.0006v-6.1745c0-1.5703-0.34528-2.5019-1.024-3.2416-0.68219-0.74354-1.7301-1.1998-3.2599-1.1998h-4.8457z" fill="url(#linearGradient3)"/>
 <path d="m6.7684 1.0583v2.7584h-2.8168v-2.6039c-0.090646 0.021904-0.17882 0.045546-0.26458 0.071829v2.5321h-2.4349c-0.024856 0.086743-0.047559 0.17497-0.067695 0.26458h2.5026v2.8168h-2.6287v0.26458h2.6287v2.8163h-2.6287v0.26458h2.6287v2.8168h-2.451c0.024503 0.089775 0.05169 0.178 0.08113 0.26458h2.3698v2.3233c0.085756 0.026285 0.17393 0.05044 0.26458 0.072346v-2.3957h2.8168v2.5497h0.26458v-2.5497h2.8163v2.5497h0.26458v-2.5497h2.8168v2.4117c0.090589-0.020485 0.17877-0.043435 0.26458-0.068211v-2.3435h2.4417c0.028268-0.086093 0.054267-0.17426 0.077513-0.26458h-2.5192v-2.8168h2.6794v-0.26458h-2.6794v-2.8163h2.6794v-0.26458h-2.6794v-2.8168h2.5559c-0.018276-0.090994-0.038145-0.17912-0.06046-0.26458h-2.4954v-2.5522c-0.085812-0.024778-0.17399-0.047724-0.26458-0.068212v2.6205h-2.8168v-2.7584h-0.26458v2.7584h-2.8163v-2.7584h-0.26458zm-2.8168 3.023h2.8168v2.8168h-2.8168v-2.8168zm3.0814 0h2.8163v2.8168h-2.8163v-2.8168zm3.0809 0h2.8168v2.8168h-2.8168v-2.8168zm-6.1623 3.0814h2.8168v2.8163h-2.8168v-2.8163zm3.0814 0h2.8163v2.8163h-2.8163v-2.8163zm3.0809 0h2.8168v2.8163h-2.8168v-2.8163zm-6.1623 3.0809h2.8168v2.8168h-2.8168v-2.8168zm3.0814 0h2.8163v2.8168h-2.8163v-2.8168zm3.0809 0h2.8168v2.8168h-2.8168v-2.8168z" fill="#24302b" style="paint-order:fill markers stroke"/>
 <path d="m3.7356 3.0587c-0.078501-0.0016844-0.15066 0.042956-0.18293 0.07803-0.036887 0.040084-0.05311 0.073727-0.068212 0.10955-0.030204 0.071649-0.049917 0.15153-0.070278 0.25166-0.040722 0.20027-0.077563 0.47664-0.11162 0.80872-0.068112 0.66415-0.12722 1.5515-0.18138 2.451-0.054158 0.89948-0.10233 1.8093-0.14831 2.5119-0.022991 0.35133-0.045028 0.65118-0.066661 0.86918-0.009845 0.099208-0.020359 0.17556-0.029455 0.23616-0.027311-0.02186-0.03246-0.023235-0.070279-0.058393-0.16615-0.15446-0.41676-0.40238-0.79063-0.51159-0.41469-0.12113-0.66596-0.28819-0.81285-0.41805-0.072396-0.064004-0.11751-0.11487-0.14469-0.14986v0.54518c0.19136 0.14252 0.46562 0.2925 0.84593 0.40358 0.26245 0.07666 0.46241 0.26306 0.63302 0.42167 0.085305 0.0793 0.15366 0.15374 0.27336 0.20308 0.059853 0.02467 0.14884 0.039881 0.23047 0.007751 0.081636-0.03212 0.13286-0.09461 0.16795-0.15606 0.050083-0.08771 0.044338-0.12576 0.056326-0.20102 0.011988-0.07526 0.024405-0.17032 0.035656-0.2837 0.022502-0.22676 0.045089-0.5272 0.068212-0.88055 0.046246-0.7067 0.094257-1.6179 0.14831-2.5156 0.052317-0.86891 0.1094-1.7123 0.17363-2.3574 0.012453 0.14223 0.024377 0.23087 0.037206 0.39428 0.071895 0.91574 0.14954 2.1367 0.22841 3.3574 0.078866 1.2206 0.15846 2.4403 0.23667 3.3615 0.039109 0.46061 0.079044 0.84602 0.1173 1.1229 0.01913 0.13844 0.037189 0.24951 0.058393 0.33589 0.010602 0.04319 0.021438 0.07981 0.039273 0.11937 0.00892 0.01978 0.018894 0.040042 0.040824 0.066662 0.021929 0.02661 0.061023 0.06822 0.13487 0.07958 7.917e-4 1.22e-4 0.10048-0.011079 0.10128-0.011369 4.004e-4 -1.46e-4 0.036804-0.017319 0.037206-0.017569 4.028e-4 -2.48e-4 0.019973-0.013247 0.027388-0.019637 0.02966-0.02557 0.040116-0.04526 0.048575-0.06046 0.016919-0.0304 0.021735-0.047332 0.027388-0.066662 0.011305-0.03865 0.018784-0.079514 0.027388-0.12867 0.017208-0.09831 0.035113-0.22902 0.056843-0.3886 0.04346-0.31915 0.099387-0.74528 0.17776-1.172 0.078376-0.42672 0.17934-0.85694 0.30437-1.1741 0.062513-0.15854 0.13175-0.28709 0.1974-0.37103 0.065651-0.083942 0.12144-0.11595 0.16019-0.12299 0.027212-0.0049449 0.07625 0.0046228 0.16019 0.052709 0.083944 0.048086 0.1891 0.12882 0.3085 0.21084 0.2388 0.16404 0.576 0.34655 0.96323 0.2129 0.24249-0.083693 0.38313-0.29716 0.52347-0.53897s0.2696-0.53021 0.4041-0.80459c0.1345-0.27438 0.27473-0.53621 0.41599-0.71312 0.14126-0.17691 0.263-0.2511 0.37878-0.24804 0.13524 0.00357 0.27083 0.099069 0.41805 0.29713s0.28707 0.47984 0.42374 0.76945c0.13666 0.2896 0.2691 0.58458 0.42374 0.82216 0.07732 0.11879 0.15999 0.22617 0.26199 0.30902 0.102 0.08285 0.2326 0.14225 0.37516 0.14056 0.27377-0.0032 0.49449-0.08956 0.65576-0.21704 0.16127-0.12747 0.26381-0.28707 0.34416-0.42942 0.08035-0.14235 0.14194-0.26992 0.19533-0.34002 0.05339-0.070109 0.061211-0.077789 0.11524-0.074413 0.07357 0.0046 0.10279 0.025633 0.14831 0.07648 0.04552 0.050846 0.092736 0.13684 0.14262 0.24184 0.04988 0.105 0.10419 0.2265 0.18551 0.34209 0.08132 0.11559 0.19904 0.22822 0.36328 0.28111 0.51531 0.16595 1.0252 0.085781 1.0252 0.085781a0.19843 0.19843 0 0 0 0.16794-0.22427 0.19843 0.19843 0 0 0-0.22634-0.16795s-0.4414 0.059992-0.84593-0.070279c-0.065719-0.021164-0.10973-0.061072-0.16019-0.13281s-0.097948-0.17284-0.15038-0.28318-0.10914-0.23071-0.20515-0.33796c-0.096013-0.10725-0.24373-0.19623-0.4196-0.20722-0.19543-0.012214-0.36083 0.10647-0.45526 0.23047-0.09443 0.124-0.15569 0.2598-0.22634 0.38498-0.07065 0.12518-0.14672 0.23489-0.24442 0.31212-0.0977 0.077226-0.21595 0.13046-0.41392 0.13281-0.03299 3.911e-4 -0.068338-0.0099959-0.12092-0.052709-0.052588-0.042714-0.11589-0.11622-0.17983-0.21445-0.12789-0.19647-0.25801-0.4825-0.39635-0.77565-0.13834-0.29315-0.28377-0.59582-0.46508-0.83973s-0.41662-0.44713-0.72449-0.45526c-0.29011-0.0076585-0.52307 0.17529-0.70124 0.39842-0.17816 0.22313-0.32298 0.50401-0.46094 0.78547-0.13797 0.28146-0.26804 0.56441-0.39273 0.77927s-0.25386 0.34442-0.3085 0.36328c-0.22099 0.076273-0.39449-0.018866-0.60925-0.16639-0.10738-0.073764-0.2158-0.15754-0.33589-0.22634s-0.26524-0.12966-0.42994-0.099734c-0.16735 0.03041-0.29846 0.1393-0.40048 0.26975-0.10202 0.13045-0.18247 0.29003-0.25373 0.47076-0.14251 0.36147-0.24538 0.80865-0.32607 1.248-0.03357 0.18277-0.048262 0.32162-0.074413 0.49402-0.011036-0.11786-0.021917-0.18488-0.033072-0.31625-0.077653-0.91458-0.15731-2.1355-0.23616-3.3558s-0.1561-2.44-0.22841-3.361c-0.036154-0.4605-0.072312-0.84533-0.10593-1.1214-0.016812-0.13802-0.032867-0.24719-0.050642-0.33176-0.0088873-0.042284-0.016832-0.077844-0.031005-0.11524-0.00709-0.018696-0.015434-0.038043-0.033589-0.064594-0.00908-0.013275-0.020364-0.029778-0.040824-0.047025-0.01023-0.00862-0.023635-0.017112-0.039273-0.025321-0.015637-0.00821-0.053358-0.019456-0.054259-0.019637-0.011379-0.0022899-0.022891-0.0033767-0.034106-0.0036173z" fill="url(#linearGradient24)" filter="url(#filter27)"/>
 <g filter="url(#filter8)" style="mix-blend-mode:overlay">
  <path d="m5.3603 1.0583c-1.5298 0-2.5775 0.45637-3.2597 1.1999-0.67868 0.73981-1.0423 1.8002-1.0423 3.0008v6.415c0 1.2006 0.36361 2.2609 1.0423 3.0008 0.68219 0.74355 1.7299 1.1999 3.2597 1.1999h6.2305c1.5298 0 2.5775-0.45637 3.2597-1.1999 0.67868-0.73981 1.0242-1.7027 1.0242-3.0008v-6.1742c0-1.5703-0.34552-2.5018-1.0242-3.2416-0.68219-0.74355-1.7299-1.1999-3.2597-1.1999h-4.8456zm-0.00103 0.26406h6.2326c1.4772 0 2.437 0.43133 3.0644 1.1152 0.63411 0.69126 0.95341 1.5307 0.95341 3.0623v6.1742c0 1.2512-0.32181 2.1335-0.95341 2.822-0.6274 0.68381-1.5871 1.1136-3.0644 1.1136h-6.2326c-1.4772 0-2.437-0.42978-3.0644-1.1136-0.62537-0.68172-0.97253-1.6747-0.97253-2.822v-6.4145c0-1.1472 0.34717-2.1403 0.97253-2.822 0.6274-0.68381 1.5871-1.1152 3.0644-1.1152z" fill="url(#linearGradient7)"/>
  <path d="m5.3603 1.0583c-1.5298 0-2.5775 0.45637-3.2597 1.1999-0.67868 0.73981-1.0423 1.8002-1.0423 3.0008v6.415c0 1.2006 0.36361 2.2609 1.0423 3.0008 0.68219 0.74355 1.7299 1.1999 3.2597 1.1999h6.2305c1.5298 0 2.5775-0.45637 3.2597-1.1999 0.67868-0.73981 1.0242-1.7027 1.0242-3.0008v-6.1742c0-1.5703-0.34552-2.5018-1.0242-3.2416-0.68219-0.74355-1.7299-1.1999-3.2597-1.1999h-4.8456zm-0.00103 0.26406h6.2326c1.4772 0 2.437 0.43133 3.0644 1.1152 0.63411 0.69126 0.95341 1.5307 0.95341 3.0623v6.1742c0 1.2512-0.32181 2.1335-0.95341 2.822-0.6274 0.68381-1.5871 1.1136-3.0644 1.1136h-6.2326c-1.4772 0-2.437-0.42978-3.0644-1.1136-0.62537-0.68172-0.97253-1.6747-0.97253-2.822v-6.4145c0-1.1472 0.34717-2.1403 0.97253-2.822 0.6274-0.68381 1.5871-1.1152 3.0644-1.1152z" fill="url(#linearGradient8)" stroke-width="1.0001"/>
 </g>
 <path d="m3.7356 3.0587c-0.078501-0.0016844-0.15066 0.042956-0.18293 0.07803-0.036887 0.040084-0.05311 0.073727-0.068212 0.10955-0.030204 0.071649-0.049917 0.15153-0.070278 0.25166-0.040722 0.20027-0.077563 0.47664-0.11162 0.80872-0.068112 0.66415-0.12722 1.5515-0.18138 2.451-0.054158 0.89948-0.10233 1.8093-0.14831 2.5119-0.022991 0.35133-0.045028 0.65118-0.066661 0.86918-0.009845 0.099208-0.020359 0.17556-0.029455 0.23616-0.027311-0.02186-0.03246-0.023235-0.070279-0.058393-0.16615-0.15446-0.41676-0.40238-0.79063-0.51159-0.41469-0.12113-0.66596-0.28819-0.81285-0.41805-0.072396-0.064004-0.11751-0.11487-0.14469-0.14986v0.54518c0.19136 0.14252 0.46562 0.2925 0.84593 0.40358 0.26245 0.07666 0.46241 0.26306 0.63302 0.42167 0.085305 0.0793 0.15366 0.15374 0.27336 0.20308 0.059853 0.02467 0.14884 0.039881 0.23047 0.007751 0.081636-0.03212 0.13286-0.09461 0.16795-0.15606 0.050083-0.08771 0.044338-0.12576 0.056326-0.20102 0.011988-0.07526 0.024405-0.17032 0.035656-0.2837 0.022502-0.22676 0.045089-0.5272 0.068212-0.88055 0.046246-0.7067 0.094257-1.6179 0.14831-2.5156 0.052317-0.86891 0.1094-1.7123 0.17363-2.3574 0.012453 0.14223 0.024377 0.23087 0.037206 0.39428 0.071895 0.91574 0.14954 2.1367 0.22841 3.3574 0.078866 1.2206 0.15846 2.4403 0.23667 3.3615 0.039109 0.46061 0.079044 0.84602 0.1173 1.1229 0.01913 0.13844 0.037189 0.24951 0.058393 0.33589 0.010602 0.04319 0.021438 0.07981 0.039273 0.11937 0.00892 0.01978 0.018894 0.040042 0.040824 0.066662 0.021929 0.02661 0.061023 0.06822 0.13487 0.07958 7.917e-4 1.22e-4 0.10048-0.011079 0.10128-0.011369 4.004e-4 -1.46e-4 0.036804-0.017319 0.037206-0.017569 4.028e-4 -2.48e-4 0.019973-0.013247 0.027388-0.019637 0.02966-0.02557 0.040116-0.04526 0.048575-0.06046 0.016919-0.0304 0.021735-0.047332 0.027388-0.066662 0.011305-0.03865 0.018784-0.079514 0.027388-0.12867 0.017208-0.09831 0.035113-0.22902 0.056843-0.3886 0.04346-0.31915 0.099387-0.74528 0.17776-1.172 0.078376-0.42672 0.17934-0.85694 0.30437-1.1741 0.062513-0.15854 0.13175-0.28709 0.1974-0.37103 0.065651-0.083942 0.12144-0.11595 0.16019-0.12299 0.027212-0.0049449 0.07625 0.0046228 0.16019 0.052709 0.083944 0.048086 0.1891 0.12882 0.3085 0.21084 0.2388 0.16404 0.576 0.34655 0.96323 0.2129 0.24249-0.083693 0.38313-0.29716 0.52347-0.53897s0.2696-0.53021 0.4041-0.80459c0.1345-0.27438 0.27473-0.53621 0.41599-0.71312 0.14126-0.17691 0.263-0.2511 0.37878-0.24804 0.13524 0.00357 0.27083 0.099069 0.41805 0.29713s0.28707 0.47984 0.42374 0.76945c0.13666 0.2896 0.2691 0.58458 0.42374 0.82216 0.07732 0.11879 0.15999 0.22617 0.26199 0.30902 0.102 0.08285 0.2326 0.14225 0.37516 0.14056 0.27377-0.0032 0.49449-0.08956 0.65576-0.21704 0.16127-0.12747 0.26381-0.28707 0.34416-0.42942 0.08035-0.14235 0.14194-0.26992 0.19533-0.34002 0.05339-0.070109 0.061211-0.077789 0.11524-0.074413 0.07357 0.0046 0.10279 0.025633 0.14831 0.07648 0.04552 0.050846 0.092736 0.13684 0.14262 0.24184 0.04988 0.105 0.10419 0.2265 0.18551 0.34209 0.08132 0.11559 0.19904 0.22822 0.36328 0.28111 0.51531 0.16595 1.0252 0.085781 1.0252 0.085781a0.19843 0.19843 0 0 0 0.16794-0.22427 0.19843 0.19843 0 0 0-0.22634-0.16795s-0.4414 0.059992-0.84593-0.070279c-0.065719-0.021164-0.10973-0.061072-0.16019-0.13281s-0.097948-0.17284-0.15038-0.28318-0.10914-0.23071-0.20515-0.33796c-0.096013-0.10725-0.24373-0.19623-0.4196-0.20722-0.19543-0.012214-0.36083 0.10647-0.45526 0.23047-0.09443 0.124-0.15569 0.2598-0.22634 0.38498-0.07065 0.12518-0.14672 0.23489-0.24442 0.31212-0.0977 0.077226-0.21595 0.13046-0.41392 0.13281-0.03299 3.911e-4 -0.068338-0.0099959-0.12092-0.052709-0.052588-0.042714-0.11589-0.11622-0.17983-0.21445-0.12789-0.19647-0.25801-0.4825-0.39635-0.77565-0.13834-0.29315-0.28377-0.59582-0.46508-0.83973s-0.41662-0.44713-0.72449-0.45526c-0.29011-0.0076585-0.52307 0.17529-0.70124 0.39842-0.17816 0.22313-0.32298 0.50401-0.46094 0.78547-0.13797 0.28146-0.26804 0.56441-0.39273 0.77927s-0.25386 0.34442-0.3085 0.36328c-0.22099 0.076273-0.39449-0.018866-0.60925-0.16639-0.10738-0.073764-0.2158-0.15754-0.33589-0.22634s-0.26524-0.12966-0.42994-0.099734c-0.16735 0.03041-0.29846 0.1393-0.40048 0.26975-0.10202 0.13045-0.18247 0.29003-0.25373 0.47076-0.14251 0.36147-0.24538 0.80865-0.32607 1.248-0.03357 0.18277-0.048262 0.32162-0.074413 0.49402-0.011036-0.11786-0.021917-0.18488-0.033072-0.31625-0.077653-0.91458-0.15731-2.1355-0.23616-3.3558s-0.1561-2.44-0.22841-3.361c-0.036154-0.4605-0.072312-0.84533-0.10593-1.1214-0.016812-0.13802-0.032867-0.24719-0.050642-0.33176-0.0088873-0.042284-0.016832-0.077844-0.031005-0.11524-0.00709-0.018696-0.015434-0.038043-0.033589-0.064594-0.00908-0.013275-0.020364-0.029778-0.040824-0.047025-0.01023-0.00862-0.023635-0.017112-0.039273-0.025321-0.015637-0.00821-0.053358-0.019456-0.054259-0.019637-0.011379-0.0022899-0.022891-0.0033767-0.034106-0.0036173z" fill="url(#linearGradient24)"/>
 <path d="m13.142 9.7842s0.25599 0.072839 0.59501-0.056775c0.42456-0.16232 0.54983 0.16824 0.51124 0.36517-0.02884 0.17355-0.20394 0.26458-0.37482 0.23702-0.17087-0.02756-0.07855-0.06752-0.35966-0.11162-0.28111-0.0441-0.30369-0.03257-0.40514-0.06339-0.10886-0.03307 0.03337-0.37041 0.03337-0.37041z" fill="url(#linearGradient16)" style="paint-order:fill markers stroke"/>
 <path d="m3.7232 3.2158c-0.021709 0.0014648-0.042508 0.014528-0.055293 0.028422-0.015735 0.017099-0.026083 0.038208-0.037206 0.064594-0.022246 0.052772-0.041153 0.12571-0.06046 0.22065-0.038614 0.1899-0.075752 0.46312-0.10955 0.7927-0.0676 0.65916-0.12727 1.5465-0.18138 2.4453-0.054115 0.89877-0.10222 1.8097-0.14831 2.514-0.023044 0.35214-0.04468 0.6513-0.066661 0.8728-0.010991 0.11075-0.022374 0.20258-0.033072 0.26975-0.010698 0.06716-0.024354 0.11354-0.027388 0.11885-0.018913 0.03312-0.036801 0.047269-0.050642 0.052709-0.013841 0.0054-0.029002 0.006183-0.052709-0.003617-0.047417-0.019547-0.11757-0.080066-0.20153-0.15813-0.16794-0.15612-0.3988-0.38077-0.72811-0.47696-0.43585-0.12731-0.70918-0.30601-0.87331-0.45113-0.013873-0.012265-0.026958-0.023954-0.039273-0.035656v0.108c0.17397 0.15032 0.45587 0.32819 0.89088 0.45526 0.30702 0.08968 0.52672 0.30193 0.69555 0.45888 0.084413 0.07847 0.15483 0.1426 0.22634 0.17208 0.035756 0.01474 0.074663 0.019975 0.1111 0.005685 0.03644-0.01434 0.065611-0.045289 0.089915-0.087849 0.018717-0.03278 0.026079-0.076894 0.037206-0.14676 0.011128-0.06986 0.021995-0.16174 0.033072-0.27336 0.022155-0.22329 0.045658-0.52439 0.068728-0.87693 0.046141-0.70508 0.094215-1.6151 0.14831-2.5135 0.054094-0.89841 0.11404-1.785 0.18138-2.4417 0.033672-0.32833 0.068376-0.59817 0.10593-0.78288 0.018779-0.092355 0.038059-0.16389 0.056326-0.20722 0.0057-0.013524 0.0092004-0.019853 0.013952-0.027388 0.00567 0.016586 0.0125 0.038779 0.01912 0.070279 0.015045 0.071581 0.030633 0.176 0.047025 0.31057 0.032783 0.26914 0.067321 0.65468 0.10335 1.1136 0.07206 0.91784 0.15006 2.1369 0.22892 3.3574 0.078857 1.2205 0.15816 2.4409 0.23616 3.3594 0.038996 0.45928 0.077746 0.84383 0.11524 1.1152 0.018745 0.13566 0.03816 0.24221 0.056843 0.31832 0.00934 0.03805 0.018288 0.068352 0.028938 0.091982 0.00533 0.01181 0.0096816 0.021425 0.01757 0.031005 0.00789 0.0096 0.021035 0.020444 0.039273 0.023254 7.917e-4 1.21e-4 0.020387-0.001767 0.021187-0.002067 4.004e-4 -1.46e-4 0.0078681-0.003417 0.0082681-0.003617 4.027e-4 -2.48e-4 0.0038743-0.002534 0.0056843-0.004134 0.00723-0.0062 0.010414-0.01214 0.013436-0.01757 0.00604-0.01086 0.01001-0.021649 0.013952-0.035139 0.00789-0.02698 0.01718-0.064594 0.025321-0.1111 0.016281-0.09301 0.033076-0.22355 0.054776-0.38292 0.043401-0.31872 0.10001-0.74593 0.17931-1.1777 0.079301-0.43176 0.18268-0.86815 0.3147-1.203 0.066011-0.16743 0.13839-0.30983 0.21859-0.41237 0.0802-0.10254 0.1656-0.16499 0.25579-0.18138 0.082208-0.014939 0.17134 0.015976 0.26975 0.072346 0.098404 0.056369 0.20373 0.1378 0.31832 0.21652 0.22918 0.15744 0.50142 0.30396 0.82216 0.19327 0.16735-0.057762 0.3036-0.23766 0.43769-0.4687 0.13409-0.231 0.26253-0.51756 0.39842-0.79477 0.13589-0.27721 0.27961-0.54459 0.43562-0.73999 0.15602-0.1954 0.32039-0.31392 0.5059-0.30902 0.20429 0.00539 0.38018 0.14326 0.54104 0.35966 0.16086 0.2164 0.30397 0.50788 0.44131 0.7989 0.13733 0.29102 0.26791 0.58139 0.41185 0.80252 0.07197 0.11057 0.14824 0.2045 0.23047 0.2713 0.08224 0.066796 0.17308 0.10711 0.27181 0.10593 0.24345-0.0029 0.42277-0.076591 0.55861-0.18396 0.13584-0.10737 0.2279-0.24743 0.30437-0.38291 0.07647-0.13549 0.13948-0.26748 0.20928-0.35914 0.06981-0.091664 0.13953-0.14178 0.25011-0.13487 0.11449 0.00716 0.19163 0.05578 0.25734 0.12919 0.06572 0.073408 0.11756 0.17398 0.16846 0.28111 0.0509 0.10714 0.10052 0.22027 0.1695 0.31832 0.06898 0.09805 0.15835 0.18045 0.28318 0.22065 0.471 0.15168 0.95341 0.080097 0.95341 0.080097a0.039687 0.039687 0 0 0 0.033072-0.044957 0.039687 0.039687 0 0 0-0.044957-0.033073s-0.46892 0.066511-0.91776-0.07803c-0.10512-0.033856-0.17955-0.10244-0.24236-0.19172-0.062808-0.089278-0.11085-0.19823-0.16226-0.30644-0.05141-0.10821-0.10556-0.21606-0.18138-0.30075-0.075815-0.084689-0.17768-0.14401-0.31264-0.15244-0.13886-0.008679-0.2403 0.063436-0.31832 0.16588s-0.13837 0.23536-0.2129 0.36741c-0.07453 0.13205-0.16212 0.26182-0.28525 0.35914-0.12313 0.097325-0.2833 0.16369-0.51159 0.16639-0.076818 9.11e-4 -0.1483-0.029597-0.22066-0.088365-0.072354-0.058768-0.14361-0.1452-0.2129-0.25166-0.13859-0.21291-0.2685-0.50303-0.40617-0.79477-0.13767-0.29173-0.2819-0.58522-0.44958-0.81079s-0.36423-0.38643-0.60305-0.39273c-0.22037-0.0058177-0.4071 0.13332-0.5705 0.33796-0.1634 0.20464-0.30679 0.47739-0.44338 0.75601s-0.26539 0.56344-0.39635 0.78908-0.26708 0.38876-0.39687 0.43356c-0.28748 0.099223-0.52544-0.029314-0.74981-0.18345-0.11219-0.077067-0.21837-0.16014-0.324-0.22065-0.10563-0.060511-0.21275-0.10003-0.32245-0.080097-0.11591 0.021063-0.21741 0.098992-0.30488 0.21084-0.087474 0.11184-0.16271 0.25963-0.23047 0.43149-0.13552 0.34373-0.23856 0.78268-0.31832 1.217-0.079763 0.43427-0.13594 0.86279-0.17931 1.1813-0.021686 0.15926-0.038959 0.291-0.054776 0.38136-0.00381 0.02177-0.0083864 0.031935-0.011885 0.048575-0.00276-0.0096-0.0049413-0.013851-0.0077513-0.025321-0.017422-0.07097-0.036223-0.17836-0.054776-0.31264-0.03711-0.26854-0.07423-0.65085-0.11317-1.1095-0.077879-0.91723-0.1573-2.1369-0.23616-3.3574-0.078853-1.2204-0.15678-2.4426-0.22892-3.3615-0.036071-0.45945-0.072355-0.84165-0.10542-1.1131-0.016532-0.13572-0.030553-0.24448-0.046508-0.32039-0.00798-0.037955-0.017013-0.066634-0.025838-0.089915-0.00441-0.01164-0.0089276-0.021395-0.015503-0.031005-0.00329-0.0048-0.0058196-0.010826-0.011369-0.015503-0.00277-0.00234-0.0059583-0.004181-0.0098183-0.006201-0.00385-0.00202-0.013051-0.0055043-0.013952-0.0056843-0.0050304-0.0010125-0.009976-0.0013716-0.014986-0.0010335z" fill="#5dcc93" stop-color="#000000" stroke-linecap="round" stroke-linejoin="round" style="paint-order:fill markers stroke"/>
 <path d="m13.35 9.9612s0.20971 0.02004 0.41126-0.10272c0.2626-0.15993 0.38947 0.069957 0.36337 0.20317-0.01951 0.1174-0.13796 0.17897-0.25355 0.16033-0.11559-0.01864-0.05752-0.0033-0.24329-0.07551-0.15362-0.06929-0.24601-0.09218-0.31644-0.10573-0.03272-0.0063-0.01105-0.083938-0.01105-0.083938z" fill="url(#linearGradient17)" style="paint-order:fill markers stroke"/>
 <path d="m12.431 9.0804v0.12712c0.044783 0.064474 0.083624 0.14153 0.12195 0.2222 0.0509 0.10714 0.10052 0.22027 0.1695 0.31832 0.06898 0.09805 0.15835 0.18045 0.28318 0.22065 0.10105 0.032542 0.20249 0.054862 0.29972 0.069762 0.0018 0.00111 0.003882 0.001621 0.006201 0.002067 0.07043 0.013549 0.16315 0.036645 0.31677 0.10594 0.18577 0.07221 0.12729 0.056806 0.24288 0.075446 0.11559 0.018643 0.23422-0.042797 0.25373-0.16019 0.026101-0.13322-0.10068-0.36302-0.36328-0.20308-0.20156 0.12276-0.41134 0.10283-0.41134 0.10283l-0.049608-0.0046508c-0.088506-0.014266-0.18037-0.034797-0.2713-0.064078-0.10512-0.033856-0.17955-0.10244-0.24236-0.19172-0.062808-0.089278-0.11085-0.19823-0.16226-0.30644-0.05141-0.10821-0.10556-0.21606-0.18138-0.30075-0.004033-0.0045053-0.008221-0.0090782-0.012402-0.013436z" fill="url(#linearGradient20)" stop-color="#000000" stroke-linecap="round" stroke-linejoin="round" style="paint-order:fill markers stroke"/>
 <g filter="url(#filter8)" opacity=".5" style="mix-blend-mode:overlay">
  <path d="m5.3603 1.0583c-1.5298 0-2.5775 0.45637-3.2597 1.1999-0.67868 0.73981-1.0423 1.8002-1.0423 3.0008v6.415c0 1.2006 0.36361 2.2609 1.0423 3.0008 0.68219 0.74355 1.7299 1.1999 3.2597 1.1999h6.2305c1.5298 0 2.5775-0.45637 3.2597-1.1999 0.67868-0.73981 1.0242-1.7027 1.0242-3.0008v-6.1742c0-1.5703-0.34552-2.5018-1.0242-3.2416-0.68219-0.74355-1.7299-1.1999-3.2597-1.1999h-4.8456zm-0.00103 0.26406h6.2326c1.4772 0 2.437 0.43133 3.0644 1.1152 0.63411 0.69126 0.95341 1.5307 0.95341 3.0623v6.1742c0 1.2512-0.32181 2.1335-0.95341 2.822-0.6274 0.68381-1.5871 1.1136-3.0644 1.1136h-6.2326c-1.4772 0-2.437-0.42978-3.0644-1.1136-0.62537-0.68172-0.97253-1.6747-0.97253-2.822v-6.4145c0-1.1472 0.34717-2.1403 0.97253-2.822 0.6274-0.68381 1.5871-1.1152 3.0644-1.1152z" fill="url(#linearGradient7)"/>
  <path d="m5.3603 1.0583c-1.5298 0-2.5775 0.45637-3.2597 1.1999-0.67868 0.73981-1.0423 1.8002-1.0423 3.0008v6.415c0 1.2006 0.36361 2.2609 1.0423 3.0008 0.68219 0.74355 1.7299 1.1999 3.2597 1.1999h6.2305c1.5298 0 2.5775-0.45637 3.2597-1.1999 0.67868-0.73981 1.0242-1.7027 1.0242-3.0008v-6.1742c0-1.5703-0.34552-2.5018-1.0242-3.2416-0.68219-0.74355-1.7299-1.1999-3.2597-1.1999h-4.8456zm-0.00103 0.26406h6.2326c1.4772 0 2.437 0.43133 3.0644 1.1152 0.63411 0.69126 0.95341 1.5307 0.95341 3.0623v6.1742c0 1.2512-0.32181 2.1335-0.95341 2.822-0.6274 0.68381-1.5871 1.1136-3.0644 1.1136h-6.2326c-1.4772 0-2.437-0.42978-3.0644-1.1136-0.62537-0.68172-0.97253-1.6747-0.97253-2.822v-6.4145c0-1.1472 0.34717-2.1403 0.97253-2.822 0.6274-0.68381 1.5871-1.1152 3.0644-1.1152z" fill="url(#linearGradient8)" stroke-width="1.0001"/>
 </g>
</svg>
