<svg width="64" height="64" version="1.1" viewBox="0 0 16.933 16.933" xmlns="http://www.w3.org/2000/svg" xmlns:xlink="http://www.w3.org/1999/xlink">
 <defs>
  <linearGradient id="linearGradient37">
   <stop stop-color="#ffffff" offset="0"/>
   <stop stop-color="#ffffff" stop-opacity="0" offset="1"/>
  </linearGradient>
  <filter id="filter9" x="-.012" y="-.012" width="1.024" height="1.024" color-interpolation-filters="sRGB">
   <feGaussianBlur stdDeviation="0.074082"/>
  </filter>
  <linearGradient id="linearGradient3" x1="8.4665" x2="8.4665" y1="1.0583" y2="15.875" gradientUnits="userSpaceOnUse">
   <stop stop-color="#ffffff" offset="0"/>
   <stop stop-color="#ececec" offset="1"/>
  </linearGradient>
  <linearGradient id="linearGradient4" x1="8.4665" x2="8.4665" y1="2.6458" y2="14.287" gradientUnits="userSpaceOnUse">
   <stop stop-color="#5dc3fb" offset="0"/>
   <stop stop-color="#1f75ff" offset="1"/>
  </linearGradient>
  <linearGradient id="linearGradient6" x1="8.4665" x2="8.4665" y1="2.5135" y2="14.42" gradientUnits="userSpaceOnUse">
   <stop stop-color="#42b8fc" offset="0"/>
   <stop stop-color="#0063ff" offset="1"/>
  </linearGradient>
  <linearGradient id="linearGradient9" x1="8.4665" x2="8.4665" y1="2.6458" y2="14.287" gradientUnits="userSpaceOnUse">
   <stop stop-color="#ffffff" offset="0"/>
   <stop stop-color="#ffffff" stop-opacity="0" offset="1"/>
  </linearGradient>
  <filter id="filter10" x="-.012" y="-.012" width="1.024" height="1.024" color-interpolation-filters="sRGB">
   <feGaussianBlur stdDeviation="0.058207189"/>
  </filter>
  <linearGradient id="linearGradient35" x1="25.928" x2="22.224" y1="8.4657" y2="12.17" gradientUnits="userSpaceOnUse">
   <stop stop-color="#fafdff" offset="0"/>
   <stop stop-color="#ddf0ff" offset="1"/>
  </linearGradient>
  <linearGradient id="linearGradient38" x1="24.076" x2="24.87" y1="9.524" y2="10.582" gradientUnits="userSpaceOnUse" xlink:href="#linearGradient37"/>
  <linearGradient id="linearGradient39" x1="25.135" x2="24.342" y1="10.055" y2="9.2608" gradientTransform="rotate(180 25.929 8.4664)" gradientUnits="userSpaceOnUse" xlink:href="#linearGradient37"/>
  <filter id="filter42" x="-.147" y="-.147" width="1.294" height="1.294" color-interpolation-filters="sRGB">
   <feGaussianBlur stdDeviation="0.4770993"/>
  </filter>
 </defs>
 <path d="m5.3603 1.0584c-1.5298 0-2.5777 0.45621-3.2599 1.1998-0.67868 0.73981-1.0421 1.8001-1.0421 3.0007v6.4154c0 1.2006 0.36337 2.2609 1.0421 3.0007 0.68219 0.74355 1.7301 1.1998 3.2599 1.1998h6.2306c1.5298 0 2.5777-0.45622 3.2599-1.1998 0.67868-0.73981 1.024-1.7026 1.024-3.0007v-6.1745c0-1.5703-0.34527-2.5019-1.024-3.2417-0.68219-0.74355-1.7301-1.1998-3.2599-1.1998h-4.8457z" fill="url(#linearGradient3)"/>
 <path d="m5.3603 1.0583c-1.5298 0-2.5775 0.45637-3.2597 1.1999-0.67868 0.73981-1.0423 1.8002-1.0423 3.0008v6.415c0 1.2006 0.36361 2.2609 1.0423 3.0008 0.68219 0.74355 1.7299 1.1999 3.2597 1.1999h6.2305c1.5298 0 2.5775-0.45637 3.2597-1.1999 0.67868-0.73981 1.0242-1.7027 1.0242-3.0008v-6.1742c0-1.5703-0.34552-2.5018-1.0242-3.2416-0.68219-0.74355-1.7299-1.1999-3.2597-1.1999h-4.8456zm-0.00103 0.26406h6.2326c1.4772 0 2.437 0.43133 3.0644 1.1152 0.63411 0.69126 0.95341 1.5307 0.95341 3.0623v6.1742c0 1.2512-0.32181 2.1335-0.95341 2.822-0.6274 0.68381-1.5871 1.1136-3.0644 1.1136h-6.2326c-1.4772 0-2.437-0.42978-3.0644-1.1136-0.62537-0.68172-0.97253-1.6747-0.97253-2.822v-6.4145c0-1.1472 0.34717-2.1403 0.97253-2.822 0.6274-0.68381 1.5871-1.1152 3.0644-1.1152z" fill="#ffffff" filter="url(#filter9)"/>
 <circle cx="8.4665" cy="8.4665" r="5.8207" fill="url(#linearGradient4)" stroke="url(#linearGradient6)" stroke-linecap="round" stroke-linejoin="round" stroke-width=".26458" style="paint-order:stroke fill markers"/>
 <path d="m8.4665 2.6458a5.8207 5.8207 0 0 0-5.8207 5.8207 5.8207 5.8207 0 0 0 5.8207 5.8207 5.8207 5.8207 0 0 0 5.8207-5.8207 5.8207 5.8207 0 0 0-5.8207-5.8207zm5.168e-4 0.13177c3.1432 0 5.6874 2.5463 5.6874 5.6895 0 3.1432-2.5442 5.6874-5.6874 5.6874-3.1432 0-5.6895-2.5442-5.6895-5.6874 0-3.1432 2.5463-5.6895 5.6895-5.6895z" fill="url(#linearGradient9)" filter="url(#filter10)" stop-color="#000000" stroke-linecap="round" stroke-linejoin="round" style="mix-blend-mode:overlay;paint-order:stroke markers fill"/>
 <path d="m8.4665 3.0426c-0.05863 0-0.10593 0.047304-0.10593 0.10593v0.84644c0 0.05863 0.047304 0.10593 0.10593 0.10593 0.058631 0 0.10594-0.047304 0.10594-0.10593v-0.84644c0-0.058631-0.047304-0.10593-0.10594-0.10593zm-0.69968 0.045474c-0.00269 8.15e-5 -0.00554 6.729e-4 -0.00827 0.00103-0.04359 0.00578-0.074498 0.045749-0.068728 0.089399l0.083197 0.62889c0.00578 0.043428 0.045442 0.074182 0.088882 0.068728h5.17e-4c0.043338-0.00601 0.073949-0.045936 0.068211-0.089398l-0.08268-0.62941c-0.00544-0.040873-0.040782-0.070468-0.081131-0.069245zm1.3916 5.168e-4c-0.036934 0.00262-0.068357 0.030581-0.073379 0.068728l-0.082681 0.62941c-0.0057 0.043597 0.025139 0.083658 0.068729 0.089398 0.0436 0.00574 0.083141-0.025131 0.088881-0.068728l0.083198-0.62889c0.0057-0.043597-0.025139-0.083659-0.068729-0.089399-0.00545-7.175e-4 -0.010743-8.908e-4 -0.016019-5.157e-4zm-2.0748 0.13539c-0.00704 4.282e-4 -0.014106 0.00172-0.021187 0.00362-0.05663 0.015173-0.090109 0.073073-0.074929 0.12971l0.2191 0.81751c0.01517 0.056629 0.073585 0.09011 0.13022 0.074929 0.05663-0.015165 0.089612-0.073053 0.074412-0.12971l-0.21859-0.8175c-0.013273-0.04955-0.05979-0.081543-0.10904-0.078547zm2.7548 0c-0.045152 0.00176-0.085854 0.032533-0.098184 0.078547l-0.21859 0.8175c-0.01517 0.056633 0.01829 0.11453 0.07493 0.12971 0.05663 0.015175 0.11453-0.018296 0.1297-0.074929l0.2191-0.81751c0.01517-0.056633-0.01829-0.11453-0.07493-0.12971-0.010618-0.00285-0.021619-0.00402-0.032038-0.00362zm-3.4168 0.22531c-0.010335-7.45e-5 -0.020843 0.00198-0.031005 0.0062-0.04061 0.016868-0.059761 0.063199-0.042891 0.10387l0.24288 0.58652c0.01686 0.040618 0.063208 0.059746 0.10387 0.042891 0.04062-0.016866 0.060258-0.063216 0.043408-0.10387l-0.24288-0.58652c-0.012645-0.030464-0.042373-0.048868-0.073379-0.049092zm4.0896 0c-0.03101 2.241e-4 -0.06076 0.018621-0.07338 0.049092l-0.24287 0.58652c-0.01679 0.040636 0.0027 0.087041 0.04341 0.10387 0.04063 0.016829 0.08704-0.00226 0.10387-0.042891l0.24287-0.58652c0.01679-0.040636-0.0022-0.087041-0.04289-0.10387-0.01016-0.00421-0.02067-0.00628-0.03101-0.0062zm-4.7066 0.30592c-0.017073 4.565e-4 -0.034256 0.00479-0.050126 0.013952-0.05077 0.029312-0.068076 0.093918-0.038756 0.14469l0.42322 0.73327c0.02931 0.050773 0.09391 0.068079 0.14469 0.038756 0.05078-0.029306 0.068096-0.093902 0.038756-0.14469l-0.42322-0.73327c-0.020151-0.034906-0.057007-0.053713-0.094566-0.052709zm5.3133 0c-0.0339 0.00238-0.06591 0.020975-0.08423 0.052709l-0.42322 0.73327c-0.02931 0.050777-0.01202 0.11537 0.03876 0.14469 0.05077 0.029315 0.11538 0.01202 0.14469-0.038756l0.42322-0.73327c0.02931-0.050777 0.01202-0.11537-0.03876-0.14469-0.01904-0.010993-0.04012-0.015379-0.06046-0.013952zm-5.9096 0.3917c-0.015293 9.213e-4 -0.030837 0.00648-0.043924 0.016536-0.03486 0.026804-0.041289 0.076703-0.014469 0.11162l0.38653 0.50332c0.026713 0.034757 0.076205 0.041486 0.1111 0.014986h5.17e-4c0.034615-0.026858 0.041194-0.076812 0.014469-0.11162l-0.38653-0.50384c-0.01675-0.021794-0.042206-0.032541-0.067695-0.031005zm6.5085 0c-0.02291 8.11e-4 -0.04488 0.011381-0.05994 0.031005l-0.38653 0.50384c-0.02674 0.034906-0.02046 0.08484 0.01447 0.11162 0.03489 0.026771 0.08485 0.019902 0.11162-0.014986l0.38653-0.50332c0.02674-0.034906 0.02046-0.08484-0.01447-0.11162-0.01526-0.011712-0.03385-0.017167-0.05167-0.016536zm-7.0108 0.45319c-0.02709-2e-7 -0.054199 0.010267-0.074929 0.031005-0.04145 0.041453-0.041465 0.1084 0 0.14986l0.5984 0.5984c0.04145 0.041458 0.1084 0.041467 0.14986 0 0.04146-0.041449 0.041485-0.10839 0-0.14986l-0.5984-0.5984c-0.020725-0.020729-0.04784-0.031005-0.07493-0.031005zm7.5208 0c-0.02709 0-0.0542 0.010277-0.07493 0.031005l-0.5984 0.5984c-0.04145 0.041461-0.04147 0.1084 0 0.14986 0.04145 0.041456 0.1084 0.041458 0.14986 0l0.5984-0.5984c0.04145-0.041461 0.04147-0.1084 0-0.14986-0.02073-0.020728-0.04784-0.031005-0.07493-0.031005zm-8.003 0.53329c-0.022911 7.99e-4 -0.045403 0.011357-0.060461 0.031005-0.02674 0.034915-0.02047 0.084833 0.01447 0.11162l0.50384 0.38653c0.03491 0.026746 0.084835 0.019941 0.11162-0.014986 0.02674-0.034915 0.019934-0.084323-0.014986-0.1111l-0.50332-0.38653c-0.015273-0.011701-0.033339-0.017158-0.051158-0.016536zm8.4774 0c-0.0153 9.263e-4 -0.03032 0.0065-0.04341 0.016536l-0.50332 0.38653c-0.03486 0.026796-0.0418 0.076195-0.01499 0.1111 0.02677 0.034889 0.07673 0.041756 0.11162 0.014986l0.50384-0.38653c0.03486-0.026796 0.04128-0.076712 0.01447-0.11162-0.01673-0.021806-0.04272-0.032549-0.06821-0.031005zm-8.8375 0.56791c-0.037557-1e-3 -0.074414 0.018305-0.094566 0.053226-0.02931 0.050769-0.012023 0.11538 0.038757 0.14469l0.73327 0.42322c0.05077 0.029317 0.11537 0.012029 0.14469-0.038756 0.02932-0.050767 0.012043-0.11538-0.038757-0.14469l-0.73327-0.42322c-0.015865-0.00916-0.033054-0.014013-0.050125-0.014469zm9.2055 0c-0.01707 4.553e-4 -0.03426 0.00531-0.05012 0.014469l-0.73328 0.42322c-0.05077 0.02932-0.06808 0.093912-0.03876 0.14469 0.02931 0.050771 0.09391 0.068072 0.14469 0.038756l0.73327-0.42322c0.05077-0.02932 0.06808-0.09391 0.03876-0.14469-0.02015-0.034906-0.05701-0.054227-0.09457-0.053226zm-9.5408 0.64026c-0.031018 2.161e-4 -0.060249 0.01859-0.072863 0.049092-0.01679 0.040645 0.00221 0.087553 0.042891 0.10438l0.58652 0.24236c0.04064 0.0168 0.087037-0.00222 0.10387-0.042891 0.01679-0.040645-0.00223-0.087038-0.04289-0.10387l-0.58652-0.24287c-0.01016-0.0042-0.020666-0.00627-0.031005-0.0062zm9.8762 0c-0.01034-7.49e-5 -0.02085 0.00199-0.03101 0.0062l-0.58652 0.24287c-0.04061 0.01686-0.05975 0.063211-0.04289 0.10387 0.01683 0.040629 0.06324 0.060234 0.10387 0.043407l0.58652-0.24287c0.04061-0.01686 0.05975-0.063728 0.04289-0.10438-0.01262-0.030472-0.04185-0.048867-0.07286-0.049092zm-10.079 0.64284c-0.045152 0.00176-0.085343 0.032002-0.097666 0.07803-0.01517 0.056625 0.018299 0.11505 0.074929 0.13022l0.8175 0.21859c0.05663 0.015177 0.11453-0.017771 0.1297-0.074413 0.01518-0.056625-0.018279-0.11505-0.074929-0.13022l-0.8175-0.2191c-0.010618-0.00285-0.021619-0.00351-0.032039-0.0031zm10.272 0c-7e-3 4.269e-4 -0.01411 0.0012-0.02119 0.0031l-0.81751 0.2191c-0.05663 0.015181-0.09011 0.073584-0.07493 0.13022 0.01517 0.056627 0.07307 0.089587 0.1297 0.074413l0.8175-0.21859c0.05663-0.015181 0.09011-0.073582 0.07493-0.13022-0.01327-0.049549-0.05928-0.081018-0.10852-0.07803zm-10.435 0.70485c-0.036937 0.00262-0.067857 0.031066-0.072862 0.069245-0.0057 0.043606 0.024561 0.083669 0.068211 0.089398l0.62941 0.082681c0.0436 0.00571 0.083668-0.025085 0.089398-0.068728 0.0057-0.043606-0.025088-0.083153-0.068728-0.088882l-0.62889-0.083197c-0.00545-7.137e-4 -0.011259-8.917e-4 -0.016536-5.17e-4zm10.601 0c-0.0027 8e-5 -0.0055 1.581e-4 -0.0083 5.167e-4l-0.62889 0.083197c-0.04359 0.00577-0.0745 0.045246-0.06873 0.088882 0.0057 0.043601 0.0458 0.074466 0.0894 0.068728l0.62941-0.082681c0.04359-0.00577 0.07398-0.045764 0.06821-0.089398-0.0053-0.040875-0.04079-0.070446-0.08113-0.069245zm-10.614 0.67126c-0.05863-2.9e-6 -0.10595 0.04729-0.10593 0.10593-2e-6 0.058623 0.047303 0.10594 0.10593 0.10593h0.84644c0.05863 2.9e-6 0.10594-0.047295 0.10593-0.10593 3e-6 -0.058623-0.047285-0.10594-0.10593-0.10593zm9.7894 0c-0.05863 6.8e-6 -0.10594 0.047297-0.10594 0.10593-3e-6 0.058624 0.0473 0.10593 0.10594 0.10593h0.84644c0.05863-6.8e-6 0.10594-0.047296 0.10594-0.10593 4e-6 -0.058625-0.0473-0.10593-0.10594-0.10593zm-9.1429 0.64129c-0.00269 8.11e-5 -0.00554 1.566e-4 -0.00827 5.168e-4l-0.62941 0.082681c-0.04359 0.00577-0.073971 0.04577-0.068211 0.089398 0.0058 0.04359 0.045758 0.07449 0.089398 0.068728l0.62889-0.083197c0.04342-0.00575 0.074184-0.045442 0.068728-0.088882v-5.168e-4c-0.00565-0.04061-0.040935-0.06994-0.08113-0.068728zm9.3352 0c-0.03693 0.00262-0.06837 0.031057-0.07338 0.069245-0.0058 0.043591 0.02514 0.08314 0.06873 0.088882l0.62889 0.083197c0.0436 0.00571 0.08368-0.025086 0.0894-0.068728 0.0058-0.04359-0.02461-0.083657-0.06821-0.089398l-0.62941-0.082681c-0.0054-7.138e-4 -0.01074-8.917e-4 -0.01602-5.168e-4zm-8.9889 0.51624c-0.00703 4.279e-4 -0.014106 0.00172-0.021187 0.00362l-0.8175 0.2191c-0.05663 0.015171-0.090119 0.073062-0.074929 0.12971 0.01517 0.056626 0.073077 0.090108 0.1297 0.074929l0.8175-0.2191c0.05663-0.015171 0.090109-0.073065 0.074929-0.12971-0.013273-0.049548-0.059274-0.081542-0.10852-0.078547zm8.6401 0c-0.04515 0.00176-0.08586 0.032527-0.09818 0.078547-0.01518 0.056626 0.01829 0.11453 0.07493 0.12971l0.81751 0.2191c0.05663 0.015168 0.11453-0.018287 0.1297-0.074929 0.01518-0.056626-0.01829-0.11505-0.07493-0.13022l-0.81751-0.21859c-0.01062-0.00284-0.0211-0.00402-0.03152-0.00362zm-8.6732 0.67126c-0.0078 7.16e-4 -0.015631 0.0025-0.023254 0.0057l-0.58652 0.24287c-0.04061 0.01686-0.059741 0.06373-0.042891 0.10438 0.01686 0.04061 0.063208 0.05975 0.10387 0.04289l0.58652-0.24287c0.04061-0.01686 0.05975-0.06321 0.04289-0.10387-0.013698-0.033-0.046822-0.05219-0.080613-0.04909zm8.7089 0c-0.03101 2.19e-4 -0.06024 0.01859-0.07286 0.04909-0.01688 0.0406 0.0022 0.08704 0.04289 0.10387l0.58652 0.24287c0.04064 0.0168 0.08705-0.0022 0.10387-0.04289 0.01689-0.0406-0.0022-0.08755-0.04289-0.10438l-0.58652-0.24287c-0.01016-0.0042-0.02067-0.0058-0.03101-0.0057zm-8.2257 0.40669c-0.017072 4.56e-4 -0.034256 0.0053-0.050125 0.01447l-0.73327 0.42322c-0.05077 0.02931-0.068087 0.09391-0.038757 0.14469 0.02931 0.05077 0.093917 0.06808 0.14469 0.03876l0.73327-0.42322c0.05077-0.02931 0.068077-0.09391 0.038757-0.14469-0.020151-0.03491-0.057008-0.05423-0.094566-0.05323zm7.7503 0c-0.03756-1e-3 -0.07441 0.01831-0.09457 0.05323-0.02932 0.05077-0.01202 0.11537 0.03876 0.14469l0.73327 0.42322c0.05077 0.02931 0.11538 0.01202 0.14469-0.03876 0.02932-0.05077 0.01202-0.11537-0.03876-0.14469l-0.73327-0.42322c-0.01587-0.0092-0.03305-0.01401-0.05012-0.01447zm-7.6164 0.65783c-0.015294 9.22e-4 -0.030315 0.0065-0.043407 0.01654l-0.50384 0.38653c-0.03486 0.0268-0.04127 0.07671-0.01447 0.11162 0.0268 0.03486 0.076705 0.04128 0.11162 0.01447l0.50332-0.38653c0.034747-0.02671 0.041492-0.07621 0.014986-0.1111v-5.17e-4c-0.016755-0.02159-0.042837-0.03253-0.068212-0.03101zm7.4748 0c-0.02291 8.02e-4 -0.04539 0.01136-0.06046 0.03101-0.02681 0.03485-0.01994 0.08484 0.01499 0.11162l0.50332 0.38653c0.03491 0.02675 0.08484 0.02046 0.11162-0.01447 0.02682-0.03485 0.02046-0.08483-0.01447-0.11162l-0.50384-0.38653c-0.01527-0.0117-0.03334-0.01716-0.05116-0.01654zm-6.8956 0.2682c-0.02709-1e-6 -0.054198 0.01078-0.07493 0.03152l-0.5984 0.5984c-0.04145 0.04145-0.041475 0.10839 0 0.14986 0.04145 0.04145 0.1084 0.04146 0.14986 0l0.5984-0.5984c0.04145-0.04145 0.041465-0.1084 0-0.14986-0.020725-0.02073-0.04784-0.03152-0.074929-0.03152zm6.324 0c-0.02709 0-0.0542 0.01079-0.07493 0.03152-0.04146 0.04145-0.04146 0.1084 0 0.14986l0.5984 0.5984c0.04145 0.04145 0.1084 0.04146 0.14986 0 0.04146-0.04145 0.04147-0.10839 0-0.14986l-0.5984-0.5984c-0.02073-0.02073-0.04784-0.03152-0.07493-0.03152zm-6.0321 0.6015c-0.022909 8.01e-4 -0.044878 0.01136-0.059944 0.03101l-0.38653 0.50332c-0.02674 0.03491-0.020451 0.08484 0.014469 0.11162 0.03491 0.02674 0.084835 0.02046 0.11162-0.01447l0.38653-0.50384c0.02674-0.03491 0.019944-0.08483-0.014986-0.11162-0.015273-0.0117-0.03334-0.01664-0.051158-0.01602zm5.7324 0c-0.01529 9.23e-4 -0.03083 6e-3 -0.04392 0.01602-0.03492 0.02672-0.04128 0.0767-0.01447 0.11162l0.38653 0.50384c0.0268 0.03487 0.07671 0.04128 0.11162 0.01447 0.03493-0.02672 0.04128-0.0767 0.01447-0.11162l-0.38653-0.50332c-0.01675-0.02179-0.04221-0.03254-0.0677-0.03101zm-5.1055 0.10955c-0.033903 0.0024-0.065907 0.02096-0.08423 0.05271l-0.42322 0.73327c-0.02931 0.05077-0.012034 0.11537 0.038756 0.14469 0.05077 0.02931 0.11538 0.01202 0.14469-0.03876l0.42322-0.73327c0.02931-0.05077 0.012024-0.11538-0.038756-0.14469-0.019039-0.01099-0.040118-0.01538-0.060461-0.01395zm4.4761 0c-0.01707 4.56e-4 -0.03426 0.0048-0.05013 0.01395-0.05078 0.02931-0.06808 0.09391-0.03876 0.14469l0.42322 0.73327c0.02931 0.05077 0.09391 0.06808 0.14469 0.03876 0.05078-0.02931 0.06808-0.09391 0.03876-0.14469l-0.42322-0.73328c-0.02015-0.0349-0.05701-0.05371-0.09457-0.05271zm-3.3946 0.44648c-0.045151 0.0018-0.085854 0.03253-0.098183 0.07855l-0.2191 0.8175c-0.01517 0.05663 0.018289 0.11453 0.074929 0.12971 0.05663 0.01517 0.11505-0.0183 0.13022-0.07493l0.21859-0.8175c0.01517-0.05663-0.018289-0.11453-0.074929-0.1297-0.010618-0.0028-0.021103-4e-3 -0.031522-0.0036zm2.313 0c-0.00703 4.27e-4 -0.014624 0.0017-0.021703 0.0036-0.05664 0.01517-0.089593 0.07307-0.074413 0.1297l0.2191 0.8175c0.01517 0.05663 0.073069 0.09011 0.1297 0.07493 0.05663-0.01517 0.09011-0.07307 0.07493-0.12971l-0.2191-0.8175c-0.013274-0.04955-0.059281-0.08154-0.10852-0.07855zm-2.9543 0.05839c-0.031015 2.2e-4 -0.060241 0.01859-0.072862 0.04909l-0.24288 0.58652c-0.01679 0.04064 0.00223 0.08704 0.042891 0.10387 0.04064 0.01679 0.087554-0.0022 0.10438-0.04289l0.24236-0.58652c0.01679-0.04064-0.00222-0.08704-0.042891-0.10387-0.01016-0.0042-0.020667-0.0063-0.031005-0.0062zm3.6059 0c-0.01034-7.4e-5 -0.02084 2e-3 -0.03101 0.0062-0.04065 0.01677-0.06027 0.06321-0.04341 0.10387l0.24287 0.58652c0.01686 0.04062 0.06373 0.05975 0.10438 0.04289 0.04065-0.01677 0.05975-0.06321 0.04289-0.10387l-0.24287-0.58652c-0.01265-0.03047-0.04185-0.04887-0.07286-0.04909zm-1.803 0.09405c-0.05863 0-0.10593 0.0473-0.10593 0.10594v0.84644c0 0.05863 0.047304 0.10594 0.10593 0.10594 0.058631 0 0.10594-0.0473 0.10594-0.10594v-0.84644c0-0.05863-0.047304-0.10594-0.10594-0.10594zm-0.62062 0.22427c-0.036934 0.0026-0.06784 0.0311-0.072863 0.06925l-0.083197 0.62889c-0.0057 0.0436 0.025128 0.08366 0.068728 0.0894 0.0436 0.0057 0.083659-0.02462 0.089399-0.06821l0.08268-0.62941c0.0057-0.0436-0.025138-0.08366-0.068728-0.0894-0.00545-7.12e-4 -0.010743-8.94e-4 -0.016019-5.17e-4zm1.233 0c-0.00269 8.2e-5 -0.00554 1.56e-4 -0.00827 5.17e-4 -0.04361 0.0057-0.073982 0.04576-0.068212 0.0894l0.082681 0.62941c0.0058 0.0436 0.045768 0.07398 0.089398 0.06821 0.0436-0.0057 0.074499-0.04576 0.068729-0.0894l-0.083198-0.62889c-0.00544-0.04087-0.040773-0.07047-0.08113-0.06925z" fill="#ffffff" opacity=".8" style="paint-order:stroke markers fill"/>
 <g transform="translate(-17.461 .00078903)">
  <path d="m30.013 4.867c-0.03919-1.059e-4 -0.07028 0.02067-0.07028 0.02067l-4.2798 3.3134-3.3134 4.2798s-0.05311 0.08017 0.01137 0.14417c0.06447 0.064 0.14521 0.01034 0.14521 0.01034l4.2798-3.3114 3.3114-4.2798s0.05367-0.080727-0.01033-0.14521c-0.024-0.024182-0.05038-0.031975-0.0739-0.032039z" fill="#000000" filter="url(#filter42)" opacity=".35" style="mix-blend-mode:overlay;paint-order:stroke markers fill"/>
  <path d="m29.647 4.5917-4.2795 3.3135 1.1225 1.1225 3.3115-4.2795s0.05392-0.080984-0.01008-0.14547c-0.064-0.064485-0.14443-0.011109-0.14443-0.011109z" fill="#fd433b" style="paint-order:stroke markers fill"/>
  <path d="m22.054 12.185 3.3135-4.2795 1.1225 1.1225-4.2795 3.3115s-0.08099 0.05392-0.14546-0.01008c-0.06448-0.064-0.01111-0.14443-0.01111-0.14443z" fill="url(#linearGradient35)" style="paint-order:stroke markers fill"/>
  <path d="m25.367 7.905-3.3134 4.2798s-0.05311 0.08017 0.01137 0.14417c0.06447 0.064 0.14521 0.01033 0.14521 0.01033l4.2798-3.3114zm0.01964 0.31935 0.78288 0.7834-3.4648 2.6799z" fill="url(#linearGradient38)" stop-color="#000000" stroke-linecap="round" stroke-linejoin="round" style="mix-blend-mode:overlay;paint-order:stroke markers fill"/>
  <path d="m29.718 4.6097c-0.004852 9.62e-5 -0.009579 6.303e-4 -0.014469 0.0015503-0.01731 0.003249-0.028722 0.010215-0.031522 0.011885h-0.00155-5.17e-4c-5.91e-4 5.583e-4 -0.00155 0.002067-0.00155 0.002067l-4.2405 3.285 1.0588 1.0583 3.2809-4.242s0.010153-0.015289 0.013953-0.035139c0.00384-0.01985 0.00465-0.03807-0.01757-0.06046-0.016717-0.016846-0.031435-0.021476-0.045991-0.021187zm-0.56533 0.63561-2.682 3.4633-0.78288-0.7834 3.4648-2.6799z" fill="url(#linearGradient39)" opacity=".35" stop-color="#000000" stroke-linecap="round" stroke-linejoin="round" style="mix-blend-mode:normal;paint-order:stroke markers fill"/>
 </g>
</svg>
