<svg width="64" height="64" version="1.1" viewBox="0 0 16.933 16.933" xmlns="http://www.w3.org/2000/svg">
 <defs>
  <linearGradient id="a" x1="8.466" x2="8.466" y1="1.05" y2="15.866" gradientTransform="translate(-24.701)" gradientUnits="userSpaceOnUse">
   <stop stop-color="#ff8033" offset="0"/>
   <stop stop-color="#cc540a" offset="1"/>
  </linearGradient>
  <filter id="filter38" x="-.012" y="-.012" width="1.024" height="1.024" color-interpolation-filters="sRGB">
   <feGaussianBlur stdDeviation="0.074081873"/>
  </filter>
  <linearGradient id="linearGradient37" x1="15.081" x2="12.7" y1="14.816" y2="12.171" gradientUnits="userSpaceOnUse">
   <stop stop-color="#fff" offset="0"/>
   <stop stop-color="#fff" stop-opacity="0" offset="1"/>
  </linearGradient>
  <linearGradient id="linearGradient36" x1="6.7452" x2="10.583" y1="1.0583" y2="11.312" gradientUnits="userSpaceOnUse">
   <stop stop-color="#fff" offset="0"/>
   <stop stop-color="#fff" stop-opacity="0" offset="1"/>
  </linearGradient>
  <filter id="filter5" x="-.012" y="-.012" width="1.024" height="1.024" color-interpolation-filters="sRGB">
   <feGaussianBlur stdDeviation="0.074081873"/>
  </filter>
 </defs>
 <rect x="1.058" y="1.05" width="14.816" height="14.816" rx="3.7034" ry="3.7034" fill="url(#a)"/>
 <path d="m1.0578 9.2742v2.8887c2.633e-4 2.0515 1.6521 3.7031 3.7036 3.7031h7.4092c2.0517 0 3.7036-1.6514 3.7036-3.7031v-2.8096a3.43 3.43 0 0 1-3.439 3.3465h-7.9373a3.433 3.433 0 0 1-3.44-3.4256z" fill="#df4d00"/>
 <path d="m9.2861 1.0588a3.43 3.43 0 0 1 3.4219 3.44v7.9363a3.433 3.433 0 0 1-3.1842 3.4307h2.6468c2.0517 0 3.7036-1.6514 3.7036-3.7031v-7.4092c0-1.9638-1.5133-3.5615-3.4421-3.6948z" fill="#ff8940"/>
 <path d="m15.874 9.3527a3.43 3.43 0 0 1-3.1749 3.3372 3.43 3.43 0 0 1-3.1904 3.176h2.6618c2.0517 0 3.7036-1.6514 3.7036-3.7031z" fill="#f5670f"/>
 <path d="m5.3603 1.0583c-1.5298 0-2.5775 0.45637-3.2597 1.1999-0.67868 0.73981-1.0423 1.8002-1.0423 3.0008v6.415c0 1.2006 0.36361 2.2609 1.0423 3.0008 0.68219 0.74355 1.7299 1.1999 3.2597 1.1999h6.2305c1.5298 0 2.5775-0.45637 3.2597-1.1999 0.67868-0.73981 1.0242-1.7027 1.0242-3.0008v-6.1742c0-1.5703-0.34552-2.5018-1.0242-3.2416-0.68219-0.74355-1.7299-1.1999-3.2597-1.1999h-4.8456zm-0.00103 0.26406h6.2326c1.4772 0 2.437 0.43133 3.0644 1.1152 0.63411 0.69126 0.95341 1.5307 0.95341 3.0623v6.1742c0 1.2512-0.32181 2.1335-0.95341 2.822-0.6274 0.68381-1.5871 1.1136-3.0644 1.1136h-6.2326c-1.4772 0-2.437-0.42978-3.0644-1.1136-0.62537-0.68172-0.97253-1.6747-0.97253-2.822v-6.4145c0-1.1472 0.34717-2.1403 0.97253-2.822 0.6274-0.68381 1.5871-1.1152 3.0644-1.1152z" fill="url(#linearGradient37)" filter="url(#filter38)" opacity=".75" style="mix-blend-mode:overlay"/>
 <path d="m5.3603 1.0583c-1.5298 0-2.5775 0.45637-3.2597 1.1999-0.67868 0.73981-1.0423 1.8002-1.0423 3.0008v6.415c0 1.2006 0.36361 2.2609 1.0423 3.0008 0.68219 0.74355 1.7299 1.1999 3.2597 1.1999h6.2305c1.5298 0 2.5775-0.45637 3.2597-1.1999 0.67868-0.73981 1.0242-1.7027 1.0242-3.0008v-6.1742c0-1.5703-0.34552-2.5018-1.0242-3.2416-0.68219-0.74355-1.7299-1.1999-3.2597-1.1999h-4.8456zm-0.00103 0.26406h6.2326c1.4772 0 2.437 0.43133 3.0644 1.1152 0.63411 0.69126 0.95341 1.5307 0.95341 3.0623v6.1742c0 1.2512-0.32181 2.1335-0.95341 2.822-0.6274 0.68381-1.5871 1.1136-3.0644 1.1136h-6.2326c-1.4772 0-2.437-0.42978-3.0644-1.1136-0.62537-0.68172-0.97253-1.6747-0.97253-2.822v-6.4145c0-1.1472 0.34717-2.1403 0.97253-2.822 0.6274-0.68381 1.5871-1.1152 3.0644-1.1152z" fill="url(#linearGradient36)" filter="url(#filter5)" opacity=".75" style="mix-blend-mode:overlay"/>
 <path d="M4.498 10.319v-6.35h2.506q.716 0 1.236.256.52.251.8.72.286.465.286 1.108 0 .64-.285 1.108-.286.465-.814.72-.524.256-1.24.256h-1.76v-1.1h1.692q.349 0 .6-.119.252-.123.388-.345t.137-.52q0-.307-.137-.524t-.388-.337q-.251-.123-.6-.123H5.81v5.25z" fill="#fff" aria-label="P"/>
</svg>
